<svg xmlns="http://www.w3.org/2000/svg" xmlns:xlink="http://www.w3.org/1999/xlink" width="52" zoomAndPan="magnify" viewBox="0 0 39 38.999999" height="52" preserveAspectRatio="xMidYMid meet" version="1.0"><path fill="#000000" d="M 17.140625 35.5 L 17.15625 35.476562 Z M 25.320312 19.699219 C 25.121094 19.617188 24.996094 19.402344 25.03125 19.179688 Z M 11.5625 5.710938 C 11.292969 5.710938 11.074219 5.492188 11.074219 5.222656 C 11.074219 4.953125 11.292969 4.734375 11.5625 4.734375 L 27.59375 4.734375 C 27.863281 4.734375 28.082031 4.953125 28.082031 5.222656 C 28.082031 5.492188 27.863281 5.710938 27.59375 5.710938 Z M 24.257812 24.472656 L 29.039062 27.582031 L 30.566406 28.574219 L 30.589844 28.589844 L 34.855469 26.777344 C 34.742188 24.96875 34.351562 23.371094 33.683594 21.988281 C 33.035156 20.644531 32.121094 19.496094 30.945312 18.542969 C 30.25 19.074219 29.480469 19.441406 28.628906 19.648438 C 27.660156 19.886719 26.597656 19.914062 25.433594 19.734375 C 25.394531 19.726562 25.355469 19.714844 25.320312 19.699219 C 24.527344 19.386719 23.761719 19.242188 23.023438 19.269531 C 22.292969 19.296875 21.582031 19.492188 20.890625 19.859375 L 19.835938 20.496094 L 19.828125 20.503906 L 14.269531 23.855469 L 14.265625 23.867188 L 14.261719 23.882812 C 14.222656 24.03125 14.214844 24.171875 14.230469 24.300781 L 14.234375 24.324219 L 14.238281 24.332031 L 14.238281 24.351562 L 14.242188 24.355469 L 14.242188 24.367188 L 14.246094 24.375 L 14.246094 24.382812 L 14.253906 24.414062 C 14.3125 24.628906 14.453125 24.835938 14.683594 25.027344 L 14.707031 25.050781 C 14.839844 25.160156 15 25.269531 15.1875 25.371094 C 15.628906 25.476562 16.058594 25.5 16.472656 25.441406 C 16.902344 25.378906 17.320312 25.222656 17.730469 24.980469 L 17.746094 24.972656 C 20.066406 23.625 22.210938 23.445312 24.179688 24.425781 C 24.207031 24.4375 24.234375 24.453125 24.257812 24.472656 Z M 29.929688 29.320312 L 27.246094 27.574219 L 25.679688 26.558594 L 25.675781 26.554688 L 23.730469 25.289062 C 22.078125 24.472656 20.246094 24.648438 18.234375 25.816406 L 18.226562 25.820312 C 17.707031 26.128906 17.167969 26.324219 16.609375 26.402344 C 16.050781 26.484375 15.480469 26.453125 14.894531 26.304688 C 14.855469 26.292969 14.820312 26.28125 14.785156 26.261719 C 14.511719 26.113281 14.273438 25.957031 14.070312 25.785156 L 14.050781 25.769531 C 13.667969 25.441406 13.421875 25.074219 13.3125 24.664062 L 13.308594 24.648438 L 13.304688 24.636719 L 13.304688 24.628906 L 13.300781 24.613281 L 13.296875 24.609375 L 13.289062 24.570312 C 13.226562 24.273438 13.234375 23.960938 13.320312 23.636719 L 13.320312 23.632812 L 13.324219 23.613281 L 13.332031 23.59375 L 13.335938 23.578125 L 13.335938 23.574219 L 13.34375 23.550781 L 13.347656 23.53125 L 13.351562 23.523438 L 13.355469 23.511719 L 13.359375 23.496094 L 13.363281 23.488281 L 13.367188 23.46875 L 13.375 23.449219 L 13.378906 23.441406 L 13.382812 23.425781 L 13.386719 23.414062 L 13.390625 23.40625 L 13.398438 23.386719 L 13.398438 23.378906 L 13.402344 23.375 L 13.402344 23.371094 L 13.40625 23.363281 L 13.40625 23.355469 L 13.410156 23.355469 L 13.410156 23.347656 L 13.414062 23.34375 L 13.414062 23.339844 L 13.417969 23.335938 L 13.417969 23.328125 L 13.421875 23.324219 L 13.421875 23.320312 L 13.429688 23.3125 L 13.429688 23.304688 L 13.4375 23.296875 L 13.4375 23.292969 L 13.441406 23.285156 L 13.445312 23.28125 L 13.445312 23.277344 L 13.453125 23.269531 L 13.453125 23.265625 L 13.457031 23.261719 L 13.457031 23.257812 L 13.46875 23.246094 L 13.46875 23.242188 L 13.472656 23.242188 L 13.472656 23.238281 L 13.476562 23.234375 L 13.476562 23.230469 L 13.503906 23.203125 L 13.503906 23.199219 L 13.507812 23.199219 L 13.507812 23.195312 L 13.511719 23.195312 L 13.511719 23.191406 L 13.515625 23.191406 L 13.515625 23.1875 L 13.519531 23.1875 L 13.519531 23.183594 L 13.523438 23.183594 L 13.523438 23.179688 L 13.527344 23.179688 L 13.5625 23.144531 L 13.566406 23.144531 L 13.574219 23.140625 L 13.589844 23.125 L 13.597656 23.125 L 13.609375 23.113281 L 18.632812 20.082031 L 18.265625 19.859375 C 17.570312 19.492188 16.859375 19.296875 16.132812 19.269531 C 15.394531 19.242188 14.628906 19.386719 13.835938 19.699219 C 13.800781 19.714844 13.761719 19.726562 13.722656 19.734375 C 12.558594 19.914062 11.496094 19.886719 10.527344 19.648438 C 9.675781 19.441406 8.90625 19.074219 8.210938 18.542969 C 7.035156 19.496094 6.121094 20.644531 5.472656 21.988281 C 4.800781 23.378906 4.410156 24.980469 4.300781 26.796875 L 6.351562 27.816406 L 7.882812 28.578125 L 7.878906 28.582031 C 7.925781 28.601562 7.964844 28.628906 8 28.664062 L 9.160156 29.78125 L 9.351562 29.964844 L 9.816406 29.136719 L 9.832031 29.113281 L 9.839844 29.09375 L 9.84375 29.089844 L 9.847656 29.082031 L 9.859375 29.066406 L 9.867188 29.054688 L 9.871094 29.042969 L 9.875 29.039062 L 9.882812 29.027344 L 9.886719 29.023438 L 9.890625 29.011719 L 9.902344 29 L 9.917969 28.976562 L 9.917969 28.972656 L 9.929688 28.960938 L 9.933594 28.953125 L 9.9375 28.949219 L 9.945312 28.933594 L 9.949219 28.933594 L 9.964844 28.910156 L 9.976562 28.894531 L 10.003906 28.859375 L 10.011719 28.847656 L 10.023438 28.835938 L 10.0625 28.785156 L 10.085938 28.761719 L 10.09375 28.75 L 10.148438 28.695312 C 10.410156 28.425781 10.738281 28.234375 11.09375 28.136719 C 11.164062 28.117188 11.234375 28.097656 11.308594 28.085938 L 11.324219 28.085938 L 11.355469 28.078125 L 11.371094 28.078125 C 11.8125 28.015625 12.277344 28.089844 12.695312 28.320312 L 12.703125 28.324219 C 13.210938 28.609375 13.554688 29.078125 13.703125 29.601562 C 13.722656 29.664062 13.738281 29.730469 13.75 29.796875 C 13.8125 29.773438 13.875 29.75 13.941406 29.730469 C 14.453125 29.589844 15.019531 29.636719 15.519531 29.90625 C 15.539062 29.914062 15.558594 29.925781 15.574219 29.9375 C 16.070312 30.222656 16.40625 30.683594 16.550781 31.195312 C 16.566406 31.253906 16.582031 31.308594 16.589844 31.367188 C 16.644531 31.347656 16.699219 31.328125 16.753906 31.3125 C 17.238281 31.175781 17.777344 31.226562 18.25 31.488281 C 18.722656 31.753906 19.046875 32.1875 19.183594 32.675781 C 19.199219 32.742188 19.214844 32.808594 19.226562 32.875 C 19.269531 32.859375 19.308594 32.847656 19.351562 32.835938 C 19.875 32.6875 20.453125 32.738281 20.960938 33.023438 C 21.253906 33.1875 21.492188 33.410156 21.667969 33.667969 L 23.550781 34.875 C 23.5625 34.878906 23.570312 34.886719 23.582031 34.890625 C 23.648438 34.933594 23.714844 34.984375 23.777344 35.035156 L 24.351562 35.40625 C 24.5625 35.542969 24.8125 35.578125 25.039062 35.527344 C 25.269531 35.480469 25.480469 35.34375 25.613281 35.132812 C 25.75 34.921875 25.789062 34.675781 25.738281 34.445312 C 25.6875 34.214844 25.550781 34.003906 25.339844 33.871094 L 24.765625 33.5 L 23.941406 32.972656 C 23.929688 32.964844 23.914062 32.953125 23.902344 32.945312 C 23.550781 32.71875 23.167969 32.476562 22.785156 32.234375 L 21.789062 31.597656 C 21.5625 31.453125 21.496094 31.152344 21.640625 30.925781 C 21.785156 30.699219 22.085938 30.632812 22.3125 30.777344 C 22.453125 30.871094 22.710938 31.03125 23.304688 31.410156 C 23.863281 31.761719 24.417969 32.117188 25.121094 32.570312 L 25.183594 32.613281 L 25.292969 32.679688 L 26.078125 33.183594 L 26.101562 33.199219 C 26.359375 33.355469 26.664062 33.398438 26.941406 33.335938 C 27.230469 33.273438 27.492188 33.101562 27.660156 32.839844 L 27.664062 32.835938 L 27.660156 32.835938 C 27.832031 32.574219 27.875 32.261719 27.8125 31.972656 C 27.753906 31.699219 27.597656 31.449219 27.355469 31.28125 L 27.3125 31.253906 L 26.246094 30.570312 L 25.90625 30.355469 L 25.890625 30.34375 C 25.867188 30.332031 25.835938 30.308594 25.800781 30.28125 C 25.773438 30.261719 25.75 30.246094 25.730469 30.234375 L 24.679688 29.558594 C 24.453125 29.414062 24.386719 29.113281 24.53125 28.886719 C 24.675781 28.660156 24.976562 28.59375 25.203125 28.738281 L 26.277344 29.425781 L 26.300781 29.441406 L 26.304688 29.441406 L 26.320312 29.453125 L 26.445312 29.535156 L 26.570312 29.613281 L 26.605469 29.636719 L 26.632812 29.652344 C 26.652344 29.664062 26.675781 29.679688 26.707031 29.703125 L 26.722656 29.714844 C 26.738281 29.726562 26.757812 29.738281 26.777344 29.757812 L 27.839844 30.433594 L 28.246094 30.695312 L 28.265625 30.710938 C 28.527344 30.867188 28.828125 30.90625 29.109375 30.847656 C 29.394531 30.785156 29.660156 30.613281 29.828125 30.347656 L 29.84375 30.324219 C 29.945312 30.160156 29.996094 29.976562 30.007812 29.792969 C 30.015625 29.632812 29.988281 29.472656 29.929688 29.320312 Z M 19.578125 19.515625 L 20.390625 19.027344 C 20.402344 19.015625 20.414062 19.007812 20.429688 19.003906 C 21.25 18.566406 22.105469 18.332031 22.988281 18.296875 C 23.851562 18.265625 24.734375 18.425781 25.636719 18.78125 C 26.648438 18.933594 27.570312 18.90625 28.398438 18.703125 C 29.121094 18.527344 29.773438 18.214844 30.359375 17.765625 L 30.246094 17.453125 C 30.164062 17.234375 30.25 16.984375 30.457031 16.863281 L 31.316406 16.367188 L 31.316406 2.378906 C 31.316406 2.007812 31.164062 1.667969 30.917969 1.421875 C 30.675781 1.175781 30.335938 1.023438 29.964844 1.023438 L 9.191406 1.023438 C 8.820312 1.023438 8.484375 1.175781 8.238281 1.421875 L 8.214844 1.445312 C 7.984375 1.6875 7.839844 2.015625 7.839844 2.378906 L 7.839844 16.367188 L 8.695312 16.863281 C 8.90625 16.984375 8.992188 17.234375 8.910156 17.453125 L 8.796875 17.765625 C 9.382812 18.214844 10.035156 18.527344 10.757812 18.703125 C 11.585938 18.90625 12.507812 18.933594 13.519531 18.78125 C 14.421875 18.425781 15.304688 18.265625 16.164062 18.296875 C 17.050781 18.332031 17.90625 18.566406 18.726562 19.003906 C 18.742188 19.007812 18.753906 19.015625 18.765625 19.027344 Z M 31.347656 17.625 L 31.300781 17.5 L 32.015625 17.085938 C 32.039062 17.078125 32.058594 17.066406 32.078125 17.050781 L 33.605469 16.167969 C 34.921875 17.535156 35.960938 19.039062 36.714844 20.6875 C 37.472656 22.351562 37.949219 24.167969 38.132812 26.136719 L 36.148438 27.183594 L 35.835938 26.875 C 35.726562 24.875 35.304688 23.105469 34.5625 21.566406 C 33.8125 20.011719 32.738281 18.699219 31.347656 17.625 Z M 35.25 27.664062 L 30.964844 29.488281 C 30.980469 29.605469 30.984375 29.722656 30.976562 29.839844 C 30.960938 30.183594 30.859375 30.527344 30.667969 30.839844 C 30.660156 30.851562 30.65625 30.863281 30.648438 30.875 C 30.332031 31.363281 29.847656 31.683594 29.316406 31.800781 C 29.140625 31.835938 28.960938 31.855469 28.78125 31.847656 C 28.871094 32.351562 28.78125 32.894531 28.480469 33.363281 C 28.164062 33.855469 27.679688 34.171875 27.148438 34.289062 C 27.003906 34.320312 26.855469 34.335938 26.707031 34.335938 C 26.78125 34.78125 26.695312 35.253906 26.433594 35.660156 C 26.152344 36.097656 25.71875 36.378906 25.246094 36.480469 C 24.984375 36.539062 24.710938 36.539062 24.445312 36.480469 C 24.441406 36.816406 24.355469 37.152344 24.167969 37.453125 C 24.15625 37.480469 24.140625 37.503906 24.125 37.527344 C 23.84375 37.949219 23.417969 38.21875 22.957031 38.320312 C 22.496094 38.417969 21.996094 38.347656 21.566406 38.082031 C 21.546875 38.070312 21.527344 38.058594 21.511719 38.046875 L 20.855469 37.625 L 20.824219 37.605469 L 20.710938 37.808594 C 20.425781 38.316406 19.957031 38.660156 19.433594 38.808594 C 18.917969 38.953125 18.34375 38.90625 17.835938 38.625 L 17.824219 38.621094 C 17.402344 38.382812 17.089844 38.015625 16.914062 37.597656 C 16.703125 37.769531 16.464844 37.890625 16.207031 37.960938 C 15.722656 38.097656 15.183594 38.050781 14.710938 37.785156 C 14.285156 37.546875 13.980469 37.167969 13.824219 36.734375 C 13.664062 36.832031 13.492188 36.90625 13.3125 36.957031 C 12.792969 37.101562 12.214844 37.050781 11.707031 36.769531 L 11.703125 36.765625 C 11.195312 36.480469 10.847656 36.011719 10.699219 35.492188 C 10.582031 35.070312 10.59375 34.613281 10.75 34.183594 C 10.351562 34.214844 9.941406 34.128906 9.566406 33.921875 C 9.054688 33.636719 8.710938 33.167969 8.5625 32.644531 C 8.417969 32.125 8.46875 31.546875 8.753906 31.035156 L 8.863281 30.839844 L 8.488281 30.480469 L 7.382812 29.421875 L 5.917969 28.691406 L 3.890625 27.679688 L 3.453125 28.113281 C 3.304688 28.269531 3.070312 28.316406 2.871094 28.210938 L 0.308594 26.859375 C 0.125 26.777344 0.0078125 26.585938 0.0234375 26.378906 C 0.195312 24.179688 0.707031 22.148438 1.558594 20.285156 C 2.40625 18.425781 3.59375 16.742188 5.113281 15.226562 C 5.164062 15.175781 5.222656 15.132812 5.289062 15.109375 L 5.289062 15.105469 L 5.300781 15.101562 L 5.308594 15.097656 L 5.3125 15.097656 L 5.332031 15.09375 L 5.355469 15.085938 C 5.472656 15.058594 5.601562 15.074219 5.714844 15.136719 L 6.863281 15.804688 L 6.863281 2.378906 C 6.863281 1.753906 7.113281 1.183594 7.519531 0.761719 C 7.527344 0.753906 7.539062 0.742188 7.546875 0.734375 C 7.96875 0.3125 8.550781 0.0507812 9.191406 0.0507812 L 29.964844 0.0507812 C 30.601562 0.0507812 31.183594 0.3125 31.605469 0.734375 L 31.609375 0.734375 C 32.03125 1.15625 32.292969 1.738281 32.292969 2.378906 L 32.292969 15.804688 L 33.441406 15.136719 C 33.554688 15.074219 33.683594 15.058594 33.800781 15.085938 L 33.824219 15.09375 L 33.84375 15.097656 L 33.847656 15.097656 L 33.855469 15.101562 L 33.867188 15.105469 L 33.867188 15.109375 C 33.933594 15.132812 33.992188 15.175781 34.042969 15.226562 C 35.5625 16.742188 36.75 18.425781 37.597656 20.285156 C 38.449219 22.148438 38.960938 24.179688 39.132812 26.378906 C 39.148438 26.585938 39.03125 26.777344 38.847656 26.859375 L 36.285156 28.210938 C 36.085938 28.316406 35.851562 28.269531 35.703125 28.113281 Z M 10.667969 29.613281 L 10.671875 29.605469 L 10.675781 29.601562 L 10.675781 29.597656 L 10.683594 29.582031 L 10.6875 29.578125 L 10.6875 29.574219 L 10.691406 29.570312 L 10.695312 29.5625 L 10.699219 29.5625 L 10.703125 29.554688 L 10.703125 29.550781 L 10.707031 29.546875 L 10.710938 29.539062 L 10.71875 29.53125 L 10.71875 29.527344 L 10.730469 29.515625 L 10.730469 29.511719 L 10.738281 29.503906 L 10.742188 29.496094 L 10.746094 29.492188 L 10.75 29.484375 L 10.757812 29.476562 L 10.761719 29.46875 L 10.773438 29.457031 L 10.777344 29.449219 L 10.78125 29.445312 L 10.785156 29.445312 L 10.792969 29.429688 L 10.800781 29.425781 L 10.804688 29.417969 L 10.816406 29.40625 L 10.816406 29.402344 L 10.824219 29.398438 C 10.839844 29.378906 10.859375 29.363281 10.875 29.34375 L 10.878906 29.34375 L 10.882812 29.339844 L 10.886719 29.332031 C 10.921875 29.300781 10.957031 29.273438 10.996094 29.246094 C 11.03125 29.222656 11.066406 29.199219 11.101562 29.179688 L 11.105469 29.175781 L 11.121094 29.167969 L 11.125 29.164062 L 11.132812 29.160156 L 11.136719 29.160156 L 11.140625 29.15625 L 11.15625 29.148438 L 11.164062 29.148438 L 11.164062 29.144531 L 11.171875 29.140625 L 11.175781 29.140625 L 11.179688 29.136719 L 11.1875 29.136719 L 11.1875 29.132812 L 11.195312 29.132812 L 11.199219 29.128906 L 11.203125 29.128906 L 11.234375 29.113281 L 11.238281 29.113281 L 11.242188 29.109375 L 11.25 29.109375 L 11.257812 29.105469 L 11.261719 29.101562 L 11.265625 29.101562 L 11.273438 29.097656 L 11.28125 29.097656 L 11.289062 29.09375 L 11.292969 29.09375 L 11.300781 29.089844 L 11.308594 29.089844 L 11.324219 29.082031 L 11.332031 29.082031 L 11.347656 29.074219 L 11.355469 29.074219 L 11.363281 29.070312 L 11.371094 29.070312 L 11.390625 29.066406 L 11.394531 29.0625 L 11.398438 29.0625 L 11.414062 29.058594 L 11.421875 29.058594 L 11.421875 29.054688 L 11.4375 29.054688 L 11.445312 29.050781 L 11.460938 29.050781 L 11.464844 29.046875 L 11.480469 29.046875 L 11.488281 29.042969 L 11.507812 29.042969 L 11.511719 29.039062 L 11.539062 29.039062 L 11.542969 29.035156 C 11.765625 29.011719 11.996094 29.050781 12.207031 29.164062 C 12.21875 29.171875 12.234375 29.179688 12.246094 29.1875 C 12.507812 29.339844 12.6875 29.589844 12.765625 29.863281 C 12.84375 30.140625 12.820312 30.445312 12.675781 30.714844 C 12.664062 30.730469 12.65625 30.742188 12.652344 30.757812 L 12.648438 30.757812 L 12.050781 31.828125 C 12.039062 31.847656 12.023438 31.867188 12.011719 31.890625 C 11.984375 31.929688 11.96875 31.960938 11.953125 31.984375 L 11.523438 32.75 C 11.371094 32.960938 11.152344 33.105469 10.910156 33.171875 C 10.628906 33.25 10.316406 33.222656 10.042969 33.070312 C 9.765625 32.917969 9.582031 32.664062 9.5 32.382812 C 9.421875 32.097656 9.449219 31.785156 9.601562 31.511719 Z M 12.894531 32.320312 L 12.894531 32.316406 L 13.5 31.234375 L 13.5 31.230469 C 13.511719 31.21875 13.519531 31.203125 13.527344 31.191406 C 13.679688 30.925781 13.925781 30.746094 14.203125 30.667969 C 14.480469 30.59375 14.785156 30.617188 15.054688 30.761719 C 15.066406 30.769531 15.078125 30.773438 15.089844 30.78125 L 15.09375 30.785156 C 15.355469 30.9375 15.535156 31.183594 15.613281 31.460938 C 15.691406 31.738281 15.667969 32.042969 15.523438 32.3125 C 15.511719 32.324219 15.503906 32.339844 15.496094 32.355469 L 14.921875 33.378906 L 14.449219 34.226562 L 14.4375 34.246094 L 14.417969 34.277344 L 14.417969 34.28125 L 14.394531 34.316406 C 14.382812 34.332031 14.367188 34.351562 14.359375 34.371094 L 13.738281 35.476562 C 13.585938 35.75 13.332031 35.9375 13.050781 36.015625 C 12.773438 36.09375 12.46875 36.070312 12.199219 35.925781 C 12.1875 35.917969 12.171875 35.910156 12.15625 35.902344 C 11.894531 35.75 11.714844 35.503906 11.636719 35.226562 C 11.5625 34.949219 11.585938 34.644531 11.730469 34.375 C 11.738281 34.363281 11.746094 34.347656 11.753906 34.332031 L 12.347656 33.273438 C 12.382812 33.21875 12.417969 33.164062 12.449219 33.109375 Z M 3.320312 26.875 L 3.007812 27.183594 L 1.023438 26.136719 C 1.207031 24.167969 1.683594 22.351562 2.441406 20.6875 C 3.195312 19.039062 4.234375 17.535156 5.550781 16.167969 L 7.078125 17.050781 C 7.097656 17.0625 7.117188 17.078125 7.140625 17.085938 L 7.855469 17.5 L 7.808594 17.625 C 6.417969 18.699219 5.34375 20.011719 4.59375 21.566406 C 3.851562 23.105469 3.429688 24.875 3.320312 26.875 Z M 15.785156 33.835938 L 15.773438 33.855469 L 15.296875 34.703125 L 14.804688 35.582031 C 14.671875 35.820312 14.648438 36.089844 14.71875 36.335938 C 14.789062 36.582031 14.949219 36.804688 15.1875 36.9375 C 15.425781 37.070312 15.699219 37.09375 15.945312 37.023438 C 16.191406 36.957031 16.410156 36.792969 16.542969 36.554688 L 17.109375 35.550781 C 17.117188 35.53125 17.128906 35.515625 17.140625 35.5 L 17.164062 35.464844 L 17.1875 35.421875 L 17.191406 35.417969 L 18.078125 33.835938 L 18.15625 33.695312 C 18.289062 33.457031 18.3125 33.183594 18.246094 32.9375 C 18.175781 32.691406 18.011719 32.472656 17.773438 32.339844 C 17.535156 32.207031 17.261719 32.183594 17.015625 32.25 C 16.773438 32.320312 16.550781 32.484375 16.417969 32.722656 L 15.855469 33.726562 C 15.84375 33.746094 15.832031 33.765625 15.820312 33.78125 L 15.800781 33.808594 Z M 18.925781 34.3125 L 18.933594 34.300781 C 19.089844 34.03125 19.335938 33.851562 19.617188 33.773438 C 19.898438 33.691406 20.210938 33.722656 20.484375 33.875 C 20.761719 34.027344 20.945312 34.28125 21.027344 34.5625 C 21.039062 34.613281 21.050781 34.660156 21.058594 34.710938 L 21.058594 34.738281 C 21.074219 34.855469 21.070312 34.980469 21.046875 35.097656 L 21.042969 35.125 L 21.039062 35.140625 L 21.039062 35.144531 L 21.035156 35.152344 L 21.035156 35.164062 L 21.03125 35.167969 L 21.027344 35.179688 L 21.027344 35.1875 L 21.023438 35.195312 L 21.023438 35.199219 L 21.019531 35.203125 L 21.019531 35.214844 L 21.015625 35.222656 L 21.015625 35.226562 L 21.011719 35.230469 L 21.011719 35.238281 L 21.007812 35.242188 L 21.007812 35.253906 L 21.003906 35.257812 L 21.003906 35.261719 L 21 35.269531 L 21 35.273438 L 20.996094 35.273438 L 20.996094 35.285156 L 20.992188 35.289062 L 20.992188 35.292969 L 20.988281 35.300781 L 20.984375 35.304688 L 20.984375 35.308594 L 20.980469 35.316406 L 20.980469 35.320312 L 20.976562 35.324219 L 20.976562 35.328125 L 20.972656 35.335938 L 20.96875 35.339844 L 20.96875 35.347656 L 20.964844 35.351562 L 20.964844 35.355469 L 20.960938 35.363281 L 20.957031 35.367188 L 20.957031 35.371094 L 20.953125 35.378906 L 20.953125 35.382812 L 20.949219 35.382812 L 20.949219 35.386719 L 20.945312 35.394531 L 20.945312 35.398438 L 20.9375 35.40625 L 20.933594 35.417969 L 20.929688 35.421875 L 20.925781 35.429688 L 20.925781 35.433594 L 20.285156 36.574219 L 20.28125 36.582031 L 19.859375 37.332031 C 19.707031 37.605469 19.453125 37.792969 19.171875 37.871094 C 18.894531 37.949219 18.589844 37.925781 18.320312 37.78125 C 18.308594 37.769531 18.292969 37.765625 18.28125 37.757812 C 18.019531 37.601562 17.839844 37.355469 17.761719 37.082031 C 17.683594 36.796875 17.710938 36.484375 17.863281 36.210938 L 18.03125 35.910156 L 18.03125 35.90625 L 18.035156 35.90625 L 18.035156 35.902344 L 18.039062 35.898438 L 18.039062 35.894531 Z M 22.035156 35.058594 L 23.03125 35.691406 L 23.039062 35.699219 L 23.070312 35.722656 C 23.101562 35.753906 23.132812 35.78125 23.171875 35.804688 L 23.183594 35.8125 C 23.320312 35.941406 23.410156 36.105469 23.449219 36.28125 C 23.496094 36.503906 23.464844 36.742188 23.339844 36.949219 L 23.324219 36.972656 C 23.191406 37.179688 22.980469 37.316406 22.75 37.367188 C 22.523438 37.417969 22.273438 37.378906 22.0625 37.246094 L 21.378906 36.804688 C 21.351562 36.789062 21.328125 36.769531 21.304688 36.75 L 21.773438 35.910156 L 21.773438 35.90625 L 21.78125 35.898438 L 21.789062 35.882812 L 21.796875 35.871094 L 21.800781 35.863281 L 21.800781 35.859375 L 21.8125 35.835938 L 21.816406 35.832031 L 21.824219 35.816406 L 21.824219 35.8125 L 21.835938 35.789062 L 21.839844 35.785156 L 21.84375 35.777344 L 21.847656 35.765625 L 21.847656 35.761719 L 21.851562 35.757812 L 21.855469 35.746094 L 21.871094 35.714844 L 21.875 35.710938 L 21.878906 35.699219 L 21.882812 35.691406 L 21.886719 35.679688 L 21.890625 35.671875 L 21.890625 35.664062 L 21.898438 35.652344 L 21.902344 35.640625 L 21.90625 35.632812 L 21.910156 35.621094 L 21.910156 35.617188 L 21.917969 35.59375 L 21.917969 35.589844 L 21.929688 35.566406 L 21.929688 35.5625 L 21.933594 35.554688 L 21.9375 35.542969 L 21.9375 35.539062 L 21.941406 35.523438 L 21.945312 35.515625 C 21.953125 35.492188 21.960938 35.46875 21.964844 35.445312 L 21.96875 35.441406 C 21.980469 35.386719 21.996094 35.335938 22.003906 35.285156 L 22.015625 35.214844 L 22.015625 35.210938 L 22.019531 35.210938 L 22.019531 35.183594 L 22.023438 35.183594 L 22.023438 35.160156 L 22.027344 35.144531 L 22.027344 35.132812 L 22.03125 35.113281 L 22.03125 35.109375 Z M 20.460938 17.132812 C 20.316406 17.359375 20.015625 17.421875 19.789062 17.277344 C 19.5625 17.128906 19.5 16.828125 19.644531 16.605469 C 19.984375 16.078125 20.535156 15.496094 21.144531 15.007812 C 21.71875 14.546875 22.355469 14.160156 22.929688 13.976562 C 22.941406 13.972656 22.957031 13.96875 22.96875 13.964844 C 23.109375 13.929688 23.238281 13.9375 23.363281 13.988281 C 23.382812 13.996094 23.402344 14.007812 23.421875 14.019531 C 23.609375 14.117188 23.730469 14.300781 23.804688 14.535156 C 23.847656 14.683594 23.878906 14.855469 23.894531 15.039062 L 24.136719 14.828125 C 24.65625 14.382812 25.023438 14.371094 25.34375 14.71875 C 25.539062 14.929688 25.613281 15.273438 25.679688 15.742188 L 25.679688 15.746094 C 25.707031 15.867188 27.4375 15.746094 28.179688 15.691406 C 28.367188 15.679688 28.503906 15.667969 28.570312 15.667969 C 28.839844 15.667969 29.058594 15.886719 29.058594 16.15625 C 29.058594 16.425781 28.839844 16.644531 28.570312 16.644531 C 28.519531 16.644531 28.402344 16.652344 28.246094 16.664062 C 27.246094 16.734375 24.925781 16.898438 24.722656 15.917969 C 24.71875 15.902344 24.71875 15.890625 24.714844 15.875 C 24.703125 15.789062 24.691406 15.710938 24.683594 15.644531 L 23.632812 16.539062 C 23.464844 16.703125 23.199219 16.726562 23.003906 16.578125 C 22.789062 16.417969 22.742188 16.113281 22.902344 15.898438 C 22.9375 15.851562 22.949219 15.5 22.925781 15.15625 C 22.921875 15.109375 22.917969 15.066406 22.914062 15.023438 C 22.539062 15.195312 22.136719 15.460938 21.753906 15.765625 C 21.222656 16.195312 20.746094 16.695312 20.460938 17.132812 Z M 24.628906 15.378906 C 24.628906 15.378906 24.632812 15.382812 24.632812 15.390625 C 24.601562 15.351562 24.585938 15.332031 24.628906 15.378906 Z M 11.5625 9.371094 C 11.292969 9.371094 11.074219 9.152344 11.074219 8.882812 C 11.074219 8.613281 11.292969 8.394531 11.5625 8.394531 L 27.59375 8.394531 C 27.863281 8.394531 28.082031 8.613281 28.082031 8.882812 C 28.082031 9.152344 27.863281 9.371094 27.59375 9.371094 Z M 11.5625 13.03125 C 11.292969 13.03125 11.074219 12.8125 11.074219 12.542969 C 11.074219 12.273438 11.292969 12.054688 11.5625 12.054688 L 20.03125 12.054688 C 20.300781 12.054688 20.519531 12.273438 20.519531 12.542969 C 20.519531 12.8125 20.300781 13.03125 20.03125 13.03125 Z M 11.5625 13.03125 " fill-opacity="1" fill-rule="evenodd"/></svg>