<svg xmlns="http://www.w3.org/2000/svg" xmlns:xlink="http://www.w3.org/1999/xlink" width="52" zoomAndPan="magnify" viewBox="0 0 39 38.999999" height="52" preserveAspectRatio="xMidYMid meet" version="1.0"><defs><clipPath id="3264d267bf"><path d="M 0 0.683594 L 39 0.683594 L 39 38.183594 L 0 38.183594 Z M 0 0.683594 " clip-rule="nonzero"/></clipPath></defs><path fill="#000000" d="M 11.285156 18.589844 C 11.308594 18.59375 11.332031 18.59375 11.359375 18.59375 C 11.601562 18.59375 11.832031 18.5 12.003906 18.328125 L 18.613281 11.679688 C 18.96875 11.324219 18.964844 10.753906 18.609375 10.398438 C 18.253906 10.046875 17.679688 10.050781 17.324219 10.40625 L 11.476562 16.289062 L 9.769531 13.875 C 9.480469 13.464844 8.914062 13.367188 8.503906 13.65625 C 8.09375 13.945312 7.996094 14.507812 8.285156 14.914062 L 10.617188 18.210938 C 10.773438 18.429688 11.015625 18.566406 11.285156 18.589844 Z M 11.285156 18.589844 " fill-opacity="1" fill-rule="nonzero"/><g clip-path="url(#3264d267bf)"><path fill="#000000" d="M 38.320312 32.484375 C 38.386719 32.117188 39 31.789062 39 31.40625 C 39 31.019531 38.386719 30.691406 38.320312 30.324219 C 38.253906 29.945312 38.71875 29.429688 38.589844 29.074219 C 38.457031 28.714844 37.769531 28.617188 37.578125 28.292969 C 37.390625 27.960938 37.644531 27.316406 37.402344 27.027344 C 37.15625 26.738281 36.476562 26.878906 36.183594 26.636719 C 35.890625 26.394531 35.914062 25.699219 35.585938 25.507812 C 35.324219 25.359375 34.898438 25.558594 34.554688 25.582031 L 34.554688 3.539062 C 34.554688 2.78125 34.257812 2.0625 33.714844 1.523438 C 33.175781 0.988281 32.457031 0.691406 31.695312 0.691406 L 11.417969 0.691406 C 10.65625 0.691406 9.9375 0.988281 9.394531 1.523438 C 8.855469 2.0625 8.558594 2.78125 8.558594 3.539062 L 8.558594 6.441406 L 8.574219 6.441406 C 7.675781 7.101562 6.914062 7.910156 6.300781 8.851562 C 5.617188 9.902344 5.160156 11.054688 4.941406 12.277344 C 4.730469 13.457031 4.753906 14.652344 5.003906 15.828125 C 5.253906 17.007812 5.722656 18.105469 6.398438 19.101562 C 6.925781 19.878906 7.5625 20.5625 8.296875 21.144531 L 7.394531 22.527344 C 6.828125 22.523438 6.277344 22.792969 5.945312 23.300781 L 0.511719 31.640625 C 0 32.425781 0.226562 33.480469 1.015625 33.992188 C 1.300781 34.175781 1.625 34.265625 1.941406 34.265625 C 2.5 34.265625 3.046875 33.992188 3.375 33.492188 L 8.558594 25.53125 L 8.558594 31.835938 C 8.558594 32.597656 8.855469 33.3125 9.394531 33.851562 C 9.9375 34.390625 10.65625 34.6875 11.417969 34.6875 L 26.816406 34.6875 C 26.882812 35.035156 26.726562 35.535156 26.933594 35.78125 C 27.179688 36.070312 27.859375 35.929688 28.152344 36.171875 C 28.445312 36.414062 28.421875 37.109375 28.753906 37.300781 C 29.078125 37.488281 29.671875 37.125 30.03125 37.253906 C 30.386719 37.382812 30.601562 38.042969 30.980469 38.109375 C 31.351562 38.171875 31.78125 37.628906 32.167969 37.628906 C 32.554688 37.628906 32.988281 38.175781 33.355469 38.109375 C 33.734375 38.042969 33.953125 37.382812 34.304688 37.253906 C 34.667969 37.125 35.257812 37.488281 35.585938 37.300781 C 35.917969 37.109375 35.894531 36.414062 36.183594 36.171875 C 36.476562 35.929688 37.15625 36.070312 37.402344 35.78125 C 37.644531 35.492188 37.390625 34.847656 37.582031 34.515625 C 37.769531 34.191406 38.460938 34.09375 38.589844 33.734375 C 38.71875 33.378906 38.253906 32.863281 38.320312 32.484375 Z M 7.3125 9.507812 C 8.488281 7.699219 10.304688 6.457031 12.417969 6.007812 C 12.984375 5.886719 13.554688 5.828125 14.117188 5.828125 C 15.667969 5.828125 17.183594 6.269531 18.511719 7.132812 C 22.257812 9.554688 23.324219 14.5625 20.894531 18.292969 C 19.714844 20.101562 17.902344 21.34375 15.789062 21.792969 C 13.671875 22.242188 11.507812 21.84375 9.695312 20.667969 C 5.949219 18.246094 4.878906 13.238281 7.3125 9.507812 Z M 9.496094 31.835938 L 9.496094 22.644531 L 9.828125 22.136719 C 10.660156 22.566406 11.546875 22.867188 12.472656 23.03125 C 13.011719 23.125 13.554688 23.171875 14.097656 23.171875 C 14.746094 23.171875 15.394531 23.105469 16.039062 22.96875 C 17.222656 22.71875 18.324219 22.25 19.320312 21.578125 C 20.28125 20.933594 21.097656 20.121094 21.757812 19.167969 L 29.5625 19.183594 L 29.5625 18.089844 L 22.410156 18.078125 C 22.820312 17.273438 23.105469 16.417969 23.265625 15.523438 C 23.398438 14.78125 23.4375 14.035156 23.390625 13.285156 L 29.5625 13.285156 L 29.5625 12.195312 L 23.25 12.195312 C 23.234375 12.117188 23.21875 12.042969 23.203125 11.96875 C 22.953125 10.792969 22.484375 9.691406 21.808594 8.699219 C 21.609375 8.402344 21.390625 8.121094 21.160156 7.851562 L 29.5625 7.851562 L 29.5625 6.761719 L 20.109375 6.761719 L 20.109375 6.816406 C 19.8125 6.566406 19.5 6.335938 19.171875 6.121094 C 18.117188 5.441406 16.960938 4.988281 15.734375 4.769531 C 14.550781 4.558594 13.351562 4.582031 12.167969 4.832031 C 11.222656 5.03125 10.328125 5.371094 9.496094 5.84375 L 9.496094 3.539062 C 9.496094 2.484375 10.359375 1.625 11.417969 1.625 L 31.695312 1.625 C 32.753906 1.625 33.617188 2.484375 33.617188 3.539062 L 33.617188 24.84375 C 33.539062 24.769531 33.453125 24.714844 33.355469 24.699219 C 32.988281 24.636719 32.558594 25.179688 32.167969 25.179688 C 31.78125 25.179688 31.351562 24.632812 30.980469 24.699219 C 30.601562 24.765625 30.386719 25.425781 30.03125 25.554688 C 29.671875 25.683594 29.078125 25.320312 28.753906 25.507812 C 28.421875 25.699219 28.445312 26.394531 28.152344 26.636719 C 27.863281 26.878906 27.179688 26.738281 26.933594 27.027344 C 26.691406 27.316406 26.949219 27.960938 26.757812 28.292969 C 26.710938 28.371094 26.636719 28.4375 26.546875 28.496094 L 13.148438 28.496094 L 13.148438 29.589844 L 25.816406 29.589844 C 25.917969 29.839844 26.054688 30.105469 26.015625 30.324219 C 25.953125 30.691406 25.335938 31.019531 25.335938 31.40625 C 25.335938 31.789062 25.949219 32.117188 26.015625 32.484375 C 26.082031 32.863281 25.617188 33.378906 25.746094 33.734375 C 25.75 33.742188 25.753906 33.746094 25.753906 33.753906 L 11.417969 33.753906 C 10.359375 33.753906 9.496094 32.894531 9.496094 31.835938 Z M 35.859375 29.464844 L 31.089844 34.257812 C 30.964844 34.382812 30.796875 34.453125 30.625 34.453125 C 30.605469 34.453125 30.589844 34.453125 30.570312 34.449219 C 30.378906 34.433594 30.203125 34.332031 30.089844 34.175781 L 28.410156 31.800781 C 28.199219 31.507812 28.273438 31.101562 28.566406 30.894531 C 28.863281 30.683594 29.269531 30.753906 29.480469 31.050781 L 30.710938 32.789062 L 34.925781 28.550781 C 35.183594 28.292969 35.597656 28.292969 35.851562 28.546875 C 36.109375 28.796875 36.109375 29.210938 35.859375 29.464844 Z M 35.859375 29.464844 " fill-opacity="1" fill-rule="nonzero"/></g><path fill="#000000" d="M 13.148438 23.546875 L 29.5625 23.546875 L 29.5625 24.640625 L 13.148438 24.640625 Z M 13.148438 23.546875 " fill-opacity="1" fill-rule="nonzero"/></svg>