<svg xmlns="http://www.w3.org/2000/svg" xmlns:xlink="http://www.w3.org/1999/xlink" width="52" zoomAndPan="magnify" viewBox="0 0 39 38.999999" height="52" preserveAspectRatio="xMidYMid meet" version="1.0"><defs><clipPath id="61ea522eb8"><path d="M 0 0 L 39 0 L 39 38.25 L 0 38.25 Z M 0 0 " clip-rule="nonzero"/></clipPath></defs><g clip-path="url(#61ea522eb8)"><path fill="#000000" d="M 28.039062 4.1875 L 25.320312 4.1875 L 25.320312 2.417969 L 28.9375 2.417969 C 29.636719 2.417969 30.207031 2.988281 30.207031 3.6875 L 30.207031 9.039062 C 29.683594 9.085938 29.191406 9.378906 28.90625 9.867188 L 28.441406 10.679688 L 28.441406 4.585938 C 28.441406 4.363281 28.261719 4.1875 28.039062 4.1875 Z M 19.152344 31.683594 C 15.355469 31.683594 12.230469 34.558594 11.835938 38.25 L 26.46875 38.25 C 26.074219 34.558594 22.949219 31.683594 19.152344 31.683594 Z M 27.246094 27.167969 C 27.246094 29.222656 28.914062 30.886719 30.96875 30.886719 C 33.023438 30.886719 34.6875 29.222656 34.6875 27.167969 C 34.6875 25.113281 33.023438 23.449219 30.96875 23.449219 C 28.914062 23.449219 27.246094 25.113281 27.246094 27.167969 Z M 7.339844 30.886719 C 9.394531 30.886719 11.058594 29.222656 11.058594 27.167969 C 11.058594 25.113281 9.394531 23.449219 7.339844 23.449219 C 5.285156 23.449219 3.617188 25.113281 3.617188 27.167969 C 3.617188 29.222656 5.285156 30.886719 7.339844 30.886719 Z M 19.152344 23.449219 C 17.097656 23.449219 15.433594 25.113281 15.433594 27.167969 C 15.433594 29.222656 17.097656 30.886719 19.152344 30.886719 C 21.207031 30.886719 22.875 29.222656 22.875 27.167969 C 22.875 25.113281 21.207031 23.449219 19.152344 23.449219 Z M 7.339844 31.683594 C 3.542969 31.683594 0.417969 34.558594 0.0234375 38.25 L 10.554688 38.25 C 10.738281 36.539062 11.308594 35.039062 12.382812 33.683594 C 11.066406 32.445312 9.292969 31.683594 7.339844 31.683594 Z M 30.96875 31.683594 C 29.015625 31.683594 27.242188 32.445312 25.925781 33.683594 C 27 35.039062 27.570312 36.539062 27.753906 38.25 L 38.285156 38.25 C 37.890625 34.558594 34.765625 31.683594 30.96875 31.683594 Z M 30.824219 9.042969 L 33.355469 10.503906 C 33.542969 10.613281 33.789062 10.546875 33.898438 10.355469 L 37.082031 4.84375 C 37.191406 4.652344 37.125 4.410156 36.9375 4.296875 L 36.429688 4.007812 L 37.105469 2.839844 C 37.277344 2.539062 37.175781 2.148438 36.875 1.976562 L 36.359375 1.679688 C 36.058594 1.503906 35.667969 1.609375 35.496094 1.910156 L 34.820312 3.078125 L 34.40625 2.839844 C 34.21875 2.730469 33.972656 2.792969 33.863281 2.984375 L 30.679688 8.5 C 30.570312 8.6875 30.632812 8.933594 30.824219 9.042969 Z M 38.863281 5.257812 C 38.695312 4.640625 38.347656 4.382812 37.851562 4.09375 L 37.21875 5.195312 C 37.394531 5.296875 37.574219 5.367188 37.632812 5.589844 C 37.660156 5.699219 37.648438 5.824219 37.589844 5.929688 L 34.835938 10.699219 C 34.65625 11.003906 34.761719 11.394531 35.066406 11.570312 C 35.371094 11.746094 35.757812 11.640625 35.933594 11.335938 L 38.691406 6.566406 C 38.929688 6.15625 38.976562 5.683594 38.863281 5.257812 Z M 30.011719 10.507812 L 26.132812 17.222656 L 26.210938 18.65625 L 25.285156 20.261719 C 25.113281 20.566406 25.214844 20.953125 25.519531 21.128906 C 25.824219 21.300781 26.210938 21.199219 26.386719 20.894531 L 27.296875 19.320312 L 28.613281 18.65625 L 32.492188 11.9375 C 32.601562 11.746094 32.535156 11.503906 32.347656 11.394531 L 30.554688 10.359375 C 30.367188 10.25 30.121094 10.316406 30.011719 10.507812 Z M 14.261719 4.554688 L 14.261719 2.050781 C 14.261719 1.832031 14.441406 1.652344 14.660156 1.652344 L 16.761719 1.652344 C 16.929688 1.652344 17.074219 1.550781 17.132812 1.394531 C 17.441406 0.578125 18.230469 0 19.152344 0 C 20.078125 0 20.863281 0.578125 21.171875 1.394531 C 21.234375 1.550781 21.378906 1.652344 21.546875 1.652344 L 23.648438 1.652344 C 23.867188 1.652344 24.046875 1.828125 24.046875 2.050781 L 24.046875 4.554688 C 24.046875 4.773438 23.867188 4.953125 23.648438 4.953125 L 14.660156 4.953125 C 14.441406 4.953125 14.261719 4.773438 14.261719 4.554688 Z M 18.582031 1.769531 C 18.582031 2.085938 18.839844 2.339844 19.152344 2.339844 C 19.46875 2.339844 19.726562 2.085938 19.726562 1.769531 C 19.726562 1.453125 19.46875 1.199219 19.152344 1.199219 C 18.839844 1.199219 18.582031 1.453125 18.582031 1.769531 Z M 9.867188 4.585938 C 9.867188 4.363281 10.046875 4.1875 10.265625 4.1875 L 12.988281 4.1875 L 12.988281 2.417969 L 9.371094 2.417969 C 8.671875 2.417969 8.101562 2.988281 8.101562 3.6875 L 8.101562 22.230469 C 8.738281 22.328125 9.335938 22.546875 9.867188 22.859375 Z M 29.527344 19.621094 L 28.4375 20.171875 L 28.4375 22.859375 C 28.972656 22.546875 29.570312 22.328125 30.207031 22.230469 L 30.207031 18.445312 Z M 26.109375 28.328125 C 25.96875 27.75 25.9375 27.152344 26.007812 26.5625 L 24.113281 26.5625 C 24.183594 27.152344 24.152344 27.75 24.015625 28.328125 Z M 14.292969 28.328125 C 14.15625 27.75 14.121094 27.152344 14.195312 26.5625 L 12.300781 26.5625 C 12.371094 27.152344 12.335938 27.75 12.199219 28.328125 Z M 21.542969 20.226562 C 20.644531 20.8125 20.519531 20.742188 19.6875 20.1875 C 18.613281 19.460938 17.324219 18.59375 15.886719 20.144531 C 15.648438 20.402344 15.664062 20.804688 15.921875 21.042969 C 16.179688 21.28125 16.578125 21.265625 16.816406 21.007812 C 17.515625 20.253906 18.316406 20.792969 18.980469 21.242188 C 20.269531 22.105469 20.882812 22.171875 22.238281 21.292969 C 22.667969 21.011719 23.148438 20.703125 23.933594 20.730469 C 23.890625 20.222656 24.03125 19.886719 24.273438 19.460938 C 22.972656 19.300781 22.214844 19.792969 21.542969 20.226562 Z M 18.894531 8.542969 L 25.996094 8.542969 C 26.347656 8.542969 26.632812 8.257812 26.632812 7.902344 C 26.632812 7.550781 26.347656 7.265625 25.996094 7.265625 L 18.894531 7.265625 C 18.542969 7.265625 18.257812 7.550781 18.257812 7.902344 C 18.257812 8.257812 18.542969 8.542969 18.894531 8.542969 Z M 18.894531 10.84375 L 25.996094 10.84375 C 26.347656 10.84375 26.632812 10.558594 26.632812 10.203125 C 26.632812 9.851562 26.347656 9.566406 25.996094 9.566406 L 18.894531 9.566406 C 18.542969 9.566406 18.257812 9.851562 18.257812 10.203125 C 18.257812 10.558594 18.542969 10.84375 18.894531 10.84375 Z M 18.894531 15.011719 L 25.9375 15.011719 L 26.515625 14.007812 C 26.402344 13.84375 26.210938 13.738281 25.996094 13.738281 L 18.894531 13.738281 C 18.542969 13.738281 18.257812 14.023438 18.257812 14.375 C 18.257812 14.726562 18.542969 15.011719 18.894531 15.011719 Z M 18.894531 17.3125 L 24.859375 17.3125 L 24.835938 16.914062 L 25.34375 16.039062 L 18.894531 16.039062 C 18.542969 16.039062 18.257812 16.324219 18.257812 16.675781 C 18.257812 17.027344 18.542969 17.3125 18.894531 17.3125 Z M 15.929688 17.539062 L 12.730469 17.539062 C 12.5 17.539062 12.3125 17.351562 12.3125 17.125 L 12.3125 13.925781 C 12.3125 13.695312 12.5 13.507812 12.730469 13.507812 L 15.929688 13.507812 C 16.15625 13.507812 16.347656 13.695312 16.347656 13.925781 L 16.347656 17.125 C 16.34375 17.351562 16.15625 17.539062 15.929688 17.539062 Z M 15.578125 14.410156 C 15.304688 14.191406 14.902344 14.234375 14.683594 14.507812 L 14.128906 15.191406 L 13.929688 14.992188 C 13.679688 14.742188 13.277344 14.742188 13.027344 14.992188 C 12.777344 15.238281 12.777344 15.644531 13.027344 15.890625 L 13.726562 16.59375 C 14.011719 16.875 14.476562 16.832031 14.703125 16.507812 L 15.675781 15.304688 C 15.894531 15.03125 15.851562 14.628906 15.578125 14.410156 Z M 12.3125 10.652344 L 12.3125 7.457031 C 12.3125 7.226562 12.5 7.039062 12.730469 7.039062 L 15.929688 7.039062 C 16.15625 7.039062 16.347656 7.226562 16.347656 7.457031 L 16.347656 10.652344 C 16.347656 10.882812 16.15625 11.070312 15.929688 11.070312 L 12.730469 11.070312 C 12.5 11.070312 12.3125 10.882812 12.3125 10.652344 Z M 13.027344 9.421875 L 13.726562 10.125 C 13.996094 10.394531 14.441406 10.367188 14.675781 10.070312 L 15.675781 8.835938 C 15.898438 8.5625 15.855469 8.160156 15.582031 7.941406 C 15.308594 7.71875 14.90625 7.761719 14.683594 8.035156 L 14.128906 8.722656 L 13.929688 8.519531 C 13.679688 8.273438 13.277344 8.273438 13.027344 8.519531 C 12.777344 8.769531 12.777344 9.171875 13.027344 9.421875 Z M 13.027344 9.421875 " fill-opacity="1" fill-rule="evenodd"/></g></svg>