<svg xmlns="http://www.w3.org/2000/svg" xmlns:xlink="http://www.w3.org/1999/xlink" width="52" zoomAndPan="magnify" viewBox="0 0 39 38.999999" height="52" preserveAspectRatio="xMidYMid meet" version="1.0"><defs><clipPath id="9e4f1f609c"><rect x="0" width="39" y="0" height="39"/></clipPath></defs><g><g clip-path="url(#9e4f1f609c)"><path fill="#000000" d="M 19.902344 24.886719 C 24.246094 24.621094 27.917969 21.867188 29.53125 18.023438 C 29.542969 17.992188 29.570312 17.976562 29.605469 17.972656 L 33.40625 17.921875 C 33.597656 17.921875 33.761719 17.871094 33.898438 17.707031 L 37.058594 13.945312 C 37.089844 13.90625 37.136719 13.917969 37.195312 13.917969 C 38.1875 13.917969 38.992188 13.109375 38.992188 12.113281 C 38.992188 11.117188 38.1875 10.308594 37.195312 10.308594 C 35.621094 10.308594 34.820312 12.199219 35.878906 13.34375 C 35.90625 13.375 35.910156 13.421875 35.882812 13.453125 L 33.171875 16.679688 C 33.15625 16.695312 33.136719 16.707031 33.113281 16.707031 L 30.085938 16.75 C 30.03125 16.75 29.992188 16.699219 30.007812 16.644531 C 30.207031 15.910156 30.339844 15.140625 30.386719 14.351562 C 30.390625 14.304688 30.351562 14.265625 30.304688 14.265625 L 27.152344 14.265625 C 27.113281 14.265625 27.078125 14.296875 27.074219 14.339844 C 26.742188 18.175781 23.707031 21.230469 19.890625 21.558594 C 19.851562 21.5625 19.816406 21.597656 19.816406 21.640625 L 19.816406 24.808594 C 19.816406 24.855469 19.855469 24.890625 19.902344 24.886719 Z M 21.757812 19.757812 L 21.757812 15.945312 C 21.757812 15.902344 21.796875 15.863281 21.839844 15.863281 L 23.851562 15.863281 C 24.128906 15.863281 24.421875 16.035156 24.421875 16.292969 L 24.421875 17.851562 C 24.421875 17.871094 24.417969 17.890625 24.402344 17.902344 C 23.730469 18.734375 22.863281 19.398438 21.871094 19.832031 C 21.816406 19.855469 21.757812 19.816406 21.757812 19.757812 Z M 16.660156 11.902344 L 16.660156 19.761719 C 16.660156 19.820312 16.597656 19.859375 16.546875 19.835938 C 15.554688 19.402344 14.6875 18.734375 14.015625 17.902344 C 14 17.886719 13.996094 17.871094 13.996094 17.851562 L 13.996094 9.59375 C 13.996094 9.335938 14.289062 9.167969 14.566406 9.167969 L 16.085938 9.167969 C 16.363281 9.167969 16.660156 9.335938 16.660156 9.59375 Z M 17.878906 20.1875 L 17.878906 12.597656 C 17.878906 12.550781 17.914062 12.515625 17.957031 12.515625 L 19.96875 12.515625 C 20.246094 12.515625 20.539062 12.683594 20.539062 12.941406 L 20.539062 20.183594 C 20.539062 20.222656 20.511719 20.257812 20.476562 20.261719 C 20.023438 20.351562 19.671875 20.367188 19.21875 20.402344 L 18.683594 20.363281 C 18.429688 20.34375 18.183594 20.3125 17.941406 20.265625 C 17.90625 20.257812 17.878906 20.226562 17.878906 20.1875 Z M 1.8125 17.675781 C 0.824219 17.675781 0.0195312 18.484375 0.0195312 19.480469 C 0.0195312 20.476562 0.824219 21.285156 1.8125 21.285156 C 2.574219 21.285156 3.222656 20.8125 3.484375 20.144531 C 3.496094 20.109375 3.527344 20.089844 3.5625 20.089844 L 9.980469 20.089844 C 10.007812 20.089844 10.03125 20.105469 10.046875 20.125 C 11.949219 22.839844 15.011719 24.671875 18.515625 24.886719 C 18.5625 24.890625 18.601562 24.855469 18.601562 24.808594 L 18.601562 21.640625 C 18.601562 21.597656 18.566406 21.5625 18.527344 21.558594 C 14.722656 21.238281 11.671875 18.175781 11.34375 14.339844 C 11.339844 14.296875 11.304688 14.265625 11.265625 14.265625 L 8.113281 14.265625 C 8.066406 14.265625 8.027344 14.304688 8.03125 14.351562 C 8.128906 15.925781 8.546875 17.414062 9.222656 18.75 C 9.25 18.804688 9.210938 18.867188 9.148438 18.867188 L 3.558594 18.867188 C 3.527344 18.867188 3.496094 18.847656 3.484375 18.816406 C 3.21875 18.148438 2.574219 17.675781 1.8125 17.675781 Z M 4.359375 0.00390625 C 3.367188 0.00390625 2.5625 0.8125 2.5625 1.808594 C 2.5625 2.804688 3.367188 3.613281 4.359375 3.613281 C 5.105469 3.613281 5.746094 3.15625 6.015625 2.5 C 6.027344 2.46875 6.058594 2.449219 6.09375 2.453125 L 9.152344 2.492188 C 9.179688 2.492188 9.207031 2.507812 9.222656 2.535156 L 11.101562 5.804688 C 11.117188 5.835938 11.113281 5.875 11.089844 5.902344 C 9.332031 7.761719 8.199219 10.226562 8.03125 12.957031 C 8.027344 13.003906 8.066406 13.042969 8.113281 13.042969 L 11.265625 13.042969 C 11.308594 13.042969 11.339844 13.007812 11.34375 12.96875 C 11.675781 9.128906 14.714844 6.078125 18.527344 5.75 C 18.566406 5.746094 18.601562 5.710938 18.601562 5.667969 L 18.601562 2.5 C 18.601562 2.453125 18.5625 2.417969 18.515625 2.417969 C 16.09375 2.570312 13.878906 3.492188 12.113281 4.945312 C 12.074219 4.976562 12.019531 4.964844 11.992188 4.921875 L 10.078125 1.585938 C 9.964844 1.390625 9.765625 1.28125 9.558594 1.28125 L 9.558594 1.277344 L 6.117188 1.230469 C 6.082031 1.230469 6.054688 1.210938 6.039062 1.179688 C 5.785156 0.492188 5.128906 0.00390625 4.359375 0.00390625 Z M 34.847656 0.00390625 C 35.839844 0.00390625 36.640625 0.8125 36.640625 1.808594 C 36.640625 2.804688 35.839844 3.613281 34.847656 3.613281 C 34.234375 3.613281 33.695312 3.308594 33.371094 2.839844 C 33.355469 2.816406 33.332031 2.804688 33.304688 2.804688 L 26.761719 2.804688 C 26.714844 2.804688 26.679688 2.84375 26.679688 2.886719 L 26.679688 5.234375 C 26.679688 5.257812 26.6875 5.277344 26.707031 5.292969 C 28.816406 7.207031 30.199219 9.917969 30.386719 12.957031 C 30.390625 13.003906 30.351562 13.042969 30.304688 13.042969 L 27.152344 13.042969 C 27.113281 13.042969 27.078125 13.007812 27.074219 12.96875 C 26.746094 9.132812 23.707031 6.078125 19.890625 5.75 C 19.851562 5.746094 19.816406 5.710938 19.816406 5.667969 L 19.816406 2.5 C 19.816406 2.453125 19.855469 2.417969 19.902344 2.417969 C 21.902344 2.542969 23.757812 3.191406 25.335938 4.230469 C 25.390625 4.265625 25.460938 4.226562 25.460938 4.164062 L 25.460938 2.195312 C 25.460938 1.855469 25.734375 1.582031 26.070312 1.582031 L 32.996094 1.582031 C 33.035156 1.582031 33.066406 1.554688 33.074219 1.511719 C 33.214844 0.65625 33.953125 0.00390625 34.847656 0.00390625 Z M 37.636719 28.132812 L 36.230469 28.132812 C 35.664062 28.132812 35.203125 28.597656 35.203125 29.164062 L 35.203125 37.890625 C 35.203125 38.457031 35.664062 38.921875 36.230469 38.921875 L 37.636719 38.921875 C 38.203125 38.921875 38.664062 38.457031 38.664062 37.890625 L 38.664062 29.164062 C 38.664062 28.597656 38.203125 28.132812 37.636719 28.132812 Z M 16.125 30.640625 C 16.277344 30.671875 16.089844 30.820312 16.195312 31.15625 C 16.601562 32.429688 17.921875 33.042969 19.183594 32.777344 C 20.355469 32.527344 21.96875 32.101562 23.003906 32.003906 C 23.421875 31.964844 23.816406 31.980469 24.242188 32.039062 C 24.574219 32.085938 24.882812 31.855469 24.929688 31.519531 C 24.976562 31.1875 24.746094 30.878906 24.414062 30.832031 C 24.164062 30.792969 23.910156 30.773438 23.652344 30.765625 C 22.289062 30.722656 20.386719 31.273438 18.9375 31.578125 C 18.570312 31.65625 18.203125 31.609375 17.910156 31.449219 C 16.824219 30.863281 17.171875 28.914062 18.585938 28.484375 L 24.613281 26.65625 C 27.265625 25.855469 28.933594 27.78125 31.324219 28.4375 C 32.183594 28.671875 33.046875 28.875 33.921875 29.082031 C 33.960938 29.089844 33.984375 29.121094 33.984375 29.160156 L 33.984375 37.542969 C 33.984375 37.589844 33.949219 37.625 33.902344 37.625 C 31.054688 37.59375 28.152344 37.582031 25.402344 37.980469 C 23.40625 38.269531 21.429688 39.003906 19.4375 38.839844 C 16.921875 38.636719 14.257812 37.019531 12.179688 35.664062 C 9.144531 33.6875 5.445312 30.519531 2.777344 27.980469 C 2.132812 27.367188 2.070312 26.367188 2.636719 25.679688 L 2.714844 25.582031 C 3.234375 24.945312 4.121094 24.777344 4.835938 25.183594 C 8.273438 27.132812 12.371094 29.472656 14.925781 30.332031 C 15.3125 30.460938 15.710938 30.566406 16.125 30.640625 Z M 16.125 30.640625 " fill-opacity="1" fill-rule="evenodd"/></g></g></svg>