<svg xmlns="http://www.w3.org/2000/svg" xmlns:xlink="http://www.w3.org/1999/xlink" width="52" zoomAndPan="magnify" viewBox="0 0 39 38.999999" height="52" preserveAspectRatio="xMidYMid meet" version="1.0"><defs><clipPath id="724cb764ce"><path d="M 1.820312 3 L 37.070312 3 L 37.070312 39 L 1.820312 39 Z M 1.820312 3 " clip-rule="nonzero"/></clipPath><clipPath id="133f824569"><path d="M 1.820312 10 L 25 10 L 25 12 L 1.820312 12 Z M 1.820312 10 " clip-rule="nonzero"/></clipPath><clipPath id="5e8c6919c4"><path d="M 30 10 L 37.070312 10 L 37.070312 12 L 30 12 Z M 30 10 " clip-rule="nonzero"/></clipPath></defs><path fill="#000000" d="M 19.902344 37.035156 L 18.996094 37.035156 C 18.804688 37.035156 18.621094 36.996094 18.445312 36.921875 C 18.269531 36.851562 18.113281 36.746094 17.980469 36.609375 C 17.84375 36.476562 17.742188 36.320312 17.667969 36.144531 C 17.59375 35.96875 17.558594 35.785156 17.558594 35.59375 L 17.558594 35.0625 C 17.558594 34.996094 17.527344 34.957031 17.46875 34.9375 C 16.433594 34.625 15.523438 34.09375 14.738281 33.351562 C 14.691406 33.308594 14.640625 33.304688 14.582031 33.335938 L 14.121094 33.601562 C 13.957031 33.699219 13.78125 33.757812 13.59375 33.78125 C 13.402344 33.808594 13.21875 33.792969 13.035156 33.746094 C 12.851562 33.695312 12.683594 33.613281 12.53125 33.496094 C 12.382812 33.382812 12.257812 33.242188 12.164062 33.074219 L 11.707031 32.285156 C 11.613281 32.121094 11.554688 31.945312 11.53125 31.753906 C 11.503906 31.566406 11.515625 31.378906 11.566406 31.195312 C 11.617188 31.007812 11.699219 30.84375 11.8125 30.691406 C 11.929688 30.539062 12.070312 30.414062 12.234375 30.320312 L 12.695312 30.054688 C 12.753906 30.019531 12.769531 29.96875 12.75 29.90625 C 12.503906 28.851562 12.503906 27.796875 12.75 26.746094 C 12.765625 26.679688 12.746094 26.632812 12.691406 26.601562 L 12.230469 26.335938 C 12.066406 26.238281 11.925781 26.117188 11.808594 25.964844 C 11.695312 25.8125 11.613281 25.644531 11.5625 25.460938 C 11.511719 25.277344 11.5 25.089844 11.523438 24.902344 C 11.550781 24.710938 11.609375 24.535156 11.703125 24.371094 L 12.15625 23.582031 C 12.253906 23.414062 12.375 23.273438 12.527344 23.160156 C 12.679688 23.042969 12.84375 22.960938 13.027344 22.910156 C 13.210938 22.863281 13.398438 22.847656 13.585938 22.875 C 13.777344 22.898438 13.953125 22.957031 14.117188 23.054688 L 14.578125 23.320312 C 14.632812 23.351562 14.6875 23.347656 14.730469 23.300781 C 15.519531 22.558594 16.429688 22.03125 17.464844 21.71875 C 17.523438 21.699219 17.554688 21.660156 17.554688 21.597656 L 17.554688 21.0625 C 17.554688 20.871094 17.589844 20.6875 17.664062 20.511719 C 17.734375 20.335938 17.839844 20.179688 17.972656 20.046875 C 18.109375 19.910156 18.265625 19.804688 18.441406 19.734375 C 18.617188 19.660156 18.800781 19.621094 18.988281 19.621094 L 19.898438 19.621094 C 20.089844 19.621094 20.273438 19.660156 20.449219 19.734375 C 20.625 19.804688 20.78125 19.910156 20.914062 20.046875 C 21.046875 20.179688 21.152344 20.335938 21.226562 20.511719 C 21.296875 20.6875 21.335938 20.871094 21.335938 21.0625 L 21.335938 21.597656 C 21.335938 21.660156 21.363281 21.699219 21.425781 21.71875 C 22.457031 22.03125 23.367188 22.558594 24.15625 23.300781 C 24.203125 23.347656 24.253906 23.351562 24.308594 23.320312 L 24.769531 23.054688 C 24.933594 22.957031 25.113281 22.898438 25.300781 22.875 C 25.488281 22.847656 25.675781 22.863281 25.859375 22.910156 C 26.042969 22.960938 26.210938 23.042969 26.359375 23.160156 C 26.511719 23.273438 26.636719 23.414062 26.730469 23.582031 L 27.183594 24.371094 C 27.28125 24.535156 27.339844 24.710938 27.363281 24.902344 C 27.386719 25.089844 27.375 25.277344 27.328125 25.460938 C 27.277344 25.644531 27.195312 25.8125 27.078125 25.964844 C 26.960938 26.117188 26.824219 26.238281 26.65625 26.335938 L 26.199219 26.601562 C 26.140625 26.632812 26.121094 26.679688 26.136719 26.746094 C 26.386719 27.796875 26.390625 28.851562 26.148438 29.90625 C 26.132812 29.96875 26.152344 30.015625 26.207031 30.050781 L 26.667969 30.316406 C 26.832031 30.410156 26.972656 30.535156 27.089844 30.6875 C 27.203125 30.835938 27.285156 31.003906 27.335938 31.1875 C 27.386719 31.375 27.398438 31.558594 27.375 31.75 C 27.347656 31.9375 27.289062 32.117188 27.195312 32.28125 L 26.742188 33.070312 C 26.644531 33.234375 26.523438 33.375 26.371094 33.492188 C 26.21875 33.609375 26.050781 33.691406 25.867188 33.738281 C 25.683594 33.789062 25.5 33.800781 25.308594 33.777344 C 25.121094 33.753906 24.945312 33.691406 24.78125 33.597656 L 24.320312 33.332031 C 24.265625 33.296875 24.210938 33.304688 24.164062 33.347656 C 23.378906 34.089844 22.46875 34.617188 21.433594 34.933594 C 21.375 34.949219 21.34375 34.992188 21.34375 35.054688 L 21.34375 35.585938 C 21.34375 35.78125 21.308594 35.964844 21.234375 36.140625 C 21.164062 36.320312 21.058594 36.476562 20.921875 36.609375 C 20.789062 36.746094 20.632812 36.851562 20.457031 36.925781 C 20.277344 36.996094 20.09375 37.035156 19.902344 37.035156 Z M 14.652344 32.003906 C 15.03125 32.007812 15.355469 32.136719 15.632812 32.398438 C 16.269531 33 17.003906 33.425781 17.84375 33.679688 C 18.144531 33.773438 18.390625 33.949219 18.578125 34.203125 C 18.765625 34.457031 18.863281 34.742188 18.863281 35.0625 L 18.863281 35.59375 C 18.863281 35.679688 18.90625 35.722656 18.992188 35.722656 L 19.902344 35.722656 C 19.988281 35.722656 20.03125 35.679688 20.03125 35.59375 L 20.03125 35.0625 C 20.03125 34.742188 20.128906 34.457031 20.316406 34.203125 C 20.503906 33.949219 20.75 33.773438 21.050781 33.679688 C 21.890625 33.425781 22.625 33 23.265625 32.398438 C 23.492188 32.179688 23.765625 32.050781 24.082031 32.011719 C 24.398438 31.976562 24.695312 32.039062 24.96875 32.199219 L 25.429688 32.464844 C 25.460938 32.484375 25.492188 32.488281 25.527344 32.480469 C 25.5625 32.472656 25.589844 32.453125 25.609375 32.417969 L 26.0625 31.628906 C 26.082031 31.597656 26.085938 31.566406 26.078125 31.53125 C 26.066406 31.496094 26.046875 31.46875 26.015625 31.449219 L 25.554688 31.183594 C 25.28125 31.023438 25.078125 30.800781 24.953125 30.507812 C 24.828125 30.214844 24.800781 29.914062 24.875 29.605469 C 25.074219 28.75 25.074219 27.898438 24.875 27.046875 C 24.800781 26.734375 24.828125 26.433594 24.953125 26.140625 C 25.078125 25.847656 25.28125 25.625 25.554688 25.464844 L 26.015625 25.199219 C 26.089844 25.15625 26.105469 25.097656 26.0625 25.019531 L 25.609375 24.234375 C 25.589844 24.199219 25.5625 24.179688 25.527344 24.171875 C 25.492188 24.164062 25.460938 24.167969 25.429688 24.183594 L 24.96875 24.453125 C 24.695312 24.613281 24.398438 24.675781 24.082031 24.636719 C 23.769531 24.601562 23.496094 24.472656 23.265625 24.253906 C 22.628906 23.652344 21.890625 23.226562 21.054688 22.972656 C 20.75 22.878906 20.507812 22.703125 20.316406 22.449219 C 20.128906 22.195312 20.035156 21.910156 20.03125 21.59375 L 20.03125 21.0625 C 20.03125 20.972656 19.988281 20.929688 19.902344 20.929688 L 18.996094 20.929688 C 18.910156 20.929688 18.863281 20.972656 18.863281 21.0625 L 18.863281 21.59375 C 18.863281 21.910156 18.769531 22.195312 18.582031 22.449219 C 18.390625 22.703125 18.144531 22.878906 17.84375 22.972656 C 17.007812 23.226562 16.269531 23.652344 15.632812 24.253906 C 15.402344 24.472656 15.128906 24.601562 14.8125 24.636719 C 14.5 24.675781 14.203125 24.613281 13.929688 24.453125 L 13.46875 24.183594 C 13.4375 24.167969 13.40625 24.164062 13.371094 24.171875 C 13.335938 24.179688 13.308594 24.199219 13.289062 24.234375 L 12.835938 25.019531 C 12.792969 25.097656 12.808594 25.15625 12.882812 25.199219 L 13.34375 25.464844 C 13.617188 25.625 13.820312 25.847656 13.945312 26.140625 C 14.070312 26.433594 14.097656 26.734375 14.023438 27.046875 C 13.824219 27.898438 13.824219 28.75 14.023438 29.605469 C 14.097656 29.914062 14.070312 30.214844 13.945312 30.507812 C 13.820312 30.800781 13.617188 31.023438 13.34375 31.183594 L 12.882812 31.449219 C 12.851562 31.46875 12.832031 31.496094 12.820312 31.53125 C 12.8125 31.566406 12.816406 31.597656 12.835938 31.628906 L 13.289062 32.417969 C 13.308594 32.453125 13.335938 32.472656 13.371094 32.480469 C 13.40625 32.488281 13.4375 32.484375 13.46875 32.464844 L 13.929688 32.199219 C 14.152344 32.070312 14.394531 32.003906 14.652344 32.003906 Z M 14.652344 32.003906 " fill-opacity="1" fill-rule="nonzero"/><path fill="#000000" d="M 19.449219 32.425781 C 19.179688 32.425781 18.914062 32.398438 18.652344 32.347656 C 18.390625 32.292969 18.132812 32.214844 17.886719 32.113281 C 17.636719 32.011719 17.402344 31.882812 17.179688 31.734375 C 16.957031 31.585938 16.75 31.414062 16.5625 31.226562 C 16.371094 31.035156 16.203125 30.828125 16.054688 30.605469 C 15.902344 30.378906 15.777344 30.144531 15.675781 29.894531 C 15.574219 29.648438 15.496094 29.390625 15.441406 29.128906 C 15.390625 28.863281 15.363281 28.597656 15.363281 28.328125 C 15.363281 28.058594 15.390625 27.792969 15.441406 27.527344 C 15.496094 27.265625 15.574219 27.007812 15.675781 26.761719 C 15.777344 26.511719 15.902344 26.277344 16.054688 26.050781 C 16.203125 25.828125 16.371094 25.621094 16.5625 25.429688 C 16.75 25.242188 16.957031 25.070312 17.179688 24.921875 C 17.402344 24.773438 17.636719 24.644531 17.886719 24.542969 C 18.132812 24.441406 18.390625 24.363281 18.652344 24.308594 C 18.914062 24.257812 19.179688 24.230469 19.449219 24.230469 C 19.71875 24.230469 19.984375 24.257812 20.246094 24.308594 C 20.507812 24.363281 20.765625 24.441406 21.011719 24.542969 C 21.261719 24.644531 21.496094 24.773438 21.71875 24.921875 C 21.941406 25.070312 22.148438 25.242188 22.335938 25.429688 C 22.527344 25.621094 22.695312 25.828125 22.84375 26.050781 C 22.996094 26.277344 23.121094 26.511719 23.222656 26.761719 C 23.324219 27.007812 23.402344 27.265625 23.453125 27.527344 C 23.507812 27.792969 23.535156 28.058594 23.535156 28.328125 C 23.53125 28.597656 23.507812 28.863281 23.453125 29.128906 C 23.402344 29.390625 23.324219 29.648438 23.222656 29.894531 C 23.117188 30.144531 22.992188 30.378906 22.84375 30.601562 C 22.695312 30.828125 22.523438 31.035156 22.335938 31.222656 C 22.144531 31.414062 21.941406 31.582031 21.71875 31.734375 C 21.496094 31.882812 21.257812 32.007812 21.011719 32.113281 C 20.765625 32.214844 20.507812 32.292969 20.246094 32.34375 C 19.984375 32.398438 19.71875 32.425781 19.449219 32.425781 Z M 19.449219 25.542969 C 19.082031 25.542969 18.726562 25.613281 18.386719 25.753906 C 18.046875 25.894531 17.746094 26.097656 17.484375 26.359375 C 17.226562 26.621094 17.023438 26.921875 16.882812 27.261719 C 16.742188 27.601562 16.671875 27.957031 16.671875 28.328125 C 16.671875 28.699219 16.742188 29.054688 16.882812 29.394531 C 17.023438 29.734375 17.226562 30.035156 17.484375 30.296875 C 17.746094 30.558594 18.046875 30.761719 18.386719 30.902344 C 18.726562 31.042969 19.082031 31.113281 19.449219 31.113281 C 19.816406 31.113281 20.171875 31.042969 20.511719 30.902344 C 20.851562 30.761719 21.152344 30.558594 21.414062 30.296875 C 21.671875 30.035156 21.875 29.734375 22.015625 29.394531 C 22.15625 29.054688 22.226562 28.699219 22.226562 28.328125 C 22.226562 27.957031 22.15625 27.601562 22.015625 27.261719 C 21.875 26.921875 21.671875 26.621094 21.414062 26.359375 C 21.152344 26.097656 20.851562 25.894531 20.511719 25.753906 C 20.171875 25.613281 19.816406 25.542969 19.449219 25.542969 Z M 19.449219 25.542969 " fill-opacity="1" fill-rule="nonzero"/><g clip-path="url(#724cb764ce)"><path fill="#000000" d="M 34.179688 39 L 4.71875 39 C 4.335938 39 3.964844 38.925781 3.609375 38.777344 C 3.257812 38.632812 2.945312 38.421875 2.671875 38.148438 C 2.402344 37.878906 2.191406 37.5625 2.046875 37.207031 C 1.898438 36.851562 1.824219 36.484375 1.824219 36.097656 L 1.824219 6.546875 C 1.824219 6.164062 1.898438 5.792969 2.046875 5.4375 C 2.191406 5.082031 2.402344 4.769531 2.671875 4.496094 C 2.945312 4.222656 3.257812 4.015625 3.609375 3.867188 C 3.964844 3.71875 4.335938 3.644531 4.71875 3.644531 L 22.503906 3.644531 C 22.683594 3.644531 22.839844 3.710938 22.96875 3.835938 C 23.09375 3.964844 23.160156 4.121094 23.160156 4.300781 C 23.160156 4.480469 23.09375 4.636719 22.96875 4.765625 C 22.839844 4.890625 22.683594 4.957031 22.503906 4.957031 L 4.71875 4.957031 C 4.507812 4.957031 4.304688 4.996094 4.109375 5.078125 C 3.917969 5.160156 3.746094 5.273438 3.597656 5.421875 C 3.449219 5.570312 3.332031 5.742188 3.253906 5.9375 C 3.171875 6.132812 3.132812 6.335938 3.132812 6.546875 L 3.132812 36.097656 C 3.132812 36.308594 3.171875 36.511719 3.253906 36.707031 C 3.332031 36.902344 3.449219 37.074219 3.597656 37.222656 C 3.746094 37.371094 3.917969 37.488281 4.109375 37.566406 C 4.304688 37.648438 4.507812 37.6875 4.71875 37.6875 L 34.179688 37.6875 C 34.390625 37.6875 34.59375 37.648438 34.785156 37.566406 C 34.980469 37.488281 35.152344 37.371094 35.300781 37.222656 C 35.449219 37.074219 35.566406 36.902344 35.644531 36.707031 C 35.726562 36.511719 35.765625 36.308594 35.765625 36.097656 L 35.765625 6.546875 C 35.765625 6.335938 35.726562 6.132812 35.644531 5.9375 C 35.566406 5.742188 35.449219 5.570312 35.300781 5.421875 C 35.152344 5.273438 34.980469 5.160156 34.785156 5.078125 C 34.59375 4.996094 34.390625 4.957031 34.179688 4.957031 L 33.050781 4.957031 C 32.871094 4.957031 32.71875 4.890625 32.589844 4.765625 C 32.464844 4.636719 32.398438 4.480469 32.398438 4.300781 C 32.398438 4.121094 32.464844 3.964844 32.589844 3.835938 C 32.71875 3.710938 32.871094 3.644531 33.050781 3.644531 L 34.179688 3.644531 C 34.5625 3.644531 34.933594 3.71875 35.285156 3.867188 C 35.640625 4.015625 35.953125 4.222656 36.226562 4.496094 C 36.496094 4.769531 36.707031 5.082031 36.851562 5.4375 C 37 5.792969 37.074219 6.164062 37.074219 6.546875 L 37.074219 36.097656 C 37.074219 36.484375 37 36.851562 36.851562 37.207031 C 36.707031 37.5625 36.496094 37.878906 36.226562 38.148438 C 35.953125 38.421875 35.640625 38.632812 35.285156 38.777344 C 34.933594 38.925781 34.5625 39 34.179688 39 Z M 34.179688 39 " fill-opacity="1" fill-rule="nonzero"/></g><g clip-path="url(#133f824569)"><path fill="#000000" d="M 24.292969 11.953125 L 2.476562 11.953125 C 2.296875 11.953125 2.144531 11.890625 2.015625 11.761719 C 1.886719 11.632812 1.824219 11.480469 1.824219 11.296875 C 1.824219 11.117188 1.886719 10.960938 2.015625 10.835938 C 2.144531 10.707031 2.296875 10.640625 2.476562 10.640625 L 24.292969 10.640625 C 24.472656 10.640625 24.628906 10.707031 24.753906 10.835938 C 24.882812 10.960938 24.945312 11.117188 24.945312 11.296875 C 24.945312 11.480469 24.882812 11.632812 24.753906 11.761719 C 24.628906 11.890625 24.472656 11.953125 24.292969 11.953125 Z M 24.292969 11.953125 " fill-opacity="1" fill-rule="nonzero"/></g><g clip-path="url(#5e8c6919c4)"><path fill="#000000" d="M 36.421875 11.953125 L 31.257812 11.953125 C 31.074219 11.953125 30.921875 11.890625 30.792969 11.761719 C 30.667969 11.632812 30.601562 11.480469 30.601562 11.296875 C 30.601562 11.117188 30.667969 10.960938 30.792969 10.835938 C 30.921875 10.707031 31.074219 10.640625 31.257812 10.640625 L 36.421875 10.640625 C 36.601562 10.640625 36.753906 10.707031 36.882812 10.835938 C 37.011719 10.960938 37.074219 11.117188 37.074219 11.296875 C 37.074219 11.480469 37.011719 11.632812 36.882812 11.761719 C 36.753906 11.890625 36.601562 11.953125 36.421875 11.953125 Z M 36.421875 11.953125 " fill-opacity="1" fill-rule="nonzero"/></g><path fill="#000000" d="M 7.230469 10.214844 C 6.910156 10.214844 6.605469 10.152344 6.308594 10.03125 C 6.015625 9.90625 5.753906 9.734375 5.527344 9.507812 C 5.300781 9.28125 5.128906 9.019531 5.003906 8.722656 C 4.882812 8.425781 4.820312 8.117188 4.820312 7.796875 C 4.820312 7.476562 4.882812 7.167969 5.003906 6.875 C 5.128906 6.578125 5.300781 6.316406 5.527344 6.089844 C 5.753906 5.863281 6.015625 5.6875 6.308594 5.566406 C 6.605469 5.441406 6.910156 5.382812 7.230469 5.382812 C 7.550781 5.382812 7.859375 5.445312 8.152344 5.566406 C 8.449219 5.6875 8.710938 5.863281 8.933594 6.089844 C 9.160156 6.316406 9.335938 6.578125 9.457031 6.875 C 9.578125 7.171875 9.640625 7.480469 9.640625 7.800781 C 9.640625 8.121094 9.578125 8.425781 9.457031 8.722656 C 9.332031 9.019531 9.160156 9.28125 8.933594 9.507812 C 8.707031 9.734375 8.445312 9.90625 8.152344 10.03125 C 7.855469 10.152344 7.550781 10.214844 7.230469 10.214844 Z M 7.230469 6.691406 C 7.085938 6.691406 6.945312 6.71875 6.808594 6.777344 C 6.675781 6.832031 6.554688 6.910156 6.453125 7.015625 C 6.347656 7.117188 6.269531 7.238281 6.210938 7.375 C 6.15625 7.507812 6.128906 7.648438 6.128906 7.796875 C 6.128906 7.941406 6.15625 8.085938 6.210938 8.21875 C 6.269531 8.355469 6.347656 8.476562 6.453125 8.578125 C 6.554688 8.683594 6.675781 8.761719 6.808594 8.816406 C 6.945312 8.875 7.085938 8.902344 7.230469 8.902344 C 7.378906 8.902344 7.519531 8.875 7.652344 8.816406 C 7.789062 8.761719 7.90625 8.683594 8.011719 8.578125 C 8.113281 8.476562 8.191406 8.355469 8.25 8.21875 C 8.304688 8.085938 8.332031 7.941406 8.332031 7.796875 C 8.332031 7.652344 8.304688 7.507812 8.25 7.375 C 8.191406 7.238281 8.113281 7.121094 8.007812 7.015625 C 7.90625 6.914062 7.785156 6.835938 7.652344 6.777344 C 7.515625 6.722656 7.375 6.695312 7.230469 6.695312 Z M 7.230469 6.691406 " fill-opacity="1" fill-rule="nonzero"/><path fill="#000000" d="M 12.46875 10.214844 C 12.152344 10.214844 11.84375 10.152344 11.546875 10.03125 C 11.253906 9.910156 10.992188 9.734375 10.765625 9.507812 C 10.539062 9.28125 10.367188 9.019531 10.246094 8.722656 C 10.121094 8.425781 10.0625 8.117188 10.0625 7.796875 C 10.0625 7.476562 10.121094 7.167969 10.242188 6.875 C 10.367188 6.578125 10.539062 6.316406 10.765625 6.089844 C 10.992188 5.863281 11.253906 5.6875 11.546875 5.566406 C 11.84375 5.445312 12.152344 5.382812 12.46875 5.382812 C 12.789062 5.382812 13.097656 5.445312 13.390625 5.566406 C 13.6875 5.6875 13.949219 5.863281 14.171875 6.089844 C 14.398438 6.316406 14.574219 6.578125 14.695312 6.875 C 14.816406 7.171875 14.878906 7.480469 14.878906 7.800781 C 14.878906 8.121094 14.816406 8.425781 14.695312 8.722656 C 14.574219 9.019531 14.398438 9.28125 14.171875 9.507812 C 13.945312 9.734375 13.6875 9.90625 13.390625 10.03125 C 13.097656 10.152344 12.789062 10.214844 12.46875 10.214844 Z M 12.46875 6.691406 C 12.324219 6.691406 12.183594 6.71875 12.046875 6.773438 C 11.914062 6.832031 11.792969 6.910156 11.691406 7.015625 C 11.585938 7.117188 11.507812 7.238281 11.453125 7.375 C 11.394531 7.507812 11.367188 7.648438 11.367188 7.796875 C 11.367188 7.941406 11.394531 8.082031 11.453125 8.21875 C 11.507812 8.355469 11.585938 8.472656 11.691406 8.578125 C 11.792969 8.683594 11.914062 8.761719 12.046875 8.816406 C 12.183594 8.875 12.324219 8.902344 12.46875 8.902344 C 12.617188 8.902344 12.757812 8.875 12.890625 8.816406 C 13.027344 8.761719 13.144531 8.683594 13.25 8.578125 C 13.351562 8.476562 13.433594 8.355469 13.488281 8.21875 C 13.542969 8.085938 13.570312 7.941406 13.570312 7.796875 C 13.570312 7.652344 13.542969 7.507812 13.488281 7.375 C 13.429688 7.238281 13.351562 7.121094 13.25 7.015625 C 13.144531 6.914062 13.027344 6.835938 12.890625 6.777344 C 12.757812 6.722656 12.617188 6.695312 12.46875 6.695312 Z M 12.46875 6.691406 " fill-opacity="1" fill-rule="nonzero"/><path fill="#000000" d="M 17.710938 10.214844 C 17.390625 10.214844 17.082031 10.152344 16.789062 10.03125 C 16.492188 9.90625 16.230469 9.734375 16.003906 9.507812 C 15.78125 9.28125 15.605469 9.019531 15.484375 8.722656 C 15.359375 8.425781 15.300781 8.117188 15.300781 7.796875 C 15.300781 7.476562 15.363281 7.167969 15.484375 6.875 C 15.605469 6.578125 15.78125 6.316406 16.007812 6.089844 C 16.230469 5.863281 16.492188 5.6875 16.789062 5.566406 C 17.082031 5.441406 17.390625 5.382812 17.710938 5.382812 C 18.027344 5.382812 18.335938 5.445312 18.632812 5.566406 C 18.925781 5.6875 19.1875 5.863281 19.414062 6.089844 C 19.640625 6.316406 19.8125 6.578125 19.933594 6.875 C 20.058594 7.171875 20.117188 7.480469 20.117188 7.800781 C 20.117188 8.121094 20.054688 8.425781 19.933594 8.722656 C 19.8125 9.019531 19.636719 9.28125 19.410156 9.507812 C 19.1875 9.734375 18.925781 9.90625 18.628906 10.03125 C 18.335938 10.152344 18.027344 10.214844 17.710938 10.214844 Z M 17.710938 6.691406 C 17.5625 6.691406 17.421875 6.71875 17.289062 6.777344 C 17.152344 6.832031 17.035156 6.910156 16.929688 7.015625 C 16.828125 7.117188 16.746094 7.238281 16.691406 7.375 C 16.636719 7.507812 16.605469 7.648438 16.605469 7.796875 C 16.605469 7.941406 16.636719 8.085938 16.691406 8.21875 C 16.746094 8.355469 16.828125 8.476562 16.929688 8.578125 C 17.035156 8.683594 17.152344 8.761719 17.289062 8.816406 C 17.421875 8.875 17.5625 8.902344 17.710938 8.902344 C 17.855469 8.902344 17.996094 8.875 18.128906 8.816406 C 18.265625 8.761719 18.386719 8.683594 18.488281 8.578125 C 18.589844 8.476562 18.671875 8.355469 18.726562 8.21875 C 18.78125 8.085938 18.8125 7.941406 18.8125 7.796875 C 18.8125 7.652344 18.78125 7.507812 18.726562 7.375 C 18.671875 7.238281 18.589844 7.121094 18.488281 7.015625 C 18.382812 6.914062 18.265625 6.835938 18.128906 6.777344 C 17.996094 6.722656 17.855469 6.695312 17.710938 6.695312 Z M 17.710938 6.691406 " fill-opacity="1" fill-rule="nonzero"/><path fill="#000000" d="M 30.691406 16.347656 L 24.863281 16.347656 C 24.679688 16.347656 24.527344 16.285156 24.398438 16.15625 C 24.273438 16.027344 24.207031 15.871094 24.207031 15.691406 L 24.207031 13.863281 C 24.203125 12.539062 23.773438 11.367188 22.925781 10.347656 C 22.550781 9.886719 22.242188 9.386719 22.007812 8.839844 C 21.769531 8.292969 21.613281 7.726562 21.539062 7.136719 C 21.460938 6.546875 21.46875 5.957031 21.558594 5.367188 C 21.648438 4.78125 21.816406 4.214844 22.066406 3.675781 C 22.3125 3.136719 22.632812 2.640625 23.019531 2.191406 C 23.40625 1.738281 23.847656 1.351562 24.347656 1.027344 C 24.84375 0.703125 25.375 0.453125 25.941406 0.277344 C 26.507812 0.101562 27.089844 0.0117188 27.683594 0 L 27.78125 0 C 28.378906 0 28.964844 0.0859375 29.542969 0.25 C 30.117188 0.417969 30.65625 0.664062 31.160156 0.988281 C 31.664062 1.308594 32.117188 1.695312 32.511719 2.148438 C 32.90625 2.597656 33.230469 3.09375 33.484375 3.636719 C 33.738281 4.183594 33.910156 4.75 34.003906 5.34375 C 34.09375 5.9375 34.101562 6.53125 34.027344 7.125 C 33.949219 7.722656 33.792969 8.296875 33.550781 8.84375 C 33.3125 9.394531 33 9.902344 32.617188 10.363281 C 31.773438 11.375 31.351562 12.542969 31.347656 13.863281 L 31.347656 15.691406 C 31.347656 15.875 31.285156 16.027344 31.15625 16.15625 C 31.027344 16.285156 30.871094 16.347656 30.691406 16.347656 Z M 25.515625 15.035156 L 30.039062 15.035156 L 30.039062 13.863281 C 30.039062 12.226562 30.566406 10.777344 31.613281 9.519531 C 31.917969 9.152344 32.164062 8.75 32.355469 8.308594 C 32.546875 7.871094 32.671875 7.414062 32.730469 6.9375 C 32.789062 6.460938 32.78125 5.988281 32.703125 5.515625 C 32.628906 5.042969 32.488281 4.589844 32.28125 4.15625 C 32.074219 3.726562 31.8125 3.332031 31.492188 2.972656 C 31.175781 2.617188 30.8125 2.3125 30.40625 2.0625 C 30 1.808594 29.566406 1.617188 29.105469 1.492188 C 28.644531 1.363281 28.175781 1.304688 27.699219 1.3125 C 25.070312 1.347656 22.863281 3.527344 22.785156 6.164062 C 22.746094 7.425781 23.128906 8.539062 23.929688 9.511719 C 24.976562 10.769531 25.503906 12.222656 25.511719 13.863281 Z M 25.515625 15.035156 " fill-opacity="1" fill-rule="nonzero"/><path fill="#000000" d="M 29.765625 20.894531 L 25.789062 20.894531 C 25.632812 20.894531 25.496094 20.84375 25.375 20.746094 C 25.253906 20.648438 25.179688 20.519531 25.148438 20.367188 L 24.222656 15.820312 C 24.203125 15.726562 24.203125 15.628906 24.226562 15.535156 C 24.25 15.4375 24.292969 15.351562 24.355469 15.277344 C 24.417969 15.199219 24.492188 15.140625 24.582031 15.097656 C 24.671875 15.054688 24.761719 15.035156 24.863281 15.035156 L 30.691406 15.035156 C 30.789062 15.035156 30.882812 15.054688 30.972656 15.097656 C 31.0625 15.140625 31.136719 15.199219 31.199219 15.277344 C 31.261719 15.351562 31.304688 15.4375 31.328125 15.535156 C 31.351562 15.628906 31.351562 15.726562 31.332031 15.820312 L 30.40625 20.367188 C 30.375 20.519531 30.300781 20.648438 30.179688 20.746094 C 30.058594 20.84375 29.921875 20.894531 29.765625 20.894531 Z M 26.320312 19.582031 L 29.234375 19.582031 L 29.890625 16.34375 L 25.664062 16.34375 Z M 26.320312 19.582031 " fill-opacity="1" fill-rule="nonzero"/><path fill="#000000" d="M 9.867188 20.855469 C 9.753906 20.855469 9.648438 20.828125 9.550781 20.769531 C 9.449219 20.714844 9.371094 20.636719 9.3125 20.539062 C 9.25 20.441406 9.21875 20.335938 9.214844 20.222656 C 9.210938 20.109375 9.238281 20 9.289062 19.898438 L 12.570312 13.527344 C 12.652344 13.363281 12.78125 13.257812 12.953125 13.203125 C 13.125 13.148438 13.289062 13.160156 13.449219 13.242188 C 13.609375 13.328125 13.71875 13.453125 13.773438 13.625 C 13.828125 13.800781 13.8125 13.964844 13.730469 14.125 L 10.449219 20.5 C 10.328125 20.738281 10.132812 20.855469 9.867188 20.855469 Z M 9.867188 20.855469 " fill-opacity="1" fill-rule="nonzero"/><path fill="#000000" d="M 8.226562 19.453125 C 8.089844 19.453125 7.964844 19.414062 7.851562 19.335938 L 5.015625 17.347656 C 4.925781 17.285156 4.859375 17.207031 4.808594 17.113281 C 4.757812 17.015625 4.734375 16.914062 4.734375 16.808594 C 4.734375 16.703125 4.757812 16.601562 4.808594 16.503906 C 4.859375 16.410156 4.925781 16.332031 5.015625 16.269531 L 7.851562 14.28125 C 8 14.179688 8.164062 14.144531 8.339844 14.179688 C 8.515625 14.210938 8.65625 14.300781 8.757812 14.449219 C 8.859375 14.59375 8.894531 14.757812 8.867188 14.933594 C 8.835938 15.109375 8.746094 15.25 8.601562 15.355469 L 6.527344 16.808594 L 8.601562 18.261719 C 8.71875 18.34375 8.800781 18.453125 8.847656 18.585938 C 8.894531 18.722656 8.894531 18.859375 8.851562 18.996094 C 8.808594 19.132812 8.730469 19.242188 8.613281 19.328125 C 8.5 19.410156 8.371094 19.453125 8.226562 19.453125 Z M 8.226562 19.453125 " fill-opacity="1" fill-rule="nonzero"/><path fill="#000000" d="M 14.792969 19.453125 C 14.648438 19.453125 14.519531 19.410156 14.40625 19.328125 C 14.292969 19.242188 14.210938 19.132812 14.167969 18.996094 C 14.125 18.859375 14.128906 18.722656 14.175781 18.585938 C 14.21875 18.453125 14.300781 18.34375 14.417969 18.261719 L 16.492188 16.808594 L 14.417969 15.355469 C 14.265625 15.253906 14.171875 15.113281 14.136719 14.933594 C 14.101562 14.75 14.136719 14.582031 14.242188 14.433594 C 14.347656 14.28125 14.492188 14.191406 14.671875 14.160156 C 14.855469 14.132812 15.019531 14.171875 15.167969 14.28125 L 18.007812 16.269531 C 18.09375 16.332031 18.164062 16.410156 18.210938 16.503906 C 18.261719 16.601562 18.285156 16.703125 18.285156 16.808594 C 18.285156 16.914062 18.261719 17.015625 18.210938 17.113281 C 18.164062 17.207031 18.09375 17.285156 18.007812 17.347656 L 15.167969 19.335938 C 15.054688 19.414062 14.929688 19.453125 14.792969 19.453125 Z M 14.792969 19.453125 " fill-opacity="1" fill-rule="nonzero"/><path fill="#000000" d="M 27.78125 16.347656 C 27.601562 16.347656 27.445312 16.285156 27.320312 16.15625 C 27.191406 16.027344 27.128906 15.871094 27.128906 15.691406 L 27.128906 8.445312 L 25.070312 6.386719 C 24.941406 6.257812 24.878906 6.101562 24.878906 5.921875 C 24.878906 5.742188 24.941406 5.585938 25.070312 5.457031 C 25.199219 5.332031 25.351562 5.265625 25.53125 5.265625 C 25.710938 5.265625 25.867188 5.328125 25.992188 5.457031 L 28.238281 7.710938 C 28.367188 7.835938 28.429688 7.992188 28.429688 8.171875 L 28.429688 15.691406 C 28.429688 15.871094 28.367188 16.027344 28.242188 16.152344 C 28.113281 16.28125 27.960938 16.347656 27.78125 16.347656 Z M 27.78125 16.347656 " fill-opacity="1" fill-rule="nonzero"/><path fill="#000000" d="M 27.78125 8.828125 C 27.488281 8.828125 27.289062 8.695312 27.175781 8.425781 C 27.066406 8.15625 27.113281 7.917969 27.320312 7.710938 L 29.566406 5.457031 C 29.691406 5.328125 29.847656 5.265625 30.027344 5.265625 C 30.207031 5.265625 30.359375 5.328125 30.488281 5.457031 C 30.617188 5.585938 30.679688 5.742188 30.679688 5.921875 C 30.679688 6.101562 30.617188 6.257812 30.488281 6.386719 L 28.238281 8.636719 C 28.113281 8.765625 27.960938 8.828125 27.78125 8.828125 Z M 27.78125 8.828125 " fill-opacity="1" fill-rule="nonzero"/></svg>