<svg xmlns="http://www.w3.org/2000/svg" xmlns:xlink="http://www.w3.org/1999/xlink" width="52" zoomAndPan="magnify" viewBox="0 0 39 38.999999" height="52" preserveAspectRatio="xMidYMid meet" version="1.0"><defs><clipPath id="a179a5ec20"><path d="M 27 4 L 38.25 4 L 38.25 20 L 27 20 Z M 27 4 " clip-rule="nonzero"/></clipPath><clipPath id="2f74c36ef3"><path d="M 24 24 L 38.25 24 L 38.25 39 L 24 39 Z M 24 24 " clip-rule="nonzero"/></clipPath></defs><path fill="#000000" d="M 2.632812 0.0703125 L 7.820312 0.0703125 C 8.167969 0.0703125 8.503906 0.140625 8.828125 0.273438 C 9.148438 0.40625 9.433594 0.597656 9.679688 0.84375 C 9.929688 1.09375 10.117188 1.378906 10.253906 1.699219 C 10.386719 2.023438 10.453125 2.359375 10.453125 2.710938 L 10.453125 7.902344 C 10.453125 8.253906 10.386719 8.589844 10.253906 8.914062 C 10.117188 9.234375 9.929688 9.519531 9.679688 9.769531 C 9.433594 10.015625 9.148438 10.207031 8.828125 10.339844 C 8.503906 10.472656 8.167969 10.542969 7.820312 10.542969 L 2.632812 10.542969 C 2.285156 10.542969 1.949219 10.472656 1.625 10.339844 C 1.304688 10.207031 1.019531 10.015625 0.773438 9.769531 C 0.523438 9.519531 0.335938 9.234375 0.199219 8.914062 C 0.0664062 8.589844 0 8.253906 0 7.902344 L 0 2.710938 C 0 2.359375 0.0664062 2.023438 0.199219 1.699219 C 0.335938 1.378906 0.523438 1.09375 0.773438 0.84375 C 1.019531 0.597656 1.304688 0.40625 1.625 0.273438 C 1.949219 0.140625 2.285156 0.0703125 2.632812 0.0703125 Z M 2.632812 0.0703125 " fill-opacity="1" fill-rule="nonzero"/><path fill="#000000" d="M 31.515625 10.539062 L 16.535156 10.539062 C 16.183594 10.539062 15.847656 10.472656 15.527344 10.335938 C 15.203125 10.203125 14.917969 10.011719 14.671875 9.765625 C 14.425781 9.515625 14.234375 9.230469 14.101562 8.910156 C 13.964844 8.585938 13.898438 8.25 13.898438 7.898438 L 13.898438 2.710938 C 13.898438 2.359375 13.964844 2.023438 14.101562 1.703125 C 14.234375 1.378906 14.425781 1.09375 14.671875 0.84375 C 14.917969 0.597656 15.203125 0.40625 15.527344 0.273438 C 15.847656 0.140625 16.183594 0.0742188 16.535156 0.0703125 L 31.515625 0.0703125 C 31.867188 0.0742188 32.203125 0.140625 32.523438 0.273438 C 32.847656 0.40625 33.132812 0.597656 33.378906 0.84375 C 33.625 1.09375 33.816406 1.378906 33.949219 1.703125 C 34.085938 2.023438 34.152344 2.359375 34.152344 2.710938 L 34.152344 7.902344 C 34.152344 8.25 34.082031 8.585938 33.949219 8.910156 C 33.816406 9.234375 33.625 9.519531 33.378906 9.765625 C 33.132812 10.011719 32.847656 10.203125 32.523438 10.335938 C 32.203125 10.472656 31.867188 10.539062 31.515625 10.539062 Z M 16.535156 1.441406 C 16.367188 1.441406 16.203125 1.472656 16.046875 1.539062 C 15.894531 1.601562 15.757812 1.695312 15.636719 1.8125 C 15.519531 1.933594 15.425781 2.070312 15.363281 2.226562 C 15.296875 2.378906 15.265625 2.542969 15.265625 2.710938 L 15.265625 7.902344 C 15.265625 8.070312 15.296875 8.230469 15.363281 8.386719 C 15.425781 8.542969 15.519531 8.679688 15.636719 8.796875 C 15.757812 8.917969 15.894531 9.007812 16.050781 9.074219 C 16.203125 9.136719 16.367188 9.171875 16.535156 9.171875 L 31.515625 9.171875 C 31.683594 9.171875 31.847656 9.136719 32.003906 9.074219 C 32.15625 9.007812 32.292969 8.917969 32.414062 8.796875 C 32.53125 8.679688 32.625 8.542969 32.6875 8.386719 C 32.753906 8.230469 32.785156 8.070312 32.785156 7.902344 L 32.785156 2.710938 C 32.785156 2.542969 32.753906 2.378906 32.6875 2.226562 C 32.625 2.070312 32.53125 1.933594 32.414062 1.8125 C 32.292969 1.695312 32.15625 1.601562 32.003906 1.539062 C 31.847656 1.472656 31.683594 1.441406 31.515625 1.441406 Z M 16.535156 1.441406 " fill-opacity="1" fill-rule="nonzero"/><path fill="#000000" d="M 22.09375 25.699219 C 21.652344 25.699219 21.21875 25.65625 20.785156 25.570312 C 20.351562 25.484375 19.933594 25.355469 19.527344 25.1875 C 19.121094 25.019531 18.734375 24.8125 18.367188 24.566406 C 18 24.320312 17.664062 24.042969 17.351562 23.730469 C 17.039062 23.417969 16.761719 23.082031 16.515625 22.714844 C 16.273438 22.347656 16.066406 21.960938 15.898438 21.550781 C 15.730469 21.144531 15.601562 20.726562 15.515625 20.292969 C 15.429688 19.859375 15.386719 19.421875 15.386719 18.980469 C 15.386719 18.539062 15.429688 18.105469 15.515625 17.671875 C 15.601562 17.238281 15.730469 16.820312 15.898438 16.410156 C 16.066406 16.003906 16.273438 15.617188 16.519531 15.25 C 16.761719 14.882812 17.039062 14.542969 17.351562 14.234375 C 17.664062 13.921875 18.003906 13.640625 18.367188 13.398438 C 18.734375 13.152344 19.121094 12.945312 19.527344 12.777344 C 19.933594 12.609375 20.355469 12.480469 20.785156 12.394531 C 21.21875 12.308594 21.652344 12.265625 22.09375 12.265625 C 22.535156 12.265625 22.96875 12.308594 23.402344 12.394531 C 23.835938 12.480469 24.253906 12.609375 24.660156 12.777344 C 25.066406 12.945312 25.453125 13.152344 25.820312 13.398438 C 26.1875 13.644531 26.523438 13.921875 26.835938 14.234375 C 27.148438 14.546875 27.425781 14.882812 27.667969 15.25 C 27.914062 15.617188 28.121094 16.003906 28.289062 16.414062 C 28.457031 16.820312 28.585938 17.238281 28.671875 17.671875 C 28.757812 18.105469 28.800781 18.542969 28.800781 18.984375 C 28.800781 19.421875 28.753906 19.859375 28.667969 20.292969 C 28.582031 20.726562 28.457031 21.144531 28.285156 21.550781 C 28.117188 21.957031 27.910156 22.347656 27.667969 22.710938 C 27.421875 23.078125 27.144531 23.417969 26.832031 23.730469 C 26.523438 24.042969 26.183594 24.320312 25.816406 24.566406 C 25.453125 24.808594 25.066406 25.015625 24.660156 25.183594 C 24.253906 25.355469 23.832031 25.480469 23.402344 25.566406 C 22.96875 25.65625 22.535156 25.699219 22.09375 25.699219 Z M 22.09375 13.632812 C 21.742188 13.632812 21.394531 13.667969 21.050781 13.738281 C 20.707031 13.804688 20.375 13.90625 20.050781 14.042969 C 19.726562 14.175781 19.417969 14.339844 19.125 14.535156 C 18.835938 14.730469 18.566406 14.953125 18.316406 15.199219 C 18.070312 15.449219 17.847656 15.71875 17.652344 16.011719 C 17.457031 16.304688 17.292969 16.613281 17.160156 16.9375 C 17.027344 17.261719 16.925781 17.59375 16.855469 17.941406 C 16.789062 18.285156 16.753906 18.632812 16.753906 18.984375 C 16.753906 19.335938 16.789062 19.683594 16.855469 20.027344 C 16.925781 20.371094 17.027344 20.703125 17.160156 21.03125 C 17.292969 21.355469 17.457031 21.664062 17.652344 21.953125 C 17.847656 22.246094 18.070312 22.515625 18.316406 22.765625 C 18.566406 23.011719 18.835938 23.234375 19.125 23.429688 C 19.417969 23.625 19.726562 23.789062 20.050781 23.925781 C 20.375 24.058594 20.707031 24.160156 21.050781 24.226562 C 21.394531 24.296875 21.742188 24.332031 22.09375 24.332031 C 22.445312 24.332031 22.792969 24.296875 23.136719 24.226562 C 23.480469 24.160156 23.8125 24.058594 24.136719 23.925781 C 24.460938 23.789062 24.769531 23.625 25.058594 23.429688 C 25.351562 23.234375 25.621094 23.011719 25.871094 22.765625 C 26.117188 22.515625 26.339844 22.246094 26.535156 21.953125 C 26.726562 21.664062 26.894531 21.355469 27.027344 21.03125 C 27.160156 20.703125 27.261719 20.371094 27.332031 20.027344 C 27.398438 19.683594 27.433594 19.335938 27.433594 18.984375 C 27.433594 18.632812 27.398438 18.285156 27.328125 17.941406 C 27.261719 17.59375 27.160156 17.261719 27.027344 16.9375 C 26.890625 16.613281 26.726562 16.304688 26.53125 16.011719 C 26.335938 15.722656 26.117188 15.449219 25.867188 15.203125 C 25.621094 14.953125 25.351562 14.734375 25.058594 14.539062 C 24.765625 14.34375 24.460938 14.179688 24.136719 14.042969 C 23.8125 13.910156 23.480469 13.808594 23.136719 13.738281 C 22.792969 13.667969 22.445312 13.636719 22.09375 13.632812 Z M 22.09375 13.632812 " fill-opacity="1" fill-rule="nonzero"/><path fill="#000000" d="M 22.09375 25.699219 C 21.652344 25.699219 21.21875 25.65625 20.785156 25.570312 C 20.351562 25.484375 19.933594 25.355469 19.527344 25.1875 C 19.121094 25.019531 18.734375 24.8125 18.367188 24.566406 C 18 24.320312 17.664062 24.042969 17.351562 23.730469 C 17.039062 23.417969 16.761719 23.082031 16.515625 22.714844 C 16.273438 22.347656 16.066406 21.960938 15.898438 21.550781 C 15.730469 21.144531 15.601562 20.726562 15.515625 20.292969 C 15.429688 19.859375 15.386719 19.421875 15.386719 18.980469 C 15.386719 18.539062 15.429688 18.105469 15.515625 17.671875 C 15.601562 17.238281 15.730469 16.820312 15.898438 16.410156 C 16.066406 16.003906 16.273438 15.617188 16.519531 15.25 C 16.761719 14.882812 17.039062 14.542969 17.351562 14.234375 C 17.664062 13.921875 18.003906 13.640625 18.367188 13.398438 C 18.734375 13.152344 19.121094 12.945312 19.527344 12.777344 C 19.933594 12.609375 20.355469 12.480469 20.785156 12.394531 C 21.21875 12.308594 21.652344 12.265625 22.09375 12.265625 C 22.535156 12.265625 22.96875 12.308594 23.402344 12.394531 C 23.835938 12.480469 24.253906 12.609375 24.660156 12.777344 C 25.066406 12.945312 25.453125 13.152344 25.820312 13.398438 C 26.1875 13.644531 26.523438 13.921875 26.835938 14.234375 C 27.148438 14.546875 27.425781 14.882812 27.667969 15.25 C 27.914062 15.617188 28.121094 16.003906 28.289062 16.414062 C 28.457031 16.820312 28.585938 17.238281 28.671875 17.671875 C 28.757812 18.105469 28.800781 18.542969 28.800781 18.984375 C 28.800781 19.421875 28.753906 19.859375 28.667969 20.292969 C 28.582031 20.726562 28.457031 21.144531 28.285156 21.550781 C 28.117188 21.957031 27.910156 22.347656 27.667969 22.710938 C 27.421875 23.078125 27.144531 23.417969 26.832031 23.730469 C 26.523438 24.042969 26.183594 24.320312 25.816406 24.566406 C 25.453125 24.808594 25.066406 25.015625 24.660156 25.183594 C 24.253906 25.355469 23.832031 25.480469 23.402344 25.566406 C 22.96875 25.65625 22.535156 25.699219 22.09375 25.699219 Z M 22.09375 13.632812 C 21.742188 13.632812 21.394531 13.667969 21.050781 13.738281 C 20.707031 13.804688 20.375 13.90625 20.050781 14.042969 C 19.726562 14.175781 19.417969 14.339844 19.125 14.535156 C 18.835938 14.730469 18.566406 14.953125 18.316406 15.199219 C 18.070312 15.449219 17.847656 15.71875 17.652344 16.011719 C 17.457031 16.304688 17.292969 16.613281 17.160156 16.9375 C 17.027344 17.261719 16.925781 17.59375 16.855469 17.941406 C 16.789062 18.285156 16.753906 18.632812 16.753906 18.984375 C 16.753906 19.335938 16.789062 19.683594 16.855469 20.027344 C 16.925781 20.371094 17.027344 20.703125 17.160156 21.03125 C 17.292969 21.355469 17.457031 21.664062 17.652344 21.953125 C 17.847656 22.246094 18.070312 22.515625 18.316406 22.765625 C 18.566406 23.011719 18.835938 23.234375 19.125 23.429688 C 19.417969 23.625 19.726562 23.789062 20.050781 23.925781 C 20.375 24.058594 20.707031 24.160156 21.050781 24.226562 C 21.394531 24.296875 21.742188 24.332031 22.09375 24.332031 C 22.445312 24.332031 22.792969 24.296875 23.136719 24.226562 C 23.480469 24.160156 23.8125 24.058594 24.136719 23.925781 C 24.460938 23.789062 24.769531 23.625 25.058594 23.429688 C 25.351562 23.234375 25.621094 23.011719 25.871094 22.765625 C 26.117188 22.515625 26.339844 22.246094 26.535156 21.953125 C 26.726562 21.664062 26.894531 21.355469 27.027344 21.03125 C 27.160156 20.703125 27.261719 20.371094 27.332031 20.027344 C 27.398438 19.683594 27.433594 19.335938 27.433594 18.984375 C 27.433594 18.632812 27.398438 18.285156 27.328125 17.941406 C 27.261719 17.59375 27.160156 17.261719 27.027344 16.9375 C 26.890625 16.613281 26.726562 16.304688 26.53125 16.011719 C 26.335938 15.722656 26.117188 15.449219 25.867188 15.203125 C 25.621094 14.953125 25.351562 14.734375 25.058594 14.539062 C 24.765625 14.34375 24.460938 14.179688 24.136719 14.042969 C 23.8125 13.910156 23.480469 13.808594 23.136719 13.738281 C 22.792969 13.667969 22.445312 13.636719 22.09375 13.632812 Z M 22.09375 13.632812 " fill-opacity="1" fill-rule="nonzero"/><path fill="#000000" d="M 7.71875 31.285156 L 2.707031 31.285156 C 2.347656 31.285156 2.003906 31.214844 1.671875 31.078125 C 1.339844 30.941406 1.046875 30.746094 0.792969 30.492188 C 0.539062 30.238281 0.34375 29.945312 0.207031 29.613281 C 0.0703125 29.28125 0 28.933594 0 28.574219 L 0 23.558594 C 0 23.199219 0.0703125 22.855469 0.207031 22.523438 C 0.34375 22.191406 0.539062 21.898438 0.792969 21.644531 C 1.046875 21.390625 1.339844 21.191406 1.671875 21.054688 C 2.003906 20.917969 2.347656 20.847656 2.707031 20.847656 L 7.71875 20.847656 C 8.078125 20.847656 8.421875 20.917969 8.753906 21.054688 C 9.085938 21.191406 9.378906 21.390625 9.632812 21.644531 C 9.886719 21.898438 10.082031 22.191406 10.21875 22.523438 C 10.355469 22.855469 10.425781 23.199219 10.425781 23.558594 L 10.425781 28.574219 C 10.425781 28.933594 10.355469 29.28125 10.21875 29.613281 C 10.082031 29.945312 9.886719 30.238281 9.632812 30.492188 C 9.378906 30.746094 9.085938 30.941406 8.753906 31.078125 C 8.421875 31.214844 8.078125 31.285156 7.71875 31.285156 Z M 2.707031 22.214844 C 2.527344 22.214844 2.359375 22.25 2.195312 22.320312 C 2.03125 22.386719 1.882812 22.484375 1.757812 22.609375 C 1.632812 22.734375 1.535156 22.882812 1.46875 23.046875 C 1.398438 23.210938 1.367188 23.378906 1.367188 23.558594 L 1.367188 28.574219 C 1.367188 28.753906 1.398438 28.925781 1.46875 29.089844 C 1.535156 29.253906 1.632812 29.398438 1.757812 29.523438 C 1.882812 29.648438 2.03125 29.746094 2.195312 29.816406 C 2.359375 29.882812 2.527344 29.917969 2.707031 29.917969 L 7.71875 29.917969 C 7.894531 29.917969 8.066406 29.882812 8.230469 29.816406 C 8.394531 29.746094 8.539062 29.648438 8.664062 29.523438 C 8.792969 29.398438 8.886719 29.253906 8.957031 29.089844 C 9.023438 28.925781 9.058594 28.753906 9.058594 28.574219 L 9.058594 23.558594 C 9.058594 23.378906 9.023438 23.210938 8.957031 23.046875 C 8.886719 22.878906 8.792969 22.734375 8.664062 22.609375 C 8.539062 22.484375 8.394531 22.386719 8.230469 22.320312 C 8.066406 22.25 7.894531 22.214844 7.71875 22.214844 Z M 2.707031 22.214844 " fill-opacity="1" fill-rule="nonzero"/><path fill="#000000" d="M 14.582031 5.992188 L 9.765625 5.992188 C 9.578125 5.992188 9.417969 5.925781 9.285156 5.789062 C 9.152344 5.65625 9.085938 5.496094 9.085938 5.308594 C 9.085938 5.117188 9.152344 4.957031 9.285156 4.824219 C 9.417969 4.6875 9.578125 4.621094 9.765625 4.621094 L 14.578125 4.621094 C 14.769531 4.621094 14.929688 4.6875 15.0625 4.824219 C 15.195312 4.957031 15.261719 5.117188 15.261719 5.308594 C 15.261719 5.496094 15.195312 5.65625 15.0625 5.789062 C 14.929688 5.925781 14.769531 5.992188 14.578125 5.992188 Z M 14.582031 5.992188 " fill-opacity="1" fill-rule="nonzero"/><g clip-path="url(#a179a5ec20)"><path fill="#000000" d="M 35.851562 19.667969 L 28.117188 19.667969 C 27.929688 19.667969 27.765625 19.601562 27.632812 19.464844 C 27.5 19.332031 27.433594 19.171875 27.433594 18.984375 C 27.433594 18.792969 27.5 18.632812 27.632812 18.5 C 27.765625 18.367188 27.929688 18.296875 28.117188 18.296875 L 35.851562 18.296875 C 35.988281 18.296875 36.121094 18.273438 36.246094 18.21875 C 36.371094 18.167969 36.484375 18.09375 36.582031 17.996094 C 36.679688 17.898438 36.753906 17.785156 36.804688 17.660156 C 36.855469 17.53125 36.882812 17.398438 36.882812 17.261719 L 36.882812 7.027344 C 36.882812 6.886719 36.855469 6.757812 36.804688 6.628906 C 36.753906 6.503906 36.675781 6.390625 36.582031 6.292969 C 36.484375 6.199219 36.371094 6.121094 36.246094 6.070312 C 36.121094 6.015625 35.988281 5.992188 35.851562 5.992188 L 33.46875 5.992188 C 33.28125 5.992188 33.117188 5.925781 32.984375 5.789062 C 32.851562 5.65625 32.785156 5.496094 32.785156 5.308594 C 32.785156 5.117188 32.851562 4.957031 32.984375 4.824219 C 33.117188 4.6875 33.28125 4.621094 33.46875 4.621094 L 35.851562 4.621094 C 36.167969 4.621094 36.472656 4.683594 36.769531 4.804688 C 37.0625 4.929688 37.320312 5.101562 37.546875 5.328125 C 37.769531 5.550781 37.945312 5.8125 38.066406 6.105469 C 38.1875 6.402344 38.25 6.707031 38.25 7.027344 L 38.25 17.261719 C 38.25 17.582031 38.1875 17.886719 38.066406 18.183594 C 37.945312 18.476562 37.769531 18.738281 37.546875 18.960938 C 37.320312 19.1875 37.0625 19.359375 36.769531 19.484375 C 36.472656 19.605469 36.167969 19.667969 35.851562 19.667969 Z M 35.851562 19.667969 " fill-opacity="1" fill-rule="nonzero"/></g><path fill="#000000" d="M 5.226562 22.214844 C 5.039062 22.214844 4.878906 22.148438 4.742188 22.015625 C 4.609375 21.882812 4.542969 21.722656 4.542969 21.53125 L 4.542969 20.765625 C 4.542969 20.441406 4.605469 20.125 4.730469 19.824219 C 4.855469 19.519531 5.035156 19.253906 5.265625 19.023438 C 5.496094 18.792969 5.765625 18.613281 6.066406 18.488281 C 6.367188 18.363281 6.683594 18.300781 7.007812 18.296875 L 16.070312 18.296875 C 16.261719 18.296875 16.421875 18.363281 16.554688 18.5 C 16.6875 18.632812 16.753906 18.792969 16.753906 18.984375 C 16.753906 19.171875 16.6875 19.332031 16.554688 19.46875 C 16.421875 19.601562 16.261719 19.667969 16.070312 19.667969 L 7.007812 19.667969 C 6.863281 19.667969 6.722656 19.695312 6.589844 19.75 C 6.453125 19.808594 6.335938 19.886719 6.230469 19.988281 C 6.128906 20.09375 6.050781 20.210938 5.992188 20.347656 C 5.9375 20.480469 5.910156 20.621094 5.910156 20.765625 L 5.910156 21.53125 C 5.910156 21.722656 5.84375 21.882812 5.710938 22.015625 C 5.578125 22.148438 5.414062 22.214844 5.226562 22.214844 Z M 5.226562 22.214844 " fill-opacity="1" fill-rule="nonzero"/><path fill="#000000" d="M 22.539062 34.277344 L 7.164062 34.277344 C 6.816406 34.277344 6.480469 34.210938 6.160156 34.074219 C 5.839844 33.941406 5.558594 33.753906 5.3125 33.507812 C 5.066406 33.261719 4.875 32.976562 4.742188 32.65625 C 4.609375 32.335938 4.542969 32 4.542969 31.652344 L 4.542969 30.601562 C 4.542969 30.414062 4.609375 30.25 4.742188 30.117188 C 4.878906 29.984375 5.039062 29.917969 5.226562 29.917969 C 5.414062 29.917969 5.578125 29.984375 5.710938 30.117188 C 5.84375 30.25 5.910156 30.414062 5.910156 30.601562 L 5.910156 31.652344 C 5.910156 31.820312 5.941406 31.980469 6.003906 32.132812 C 6.070312 32.285156 6.160156 32.421875 6.277344 32.539062 C 6.394531 32.65625 6.53125 32.75 6.683594 32.8125 C 6.835938 32.875 6.996094 32.90625 7.164062 32.90625 L 22.539062 32.90625 C 22.730469 32.90625 22.890625 32.976562 23.023438 33.109375 C 23.15625 33.242188 23.222656 33.402344 23.222656 33.59375 C 23.222656 33.78125 23.15625 33.941406 23.023438 34.074219 C 22.890625 34.210938 22.730469 34.277344 22.539062 34.277344 Z M 22.539062 34.277344 " fill-opacity="1" fill-rule="nonzero"/><path fill="#000000" d="M 29.402344 4.523438 L 18.648438 4.523438 C 18.457031 4.523438 18.296875 4.457031 18.164062 4.324219 C 18.03125 4.191406 17.964844 4.03125 17.964844 3.839844 C 17.964844 3.652344 18.03125 3.492188 18.164062 3.355469 C 18.296875 3.222656 18.457031 3.15625 18.648438 3.15625 L 29.40625 3.15625 C 29.59375 3.15625 29.753906 3.222656 29.886719 3.355469 C 30.019531 3.492188 30.085938 3.652344 30.085938 3.839844 C 30.085938 4.03125 30.019531 4.191406 29.886719 4.324219 C 29.753906 4.457031 29.59375 4.523438 29.40625 4.523438 Z M 29.402344 4.523438 " fill-opacity="1" fill-rule="nonzero"/><path fill="#000000" d="M 22.855469 7.457031 L 18.648438 7.457031 C 18.457031 7.457031 18.296875 7.390625 18.164062 7.253906 C 18.03125 7.121094 17.964844 6.960938 17.964844 6.773438 C 17.964844 6.582031 18.03125 6.421875 18.164062 6.289062 C 18.296875 6.15625 18.457031 6.085938 18.648438 6.085938 L 22.855469 6.085938 C 23.042969 6.085938 23.203125 6.15625 23.335938 6.289062 C 23.472656 6.421875 23.539062 6.582031 23.539062 6.773438 C 23.539062 6.960938 23.472656 7.121094 23.335938 7.253906 C 23.203125 7.390625 23.042969 7.457031 22.855469 7.457031 Z M 22.855469 7.457031 " fill-opacity="1" fill-rule="nonzero"/><g clip-path="url(#2f74c36ef3)"><path fill="#000000" d="M 31.542969 24.949219 C 31.105469 24.949219 30.667969 24.992188 30.234375 25.078125 C 29.804688 25.164062 29.386719 25.289062 28.976562 25.460938 C 28.570312 25.628906 28.183594 25.835938 27.820312 26.082031 C 27.453125 26.324219 27.113281 26.605469 26.800781 26.914062 C 26.492188 27.226562 26.214844 27.566406 25.96875 27.933594 C 25.722656 28.300781 25.515625 28.6875 25.347656 29.09375 C 25.179688 29.5 25.054688 29.921875 24.96875 30.355469 C 24.882812 30.785156 24.839844 31.222656 24.839844 31.664062 C 24.835938 32.105469 24.878906 32.542969 24.964844 32.976562 C 25.050781 33.40625 25.179688 33.828125 25.347656 34.234375 C 25.515625 34.640625 25.722656 35.03125 25.96875 35.394531 C 26.210938 35.761719 26.492188 36.101562 26.800781 36.414062 C 27.113281 36.726562 27.453125 37.003906 27.816406 37.25 C 28.183594 37.496094 28.570312 37.703125 28.976562 37.871094 C 29.382812 38.039062 29.804688 38.167969 30.234375 38.253906 C 30.667969 38.339844 31.101562 38.382812 31.542969 38.382812 C 31.984375 38.382812 32.421875 38.339844 32.851562 38.253906 C 33.285156 38.167969 33.703125 38.039062 34.109375 37.871094 C 34.515625 37.703125 34.902344 37.496094 35.269531 37.25 C 35.636719 37.003906 35.972656 36.726562 36.285156 36.414062 C 36.597656 36.101562 36.875 35.761719 37.121094 35.398438 C 37.363281 35.03125 37.570312 34.644531 37.738281 34.234375 C 37.90625 33.828125 38.035156 33.40625 38.121094 32.976562 C 38.207031 32.542969 38.25 32.105469 38.25 31.664062 C 38.25 31.222656 38.207031 30.789062 38.121094 30.355469 C 38.035156 29.921875 37.90625 29.503906 37.738281 29.097656 C 37.570312 28.6875 37.363281 28.300781 37.117188 27.9375 C 36.871094 27.570312 36.59375 27.230469 36.285156 26.917969 C 35.972656 26.605469 35.632812 26.328125 35.269531 26.082031 C 34.902344 25.839844 34.515625 25.632812 34.109375 25.460938 C 33.703125 25.292969 33.285156 25.164062 32.851562 25.078125 C 32.421875 24.992188 31.984375 24.949219 31.542969 24.949219 Z M 34.972656 30.132812 L 30.941406 34.164062 C 30.808594 34.296875 30.648438 34.363281 30.457031 34.363281 C 30.269531 34.363281 30.109375 34.296875 29.976562 34.164062 L 28.117188 32.300781 C 27.984375 32.167969 27.917969 32.007812 27.917969 31.816406 C 27.917969 31.628906 27.984375 31.46875 28.117188 31.332031 C 28.25 31.199219 28.414062 31.132812 28.601562 31.132812 C 28.789062 31.132812 28.953125 31.199219 29.085938 31.335938 L 30.464844 32.714844 L 34.007812 29.164062 C 34.140625 29.039062 34.300781 28.976562 34.484375 28.980469 C 34.667969 28.984375 34.828125 29.050781 34.957031 29.179688 C 35.085938 29.3125 35.152344 29.46875 35.15625 29.652344 C 35.160156 29.839844 35.097656 30 34.972656 30.132812 Z M 34.972656 30.132812 " fill-opacity="1" fill-rule="nonzero"/></g><path fill="#000000" d="M 6.746094 25.523438 L 3.675781 25.523438 C 3.484375 25.523438 3.324219 25.457031 3.191406 25.324219 C 3.058594 25.191406 2.992188 25.027344 2.992188 24.839844 C 2.992188 24.652344 3.058594 24.488281 3.191406 24.355469 C 3.324219 24.222656 3.484375 24.15625 3.675781 24.15625 L 6.746094 24.15625 C 6.9375 24.15625 7.097656 24.222656 7.230469 24.355469 C 7.363281 24.488281 7.429688 24.652344 7.429688 24.839844 C 7.429688 25.027344 7.363281 25.191406 7.230469 25.324219 C 7.097656 25.457031 6.9375 25.523438 6.746094 25.523438 Z M 6.746094 25.523438 " fill-opacity="1" fill-rule="nonzero"/><path fill="#000000" d="M 6.746094 27.976562 L 3.675781 27.976562 C 3.484375 27.976562 3.324219 27.910156 3.191406 27.777344 C 3.058594 27.644531 2.992188 27.484375 2.992188 27.292969 C 2.992188 27.105469 3.058594 26.945312 3.191406 26.8125 C 3.324219 26.675781 3.484375 26.609375 3.675781 26.609375 L 6.746094 26.609375 C 6.9375 26.609375 7.097656 26.675781 7.230469 26.8125 C 7.363281 26.945312 7.429688 27.105469 7.429688 27.292969 C 7.429688 27.484375 7.363281 27.644531 7.230469 27.777344 C 7.097656 27.910156 6.9375 27.976562 6.746094 27.976562 Z M 6.746094 27.976562 " fill-opacity="1" fill-rule="nonzero"/><path fill="#000000" d="M 22.09375 22.003906 C 21.695312 22.003906 21.308594 21.925781 20.9375 21.773438 C 20.570312 21.621094 20.242188 21.402344 19.960938 21.117188 C 19.679688 20.835938 19.460938 20.507812 19.308594 20.140625 C 19.152344 19.769531 19.078125 19.382812 19.078125 18.984375 C 19.078125 18.582031 19.152344 18.195312 19.308594 17.828125 C 19.460938 17.457031 19.679688 17.128906 19.960938 16.847656 C 20.242188 16.5625 20.570312 16.34375 20.9375 16.191406 C 21.308594 16.039062 21.695312 15.960938 22.09375 15.960938 C 22.492188 15.960938 22.878906 16.039062 23.246094 16.191406 C 23.617188 16.34375 23.945312 16.5625 24.226562 16.847656 C 24.507812 17.128906 24.726562 17.457031 24.878906 17.828125 C 25.035156 18.195312 25.109375 18.582031 25.109375 18.984375 C 25.109375 19.382812 25.03125 19.769531 24.878906 20.136719 C 24.726562 20.507812 24.507812 20.835938 24.226562 21.117188 C 23.941406 21.402344 23.617188 21.621094 23.246094 21.773438 C 22.878906 21.925781 22.492188 22.003906 22.09375 22.003906 Z M 22.09375 17.332031 C 21.875 17.332031 21.664062 17.371094 21.460938 17.457031 C 21.261719 17.539062 21.082031 17.660156 20.925781 17.8125 C 20.773438 17.96875 20.652344 18.148438 20.570312 18.351562 C 20.484375 18.554688 20.441406 18.761719 20.441406 18.984375 C 20.441406 19.203125 20.484375 19.414062 20.570312 19.617188 C 20.652344 19.816406 20.773438 19.996094 20.925781 20.152344 C 21.082031 20.304688 21.261719 20.425781 21.460938 20.507812 C 21.664062 20.59375 21.875 20.636719 22.09375 20.636719 C 22.3125 20.636719 22.523438 20.59375 22.726562 20.511719 C 22.925781 20.425781 23.105469 20.304688 23.261719 20.152344 C 23.414062 19.996094 23.535156 19.816406 23.617188 19.617188 C 23.703125 19.414062 23.742188 19.203125 23.742188 18.984375 C 23.742188 18.765625 23.703125 18.554688 23.617188 18.351562 C 23.535156 18.148438 23.414062 17.96875 23.257812 17.816406 C 23.105469 17.660156 22.925781 17.539062 22.726562 17.457031 C 22.523438 17.371094 22.3125 17.332031 22.09375 17.332031 Z M 22.09375 17.332031 " fill-opacity="1" fill-rule="nonzero"/><path fill="#000000" d="M 22.09375 17.332031 C 21.90625 17.332031 21.742188 17.261719 21.609375 17.128906 C 21.476562 16.996094 21.410156 16.835938 21.410156 16.644531 L 21.410156 15.539062 C 21.410156 15.347656 21.476562 15.1875 21.609375 15.054688 C 21.742188 14.917969 21.90625 14.851562 22.09375 14.851562 C 22.28125 14.851562 22.441406 14.917969 22.578125 15.054688 C 22.710938 15.1875 22.777344 15.347656 22.777344 15.539062 L 22.777344 16.644531 C 22.777344 16.835938 22.710938 16.996094 22.578125 17.128906 C 22.441406 17.261719 22.28125 17.332031 22.09375 17.332031 Z M 22.09375 17.332031 " fill-opacity="1" fill-rule="nonzero"/><path fill="#000000" d="M 20.445312 18.015625 C 20.253906 18.015625 20.09375 17.949219 19.960938 17.8125 L 19.179688 17.03125 C 19.039062 16.898438 18.972656 16.734375 18.96875 16.542969 C 18.96875 16.351562 19.035156 16.1875 19.167969 16.054688 C 19.304688 15.917969 19.46875 15.851562 19.660156 15.855469 C 19.851562 15.855469 20.011719 15.925781 20.144531 16.0625 L 20.925781 16.847656 C 21.140625 17.0625 21.191406 17.308594 21.074219 17.59375 C 20.957031 17.875 20.75 18.015625 20.445312 18.015625 Z M 20.445312 18.015625 " fill-opacity="1" fill-rule="nonzero"/><path fill="#000000" d="M 19.761719 19.667969 L 18.652344 19.667969 C 18.464844 19.667969 18.304688 19.601562 18.171875 19.464844 C 18.039062 19.332031 17.96875 19.171875 17.96875 18.984375 C 17.96875 18.792969 18.039062 18.632812 18.171875 18.5 C 18.304688 18.367188 18.464844 18.296875 18.652344 18.296875 L 19.761719 18.296875 C 19.949219 18.296875 20.109375 18.367188 20.242188 18.5 C 20.375 18.632812 20.441406 18.792969 20.441406 18.984375 C 20.441406 19.171875 20.375 19.332031 20.242188 19.464844 C 20.109375 19.601562 19.949219 19.667969 19.761719 19.667969 Z M 19.761719 19.667969 " fill-opacity="1" fill-rule="nonzero"/><path fill="#000000" d="M 19.660156 22.101562 C 19.355469 22.101562 19.148438 21.960938 19.03125 21.679688 C 18.914062 21.398438 18.964844 21.152344 19.179688 20.933594 L 19.960938 20.152344 C 20.09375 20.023438 20.253906 19.957031 20.441406 19.960938 C 20.628906 19.960938 20.785156 20.027344 20.917969 20.160156 C 21.050781 20.292969 21.117188 20.449219 21.117188 20.636719 C 21.121094 20.824219 21.054688 20.984375 20.925781 21.117188 L 20.144531 21.902344 C 20.011719 22.035156 19.851562 22.101562 19.660156 22.101562 Z M 19.660156 22.101562 " fill-opacity="1" fill-rule="nonzero"/><path fill="#000000" d="M 22.09375 23.113281 C 21.90625 23.113281 21.742188 23.046875 21.609375 22.910156 C 21.476562 22.777344 21.410156 22.617188 21.410156 22.429688 L 21.410156 21.320312 C 21.410156 21.128906 21.476562 20.96875 21.609375 20.835938 C 21.742188 20.703125 21.90625 20.636719 22.09375 20.636719 C 22.28125 20.636719 22.441406 20.703125 22.578125 20.835938 C 22.710938 20.96875 22.777344 21.128906 22.777344 21.320312 L 22.777344 22.429688 C 22.777344 22.617188 22.710938 22.777344 22.578125 22.910156 C 22.441406 23.046875 22.28125 23.113281 22.09375 23.113281 Z M 22.09375 23.113281 " fill-opacity="1" fill-rule="nonzero"/><path fill="#000000" d="M 24.527344 22.101562 C 24.335938 22.101562 24.175781 22.035156 24.042969 21.902344 L 23.261719 21.117188 C 23.132812 20.984375 23.066406 20.824219 23.070312 20.636719 C 23.070312 20.449219 23.136719 20.292969 23.269531 20.160156 C 23.402344 20.027344 23.558594 19.960938 23.746094 19.960938 C 23.933594 19.957031 24.09375 20.023438 24.226562 20.152344 L 25.007812 20.9375 C 25.222656 21.152344 25.273438 21.402344 25.15625 21.683594 C 25.039062 21.964844 24.828125 22.105469 24.527344 22.105469 Z M 24.527344 22.101562 " fill-opacity="1" fill-rule="nonzero"/><path fill="#000000" d="M 25.535156 19.667969 L 24.425781 19.667969 C 24.238281 19.667969 24.078125 19.601562 23.945312 19.464844 C 23.808594 19.332031 23.742188 19.171875 23.742188 18.984375 C 23.742188 18.792969 23.808594 18.632812 23.945312 18.5 C 24.078125 18.367188 24.238281 18.296875 24.425781 18.296875 L 25.535156 18.296875 C 25.722656 18.296875 25.882812 18.367188 26.015625 18.5 C 26.148438 18.632812 26.214844 18.792969 26.214844 18.984375 C 26.214844 19.171875 26.148438 19.332031 26.015625 19.464844 C 25.882812 19.601562 25.722656 19.667969 25.535156 19.667969 Z M 25.535156 19.667969 " fill-opacity="1" fill-rule="nonzero"/><path fill="#000000" d="M 23.742188 18.015625 C 23.441406 18.015625 23.230469 17.875 23.113281 17.59375 C 22.996094 17.308594 23.046875 17.0625 23.261719 16.847656 L 24.042969 16.0625 C 24.175781 15.933594 24.335938 15.867188 24.523438 15.871094 C 24.710938 15.871094 24.867188 15.9375 25 16.070312 C 25.132812 16.203125 25.199219 16.363281 25.199219 16.546875 C 25.203125 16.734375 25.136719 16.894531 25.007812 17.03125 L 24.226562 17.8125 C 24.09375 17.949219 23.933594 18.015625 23.742188 18.015625 Z M 23.742188 18.015625 " fill-opacity="1" fill-rule="nonzero"/></svg>