<svg xmlns="http://www.w3.org/2000/svg" xmlns:xlink="http://www.w3.org/1999/xlink" width="52" zoomAndPan="magnify" viewBox="0 0 39 38.999999" height="52" preserveAspectRatio="xMidYMid meet" version="1.0"><defs><clipPath id="972f908961"><path d="M 1.265625 0 L 38 0 L 38 39 L 1.265625 39 Z M 1.265625 0 " clip-rule="nonzero"/></clipPath></defs><g clip-path="url(#972f908961)"><path fill="#000000" d="M 34.5 28.625 C 33.710938 29.082031 32.601562 29.800781 31.316406 30.628906 C 28.074219 32.726562 22.644531 36.234375 20.988281 36.140625 C 16.984375 35.921875 12.816406 35.21875 8.832031 35.816406 L 8.832031 28.769531 C 9.777344 28.722656 10.917969 28.628906 12.066406 28.394531 C 12.761719 28.25 14.0625 27.664062 15.390625 27.0625 C 18.03125 25.875 18.230469 25.917969 20.6875 26.417969 C 21.519531 26.589844 22.351562 26.742188 23.269531 27 C 24.820312 27.441406 25.675781 27.972656 25.675781 28.5 C 25.675781 28.808594 25.578125 29.160156 25.378906 29.378906 C 25.046875 29.726562 24.496094 30.054688 23.929688 29.949219 L 19.445312 29.105469 C 19.375 29.09375 19.300781 29.09375 19.230469 29.105469 L 17.246094 29.464844 C 16.925781 29.519531 16.710938 29.828125 16.769531 30.148438 C 16.824219 30.472656 17.136719 30.683594 17.464844 30.625 L 19.335938 30.285156 L 23.703125 31.109375 C 23.851562 31.136719 24 31.152344 24.148438 31.152344 C 24.800781 31.152344 25.460938 30.890625 26.011719 30.414062 C 26.066406 30.402344 26.117188 30.382812 26.171875 30.351562 L 34.21875 25.976562 C 35.21875 25.515625 36.09375 25.726562 36.339844 26.1875 C 36.609375 26.691406 36.144531 27.667969 34.5 28.625 Z M 7.636719 37.160156 C 7.636719 37.519531 7.34375 37.8125 6.976562 37.8125 L 3.113281 37.8125 C 2.75 37.8125 2.457031 37.519531 2.457031 37.160156 L 2.457031 28.078125 C 2.457031 27.71875 2.75 27.425781 3.113281 27.425781 L 6.976562 27.425781 C 7.34375 27.425781 7.636719 27.71875 7.636719 28.078125 Z M 37.464844 25.597656 C 36.847656 24.4375 35.210938 24.113281 33.660156 24.84375 C 33.652344 24.847656 33.636719 24.855469 33.625 24.859375 L 26.945312 28.496094 C 26.941406 26.914062 25.042969 26.195312 23.617188 25.789062 C 22.660156 25.519531 21.800781 25.359375 20.941406 25.183594 C 18.230469 24.628906 17.769531 24.609375 14.867188 25.914062 C 13.710938 26.433594 12.371094 27.042969 11.808594 27.160156 C 10.734375 27.382812 9.648438 27.46875 8.738281 27.511719 C 8.5 26.777344 7.800781 26.242188 6.976562 26.242188 L 3.113281 26.242188 C 2.09375 26.242188 1.265625 27.066406 1.265625 28.078125 L 1.265625 37.160156 C 1.265625 38.171875 2.09375 38.996094 3.113281 38.996094 L 6.976562 38.996094 C 7.996094 38.996094 8.832031 38.171875 8.832031 37.160156 L 8.832031 37.089844 C 11.582031 36.640625 14.3125 36.871094 17.386719 37.136719 C 18.527344 37.234375 19.707031 37.335938 20.917969 37.402344 C 22.84375 37.511719 27.210938 34.789062 32.007812 31.6875 C 33.28125 30.867188 34.378906 30.15625 35.140625 29.714844 C 37.679688 28.238281 38.007812 26.621094 37.464844 25.597656 Z M 12.09375 19.011719 C 11.324219 19.011719 10.699219 18.390625 10.699219 17.628906 C 10.699219 16.871094 11.324219 16.25 12.09375 16.25 C 12.859375 16.25 13.484375 16.871094 13.484375 17.628906 C 13.484375 18.390625 12.859375 19.011719 12.09375 19.011719 Z M 12.09375 15.066406 C 10.667969 15.066406 9.507812 16.21875 9.507812 17.628906 C 9.507812 19.042969 10.667969 20.195312 12.09375 20.195312 C 13.519531 20.195312 14.671875 19.042969 14.671875 17.628906 C 14.671875 16.21875 13.519531 15.066406 12.09375 15.066406 Z M 10.742188 6.023438 C 11.167969 5.683594 11.621094 5.644531 12.199219 5.644531 C 12.707031 5.644531 13.121094 5.773438 13.441406 6.023438 C 13.808594 6.316406 13.769531 6.554688 13.753906 6.648438 L 12.691406 12.753906 C 12.675781 12.835938 12.457031 12.992188 12.078125 12.992188 C 11.714844 12.992188 11.5 12.824219 11.492188 12.753906 L 10.429688 6.648438 C 10.417969 6.558594 10.371094 6.316406 10.742188 6.023438 Z M 10.316406 12.953125 C 10.445312 13.671875 11.183594 14.171875 12.109375 14.171875 C 13 14.171875 13.746094 13.660156 13.863281 12.953125 L 14.929688 6.847656 C 15.039062 6.191406 14.777344 5.570312 14.1875 5.101562 C 13.660156 4.683594 12.972656 4.460938 12.199219 4.460938 L 11.980469 4.460938 C 11.214844 4.460938 10.527344 4.683594 10 5.101562 C 9.40625 5.570312 9.140625 6.191406 9.257812 6.847656 Z M 2.953125 4.65625 C 2.878906 11.972656 3.628906 19.265625 12.09375 22.09375 C 20.554688 19.265625 21.304688 11.972656 21.226562 4.65625 C 15.515625 2.316406 8.664062 2.316406 2.953125 4.65625 Z M 11.90625 23.277344 C 12.027344 23.316406 12.152344 23.316406 12.273438 23.277344 C 16.570312 21.894531 19.40625 19.363281 20.941406 15.546875 C 22.328125 12.101562 22.46875 8.082031 22.417969 4.253906 C 22.414062 4.019531 22.273438 3.8125 22.054688 3.71875 C 15.832031 1.050781 8.347656 1.050781 2.125 3.71875 C 1.910156 3.8125 1.769531 4.019531 1.769531 4.253906 C 1.710938 8.082031 1.859375 12.101562 3.238281 15.546875 C 4.773438 19.363281 7.609375 21.894531 11.90625 23.277344 Z M 34.046875 1.179688 C 34.992188 1.179688 35.757812 1.941406 35.757812 2.878906 C 35.757812 3.816406 34.992188 4.578125 34.046875 4.578125 C 33.105469 4.578125 32.332031 3.816406 32.332031 2.878906 C 32.332031 1.941406 33.105469 1.179688 34.046875 1.179688 Z M 34.046875 9.867188 C 34.992188 9.867188 35.757812 10.628906 35.757812 11.566406 C 35.757812 12.503906 34.992188 13.265625 34.046875 13.265625 C 33.105469 13.265625 32.332031 12.503906 32.332031 11.566406 C 32.332031 10.628906 33.105469 9.867188 34.046875 9.867188 Z M 34.046875 18.554688 C 34.992188 18.554688 35.757812 19.316406 35.757812 20.253906 C 35.757812 21.191406 34.992188 21.953125 34.046875 21.953125 C 33.105469 21.953125 32.332031 21.191406 32.332031 20.253906 C 32.332031 19.316406 33.105469 18.554688 34.046875 18.554688 Z M 24.636719 12.15625 L 28.175781 12.15625 L 28.175781 20.253906 C 28.175781 20.578125 28.441406 20.84375 28.765625 20.84375 L 31.203125 20.84375 C 31.476562 22.148438 32.648438 23.132812 34.046875 23.132812 C 35.648438 23.132812 36.949219 21.839844 36.949219 20.253906 C 36.949219 18.664062 35.648438 17.371094 34.046875 17.371094 C 32.648438 17.371094 31.476562 18.355469 31.203125 19.660156 L 29.363281 19.660156 L 29.363281 12.15625 L 31.203125 12.15625 C 31.476562 13.460938 32.648438 14.445312 34.046875 14.445312 C 35.648438 14.445312 36.949219 13.152344 36.949219 11.566406 C 36.949219 9.976562 35.648438 8.683594 34.046875 8.683594 C 32.648438 8.683594 31.476562 9.667969 31.203125 10.972656 L 29.363281 10.972656 L 29.363281 3.46875 L 31.203125 3.46875 C 31.476562 4.773438 32.648438 5.757812 34.046875 5.757812 C 35.648438 5.757812 36.949219 4.46875 36.949219 2.878906 C 36.949219 1.289062 35.648438 -0.00390625 34.046875 -0.00390625 C 32.648438 -0.00390625 31.476562 0.980469 31.203125 2.285156 L 28.765625 2.285156 C 28.441406 2.285156 28.175781 2.550781 28.175781 2.878906 L 28.175781 10.972656 L 24.636719 10.972656 C 24.304688 10.972656 24.039062 11.238281 24.039062 11.566406 C 24.039062 11.890625 24.304688 12.15625 24.636719 12.15625 Z M 24.636719 12.15625 " fill-opacity="1" fill-rule="evenodd"/></g></svg>