<svg xmlns="http://www.w3.org/2000/svg" xmlns:xlink="http://www.w3.org/1999/xlink" width="52" zoomAndPan="magnify" viewBox="0 0 39 38.999999" height="52" preserveAspectRatio="xMidYMid meet" version="1.0"><defs><clipPath id="0a26709b97"><path d="M 0.109375 1.949219 L 39 1.949219 L 39 37.199219 L 0.109375 37.199219 Z M 0.109375 1.949219 " clip-rule="nonzero"/></clipPath></defs><g clip-path="url(#0a26709b97)"><path fill="#000000" d="M 37.789062 26.019531 L 26.066406 5.6875 C 25.738281 5.125 25.34375 4.609375 24.882812 4.148438 C 24.421875 3.683594 23.910156 3.292969 23.34375 2.964844 C 22.78125 2.636719 22.183594 2.390625 21.554688 2.222656 C 20.921875 2.050781 20.28125 1.96875 19.628906 1.96875 C 18.976562 1.96875 18.335938 2.050781 17.707031 2.222656 C 17.074219 2.390625 16.476562 2.636719 15.914062 2.964844 C 15.347656 3.292969 14.835938 3.683594 14.375 4.148438 C 13.914062 4.609375 13.519531 5.125 13.195312 5.6875 L 1.472656 26.019531 C 1.136719 26.582031 0.882812 27.179688 0.707031 27.808594 C 0.535156 28.441406 0.449219 29.085938 0.449219 29.738281 C 0.449219 30.394531 0.535156 31.039062 0.707031 31.667969 C 0.882812 32.300781 1.136719 32.898438 1.472656 33.460938 C 1.789062 34.03125 2.179688 34.550781 2.640625 35.015625 C 3.097656 35.480469 3.609375 35.878906 4.175781 36.207031 C 4.742188 36.535156 5.34375 36.78125 5.976562 36.945312 C 6.609375 37.109375 7.253906 37.1875 7.90625 37.179688 L 31.351562 37.179688 C 31.675781 37.179688 32 37.160156 32.324219 37.117188 C 32.644531 37.074219 32.960938 37.011719 33.277344 36.925781 C 33.589844 36.84375 33.894531 36.738281 34.195312 36.613281 C 34.496094 36.488281 34.785156 36.34375 35.066406 36.183594 C 35.347656 36.019531 35.617188 35.839844 35.875 35.640625 C 36.132812 35.445312 36.378906 35.230469 36.605469 35 C 36.835938 34.769531 37.050781 34.527344 37.246094 34.269531 C 37.445312 34.011719 37.625 33.742188 37.789062 33.460938 C 37.949219 33.179688 38.09375 32.886719 38.21875 32.585938 C 38.339844 32.285156 38.445312 31.980469 38.53125 31.664062 C 38.613281 31.351562 38.675781 31.03125 38.71875 30.710938 C 38.761719 30.386719 38.78125 30.0625 38.78125 29.738281 C 38.78125 29.414062 38.761719 29.089844 38.71875 28.769531 C 38.675781 28.445312 38.613281 28.128906 38.53125 27.8125 C 38.445312 27.5 38.339844 27.191406 38.21875 26.890625 C 38.09375 26.589844 37.949219 26.300781 37.789062 26.019531 Z M 36.421875 32.671875 C 36.167969 33.121094 35.863281 33.527344 35.5 33.894531 C 35.140625 34.261719 34.738281 34.574219 34.289062 34.832031 C 33.84375 35.089844 33.371094 35.285156 32.875 35.414062 C 32.375 35.542969 31.871094 35.605469 31.355469 35.597656 L 7.90625 35.597656 C 7.652344 35.597656 7.394531 35.582031 7.140625 35.550781 C 6.890625 35.515625 6.640625 35.464844 6.390625 35.398438 C 6.144531 35.332031 5.902344 35.25 5.667969 35.152344 C 5.429688 35.054688 5.203125 34.941406 4.980469 34.8125 C 4.757812 34.6875 4.546875 34.542969 4.34375 34.386719 C 4.140625 34.234375 3.949219 34.0625 3.769531 33.882812 C 3.589844 33.703125 3.421875 33.511719 3.265625 33.308594 C 3.109375 33.105469 2.96875 32.890625 2.839844 32.671875 C 2.710938 32.449219 2.597656 32.21875 2.5 31.984375 C 2.402344 31.746094 2.320312 31.503906 2.253906 31.257812 C 2.1875 31.011719 2.140625 30.757812 2.105469 30.503906 C 2.074219 30.25 2.054688 29.996094 2.054688 29.742188 C 2.054688 29.484375 2.074219 29.230469 2.105469 28.976562 C 2.140625 28.722656 2.1875 28.472656 2.253906 28.226562 C 2.320312 27.976562 2.402344 27.734375 2.5 27.5 C 2.597656 27.261719 2.710938 27.035156 2.839844 26.8125 L 14.5625 6.480469 C 14.820312 6.035156 15.128906 5.628906 15.492188 5.265625 C 15.855469 4.902344 16.257812 4.59375 16.703125 4.335938 C 17.148438 4.078125 17.621094 3.882812 18.113281 3.75 C 18.609375 3.617188 19.117188 3.550781 19.628906 3.550781 C 20.144531 3.550781 20.648438 3.617188 21.144531 3.75 C 21.640625 3.882812 22.109375 4.078125 22.554688 4.335938 C 23 4.59375 23.402344 4.902344 23.765625 5.265625 C 24.128906 5.628906 24.4375 6.035156 24.695312 6.480469 L 36.421875 26.8125 C 36.683594 27.253906 36.882812 27.726562 37.019531 28.222656 C 37.15625 28.71875 37.226562 29.226562 37.226562 29.742188 C 37.226562 30.257812 37.15625 30.761719 37.019531 31.261719 C 36.882812 31.757812 36.683594 32.226562 36.421875 32.671875 Z M 23.464844 7.191406 C 23.367188 7.023438 23.261719 6.863281 23.144531 6.710938 C 23.027344 6.558594 22.898438 6.410156 22.761719 6.273438 C 22.625 6.136719 22.480469 6.011719 22.328125 5.890625 C 22.171875 5.773438 22.011719 5.667969 21.84375 5.570312 C 21.675781 5.472656 21.503906 5.386719 21.324219 5.3125 C 21.148438 5.238281 20.964844 5.179688 20.777344 5.128906 C 20.589844 5.078125 20.402344 5.039062 20.210938 5.015625 C 20.015625 4.988281 19.824219 4.976562 19.632812 4.976562 C 19.4375 4.976562 19.246094 4.988281 19.054688 5.015625 C 18.863281 5.039062 18.671875 5.078125 18.484375 5.128906 C 18.300781 5.179688 18.117188 5.238281 17.9375 5.3125 C 17.757812 5.386719 17.585938 5.472656 17.417969 5.570312 C 17.25 5.667969 17.089844 5.773438 16.9375 5.890625 C 16.785156 6.011719 16.636719 6.136719 16.5 6.273438 C 16.363281 6.410156 16.238281 6.558594 16.121094 6.710938 C 16 6.863281 15.894531 7.023438 15.796875 7.191406 L 4.074219 27.523438 C 3.976562 27.691406 3.890625 27.867188 3.816406 28.042969 C 3.742188 28.222656 3.679688 28.40625 3.632812 28.59375 C 3.582031 28.78125 3.542969 28.96875 3.519531 29.164062 C 3.492188 29.355469 3.480469 29.546875 3.480469 29.742188 C 3.480469 29.933594 3.492188 30.128906 3.519531 30.320312 C 3.542969 30.511719 3.582031 30.699219 3.632812 30.886719 C 3.679688 31.074219 3.742188 31.257812 3.816406 31.4375 C 3.890625 31.617188 3.976562 31.789062 4.074219 31.957031 C 4.171875 32.125 4.277344 32.285156 4.394531 32.4375 C 4.511719 32.59375 4.640625 32.738281 4.777344 32.875 C 4.914062 33.011719 5.058594 33.140625 5.210938 33.257812 C 5.367188 33.375 5.527344 33.484375 5.695312 33.578125 C 5.859375 33.675781 6.035156 33.761719 6.214844 33.835938 C 6.390625 33.910156 6.574219 33.972656 6.761719 34.023438 C 6.949219 34.074219 7.136719 34.109375 7.328125 34.136719 C 7.519531 34.160156 7.714844 34.171875 7.90625 34.171875 L 31.351562 34.171875 C 31.546875 34.171875 31.738281 34.160156 31.929688 34.136719 C 32.121094 34.109375 32.3125 34.074219 32.5 34.023438 C 32.683594 33.972656 32.867188 33.910156 33.046875 33.835938 C 33.226562 33.761719 33.398438 33.675781 33.566406 33.578125 C 33.734375 33.480469 33.894531 33.375 34.046875 33.257812 C 34.199219 33.140625 34.34375 33.011719 34.480469 32.875 C 34.617188 32.738281 34.746094 32.59375 34.863281 32.4375 C 34.980469 32.285156 35.089844 32.125 35.183594 31.957031 C 35.28125 31.789062 35.367188 31.617188 35.441406 31.4375 C 35.515625 31.257812 35.578125 31.074219 35.628906 30.886719 C 35.675781 30.699219 35.714844 30.511719 35.742188 30.320312 C 35.765625 30.128906 35.777344 29.933594 35.777344 29.742188 C 35.777344 29.546875 35.765625 29.355469 35.742188 29.164062 C 35.714844 28.96875 35.675781 28.78125 35.628906 28.59375 C 35.578125 28.40625 35.515625 28.222656 35.441406 28.042969 C 35.367188 27.867188 35.28125 27.691406 35.183594 27.523438 Z M 33.820312 31.167969 C 33.578125 31.617188 33.234375 31.972656 32.789062 32.230469 C 32.34375 32.484375 31.867188 32.605469 31.351562 32.589844 L 7.90625 32.589844 C 7.65625 32.589844 7.410156 32.558594 7.167969 32.492188 C 6.929688 32.429688 6.699219 32.335938 6.484375 32.210938 C 6.265625 32.085938 6.070312 31.933594 5.894531 31.757812 C 5.71875 31.578125 5.566406 31.382812 5.441406 31.164062 C 5.316406 30.949219 5.222656 30.71875 5.15625 30.480469 C 5.09375 30.238281 5.058594 29.992188 5.058594 29.742188 C 5.058594 29.492188 5.09375 29.246094 5.15625 29.003906 C 5.222656 28.761719 5.316406 28.53125 5.441406 28.316406 L 17.164062 7.984375 C 17.289062 7.765625 17.441406 7.570312 17.617188 7.394531 C 17.792969 7.214844 17.988281 7.066406 18.207031 6.941406 C 18.421875 6.816406 18.652344 6.722656 18.894531 6.65625 C 19.132812 6.589844 19.378906 6.558594 19.628906 6.558594 C 19.878906 6.558594 20.125 6.589844 20.367188 6.65625 C 20.605469 6.722656 20.835938 6.816406 21.050781 6.941406 C 21.269531 7.066406 21.464844 7.214844 21.640625 7.394531 C 21.820312 7.570312 21.96875 7.765625 22.09375 7.984375 L 33.816406 28.316406 C 34.085938 28.753906 34.222656 29.226562 34.222656 29.742188 C 34.222656 30.253906 34.085938 30.730469 33.816406 31.167969 Z M 20.421875 25.0625 L 20.421875 25.25 C 20.421875 25.46875 20.347656 25.65625 20.191406 25.808594 C 20.039062 25.964844 19.851562 26.042969 19.632812 26.042969 C 19.414062 26.042969 19.230469 25.964844 19.074219 25.808594 C 18.921875 25.65625 18.84375 25.46875 18.84375 25.25 L 18.84375 25.066406 C 18.84375 24.847656 18.921875 24.660156 19.074219 24.503906 C 19.230469 24.351562 19.414062 24.273438 19.632812 24.273438 C 19.851562 24.273438 20.039062 24.351562 20.191406 24.503906 C 20.347656 24.660156 20.421875 24.847656 20.421875 25.066406 Z M 20.421875 13.894531 L 20.421875 22.003906 C 20.421875 22.222656 20.347656 22.410156 20.191406 22.5625 C 20.039062 22.71875 19.851562 22.796875 19.632812 22.796875 C 19.414062 22.796875 19.230469 22.71875 19.074219 22.5625 C 18.921875 22.410156 18.84375 22.222656 18.84375 22.003906 L 18.84375 13.894531 C 18.84375 13.675781 18.921875 13.492188 19.074219 13.335938 C 19.230469 13.183594 19.414062 13.105469 19.632812 13.105469 C 19.851562 13.105469 20.039062 13.183594 20.191406 13.335938 C 20.347656 13.492188 20.421875 13.675781 20.421875 13.894531 Z M 20.421875 13.894531 " fill-opacity="1" fill-rule="nonzero"/></g></svg>