<svg xmlns="http://www.w3.org/2000/svg" xmlns:xlink="http://www.w3.org/1999/xlink" width="52" zoomAndPan="magnify" viewBox="0 0 39 38.999999" height="52" preserveAspectRatio="xMidYMid meet" version="1.0"><defs><clipPath id="fe98f192eb"><path d="M 0 0.925781 L 30 0.925781 L 30 37 L 0 37 Z M 0 0.925781 " clip-rule="nonzero"/></clipPath></defs><g clip-path="url(#fe98f192eb)"><path fill="#000000" d="M 28.742188 36.613281 L 0.449219 36.613281 C 0.207031 36.613281 0.0078125 36.414062 0.0078125 36.167969 L 0.0078125 1.371094 C 0.0078125 1.125 0.207031 0.925781 0.449219 0.925781 L 28.742188 0.925781 C 28.988281 0.925781 29.183594 1.125 29.183594 1.371094 L 29.1875 14.898438 C 29.1875 15.148438 28.988281 15.347656 28.742188 15.347656 C 28.496094 15.347656 28.296875 15.148438 28.296875 14.898438 L 28.296875 1.820312 L 0.894531 1.820312 L 0.894531 35.722656 L 28.296875 35.722656 L 28.296875 30.574219 C 28.296875 30.328125 28.496094 30.128906 28.742188 30.128906 C 28.988281 30.128906 29.183594 30.328125 29.183594 30.574219 L 29.1875 36.167969 C 29.1875 36.414062 28.988281 36.613281 28.742188 36.613281 Z M 28.742188 36.613281 " fill-opacity="1" fill-rule="evenodd"/></g><path fill="#000000" d="M 17.136719 17.414062 Z M 22.4375 15.652344 C 20.554688 15.652344 18.78125 16.390625 17.453125 17.726562 C 16.121094 19.066406 15.386719 20.84375 15.386719 22.738281 C 15.386719 24.628906 16.121094 26.410156 17.453125 27.75 C 18.78125 29.085938 20.554688 29.824219 22.4375 29.824219 C 24.320312 29.824219 26.089844 29.085938 27.421875 27.75 C 28.753906 26.410156 29.488281 24.628906 29.488281 22.738281 C 29.488281 20.84375 28.753906 19.066406 27.421875 17.726562 C 26.089844 16.390625 24.320312 15.652344 22.4375 15.652344 Z M 22.4375 30.714844 C 20.316406 30.714844 18.324219 29.886719 16.824219 28.378906 C 15.324219 26.871094 14.5 24.867188 14.5 22.738281 C 14.5 20.605469 15.324219 18.601562 16.824219 17.097656 C 18.324219 15.589844 20.316406 14.761719 22.4375 14.761719 C 24.558594 14.761719 26.550781 15.589844 28.050781 17.097656 C 29.550781 18.601562 30.375 20.605469 30.375 22.738281 C 30.375 24.867188 29.550781 26.871094 28.050781 28.378906 C 26.550781 29.886719 24.558594 30.714844 22.4375 30.714844 Z M 22.4375 30.714844 " fill-opacity="1" fill-rule="evenodd"/><path fill="#000000" d="M 15.660156 15.929688 C 11.921875 19.683594 11.921875 25.792969 15.660156 29.546875 C 17.527344 31.425781 19.984375 32.363281 22.4375 32.363281 C 24.890625 32.363281 27.347656 31.425781 29.214844 29.546875 C 32.953125 25.792969 32.949219 19.683594 29.214844 15.929688 C 25.476562 12.171875 19.398438 12.171875 15.660156 15.929688 Z M 22.4375 33.257812 C 19.753906 33.257812 17.074219 32.230469 15.03125 30.179688 C 10.949219 26.078125 10.949219 19.398438 15.03125 15.296875 C 19.113281 11.195312 25.757812 11.191406 29.84375 15.296875 C 33.925781 19.398438 33.925781 26.078125 29.84375 30.179688 C 27.800781 32.230469 25.117188 33.257812 22.4375 33.257812 Z M 22.4375 33.257812 " fill-opacity="1" fill-rule="evenodd"/><path fill="#000000" d="M 31.46875 32.261719 C 31.355469 32.261719 31.242188 32.214844 31.15625 32.128906 L 29.214844 30.179688 C 29.039062 30.003906 29.039062 29.722656 29.214844 29.546875 C 29.386719 29.375 29.667969 29.375 29.84375 29.546875 L 31.78125 31.5 C 31.957031 31.671875 31.957031 31.957031 31.78125 32.128906 C 31.695312 32.214844 31.582031 32.261719 31.46875 32.261719 Z M 31.46875 32.261719 " fill-opacity="1" fill-rule="evenodd"/><path fill="#000000" d="M 32.589844 31.796875 C 32.28125 31.796875 31.996094 31.914062 31.78125 32.128906 C 31.339844 32.578125 31.339844 33.300781 31.78125 33.75 L 35.964844 37.949219 C 36.175781 38.164062 36.464844 38.28125 36.769531 38.28125 C 37.074219 38.28125 37.359375 38.164062 37.574219 37.949219 C 38.019531 37.503906 38.019531 36.777344 37.574219 36.332031 L 33.394531 32.128906 C 33.179688 31.914062 32.894531 31.796875 32.589844 31.796875 Z M 36.769531 39.175781 C 36.25 39.175781 35.730469 38.976562 35.335938 38.582031 L 31.15625 34.378906 C 30.363281 33.585938 30.363281 32.292969 31.15625 31.5 C 31.945312 30.703125 33.230469 30.703125 34.023438 31.5 L 38.203125 35.699219 C 38.992188 36.492188 38.992188 37.785156 38.203125 38.582031 C 37.808594 38.976562 37.289062 39.175781 36.769531 39.175781 Z M 36.769531 39.175781 " fill-opacity="1" fill-rule="evenodd"/><path fill="#000000" d="M 21.695312 25.273438 C 21.582031 25.273438 21.46875 25.230469 21.378906 25.140625 L 18.707031 22.457031 C 18.535156 22.28125 18.535156 22 18.707031 21.824219 C 18.882812 21.652344 19.164062 21.652344 19.335938 21.824219 L 21.695312 24.195312 L 25.539062 20.335938 C 25.710938 20.160156 25.992188 20.160156 26.164062 20.335938 C 26.339844 20.507812 26.339844 20.789062 26.164062 20.964844 L 22.007812 25.140625 C 21.921875 25.230469 21.808594 25.273438 21.695312 25.273438 Z M 21.695312 25.273438 " fill-opacity="1" fill-rule="evenodd"/><path fill="#000000" d="M 5.328125 9.042969 L 7.503906 9.042969 L 7.503906 5.691406 L 5.328125 5.691406 Z M 7.945312 9.933594 L 4.882812 9.933594 C 4.640625 9.933594 4.441406 9.734375 4.441406 9.488281 L 4.441406 5.246094 C 4.441406 4.996094 4.640625 4.796875 4.882812 4.796875 L 7.945312 4.796875 C 8.191406 4.796875 8.390625 5 8.390625 5.246094 L 8.390625 9.488281 C 8.390625 9.734375 8.191406 9.933594 7.945312 9.933594 Z M 7.945312 9.933594 " fill-opacity="1" fill-rule="evenodd"/><path fill="#000000" d="M 24.308594 7.8125 L 10.585938 7.8125 C 10.339844 7.8125 10.140625 7.613281 10.140625 7.367188 C 10.140625 7.121094 10.339844 6.921875 10.585938 6.921875 L 24.308594 6.921875 C 24.554688 6.921875 24.753906 7.121094 24.753906 7.367188 C 24.753906 7.613281 24.554688 7.8125 24.308594 7.8125 Z M 24.308594 7.8125 " fill-opacity="1" fill-rule="evenodd"/><path fill="#000000" d="M 5.328125 16.644531 L 7.503906 16.644531 L 7.503906 13.292969 L 5.328125 13.292969 Z M 7.945312 17.535156 L 4.882812 17.535156 C 4.640625 17.535156 4.441406 17.335938 4.441406 17.089844 L 4.441406 12.847656 C 4.441406 12.601562 4.640625 12.402344 4.882812 12.402344 L 7.945312 12.402344 C 8.191406 12.402344 8.390625 12.601562 8.390625 12.847656 L 8.390625 17.089844 C 8.390625 17.335938 8.191406 17.535156 7.945312 17.535156 Z M 7.945312 17.535156 " fill-opacity="1" fill-rule="evenodd"/><path fill="#000000" d="M 16.050781 15.414062 L 10.585938 15.414062 C 10.339844 15.414062 10.140625 15.214844 10.140625 14.96875 C 10.140625 14.722656 10.339844 14.523438 10.585938 14.523438 L 16.050781 14.523438 C 16.292969 14.523438 16.492188 14.722656 16.492188 14.96875 C 16.492188 15.214844 16.292969 15.414062 16.050781 15.414062 Z M 16.050781 15.414062 " fill-opacity="1" fill-rule="evenodd"/><path fill="#000000" d="M 5.328125 24.246094 L 7.503906 24.246094 L 7.503906 20.894531 L 5.328125 20.894531 Z M 7.945312 25.140625 L 4.882812 25.140625 C 4.640625 25.140625 4.441406 24.941406 4.441406 24.691406 L 4.441406 20.449219 C 4.441406 20.203125 4.640625 20.003906 4.882812 20.003906 L 7.945312 20.003906 C 8.191406 20.003906 8.390625 20.203125 8.390625 20.449219 L 8.390625 24.691406 C 8.390625 24.941406 8.191406 25.140625 7.945312 25.140625 Z M 7.945312 25.140625 " fill-opacity="1" fill-rule="evenodd"/><path fill="#000000" d="M 12.410156 23.019531 L 10.585938 23.019531 C 10.339844 23.019531 10.140625 22.816406 10.140625 22.570312 C 10.140625 22.324219 10.339844 22.125 10.585938 22.125 L 12.410156 22.125 C 12.65625 22.125 12.855469 22.324219 12.855469 22.570312 C 12.855469 22.816406 12.65625 23.019531 12.410156 23.019531 Z M 12.410156 23.019531 " fill-opacity="1" fill-rule="evenodd"/><path fill="#000000" d="M 5.328125 31.847656 L 7.503906 31.847656 L 7.503906 28.5 L 5.328125 28.5 Z M 7.945312 32.742188 L 4.882812 32.742188 C 4.640625 32.742188 4.441406 32.542969 4.441406 32.296875 L 4.441406 28.050781 C 4.441406 27.804688 4.640625 27.605469 4.882812 27.605469 L 7.945312 27.605469 C 8.191406 27.605469 8.390625 27.804688 8.390625 28.050781 L 8.390625 32.296875 C 8.390625 32.542969 8.191406 32.742188 7.945312 32.742188 Z M 7.945312 32.742188 " fill-opacity="1" fill-rule="evenodd"/><path fill="#000000" d="M 15.667969 30.621094 L 10.585938 30.621094 C 10.339844 30.621094 10.140625 30.421875 10.140625 30.171875 C 10.140625 29.925781 10.339844 29.726562 10.585938 29.726562 L 15.667969 29.726562 C 15.914062 29.726562 16.113281 29.925781 16.113281 30.171875 C 16.113281 30.421875 15.914062 30.621094 15.667969 30.621094 Z M 15.667969 30.621094 " fill-opacity="1" fill-rule="evenodd"/></svg>