<svg xmlns="http://www.w3.org/2000/svg" xmlns:xlink="http://www.w3.org/1999/xlink" width="52" zoomAndPan="magnify" viewBox="0 0 39 38.999999" height="52" preserveAspectRatio="xMidYMid meet" version="1.0"><path fill="#000000" d="M 34.800781 0 L 4.199219 0 C 1.882812 0 0 1.882812 0 4.199219 L 0 28.683594 C 0 31 1.882812 32.882812 4.199219 32.882812 L 15.675781 32.882812 L 15.675781 34.410156 L 14.910156 34.410156 C 12.804688 34.410156 11.089844 36.128906 11.089844 38.234375 C 11.089844 38.65625 11.429688 39 11.851562 39 L 27.148438 39 C 27.570312 39 27.910156 38.65625 27.910156 38.234375 C 27.910156 36.128906 26.195312 34.410156 24.089844 34.410156 L 23.324219 34.410156 L 23.324219 32.882812 L 34.800781 32.882812 C 37.117188 32.882812 39 31 39 28.683594 L 39 4.199219 C 39 1.882812 37.117188 0 34.800781 0 Z M 4.199219 1.53125 L 34.800781 1.53125 C 36.273438 1.53125 37.46875 2.726562 37.46875 4.199219 L 37.46875 25.234375 L 1.53125 25.234375 L 1.53125 4.199219 C 1.53125 2.726562 2.726562 1.53125 4.199219 1.53125 Z M 26.25 37.46875 L 12.75 37.46875 C 13.0625 36.582031 13.914062 35.941406 14.910156 35.941406 L 24.089844 35.941406 C 25.085938 35.941406 25.9375 36.582031 26.25 37.46875 Z M 21.792969 34.410156 L 17.207031 34.410156 L 17.207031 32.882812 L 21.792969 32.882812 Z M 34.800781 31.351562 L 4.199219 31.351562 C 2.726562 31.351562 1.53125 30.15625 1.53125 28.683594 L 1.53125 26.765625 L 37.46875 26.765625 L 37.46875 28.683594 C 37.46875 30.15625 36.273438 31.351562 34.800781 31.351562 Z M 34.800781 31.351562 " fill-opacity="1" fill-rule="nonzero"/><path fill="#000000" d="M 11.089844 12.234375 C 12.46875 12.234375 13.550781 11.015625 13.359375 9.628906 L 15.71875 7.097656 C 16.453125 7.726562 17.472656 7.8125 18.285156 7.375 L 21.046875 9.675781 C 20.886719 11.046875 21.964844 12.234375 23.324219 12.234375 C 24.589844 12.234375 25.617188 11.207031 25.617188 9.941406 L 28.171875 8.792969 C 28.535156 9.035156 28.972656 9.175781 29.441406 9.175781 C 30.707031 9.175781 31.734375 8.148438 31.734375 6.882812 C 31.734375 5.617188 30.707031 4.589844 29.441406 4.589844 C 27.917969 4.589844 26.804688 6.0625 27.242188 7.535156 L 25.101562 8.496094 C 24.261719 7.464844 22.726562 7.355469 21.75 8.273438 L 19.320312 6.246094 C 19.960938 4.738281 18.84375 3.058594 17.207031 3.058594 C 15.816406 3.058594 14.730469 4.296875 14.9375 5.691406 L 12.589844 8.210938 C 12.1875 7.859375 11.664062 7.648438 11.089844 7.648438 C 9.824219 7.648438 8.792969 8.675781 8.792969 9.941406 C 8.792969 11.207031 9.824219 12.234375 11.089844 12.234375 Z M 29.441406 6.117188 C 29.863281 6.117188 30.207031 6.460938 30.207031 6.882812 C 30.207031 7.304688 29.863281 7.648438 29.441406 7.648438 C 29.019531 7.648438 28.675781 7.304688 28.675781 6.882812 C 28.675781 6.460938 29.019531 6.117188 29.441406 6.117188 Z M 23.324219 9.175781 C 23.746094 9.175781 24.089844 9.519531 24.089844 9.941406 C 24.089844 10.363281 23.746094 10.707031 23.324219 10.707031 C 22.902344 10.707031 22.558594 10.363281 22.558594 9.941406 C 22.558594 9.519531 22.902344 9.175781 23.324219 9.175781 Z M 17.207031 4.589844 C 17.628906 4.589844 17.96875 4.929688 17.96875 5.351562 C 17.96875 5.773438 17.628906 6.117188 17.207031 6.117188 C 16.785156 6.117188 16.441406 5.773438 16.441406 5.351562 C 16.441406 4.929688 16.785156 4.589844 17.207031 4.589844 Z M 11.089844 9.175781 C 11.511719 9.175781 11.851562 9.519531 11.851562 9.941406 C 11.851562 10.363281 11.511719 10.707031 11.089844 10.707031 C 10.667969 10.707031 10.324219 10.363281 10.324219 9.941406 C 10.324219 9.519531 10.667969 9.175781 11.089844 9.175781 Z M 11.089844 9.175781 " fill-opacity="1" fill-rule="nonzero"/><path fill="#000000" d="M 6.5 23.707031 C 6.738281 23.707031 31.882812 23.707031 32.5 23.707031 C 32.921875 23.707031 33.265625 23.363281 33.265625 22.941406 C 33.265625 22.519531 32.921875 22.175781 32.5 22.175781 L 31.734375 22.175781 L 31.734375 11.46875 C 31.734375 11.046875 31.394531 10.707031 30.96875 10.707031 L 27.910156 10.707031 C 27.488281 10.707031 27.148438 11.046875 27.148438 11.46875 L 27.148438 22.175781 L 25.617188 22.175781 L 25.617188 16.058594 C 25.617188 15.636719 25.273438 15.292969 24.851562 15.292969 L 21.792969 15.292969 C 21.371094 15.292969 21.03125 15.636719 21.03125 16.058594 L 21.03125 22.175781 L 19.5 22.175781 L 19.5 11.46875 C 19.5 11.046875 19.15625 10.707031 18.734375 10.707031 L 15.675781 10.707031 C 15.253906 10.707031 14.910156 11.046875 14.910156 11.46875 L 14.910156 22.175781 L 13.382812 22.175781 L 13.382812 15.292969 C 13.382812 14.871094 13.039062 14.53125 12.617188 14.53125 L 9.558594 14.53125 C 9.136719 14.53125 8.792969 14.871094 8.792969 15.292969 L 8.792969 22.175781 L 6.5 22.175781 C 6.078125 22.175781 5.734375 22.519531 5.734375 22.941406 C 5.734375 23.363281 6.078125 23.707031 6.5 23.707031 Z M 28.675781 12.234375 L 30.207031 12.234375 L 30.207031 22.175781 L 28.675781 22.175781 Z M 22.558594 16.824219 L 24.089844 16.824219 L 24.089844 22.175781 L 22.558594 22.175781 Z M 16.441406 12.234375 L 17.96875 12.234375 L 17.96875 22.175781 L 16.441406 22.175781 Z M 10.324219 16.058594 L 11.851562 16.058594 L 11.851562 22.175781 L 10.324219 22.175781 Z M 10.324219 16.058594 " fill-opacity="1" fill-rule="nonzero"/><path fill="#000000" d="M 35.941406 29.058594 C 35.941406 29.269531 35.867188 29.449219 35.71875 29.597656 C 35.566406 29.75 35.386719 29.824219 35.175781 29.824219 C 34.964844 29.824219 34.785156 29.75 34.636719 29.597656 C 34.488281 29.449219 34.410156 29.269531 34.410156 29.058594 C 34.410156 28.847656 34.488281 28.667969 34.636719 28.519531 C 34.785156 28.367188 34.964844 28.292969 35.175781 28.292969 C 35.386719 28.292969 35.566406 28.367188 35.71875 28.519531 C 35.867188 28.667969 35.941406 28.847656 35.941406 29.058594 Z M 35.941406 29.058594 " fill-opacity="1" fill-rule="nonzero"/><path fill="#000000" d="M 32.117188 28.292969 L 30.589844 28.292969 C 30.164062 28.292969 29.824219 28.636719 29.824219 29.058594 C 29.824219 29.480469 30.164062 29.824219 30.589844 29.824219 L 32.117188 29.824219 C 32.539062 29.824219 32.882812 29.480469 32.882812 29.058594 C 32.882812 28.636719 32.539062 28.292969 32.117188 28.292969 Z M 32.117188 28.292969 " fill-opacity="1" fill-rule="nonzero"/><path fill="#000000" d="M 27.53125 28.292969 L 26 28.292969 C 25.578125 28.292969 25.234375 28.636719 25.234375 29.058594 C 25.234375 29.480469 25.578125 29.824219 26 29.824219 L 27.53125 29.824219 C 27.953125 29.824219 28.292969 29.480469 28.292969 29.058594 C 28.292969 28.636719 27.953125 28.292969 27.53125 28.292969 Z M 27.53125 28.292969 " fill-opacity="1" fill-rule="nonzero"/></svg>