<svg xmlns="http://www.w3.org/2000/svg" xmlns:xlink="http://www.w3.org/1999/xlink" width="52" zoomAndPan="magnify" viewBox="0 0 39 38.999999" height="52" preserveAspectRatio="xMidYMid meet" version="1.0"><defs><clipPath id="7fc8449c72"><path d="M 0 0 L 38.25 0 L 38.25 39 L 0 39 Z M 0 0 " clip-rule="nonzero"/></clipPath></defs><g clip-path="url(#7fc8449c72)"><path fill="#000000" d="M 21.050781 29.113281 L 19.613281 29.113281 C 19.289062 29.113281 19.027344 29.375 19.027344 29.703125 L 19.027344 33.039062 C 18.074219 32.988281 17.140625 32.808594 16.238281 32.511719 C 13.175781 31.5 10.675781 29.105469 9.53125 26.082031 C 9.585938 25.675781 9.691406 25.625 9.75 25.601562 C 9.769531 25.589844 9.792969 25.582031 9.816406 25.566406 L 11.316406 26.433594 C 12.570312 27.160156 14.082031 26 13.707031 24.59375 C 13.597656 24.167969 13.324219 23.816406 12.953125 23.605469 L 8.878906 21.195312 C 9.007812 19.839844 9.378906 18.550781 9.992188 17.347656 L 12.371094 18.726562 L 11.945312 19.460938 C 11.300781 20.578125 11.683594 22.015625 12.800781 22.667969 C 13.921875 23.316406 15.355469 22.929688 16 21.808594 L 16.425781 21.070312 L 19.027344 22.578125 L 19.027344 26.183594 C 19.027344 26.503906 19.289062 26.773438 19.613281 26.773438 L 21.050781 26.773438 C 21.695312 26.773438 22.21875 27.296875 22.21875 27.941406 C 22.21875 28.585938 21.695312 29.113281 21.050781 29.113281 Z M 13.757812 33.289062 C 13.984375 33.417969 14.652344 33.414062 15.023438 33.316406 C 11.96875 32.035156 9.523438 29.488281 8.378906 26.359375 C 8.351562 26.277344 8.339844 26.191406 8.347656 26.101562 C 8.445312 25.042969 8.882812 24.710938 9.253906 24.535156 C 9.261719 24.53125 9.269531 24.527344 9.277344 24.527344 C 9.613281 24.328125 10.015625 24.328125 10.355469 24.519531 L 11.902344 25.417969 C 12.121094 25.546875 12.402344 25.46875 12.53125 25.25 C 12.65625 25.03125 12.585938 24.75 12.363281 24.621094 L 6.457031 21.128906 L 4.222656 25.011719 L 5.15625 25.550781 C 5.546875 25.773438 5.847656 26.050781 6.109375 26.417969 C 8.6875 30.046875 10.054688 31.144531 13.757812 33.289062 Z M 2.765625 25.183594 L 1.367188 24.371094 L 4.460938 19 L 5.859375 19.8125 Z M 5.921875 19.707031 L 5.917969 19.707031 C 5.917969 19.707031 5.917969 19.707031 5.921875 19.707031 Z M 21.050781 25.589844 L 20.203125 25.589844 L 20.203125 22.242188 C 20.203125 22.027344 20.089844 21.835938 19.90625 21.730469 L 16.503906 19.757812 C 16.222656 19.597656 15.863281 19.691406 15.703125 19.976562 L 14.984375 21.21875 C 14.464844 22.121094 13.117188 21.949219 12.847656 20.9375 C 12.765625 20.632812 12.804688 20.316406 12.960938 20.050781 L 13.679688 18.800781 C 13.839844 18.523438 13.746094 18.160156 13.464844 17.996094 L 10.058594 16.027344 C 9.777344 15.867188 9.417969 15.960938 9.257812 16.242188 C 8.484375 17.582031 7.988281 19.023438 7.773438 20.539062 L 7.023438 20.097656 C 7.179688 19.632812 6.988281 19.109375 6.550781 18.851562 L 4.945312 17.921875 C 4.441406 17.628906 3.792969 17.804688 3.503906 18.308594 L 0.289062 23.886719 C 0 24.398438 0.175781 25.042969 0.675781 25.332031 L 2.28125 26.261719 C 2.730469 26.519531 3.289062 26.417969 3.621094 26.023438 L 4.570312 26.566406 C 4.8125 26.710938 4.988281 26.871094 5.152344 27.105469 C 7.839844 30.886719 9.355469 32.101562 13.171875 34.308594 C 13.917969 34.738281 15.671875 34.667969 16.203125 33.886719 C 16.230469 33.84375 16.257812 33.800781 16.285156 33.761719 C 17.363281 34.074219 18.480469 34.230469 19.613281 34.230469 C 19.9375 34.230469 20.203125 33.96875 20.203125 33.640625 L 20.203125 30.285156 L 21.050781 30.285156 C 22.339844 30.285156 23.390625 29.234375 23.390625 27.941406 C 23.390625 26.644531 22.339844 25.589844 21.050781 25.589844 Z M 15.601562 10.230469 C 14.894531 10.863281 14.273438 11.585938 13.753906 12.390625 L 16.636719 14.0625 C 16.917969 14.222656 17.011719 14.585938 16.851562 14.863281 L 16.132812 16.109375 C 15.8125 16.667969 16.003906 17.386719 16.5625 17.710938 C 17.117188 18.03125 17.835938 17.839844 18.15625 17.277344 L 18.875 16.035156 C 19.035156 15.75 19.394531 15.65625 19.675781 15.820312 L 22.789062 17.621094 L 25.390625 16.113281 L 24.96875 15.375 C 24.320312 14.253906 24.707031 12.816406 25.824219 12.167969 C 26.929688 11.527344 28.371094 11.902344 29.023438 13.03125 L 29.445312 13.761719 L 31.824219 12.390625 C 31.089844 11.253906 30.160156 10.289062 29.058594 9.5 L 24.941406 11.835938 C 24.152344 12.28125 23.167969 12.019531 22.714844 11.230469 C 22.261719 10.449219 22.535156 9.445312 23.3125 8.996094 L 24.8125 8.125 C 24.8125 8.097656 24.816406 8.070312 24.816406 8.050781 C 24.820312 7.988281 24.832031 7.867188 24.511719 7.621094 C 21.445312 7.125 18.253906 8.007812 15.875 9.996094 Z M 16.171875 7.691406 C 19.875 5.542969 21.507812 4.90625 25.929688 4.476562 C 26.378906 4.4375 26.765625 4.316406 27.15625 4.085938 L 28.089844 3.546875 L 30.324219 7.429688 L 24.359375 10.8125 C 24.140625 10.9375 23.855469 10.863281 23.730469 10.644531 C 23.601562 10.421875 23.679688 10.140625 23.898438 10.011719 L 25.445312 9.117188 C 25.785156 8.921875 25.984375 8.574219 25.984375 8.179688 C 25.984375 8.171875 25.984375 8.160156 25.984375 8.15625 C 26.019531 7.746094 25.949219 7.195312 25.082031 6.582031 C 25.011719 6.53125 24.929688 6.5 24.84375 6.480469 C 21.570312 5.910156 18.148438 6.765625 15.519531 8.777344 C 15.617188 8.398438 15.949219 7.820312 16.171875 7.691406 Z M 30.070312 1.386719 L 33.164062 6.757812 L 31.761719 7.570312 L 28.667969 2.199219 Z M 12.644531 13.109375 L 15.542969 14.785156 L 15.117188 15.523438 C 14.207031 17.109375 15.382812 19.042969 17.140625 19.042969 C 17.972656 19.042969 18.753906 18.59375 19.171875 17.867188 L 19.597656 17.132812 L 22.496094 18.808594 C 22.675781 18.914062 22.898438 18.914062 23.082031 18.808594 L 26.484375 16.835938 C 26.765625 16.671875 26.863281 16.316406 26.699219 16.035156 L 25.984375 14.789062 C 25.660156 14.230469 25.851562 13.511719 26.410156 13.1875 C 26.96875 12.867188 27.683594 13.058594 28.007812 13.613281 L 28.722656 14.863281 C 28.886719 15.148438 29.242188 15.242188 29.523438 15.078125 L 32.929688 13.105469 C 33.210938 12.945312 33.308594 12.582031 33.144531 12.300781 C 32.375 10.960938 31.378906 9.8125 30.171875 8.867188 L 30.933594 8.433594 C 31.269531 8.8125 31.804688 8.898438 32.246094 8.648438 L 33.851562 7.71875 C 34.355469 7.429688 34.527344 6.777344 34.238281 6.273438 L 31.027344 0.695312 C 30.734375 0.191406 30.089844 0.015625 29.585938 0.304688 L 27.980469 1.234375 C 27.527344 1.5 27.34375 2.042969 27.519531 2.519531 L 26.570312 3.070312 C 26.324219 3.210938 26.101562 3.285156 25.816406 3.308594 C 21.207031 3.75 19.402344 4.464844 15.585938 6.667969 C 14.859375 7.089844 14.015625 8.652344 14.4375 9.515625 C 14.457031 9.558594 14.480469 9.605469 14.5 9.648438 C 13.695312 10.425781 13 11.320312 12.429688 12.304688 C 12.269531 12.582031 12.363281 12.945312 12.644531 13.109375 Z M 35.570312 37.804688 L 29.382812 37.804688 L 29.382812 36.1875 L 35.570312 36.1875 Z M 25.191406 33.824219 L 25.191406 31.074219 L 26.039062 31.074219 C 27.328125 31.074219 28.378906 30.019531 28.378906 28.726562 C 28.378906 27.429688 27.328125 26.378906 26.039062 26.378906 L 25.191406 26.378906 L 25.191406 23.367188 L 28.300781 21.5625 C 28.585938 21.402344 28.675781 21.035156 28.515625 20.757812 L 27.796875 19.515625 C 27.289062 18.632812 28.089844 17.523438 29.113281 17.796875 C 29.414062 17.878906 29.667969 18.070312 29.820312 18.34375 L 30.539062 19.589844 C 30.699219 19.871094 31.058594 19.964844 31.339844 19.800781 L 34.222656 18.136719 C 34.675781 19.023438 34.996094 19.960938 35.1875 20.9375 C 35.800781 24.066406 34.976562 27.386719 32.964844 29.859375 C 32.589844 30.015625 32.492188 29.949219 32.4375 29.910156 C 32.421875 29.898438 32.402344 29.882812 32.378906 29.871094 L 32.378906 28.132812 C 32.378906 27.226562 31.644531 26.492188 30.742188 26.492188 C 29.84375 26.492188 29.113281 27.226562 29.113281 28.128906 L 29.070312 32.867188 C 27.835938 33.433594 26.535156 33.757812 25.191406 33.824219 Z M 36.464844 21.476562 C 36.886719 24.765625 35.910156 28.164062 33.777344 30.71875 C 33.722656 30.785156 33.652344 30.839844 33.574219 30.875 C 32.609375 31.324219 32.101562 31.109375 31.765625 30.875 C 31.757812 30.867188 31.75 30.863281 31.746094 30.863281 C 31.40625 30.664062 31.203125 30.316406 31.203125 29.925781 L 31.203125 28.136719 C 31.203125 27.878906 30.996094 27.671875 30.742188 27.671875 C 30.492188 27.671875 30.285156 27.878906 30.285156 28.136719 L 30.222656 35.003906 L 34.691406 35.003906 L 34.691406 33.925781 C 34.691406 33.472656 34.78125 33.074219 34.964844 32.660156 C 36.8125 28.609375 37.074219 26.871094 37.074219 22.582031 C 37.074219 22.324219 36.738281 21.746094 36.464844 21.476562 Z M 35.867188 35.027344 C 36.363281 35.109375 36.746094 35.542969 36.746094 36.066406 L 36.746094 37.925781 C 36.746094 38.503906 36.269531 38.980469 35.691406 38.980469 L 29.265625 38.980469 C 28.683594 38.980469 28.210938 38.503906 28.210938 37.925781 L 28.210938 36.066406 C 28.210938 35.554688 28.570312 35.128906 29.050781 35.03125 L 29.058594 34.152344 C 27.644531 34.726562 26.152344 35.019531 24.613281 35.019531 C 24.28125 35.019531 24.015625 34.757812 24.015625 34.429688 L 24.015625 30.484375 C 24.015625 30.164062 24.277344 29.898438 24.605469 29.898438 L 26.039062 29.898438 C 26.683594 29.898438 27.207031 29.375 27.207031 28.726562 C 27.207031 28.082031 26.683594 27.554688 26.039062 27.554688 L 24.605469 27.554688 C 24.277344 27.554688 24.015625 27.292969 24.015625 26.964844 L 24.015625 23.023438 C 24.015625 22.816406 24.128906 22.621094 24.308594 22.511719 L 27.207031 20.835938 L 26.78125 20.097656 C 26.136719 18.980469 26.519531 17.542969 27.640625 16.894531 C 28.757812 16.25 30.191406 16.632812 30.835938 17.753906 L 31.261719 18.492188 L 34.160156 16.8125 C 34.4375 16.648438 34.796875 16.746094 34.960938 17.03125 C 35.527344 18.011719 35.949219 19.0625 36.21875 20.152344 C 36.265625 20.15625 36.316406 20.164062 36.367188 20.164062 C 37.316406 20.234375 38.246094 21.746094 38.246094 22.582031 C 38.246094 27.003906 37.957031 28.925781 36.035156 33.152344 C 35.917969 33.410156 35.867188 33.640625 35.867188 33.925781 Z M 35.867188 35.027344 " fill-opacity="1" fill-rule="evenodd"/></g></svg>