<svg xmlns="http://www.w3.org/2000/svg" xmlns:xlink="http://www.w3.org/1999/xlink" width="52" zoomAndPan="magnify" viewBox="0 0 39 38.999999" height="52" preserveAspectRatio="xMidYMid meet" version="1.0"><defs><clipPath id="b626f9c774"><path d="M 1.335938 0 L 30 0 L 30 35 L 1.335938 35 Z M 1.335938 0 " clip-rule="nonzero"/></clipPath><clipPath id="8e7981ab21"><path d="M 20 9 L 37.335938 9 L 37.335938 39 L 20 39 Z M 20 9 " clip-rule="nonzero"/></clipPath></defs><g clip-path="url(#b626f9c774)"><path fill="#000000" d="M 25.019531 33.023438 L 2.753906 33.023438 L 2.753906 1.4375 L 28.273438 1.4375 L 28.273438 8.742188 C 28.273438 9.140625 28.589844 9.457031 28.980469 9.457031 C 29.371094 9.457031 29.6875 9.140625 29.6875 8.742188 L 29.6875 0.722656 C 29.6875 0.324219 29.371094 0.00390625 28.980469 0.00390625 L 2.042969 0.00390625 C 1.652344 0.00390625 1.335938 0.324219 1.335938 0.722656 L 1.335938 33.738281 C 1.335938 34.132812 1.652344 34.453125 2.042969 34.453125 L 25.019531 34.453125 C 25.410156 34.453125 25.726562 34.132812 25.726562 33.738281 C 25.726562 33.34375 25.410156 33.023438 25.019531 33.023438 Z M 25.019531 33.023438 " fill-opacity="1" fill-rule="nonzero"/></g><path fill="#000000" d="M 11.957031 5.621094 C 11.957031 5.226562 11.640625 4.90625 11.246094 4.90625 L 6.890625 4.90625 C 6.5 4.90625 6.183594 5.226562 6.183594 5.621094 L 6.183594 10.015625 C 6.183594 10.410156 6.5 10.730469 6.890625 10.730469 L 11.246094 10.730469 C 11.640625 10.730469 11.957031 10.410156 11.957031 10.015625 Z M 10.539062 9.300781 L 7.597656 9.300781 L 7.597656 6.335938 L 10.539062 6.335938 Z M 10.539062 9.300781 " fill-opacity="1" fill-rule="nonzero"/><path fill="#000000" d="M 24.84375 6.613281 C 24.84375 6.21875 24.527344 5.898438 24.132812 5.898438 L 13.949219 5.898438 C 13.554688 5.898438 13.238281 6.21875 13.238281 6.613281 C 13.238281 7.007812 13.554688 7.328125 13.949219 7.328125 L 24.132812 7.328125 C 24.527344 7.328125 24.84375 7.007812 24.84375 6.613281 Z M 24.84375 6.613281 " fill-opacity="1" fill-rule="nonzero"/><path fill="#000000" d="M 13.949219 10.050781 L 19.039062 10.050781 C 19.433594 10.050781 19.75 9.730469 19.75 9.335938 C 19.75 8.941406 19.433594 8.621094 19.039062 8.621094 L 13.949219 8.621094 C 13.554688 8.621094 13.238281 8.941406 13.238281 9.335938 C 13.238281 9.730469 13.554688 10.050781 13.949219 10.050781 Z M 13.949219 10.050781 " fill-opacity="1" fill-rule="nonzero"/><path fill="#000000" d="M 11.957031 15.03125 C 11.957031 14.636719 11.640625 14.316406 11.246094 14.316406 L 6.890625 14.316406 C 6.5 14.316406 6.183594 14.636719 6.183594 15.03125 L 6.183594 19.425781 C 6.183594 19.820312 6.5 20.140625 6.890625 20.140625 L 11.246094 20.140625 C 11.640625 20.140625 11.957031 19.820312 11.957031 19.425781 Z M 10.539062 18.710938 L 7.597656 18.710938 L 7.597656 15.746094 L 10.539062 15.746094 Z M 10.539062 18.710938 " fill-opacity="1" fill-rule="nonzero"/><path fill="#000000" d="M 19.574219 15.308594 L 13.949219 15.308594 C 13.554688 15.308594 13.238281 15.625 13.238281 16.023438 C 13.238281 16.417969 13.554688 16.738281 13.949219 16.738281 L 19.574219 16.738281 C 19.964844 16.738281 20.28125 16.417969 20.28125 16.023438 C 20.28125 15.625 19.964844 15.308594 19.574219 15.308594 Z M 19.574219 15.308594 " fill-opacity="1" fill-rule="nonzero"/><path fill="#000000" d="M 13.949219 19.460938 L 19.039062 19.460938 C 19.433594 19.460938 19.75 19.140625 19.75 18.746094 C 19.75 18.351562 19.433594 18.03125 19.039062 18.03125 L 13.949219 18.03125 C 13.554688 18.03125 13.238281 18.351562 13.238281 18.746094 C 13.238281 19.140625 13.554688 19.460938 13.949219 19.460938 Z M 13.949219 19.460938 " fill-opacity="1" fill-rule="nonzero"/><path fill="#000000" d="M 11.246094 23.726562 L 6.890625 23.726562 C 6.5 23.726562 6.183594 24.046875 6.183594 24.441406 L 6.183594 28.835938 C 6.183594 29.230469 6.5 29.550781 6.890625 29.550781 L 11.246094 29.550781 C 11.640625 29.550781 11.957031 29.230469 11.957031 28.835938 L 11.957031 24.441406 C 11.957031 24.046875 11.640625 23.726562 11.246094 23.726562 Z M 10.539062 28.121094 L 7.597656 28.121094 L 7.597656 25.15625 L 10.539062 25.15625 Z M 10.539062 28.121094 " fill-opacity="1" fill-rule="nonzero"/><path fill="#000000" d="M 23.414062 25.429688 C 23.414062 25.035156 23.09375 24.714844 22.703125 24.714844 L 13.949219 24.714844 C 13.554688 24.714844 13.238281 25.035156 13.238281 25.429688 C 13.238281 25.824219 13.554688 26.144531 13.949219 26.144531 L 22.703125 26.144531 C 23.09375 26.144531 23.414062 25.824219 23.414062 25.429688 Z M 23.414062 25.429688 " fill-opacity="1" fill-rule="nonzero"/><path fill="#000000" d="M 13.617188 28.640625 C 13.226562 28.640625 12.90625 28.960938 12.90625 29.355469 C 12.90625 29.75 13.226562 30.070312 13.617188 30.070312 L 18.710938 30.070312 C 19.101562 30.070312 19.417969 29.75 19.417969 29.355469 C 19.417969 28.960938 19.101562 28.640625 18.710938 28.640625 Z M 13.617188 28.640625 " fill-opacity="1" fill-rule="nonzero"/><g clip-path="url(#8e7981ab21)"><path fill="#000000" d="M 36.679688 15.035156 C 36.257812 14.03125 35.65625 13.128906 34.890625 12.355469 C 34.121094 11.582031 33.226562 10.976562 32.234375 10.550781 C 31.203125 10.109375 30.109375 9.886719 28.980469 9.886719 C 27.851562 9.886719 26.757812 10.109375 25.726562 10.550781 C 24.734375 10.976562 23.839844 11.582031 23.070312 12.355469 C 22.304688 13.128906 21.703125 14.03125 21.28125 15.035156 C 20.84375 16.074219 20.625 17.179688 20.625 18.316406 C 20.625 19.453125 20.84375 20.558594 21.28125 21.597656 C 21.703125 22.601562 22.304688 23.503906 23.070312 24.277344 C 23.839844 25.050781 24.734375 25.660156 25.726562 26.082031 C 26.199219 26.285156 26.679688 26.4375 27.175781 26.550781 L 27.175781 27.8125 C 26.640625 27.976562 26.25 28.476562 26.25 29.066406 L 26.25 36.238281 C 26.25 37.757812 27.472656 38.992188 28.980469 38.992188 C 30.488281 38.992188 31.710938 37.757812 31.710938 36.238281 L 31.710938 29.066406 C 31.710938 28.476562 31.320312 27.976562 30.785156 27.8125 L 30.785156 26.550781 C 31.28125 26.4375 31.761719 26.285156 32.234375 26.082031 C 33.226562 25.660156 34.121094 25.050781 34.890625 24.277344 C 35.65625 23.503906 36.257812 22.601562 36.679688 21.597656 C 37.113281 20.558594 37.335938 19.453125 37.335938 18.316406 C 37.335938 17.179688 37.113281 16.074219 36.679688 15.035156 Z M 29.367188 27.757812 L 28.589844 27.757812 L 28.589844 26.773438 L 28.953125 26.789062 C 28.972656 26.789062 28.988281 26.789062 29.007812 26.789062 L 29.367188 26.773438 Z M 30.292969 36.238281 C 30.292969 36.96875 29.703125 37.5625 28.980469 37.5625 C 28.257812 37.5625 27.667969 36.96875 27.667969 36.238281 L 27.667969 29.1875 L 30.292969 29.1875 Z M 33.886719 23.265625 C 32.574219 24.589844 30.832031 25.316406 28.980469 25.316406 C 27.128906 25.316406 25.382812 24.589844 24.074219 23.265625 C 22.765625 21.945312 22.042969 20.1875 22.042969 18.316406 C 22.042969 16.445312 22.765625 14.691406 24.074219 13.367188 C 25.382812 12.046875 27.128906 11.316406 28.980469 11.316406 C 30.832031 11.316406 32.574219 12.046875 33.886719 13.367188 C 35.195312 14.691406 35.917969 16.445312 35.917969 18.316406 C 35.917969 20.1875 35.195312 21.945312 33.886719 23.265625 Z M 33.886719 23.265625 " fill-opacity="1" fill-rule="nonzero"/></g><path fill="#000000" d="M 31.707031 15.753906 L 27.28125 20.21875 L 25.519531 18.441406 C 25.242188 18.160156 24.792969 18.160156 24.515625 18.441406 C 24.242188 18.71875 24.242188 19.171875 24.515625 19.453125 L 26.78125 21.734375 C 26.917969 21.875 27.097656 21.941406 27.28125 21.941406 C 27.460938 21.941406 27.644531 21.875 27.78125 21.734375 L 32.707031 16.765625 C 32.984375 16.484375 32.984375 16.03125 32.707031 15.753906 C 32.429688 15.472656 31.984375 15.472656 31.707031 15.753906 Z M 31.707031 15.753906 " fill-opacity="1" fill-rule="nonzero"/></svg>