<svg xmlns="http://www.w3.org/2000/svg" xmlns:xlink="http://www.w3.org/1999/xlink" width="52" zoomAndPan="magnify" viewBox="0 0 39 38.999999" height="52" preserveAspectRatio="xMidYMid meet" version="1.0"><path fill="#000000" d="M 16.902344 7.804688 C 16.902344 7.984375 16.839844 8.136719 16.710938 8.261719 C 16.585938 8.390625 16.429688 8.453125 16.253906 8.453125 C 16.074219 8.453125 15.917969 8.390625 15.792969 8.261719 C 15.664062 8.136719 15.601562 7.984375 15.601562 7.804688 C 15.601562 7.625 15.664062 7.472656 15.792969 7.34375 C 15.917969 7.21875 16.074219 7.152344 16.253906 7.152344 C 16.429688 7.152344 16.585938 7.21875 16.710938 7.34375 C 16.839844 7.472656 16.902344 7.625 16.902344 7.804688 Z M 16.902344 7.804688 " fill-opacity="1" fill-rule="nonzero"/><path fill="#000000" d="M 8.875 8.421875 L 13.652344 8.421875 C 13.832031 8.421875 13.984375 8.359375 14.113281 8.234375 C 14.238281 8.105469 14.304688 7.953125 14.304688 7.773438 C 14.304688 7.59375 14.238281 7.441406 14.113281 7.316406 C 13.984375 7.1875 13.832031 7.125 13.652344 7.125 L 8.875 7.125 C 8.695312 7.125 8.542969 7.1875 8.414062 7.316406 C 8.289062 7.441406 8.226562 7.59375 8.226562 7.773438 C 8.226562 7.953125 8.289062 8.105469 8.414062 8.234375 C 8.542969 8.359375 8.695312 8.421875 8.875 8.421875 Z M 8.875 8.421875 " fill-opacity="1" fill-rule="nonzero"/><path fill="#000000" d="M 16.253906 9.621094 L 8.875 9.621094 C 8.695312 9.621094 8.542969 9.683594 8.414062 9.8125 C 8.289062 9.9375 8.226562 10.09375 8.226562 10.273438 C 8.226562 10.449219 8.289062 10.605469 8.414062 10.730469 C 8.542969 10.859375 8.695312 10.921875 8.875 10.921875 L 16.253906 10.921875 C 16.429688 10.921875 16.585938 10.859375 16.710938 10.730469 C 16.839844 10.605469 16.902344 10.449219 16.902344 10.273438 C 16.902344 10.09375 16.839844 9.9375 16.710938 9.8125 C 16.585938 9.683594 16.429688 9.621094 16.253906 9.621094 Z M 16.253906 9.621094 " fill-opacity="1" fill-rule="nonzero"/><path fill="#000000" d="M 29.9375 15.0625 L 21.160156 15.0625 C 20.980469 15.0625 20.828125 15.128906 20.703125 15.253906 C 20.574219 15.382812 20.511719 15.535156 20.511719 15.714844 L 20.511719 18.484375 C 20.511719 18.664062 20.574219 18.816406 20.703125 18.945312 C 20.828125 19.070312 20.980469 19.132812 21.160156 19.132812 L 29.9375 19.132812 C 30.117188 19.132812 30.269531 19.070312 30.398438 18.945312 C 30.523438 18.816406 30.585938 18.664062 30.585938 18.484375 L 30.585938 15.714844 C 30.585938 15.535156 30.523438 15.382812 30.398438 15.253906 C 30.269531 15.128906 30.117188 15.0625 29.9375 15.0625 Z M 29.289062 17.835938 L 21.808594 17.835938 L 21.808594 16.363281 L 29.289062 16.363281 Z M 29.289062 17.835938 " fill-opacity="1" fill-rule="nonzero"/><path fill="#000000" d="M 5.859375 32.488281 L 0.660156 32.488281 C 0.480469 32.488281 0.328125 32.550781 0.203125 32.679688 C 0.0742188 32.804688 0.0117188 32.957031 0.0117188 33.136719 L 0.0117188 38.335938 C 0.0117188 38.511719 0.0742188 38.667969 0.203125 38.792969 C 0.328125 38.921875 0.480469 38.984375 0.660156 38.984375 L 5.859375 38.984375 C 6.039062 38.984375 6.191406 38.921875 6.316406 38.792969 C 6.445312 38.667969 6.507812 38.511719 6.507812 38.335938 L 6.507812 33.136719 C 6.507812 32.957031 6.445312 32.804688 6.316406 32.679688 C 6.191406 32.550781 6.039062 32.488281 5.859375 32.488281 Z M 5.207031 37.683594 L 1.3125 37.683594 L 1.3125 33.785156 L 5.207031 33.785156 Z M 5.207031 37.683594 " fill-opacity="1" fill-rule="nonzero"/><path fill="#000000" d="M 35.738281 32.488281 C 35.308594 32.488281 34.894531 32.570312 34.496094 32.734375 C 34.097656 32.898438 33.746094 33.132812 33.441406 33.4375 C 33.136719 33.742188 32.902344 34.09375 32.738281 34.492188 C 32.574219 34.890625 32.492188 35.304688 32.492188 35.734375 C 32.492188 36.167969 32.574219 36.582031 32.738281 36.980469 C 32.902344 37.375 33.136719 37.726562 33.441406 38.03125 C 33.746094 38.335938 34.097656 38.570312 34.496094 38.738281 C 34.894531 38.902344 35.308594 38.984375 35.738281 38.984375 C 36.171875 38.984375 36.585938 38.902344 36.984375 38.738281 C 37.378906 38.570312 37.730469 38.335938 38.035156 38.03125 C 38.339844 37.726562 38.574219 37.375 38.742188 36.980469 C 38.90625 36.582031 38.988281 36.167969 38.988281 35.734375 C 38.988281 35.304688 38.90625 34.890625 38.738281 34.492188 C 38.574219 34.097656 38.339844 33.746094 38.035156 33.441406 C 37.730469 33.136719 37.378906 32.902344 36.980469 32.734375 C 36.585938 32.570312 36.171875 32.488281 35.738281 32.488281 Z M 35.738281 37.683594 C 35.480469 37.683594 35.234375 37.636719 34.992188 37.535156 C 34.753906 37.4375 34.542969 37.296875 34.363281 37.113281 C 34.179688 36.929688 34.039062 36.71875 33.9375 36.480469 C 33.839844 36.242188 33.792969 35.996094 33.792969 35.734375 C 33.792969 35.476562 33.839844 35.230469 33.9375 34.988281 C 34.039062 34.75 34.179688 34.539062 34.363281 34.359375 C 34.542969 34.175781 34.753906 34.035156 34.992188 33.933594 C 35.234375 33.835938 35.480469 33.785156 35.738281 33.785156 C 36 33.785156 36.246094 33.835938 36.484375 33.933594 C 36.722656 34.035156 36.933594 34.175781 37.117188 34.359375 C 37.300781 34.539062 37.441406 34.75 37.539062 34.988281 C 37.640625 35.230469 37.6875 35.476562 37.6875 35.734375 C 37.6875 35.996094 37.640625 36.242188 37.539062 36.480469 C 37.441406 36.71875 37.300781 36.929688 37.117188 37.113281 C 36.933594 37.296875 36.722656 37.4375 36.484375 37.535156 C 36.246094 37.636719 36 37.683594 35.738281 37.683594 Z M 35.738281 37.683594 " fill-opacity="1" fill-rule="nonzero"/><path fill="#000000" d="M 20.082031 32.847656 C 19.863281 32.40625 19.136719 32.40625 18.917969 32.847656 L 16.320312 38.042969 C 16.097656 38.457031 16.433594 38.996094 16.902344 38.984375 L 22.097656 38.984375 C 22.566406 38.996094 22.902344 38.457031 22.679688 38.042969 Z M 17.957031 37.683594 L 19.5 34.589844 L 21.046875 37.683594 Z M 17.957031 37.683594 " fill-opacity="1" fill-rule="nonzero"/><path fill="#000000" d="M 3.261719 25.34375 C 3.082031 25.34375 2.925781 25.40625 2.800781 25.53125 C 2.675781 25.660156 2.609375 25.8125 2.609375 25.992188 L 2.609375 29.238281 C 2.609375 29.417969 2.675781 29.574219 2.800781 29.699219 C 2.925781 29.824219 3.082031 29.890625 3.261719 29.890625 C 3.441406 29.890625 3.59375 29.824219 3.71875 29.699219 C 3.847656 29.574219 3.910156 29.417969 3.910156 29.238281 L 3.910156 26.640625 L 18.851562 26.640625 L 18.851562 29.238281 C 18.851562 29.417969 18.914062 29.574219 19.039062 29.699219 C 19.167969 29.824219 19.320312 29.890625 19.5 29.890625 C 19.679688 29.890625 19.832031 29.824219 19.960938 29.699219 C 20.085938 29.574219 20.148438 29.417969 20.148438 29.238281 L 20.148438 26.640625 L 35.089844 26.640625 L 35.089844 29.238281 C 35.089844 29.417969 35.152344 29.574219 35.28125 29.699219 C 35.40625 29.824219 35.558594 29.890625 35.738281 29.890625 C 35.917969 29.890625 36.074219 29.824219 36.199219 29.699219 C 36.324219 29.574219 36.390625 29.417969 36.390625 29.238281 L 36.390625 25.992188 C 36.390625 25.8125 36.324219 25.660156 36.199219 25.53125 C 36.074219 25.40625 35.917969 25.34375 35.738281 25.34375 L 20.148438 25.34375 L 20.148438 22.09375 L 31.730469 22.09375 C 32 22.09375 32.261719 22.046875 32.515625 21.941406 C 32.765625 21.839844 32.988281 21.691406 33.179688 21.503906 C 33.375 21.3125 33.523438 21.089844 33.628906 20.839844 C 33.734375 20.589844 33.789062 20.332031 33.792969 20.058594 L 33.792969 2.042969 C 33.789062 1.773438 33.734375 1.511719 33.628906 1.261719 C 33.523438 1.011719 33.375 0.789062 33.179688 0.601562 C 32.988281 0.410156 32.765625 0.261719 32.515625 0.160156 C 32.261719 0.0585938 32 0.0078125 31.730469 0.0078125 L 27.914062 0.0078125 C 27.730469 0.0078125 27.574219 0.0742188 27.445312 0.207031 L 25.761719 1.957031 L 11.683594 1.957031 L 10.160156 0.230469 C 10.03125 0.0820312 9.871094 0.0078125 9.675781 0.0078125 L 6.8125 0.0078125 C 6.601562 0.0078125 6.398438 0.046875 6.203125 0.125 C 6.007812 0.203125 5.835938 0.316406 5.6875 0.464844 C 5.535156 0.609375 5.417969 0.78125 5.335938 0.976562 C 5.253906 1.167969 5.210938 1.371094 5.207031 1.582031 L 5.207031 20.058594 C 5.210938 20.332031 5.265625 20.589844 5.371094 20.839844 C 5.476562 21.089844 5.625 21.3125 5.820312 21.503906 C 6.011719 21.691406 6.234375 21.839844 6.484375 21.941406 C 6.738281 22.046875 7 22.09375 7.269531 22.09375 L 18.851562 22.09375 L 18.851562 25.34375 Z M 9.988281 3.257812 L 24.511719 3.257812 L 23.457031 4.351562 L 9.988281 4.351562 Z M 6.507812 1.582031 C 6.511719 1.5 6.542969 1.433594 6.605469 1.382812 C 6.664062 1.328125 6.734375 1.304688 6.8125 1.308594 L 9.382812 1.308594 L 9.949219 1.957031 L 9.335938 1.957031 C 9.15625 1.957031 9.003906 2.019531 8.875 2.148438 C 8.75 2.273438 8.683594 2.425781 8.683594 2.605469 L 8.683594 4.351562 L 6.507812 4.351562 Z M 7.269531 20.796875 C 7.0625 20.796875 6.886719 20.726562 6.738281 20.585938 C 6.589844 20.441406 6.511719 20.265625 6.507812 20.058594 L 6.507812 5.652344 L 23.734375 5.652344 C 23.917969 5.652344 24.074219 5.585938 24.203125 5.453125 L 26.507812 3.058594 L 28.1875 1.308594 L 31.726562 1.308594 C 31.933594 1.304688 32.113281 1.375 32.261719 1.515625 C 32.410156 1.660156 32.488281 1.835938 32.492188 2.042969 L 32.492188 20.058594 C 32.488281 20.265625 32.410156 20.441406 32.261719 20.585938 C 32.113281 20.726562 31.9375 20.796875 31.730469 20.796875 Z M 7.269531 20.796875 " fill-opacity="1" fill-rule="nonzero"/></svg>