<svg xmlns="http://www.w3.org/2000/svg" xmlns:xlink="http://www.w3.org/1999/xlink" width="52" zoomAndPan="magnify" viewBox="0 0 39 38.999999" height="52" preserveAspectRatio="xMidYMid meet" version="1.0"><path fill="#000000" d="M 26.132812 5.65625 L 7.488281 5.65625 L 7.488281 23.09375 C 7.488281 23.398438 7.242188 23.648438 6.933594 23.648438 C 6.625 23.648438 6.378906 23.398438 6.378906 23.09375 L 6.378906 5.59375 C 6.378906 5.015625 6.847656 4.550781 7.425781 4.550781 L 26.691406 4.550781 C 26.839844 4.550781 26.980469 4.609375 27.085938 4.710938 L 31.644531 9.238281 C 31.75 9.339844 31.808594 9.480469 31.808594 9.628906 L 31.808594 33.4375 C 31.808594 33.714844 31.695312 33.980469 31.5 34.175781 C 31.304688 34.375 31.035156 34.484375 30.757812 34.484375 L 13.421875 34.484375 C 13.113281 34.484375 12.863281 34.234375 12.863281 33.929688 C 12.863281 33.625 13.113281 33.375 13.421875 33.375 L 30.695312 33.375 L 30.695312 10.183594 L 27.074219 10.210938 C 26.820312 10.210938 26.574219 10.113281 26.394531 9.933594 C 26.214844 9.753906 26.113281 9.511719 26.113281 9.257812 Z M 29.917969 9.085938 C 29.15625 8.328125 28.003906 7.1875 27.242188 6.429688 L 27.230469 9.105469 Z M 10.898438 14.308594 L 10.097656 14.308594 C 9.34375 14.308594 8.730469 13.699219 8.730469 12.949219 C 8.730469 12.199219 9.34375 11.589844 10.097656 11.589844 L 17.136719 11.589844 C 17.296875 11.363281 17.496094 11.167969 17.722656 11.007812 L 17.722656 9.902344 C 17.722656 9.152344 18.335938 8.542969 19.09375 8.542969 C 19.847656 8.542969 20.460938 9.152344 20.460938 9.902344 L 20.460938 11.007812 C 20.691406 11.167969 20.886719 11.363281 21.046875 11.589844 L 28.085938 11.589844 C 28.84375 11.589844 29.457031 12.199219 29.457031 12.949219 C 29.457031 13.699219 28.84375 14.308594 28.085938 14.308594 L 27.292969 14.308594 L 29.089844 19.007812 C 29.113281 19.070312 29.128906 19.140625 29.128906 19.214844 C 29.128906 20.835938 27.804688 22.148438 26.171875 22.148438 C 24.539062 22.148438 23.214844 20.835938 23.214844 19.214844 C 23.214844 19.140625 23.226562 19.070312 23.253906 19.007812 L 25.0625 14.308594 L 21.046875 14.308594 C 20.886719 14.535156 20.691406 14.730469 20.460938 14.890625 L 20.460938 26.683594 L 21.828125 27.246094 L 24.351562 28.277344 C 24.558594 28.363281 24.695312 28.566406 24.695312 28.789062 L 24.695312 29.9375 C 24.695312 30.242188 24.449219 30.488281 24.140625 30.488281 L 14.042969 30.488281 C 13.738281 30.488281 13.488281 30.242188 13.488281 29.9375 L 13.488281 28.789062 C 13.488281 28.566406 13.625 28.363281 13.832031 28.277344 L 16.355469 27.246094 L 17.722656 26.683594 L 17.722656 14.890625 C 17.496094 14.730469 17.296875 14.535156 17.136719 14.308594 L 13.128906 14.308594 L 14.925781 19.007812 C 14.949219 19.070312 14.964844 19.140625 14.964844 19.214844 C 14.964844 20.835938 13.640625 22.148438 12.007812 22.148438 C 10.375 22.148438 9.050781 20.835938 9.050781 19.214844 C 9.050781 19.140625 9.066406 19.070312 9.089844 19.007812 Z M 16.71875 12.695312 L 10.097656 12.695312 C 9.957031 12.695312 9.84375 12.808594 9.84375 12.949219 C 9.84375 13.089844 9.957031 13.203125 10.097656 13.203125 L 16.71875 13.203125 C 16.710938 13.121094 16.707031 13.035156 16.707031 12.949219 C 16.707031 12.863281 16.710938 12.78125 16.71875 12.695312 Z M 18.835938 10.59375 C 18.921875 10.585938 19.007812 10.582031 19.09375 10.582031 C 19.179688 10.582031 19.261719 10.585938 19.347656 10.59375 L 19.347656 9.902344 C 19.347656 9.761719 19.234375 9.648438 19.09375 9.648438 C 18.953125 9.648438 18.835938 9.761719 18.835938 9.902344 Z M 21.464844 12.695312 C 21.472656 12.78125 21.476562 12.863281 21.476562 12.949219 C 21.476562 13.035156 21.472656 13.121094 21.464844 13.203125 L 28.085938 13.203125 C 28.226562 13.203125 28.34375 13.089844 28.34375 12.949219 C 28.34375 12.808594 28.226562 12.695312 28.085938 12.695312 Z M 19.347656 15.304688 C 19.261719 15.3125 19.179688 15.316406 19.09375 15.316406 C 19.007812 15.316406 18.921875 15.3125 18.835938 15.304688 L 18.835938 26.230469 L 18.878906 26.210938 C 19.015625 26.15625 19.167969 26.15625 19.304688 26.210938 L 19.347656 26.230469 Z M 27.765625 18.660156 L 26.179688 14.503906 L 24.578125 18.660156 Z M 13.601562 18.660156 L 12.015625 14.503906 L 10.414062 18.660156 Z M 13.765625 19.765625 L 10.25 19.765625 C 10.484375 20.507812 11.183594 21.042969 12.007812 21.042969 C 12.832031 21.042969 13.53125 20.507812 13.765625 19.765625 Z M 27.929688 19.765625 L 24.414062 19.765625 C 24.648438 20.507812 25.347656 21.042969 26.171875 21.042969 C 26.996094 21.042969 27.695312 20.507812 27.929688 19.765625 Z M 19.09375 27.320312 L 16.78125 28.265625 L 14.601562 29.160156 L 14.601562 29.382812 L 23.582031 29.382812 L 23.582031 29.160156 L 21.402344 28.265625 Z M 19.09375 11.6875 C 18.390625 11.6875 17.820312 12.25 17.820312 12.949219 C 17.820312 13.648438 18.390625 14.214844 19.09375 14.214844 C 19.796875 14.214844 20.367188 13.648438 20.367188 12.949219 C 20.367188 12.25 19.796875 11.6875 19.09375 11.6875 Z M 11.109375 29.402344 C 11.445312 29.40625 11.769531 29.539062 12.007812 29.777344 C 12.25 30.019531 12.386719 30.34375 12.386719 30.683594 L 12.386719 37.714844 C 12.386719 38.054688 12.25 38.382812 12.007812 38.621094 C 11.765625 38.863281 11.4375 38.996094 11.09375 38.996094 L 2.773438 38.996094 C 2.429688 38.996094 2.101562 38.863281 1.859375 38.621094 C 1.617188 38.382812 1.480469 38.054688 1.480469 37.714844 L 1.480469 30.683594 C 1.480469 30.34375 1.617188 30.019531 1.859375 29.777344 C 2.097656 29.539062 2.421875 29.40625 2.757812 29.402344 L 2.757812 28.265625 C 2.757812 27.167969 3.195312 26.113281 3.980469 25.335938 C 4.765625 24.558594 5.828125 24.121094 6.933594 24.121094 C 8.039062 24.121094 9.101562 24.558594 9.886719 25.335938 C 10.671875 26.113281 11.109375 27.167969 11.109375 28.265625 Z M 3.871094 29.402344 L 5.03125 29.402344 L 5.03125 28.191406 C 5.03125 27.148438 5.882812 26.304688 6.933594 26.304688 C 7.984375 26.304688 8.835938 27.148438 8.835938 28.191406 L 8.835938 29.402344 L 9.996094 29.402344 L 9.996094 28.265625 C 9.996094 27.460938 9.671875 26.6875 9.097656 26.117188 C 8.523438 25.546875 7.746094 25.226562 6.933594 25.226562 C 6.121094 25.226562 5.34375 25.546875 4.769531 26.117188 C 4.195312 26.6875 3.871094 27.460938 3.871094 28.265625 Z M 6.144531 29.402344 L 7.722656 29.402344 L 7.722656 28.191406 C 7.722656 27.757812 7.367188 27.410156 6.933594 27.410156 C 6.5 27.410156 6.144531 27.757812 6.144531 28.191406 Z M 11.09375 30.507812 L 2.773438 30.507812 C 2.726562 30.507812 2.679688 30.523438 2.644531 30.558594 C 2.613281 30.589844 2.59375 30.636719 2.59375 30.683594 L 2.59375 37.714844 C 2.59375 37.761719 2.613281 37.808594 2.644531 37.839844 C 2.679688 37.875 2.726562 37.890625 2.773438 37.890625 L 11.09375 37.890625 C 11.140625 37.890625 11.1875 37.875 11.222656 37.839844 C 11.253906 37.808594 11.273438 37.761719 11.273438 37.714844 L 11.273438 30.683594 C 11.273438 30.636719 11.253906 30.589844 11.222656 30.558594 C 11.1875 30.523438 11.140625 30.507812 11.09375 30.507812 Z M 5.601562 34.683594 C 5.160156 34.308594 4.878906 33.753906 4.878906 33.132812 C 4.878906 32.007812 5.800781 31.09375 6.933594 31.09375 C 8.066406 31.09375 8.988281 32.007812 8.988281 33.132812 C 8.988281 33.753906 8.707031 34.308594 8.265625 34.683594 L 8.265625 36.75 C 8.265625 37.054688 8.015625 37.304688 7.710938 37.304688 L 6.15625 37.304688 C 5.851562 37.304688 5.601562 37.054688 5.601562 36.75 Z M 6.714844 34.402344 L 6.714844 36.199219 L 7.152344 36.199219 L 7.152344 34.402344 C 7.152344 34.210938 7.253906 34.03125 7.421875 33.929688 C 7.691406 33.765625 7.875 33.472656 7.875 33.132812 C 7.875 32.617188 7.453125 32.199219 6.933594 32.199219 C 6.414062 32.199219 5.992188 32.617188 5.992188 33.132812 C 5.992188 33.472656 6.175781 33.765625 6.445312 33.929688 C 6.613281 34.03125 6.714844 34.210938 6.714844 34.402344 Z M 12.710938 1.109375 L 1.160156 1.109375 L 1.160156 16.226562 L 5.34375 16.226562 C 5.652344 16.226562 5.898438 16.472656 5.898438 16.78125 C 5.898438 17.085938 5.652344 17.332031 5.34375 17.332031 L 1 17.332031 C 0.746094 17.332031 0.503906 17.230469 0.324219 17.054688 C 0.144531 16.878906 0.046875 16.636719 0.046875 16.382812 L 0.046875 0.949219 C 0.046875 0.699219 0.144531 0.457031 0.324219 0.28125 C 0.503906 0.101562 0.746094 0.00390625 1 0.00390625 L 12.867188 0.00390625 C 13.121094 0.00390625 13.363281 0.101562 13.542969 0.28125 C 13.722656 0.457031 13.820312 0.699219 13.820312 0.949219 L 13.820312 3.523438 C 13.820312 3.828125 13.574219 4.078125 13.265625 4.078125 C 12.957031 4.078125 12.710938 3.828125 12.710938 3.523438 Z M 4.28125 3.695312 C 3.972656 3.695312 3.722656 3.449219 3.722656 3.144531 C 3.722656 2.839844 3.972656 2.589844 4.28125 2.589844 L 9.585938 2.589844 C 9.894531 2.589844 10.144531 2.839844 10.144531 3.144531 C 10.144531 3.449219 9.894531 3.695312 9.585938 3.695312 Z M 2.953125 6.703125 C 2.648438 6.703125 2.398438 6.457031 2.398438 6.152344 C 2.398438 5.847656 2.648438 5.601562 2.953125 5.601562 L 5.34375 5.601562 C 5.652344 5.601562 5.898438 5.847656 5.898438 6.152344 C 5.898438 6.457031 5.652344 6.703125 5.34375 6.703125 Z M 2.953125 9.21875 C 2.648438 9.21875 2.398438 8.972656 2.398438 8.667969 C 2.398438 8.363281 2.648438 8.113281 2.953125 8.113281 L 5.34375 8.113281 C 5.652344 8.113281 5.898438 8.363281 5.898438 8.667969 C 5.898438 8.972656 5.652344 9.21875 5.34375 9.21875 Z M 2.953125 11.734375 C 2.648438 11.734375 2.398438 11.488281 2.398438 11.183594 C 2.398438 10.878906 2.648438 10.628906 2.953125 10.628906 L 5.34375 10.628906 C 5.652344 10.628906 5.898438 10.878906 5.898438 11.183594 C 5.898438 11.488281 5.652344 11.734375 5.34375 11.734375 Z M 2.953125 14.25 C 2.648438 14.25 2.398438 14.003906 2.398438 13.699219 C 2.398438 13.394531 2.648438 13.144531 2.953125 13.144531 L 5.34375 13.144531 C 5.652344 13.144531 5.898438 13.394531 5.898438 13.699219 C 5.898438 14.003906 5.652344 14.25 5.34375 14.25 Z M 26.289062 35.777344 L 37.839844 35.777344 L 37.839844 20.65625 L 32.84375 20.65625 C 32.535156 20.65625 32.285156 20.410156 32.285156 20.105469 C 32.285156 19.800781 32.535156 19.554688 32.84375 19.554688 L 38 19.554688 C 38.253906 19.554688 38.496094 19.652344 38.675781 19.832031 C 38.855469 20.007812 38.953125 20.25 38.953125 20.5 L 38.953125 35.933594 C 38.953125 36.1875 38.855469 36.425781 38.675781 36.605469 C 38.496094 36.78125 38.253906 36.882812 38 36.882812 L 26.132812 36.882812 C 25.878906 36.882812 25.636719 36.78125 25.457031 36.605469 C 25.277344 36.425781 25.179688 36.1875 25.179688 35.933594 L 25.179688 35.507812 C 25.179688 35.203125 25.425781 34.957031 25.734375 34.957031 C 26.042969 34.957031 26.289062 35.203125 26.289062 35.507812 Z M 32.84375 23.246094 C 32.535156 23.246094 32.285156 22.996094 32.285156 22.691406 C 32.285156 22.386719 32.535156 22.140625 32.84375 22.140625 L 34.71875 22.140625 C 35.027344 22.140625 35.277344 22.386719 35.277344 22.691406 C 35.277344 22.996094 35.027344 23.246094 34.71875 23.246094 Z M 32.84375 26.253906 C 32.535156 26.253906 32.285156 26.007812 32.285156 25.703125 C 32.285156 25.398438 32.535156 25.148438 32.84375 25.148438 L 36.046875 25.148438 C 36.351562 25.148438 36.601562 25.398438 36.601562 25.703125 C 36.601562 26.007812 36.351562 26.253906 36.046875 26.253906 Z M 32.84375 28.769531 C 32.535156 28.769531 32.285156 28.523438 32.285156 28.214844 C 32.285156 27.910156 32.535156 27.664062 32.84375 27.664062 L 36.046875 27.664062 C 36.351562 27.664062 36.601562 27.910156 36.601562 28.214844 C 36.601562 28.523438 36.351562 28.769531 36.046875 28.769531 Z M 32.84375 31.285156 C 32.535156 31.285156 32.285156 31.039062 32.285156 30.734375 C 32.285156 30.425781 32.535156 30.179688 32.84375 30.179688 L 36.046875 30.179688 C 36.351562 30.179688 36.601562 30.425781 36.601562 30.734375 C 36.601562 31.039062 36.351562 31.285156 36.046875 31.285156 Z M 32.84375 33.800781 C 32.535156 33.800781 32.285156 33.550781 32.285156 33.246094 C 32.285156 32.941406 32.535156 32.695312 32.84375 32.695312 L 36.046875 32.695312 C 36.351562 32.695312 36.601562 32.941406 36.601562 33.246094 C 36.601562 33.550781 36.351562 33.800781 36.046875 33.800781 Z M 32.84375 33.800781 " fill-opacity="1" fill-rule="evenodd"/></svg>