<svg xmlns="http://www.w3.org/2000/svg" xmlns:xlink="http://www.w3.org/1999/xlink" width="52" zoomAndPan="magnify" viewBox="0 0 39 38.999999" height="52" preserveAspectRatio="xMidYMid meet" version="1.0"><path fill="#000000" d="M 26.8125 24.375 C 26.363281 24.375 26 24.011719 26 23.5625 C 26 23.113281 26.363281 22.75 26.8125 22.75 C 27.261719 22.75 27.625 23.113281 27.625 23.5625 C 27.625 24.011719 27.261719 24.375 26.8125 24.375 Z M 26.8125 21.125 C 25.464844 21.125 24.375 22.214844 24.375 23.5625 C 24.375 24.90625 25.464844 26 26.8125 26 C 28.15625 26 29.25 24.90625 29.25 23.5625 C 29.25 22.214844 28.15625 21.125 26.8125 21.125 " fill-opacity="1" fill-rule="nonzero"/><path fill="#000000" d="M 19.5 37.375 C 14.863281 37.375 10.636719 35.601562 7.457031 32.695312 L 10.898438 29.25 L 30.0625 29.25 C 31.40625 29.25 32.5 28.15625 32.5 26.8125 L 32.5 12.1875 C 32.5 10.945312 31.566406 9.933594 30.367188 9.78125 L 32.695312 7.457031 C 35.601562 10.636719 37.375 14.863281 37.375 19.5 C 37.375 29.359375 29.359375 37.375 19.5 37.375 Z M 22.273438 17.875 L 30.875 17.875 L 30.875 26.8125 C 30.875 27.261719 30.511719 27.625 30.0625 27.625 L 12.523438 27.625 Z M 8.125 13 L 8.125 12.1875 C 8.125 11.738281 8.488281 11.375 8.9375 11.375 L 26.476562 11.375 L 24.851562 13 Z M 25.523438 14.625 L 30.875 14.625 L 30.875 16.25 L 23.898438 16.25 Z M 21.601562 16.25 L 8.125 16.25 L 8.125 14.625 L 23.226562 14.625 Z M 8.9375 27.625 C 8.488281 27.625 8.125 27.261719 8.125 26.8125 L 8.125 17.875 L 19.976562 17.875 L 10.226562 27.625 Z M 30.0625 11.375 C 30.511719 11.375 30.875 11.738281 30.875 12.1875 L 30.875 13 L 27.148438 13 L 28.773438 11.375 Z M 19.5 1.625 C 24.136719 1.625 28.363281 3.398438 31.542969 6.304688 L 28.101562 9.75 L 8.9375 9.75 C 7.59375 9.75 6.5 10.839844 6.5 12.1875 L 6.5 26.8125 C 6.5 28.054688 7.433594 29.066406 8.632812 29.21875 L 6.304688 31.542969 C 3.398438 28.363281 1.625 24.136719 1.625 19.5 C 1.625 9.640625 9.640625 1.625 19.5 1.625 Z M 19.5 0 C 8.746094 0 0 8.746094 0 19.5 C 0 30.253906 8.746094 39 19.5 39 C 30.253906 39 39 30.253906 39 19.5 C 39 8.746094 30.253906 0 19.5 0 " fill-opacity="1" fill-rule="nonzero"/></svg>