<svg xmlns="http://www.w3.org/2000/svg" xmlns:xlink="http://www.w3.org/1999/xlink" width="52" zoomAndPan="magnify" viewBox="0 0 39 38.999999" height="52" preserveAspectRatio="xMidYMid meet" version="1.0"><defs><clipPath id="b0cd609918"><path d="M 14 11 L 36.527344 11 L 36.527344 34 L 14 34 Z M 14 11 " clip-rule="nonzero"/></clipPath><clipPath id="2bed0ed30b"><path d="M 2.777344 0 L 32 0 L 32 39 L 2.777344 39 Z M 2.777344 0 " clip-rule="nonzero"/></clipPath></defs><g clip-path="url(#b0cd609918)"><path fill="#000000" d="M 36.023438 31 L 32.828125 27.835938 L 28.851562 23.898438 C 29.839844 22.542969 30.375 20.921875 30.375 19.222656 C 30.375 17.085938 29.53125 15.074219 28.007812 13.5625 C 26.480469 12.050781 24.453125 11.21875 22.292969 11.21875 C 20.132812 11.21875 18.105469 12.050781 16.582031 13.5625 C 15.054688 15.074219 14.214844 17.082031 14.214844 19.222656 C 14.214844 21.359375 15.054688 23.371094 16.582031 24.882812 C 18.105469 26.394531 20.132812 27.226562 22.292969 27.226562 C 24.011719 27.226562 25.648438 26.699219 27.011719 25.71875 L 30.988281 29.660156 L 34.183594 32.824219 C 34.691406 33.324219 35.511719 33.324219 36.019531 32.824219 C 36.527344 32.320312 36.527344 31.503906 36.023438 31 Z M 26.808594 23.695312 C 24.320312 26.160156 20.269531 26.160156 17.78125 23.695312 C 15.292969 21.226562 15.292969 17.21875 17.78125 14.75 C 20.269531 12.285156 24.320312 12.285156 26.808594 14.75 C 29.296875 17.21875 29.296875 21.226562 26.808594 23.695312 Z M 26.808594 23.695312 " fill-opacity="1" fill-rule="nonzero"/></g><path fill="#000000" d="M 6.324219 23.714844 L 8.847656 23.714844 L 8.847656 26.699219 L 6.324219 26.699219 Z M 6.324219 23.714844 " fill-opacity="1" fill-rule="nonzero"/><path fill="#000000" d="M 10.089844 21.851562 L 12.613281 21.851562 L 12.613281 26.699219 L 10.089844 26.699219 Z M 10.089844 21.851562 " fill-opacity="1" fill-rule="nonzero"/><path fill="#000000" d="M 21.386719 24.5 C 21.683594 24.546875 21.988281 24.574219 22.292969 24.574219 C 22.851562 24.574219 23.394531 24.492188 23.910156 24.335938 L 23.910156 17 L 21.386719 17 Z M 21.386719 24.5 " fill-opacity="1" fill-rule="nonzero"/><path fill="#000000" d="M 17.621094 21.910156 C 17.851562 22.304688 18.136719 22.671875 18.472656 23.007812 C 18.964844 23.492188 19.53125 23.871094 20.144531 24.136719 L 20.144531 18.863281 L 17.621094 18.863281 Z M 17.621094 21.910156 " fill-opacity="1" fill-rule="nonzero"/><path fill="#000000" d="M 13.855469 22.492188 L 13.855469 26.699219 L 16.378906 26.699219 L 16.378906 26.015625 C 16.210938 25.875 16.046875 25.722656 15.890625 25.566406 C 14.992188 24.679688 14.304688 23.632812 13.855469 22.492188 Z M 13.855469 22.492188 " fill-opacity="1" fill-rule="nonzero"/><path fill="#000000" d="M 8.507812 11.351562 L 15.925781 11.351562 L 15.925781 12.28125 L 8.507812 12.28125 Z M 8.507812 11.351562 " fill-opacity="1" fill-rule="nonzero"/><path fill="#000000" d="M 8.507812 13.550781 L 13.855469 13.550781 L 13.855469 14.484375 L 8.507812 14.484375 Z M 8.507812 13.550781 " fill-opacity="1" fill-rule="nonzero"/><path fill="#000000" d="M 8.507812 15.675781 L 12.613281 15.675781 L 12.613281 16.609375 L 8.507812 16.609375 Z M 8.507812 15.675781 " fill-opacity="1" fill-rule="nonzero"/><path fill="#000000" d="M 8.527344 8.976562 L 25.324219 8.976562 L 25.324219 9.910156 L 8.527344 9.910156 Z M 8.527344 8.976562 " fill-opacity="1" fill-rule="nonzero"/><g clip-path="url(#2bed0ed30b)"><path fill="#000000" d="M 30.332031 31.824219 C 29.945312 31.824219 29.628906 32.136719 29.628906 32.519531 L 29.628906 37.585938 L 4.183594 37.585938 L 4.183594 1.414062 L 29.628906 1.414062 L 29.628906 13.410156 C 29.628906 13.792969 29.945312 14.105469 30.332031 14.105469 C 30.71875 14.105469 31.035156 13.792969 31.035156 13.410156 L 31.035156 0.25 C 31.035156 0.121094 30.929688 0.0195312 30.800781 0.0195312 L 3.011719 0.0195312 C 2.882812 0.0195312 2.777344 0.121094 2.777344 0.25 L 2.777344 38.75 C 2.777344 38.878906 2.882812 38.980469 3.011719 38.980469 L 30.804688 38.980469 C 30.933594 38.980469 31.035156 38.878906 31.035156 38.75 L 31.035156 32.523438 C 31.035156 32.140625 30.71875 31.824219 30.332031 31.824219 Z M 30.332031 31.824219 " fill-opacity="1" fill-rule="nonzero"/></g><path fill="#000000" d="M 11.089844 6.625 L 11.441406 7.851562 L 12.265625 7.851562 L 10.96875 3.40625 L 9.988281 3.40625 L 8.679688 7.851562 L 9.480469 7.851562 L 9.820312 6.625 Z M 10.246094 4.957031 C 10.316406 4.691406 10.382812 4.347656 10.445312 4.070312 L 10.460938 4.070312 C 10.523438 4.34375 10.589844 4.679688 10.667969 4.960938 L 10.96875 6.035156 L 9.941406 6.035156 Z M 10.246094 4.957031 " fill-opacity="1" fill-rule="nonzero"/><path fill="#000000" d="M 12.675781 3.40625 L 12.675781 6.042969 C 12.675781 7.351562 13.269531 7.921875 14.238281 7.921875 C 15.230469 7.921875 15.863281 7.332031 15.863281 6.027344 L 15.863281 3.40625 L 15.078125 3.40625 L 15.078125 6.101562 C 15.078125 6.929688 14.769531 7.277344 14.261719 7.277344 C 13.789062 7.277344 13.464844 6.925781 13.464844 6.101562 L 13.464844 3.40625 Z M 12.675781 3.40625 " fill-opacity="1" fill-rule="nonzero"/><path fill="#000000" d="M 20.203125 5.53125 C 20.203125 4.734375 19.949219 4.1875 19.535156 3.847656 C 19.164062 3.535156 18.652344 3.375 17.90625 3.375 C 17.476562 3.375 17.070312 3.410156 16.753906 3.46875 L 16.753906 7.835938 C 16.988281 7.867188 17.316406 7.886719 17.722656 7.886719 C 18.507812 7.886719 19.136719 7.703125 19.539062 7.328125 C 19.9375 6.964844 20.203125 6.375 20.203125 5.53125 Z M 17.90625 7.269531 C 17.777344 7.269531 17.632812 7.265625 17.535156 7.25 L 17.535156 4.03125 C 17.636719 4.007812 17.785156 3.988281 17.988281 3.988281 C 18.894531 3.988281 19.378906 4.558594 19.375 5.546875 C 19.375 6.742188 18.796875 7.273438 17.90625 7.269531 Z M 17.90625 7.269531 " fill-opacity="1" fill-rule="nonzero"/><path fill="#000000" d="M 20.867188 3.40625 L 21.65625 3.40625 L 21.65625 7.851562 L 20.867188 7.851562 Z M 20.867188 3.40625 " fill-opacity="1" fill-rule="nonzero"/><path fill="#000000" d="M 24.09375 7.851562 L 24.09375 4.078125 L 25.242188 4.078125 L 25.242188 3.40625 L 22.167969 3.40625 L 22.167969 4.078125 L 23.304688 4.078125 L 23.304688 7.851562 Z M 24.09375 7.851562 " fill-opacity="1" fill-rule="nonzero"/><path fill="#000000" d="M 16.792969 36.847656 C 19.207031 36.847656 21.160156 34.90625 21.160156 32.519531 C 21.160156 30.128906 19.203125 28.195312 16.792969 28.195312 C 14.378906 28.195312 12.425781 30.132812 12.425781 32.519531 C 12.425781 34.910156 14.382812 36.847656 16.792969 36.847656 Z M 13.890625 32.777344 C 14.113281 32.558594 14.46875 32.558594 14.691406 32.777344 L 15.628906 33.703125 L 18.597656 30.761719 C 18.820312 30.542969 19.175781 30.542969 19.398438 30.761719 C 19.617188 30.980469 19.617188 31.335938 19.398438 31.554688 L 15.628906 35.289062 L 13.890625 33.570312 C 13.671875 33.351562 13.671875 32.996094 13.890625 32.777344 Z M 13.890625 32.777344 " fill-opacity="1" fill-rule="nonzero"/></svg>