<svg xmlns="http://www.w3.org/2000/svg" xmlns:xlink="http://www.w3.org/1999/xlink" width="52" zoomAndPan="magnify" viewBox="0 0 39 38.999999" height="52" preserveAspectRatio="xMidYMid meet" version="1.0"><path fill="#000000" d="M 24.332031 0.300781 C 24.136719 0.109375 23.878906 0 23.605469 0 L 3.078125 0 C 1.382812 0 0 1.382812 0 3.078125 L 0 17.449219 C 0 18.015625 0.460938 18.472656 1.027344 18.472656 C 1.59375 18.472656 2.050781 18.015625 2.050781 17.449219 L 2.050781 3.078125 C 2.050781 2.511719 2.511719 2.050781 3.078125 2.050781 L 22.578125 2.050781 L 22.578125 7.183594 C 22.578125 7.75 23.039062 8.210938 23.605469 8.210938 L 28.738281 8.210938 L 28.738281 35.921875 C 28.738281 36.488281 28.277344 36.949219 27.710938 36.949219 L 21.550781 36.949219 C 20.984375 36.949219 20.527344 37.40625 20.527344 37.972656 C 20.527344 38.539062 20.984375 39 21.550781 39 L 27.710938 39 C 29.410156 39 30.789062 37.617188 30.789062 35.921875 L 30.789062 7.183594 C 30.789062 6.910156 30.679688 6.652344 30.488281 6.457031 Z M 24.632812 3.503906 L 27.285156 6.15625 L 24.632812 6.15625 Z M 24.632812 3.503906 " fill-opacity="1" fill-rule="nonzero"/><path fill="#000000" d="M 17.449219 36.949219 L 3.078125 36.949219 C 2.511719 36.949219 2.050781 36.488281 2.050781 35.921875 L 2.050781 21.550781 C 2.050781 20.984375 1.59375 20.527344 1.027344 20.527344 C 0.460938 20.527344 0 20.984375 0 21.550781 L 0 35.921875 C 0 37.617188 1.382812 39 3.078125 39 L 17.449219 39 C 18.015625 39 18.472656 38.539062 18.472656 37.972656 C 18.472656 37.40625 18.015625 36.949219 17.449219 36.949219 Z M 17.449219 36.949219 " fill-opacity="1" fill-rule="nonzero"/><path fill="#000000" d="M 22.421875 32.058594 C 22.421875 32.058594 24.492188 28.503906 24.492188 28.5 C 24.777344 28.015625 24.601562 27.375 24.113281 27.09375 C 23.589844 26.792969 23.277344 26.257812 23.277344 25.65625 C 23.277344 25.058594 23.589844 24.523438 24.113281 24.222656 C 24.601562 23.945312 24.773438 23.296875 24.492188 22.816406 L 22.421875 19.257812 C 22.136719 18.769531 21.511719 18.605469 21.023438 18.882812 C 20.492188 19.1875 19.855469 19.1875 19.324219 18.878906 C 18.804688 18.578125 18.492188 18.042969 18.492188 17.449219 C 18.492188 16.878906 18.03125 16.421875 17.464844 16.421875 L 13.324219 16.421875 C 12.757812 16.421875 12.296875 16.878906 12.296875 17.449219 C 12.296875 18.042969 11.988281 18.578125 11.464844 18.878906 C 10.933594 19.1875 10.296875 19.1875 9.765625 18.882812 C 9.277344 18.605469 8.652344 18.769531 8.367188 19.257812 C 8.367188 19.257812 6.296875 22.8125 6.296875 22.816406 C 6.011719 23.300781 6.1875 23.941406 6.675781 24.222656 C 7.199219 24.523438 7.515625 25.058594 7.515625 25.65625 C 7.515625 26.257812 7.199219 26.792969 6.675781 27.09375 C 6.1875 27.371094 6.015625 28.019531 6.296875 28.5 L 8.367188 32.058594 C 8.652344 32.546875 9.277344 32.707031 9.765625 32.433594 C 10.296875 32.125 10.933594 32.128906 11.464844 32.4375 C 11.988281 32.738281 12.296875 33.273438 12.296875 33.867188 C 12.296875 34.4375 12.757812 34.894531 13.324219 34.894531 L 17.464844 34.894531 C 18.03125 34.894531 18.492188 34.4375 18.492188 33.867188 C 18.492188 33.273438 18.804688 32.738281 19.324219 32.4375 C 19.855469 32.128906 20.492188 32.125 21.023438 32.433594 C 21.515625 32.710938 22.136719 32.546875 22.421875 32.058594 Z M 18.292969 30.660156 C 17.441406 31.15625 16.839844 31.933594 16.582031 32.84375 L 14.207031 32.84375 C 13.949219 31.933594 13.347656 31.15625 12.496094 30.660156 C 11.628906 30.15625 10.632812 30.023438 9.699219 30.261719 L 8.519531 28.238281 C 9.1875 27.558594 9.566406 26.648438 9.566406 25.65625 C 9.566406 24.667969 9.1875 23.757812 8.519531 23.074219 L 9.699219 21.050781 C 10.632812 21.292969 11.628906 21.160156 12.496094 20.65625 C 13.347656 20.160156 13.949219 19.382812 14.207031 18.472656 L 16.582031 18.472656 C 16.839844 19.382812 17.441406 20.160156 18.292969 20.65625 C 19.160156 21.15625 20.15625 21.292969 21.089844 21.050781 L 22.269531 23.074219 C 21.601562 23.757812 21.222656 24.667969 21.222656 25.65625 C 21.222656 26.648438 21.601562 27.558594 22.269531 28.238281 L 21.089844 30.261719 C 20.15625 30.023438 19.164062 30.15625 18.292969 30.660156 Z M 18.292969 30.660156 " fill-opacity="1" fill-rule="nonzero"/><path fill="#000000" d="M 15.394531 21.550781 C 13.132812 21.550781 11.289062 23.394531 11.289062 25.65625 C 11.289062 27.921875 13.132812 29.761719 15.394531 29.761719 C 17.660156 29.761719 19.5 27.921875 19.5 25.65625 C 19.5 23.394531 17.660156 21.550781 15.394531 21.550781 Z M 15.394531 27.710938 C 14.261719 27.710938 13.34375 26.789062 13.34375 25.65625 C 13.34375 24.527344 14.261719 23.605469 15.394531 23.605469 C 16.527344 23.605469 17.449219 24.527344 17.449219 25.65625 C 17.449219 26.789062 16.527344 27.710938 15.394531 27.710938 Z M 15.394531 27.710938 " fill-opacity="1" fill-rule="nonzero"/><path fill="#000000" d="M 35.921875 8.210938 C 34.222656 8.210938 32.84375 9.589844 32.84375 11.289062 L 32.84375 29.761719 C 32.84375 29.921875 32.878906 30.078125 32.949219 30.222656 L 35.003906 34.328125 C 35.175781 34.675781 35.53125 34.894531 35.921875 34.894531 C 36.308594 34.894531 36.664062 34.675781 36.839844 34.328125 L 38.890625 30.222656 C 38.964844 30.078125 39 29.921875 39 29.761719 L 39 11.289062 C 39 9.589844 37.617188 8.210938 35.921875 8.210938 Z M 35.921875 10.261719 C 36.488281 10.261719 36.949219 10.722656 36.949219 11.289062 L 36.949219 12.316406 L 34.894531 12.316406 L 34.894531 11.289062 C 34.894531 10.722656 35.355469 10.261719 35.921875 10.261719 Z M 35.921875 31.574219 L 34.894531 29.519531 L 34.894531 14.367188 L 36.949219 14.367188 L 36.949219 29.519531 Z M 35.921875 31.574219 " fill-opacity="1" fill-rule="nonzero"/><path fill="#000000" d="M 6.15625 5.132812 C 6.15625 5.269531 6.132812 5.398438 6.078125 5.523438 C 6.027344 5.648438 5.953125 5.761719 5.855469 5.855469 C 5.761719 5.953125 5.648438 6.027344 5.523438 6.078125 C 5.398438 6.132812 5.269531 6.15625 5.132812 6.15625 C 4.996094 6.15625 4.863281 6.132812 4.738281 6.078125 C 4.613281 6.027344 4.503906 5.953125 4.40625 5.855469 C 4.308594 5.761719 4.234375 5.648438 4.183594 5.523438 C 4.132812 5.398438 4.105469 5.269531 4.105469 5.132812 C 4.105469 4.996094 4.132812 4.863281 4.183594 4.738281 C 4.234375 4.613281 4.308594 4.503906 4.40625 4.40625 C 4.503906 4.308594 4.613281 4.234375 4.738281 4.183594 C 4.863281 4.132812 4.996094 4.105469 5.132812 4.105469 C 5.269531 4.105469 5.398438 4.132812 5.523438 4.183594 C 5.648438 4.234375 5.761719 4.308594 5.855469 4.40625 C 5.953125 4.503906 6.027344 4.613281 6.078125 4.738281 C 6.132812 4.863281 6.15625 4.996094 6.15625 5.132812 Z M 6.15625 5.132812 " fill-opacity="1" fill-rule="nonzero"/><path fill="#000000" d="M 9.238281 6.15625 L 19.5 6.15625 C 20.066406 6.15625 20.527344 5.699219 20.527344 5.132812 C 20.527344 4.5625 20.066406 4.105469 19.5 4.105469 L 9.238281 4.105469 C 8.671875 4.105469 8.210938 4.5625 8.210938 5.132812 C 8.210938 5.699219 8.671875 6.15625 9.238281 6.15625 Z M 9.238281 6.15625 " fill-opacity="1" fill-rule="nonzero"/><path fill="#000000" d="M 6.15625 9.238281 C 6.15625 9.371094 6.132812 9.503906 6.078125 9.628906 C 6.027344 9.753906 5.953125 9.867188 5.855469 9.960938 C 5.761719 10.058594 5.648438 10.132812 5.523438 10.183594 C 5.398438 10.238281 5.269531 10.261719 5.132812 10.261719 C 4.996094 10.261719 4.863281 10.238281 4.738281 10.183594 C 4.613281 10.132812 4.503906 10.058594 4.40625 9.960938 C 4.308594 9.867188 4.234375 9.753906 4.183594 9.628906 C 4.132812 9.503906 4.105469 9.371094 4.105469 9.238281 C 4.105469 9.101562 4.132812 8.96875 4.183594 8.84375 C 4.234375 8.71875 4.308594 8.605469 4.40625 8.511719 C 4.503906 8.414062 4.613281 8.339844 4.738281 8.289062 C 4.863281 8.238281 4.996094 8.210938 5.132812 8.210938 C 5.269531 8.210938 5.398438 8.238281 5.523438 8.289062 C 5.648438 8.339844 5.761719 8.414062 5.855469 8.511719 C 5.953125 8.605469 6.027344 8.71875 6.078125 8.84375 C 6.132812 8.96875 6.15625 9.101562 6.15625 9.238281 Z M 6.15625 9.238281 " fill-opacity="1" fill-rule="nonzero"/><path fill="#000000" d="M 9.238281 10.261719 L 19.5 10.261719 C 20.066406 10.261719 20.527344 9.804688 20.527344 9.238281 C 20.527344 8.667969 20.066406 8.210938 19.5 8.210938 L 9.238281 8.210938 C 8.671875 8.210938 8.210938 8.667969 8.210938 9.238281 C 8.210938 9.804688 8.671875 10.261719 9.238281 10.261719 Z M 9.238281 10.261719 " fill-opacity="1" fill-rule="nonzero"/><path fill="#000000" d="M 6.15625 13.34375 C 6.15625 13.476562 6.132812 13.609375 6.078125 13.734375 C 6.027344 13.859375 5.953125 13.972656 5.855469 14.066406 C 5.761719 14.164062 5.648438 14.238281 5.523438 14.289062 C 5.398438 14.34375 5.269531 14.367188 5.132812 14.367188 C 4.996094 14.367188 4.863281 14.34375 4.738281 14.289062 C 4.613281 14.238281 4.503906 14.164062 4.40625 14.066406 C 4.308594 13.972656 4.234375 13.859375 4.183594 13.734375 C 4.132812 13.609375 4.105469 13.476562 4.105469 13.34375 C 4.105469 13.207031 4.132812 13.074219 4.183594 12.949219 C 4.234375 12.824219 4.308594 12.710938 4.40625 12.617188 C 4.503906 12.519531 4.613281 12.445312 4.738281 12.394531 C 4.863281 12.34375 4.996094 12.316406 5.132812 12.316406 C 5.269531 12.316406 5.398438 12.34375 5.523438 12.394531 C 5.648438 12.445312 5.761719 12.519531 5.855469 12.617188 C 5.953125 12.710938 6.027344 12.824219 6.078125 12.949219 C 6.132812 13.074219 6.15625 13.207031 6.15625 13.34375 Z M 6.15625 13.34375 " fill-opacity="1" fill-rule="nonzero"/><path fill="#000000" d="M 9.238281 14.367188 L 19.5 14.367188 C 20.066406 14.367188 20.527344 13.910156 20.527344 13.34375 C 20.527344 12.773438 20.066406 12.316406 19.5 12.316406 L 9.238281 12.316406 C 8.671875 12.316406 8.210938 12.773438 8.210938 13.34375 C 8.210938 13.910156 8.671875 14.367188 9.238281 14.367188 Z M 9.238281 14.367188 " fill-opacity="1" fill-rule="nonzero"/></svg>