<svg xmlns="http://www.w3.org/2000/svg" xmlns:xlink="http://www.w3.org/1999/xlink" width="52" zoomAndPan="magnify" viewBox="0 0 39 38.999999" height="52" preserveAspectRatio="xMidYMid meet" version="1.0"><defs><clipPath id="32a5ecc96d"><path d="M 25 0 L 36.867188 0 L 36.867188 19 L 25 19 Z M 25 0 " clip-rule="nonzero"/></clipPath><clipPath id="874d1d4062"><path d="M 2.367188 0 L 15 0 L 15 19 L 2.367188 19 Z M 2.367188 0 " clip-rule="nonzero"/></clipPath></defs><path fill="#000000" d="M 31.449219 24.613281 L 31.449219 23.363281 L 31.484375 23.363281 C 32.355469 23.363281 33.0625 22.660156 33.0625 21.792969 C 33.0625 20.929688 32.355469 20.226562 31.484375 20.226562 L 7.753906 20.226562 C 6.882812 20.226562 6.175781 20.929688 6.175781 21.792969 C 6.175781 22.660156 6.882812 23.363281 7.753906 23.363281 L 7.789062 23.363281 L 7.789062 24.613281 C 7.789062 24.742188 7.847656 24.863281 7.949219 24.945312 L 17.402344 32.449219 L 17.402344 38.566406 C 17.402344 38.714844 17.480469 38.851562 17.605469 38.929688 C 17.675781 38.96875 17.753906 38.992188 17.832031 38.992188 C 17.894531 38.992188 17.960938 38.976562 18.023438 38.945312 L 21.585938 37.167969 C 21.730469 37.097656 21.820312 36.949219 21.820312 36.789062 L 21.820312 32.449219 L 24.886719 30.019531 L 24.957031 30.082031 L 24.898438 30.59375 L 24.109375 31.019531 C 23.949219 31.105469 23.871094 31.289062 23.921875 31.464844 L 24.222656 32.515625 C 24.273438 32.691406 24.4375 32.808594 24.617188 32.796875 L 25.511719 32.75 L 25.835938 33.15625 L 25.582031 34.007812 C 25.53125 34.179688 25.605469 34.367188 25.765625 34.453125 L 26.726562 34.988281 C 26.886719 35.078125 27.085938 35.042969 27.207031 34.910156 L 27.804688 34.246094 L 28.320312 34.308594 L 28.75 35.089844 C 28.820312 35.214844 28.953125 35.289062 29.089844 35.289062 C 29.125 35.289062 29.164062 35.285156 29.199219 35.277344 L 30.257812 34.976562 C 30.433594 34.929688 30.550781 34.765625 30.539062 34.585938 L 30.492188 33.695312 L 30.902344 33.378906 L 31.757812 33.628906 C 31.933594 33.679688 32.121094 33.605469 32.210938 33.445312 L 32.746094 32.492188 C 32.835938 32.332031 32.800781 32.136719 32.667969 32.015625 L 32 31.421875 L 32.0625 30.910156 L 32.847656 30.484375 C 33.007812 30.398438 33.085938 30.210938 33.035156 30.039062 L 32.734375 28.984375 C 32.6875 28.8125 32.523438 28.695312 32.339844 28.703125 L 31.445312 28.753906 L 31.125 28.347656 L 31.378906 27.496094 C 31.429688 27.320312 31.351562 27.136719 31.195312 27.046875 L 30.230469 26.515625 C 30.074219 26.425781 29.875 26.457031 29.75 26.59375 L 29.152344 27.253906 L 28.636719 27.195312 L 28.578125 27.085938 L 31.226562 24.984375 C 31.359375 24.910156 31.449219 24.773438 31.449219 24.613281 Z M 7.03125 21.792969 C 7.03125 21.398438 7.355469 21.078125 7.753906 21.078125 L 31.484375 21.078125 C 31.882812 21.078125 32.207031 21.398438 32.207031 21.792969 C 32.207031 22.1875 31.882812 22.511719 31.484375 22.511719 L 7.753906 22.511719 C 7.355469 22.511719 7.03125 22.1875 7.03125 21.792969 Z M 29.261719 28.046875 C 29.390625 28.0625 29.515625 28.015625 29.597656 27.921875 L 30.125 27.339844 L 30.542969 27.570312 L 30.320312 28.320312 C 30.285156 28.441406 30.308594 28.570312 30.386719 28.667969 L 30.960938 29.390625 C 31.039062 29.488281 31.160156 29.542969 31.285156 29.535156 L 32.070312 29.492188 L 32.203125 29.953125 L 31.511719 30.324219 C 31.402344 30.382812 31.324219 30.496094 31.3125 30.621094 L 31.203125 31.53125 C 31.1875 31.65625 31.238281 31.777344 31.332031 31.863281 L 31.914062 32.382812 L 31.683594 32.800781 L 30.929688 32.578125 C 30.804688 32.542969 30.675781 32.566406 30.574219 32.644531 L 29.851562 33.214844 C 29.753906 33.292969 29.699219 33.414062 29.703125 33.539062 L 29.746094 34.316406 L 29.285156 34.449219 L 28.910156 33.761719 C 28.847656 33.652344 28.738281 33.578125 28.613281 33.5625 L 27.695312 33.457031 C 27.679688 33.453125 27.664062 33.453125 27.652344 33.453125 C 27.539062 33.453125 27.433594 33.5 27.359375 33.582031 L 26.835938 34.164062 L 26.417969 33.929688 L 26.640625 33.183594 C 26.675781 33.0625 26.648438 32.929688 26.570312 32.832031 L 26 32.113281 C 25.921875 32.015625 25.800781 31.960938 25.671875 31.96875 L 24.886719 32.007812 L 24.757812 31.550781 L 25.449219 31.179688 C 25.558594 31.117188 25.632812 31.007812 25.648438 30.882812 L 25.753906 29.972656 C 25.769531 29.847656 25.722656 29.722656 25.628906 29.640625 L 25.042969 29.117188 L 25.277344 28.703125 L 26.03125 28.925781 C 26.152344 28.960938 26.285156 28.933594 26.382812 28.855469 L 27.109375 28.289062 C 27.207031 28.210938 27.261719 28.089844 27.253906 27.964844 L 27.210938 27.183594 L 27.675781 27.054688 L 28.050781 27.742188 C 28.109375 27.851562 28.222656 27.925781 28.347656 27.941406 Z M 30.589844 24.398438 L 28.152344 26.335938 C 28.054688 26.230469 27.90625 26.1875 27.761719 26.226562 L 26.699219 26.523438 C 26.527344 26.574219 26.410156 26.738281 26.417969 26.917969 L 26.464844 27.804688 L 26.058594 28.125 L 25.199219 27.875 C 25.023438 27.824219 24.839844 27.898438 24.75 28.054688 L 24.210938 29.011719 C 24.132812 29.148438 24.148438 29.316406 24.246094 29.4375 L 21.125 31.914062 C 21.023438 31.996094 20.964844 32.117188 20.964844 32.246094 L 20.964844 36.527344 L 18.257812 37.875 L 18.257812 32.242188 C 18.257812 32.113281 18.199219 31.992188 18.097656 31.910156 L 8.644531 24.40625 L 8.644531 23.363281 L 30.589844 23.363281 Z M 30.589844 24.398438 " fill-opacity="1" fill-rule="nonzero"/><path fill="#000000" d="M 4.273438 4.105469 L 9.121094 4.105469 L 9.121094 4.957031 L 4.273438 4.957031 Z M 4.273438 4.105469 " fill-opacity="1" fill-rule="nonzero"/><path fill="#000000" d="M 4.273438 5.992188 L 9.121094 5.992188 L 9.121094 6.84375 L 4.273438 6.84375 Z M 4.273438 5.992188 " fill-opacity="1" fill-rule="nonzero"/><path fill="#000000" d="M 5.863281 7.878906 L 9.121094 7.878906 L 9.121094 8.730469 L 5.863281 8.730469 Z M 5.863281 7.878906 " fill-opacity="1" fill-rule="nonzero"/><path fill="#000000" d="M 4.273438 7.878906 L 5.125 7.878906 L 5.125 8.730469 L 4.273438 8.730469 Z M 4.273438 7.878906 " fill-opacity="1" fill-rule="nonzero"/><path fill="#000000" d="M 4.273438 2.363281 L 6.910156 2.363281 L 6.910156 3.214844 L 4.273438 3.214844 Z M 4.273438 2.363281 " fill-opacity="1" fill-rule="nonzero"/><path fill="#000000" d="M 15.710938 10.855469 L 19.394531 10.855469 L 19.394531 15.929688 L 18.511719 15.929688 C 18.214844 15.929688 18.03125 16.25 18.179688 16.503906 L 19.488281 18.757812 C 19.636719 19.011719 20.007812 19.011719 20.15625 18.757812 L 21.464844 16.503906 C 21.613281 16.25 21.429688 15.929688 21.132812 15.929688 L 20.25 15.929688 L 20.25 10.855469 L 23.527344 10.855469 C 23.761719 10.855469 23.953125 10.664062 23.953125 10.429688 L 23.953125 2.789062 C 23.953125 2.78125 23.953125 2.773438 23.953125 2.769531 C 23.953125 2.757812 23.953125 2.75 23.953125 2.742188 C 23.953125 2.738281 23.953125 2.734375 23.953125 2.734375 C 23.949219 2.726562 23.949219 2.714844 23.945312 2.707031 C 23.945312 2.695312 23.941406 2.6875 23.941406 2.679688 C 23.941406 2.675781 23.9375 2.675781 23.9375 2.671875 C 23.9375 2.664062 23.933594 2.65625 23.929688 2.648438 C 23.929688 2.648438 23.929688 2.648438 23.929688 2.644531 C 23.925781 2.636719 23.921875 2.628906 23.921875 2.621094 C 23.917969 2.617188 23.917969 2.617188 23.917969 2.613281 C 23.914062 2.605469 23.910156 2.597656 23.90625 2.59375 C 23.90625 2.589844 23.90625 2.589844 23.90625 2.589844 C 23.902344 2.582031 23.894531 2.574219 23.890625 2.566406 C 23.890625 2.5625 23.886719 2.5625 23.886719 2.558594 C 23.882812 2.550781 23.878906 2.546875 23.871094 2.539062 C 23.871094 2.539062 23.871094 2.535156 23.871094 2.535156 C 23.867188 2.527344 23.859375 2.519531 23.855469 2.515625 C 23.851562 2.511719 23.851562 2.511719 23.847656 2.507812 C 23.84375 2.5 23.835938 2.496094 23.828125 2.488281 L 21.457031 0.132812 C 21.449219 0.125 21.445312 0.121094 21.4375 0.113281 C 21.433594 0.113281 21.433594 0.109375 21.429688 0.109375 C 21.421875 0.101562 21.417969 0.0976562 21.410156 0.0898438 C 21.410156 0.0898438 21.40625 0.0898438 21.40625 0.0898438 C 21.398438 0.0859375 21.394531 0.078125 21.386719 0.0742188 C 21.382812 0.0742188 21.382812 0.0742188 21.378906 0.0703125 C 21.371094 0.0664062 21.363281 0.0625 21.355469 0.0585938 C 21.355469 0.0585938 21.355469 0.0585938 21.351562 0.0546875 C 21.34375 0.0507812 21.339844 0.0507812 21.332031 0.046875 C 21.328125 0.0429688 21.324219 0.0429688 21.324219 0.0429688 C 21.316406 0.0390625 21.308594 0.0351562 21.296875 0.03125 C 21.289062 0.0273438 21.28125 0.0273438 21.273438 0.0234375 C 21.269531 0.0234375 21.265625 0.0234375 21.265625 0.0234375 C 21.257812 0.0195312 21.246094 0.0195312 21.238281 0.015625 C 21.226562 0.015625 21.21875 0.0117188 21.210938 0.0117188 C 21.207031 0.0117188 21.207031 0.0117188 21.203125 0.0117188 C 21.195312 0.0117188 21.1875 0.0078125 21.179688 0.0078125 C 21.175781 0.0078125 21.175781 0.0078125 21.175781 0.0078125 C 21.167969 0.0078125 21.160156 0.0078125 21.15625 0.0078125 L 15.710938 0.0078125 C 15.472656 0.0078125 15.28125 0.199219 15.28125 0.433594 L 15.28125 10.429688 C 15.28125 10.664062 15.472656 10.855469 15.710938 10.855469 Z M 22.488281 2.359375 L 21.582031 2.351562 L 21.582031 1.460938 Z M 16.136719 0.859375 L 20.726562 0.859375 L 20.726562 2.777344 C 20.726562 3.011719 20.917969 3.199219 21.152344 3.203125 L 23.097656 3.210938 L 23.097656 10.003906 L 16.136719 10.003906 Z M 16.136719 0.859375 " fill-opacity="1" fill-rule="nonzero"/><path fill="#000000" d="M 18.78125 4.105469 L 22.035156 4.105469 L 22.035156 4.957031 L 18.78125 4.957031 Z M 18.78125 4.105469 " fill-opacity="1" fill-rule="nonzero"/><path fill="#000000" d="M 17.1875 4.105469 L 18.042969 4.105469 L 18.042969 4.957031 L 17.1875 4.957031 Z M 17.1875 4.105469 " fill-opacity="1" fill-rule="nonzero"/><path fill="#000000" d="M 17.1875 5.992188 L 22.035156 5.992188 L 22.035156 6.84375 L 17.1875 6.84375 Z M 17.1875 5.992188 " fill-opacity="1" fill-rule="nonzero"/><path fill="#000000" d="M 17.1875 7.878906 L 22.035156 7.878906 L 22.035156 8.730469 L 17.1875 8.730469 Z M 17.1875 7.878906 " fill-opacity="1" fill-rule="nonzero"/><path fill="#000000" d="M 17.1875 2.363281 L 19.824219 2.363281 L 19.824219 3.214844 L 17.1875 3.214844 Z M 17.1875 2.363281 " fill-opacity="1" fill-rule="nonzero"/><g clip-path="url(#32a5ecc96d)"><path fill="#000000" d="M 36.867188 2.769531 C 36.867188 2.769531 36.867188 2.769531 36.867188 2.765625 C 36.867188 2.757812 36.867188 2.75 36.867188 2.738281 C 36.867188 2.738281 36.863281 2.734375 36.863281 2.734375 C 36.863281 2.722656 36.863281 2.714844 36.859375 2.707031 C 36.859375 2.695312 36.855469 2.6875 36.855469 2.679688 C 36.851562 2.675781 36.851562 2.675781 36.851562 2.671875 C 36.851562 2.664062 36.847656 2.65625 36.84375 2.648438 C 36.84375 2.648438 36.84375 2.648438 36.84375 2.644531 C 36.839844 2.636719 36.835938 2.628906 36.832031 2.621094 C 36.832031 2.617188 36.832031 2.617188 36.832031 2.613281 C 36.828125 2.605469 36.824219 2.597656 36.820312 2.59375 C 36.820312 2.589844 36.820312 2.589844 36.816406 2.589844 C 36.8125 2.582031 36.808594 2.574219 36.804688 2.566406 C 36.804688 2.5625 36.800781 2.5625 36.800781 2.558594 C 36.796875 2.550781 36.792969 2.542969 36.785156 2.539062 C 36.785156 2.539062 36.785156 2.535156 36.785156 2.535156 C 36.777344 2.527344 36.773438 2.519531 36.765625 2.515625 C 36.765625 2.511719 36.765625 2.511719 36.761719 2.507812 C 36.757812 2.5 36.75 2.496094 36.742188 2.488281 L 34.371094 0.132812 C 34.363281 0.125 34.355469 0.121094 34.351562 0.113281 C 34.347656 0.113281 34.347656 0.109375 34.34375 0.109375 C 34.335938 0.101562 34.332031 0.0976562 34.324219 0.0898438 C 34.320312 0.0898438 34.320312 0.0898438 34.320312 0.0898438 C 34.3125 0.0859375 34.304688 0.078125 34.300781 0.0742188 C 34.296875 0.0742188 34.296875 0.0742188 34.292969 0.0703125 C 34.285156 0.0664062 34.277344 0.0625 34.269531 0.0585938 C 34.269531 0.0585938 34.265625 0.0585938 34.265625 0.0546875 C 34.257812 0.0507812 34.25 0.0507812 34.246094 0.046875 C 34.242188 0.0429688 34.238281 0.0429688 34.238281 0.0429688 C 34.230469 0.0390625 34.21875 0.0351562 34.210938 0.03125 C 34.203125 0.0273438 34.195312 0.0273438 34.183594 0.0234375 C 34.183594 0.0234375 34.179688 0.0234375 34.179688 0.0234375 C 34.167969 0.0195312 34.160156 0.0195312 34.152344 0.015625 C 34.140625 0.015625 34.132812 0.0117188 34.125 0.0117188 C 34.121094 0.0117188 34.121094 0.0117188 34.117188 0.0117188 C 34.109375 0.0117188 34.101562 0.0078125 34.089844 0.0078125 C 34.082031 0.0078125 34.074219 0.0078125 34.066406 0.0078125 L 28.625 0.0078125 C 28.386719 0.0078125 28.195312 0.199219 28.195312 0.433594 L 28.195312 10.429688 C 28.195312 10.664062 28.386719 10.855469 28.625 10.855469 L 32.519531 10.855469 L 32.519531 11.789062 C 32.519531 12.429688 31.992188 12.949219 31.347656 12.949219 L 28.382812 12.949219 C 27.265625 12.949219 26.355469 13.855469 26.355469 14.964844 L 26.355469 15.929688 L 25.472656 15.929688 C 25.175781 15.929688 24.992188 16.25 25.140625 16.503906 L 26.449219 18.757812 C 26.597656 19.011719 26.96875 19.011719 27.117188 18.757812 L 28.425781 16.503906 C 28.574219 16.25 28.390625 15.929688 28.09375 15.929688 L 27.210938 15.929688 L 27.210938 14.964844 C 27.210938 14.324219 27.738281 13.800781 28.382812 13.800781 L 31.347656 13.800781 C 32.464844 13.800781 33.375 12.898438 33.375 11.789062 L 33.375 10.855469 L 36.441406 10.855469 C 36.675781 10.855469 36.867188 10.664062 36.867188 10.429688 L 36.867188 2.789062 C 36.867188 2.78125 36.867188 2.773438 36.867188 2.769531 Z M 35.398438 2.359375 L 34.496094 2.351562 L 34.496094 1.460938 Z M 29.050781 10.003906 L 29.050781 0.859375 L 33.640625 0.859375 L 33.640625 2.777344 C 33.640625 3.011719 33.828125 3.199219 34.066406 3.203125 L 36.011719 3.210938 L 36.011719 10.003906 Z M 29.050781 10.003906 " fill-opacity="1" fill-rule="nonzero"/></g><path fill="#000000" d="M 30.101562 4.105469 L 34.949219 4.105469 L 34.949219 4.957031 L 30.101562 4.957031 Z M 30.101562 4.105469 " fill-opacity="1" fill-rule="nonzero"/><path fill="#000000" d="M 34.066406 5.992188 L 34.949219 5.992188 L 34.949219 6.84375 L 34.066406 6.84375 Z M 34.066406 5.992188 " fill-opacity="1" fill-rule="nonzero"/><path fill="#000000" d="M 30.101562 5.992188 L 33.445312 5.992188 L 33.445312 6.84375 L 30.101562 6.84375 Z M 30.101562 5.992188 " fill-opacity="1" fill-rule="nonzero"/><path fill="#000000" d="M 30.101562 7.878906 L 34.949219 7.878906 L 34.949219 8.730469 L 30.101562 8.730469 Z M 30.101562 7.878906 " fill-opacity="1" fill-rule="nonzero"/><path fill="#000000" d="M 30.101562 2.363281 L 32.738281 2.363281 L 32.738281 3.214844 L 30.101562 3.214844 Z M 30.101562 2.363281 " fill-opacity="1" fill-rule="nonzero"/><g clip-path="url(#874d1d4062)"><path fill="#000000" d="M 6.269531 11.789062 C 6.269531 12.898438 7.179688 13.800781 8.296875 13.800781 L 11.261719 13.800781 C 11.90625 13.800781 12.433594 14.324219 12.433594 14.964844 L 12.433594 15.929688 L 11.550781 15.929688 C 11.253906 15.929688 11.070312 16.25 11.21875 16.503906 L 12.527344 18.757812 C 12.675781 19.011719 13.046875 19.011719 13.195312 18.757812 L 14.507812 16.503906 C 14.652344 16.25 14.46875 15.929688 14.171875 15.929688 L 13.289062 15.929688 L 13.289062 14.964844 C 13.289062 13.855469 12.378906 12.949219 11.261719 12.949219 L 8.296875 12.949219 C 7.652344 12.949219 7.125 12.429688 7.125 11.789062 L 7.125 10.855469 L 10.613281 10.855469 C 10.851562 10.855469 11.042969 10.664062 11.042969 10.429688 L 11.042969 2.789062 C 11.042969 2.78125 11.042969 2.777344 11.039062 2.769531 C 11.039062 2.769531 11.039062 2.769531 11.039062 2.765625 C 11.039062 2.757812 11.039062 2.75 11.039062 2.742188 C 11.039062 2.738281 11.039062 2.734375 11.039062 2.734375 C 11.035156 2.726562 11.035156 2.714844 11.035156 2.707031 C 11.03125 2.695312 11.03125 2.6875 11.027344 2.679688 C 11.027344 2.675781 11.027344 2.675781 11.023438 2.671875 C 11.023438 2.664062 11.019531 2.65625 11.019531 2.648438 C 11.015625 2.648438 11.015625 2.648438 11.015625 2.644531 C 11.015625 2.636719 11.011719 2.628906 11.007812 2.621094 C 11.003906 2.617188 11.003906 2.617188 11.003906 2.613281 C 11 2.605469 10.996094 2.597656 10.992188 2.59375 C 10.992188 2.589844 10.992188 2.589844 10.992188 2.589844 C 10.988281 2.582031 10.984375 2.574219 10.976562 2.566406 C 10.976562 2.5625 10.976562 2.5625 10.972656 2.558594 C 10.96875 2.550781 10.964844 2.546875 10.960938 2.539062 C 10.957031 2.539062 10.957031 2.535156 10.957031 2.535156 C 10.953125 2.527344 10.945312 2.519531 10.941406 2.515625 C 10.9375 2.511719 10.9375 2.511719 10.9375 2.507812 C 10.929688 2.5 10.921875 2.496094 10.917969 2.488281 L 8.542969 0.132812 C 8.535156 0.125 8.53125 0.121094 8.523438 0.113281 C 8.519531 0.113281 8.519531 0.109375 8.515625 0.109375 C 8.511719 0.101562 8.503906 0.0976562 8.496094 0.0898438 C 8.496094 0.0898438 8.492188 0.0898438 8.492188 0.0898438 C 8.488281 0.0859375 8.480469 0.078125 8.472656 0.0742188 C 8.46875 0.0742188 8.46875 0.0742188 8.464844 0.0703125 C 8.457031 0.0664062 8.449219 0.0625 8.441406 0.0585938 C 8.441406 0.0585938 8.441406 0.0585938 8.4375 0.0546875 C 8.433594 0.0507812 8.425781 0.0507812 8.417969 0.046875 C 8.414062 0.0429688 8.414062 0.0429688 8.410156 0.0429688 C 8.402344 0.0390625 8.394531 0.0351562 8.386719 0.03125 C 8.382812 0.03125 8.382812 0.03125 8.382812 0.03125 C 8.375 0.0273438 8.367188 0.0273438 8.359375 0.0234375 C 8.355469 0.0234375 8.355469 0.0234375 8.351562 0.0234375 C 8.34375 0.0195312 8.332031 0.0195312 8.324219 0.015625 C 8.316406 0.015625 8.304688 0.0117188 8.296875 0.0117188 C 8.292969 0.0117188 8.292969 0.0117188 8.289062 0.0117188 C 8.28125 0.0117188 8.273438 0.0078125 8.265625 0.0078125 C 8.261719 0.0078125 8.261719 0.0078125 8.261719 0.0078125 C 8.253906 0.0078125 8.25 0.0078125 8.242188 0.0078125 L 2.796875 0.0078125 C 2.558594 0.0078125 2.367188 0.199219 2.367188 0.433594 L 2.367188 10.429688 C 2.367188 10.664062 2.558594 10.855469 2.796875 10.855469 L 6.269531 10.855469 Z M 9.574219 2.359375 L 8.667969 2.351562 L 8.667969 1.460938 Z M 3.226562 0.859375 L 7.8125 0.859375 L 7.8125 2.777344 C 7.8125 3.011719 8.003906 3.199219 8.238281 3.203125 L 10.183594 3.210938 L 10.183594 10.003906 L 3.226562 10.003906 Z M 3.226562 0.859375 " fill-opacity="1" fill-rule="nonzero"/></g><path fill="#000000" d="M 26.726562 29.777344 C 26.464844 30.242188 26.402344 30.78125 26.546875 31.292969 C 26.796875 32.171875 27.605469 32.746094 28.480469 32.746094 C 28.660156 32.746094 28.84375 32.722656 29.027344 32.667969 C 30.09375 32.371094 30.714844 31.265625 30.410156 30.207031 C 30.265625 29.695312 29.925781 29.269531 29.457031 29.011719 C 28.992188 28.75 28.449219 28.6875 27.933594 28.832031 C 27.417969 28.976562 26.988281 29.3125 26.726562 29.777344 Z M 28.480469 29.53125 C 28.6875 29.53125 28.894531 29.582031 29.078125 29.6875 C 29.367188 29.84375 29.574219 30.105469 29.664062 30.417969 C 29.847656 31.066406 29.464844 31.742188 28.816406 31.925781 C 28.5 32.015625 28.167969 31.976562 27.878906 31.816406 C 27.59375 31.65625 27.386719 31.398438 27.296875 31.085938 C 27.207031 30.769531 27.246094 30.441406 27.40625 30.15625 C 27.566406 29.871094 27.828125 29.667969 28.144531 29.578125 C 28.253906 29.546875 28.367188 29.53125 28.480469 29.53125 Z M 28.480469 29.53125 " fill-opacity="1" fill-rule="nonzero"/></svg>