<svg xmlns="http://www.w3.org/2000/svg" xmlns:xlink="http://www.w3.org/1999/xlink" width="52" zoomAndPan="magnify" viewBox="0 0 39 38.999999" height="52" preserveAspectRatio="xMidYMid meet" version="1.0"><defs><clipPath id="4d4930ee4c"><path d="M 1.949219 0 L 9 0 L 9 7 L 1.949219 7 Z M 1.949219 0 " clip-rule="nonzero"/></clipPath><clipPath id="1fb95a6781"><path d="M 30 32 L 37.199219 32 L 37.199219 39 L 30 39 Z M 30 32 " clip-rule="nonzero"/></clipPath></defs><path fill="#000000" d="M 30.835938 36.167969 L 16.898438 36.167969 C 16.558594 36.167969 16.28125 35.894531 16.28125 35.558594 C 16.28125 35.21875 16.558594 34.949219 16.898438 34.949219 L 30.835938 34.949219 C 31.175781 34.949219 31.453125 35.21875 31.453125 35.558594 C 31.453125 35.894531 31.175781 36.167969 30.835938 36.167969 Z M 30.835938 36.167969 " fill-opacity="1" fill-rule="nonzero"/><path fill="#000000" d="M 11.195312 35.820312 C 11.136719 35.820312 11.078125 35.8125 11.015625 35.792969 C 9.265625 35.265625 7.691406 34.171875 6.585938 32.71875 C 5.441406 31.210938 4.835938 29.417969 4.835938 27.527344 C 4.835938 25.222656 5.742188 23.050781 7.390625 21.421875 C 8.160156 20.660156 9.054688 20.054688 10.046875 19.621094 C 10.359375 19.484375 10.71875 19.625 10.855469 19.933594 C 10.996094 20.242188 10.851562 20.601562 10.542969 20.734375 C 9.6875 21.109375 8.921875 21.628906 8.261719 22.28125 C 6.847656 23.683594 6.066406 25.546875 6.066406 27.527344 C 6.066406 30.820312 8.199219 33.671875 11.375 34.625 C 11.699219 34.722656 11.882812 35.066406 11.785156 35.386719 C 11.703125 35.648438 11.460938 35.820312 11.195312 35.820312 Z M 11.195312 35.820312 " fill-opacity="1" fill-rule="nonzero"/><path fill="#000000" d="M 28.855469 19.433594 C 28.621094 19.433594 28.394531 19.296875 28.292969 19.066406 C 28.15625 18.757812 28.296875 18.398438 28.609375 18.265625 C 29.460938 17.894531 30.226562 17.371094 30.890625 16.71875 C 32.304688 15.316406 33.082031 13.453125 33.082031 11.472656 C 33.082031 8.179688 30.949219 5.328125 27.773438 4.375 C 27.449219 4.277344 27.265625 3.933594 27.367188 3.613281 C 27.464844 3.292969 27.808594 3.109375 28.132812 3.207031 C 29.882812 3.734375 31.457031 4.828125 32.566406 6.28125 C 33.707031 7.789062 34.3125 9.582031 34.3125 11.472656 C 34.3125 13.777344 33.40625 15.949219 31.757812 17.578125 C 30.988281 18.339844 30.097656 18.945312 29.105469 19.378906 C 29.023438 19.414062 28.9375 19.433594 28.855469 19.433594 Z M 28.855469 19.433594 " fill-opacity="1" fill-rule="nonzero"/><path fill="#000000" d="M 22.253906 4.050781 L 8.3125 4.050781 C 7.972656 4.050781 7.699219 3.78125 7.699219 3.441406 C 7.699219 3.105469 7.972656 2.832031 8.3125 2.832031 L 22.253906 2.832031 C 22.59375 2.832031 22.867188 3.105469 22.867188 3.441406 C 22.867188 3.78125 22.59375 4.050781 22.253906 4.050781 Z M 22.253906 4.050781 " fill-opacity="1" fill-rule="nonzero"/><g clip-path="url(#4d4930ee4c)"><path fill="#000000" d="M 5.453125 6.886719 C 3.535156 6.886719 1.976562 5.339844 1.976562 3.441406 C 1.976562 1.542969 3.535156 0 5.453125 0 C 7.367188 0 8.929688 1.542969 8.929688 3.441406 C 8.929688 5.339844 7.367188 6.886719 5.453125 6.886719 Z M 5.453125 1.21875 C 4.214844 1.21875 3.207031 2.214844 3.207031 3.441406 C 3.207031 4.667969 4.214844 5.667969 5.453125 5.667969 C 6.691406 5.667969 7.699219 4.667969 7.699219 3.441406 C 7.699219 2.214844 6.691406 1.21875 5.453125 1.21875 Z M 5.453125 1.21875 " fill-opacity="1" fill-rule="nonzero"/></g><path fill="#000000" d="M 25.113281 6.886719 C 23.195312 6.886719 21.636719 5.339844 21.636719 3.441406 C 21.636719 1.542969 23.195312 0 25.113281 0 C 27.03125 0 28.589844 1.542969 28.589844 3.441406 C 28.589844 5.339844 27.03125 6.886719 25.113281 6.886719 Z M 25.113281 1.21875 C 23.875 1.21875 22.867188 2.214844 22.867188 3.441406 C 22.867188 4.667969 23.875 5.667969 25.113281 5.667969 C 26.351562 5.667969 27.359375 4.667969 27.359375 3.441406 C 27.359375 2.214844 26.351562 1.21875 25.113281 1.21875 Z M 25.113281 1.21875 " fill-opacity="1" fill-rule="nonzero"/><path fill="#000000" d="M 14.035156 39 C 12.117188 39 10.558594 37.457031 10.558594 35.558594 C 10.558594 33.660156 12.117188 32.113281 14.035156 32.113281 C 15.953125 32.113281 17.511719 33.660156 17.511719 35.558594 C 17.511719 37.457031 15.953125 39 14.035156 39 Z M 14.035156 33.332031 C 12.796875 33.332031 11.789062 34.332031 11.789062 35.558594 C 11.789062 36.785156 12.796875 37.78125 14.035156 37.78125 C 15.273438 37.78125 16.28125 36.785156 16.28125 35.558594 C 16.28125 34.332031 15.273438 33.332031 14.035156 33.332031 Z M 14.035156 33.332031 " fill-opacity="1" fill-rule="nonzero"/><g clip-path="url(#1fb95a6781)"><path fill="#000000" d="M 33.699219 39 C 31.78125 39 30.222656 37.457031 30.222656 35.558594 C 30.222656 33.660156 31.78125 32.113281 33.699219 32.113281 C 35.613281 32.113281 37.175781 33.660156 37.175781 35.558594 C 37.175781 37.457031 35.613281 39 33.699219 39 Z M 33.699219 33.332031 C 32.460938 33.332031 31.453125 34.332031 31.453125 35.558594 C 31.453125 36.785156 32.460938 37.78125 33.699219 37.78125 C 34.9375 37.78125 35.945312 36.785156 35.945312 35.558594 C 35.945312 34.332031 34.9375 33.332031 33.699219 33.332031 Z M 33.699219 33.332031 " fill-opacity="1" fill-rule="nonzero"/></g><path fill="#000000" d="M 21.171875 29.300781 L 17.976562 29.300781 C 17.636719 29.300781 17.363281 29.027344 17.363281 28.691406 L 17.363281 27.421875 C 16.707031 27.246094 16.074219 26.984375 15.480469 26.652344 L 14.578125 27.546875 C 14.335938 27.785156 13.945312 27.785156 13.707031 27.546875 L 11.449219 25.3125 C 11.332031 25.199219 11.269531 25.042969 11.269531 24.878906 C 11.269531 24.71875 11.332031 24.5625 11.449219 24.449219 L 12.355469 23.554688 C 12.015625 22.964844 11.753906 22.339844 11.574219 21.691406 L 10.292969 21.691406 C 9.953125 21.691406 9.679688 21.417969 9.679688 21.082031 L 9.679688 17.917969 C 9.679688 17.582031 9.953125 17.308594 10.292969 17.308594 L 11.574219 17.308594 C 11.753906 16.660156 12.015625 16.035156 12.355469 15.445312 L 11.449219 14.550781 C 11.332031 14.4375 11.269531 14.28125 11.269531 14.117188 C 11.269531 13.957031 11.332031 13.800781 11.449219 13.6875 L 13.707031 11.453125 C 13.820312 11.335938 13.976562 11.273438 14.140625 11.273438 C 14.304688 11.273438 14.460938 11.335938 14.578125 11.453125 L 15.480469 12.347656 C 16.074219 12.015625 16.707031 11.753906 17.363281 11.578125 L 17.363281 10.308594 C 17.363281 9.972656 17.636719 9.699219 17.976562 9.699219 L 21.171875 9.699219 C 21.511719 9.699219 21.785156 9.972656 21.785156 10.308594 L 21.785156 11.578125 C 22.445312 11.753906 23.074219 12.015625 23.667969 12.347656 L 24.574219 11.453125 C 24.6875 11.335938 24.84375 11.273438 25.007812 11.273438 C 25.171875 11.273438 25.328125 11.335938 25.445312 11.453125 L 27.703125 13.6875 C 27.941406 13.925781 27.941406 14.3125 27.703125 14.550781 L 26.796875 15.445312 C 27.132812 16.035156 27.394531 16.660156 27.574219 17.308594 L 28.855469 17.308594 C 29.195312 17.308594 29.472656 17.582031 29.472656 17.917969 L 29.472656 21.082031 C 29.472656 21.417969 29.195312 21.691406 28.855469 21.691406 L 27.574219 21.691406 C 27.394531 22.339844 27.132812 22.964844 26.796875 23.554688 L 27.703125 24.449219 C 27.941406 24.6875 27.941406 25.074219 27.703125 25.3125 L 25.445312 27.546875 C 25.203125 27.785156 24.8125 27.785156 24.574219 27.546875 L 23.667969 26.652344 C 23.074219 26.984375 22.445312 27.242188 21.785156 27.421875 L 21.785156 28.691406 C 21.785156 29.027344 21.511719 29.300781 21.171875 29.300781 Z M 18.59375 28.082031 L 20.554688 28.082031 L 20.554688 26.945312 C 20.554688 26.65625 20.761719 26.40625 21.042969 26.347656 C 21.894531 26.171875 22.695312 25.84375 23.425781 25.371094 C 23.667969 25.214844 23.992188 25.246094 24.195312 25.449219 L 25.007812 26.253906 L 26.394531 24.882812 L 25.585938 24.078125 C 25.378906 23.871094 25.34375 23.554688 25.503906 23.3125 C 25.980469 22.589844 26.3125 21.796875 26.492188 20.957031 C 26.550781 20.671875 26.800781 20.472656 27.09375 20.472656 L 28.242188 20.472656 L 28.242188 18.527344 L 27.09375 18.527344 C 26.800781 18.527344 26.550781 18.328125 26.492188 18.042969 C 26.3125 17.203125 25.980469 16.410156 25.503906 15.6875 C 25.34375 15.445312 25.378906 15.128906 25.585938 14.921875 L 26.394531 14.117188 L 25.007812 12.746094 L 24.195312 13.550781 C 23.992188 13.753906 23.667969 13.785156 23.425781 13.628906 C 22.695312 13.15625 21.894531 12.828125 21.042969 12.652344 C 20.761719 12.589844 20.554688 12.34375 20.554688 12.054688 L 20.554688 10.917969 L 18.59375 10.917969 L 18.59375 12.054688 C 18.59375 12.34375 18.390625 12.589844 18.105469 12.652344 C 17.253906 12.828125 16.453125 13.15625 15.722656 13.628906 C 15.480469 13.785156 15.160156 13.753906 14.953125 13.550781 L 14.140625 12.746094 L 12.753906 14.117188 L 13.566406 14.921875 C 13.769531 15.128906 13.804688 15.445312 13.644531 15.6875 C 13.171875 16.410156 12.839844 17.203125 12.660156 18.042969 C 12.597656 18.328125 12.347656 18.527344 12.058594 18.527344 L 10.910156 18.527344 L 10.910156 20.472656 L 12.058594 20.472656 C 12.347656 20.472656 12.597656 20.671875 12.660156 20.957031 C 12.839844 21.796875 13.171875 22.589844 13.644531 23.3125 C 13.804688 23.554688 13.769531 23.871094 13.566406 24.078125 L 12.753906 24.882812 L 14.140625 26.253906 L 14.953125 25.449219 C 15.160156 25.246094 15.480469 25.214844 15.722656 25.371094 C 16.453125 25.84375 17.253906 26.171875 18.105469 26.347656 C 18.390625 26.40625 18.59375 26.65625 18.59375 26.945312 Z M 18.59375 28.082031 " fill-opacity="1" fill-rule="nonzero"/><path fill="#000000" d="M 29.375 30.90625 C 28.9375 30.90625 28.496094 30.738281 28.164062 30.40625 L 24.925781 27.199219 C 24.683594 26.960938 24.683594 26.578125 24.925781 26.339844 C 25.164062 26.101562 25.554688 26.101562 25.792969 26.339844 L 29.03125 29.546875 C 29.222656 29.734375 29.53125 29.734375 29.71875 29.546875 C 29.910156 29.359375 29.910156 29.054688 29.71875 28.867188 L 26.480469 25.660156 C 26.242188 25.421875 26.242188 25.035156 26.480469 24.796875 C 26.722656 24.558594 27.109375 24.558594 27.351562 24.796875 L 30.589844 28.003906 C 31.257812 28.667969 31.257812 29.746094 30.589844 30.40625 C 30.253906 30.738281 29.816406 30.90625 29.375 30.90625 Z M 29.375 30.90625 " fill-opacity="1" fill-rule="nonzero"/><path fill="#000000" d="M 19.574219 25.378906 C 16.304688 25.378906 13.640625 22.742188 13.640625 19.5 C 13.640625 16.257812 16.304688 13.621094 19.574219 13.621094 C 22.847656 13.621094 25.507812 16.257812 25.507812 19.5 C 25.507812 22.742188 22.847656 25.378906 19.574219 25.378906 Z M 19.574219 14.839844 C 16.980469 14.839844 14.871094 16.929688 14.871094 19.5 C 14.871094 22.070312 16.980469 24.160156 19.574219 24.160156 C 22.167969 24.160156 24.277344 22.070312 24.277344 19.5 C 24.277344 16.929688 22.167969 14.839844 19.574219 14.839844 Z M 19.574219 14.839844 " fill-opacity="1" fill-rule="nonzero"/><path fill="#000000" d="M 18.601562 21.582031 C 18.445312 21.582031 18.289062 21.519531 18.167969 21.402344 L 17.140625 20.386719 C 16.898438 20.148438 16.898438 19.761719 17.140625 19.523438 C 17.382812 19.285156 17.769531 19.285156 18.011719 19.523438 L 18.601562 20.109375 L 21.140625 17.597656 C 21.378906 17.359375 21.769531 17.359375 22.007812 17.597656 C 22.25 17.835938 22.25 18.222656 22.007812 18.460938 L 19.039062 21.402344 C 18.917969 21.519531 18.761719 21.582031 18.601562 21.582031 Z M 18.601562 21.582031 " fill-opacity="1" fill-rule="nonzero"/></svg>