<svg xmlns="http://www.w3.org/2000/svg" xmlns:xlink="http://www.w3.org/1999/xlink" width="52" zoomAndPan="magnify" viewBox="0 0 39 38.999999" height="52" preserveAspectRatio="xMidYMid meet" version="1.0"><path fill="#000000" d="M 38.390625 14.492188 L 35.988281 14.492188 C 35.613281 12.863281 34.980469 11.324219 34.101562 9.902344 L 35.800781 8.191406 C 36.039062 7.953125 36.039062 7.566406 35.800781 7.328125 L 31.726562 3.222656 C 31.488281 2.984375 31.105469 2.984375 30.867188 3.222656 L 29.167969 4.933594 C 27.757812 4.050781 26.230469 3.410156 24.613281 3.03125 L 24.613281 0.613281 C 24.613281 0.273438 24.34375 0 24.007812 0 L 18.246094 0 C 17.910156 0 17.636719 0.273438 17.636719 0.613281 L 17.636719 3.03125 C 16.023438 3.410156 14.496094 4.050781 13.082031 4.933594 L 11.382812 3.222656 C 11.148438 2.984375 10.761719 2.984375 10.527344 3.222656 L 6.453125 7.328125 C 6.335938 7.441406 6.273438 7.597656 6.273438 7.757812 C 6.273438 7.921875 6.335938 8.078125 6.453125 8.191406 L 8.152344 9.902344 C 7.273438 11.328125 6.640625 12.867188 6.261719 14.492188 L 3.859375 14.492188 C 3.527344 14.492188 3.253906 14.765625 3.253906 15.105469 L 3.253906 20.910156 C 3.253906 21.25 3.527344 21.523438 3.859375 21.523438 L 6.265625 21.523438 C 6.671875 23.230469 7.46875 25.183594 8.355469 26.652344 L 1.15625 33.90625 C 0 35.070312 0 36.964844 1.15625 38.128906 C 1.734375 38.710938 2.492188 39 3.25 39 C 4.011719 39 4.769531 38.710938 5.347656 38.128906 L 12.511719 30.910156 C 13.941406 31.777344 15.886719 32.566406 17.636719 32.984375 L 17.636719 35.402344 C 17.636719 35.742188 17.910156 36.015625 18.246094 36.015625 L 24.007812 36.015625 C 24.34375 36.015625 24.613281 35.742188 24.613281 35.402344 L 24.613281 32.984375 C 26.230469 32.601562 27.757812 31.964844 29.167969 31.082031 L 30.867188 32.792969 C 30.980469 32.90625 31.136719 32.972656 31.296875 32.972656 C 31.457031 32.972656 31.613281 32.90625 31.726562 32.792969 L 35.800781 28.6875 C 35.914062 28.574219 35.980469 28.417969 35.980469 28.253906 C 35.980469 28.09375 35.914062 27.9375 35.800781 27.824219 L 34.101562 26.109375 C 34.980469 24.6875 35.613281 23.148438 35.988281 21.523438 L 38.390625 21.523438 C 38.726562 21.523438 39 21.246094 39 20.910156 L 39 15.105469 C 39 14.765625 38.726562 14.492188 38.390625 14.492188 Z M 4.488281 37.261719 C 3.808594 37.949219 2.695312 37.949219 2.015625 37.261719 C 1.332031 36.578125 1.332031 35.457031 2.015625 34.769531 L 7.273438 29.472656 L 9.75 31.964844 Z M 10.605469 31.097656 L 8.132812 28.605469 L 9.421875 27.308594 L 11.894531 29.800781 Z M 10.578125 18.007812 C 10.578125 12.144531 15.308594 7.378906 21.125 7.378906 C 26.945312 7.378906 31.675781 12.144531 31.675781 18.007812 C 31.675781 23.867188 26.945312 28.636719 21.125 28.636719 C 15.308594 28.636719 10.578125 23.867188 10.578125 18.007812 Z M 13.339844 26.886719 L 12.027344 28.207031 L 11.003906 27.175781 L 12.316406 25.851562 C 12.636719 26.21875 12.976562 26.5625 13.339844 26.886719 Z M 37.785156 20.296875 L 35.5 20.296875 C 35.210938 20.296875 34.960938 20.503906 34.90625 20.789062 C 34.546875 22.605469 33.84375 24.308594 32.820312 25.855469 C 32.660156 26.097656 32.691406 26.421875 32.898438 26.628906 L 34.511719 28.253906 L 31.296875 31.496094 L 29.679688 29.867188 C 29.476562 29.660156 29.15625 29.628906 28.914062 29.789062 C 27.382812 30.820312 25.691406 31.527344 23.886719 31.890625 C 23.605469 31.945312 23.398438 32.199219 23.398438 32.488281 L 23.398438 34.792969 L 18.851562 34.792969 L 18.851562 32.488281 C 18.851562 32.199219 18.648438 31.945312 18.363281 31.890625 C 16.671875 31.550781 14.699219 30.789062 13.265625 29.9375 C 13.273438 29.894531 13.277344 29.847656 13.277344 29.800781 C 13.277344 29.585938 13.191406 29.378906 13.039062 29.226562 L 12.886719 29.070312 L 14.296875 27.652344 C 16.222656 29.042969 18.582031 29.859375 21.125 29.859375 C 27.613281 29.859375 32.890625 24.542969 32.890625 18.007812 C 32.890625 11.472656 27.613281 6.152344 21.125 6.152344 C 14.640625 6.152344 9.363281 11.472656 9.363281 18.007812 C 9.363281 20.570312 10.175781 22.949219 11.554688 24.890625 L 10.144531 26.308594 L 9.992188 26.15625 C 9.839844 26 9.636719 25.917969 9.421875 25.917969 C 9.390625 25.917969 9.363281 25.917969 9.335938 25.921875 C 8.453125 24.433594 7.675781 22.445312 7.347656 20.789062 C 7.292969 20.503906 7.042969 20.296875 6.753906 20.296875 L 4.46875 20.296875 L 4.46875 15.714844 L 6.753906 15.714844 C 7.042969 15.714844 7.292969 15.511719 7.347656 15.222656 C 7.707031 13.410156 8.40625 11.703125 9.429688 10.160156 C 9.59375 9.917969 9.558594 9.59375 9.355469 9.386719 L 7.738281 7.757812 L 10.957031 4.519531 L 12.570312 6.148438 C 12.777344 6.355469 13.097656 6.386719 13.335938 6.222656 C 14.871094 5.191406 16.5625 4.488281 18.363281 4.125 C 18.648438 4.066406 18.851562 3.816406 18.851562 3.523438 L 18.851562 1.222656 L 23.398438 1.222656 L 23.398438 3.523438 C 23.398438 3.816406 23.605469 4.066406 23.890625 4.125 C 25.691406 4.488281 27.382812 5.191406 28.914062 6.222656 C 29.15625 6.386719 29.476562 6.355469 29.679688 6.148438 L 31.296875 4.519531 L 34.511719 7.757812 L 32.898438 9.386719 C 32.691406 9.59375 32.660156 9.917969 32.820312 10.160156 C 33.84375 11.703125 34.546875 13.40625 34.90625 15.222656 C 34.960938 15.511719 35.210938 15.714844 35.5 15.714844 L 37.785156 15.714844 Z M 29.957031 18.007812 C 29.957031 13.101562 25.996094 9.109375 21.125 9.109375 C 16.257812 9.109375 12.296875 13.101562 12.296875 18.007812 C 12.296875 22.914062 16.257812 26.90625 21.125 26.90625 C 25.996094 26.90625 29.957031 22.914062 29.957031 18.007812 Z M 21.125 25.679688 C 16.925781 25.679688 13.511719 22.238281 13.511719 18.007812 C 13.511719 13.777344 16.925781 10.332031 21.125 10.332031 C 25.324219 10.332031 28.742188 13.777344 28.742188 18.007812 C 28.742188 22.238281 25.324219 25.679688 21.125 25.679688 Z M 26.117188 14.164062 C 25.335938 13.378906 24.066406 13.382812 23.285156 14.171875 L 19.933594 17.578125 L 18.941406 16.605469 C 18.558594 16.230469 18.054688 16.027344 17.519531 16.035156 C 16.984375 16.042969 16.484375 16.257812 16.109375 16.644531 C 15.339844 17.441406 15.359375 18.722656 16.148438 19.496094 L 18.5625 21.867188 C 18.949219 22.246094 19.453125 22.4375 19.957031 22.4375 C 20.472656 22.4375 20.988281 22.238281 21.378906 21.84375 L 26.125 17.015625 C 26.503906 16.632812 26.710938 16.125 26.710938 15.585938 C 26.707031 15.046875 26.496094 14.542969 26.117188 14.164062 Z M 25.265625 16.152344 L 20.519531 20.980469 C 20.214844 21.289062 19.71875 21.292969 19.410156 20.992188 L 16.996094 18.621094 C 16.683594 18.316406 16.679688 17.8125 16.980469 17.496094 C 17.128906 17.34375 17.324219 17.261719 17.535156 17.257812 C 17.539062 17.257812 17.542969 17.257812 17.546875 17.257812 C 17.753906 17.257812 17.949219 17.335938 18.09375 17.480469 L 19.519531 18.878906 C 19.757812 19.113281 20.136719 19.109375 20.375 18.871094 L 24.148438 15.03125 C 24.453125 14.722656 24.953125 14.722656 25.261719 15.03125 C 25.410156 15.179688 25.492188 15.378906 25.496094 15.589844 C 25.496094 15.804688 25.414062 16.003906 25.265625 16.152344 Z M 25.265625 16.152344 " fill-opacity="1" fill-rule="nonzero"/></svg>