<svg xmlns="http://www.w3.org/2000/svg" xmlns:xlink="http://www.w3.org/1999/xlink" width="52" zoomAndPan="magnify" viewBox="0 0 39 38.999999" height="52" preserveAspectRatio="xMidYMid meet" version="1.0"><defs><clipPath id="218df31090"><path d="M 0.78125 0 L 39 0 L 39 39 L 0.78125 39 Z M 0.78125 0 " clip-rule="nonzero"/></clipPath></defs><g clip-path="url(#218df31090)"><path fill="#000000" d="M 6.554688 29.433594 C 6.554688 29.769531 6.28125 30.039062 5.945312 30.039062 L 3.863281 30.039062 C 3.527344 30.039062 3.257812 29.769531 3.257812 29.433594 C 3.257812 29.097656 3.527344 28.824219 3.863281 28.824219 L 5.945312 28.824219 C 6.28125 28.824219 6.554688 29.097656 6.554688 29.433594 Z M 23.640625 35.636719 L 8.949219 35.636719 C 8.613281 35.636719 8.339844 35.90625 8.339844 36.242188 C 8.339844 36.578125 8.613281 36.851562 8.949219 36.851562 L 23.640625 36.851562 C 23.976562 36.851562 24.25 36.578125 24.25 36.242188 C 24.25 35.90625 23.976562 35.636719 23.640625 35.636719 Z M 5.945312 32.230469 L 3.863281 32.230469 C 3.527344 32.230469 3.257812 32.503906 3.257812 32.839844 C 3.257812 33.171875 3.527344 33.445312 3.863281 33.445312 L 5.945312 33.445312 C 6.28125 33.445312 6.554688 33.171875 6.554688 32.839844 C 6.554688 32.503906 6.28125 32.230469 5.945312 32.230469 Z M 5.945312 35.636719 L 3.863281 35.636719 C 3.527344 35.636719 3.257812 35.90625 3.257812 36.242188 C 3.257812 36.578125 3.527344 36.851562 3.863281 36.851562 L 5.945312 36.851562 C 6.28125 36.851562 6.554688 36.578125 6.554688 36.242188 C 6.554688 35.90625 6.28125 35.636719 5.945312 35.636719 Z M 5.945312 25.421875 L 3.863281 25.421875 C 3.527344 25.421875 3.257812 25.695312 3.257812 26.03125 C 3.257812 26.367188 3.527344 26.636719 3.863281 26.636719 L 5.945312 26.636719 C 6.28125 26.636719 6.554688 26.367188 6.554688 26.03125 C 6.554688 25.695312 6.28125 25.421875 5.945312 25.421875 Z M 13.757812 20.046875 L 13.746094 20.046875 C 13.410156 20.046875 13.136719 20.316406 13.136719 20.652344 C 13.136719 20.988281 13.410156 21.261719 13.746094 21.261719 L 13.757812 21.261719 C 14.09375 21.261719 14.367188 20.988281 14.367188 20.652344 C 14.367188 20.316406 14.09375 20.046875 13.757812 20.046875 Z M 13.753906 19.269531 C 14.089844 19.269531 14.359375 18.996094 14.359375 18.660156 L 14.359375 14.90625 C 14.359375 14.570312 14.089844 14.300781 13.753906 14.300781 C 13.417969 14.300781 13.144531 14.570312 13.144531 14.90625 L 13.144531 18.660156 C 13.144531 18.996094 13.417969 19.269531 13.753906 19.269531 Z M 8.949219 28.824219 C 8.613281 28.824219 8.339844 29.097656 8.339844 29.433594 C 8.339844 29.769531 8.613281 30.039062 8.949219 30.039062 L 23.640625 30.039062 C 23.976562 30.039062 24.25 29.769531 24.25 29.433594 C 24.25 29.097656 23.976562 28.824219 23.640625 28.824219 Z M 23.640625 32.230469 L 8.949219 32.230469 C 8.613281 32.230469 8.339844 32.503906 8.339844 32.839844 C 8.339844 33.171875 8.613281 33.445312 8.949219 33.445312 L 23.640625 33.445312 C 23.976562 33.445312 24.25 33.171875 24.25 32.839844 C 24.25 32.503906 23.976562 32.230469 23.640625 32.230469 Z M 37.050781 37.640625 C 36.578125 37.914062 36.050781 38.054688 35.515625 38.054688 C 35.246094 38.054688 34.972656 38.019531 34.707031 37.945312 C 33.90625 37.734375 33.242188 37.222656 32.828125 36.511719 L 29.859375 31.371094 C 29.78125 31.230469 29.757812 31.066406 29.800781 30.910156 C 29.839844 30.753906 29.941406 30.621094 30.082031 30.539062 L 30.328125 30.398438 L 28.542969 27.3125 C 27.945312 27.488281 27.335938 27.601562 26.722656 27.65625 L 26.722656 36.890625 C 26.722656 38.039062 25.789062 38.976562 24.636719 38.976562 L 2.867188 38.976562 C 1.71875 38.976562 0.78125 38.039062 0.78125 36.890625 L 0.78125 7.269531 C 0.78125 6.121094 1.71875 5.1875 2.867188 5.1875 L 8.117188 5.1875 L 8.117188 3.894531 C 8.117188 3.558594 8.390625 3.285156 8.726562 3.285156 L 10.160156 3.285156 C 10.332031 1.457031 11.878906 0.0234375 13.753906 0.0234375 C 15.625 0.0234375 17.171875 1.457031 17.34375 3.285156 L 18.777344 3.285156 C 19.113281 3.285156 19.386719 3.558594 19.386719 3.894531 L 19.386719 5.1875 L 24.636719 5.1875 C 25.785156 5.1875 26.722656 6.121094 26.722656 7.269531 L 26.722656 9 C 27.257812 9.050781 27.789062 9.144531 28.316406 9.285156 C 30.734375 9.933594 32.753906 11.484375 34.007812 13.648438 C 35.257812 15.816406 35.589844 18.339844 34.945312 20.753906 C 34.488281 22.449219 33.59375 23.945312 32.351562 25.121094 L 34.132812 28.203125 L 34.378906 28.0625 C 34.519531 27.984375 34.683594 27.960938 34.839844 28.003906 C 34.996094 28.042969 35.128906 28.144531 35.210938 28.285156 L 38.179688 33.429688 C 39.03125 34.898438 38.523438 36.789062 37.050781 37.640625 Z M 9.335938 7.453125 L 18.167969 7.453125 L 18.167969 4.503906 L 16.742188 4.503906 C 16.570312 4.503906 16.410156 4.433594 16.296875 4.308594 C 16.179688 4.183594 16.121094 4.019531 16.132812 3.851562 C 16.140625 3.765625 16.144531 3.695312 16.144531 3.628906 C 16.144531 2.3125 15.070312 1.238281 13.753906 1.238281 C 12.433594 1.238281 11.363281 2.3125 11.363281 3.628906 C 11.363281 3.699219 11.363281 3.765625 11.371094 3.835938 C 11.386719 4.007812 11.332031 4.175781 11.214844 4.304688 C 11.101562 4.429688 10.9375 4.503906 10.765625 4.503906 L 9.335938 4.503906 Z M 25.507812 27.683594 C 24.136719 27.625 22.792969 27.265625 21.574219 26.636719 L 8.949219 26.636719 C 8.609375 26.636719 8.339844 26.367188 8.339844 26.03125 C 8.339844 25.695312 8.613281 25.421875 8.949219 25.421875 L 19.769531 25.421875 C 19.238281 24.964844 18.757812 24.445312 18.332031 23.863281 L 6.867188 23.863281 C 6.367188 23.863281 5.921875 23.605469 5.671875 23.167969 C 5.425781 22.734375 5.429688 22.21875 5.6875 21.789062 L 12.570312 10.246094 C 12.824219 9.824219 13.265625 9.574219 13.753906 9.574219 C 14.238281 9.574219 14.683594 9.824219 14.933594 10.242188 L 17.394531 14.371094 C 18.199219 12.636719 19.515625 11.195312 21.203125 10.222656 C 22.539062 9.453125 24.007812 9.03125 25.507812 8.96875 L 25.507812 7.269531 C 25.507812 6.792969 25.117188 6.402344 24.636719 6.402344 L 19.386719 6.402344 L 19.386719 8.058594 C 19.386719 8.394531 19.113281 8.667969 18.777344 8.667969 L 8.726562 8.667969 C 8.390625 8.667969 8.117188 8.394531 8.117188 8.058594 L 8.117188 6.402344 L 2.867188 6.402344 C 2.390625 6.402344 2 6.792969 2 7.269531 L 2 36.890625 C 2 37.371094 2.386719 37.761719 2.867188 37.761719 L 24.636719 37.761719 C 25.117188 37.761719 25.503906 37.371094 25.503906 36.890625 L 25.503906 27.683594 Z M 16.835938 15.90625 C 16.84375 15.886719 16.847656 15.863281 16.855469 15.839844 L 13.886719 10.867188 C 13.855469 10.816406 13.816406 10.792969 13.753906 10.792969 C 13.6875 10.792969 13.648438 10.816406 13.617188 10.871094 L 6.730469 22.410156 C 6.699219 22.464844 6.699219 22.511719 6.730469 22.566406 C 6.761719 22.625 6.804688 22.648438 6.867188 22.648438 L 17.574219 22.648438 C 16.488281 20.566406 16.226562 18.1875 16.835938 15.90625 Z M 28.648438 26 C 29.101562 25.835938 29.542969 25.632812 29.96875 25.386719 C 30.394531 25.140625 30.792969 24.859375 31.160156 24.550781 C 31.171875 24.539062 31.183594 24.53125 31.195312 24.519531 C 32.441406 23.460938 33.335938 22.050781 33.769531 20.441406 C 34.332031 18.335938 34.042969 16.140625 32.953125 14.257812 C 31.863281 12.371094 30.105469 11.023438 28.003906 10.460938 C 27.378906 10.292969 26.75 10.199219 26.121094 10.183594 C 26.121094 10.183594 26.117188 10.183594 26.117188 10.183594 C 26.113281 10.183594 26.109375 10.183594 26.105469 10.183594 C 26.027344 10.179688 25.953125 10.179688 25.878906 10.179688 C 24.464844 10.179688 23.070312 10.546875 21.8125 11.273438 C 19.925781 12.363281 18.578125 14.117188 18.011719 16.21875 C 17.449219 18.324219 17.738281 20.519531 18.828125 22.402344 C 19.59375 23.726562 20.6875 24.78125 22 25.492188 C 22 25.492188 22.003906 25.492188 22.003906 25.496094 C 22.558594 25.792969 23.15625 26.03125 23.78125 26.199219 C 24.53125 26.398438 25.292969 26.492188 26.050781 26.476562 C 26.070312 26.476562 26.09375 26.472656 26.113281 26.472656 C 26.125 26.472656 26.136719 26.472656 26.148438 26.476562 C 26.980469 26.449219 27.808594 26.292969 28.601562 26.015625 C 28.617188 26.011719 28.632812 26.003906 28.648438 26 Z M 31.382812 29.792969 L 33.078125 28.8125 L 31.402344 25.90625 C 31.136719 26.097656 30.863281 26.277344 30.578125 26.441406 C 30.292969 26.605469 30 26.753906 29.703125 26.886719 Z M 37.125 34.035156 L 34.460938 29.421875 L 31.21875 31.289062 L 33.886719 35.902344 C 34.132812 36.335938 34.539062 36.644531 35.023438 36.773438 C 35.507812 36.902344 36.011719 36.835938 36.441406 36.589844 C 36.875 36.339844 37.183594 35.9375 37.3125 35.453125 C 37.441406 34.96875 37.375 34.464844 37.125 34.035156 Z M 29.261719 24.164062 C 28.222656 24.761719 27.070312 25.066406 25.902344 25.066406 C 25.316406 25.066406 24.726562 24.992188 24.144531 24.835938 C 22.40625 24.371094 20.953125 23.253906 20.054688 21.695312 C 19.152344 20.140625 18.914062 18.324219 19.378906 16.585938 C 19.84375 14.851562 20.960938 13.398438 22.519531 12.5 C 25.738281 10.640625 29.867188 11.746094 31.726562 14.960938 C 33.585938 18.179688 32.476562 22.304688 29.261719 24.164062 Z M 30.675781 15.570312 C 29.9375 14.292969 28.746094 13.382812 27.320312 13 C 26.84375 12.875 26.363281 12.808594 25.882812 12.808594 C 24.925781 12.808594 23.980469 13.0625 23.128906 13.550781 C 21.851562 14.289062 20.9375 15.476562 20.554688 16.902344 C 20.171875 18.324219 20.371094 19.8125 21.109375 21.089844 C 21.84375 22.367188 23.035156 23.277344 24.460938 23.660156 C 25.886719 24.042969 27.375 23.847656 28.652344 23.109375 C 31.289062 21.585938 32.195312 18.207031 30.675781 15.570312 Z M 30.675781 15.570312 " fill-opacity="1" fill-rule="nonzero"/></g></svg>