<svg xmlns="http://www.w3.org/2000/svg" xmlns:xlink="http://www.w3.org/1999/xlink" width="52" zoomAndPan="magnify" viewBox="0 0 39 38.999999" height="52" preserveAspectRatio="xMidYMid meet" version="1.0"><defs><clipPath id="bdb7f52332"><path d="M 0 2 L 39 2 L 39 37.199219 L 0 37.199219 Z M 0 2 " clip-rule="nonzero"/></clipPath></defs><g clip-path="url(#bdb7f52332)"><path fill="#000000" d="M 23.453125 29.921875 L 17.785156 31.457031 C 17.65625 31.492188 17.527344 31.519531 17.398438 31.535156 C 17.4375 31.476562 17.476562 31.417969 17.511719 31.355469 C 18.0625 30.410156 17.742188 29.183594 16.785156 28.566406 C 16.761719 28.550781 16.738281 28.539062 16.710938 28.527344 C 15.382812 27.902344 14.136719 27.039062 13.132812 26.339844 C 12.78125 26.097656 12.449219 25.867188 12.160156 25.679688 C 10.957031 24.902344 9.640625 25.105469 8.511719 25.410156 L 4.472656 26.492188 L 4.335938 25.96875 C 4.148438 25.238281 3.394531 24.796875 2.660156 24.984375 L 1.078125 25.394531 C 0.722656 25.484375 0.425781 25.710938 0.238281 26.023438 C 0.0507812 26.339844 0 26.710938 0.0898438 27.0625 L 2.21875 35.257812 C 2.378906 35.871094 2.941406 36.28125 3.550781 36.28125 C 3.664062 36.28125 3.78125 36.269531 3.894531 36.238281 L 5.480469 35.832031 C 6.214844 35.640625 6.65625 34.894531 6.464844 34.164062 L 6.289062 33.488281 L 7.007812 33.296875 L 12.773438 36.609375 C 13.425781 36.984375 14.125 37.175781 14.832031 37.175781 C 15.222656 37.175781 15.617188 37.117188 16.007812 37 L 26.371094 33.917969 C 27.402344 33.613281 28.054688 32.324219 27.738281 31.21875 C 27.585938 30.683594 26.824219 29.007812 23.453125 29.921875 Z M 5.164062 34.621094 L 3.582031 35.027344 C 3.519531 35.042969 3.449219 35.007812 3.433594 34.945312 L 1.304688 26.75 C 1.296875 26.710938 1.308594 26.679688 1.320312 26.660156 C 1.332031 26.640625 1.351562 26.613281 1.390625 26.605469 L 2.976562 26.195312 C 2.984375 26.195312 2.996094 26.191406 3.003906 26.191406 C 3.058594 26.191406 3.109375 26.230469 3.121094 26.28125 L 5.25 34.476562 C 5.265625 34.539062 5.226562 34.605469 5.164062 34.621094 Z M 26.011719 32.722656 L 15.648438 35.804688 C 14.875 36.03125 14.117188 35.941406 13.402344 35.527344 L 7.410156 32.082031 C 7.265625 32 7.097656 31.976562 6.933594 32.019531 L 5.976562 32.277344 L 4.785156 27.703125 L 8.839844 26.617188 C 10.074219 26.285156 10.839844 26.316406 11.476562 26.730469 C 11.746094 26.902344 12.054688 27.117188 12.414062 27.367188 C 13.445312 28.082031 14.726562 28.972656 16.132812 29.636719 C 16.511719 29.902344 16.636719 30.363281 16.425781 30.730469 C 16.199219 31.121094 15.835938 31.21875 15.339844 31.023438 C 14.664062 30.6875 14.035156 30.3125 13.371094 29.917969 C 13.054688 29.726562 12.722656 29.53125 12.382812 29.332031 C 12.082031 29.160156 11.699219 29.265625 11.527344 29.5625 C 11.351562 29.863281 11.453125 30.242188 11.753906 30.417969 C 12.085938 30.605469 12.410156 30.800781 12.726562 30.988281 C 13.421875 31.402344 14.074219 31.792969 14.800781 32.15625 C 14.804688 32.15625 14.820312 32.164062 14.824219 32.167969 L 15.40625 32.425781 C 16.320312 32.832031 17.203125 32.910156 18.113281 32.664062 L 23.78125 31.128906 C 25.285156 30.722656 26.335938 30.886719 26.53125 31.558594 C 26.660156 32.011719 26.394531 32.609375 26.011719 32.722656 Z M 2.960938 27.503906 C 2.929688 27.785156 2.675781 27.980469 2.394531 27.949219 C 2.117188 27.917969 1.917969 27.664062 1.949219 27.386719 C 1.984375 27.109375 2.234375 26.910156 2.515625 26.945312 C 2.792969 26.976562 2.992188 27.226562 2.960938 27.503906 Z M 38.910156 12.234375 L 36.78125 4.042969 C 36.589844 3.3125 35.839844 2.871094 35.105469 3.058594 L 33.519531 3.46875 C 32.789062 3.65625 32.34375 4.40625 32.535156 5.136719 L 32.710938 5.8125 L 31.992188 6.003906 L 26.226562 2.6875 C 25.210938 2.105469 24.09375 1.96875 22.992188 2.296875 L 12.628906 5.378906 C 11.597656 5.6875 10.945312 6.972656 11.261719 8.082031 C 11.382812 8.503906 11.886719 9.644531 13.769531 9.644531 C 14.261719 9.644531 14.847656 9.566406 15.546875 9.375 L 21.214844 7.839844 C 21.34375 7.804688 21.472656 7.78125 21.601562 7.761719 C 21.5625 7.820312 21.523438 7.878906 21.488281 7.941406 C 20.9375 8.890625 21.257812 10.113281 22.214844 10.730469 C 22.238281 10.746094 22.261719 10.757812 22.289062 10.773438 C 23.617188 11.394531 24.863281 12.261719 25.867188 12.957031 C 26.21875 13.203125 26.550781 13.433594 26.839844 13.617188 C 27.460938 14.019531 28.109375 14.160156 28.75 14.160156 C 29.351562 14.160156 29.941406 14.035156 30.488281 13.890625 L 34.527344 12.804688 L 34.664062 13.332031 C 34.824219 13.945312 35.382812 14.355469 35.996094 14.355469 C 36.109375 14.355469 36.222656 14.34375 36.339844 14.3125 L 37.921875 13.90625 C 38.277344 13.8125 38.574219 13.589844 38.761719 13.273438 C 38.949219 12.957031 39 12.589844 38.910156 12.234375 Z M 30.160156 12.683594 C 28.925781 13.015625 28.160156 12.980469 27.523438 12.570312 C 27.253906 12.394531 26.941406 12.179688 26.585938 11.933594 C 25.554688 11.214844 24.273438 10.328125 22.867188 9.660156 C 22.488281 9.398438 22.363281 8.933594 22.574219 8.566406 C 22.800781 8.179688 23.164062 8.082031 23.660156 8.273438 C 24.335938 8.609375 24.964844 8.984375 25.628906 9.382812 C 25.945312 9.570312 26.277344 9.769531 26.617188 9.964844 C 26.714844 10.019531 26.824219 10.046875 26.929688 10.046875 C 27.148438 10.046875 27.359375 9.9375 27.472656 9.734375 C 27.648438 9.4375 27.542969 9.054688 27.246094 8.882812 C 26.914062 8.691406 26.585938 8.496094 26.273438 8.308594 C 25.578125 7.894531 24.925781 7.503906 24.199219 7.144531 C 24.195312 7.140625 24.179688 7.132812 24.175781 7.132812 L 23.59375 6.871094 C 22.679688 6.464844 21.796875 6.386719 20.882812 6.632812 L 15.21875 8.167969 C 13.714844 8.578125 12.660156 8.410156 12.46875 7.738281 C 12.339844 7.289062 12.605469 6.691406 12.988281 6.578125 L 23.351562 3.496094 C 24.125 3.265625 24.882812 3.359375 25.597656 3.773438 L 31.589844 7.214844 C 31.734375 7.296875 31.902344 7.320312 32.066406 7.277344 L 33.023438 7.023438 L 34.214844 11.597656 Z M 37.679688 12.640625 C 37.667969 12.660156 37.648438 12.683594 37.609375 12.695312 L 36.023438 13.101562 C 35.960938 13.117188 35.894531 13.078125 35.878906 13.015625 L 33.75 4.824219 C 33.734375 4.761719 33.773438 4.695312 33.835938 4.679688 L 35.417969 4.269531 C 35.480469 4.253906 35.546875 4.292969 35.566406 4.355469 L 37.695312 12.550781 C 37.703125 12.585938 37.691406 12.621094 37.679688 12.640625 Z M 37.050781 11.910156 C 37.015625 12.1875 36.765625 12.386719 36.484375 12.355469 C 36.207031 12.320312 36.007812 12.070312 36.039062 11.792969 C 36.070312 11.515625 36.324219 11.316406 36.605469 11.347656 C 36.882812 11.382812 37.082031 11.632812 37.050781 11.910156 Z M 11.429688 18.007812 C 11.1875 18.101562 11.027344 18.332031 11.027344 18.59375 L 11.027344 20.707031 C 11.027344 20.964844 11.1875 21.195312 11.429688 21.289062 L 12.429688 21.671875 C 12.582031 22.203125 12.796875 22.714844 13.0625 23.195312 L 12.628906 24.171875 C 12.523438 24.40625 12.574219 24.683594 12.757812 24.867188 L 14.261719 26.363281 C 14.445312 26.546875 14.722656 26.597656 14.957031 26.492188 L 15.9375 26.058594 C 16.421875 26.328125 16.9375 26.539062 17.46875 26.691406 L 17.851562 27.6875 C 17.945312 27.925781 18.179688 28.085938 18.4375 28.085938 L 20.5625 28.085938 C 20.820312 28.085938 21.054688 27.925781 21.148438 27.6875 L 21.53125 26.691406 C 22.066406 26.539062 22.578125 26.328125 23.0625 26.058594 L 24.042969 26.492188 C 24.277344 26.597656 24.554688 26.546875 24.738281 26.363281 L 26.242188 24.867188 C 26.425781 24.683594 26.476562 24.40625 26.371094 24.171875 L 25.9375 23.195312 C 26.203125 22.710938 26.417969 22.203125 26.570312 21.671875 L 27.570312 21.289062 C 27.8125 21.195312 27.972656 20.964844 27.972656 20.707031 L 27.972656 18.59375 C 27.972656 18.332031 27.8125 18.101562 27.570312 18.007812 L 26.570312 17.625 C 26.417969 17.09375 26.203125 16.585938 25.9375 16.101562 L 26.371094 15.125 C 26.476562 14.890625 26.425781 14.613281 26.242188 14.429688 L 24.738281 12.9375 C 24.554688 12.753906 24.277344 12.703125 24.042969 12.804688 L 23.0625 13.238281 C 22.578125 12.972656 22.0625 12.761719 21.53125 12.609375 L 21.148438 11.613281 C 21.054688 11.371094 20.820312 11.210938 20.5625 11.210938 L 18.4375 11.210938 C 18.179688 11.210938 17.945312 11.371094 17.851562 11.613281 L 17.46875 12.609375 C 16.9375 12.761719 16.421875 12.972656 15.9375 13.238281 L 14.957031 12.804688 C 14.722656 12.703125 14.445312 12.753906 14.261719 12.9375 L 12.757812 14.429688 C 12.574219 14.613281 12.523438 14.890625 12.628906 15.125 L 13.0625 16.101562 C 12.796875 16.585938 12.582031 17.09375 12.429688 17.625 Z M 13.179688 18.675781 C 13.375 18.601562 13.519531 18.4375 13.566406 18.238281 C 13.714844 17.613281 13.964844 17.019531 14.300781 16.46875 C 14.410156 16.292969 14.425781 16.074219 14.34375 15.886719 L 13.949219 15.011719 L 14.84375 14.125 L 15.722656 14.511719 C 15.914062 14.597656 16.128906 14.582031 16.308594 14.472656 C 16.859375 14.136719 17.457031 13.886719 18.082031 13.738281 C 18.285156 13.691406 18.449219 13.546875 18.523438 13.355469 L 18.871094 12.460938 L 20.128906 12.460938 L 20.476562 13.355469 C 20.550781 13.546875 20.714844 13.691406 20.917969 13.738281 C 21.542969 13.886719 22.140625 14.136719 22.691406 14.472656 C 22.871094 14.582031 23.085938 14.597656 23.277344 14.511719 L 24.15625 14.125 L 25.050781 15.011719 L 24.660156 15.886719 C 24.574219 16.074219 24.589844 16.292969 24.699219 16.46875 C 25.035156 17.019531 25.285156 17.613281 25.433594 18.238281 C 25.480469 18.4375 25.625 18.601562 25.820312 18.675781 L 26.714844 19.019531 L 26.714844 20.277344 L 25.820312 20.621094 C 25.625 20.695312 25.480469 20.859375 25.433594 21.058594 C 25.285156 21.683594 25.035156 22.28125 24.699219 22.828125 C 24.589844 23.003906 24.574219 23.222656 24.65625 23.410156 L 25.050781 24.285156 L 24.15625 25.175781 L 23.277344 24.785156 C 23.089844 24.703125 22.871094 24.71875 22.695312 24.824219 C 22.144531 25.164062 21.542969 25.410156 20.917969 25.558594 C 20.714844 25.605469 20.550781 25.75 20.476562 25.941406 L 20.132812 26.835938 L 18.871094 26.835938 L 18.523438 25.941406 C 18.449219 25.75 18.285156 25.605469 18.082031 25.558594 C 17.457031 25.410156 16.859375 25.164062 16.308594 24.824219 C 16.128906 24.71875 15.914062 24.703125 15.722656 24.785156 L 14.84375 25.175781 L 13.949219 24.285156 L 14.34375 23.410156 C 14.425781 23.222656 14.410156 23.003906 14.300781 22.828125 C 13.964844 22.28125 13.714844 21.683594 13.566406 21.058594 C 13.519531 20.859375 13.375 20.695312 13.179688 20.621094 L 12.285156 20.277344 L 12.285156 19.019531 Z M 19.5 23.960938 C 21.886719 23.960938 23.832031 22.027344 23.832031 19.648438 C 23.832031 17.269531 21.886719 15.335938 19.5 15.335938 C 17.113281 15.335938 15.167969 17.269531 15.167969 19.648438 C 15.167969 22.027344 17.113281 23.960938 19.5 23.960938 Z M 19.5 16.585938 C 21.195312 16.585938 22.574219 17.960938 22.574219 19.648438 C 22.574219 21.339844 21.195312 22.710938 19.5 22.710938 C 17.804688 22.710938 16.425781 21.339844 16.425781 19.648438 C 16.425781 17.960938 17.804688 16.585938 19.5 16.585938 Z M 29.460938 26.628906 L 30.191406 26.5 C 30.53125 26.441406 30.859375 26.667969 30.917969 27.007812 C 30.980469 27.347656 30.75 27.671875 30.410156 27.730469 L 27.417969 28.257812 C 27.382812 28.265625 27.347656 28.265625 27.308594 28.265625 C 27.140625 28.265625 26.976562 28.199219 26.859375 28.074219 C 26.714844 27.925781 26.652344 27.714844 26.695312 27.511719 L 27.273438 24.835938 C 27.347656 24.5 27.683594 24.285156 28.019531 24.355469 C 28.359375 24.429688 28.574219 24.761719 28.503906 25.097656 L 28.304688 26.011719 C 30.679688 23.746094 31.691406 20.332031 30.835938 17.085938 C 30.75 16.753906 30.949219 16.410156 31.285156 16.324219 C 31.621094 16.234375 31.964844 16.433594 32.050781 16.769531 C 32.984375 20.324219 31.953125 24.054688 29.460938 26.628906 Z M 9.539062 12.667969 L 8.808594 12.796875 C 8.46875 12.855469 8.140625 12.628906 8.082031 12.289062 C 8.019531 11.949219 8.25 11.625 8.589844 11.566406 L 11.582031 11.039062 C 11.785156 11.003906 11.996094 11.074219 12.140625 11.222656 C 12.285156 11.371094 12.347656 11.585938 12.304688 11.789062 L 11.726562 14.460938 C 11.660156 14.757812 11.402344 14.957031 11.113281 14.957031 C 11.066406 14.957031 11.023438 14.953125 10.980469 14.941406 C 10.640625 14.871094 10.425781 14.535156 10.496094 14.199219 L 10.695312 13.285156 C 8.320312 15.554688 7.308594 18.96875 8.164062 22.210938 C 8.25 22.546875 8.050781 22.886719 7.714844 22.976562 C 7.660156 22.988281 7.609375 22.996094 7.554688 22.996094 C 7.277344 22.996094 7.023438 22.808594 6.949219 22.527344 C 6.015625 18.976562 7.046875 15.242188 9.539062 12.667969 Z M 9.539062 12.667969 " fill-opacity="1" fill-rule="nonzero"/></g></svg>