<svg xmlns="http://www.w3.org/2000/svg" xmlns:xlink="http://www.w3.org/1999/xlink" width="370" zoomAndPan="magnify" viewBox="0 0 277.5 82.499998" height="110" preserveAspectRatio="xMidYMid meet" version="1.0"><defs><g/><clipPath id="e965fbf4e0"><path d="M 0.585938 0.0820312 L 276.414062 0.0820312 L 276.414062 82.003906 L 0.585938 82.003906 Z M 0.585938 0.0820312 " clip-rule="nonzero"/></clipPath><clipPath id="69b91120ab"><path d="M 15.496094 0.0820312 L 261.507812 0.0820312 C 269.742188 0.0820312 276.414062 6.757812 276.414062 14.992188 L 276.414062 67.09375 C 276.414062 75.328125 269.742188 82.003906 261.507812 82.003906 L 15.496094 82.003906 C 7.261719 82.003906 0.585938 75.328125 0.585938 67.09375 L 0.585938 14.992188 C 0.585938 6.757812 7.261719 0.0820312 15.496094 0.0820312 Z M 15.496094 0.0820312 " clip-rule="nonzero"/></clipPath><clipPath id="4a1e3e80e6"><path d="M 0.585938 0.0820312 L 276.414062 0.0820312 L 276.414062 82.003906 L 0.585938 82.003906 Z M 0.585938 0.0820312 " clip-rule="nonzero"/></clipPath><clipPath id="c0c919f0a1"><path d="M 15.496094 0.0820312 L 261.507812 0.0820312 C 269.742188 0.0820312 276.414062 6.757812 276.414062 14.992188 L 276.414062 67.09375 C 276.414062 75.328125 269.742188 82.003906 261.507812 82.003906 L 15.496094 82.003906 C 7.261719 82.003906 0.585938 75.328125 0.585938 67.09375 L 0.585938 14.992188 C 0.585938 6.757812 7.261719 0.0820312 15.496094 0.0820312 Z M 15.496094 0.0820312 " clip-rule="nonzero"/></clipPath><clipPath id="a81961085b"><rect x="0" width="277" y="0" height="83"/></clipPath><clipPath id="7fb066e493"><path d="M 12.1875 14.105469 L 66.0625 14.105469 L 66.0625 67.980469 L 12.1875 67.980469 Z M 12.1875 14.105469 " clip-rule="nonzero"/></clipPath><clipPath id="386b3865d4"><path d="M 39.125 14.105469 C 24.246094 14.105469 12.1875 26.164062 12.1875 41.042969 C 12.1875 55.921875 24.246094 67.980469 39.125 67.980469 C 54.003906 67.980469 66.0625 55.921875 66.0625 41.042969 C 66.0625 26.164062 54.003906 14.105469 39.125 14.105469 Z M 39.125 14.105469 " clip-rule="nonzero"/></clipPath><clipPath id="ee6ccd8740"><path d="M 0.1875 0.105469 L 54.0625 0.105469 L 54.0625 53.980469 L 0.1875 53.980469 Z M 0.1875 0.105469 " clip-rule="nonzero"/></clipPath><clipPath id="ec8ac63fab"><path d="M 27.125 0.105469 C 12.246094 0.105469 0.1875 12.164062 0.1875 27.042969 C 0.1875 41.921875 12.246094 53.980469 27.125 53.980469 C 42.003906 53.980469 54.0625 41.921875 54.0625 27.042969 C 54.0625 12.164062 42.003906 0.105469 27.125 0.105469 Z M 27.125 0.105469 " clip-rule="nonzero"/></clipPath><clipPath id="7ce83fb9cc"><rect x="0" width="55" y="0" height="54"/></clipPath><clipPath id="2facec9d7d"><path d="M 12.1875 14.105469 L 65.863281 14.105469 L 65.863281 67.777344 L 12.1875 67.777344 Z M 12.1875 14.105469 " clip-rule="nonzero"/></clipPath><clipPath id="27555877b7"><path d="M 39.125 14.105469 C 24.246094 14.105469 12.1875 26.164062 12.1875 41.039062 C 12.1875 55.917969 24.246094 67.976562 39.125 67.976562 C 54 67.976562 66.058594 55.917969 66.058594 41.039062 C 66.058594 26.164062 54 14.105469 39.125 14.105469 Z M 39.125 14.105469 " clip-rule="nonzero"/></clipPath><clipPath id="e3849cf42b"><path d="M 53.804688 14.105469 L 107.683594 14.105469 L 107.683594 67.980469 L 53.804688 67.980469 Z M 53.804688 14.105469 " clip-rule="nonzero"/></clipPath><clipPath id="748987c133"><path d="M 80.742188 14.105469 C 65.867188 14.105469 53.804688 26.164062 53.804688 41.042969 C 53.804688 55.921875 65.867188 67.980469 80.742188 67.980469 C 95.621094 67.980469 107.683594 55.921875 107.683594 41.042969 C 107.683594 26.164062 95.621094 14.105469 80.742188 14.105469 Z M 80.742188 14.105469 " clip-rule="nonzero"/></clipPath><clipPath id="f27ad58f15"><path d="M 0.804688 0.105469 L 54.683594 0.105469 L 54.683594 53.980469 L 0.804688 53.980469 Z M 0.804688 0.105469 " clip-rule="nonzero"/></clipPath><clipPath id="f9f771b7ba"><path d="M 27.742188 0.105469 C 12.867188 0.105469 0.804688 12.164062 0.804688 27.042969 C 0.804688 41.921875 12.867188 53.980469 27.742188 53.980469 C 42.621094 53.980469 54.683594 41.921875 54.683594 27.042969 C 54.683594 12.164062 42.621094 0.105469 27.742188 0.105469 Z M 27.742188 0.105469 " clip-rule="nonzero"/></clipPath><clipPath id="aa1336d990"><rect x="0" width="55" y="0" height="54"/></clipPath><clipPath id="31f492a430"><path d="M 53.804688 14.105469 L 107.480469 14.105469 L 107.480469 67.777344 L 53.804688 67.777344 Z M 53.804688 14.105469 " clip-rule="nonzero"/></clipPath><clipPath id="1e66920248"><path d="M 80.742188 14.105469 C 65.867188 14.105469 53.804688 26.164062 53.804688 41.039062 C 53.804688 55.917969 65.867188 67.976562 80.742188 67.976562 C 95.617188 67.976562 107.679688 55.917969 107.679688 41.039062 C 107.679688 26.164062 95.617188 14.105469 80.742188 14.105469 Z M 80.742188 14.105469 " clip-rule="nonzero"/></clipPath><clipPath id="bc09c9d2ce"><path d="M 96.332031 14.0625 L 150.207031 14.0625 L 150.207031 67.941406 L 96.332031 67.941406 Z M 96.332031 14.0625 " clip-rule="nonzero"/></clipPath><clipPath id="0a4fadef4c"><path d="M 123.269531 14.0625 C 108.390625 14.0625 96.332031 26.125 96.332031 41 C 96.332031 55.878906 108.390625 67.941406 123.269531 67.941406 C 138.148438 67.941406 150.207031 55.878906 150.207031 41 C 150.207031 26.125 138.148438 14.0625 123.269531 14.0625 Z M 123.269531 14.0625 " clip-rule="nonzero"/></clipPath><clipPath id="65d3045748"><path d="M 0.332031 0.0625 L 54.207031 0.0625 L 54.207031 53.941406 L 0.332031 53.941406 Z M 0.332031 0.0625 " clip-rule="nonzero"/></clipPath><clipPath id="684058eef1"><path d="M 27.269531 0.0625 C 12.390625 0.0625 0.332031 12.125 0.332031 27 C 0.332031 41.878906 12.390625 53.941406 27.269531 53.941406 C 42.148438 53.941406 54.207031 41.878906 54.207031 27 C 54.207031 12.125 42.148438 0.0625 27.269531 0.0625 Z M 27.269531 0.0625 " clip-rule="nonzero"/></clipPath><clipPath id="3228d1d1b7"><rect x="0" width="55" y="0" height="54"/></clipPath><clipPath id="70cfe1d426"><path d="M 96.332031 14.0625 L 150.003906 14.0625 L 150.003906 67.738281 L 96.332031 67.738281 Z M 96.332031 14.0625 " clip-rule="nonzero"/></clipPath><clipPath id="4228df7ced"><path d="M 123.265625 14.0625 C 108.390625 14.0625 96.332031 26.121094 96.332031 41 C 96.332031 55.875 108.390625 67.9375 123.265625 67.9375 C 138.144531 67.9375 150.203125 55.875 150.203125 41 C 150.203125 26.121094 138.144531 14.0625 123.265625 14.0625 Z M 123.265625 14.0625 " clip-rule="nonzero"/></clipPath><clipPath id="7df220831a"><path d="M 28.546875 28.15625 L 45 28.15625 L 45 52.757812 L 28.546875 52.757812 Z M 28.546875 28.15625 " clip-rule="nonzero"/></clipPath><clipPath id="5dbeb72f1c"><path d="M 38 50 L 47 50 L 47 52.757812 L 38 52.757812 Z M 38 50 " clip-rule="nonzero"/></clipPath><clipPath id="cff20e4dcf"><path d="M 39 40 L 53.148438 40 L 53.148438 50 L 39 50 Z M 39 40 " clip-rule="nonzero"/></clipPath><clipPath id="908cb09160"><path d="M 66.867188 27.785156 L 89.976562 27.785156 L 89.976562 53.878906 L 66.867188 53.878906 Z M 66.867188 27.785156 " clip-rule="nonzero"/></clipPath><clipPath id="d45300db9b"><path d="M 113.320312 28.15625 L 136.429688 28.15625 L 136.429688 51.265625 L 113.320312 51.265625 Z M 113.320312 28.15625 " clip-rule="nonzero"/></clipPath><clipPath id="cd30b92dd0"><rect x="0" width="80" y="0" height="9"/></clipPath></defs><g clip-path="url(#e965fbf4e0)"><g clip-path="url(#69b91120ab)"><g><g clip-path="url(#a81961085b)"><g clip-path="url(#4a1e3e80e6)"><g clip-path="url(#c0c919f0a1)"><path fill="#1a1a1c" d="M 0.585938 0.0820312 L 276.429688 0.0820312 L 276.429688 82.003906 L 0.585938 82.003906 Z M 0.585938 0.0820312 " fill-opacity="1" fill-rule="nonzero"/></g></g></g></g></g></g><g clip-path="url(#7fb066e493)"><g clip-path="url(#386b3865d4)"><g transform="matrix(1, 0, 0, 1, 12, 14)"><g clip-path="url(#7ce83fb9cc)"><g clip-path="url(#ee6ccd8740)"><g clip-path="url(#ec8ac63fab)"><path fill="#bcbcbc" d="M 0.1875 0.105469 L 54.0625 0.105469 L 54.0625 53.980469 L 0.1875 53.980469 Z M 0.1875 0.105469 " fill-opacity="1" fill-rule="nonzero"/></g></g></g></g></g></g><g clip-path="url(#2facec9d7d)"><g clip-path="url(#27555877b7)"><path stroke-linecap="butt" transform="matrix(0.745482, 0, 0, 0.745482, 12.187345, 14.104191)" fill="none" stroke-linejoin="miter" d="M 36.134554 0.00171371 C 16.175777 0.00171371 0.00020753 16.177283 0.00020753 36.13082 C 0.00020753 56.089596 16.175777 72.265166 36.134554 72.265166 C 56.08809 72.265166 72.26366 56.089596 72.26366 36.13082 C 72.26366 16.177283 56.08809 0.00171371 36.134554 0.00171371 Z M 36.134554 0.00171371 " stroke="#f2e557" stroke-width="4" stroke-opacity="1" stroke-miterlimit="4"/></g></g><g clip-path="url(#e3849cf42b)"><g clip-path="url(#748987c133)"><g transform="matrix(1, 0, 0, 1, 53, 14)"><g clip-path="url(#aa1336d990)"><g clip-path="url(#f27ad58f15)"><g clip-path="url(#f9f771b7ba)"><path fill="#bcbcbc" d="M 0.804688 0.105469 L 54.683594 0.105469 L 54.683594 53.980469 L 0.804688 53.980469 Z M 0.804688 0.105469 " fill-opacity="1" fill-rule="nonzero"/></g></g></g></g></g></g><g clip-path="url(#31f492a430)"><g clip-path="url(#1e66920248)"><path stroke-linecap="butt" transform="matrix(0.745482, 0, 0, 0.745482, 53.805697, 14.104191)" fill="none" stroke-linejoin="miter" d="M 36.132992 0.00171371 C 16.179456 0.00171371 -0.00135364 16.177283 -0.00135364 36.13082 C -0.00135364 56.089596 16.179456 72.265166 36.132992 72.265166 C 56.086529 72.265166 72.267338 56.089596 72.267338 36.13082 C 72.267338 16.177283 56.086529 0.00171371 36.132992 0.00171371 Z M 36.132992 0.00171371 " stroke="#f2e557" stroke-width="4" stroke-opacity="1" stroke-miterlimit="4"/></g></g><g clip-path="url(#bc09c9d2ce)"><g clip-path="url(#0a4fadef4c)"><g transform="matrix(1, 0, 0, 1, 96, 14)"><g clip-path="url(#3228d1d1b7)"><g clip-path="url(#65d3045748)"><g clip-path="url(#684058eef1)"><path fill="#bcbcbc" d="M 0.332031 0.0625 L 54.207031 0.0625 L 54.207031 53.941406 L 0.332031 53.941406 Z M 0.332031 0.0625 " fill-opacity="1" fill-rule="nonzero"/></g></g></g></g></g></g><g clip-path="url(#70cfe1d426)"><g clip-path="url(#4228df7ced)"><path stroke-linecap="butt" transform="matrix(0.745482, 0, 0, 0.745482, 96.330616, 14.06319)" fill="none" stroke-linejoin="miter" d="M 36.131004 -0.000925182 C 16.177467 -0.000925182 0.0018979 16.174644 0.0018979 36.133421 C 0.0018979 56.086958 16.177467 72.267767 36.131004 72.267767 C 56.089781 72.267767 72.26535 56.086958 72.26535 36.133421 C 72.26535 16.174644 56.089781 -0.000925182 36.131004 -0.000925182 Z M 36.131004 -0.000925182 " stroke="#f2e557" stroke-width="4" stroke-opacity="1" stroke-miterlimit="4"/></g></g><path fill="#000000" d="M 30.917969 40.128906 C 30.765625 39.996094 30.519531 40.015625 30.386719 40.167969 C 30.253906 40.320312 30.269531 40.570312 30.425781 40.707031 L 30.691406 40.9375 C 30.765625 40.996094 30.84375 41.035156 30.9375 41.035156 C 31.035156 41.035156 31.109375 40.996094 31.1875 40.9375 L 32.0625 40.167969 C 32.214844 40.035156 32.234375 39.785156 32.101562 39.628906 C 31.96875 39.476562 31.722656 39.457031 31.566406 39.59375 L 30.9375 40.128906 Z M 30.917969 40.128906 " fill-opacity="1" fill-rule="nonzero"/><path fill="#000000" d="M 30.425781 42.628906 L 30.691406 42.859375 C 30.765625 42.917969 30.84375 42.957031 30.9375 42.957031 C 31.035156 42.957031 31.109375 42.917969 31.1875 42.859375 L 32.0625 42.089844 C 32.214844 41.957031 32.234375 41.707031 32.101562 41.550781 C 31.96875 41.398438 31.722656 41.378906 31.566406 41.515625 L 30.9375 42.050781 L 30.917969 42.03125 C 30.765625 41.898438 30.519531 41.917969 30.386719 42.070312 C 30.253906 42.242188 30.269531 42.476562 30.425781 42.628906 Z M 30.425781 42.628906 " fill-opacity="1" fill-rule="nonzero"/><path fill="#000000" d="M 30.425781 44.550781 L 30.691406 44.78125 C 30.765625 44.839844 30.84375 44.878906 30.9375 44.878906 C 31.035156 44.878906 31.109375 44.839844 31.1875 44.78125 L 32.0625 44.011719 C 32.214844 43.878906 32.234375 43.628906 32.101562 43.472656 C 31.96875 43.320312 31.722656 43.300781 31.566406 43.4375 L 30.9375 43.972656 L 30.917969 43.953125 C 30.765625 43.820312 30.519531 43.839844 30.386719 43.992188 C 30.253906 44.167969 30.269531 44.398438 30.425781 44.550781 Z M 30.425781 44.550781 " fill-opacity="1" fill-rule="nonzero"/><path fill="#000000" d="M 30.425781 46.472656 L 30.691406 46.703125 C 30.765625 46.761719 30.84375 46.800781 30.9375 46.800781 C 31.035156 46.800781 31.109375 46.761719 31.1875 46.703125 L 32.0625 45.933594 C 32.214844 45.800781 32.234375 45.550781 32.101562 45.394531 C 31.96875 45.242188 31.722656 45.222656 31.566406 45.359375 L 30.9375 45.894531 L 30.917969 45.875 C 30.765625 45.742188 30.519531 45.761719 30.386719 45.914062 C 30.253906 46.089844 30.269531 46.320312 30.425781 46.472656 Z M 30.425781 46.472656 " fill-opacity="1" fill-rule="nonzero"/><path fill="#000000" d="M 40.78125 34.5 C 40.992188 34.5 41.164062 34.324219 41.164062 34.113281 C 41.164062 33.902344 40.992188 33.730469 40.78125 33.730469 L 32.769531 33.730469 C 32.558594 33.730469 32.386719 33.902344 32.386719 34.113281 C 32.386719 34.324219 32.558594 34.5 32.769531 34.5 Z M 40.78125 34.5 " fill-opacity="1" fill-rule="nonzero"/><path fill="#000000" d="M 31.054688 35.652344 C 31.054688 35.863281 31.226562 36.035156 31.433594 36.035156 L 42.117188 36.035156 C 42.324219 36.035156 42.496094 35.863281 42.496094 35.652344 C 42.496094 35.441406 42.324219 35.265625 42.117188 35.265625 L 31.433594 35.265625 C 31.226562 35.265625 31.054688 35.441406 31.054688 35.652344 Z M 31.054688 35.652344 " fill-opacity="1" fill-rule="nonzero"/><path fill="#000000" d="M 31.433594 37.574219 L 42.117188 37.574219 C 42.324219 37.574219 42.496094 37.402344 42.496094 37.1875 C 42.496094 36.976562 42.324219 36.804688 42.117188 36.804688 L 31.433594 36.804688 C 31.226562 36.804688 31.054688 36.976562 31.054688 37.1875 C 31.054688 37.402344 31.226562 37.574219 31.433594 37.574219 Z M 31.433594 37.574219 " fill-opacity="1" fill-rule="nonzero"/><path fill="#000000" d="M 34.085938 48.816406 C 34.046875 48.683594 33.914062 48.585938 33.78125 48.566406 L 32.921875 48.433594 L 32.539062 47.605469 C 32.484375 47.472656 32.351562 47.375 32.199219 47.375 C 32.046875 47.375 31.910156 47.453125 31.855469 47.605469 L 31.472656 48.433594 L 30.613281 48.566406 C 30.480469 48.585938 30.347656 48.683594 30.308594 48.816406 C 30.269531 48.953125 30.289062 49.105469 30.40625 49.203125 L 31.035156 49.855469 L 30.882812 50.777344 C 30.863281 50.929688 30.917969 51.066406 31.035156 51.160156 C 31.148438 51.238281 31.300781 51.257812 31.433594 51.179688 L 32.199219 50.757812 L 32.960938 51.179688 C 33.019531 51.21875 33.074219 51.238281 33.152344 51.238281 C 33.226562 51.238281 33.304688 51.21875 33.378906 51.160156 C 33.496094 51.085938 33.550781 50.929688 33.53125 50.777344 L 33.378906 49.855469 L 34.007812 49.203125 C 34.105469 49.105469 34.125 48.953125 34.085938 48.816406 Z M 32.695312 49.453125 C 32.617188 49.546875 32.578125 49.664062 32.597656 49.777344 L 32.65625 50.105469 L 32.40625 49.96875 C 32.351562 49.933594 32.292969 49.914062 32.214844 49.914062 C 32.140625 49.914062 32.082031 49.933594 32.027344 49.96875 L 31.777344 50.105469 L 31.835938 49.777344 C 31.855469 49.664062 31.816406 49.527344 31.738281 49.453125 L 31.492188 49.203125 L 31.816406 49.144531 C 31.949219 49.125 32.046875 49.046875 32.101562 48.933594 L 32.234375 48.664062 L 32.371094 48.933594 C 32.425781 49.046875 32.523438 49.125 32.65625 49.144531 L 32.980469 49.203125 Z M 32.695312 49.453125 " fill-opacity="1" fill-rule="nonzero"/><path fill="#000000" d="M 39.65625 45.644531 L 33.34375 45.644531 C 33.132812 45.644531 32.960938 45.820312 32.960938 46.03125 C 32.960938 46.242188 33.132812 46.414062 33.34375 46.414062 L 39.046875 46.414062 C 39.179688 46.105469 39.386719 45.839844 39.65625 45.644531 Z M 39.65625 45.644531 " fill-opacity="1" fill-rule="nonzero"/><path fill="#000000" d="M 33.34375 43.722656 C 33.132812 43.722656 32.960938 43.898438 32.960938 44.109375 C 32.960938 44.320312 33.132812 44.492188 33.34375 44.492188 L 39.292969 44.492188 C 39.234375 44.242188 39.234375 43.992188 39.292969 43.722656 Z M 33.34375 43.722656 " fill-opacity="1" fill-rule="nonzero"/><path fill="#000000" d="M 40.589844 42.261719 C 40.511719 42.109375 40.457031 41.957031 40.4375 41.800781 L 33.34375 41.800781 C 33.132812 41.800781 32.960938 41.976562 32.960938 42.1875 C 32.960938 42.398438 33.132812 42.570312 33.34375 42.570312 L 40.019531 42.570312 C 40.1875 42.4375 40.378906 42.339844 40.589844 42.261719 Z M 40.589844 42.261719 " fill-opacity="1" fill-rule="nonzero"/><path fill="#000000" d="M 41.179688 39.878906 L 33.34375 39.878906 C 33.132812 39.878906 32.960938 40.054688 32.960938 40.265625 C 32.960938 40.476562 33.132812 40.648438 33.34375 40.648438 L 40.570312 40.648438 C 40.703125 40.339844 40.914062 40.074219 41.179688 39.878906 Z M 41.179688 39.878906 " fill-opacity="1" fill-rule="nonzero"/><g clip-path="url(#7df220831a)"><path fill="#000000" d="M 30.097656 52.757812 L 37.59375 52.757812 C 37.558594 52.640625 37.519531 52.507812 37.519531 52.371094 L 37.519531 51.988281 L 30.097656 51.988281 C 29.679688 51.988281 29.335938 51.640625 29.335938 51.21875 L 29.335938 31.230469 C 29.335938 30.808594 29.679688 30.460938 30.097656 30.460938 L 32.578125 30.460938 L 32.578125 31.230469 C 32.578125 31.867188 33.09375 32.382812 33.722656 32.382812 L 39.828125 32.382812 C 40.457031 32.382812 40.972656 31.867188 40.972656 31.230469 L 40.972656 30.460938 L 43.449219 30.460938 C 43.871094 30.460938 44.214844 30.808594 44.214844 31.230469 L 44.214844 39.898438 L 44.976562 40.089844 L 44.976562 31.230469 C 44.976562 30.386719 44.289062 29.695312 43.449219 29.695312 L 39.828125 29.695312 L 39.828125 29.308594 C 39.828125 28.675781 39.3125 28.15625 38.683594 28.15625 L 34.867188 28.15625 C 34.238281 28.15625 33.722656 28.675781 33.722656 29.308594 L 33.722656 29.695312 L 30.097656 29.695312 C 29.261719 29.695312 28.574219 30.386719 28.574219 31.230469 L 28.574219 51.21875 C 28.574219 52.066406 29.261719 52.757812 30.097656 52.757812 Z M 34.488281 29.308594 C 34.488281 29.097656 34.65625 28.925781 34.867188 28.925781 L 38.683594 28.925781 C 38.890625 28.925781 39.0625 29.097656 39.0625 29.308594 L 39.0625 29.695312 L 34.488281 29.695312 Z M 33.34375 30.460938 L 40.207031 30.460938 L 40.207031 31.230469 C 40.207031 31.441406 40.035156 31.617188 39.828125 31.617188 L 33.722656 31.617188 C 33.515625 31.617188 33.34375 31.441406 33.34375 31.230469 Z M 33.34375 30.460938 " fill-opacity="1" fill-rule="nonzero"/></g><path fill="#000000" d="M 38.664062 48.816406 C 38.625 48.683594 38.492188 48.585938 38.359375 48.566406 L 37.5 48.433594 L 37.117188 47.605469 C 37.0625 47.472656 36.929688 47.375 36.773438 47.375 C 36.621094 47.375 36.488281 47.453125 36.433594 47.605469 L 36.050781 48.433594 L 35.191406 48.566406 C 35.058594 48.585938 34.925781 48.683594 34.886719 48.816406 C 34.847656 48.953125 34.867188 49.105469 34.980469 49.203125 L 35.613281 49.855469 L 35.460938 50.777344 C 35.441406 50.929688 35.496094 51.066406 35.613281 51.160156 C 35.726562 51.257812 35.878906 51.257812 36.011719 51.179688 L 36.773438 50.757812 L 37.539062 51.179688 C 37.558594 50.738281 37.710938 50.335938 37.976562 50.007812 L 37.957031 49.855469 L 38.585938 49.203125 C 38.683594 49.105469 38.703125 48.953125 38.664062 48.816406 Z M 37.269531 49.453125 C 37.195312 49.546875 37.15625 49.664062 37.175781 49.777344 L 37.234375 50.105469 L 36.984375 49.96875 C 36.929688 49.933594 36.871094 49.914062 36.792969 49.914062 C 36.71875 49.914062 36.660156 49.933594 36.605469 49.96875 L 36.355469 50.105469 L 36.414062 49.777344 C 36.433594 49.664062 36.394531 49.527344 36.316406 49.453125 L 36.070312 49.203125 L 36.394531 49.144531 C 36.527344 49.125 36.621094 49.046875 36.679688 48.933594 L 36.8125 48.664062 L 36.945312 48.933594 C 37.003906 49.046875 37.097656 49.125 37.234375 49.144531 L 37.558594 49.203125 Z M 37.269531 49.453125 " fill-opacity="1" fill-rule="nonzero"/><g clip-path="url(#5dbeb72f1c)"><path fill="#000000" d="M 38.683594 52.757812 L 46.3125 52.757812 C 46.523438 52.757812 46.695312 52.585938 46.695312 52.371094 L 46.695312 51.21875 C 46.695312 50.585938 46.179688 50.066406 45.550781 50.066406 L 39.445312 50.066406 C 38.816406 50.066406 38.300781 50.585938 38.300781 51.21875 L 38.300781 52.371094 C 38.300781 52.585938 38.472656 52.757812 38.683594 52.757812 Z M 39.0625 51.21875 C 39.0625 51.007812 39.234375 50.835938 39.445312 50.835938 L 45.550781 50.835938 C 45.757812 50.835938 45.929688 51.007812 45.929688 51.21875 L 45.929688 51.988281 L 39.0625 51.988281 Z M 39.0625 51.21875 " fill-opacity="1" fill-rule="nonzero"/></g><g clip-path="url(#cff20e4dcf)"><path fill="#000000" d="M 46.523438 43.667969 L 46.578125 43.6875 C 46.675781 43.703125 46.769531 43.722656 46.863281 43.722656 C 47.378906 43.722656 47.855469 43.378906 47.992188 42.839844 C 48.066406 42.53125 48.027344 42.226562 47.855469 41.957031 C 47.703125 41.6875 47.4375 41.496094 47.132812 41.417969 L 42.59375 40.285156 C 41.964844 40.128906 41.332031 40.515625 41.179688 41.128906 C 41.105469 41.4375 41.144531 41.746094 41.316406 42.011719 C 41.46875 42.28125 41.734375 42.476562 42.039062 42.550781 L 42.078125 42.550781 L 41.945312 43.109375 L 41.429688 42.972656 C 41.144531 42.898438 40.820312 42.957031 40.570312 43.109375 C 40.304688 43.261719 40.132812 43.511719 40.054688 43.820312 C 39.902344 44.433594 40.285156 45.070312 40.894531 45.222656 L 41.410156 45.359375 L 41.238281 46.105469 L 41.085938 46.070312 C 40.457031 45.914062 39.828125 46.300781 39.675781 46.914062 C 39.597656 47.222656 39.636719 47.53125 39.808594 47.796875 C 39.960938 48.066406 40.226562 48.261719 40.53125 48.335938 L 45.070312 49.46875 C 45.167969 49.488281 45.261719 49.507812 45.359375 49.507812 C 45.875 49.507812 46.351562 49.164062 46.484375 48.625 C 46.558594 48.316406 46.523438 48.011719 46.351562 47.742188 C 46.199219 47.492188 45.96875 47.316406 45.683594 47.222656 L 45.855469 46.492188 L 51.574219 47.933594 C 51.671875 47.953125 51.765625 47.972656 51.863281 47.972656 C 52.070312 47.972656 52.261719 47.914062 52.453125 47.796875 C 52.71875 47.644531 52.890625 47.394531 52.96875 47.085938 C 53.121094 46.472656 52.738281 45.839844 52.128906 45.683594 L 46.40625 44.242188 Z M 41.066406 44.472656 C 40.855469 44.414062 40.742188 44.203125 40.800781 44.011719 C 40.820312 43.917969 40.894531 43.820312 40.972656 43.78125 C 41.027344 43.742188 41.105469 43.722656 41.164062 43.722656 C 41.199219 43.722656 41.21875 43.722656 41.257812 43.742188 L 41.773438 43.878906 L 41.601562 44.628906 Z M 45.683594 48.125 C 45.738281 48.222656 45.757812 48.316406 45.71875 48.414062 C 45.664062 48.625 45.453125 48.757812 45.242188 48.703125 L 40.703125 47.566406 C 40.609375 47.546875 40.511719 47.472656 40.457031 47.394531 C 40.398438 47.296875 40.378906 47.203125 40.417969 47.105469 C 40.476562 46.894531 40.683594 46.761719 40.894531 46.816406 L 45.433594 47.953125 C 45.550781 47.972656 45.625 48.027344 45.683594 48.125 Z M 44.9375 47.03125 L 41.964844 46.28125 L 42.820312 42.742188 L 45.796875 43.492188 Z M 42.230469 41.820312 C 42.136719 41.800781 42.039062 41.726562 41.980469 41.648438 C 41.925781 41.550781 41.90625 41.457031 41.945312 41.359375 C 42 41.148438 42.210938 41.015625 42.421875 41.070312 L 46.960938 42.207031 C 47.054688 42.226562 47.152344 42.300781 47.207031 42.378906 C 47.265625 42.476562 47.285156 42.570312 47.246094 42.667969 C 47.1875 42.878906 46.980469 43.011719 46.769531 42.957031 Z M 51.9375 46.433594 C 52.148438 46.492188 52.261719 46.703125 52.207031 46.894531 C 52.1875 46.992188 52.109375 47.085938 52.035156 47.125 C 51.9375 47.183594 51.84375 47.203125 51.746094 47.164062 L 46.027344 45.722656 L 46.199219 44.972656 Z M 51.9375 46.433594 " fill-opacity="1" fill-rule="nonzero"/></g><g clip-path="url(#908cb09160)"><path fill="#000000" d="M 80.011719 47.515625 Z M 84.832031 33.019531 L 84.832031 33.015625 Z M 78.878906 51.792969 C 79.46875 51.898438 80.011719 51.894531 80.511719 51.785156 C 80.980469 51.675781 81.417969 51.472656 81.824219 51.167969 L 81.84375 51.152344 C 81.863281 51.136719 81.882812 51.121094 81.902344 51.105469 C 81.914062 51.097656 81.925781 51.089844 81.9375 51.082031 L 87.988281 46.515625 C 88 46.503906 88.015625 46.496094 88.03125 46.488281 L 88.03125 46.484375 C 88.230469 46.371094 88.289062 46.167969 88.25 45.964844 C 88.234375 45.871094 88.195312 45.777344 88.144531 45.6875 C 88.09375 45.601562 88.027344 45.519531 87.953125 45.460938 C 87.792969 45.324219 87.570312 45.269531 87.347656 45.398438 L 80.917969 49.09375 C 80.816406 49.152344 80.699219 49.164062 80.589844 49.136719 L 79.105469 48.738281 L 76.972656 48.171875 C 76.742188 48.109375 76.605469 47.871094 76.667969 47.644531 C 76.730469 47.414062 76.96875 47.277344 77.199219 47.339844 L 79.328125 47.90625 C 79.472656 47.945312 79.617188 47.925781 79.734375 47.859375 L 79.753906 47.851562 C 79.875 47.78125 79.972656 47.664062 80.011719 47.515625 C 80.050781 47.375 80.03125 47.230469 79.96875 47.113281 L 79.957031 47.09375 C 79.886719 46.972656 79.765625 46.875 79.617188 46.835938 L 75.800781 45.8125 C 75.773438 45.808594 75.746094 45.804688 75.71875 45.796875 C 75.675781 45.78125 75.636719 45.769531 75.59375 45.757812 L 75.554688 45.746094 C 75.542969 45.742188 75.535156 45.742188 75.523438 45.738281 C 75.03125 45.601562 74.558594 45.554688 74.113281 45.597656 C 73.660156 45.640625 73.226562 45.777344 72.808594 46.007812 L 72.726562 46.054688 L 72.695312 46.074219 C 72.683594 46.082031 72.671875 46.089844 72.660156 46.09375 L 70.941406 47.082031 L 73 50.621094 L 73.714844 50.210938 C 73.824219 50.136719 73.964844 50.117188 74.097656 50.164062 C 75.328125 50.613281 76.21875 50.929688 76.96875 51.183594 C 77.691406 51.429688 78.265625 51.609375 78.878906 51.792969 Z M 80.089844 44.285156 C 80.328125 44.3125 80.5 44.523438 80.476562 44.761719 C 80.449219 44.996094 80.238281 45.167969 80 45.140625 C 78.027344 44.933594 76.257812 44.050781 74.929688 42.730469 C 73.851562 41.65625 73.0625 40.292969 72.691406 38.765625 C 72.554688 38.945312 72.296875 38.988281 72.105469 38.859375 C 71.910156 38.726562 71.855469 38.460938 71.992188 38.265625 L 72.5625 37.425781 C 72.628906 37.3125 72.746094 37.230469 72.890625 37.21875 C 72.988281 37.207031 73.085938 37.230469 73.164062 37.28125 L 74.066406 37.828125 C 74.269531 37.949219 74.335938 38.214844 74.210938 38.417969 C 74.085938 38.621094 73.820312 38.683594 73.617188 38.5625 L 73.515625 38.5 C 73.84375 39.894531 74.558594 41.140625 75.542969 42.121094 C 76.738281 43.304688 78.324219 44.097656 80.089844 44.285156 Z M 81.726562 29.285156 C 81.488281 29.261719 81.316406 29.050781 81.339844 28.8125 C 81.367188 28.578125 81.578125 28.40625 81.816406 28.433594 C 83.789062 28.640625 85.558594 29.523438 86.886719 30.84375 C 87.964844 31.917969 88.753906 33.28125 89.125 34.808594 C 89.261719 34.628906 89.519531 34.585938 89.710938 34.714844 C 89.90625 34.847656 89.960938 35.113281 89.824219 35.308594 L 89.253906 36.148438 C 89.1875 36.261719 89.070312 36.339844 88.925781 36.355469 C 88.828125 36.367188 88.730469 36.34375 88.652344 36.292969 L 87.75 35.746094 C 87.542969 35.625 87.480469 35.359375 87.605469 35.15625 C 87.730469 34.953125 87.996094 34.890625 88.199219 35.011719 L 88.296875 35.074219 C 87.972656 33.679688 87.257812 32.433594 86.273438 31.453125 C 85.078125 30.269531 83.492188 29.476562 81.726562 29.285156 Z M 88.453125 37.597656 C 88.476562 37.363281 88.691406 37.191406 88.929688 37.21875 C 89.164062 37.242188 89.335938 37.453125 89.3125 37.691406 C 89.101562 39.652344 88.214844 41.410156 86.886719 42.730469 C 85.804688 43.804688 84.433594 44.585938 82.898438 44.957031 C 83.078125 45.09375 83.121094 45.347656 82.992188 45.539062 C 82.859375 45.734375 82.589844 45.785156 82.394531 45.652344 L 81.550781 45.085938 C 81.4375 45.019531 81.355469 44.902344 81.339844 44.761719 C 81.332031 44.660156 81.355469 44.566406 81.40625 44.484375 L 81.953125 43.589844 C 82.078125 43.386719 82.34375 43.320312 82.550781 43.445312 C 82.753906 43.570312 82.816406 43.832031 82.691406 44.035156 L 82.632812 44.136719 C 84.035156 43.8125 85.289062 43.097656 86.273438 42.121094 C 87.464844 40.933594 88.261719 39.355469 88.453125 37.597656 Z M 73.363281 35.976562 C 73.339844 36.210938 73.125 36.382812 72.886719 36.355469 C 72.652344 36.332031 72.480469 36.121094 72.503906 35.882812 C 72.714844 33.921875 73.601562 32.164062 74.929688 30.84375 C 76.011719 29.769531 77.382812 28.988281 78.917969 28.617188 C 78.738281 28.480469 78.695312 28.226562 78.824219 28.035156 C 78.957031 27.839844 79.226562 27.789062 79.421875 27.921875 L 80.265625 28.488281 C 80.378906 28.554688 80.460938 28.671875 80.476562 28.8125 C 80.484375 28.914062 80.460938 29.007812 80.410156 29.089844 L 79.863281 29.988281 C 79.738281 30.1875 79.472656 30.253906 79.269531 30.128906 C 79.0625 30.007812 79 29.742188 79.125 29.539062 L 79.183594 29.441406 C 77.78125 29.765625 76.527344 30.476562 75.542969 31.453125 C 74.351562 32.640625 73.554688 34.21875 73.363281 35.976562 Z M 80.910156 33.253906 C 79.925781 33.253906 79.039062 33.652344 78.394531 34.289062 C 77.753906 34.929688 77.355469 35.8125 77.355469 36.789062 C 77.355469 37.761719 77.753906 38.644531 78.394531 39.285156 C 79.039062 39.921875 79.925781 40.320312 80.910156 40.320312 C 81.890625 40.320312 82.777344 39.925781 83.421875 39.285156 C 84.0625 38.644531 84.460938 37.761719 84.460938 36.789062 C 84.460938 35.8125 84.0625 34.929688 83.421875 34.289062 C 82.777344 33.652344 81.890625 33.253906 80.910156 33.253906 Z M 82.808594 34.898438 C 82.320312 34.414062 81.648438 34.117188 80.910156 34.117188 C 80.167969 34.117188 79.496094 34.414062 79.007812 34.898438 C 78.523438 35.382812 78.222656 36.050781 78.222656 36.789062 C 78.222656 37.523438 78.523438 38.191406 79.007812 38.675781 C 79.496094 39.160156 80.167969 39.457031 80.910156 39.457031 C 81.648438 39.457031 82.320312 39.160156 82.808594 38.675781 C 83.292969 38.191406 83.59375 37.523438 83.59375 36.789062 C 83.59375 36.050781 83.292969 35.382812 82.808594 34.898438 Z M 80.910156 43.074219 C 80.839844 43.074219 80.75 43.070312 80.640625 43.066406 C 80.535156 43.0625 80.445312 43.054688 80.378906 43.050781 C 80.175781 43.035156 79.988281 42.949219 79.84375 42.820312 C 79.699219 42.691406 79.597656 42.515625 79.5625 42.316406 L 79.46875 41.820312 C 79.46875 41.808594 79.464844 41.800781 79.460938 41.796875 C 79.457031 41.796875 79.449219 41.792969 79.441406 41.789062 C 79.214844 41.730469 78.996094 41.65625 78.789062 41.570312 C 78.574219 41.480469 78.371094 41.382812 78.171875 41.265625 C 78.164062 41.261719 78.152344 41.257812 78.148438 41.257812 C 78.140625 41.257812 78.132812 41.261719 78.125 41.265625 L 78.128906 41.265625 L 77.773438 41.507812 C 77.597656 41.628906 77.398438 41.679688 77.199219 41.667969 C 77 41.652344 76.808594 41.574219 76.652344 41.433594 C 76.554688 41.347656 76.460938 41.253906 76.363281 41.15625 C 76.269531 41.058594 76.179688 40.960938 76.09375 40.859375 C 75.960938 40.703125 75.886719 40.515625 75.878906 40.324219 C 75.867188 40.128906 75.921875 39.933594 76.039062 39.765625 L 76.273438 39.425781 L 76.277344 39.417969 C 76.28125 39.414062 76.28125 39.40625 76.28125 39.402344 C 76.28125 39.398438 76.28125 39.390625 76.273438 39.378906 C 76.160156 39.183594 76.058594 38.976562 75.96875 38.765625 C 75.882812 38.558594 75.808594 38.34375 75.75 38.117188 C 75.746094 38.109375 75.742188 38.101562 75.738281 38.097656 C 75.734375 38.09375 75.726562 38.089844 75.71875 38.089844 L 75.339844 38.019531 C 75.132812 37.984375 74.957031 37.878906 74.824219 37.730469 C 74.695312 37.585938 74.613281 37.398438 74.597656 37.191406 C 74.59375 37.136719 74.59375 37.070312 74.589844 36.988281 C 74.585938 36.890625 74.585938 36.824219 74.585938 36.785156 C 74.585938 36.75 74.585938 36.679688 74.589844 36.582031 C 74.59375 36.503906 74.59375 36.4375 74.597656 36.382812 C 74.613281 36.175781 74.695312 35.988281 74.824219 35.839844 C 74.957031 35.695312 75.132812 35.589844 75.339844 35.554688 L 75.71875 35.484375 C 75.726562 35.480469 75.734375 35.476562 75.738281 35.476562 C 75.742188 35.472656 75.746094 35.464844 75.75 35.453125 C 75.808594 35.230469 75.882812 35.015625 75.96875 34.804688 C 76.058594 34.59375 76.160156 34.390625 76.273438 34.191406 C 76.28125 34.183594 76.28125 34.175781 76.28125 34.167969 C 76.28125 34.164062 76.277344 34.15625 76.273438 34.148438 L 76.039062 33.808594 C 75.921875 33.636719 75.867188 33.441406 75.878906 33.25 C 75.886719 33.058594 75.960938 32.867188 76.09375 32.710938 C 76.179688 32.613281 76.269531 32.515625 76.363281 32.417969 C 76.457031 32.320312 76.554688 32.226562 76.652344 32.140625 C 76.808594 32 77 31.921875 77.199219 31.90625 C 77.398438 31.894531 77.597656 31.945312 77.773438 32.066406 L 78.128906 32.304688 C 78.136719 32.3125 78.140625 32.316406 78.148438 32.316406 C 78.152344 32.316406 78.164062 32.3125 78.171875 32.308594 C 78.371094 32.191406 78.578125 32.089844 78.789062 32.003906 C 78.796875 32 78.804688 32 78.8125 31.996094 C 79.015625 31.910156 79.226562 31.839844 79.441406 31.785156 C 79.449219 31.78125 79.457031 31.777344 79.460938 31.773438 L 79.464844 31.769531 C 79.464844 31.765625 79.46875 31.761719 79.46875 31.753906 L 79.5625 31.257812 C 79.597656 31.058594 79.699219 30.882812 79.84375 30.753906 C 79.988281 30.625 80.175781 30.539062 80.378906 30.523438 C 80.445312 30.515625 80.535156 30.511719 80.644531 30.507812 C 80.75 30.503906 80.839844 30.5 80.90625 30.5 C 80.976562 30.5 81.0625 30.503906 81.171875 30.507812 C 81.28125 30.511719 81.367188 30.515625 81.4375 30.523438 C 81.640625 30.539062 81.824219 30.625 81.972656 30.753906 C 82.113281 30.882812 82.214844 31.058594 82.253906 31.257812 L 82.347656 31.753906 C 82.347656 31.761719 82.351562 31.769531 82.355469 31.773438 C 82.359375 31.777344 82.367188 31.78125 82.375 31.785156 C 82.601562 31.84375 82.816406 31.917969 83.027344 32.003906 C 83.238281 32.089844 83.445312 32.191406 83.644531 32.308594 C 83.652344 32.3125 83.660156 32.316406 83.667969 32.316406 C 83.675781 32.316406 83.679688 32.3125 83.6875 32.308594 L 83.6875 32.304688 L 84.039062 32.066406 C 84.214844 31.945312 84.417969 31.894531 84.617188 31.90625 C 84.816406 31.921875 85.007812 32 85.164062 32.140625 C 85.261719 32.226562 85.355469 32.320312 85.453125 32.417969 L 85.453125 32.421875 C 85.546875 32.515625 85.636719 32.613281 85.722656 32.710938 C 85.855469 32.871094 85.929688 33.058594 85.9375 33.25 C 85.949219 33.445312 85.894531 33.636719 85.78125 33.808594 C 85.773438 33.816406 85.765625 33.828125 85.757812 33.835938 L 85.542969 34.148438 L 85.539062 34.148438 L 85.542969 34.148438 C 85.535156 34.15625 85.53125 34.164062 85.53125 34.171875 C 85.53125 34.175781 85.535156 34.183594 85.539062 34.195312 C 85.65625 34.390625 85.757812 34.597656 85.847656 34.808594 C 85.933594 35.015625 86.007812 35.230469 86.066406 35.453125 C 86.070312 35.464844 86.074219 35.472656 86.074219 35.476562 C 86.078125 35.480469 86.085938 35.480469 86.097656 35.484375 L 86.476562 35.554688 C 86.683594 35.59375 86.859375 35.695312 86.992188 35.84375 C 87.121094 35.988281 87.203125 36.175781 87.214844 36.382812 C 87.21875 36.4375 87.222656 36.503906 87.226562 36.585938 C 87.230469 36.683594 87.230469 36.75 87.230469 36.789062 C 87.230469 36.824219 87.230469 36.894531 87.226562 36.988281 C 87.222656 37.070312 87.21875 37.140625 87.214844 37.191406 C 87.203125 37.398438 87.121094 37.585938 86.992188 37.734375 C 86.859375 37.878906 86.679688 37.984375 86.476562 38.019531 L 86.097656 38.089844 C 86.085938 38.09375 86.082031 38.09375 86.074219 38.097656 C 86.074219 38.101562 86.070312 38.109375 86.066406 38.121094 C 86.007812 38.34375 85.933594 38.558594 85.847656 38.769531 C 85.757812 38.980469 85.65625 39.183594 85.539062 39.382812 C 85.535156 39.390625 85.53125 39.398438 85.53125 39.40625 C 85.535156 39.410156 85.535156 39.417969 85.542969 39.425781 L 85.777344 39.765625 L 85.777344 39.769531 C 85.894531 39.9375 85.949219 40.132812 85.9375 40.324219 C 85.925781 40.515625 85.855469 40.703125 85.71875 40.859375 L 85.71875 40.863281 C 85.632812 40.960938 85.546875 41.058594 85.453125 41.15625 L 85.449219 41.160156 C 85.355469 41.253906 85.257812 41.347656 85.164062 41.433594 C 85.007812 41.574219 84.816406 41.652344 84.617188 41.667969 C 84.417969 41.679688 84.214844 41.628906 84.039062 41.507812 L 83.6875 41.269531 C 83.679688 41.261719 83.671875 41.257812 83.667969 41.257812 C 83.660156 41.257812 83.652344 41.261719 83.644531 41.265625 C 83.445312 41.382812 83.238281 41.484375 83.027344 41.570312 C 82.816406 41.65625 82.601562 41.730469 82.375 41.789062 C 82.367188 41.792969 82.359375 41.796875 82.355469 41.800781 C 82.351562 41.804688 82.347656 41.8125 82.347656 41.820312 L 82.253906 42.316406 C 82.214844 42.515625 82.113281 42.691406 81.972656 42.820312 C 81.828125 42.949219 81.640625 43.035156 81.4375 43.050781 C 81.367188 43.058594 81.28125 43.0625 81.171875 43.066406 C 81.0625 43.070312 80.976562 43.074219 80.910156 43.074219 Z M 80.675781 42.207031 C 80.734375 42.210938 80.808594 42.210938 80.910156 42.210938 C 81.007812 42.210938 81.082031 42.210938 81.136719 42.207031 C 81.195312 42.207031 81.273438 42.199219 81.367188 42.191406 C 81.378906 42.191406 81.386719 42.1875 81.394531 42.183594 C 81.398438 42.179688 81.402344 42.171875 81.40625 42.160156 L 81.496094 41.664062 C 81.527344 41.492188 81.609375 41.335938 81.722656 41.214844 C 81.835938 41.09375 81.984375 41.003906 82.15625 40.957031 C 82.339844 40.910156 82.519531 40.847656 82.695312 40.777344 C 82.875 40.703125 83.046875 40.617188 83.210938 40.523438 C 83.363281 40.433594 83.53125 40.394531 83.699219 40.402344 C 83.867188 40.40625 84.03125 40.460938 84.179688 40.5625 L 84.53125 40.800781 C 84.539062 40.808594 84.550781 40.808594 84.558594 40.808594 C 84.566406 40.808594 84.574219 40.804688 84.582031 40.796875 C 84.671875 40.71875 84.753906 40.640625 84.828125 40.5625 L 84.832031 40.558594 C 84.910156 40.476562 84.988281 40.390625 85.066406 40.304688 C 85.070312 40.296875 85.074219 40.289062 85.074219 40.28125 C 85.074219 40.273438 85.074219 40.261719 85.066406 40.253906 L 85.066406 40.25 L 84.832031 39.914062 C 84.730469 39.765625 84.675781 39.601562 84.671875 39.433594 C 84.664062 39.269531 84.703125 39.101562 84.792969 38.949219 C 84.886719 38.785156 84.972656 38.617188 85.046875 38.4375 C 85.121094 38.261719 85.183594 38.082031 85.230469 37.902344 C 85.277344 37.730469 85.367188 37.585938 85.492188 37.46875 C 85.613281 37.355469 85.769531 37.277344 85.941406 37.246094 L 86.320312 37.175781 C 86.332031 37.175781 86.339844 37.171875 86.34375 37.164062 C 86.347656 37.160156 86.351562 37.148438 86.351562 37.136719 C 86.359375 37.066406 86.359375 37.007812 86.363281 36.964844 C 86.363281 36.933594 86.363281 36.878906 86.363281 36.789062 C 86.363281 36.699219 86.363281 36.640625 86.363281 36.613281 C 86.359375 36.566406 86.359375 36.507812 86.351562 36.4375 C 86.351562 36.425781 86.347656 36.417969 86.34375 36.410156 C 86.339844 36.40625 86.332031 36.402344 86.320312 36.398438 L 85.941406 36.328125 C 85.769531 36.296875 85.613281 36.21875 85.492188 36.105469 C 85.367188 35.992188 85.277344 35.84375 85.230469 35.675781 C 85.183594 35.492188 85.121094 35.3125 85.046875 35.136719 C 84.972656 34.960938 84.886719 34.789062 84.792969 34.625 C 84.703125 34.472656 84.664062 34.308594 84.671875 34.140625 C 84.675781 33.972656 84.730469 33.808594 84.832031 33.664062 L 85.046875 33.351562 C 85.054688 33.34375 85.058594 33.332031 85.066406 33.324219 C 85.070312 33.3125 85.074219 33.304688 85.074219 33.296875 C 85.074219 33.289062 85.070312 33.28125 85.066406 33.273438 C 84.988281 33.183594 84.914062 33.101562 84.832031 33.019531 L 84.832031 33.015625 C 84.753906 32.9375 84.671875 32.859375 84.582031 32.777344 C 84.574219 32.769531 84.566406 32.765625 84.558594 32.765625 C 84.550781 32.765625 84.539062 32.769531 84.53125 32.773438 L 84.179688 33.015625 L 84.179688 33.011719 L 84.179688 33.015625 C 84.03125 33.113281 83.867188 33.167969 83.699219 33.175781 C 83.53125 33.179688 83.363281 33.140625 83.210938 33.050781 C 83.046875 32.957031 82.875 32.871094 82.695312 32.800781 C 82.519531 32.726562 82.339844 32.664062 82.15625 32.617188 C 81.984375 32.570312 81.835938 32.480469 81.722656 32.359375 C 81.609375 32.234375 81.53125 32.082031 81.496094 31.910156 L 81.40625 31.414062 C 81.402344 31.402344 81.398438 31.394531 81.394531 31.390625 C 81.386719 31.386719 81.378906 31.382812 81.367188 31.382812 C 81.273438 31.375 81.195312 31.367188 81.140625 31.367188 C 81.082031 31.363281 81.007812 31.363281 80.910156 31.363281 C 80.8125 31.363281 80.734375 31.363281 80.679688 31.367188 C 80.621094 31.367188 80.542969 31.375 80.449219 31.382812 C 80.4375 31.382812 80.429688 31.386719 80.421875 31.390625 C 80.417969 31.394531 80.414062 31.402344 80.410156 31.414062 L 80.320312 31.910156 C 80.289062 32.066406 80.222656 32.207031 80.121094 32.324219 C 80.113281 32.335938 80.105469 32.347656 80.09375 32.359375 C 79.980469 32.480469 79.832031 32.570312 79.660156 32.617188 C 79.480469 32.664062 79.308594 32.722656 79.140625 32.789062 L 79.121094 32.796875 C 78.941406 32.871094 78.769531 32.957031 78.605469 33.050781 C 78.453125 33.140625 78.285156 33.179688 78.117188 33.175781 C 77.949219 33.167969 77.78125 33.113281 77.636719 33.015625 L 77.285156 32.773438 C 77.277344 32.765625 77.265625 32.765625 77.257812 32.765625 C 77.25 32.765625 77.242188 32.769531 77.234375 32.777344 C 77.144531 32.859375 77.0625 32.9375 76.984375 33.015625 L 76.984375 33.019531 C 76.90625 33.097656 76.828125 33.183594 76.75 33.273438 C 76.746094 33.28125 76.742188 33.289062 76.742188 33.296875 C 76.742188 33.304688 76.742188 33.3125 76.75 33.320312 L 76.984375 33.664062 C 77.085938 33.808594 77.140625 33.972656 77.144531 34.140625 C 77.152344 34.308594 77.113281 34.472656 77.023438 34.625 C 76.929688 34.789062 76.84375 34.960938 76.769531 35.136719 C 76.695312 35.3125 76.632812 35.492188 76.585938 35.675781 C 76.539062 35.84375 76.449219 35.992188 76.324219 36.105469 C 76.203125 36.21875 76.046875 36.296875 75.875 36.328125 L 75.496094 36.398438 C 75.484375 36.402344 75.476562 36.40625 75.472656 36.410156 C 75.464844 36.417969 75.464844 36.425781 75.460938 36.4375 C 75.457031 36.507812 75.453125 36.566406 75.453125 36.609375 C 75.453125 36.640625 75.453125 36.699219 75.453125 36.789062 C 75.453125 36.875 75.453125 36.933594 75.453125 36.960938 C 75.453125 37.007812 75.457031 37.066406 75.460938 37.136719 C 75.464844 37.148438 75.464844 37.160156 75.472656 37.164062 C 75.476562 37.171875 75.484375 37.175781 75.496094 37.175781 L 75.875 37.246094 C 76.046875 37.277344 76.203125 37.355469 76.328125 37.46875 L 76.324219 37.46875 C 76.449219 37.585938 76.539062 37.730469 76.585938 37.902344 C 76.632812 38.082031 76.695312 38.261719 76.769531 38.4375 C 76.84375 38.617188 76.925781 38.785156 77.023438 38.949219 C 77.109375 39.101562 77.152344 39.269531 77.144531 39.433594 C 77.140625 39.589844 77.09375 39.742188 77.003906 39.878906 C 77 39.890625 76.992188 39.902344 76.984375 39.910156 L 76.75 40.253906 C 76.742188 40.261719 76.742188 40.269531 76.742188 40.28125 C 76.742188 40.285156 76.746094 40.296875 76.75 40.304688 C 76.828125 40.390625 76.902344 40.476562 76.984375 40.558594 C 77.0625 40.636719 77.144531 40.71875 77.234375 40.796875 C 77.242188 40.804688 77.25 40.808594 77.257812 40.808594 C 77.265625 40.808594 77.277344 40.808594 77.285156 40.800781 L 77.636719 40.5625 C 77.785156 40.460938 77.949219 40.40625 78.117188 40.402344 C 78.285156 40.394531 78.453125 40.433594 78.605469 40.523438 C 78.769531 40.617188 78.941406 40.703125 79.121094 40.777344 C 79.296875 40.847656 79.476562 40.910156 79.660156 40.957031 C 79.832031 41.003906 79.980469 41.09375 80.09375 41.21875 C 80.207031 41.339844 80.289062 41.492188 80.320312 41.667969 L 80.410156 42.160156 C 80.414062 42.171875 80.417969 42.179688 80.421875 42.183594 C 80.425781 42.1875 80.4375 42.191406 80.449219 42.191406 C 80.542969 42.199219 80.617188 42.207031 80.675781 42.207031 Z M 79.390625 36.878906 L 80.171875 37.898438 C 80.316406 38.089844 80.589844 38.125 80.777344 37.984375 C 80.800781 37.964844 80.820312 37.949219 80.835938 37.929688 L 82.402344 36.222656 C 82.5625 36.046875 82.546875 35.773438 82.371094 35.617188 C 82.195312 35.457031 81.921875 35.46875 81.761719 35.644531 L 80.546875 36.972656 L 80.078125 36.359375 C 79.933594 36.171875 79.664062 36.132812 79.476562 36.277344 C 79.285156 36.417969 79.246094 36.6875 79.390625 36.878906 Z M 82.457031 51.765625 C 82.453125 51.769531 82.449219 51.773438 82.441406 51.777344 C 81.914062 52.199219 81.332031 52.476562 80.703125 52.621094 C 80.082031 52.761719 79.421875 52.765625 78.714844 52.636719 C 78.695312 52.632812 78.671875 52.628906 78.652344 52.621094 C 78.027344 52.4375 77.4375 52.25 76.691406 51.996094 C 75.996094 51.761719 75.152344 51.460938 73.992188 51.039062 L 73.429688 51.363281 L 73.625 51.695312 C 73.742188 51.902344 73.671875 52.164062 73.464844 52.28125 L 70.894531 53.757812 C 70.6875 53.875 70.425781 53.804688 70.304688 53.597656 L 67 47.90625 C 66.882812 47.703125 66.953125 47.4375 67.160156 47.320312 L 69.730469 45.847656 C 69.933594 45.726562 70.199219 45.800781 70.316406 46.003906 L 70.511719 46.335938 L 72.230469 45.351562 L 72.242188 45.34375 C 72.804688 45 73.402344 44.800781 74.03125 44.742188 C 74.585938 44.6875 75.164062 44.746094 75.761719 44.910156 C 75.765625 44.910156 75.773438 44.914062 75.777344 44.914062 L 79.84375 46.003906 C 80.222656 46.105469 80.523438 46.351562 80.707031 46.664062 C 80.710938 46.671875 80.714844 46.683594 80.71875 46.691406 C 80.890625 47 80.945312 47.371094 80.847656 47.734375 L 80.847656 47.738281 C 80.796875 47.925781 80.707031 48.097656 80.59375 48.246094 L 80.644531 48.257812 L 86.914062 44.652344 L 86.914062 44.65625 L 86.914062 44.652344 C 87.507812 44.3125 88.085938 44.449219 88.511719 44.800781 C 88.664062 44.929688 88.792969 45.085938 88.894531 45.257812 C 88.992188 45.429688 89.0625 45.617188 89.101562 45.808594 C 89.199219 46.339844 89.035156 46.890625 88.480469 47.21875 Z M 69.980469 47.140625 L 72.660156 51.753906 L 70.839844 52.800781 L 67.964844 47.851562 L 69.785156 46.804688 L 69.976562 47.132812 L 69.980469 47.136719 Z M 69.980469 47.140625 " fill-opacity="1" fill-rule="evenodd"/></g><g clip-path="url(#d45300db9b)"><path fill="#000000" d="M 117.074219 35.382812 L 117.074219 37.070312 C 117.074219 37.585938 117.492188 38.003906 118.003906 38.003906 L 119.695312 38.003906 C 120.207031 38.003906 120.625 37.585938 120.625 37.070312 L 120.625 35.382812 C 120.625 34.867188 120.207031 34.449219 119.695312 34.449219 L 118.003906 34.449219 C 117.492188 34.449219 117.074219 34.867188 117.074219 35.382812 Z M 119.878906 35.382812 L 119.878906 37.070312 C 119.878906 37.171875 119.796875 37.257812 119.695312 37.257812 L 118.003906 37.257812 C 117.902344 37.257812 117.820312 37.171875 117.820312 37.070312 L 117.820312 35.382812 C 117.820312 35.28125 117.902344 35.195312 118.003906 35.195312 L 119.695312 35.195312 C 119.796875 35.195312 119.878906 35.28125 119.878906 35.382812 Z M 119.695312 39.191406 L 118.003906 39.191406 C 117.492188 39.191406 117.074219 39.609375 117.074219 40.125 L 117.074219 41.816406 C 117.074219 42.328125 117.492188 42.746094 118.003906 42.746094 L 119.695312 42.746094 C 120.207031 42.746094 120.625 42.328125 120.625 41.816406 L 120.625 40.125 C 120.625 39.609375 120.207031 39.191406 119.695312 39.191406 Z M 119.878906 41.816406 C 119.878906 41.914062 119.796875 42 119.695312 42 L 118.003906 42 C 117.902344 42 117.820312 41.914062 117.820312 41.816406 L 117.820312 40.125 C 117.820312 40.023438 117.902344 39.9375 118.003906 39.9375 L 119.695312 39.9375 C 119.796875 39.9375 119.878906 40.023438 119.878906 40.125 Z M 119.695312 43.933594 L 118.003906 43.933594 C 117.492188 43.933594 117.074219 44.351562 117.074219 44.867188 L 117.074219 46.558594 C 117.074219 47.070312 117.492188 47.488281 118.003906 47.488281 L 119.695312 47.488281 C 120.207031 47.488281 120.625 47.070312 120.625 46.558594 L 120.625 44.867188 C 120.625 44.351562 120.207031 43.933594 119.695312 43.933594 Z M 119.878906 46.558594 C 119.878906 46.65625 119.796875 46.742188 119.695312 46.742188 L 118.003906 46.742188 C 117.902344 46.742188 117.820312 46.65625 117.820312 46.558594 L 117.820312 44.867188 C 117.820312 44.765625 117.902344 44.679688 118.003906 44.679688 L 119.695312 44.679688 C 119.796875 44.679688 119.878906 44.765625 119.878906 44.867188 Z M 122.867188 29.925781 C 122.867188 30.175781 122.664062 30.378906 122.414062 30.378906 C 122.167969 30.378906 121.964844 30.175781 121.964844 29.925781 C 121.964844 29.679688 122.167969 29.476562 122.414062 29.476562 C 122.664062 29.476562 122.867188 29.679688 122.867188 29.925781 Z M 136.320312 39.054688 C 136.25 38.984375 136.15625 38.945312 136.054688 38.945312 L 134.953125 38.945312 C 133.703125 38.945312 133.558594 38.835938 132.738281 38.226562 C 132.5625 38.097656 132.363281 37.949219 132.117188 37.777344 C 131.921875 37.636719 131.71875 37.511719 131.511719 37.398438 L 131.511719 34.984375 C 131.679688 34.644531 131.722656 34.257812 131.621094 33.882812 C 131.59375 33.78125 131.558594 33.683594 131.511719 33.589844 L 131.511719 31.441406 C 131.511719 30.683594 130.894531 30.066406 130.136719 30.066406 L 126.648438 30.066406 L 126.648438 29.832031 C 126.648438 29.625 126.480469 29.460938 126.273438 29.460938 L 124.34375 29.460938 C 124.03125 28.679688 123.277344 28.15625 122.414062 28.15625 C 121.550781 28.15625 120.796875 28.679688 120.484375 29.460938 L 118.554688 29.460938 C 118.347656 29.460938 118.179688 29.625 118.179688 29.832031 L 118.179688 30.066406 L 114.695312 30.066406 C 113.933594 30.066406 113.320312 30.683594 113.320312 31.441406 L 113.320312 49.890625 C 113.320312 50.648438 113.933594 51.265625 114.695312 51.265625 L 130.136719 51.265625 C 130.894531 51.265625 131.511719 50.648438 131.511719 49.890625 L 131.511719 46.105469 C 131.535156 46.105469 131.5625 46.105469 131.585938 46.105469 C 131.589844 46.105469 131.59375 46.105469 131.59375 46.105469 L 136.054688 46.101562 C 136.261719 46.097656 136.429688 45.933594 136.429688 45.726562 L 136.429688 39.320312 C 136.429688 39.222656 136.390625 39.125 136.320312 39.054688 Z M 130.394531 36.921875 L 130.765625 36.28125 L 130.765625 37.046875 C 130.644531 37 130.519531 36.957031 130.394531 36.921875 Z M 127.402344 40.617188 C 126.820312 40.316406 126.214844 40.007812 125.46875 39.777344 L 129.007812 33.644531 C 129.113281 33.457031 129.289062 33.324219 129.5 33.269531 C 129.710938 33.210938 129.929688 33.242188 130.113281 33.347656 L 130.523438 33.585938 C 130.710938 33.691406 130.84375 33.867188 130.902344 34.078125 C 130.957031 34.289062 130.929688 34.503906 130.820312 34.691406 L 129.507812 36.964844 C 129.507812 36.96875 129.507812 36.96875 129.507812 36.96875 Z M 128.019531 44.5625 C 128.058594 44.589844 128.097656 44.621094 128.136719 44.652344 C 128.355469 44.824219 128.566406 44.988281 128.78125 45.144531 C 128.703125 45.199219 128.609375 45.226562 128.507812 45.226562 C 128.378906 45.226562 128.257812 45.175781 128.164062 45.085938 C 128.070312 44.992188 128.019531 44.871094 128.019531 44.738281 C 128.019531 44.722656 128.019531 44.707031 128.019531 44.691406 Z M 127.277344 44 L 127.277344 44.691406 C 127.277344 44.707031 127.277344 44.722656 127.277344 44.738281 C 127.277344 45.007812 127.058594 45.226562 126.789062 45.226562 C 126.519531 45.226562 126.300781 45.007812 126.300781 44.738281 L 126.300781 44.015625 L 126.570312 43.550781 C 126.824219 43.695312 127.058594 43.847656 127.277344 44 Z M 124.996094 44.785156 L 123.179688 43.738281 L 123.941406 42.414062 C 124.097656 42.535156 124.277344 42.625 124.476562 42.679688 C 125.019531 42.832031 125.492188 43.011719 125.90625 43.207031 Z M 123.042969 44.519531 L 124.386719 45.292969 L 123.042969 46.070312 Z M 123.394531 40.800781 C 123.304688 41.136719 123.332031 41.472656 123.453125 41.773438 L 122.449219 43.511719 C 122.398438 43.449219 122.351562 43.375 122.320312 43.292969 C 122.253906 43.132812 122.246094 42.96875 122.296875 42.847656 L 123.328125 40.398438 C 123.53125 39.917969 123.824219 39.5625 124.257812 39.269531 L 125.308594 38.5625 L 124.660156 39.679688 C 124.070312 39.765625 123.558594 40.191406 123.394531 40.800781 Z M 130.136719 30.8125 C 130.484375 30.8125 130.765625 31.09375 130.765625 31.441406 L 130.765625 32.863281 L 130.488281 32.703125 C 130.371094 32.632812 130.246094 32.582031 130.117188 32.546875 L 130.117188 31.832031 C 130.117188 31.628906 129.949219 31.460938 129.742188 31.460938 L 126.648438 31.460938 L 126.648438 30.8125 Z M 118.925781 30.207031 L 120.757812 30.207031 C 120.929688 30.207031 121.078125 30.085938 121.121094 29.917969 C 121.265625 29.320312 121.796875 28.902344 122.414062 28.902344 C 123.03125 28.902344 123.566406 29.320312 123.710938 29.917969 C 123.75 30.085938 123.898438 30.207031 124.070312 30.207031 L 125.902344 30.207031 L 125.902344 32.066406 L 118.925781 32.066406 Z M 126.273438 32.8125 C 126.480469 32.8125 126.648438 32.644531 126.648438 32.441406 L 126.648438 32.207031 L 129.371094 32.207031 L 129.371094 32.53125 C 129.347656 32.539062 129.328125 32.542969 129.308594 32.546875 C 128.90625 32.65625 128.570312 32.914062 128.363281 33.273438 L 127.445312 34.855469 C 127.425781 34.851562 127.40625 34.851562 127.382812 34.851562 L 122.671875 34.851562 C 122.464844 34.851562 122.296875 35.019531 122.296875 35.222656 C 122.296875 35.429688 122.464844 35.597656 122.671875 35.597656 L 127.019531 35.597656 L 126.292969 36.855469 L 122.671875 36.855469 C 122.464844 36.855469 122.296875 37.023438 122.296875 37.230469 C 122.296875 37.433594 122.464844 37.601562 122.671875 37.601562 L 125.402344 37.601562 C 125.355469 37.632812 125.304688 37.667969 125.253906 37.699219 L 123.839844 38.652344 C 123.285156 39.027344 122.902344 39.492188 122.640625 40.109375 L 121.609375 42.558594 C 121.480469 42.867188 121.488281 43.230469 121.628906 43.578125 C 121.765625 43.90625 122.003906 44.179688 122.296875 44.347656 L 122.296875 46.714844 C 122.296875 46.847656 122.371094 46.96875 122.484375 47.035156 C 122.542969 47.070312 122.605469 47.085938 122.671875 47.085938 C 122.679688 47.085938 122.691406 47.085938 122.699219 47.085938 C 122.714844 47.085938 122.726562 47.085938 122.738281 47.085938 L 127.382812 47.085938 C 127.589844 47.085938 127.753906 46.921875 127.753906 46.714844 C 127.753906 46.507812 127.589844 46.339844 127.382812 46.339844 L 124.0625 46.339844 L 125.316406 45.617188 C 125.375 45.582031 125.421875 45.535156 125.453125 45.480469 L 125.632812 45.171875 C 125.808594 45.640625 126.257812 45.972656 126.789062 45.972656 C 127.121094 45.972656 127.425781 45.839844 127.648438 45.621094 C 127.882812 45.847656 128.1875 45.972656 128.507812 45.972656 C 128.835938 45.972656 129.144531 45.839844 129.371094 45.621094 L 129.371094 49.125 L 115.457031 49.125 L 115.457031 32.207031 L 118.179688 32.207031 L 118.179688 32.441406 C 118.179688 32.644531 118.347656 32.8125 118.554688 32.8125 Z M 130.765625 49.890625 C 130.765625 50.238281 130.484375 50.519531 130.136719 50.519531 L 114.695312 50.519531 C 114.347656 50.519531 114.0625 50.238281 114.0625 49.890625 L 114.0625 31.441406 C 114.0625 31.09375 114.347656 30.8125 114.695312 30.8125 L 118.179688 30.8125 L 118.179688 31.460938 L 115.085938 31.460938 C 114.878906 31.460938 114.714844 31.628906 114.714844 31.832031 L 114.714844 49.5 C 114.714844 49.703125 114.878906 49.871094 115.085938 49.871094 L 129.742188 49.871094 C 129.949219 49.871094 130.117188 49.703125 130.117188 49.5 L 130.117188 45.871094 C 130.316406 45.941406 130.53125 46 130.765625 46.039062 Z M 131.59375 45.359375 C 131.59375 45.359375 131.589844 45.359375 131.585938 45.359375 C 130.246094 45.359375 129.554688 44.816406 128.597656 44.066406 C 127.714844 43.371094 126.613281 42.507812 124.675781 41.960938 C 124.675781 41.960938 124.671875 41.960938 124.671875 41.960938 C 124.257812 41.847656 124.003906 41.40625 124.113281 40.996094 C 124.226562 40.574219 124.65625 40.324219 125.078125 40.4375 C 125.855469 40.65625 126.484375 40.980469 127.09375 41.296875 C 128.011719 41.769531 128.957031 42.261719 130.382812 42.371094 C 130.585938 42.386719 130.765625 42.230469 130.78125 42.027344 C 130.796875 41.820312 130.644531 41.640625 130.441406 41.625 C 129.46875 41.550781 128.75 41.28125 128.066406 40.953125 L 130.011719 37.582031 C 130.605469 37.75 131.167969 38.019531 131.6875 38.386719 C 131.925781 38.554688 132.121094 38.699219 132.292969 38.828125 C 133.027344 39.371094 133.367188 39.597656 134.195312 39.667969 L 134.195312 45.355469 Z M 135.683594 45.355469 L 134.9375 45.355469 L 134.9375 39.691406 C 134.945312 39.691406 134.949219 39.691406 134.953125 39.691406 L 135.683594 39.691406 Z M 135.683594 45.355469 " fill-opacity="1" fill-rule="nonzero"/></g><g fill="#ffffff" fill-opacity="1"><g transform="translate(166.125114, 38.245097)"><g><path d="M 4.09375 0.109375 C 3.445312 0.109375 2.875 -0.0351562 2.375 -0.328125 C 1.875 -0.628906 1.484375 -1.082031 1.203125 -1.6875 C 0.921875 -2.289062 0.78125 -3.023438 0.78125 -3.890625 C 0.78125 -4.765625 0.929688 -5.503906 1.234375 -6.109375 C 1.535156 -6.710938 1.953125 -7.160156 2.484375 -7.453125 C 3.015625 -7.753906 3.628906 -7.90625 4.328125 -7.90625 C 5.066406 -7.90625 5.675781 -7.769531 6.15625 -7.5 C 6.644531 -7.238281 6.988281 -6.835938 7.1875 -6.296875 L 6.59375 -5.953125 L 6.453125 -5.953125 C 6.253906 -6.359375 5.976562 -6.648438 5.625 -6.828125 C 5.28125 -7.003906 4.847656 -7.09375 4.328125 -7.09375 C 2.617188 -7.09375 1.765625 -6.023438 1.765625 -3.890625 C 1.765625 -2.785156 1.976562 -1.976562 2.40625 -1.46875 C 2.832031 -0.96875 3.4375 -0.71875 4.21875 -0.71875 C 4.925781 -0.71875 5.457031 -0.878906 5.8125 -1.203125 C 6.164062 -1.523438 6.34375 -2.035156 6.34375 -2.734375 L 6.34375 -3.421875 L 4.125 -3.421875 L 4.125 -4.15625 L 7.234375 -4.15625 L 7.234375 0 L 6.390625 0 L 6.390625 -1.046875 L 6.265625 -1.078125 C 6.066406 -0.671875 5.78125 -0.367188 5.40625 -0.171875 C 5.039062 0.015625 4.601562 0.109375 4.09375 0.109375 Z M 4.09375 0.109375 "/></g></g></g><g fill="#ffffff" fill-opacity="1"><g transform="translate(174.234231, 38.245097)"><g><path d="M 3.703125 -7.796875 C 4.492188 -7.796875 5.171875 -7.65625 5.734375 -7.375 C 6.304688 -7.09375 6.742188 -6.660156 7.046875 -6.078125 C 7.359375 -5.492188 7.515625 -4.765625 7.515625 -3.890625 C 7.515625 -3.023438 7.359375 -2.300781 7.046875 -1.71875 C 6.742188 -1.132812 6.304688 -0.703125 5.734375 -0.421875 C 5.171875 -0.140625 4.492188 0 3.703125 0 L 1.171875 0 L 1.171875 -7.796875 Z M 3.609375 -0.78125 C 4.265625 -0.78125 4.800781 -0.878906 5.21875 -1.078125 C 5.644531 -1.285156 5.96875 -1.617188 6.1875 -2.078125 C 6.414062 -2.535156 6.53125 -3.140625 6.53125 -3.890625 C 6.53125 -4.660156 6.414062 -5.269531 6.1875 -5.71875 C 5.96875 -6.175781 5.644531 -6.503906 5.21875 -6.703125 C 4.800781 -6.910156 4.265625 -7.015625 3.609375 -7.015625 L 2.09375 -7.015625 L 2.09375 -0.78125 Z M 3.609375 -0.78125 "/></g></g></g><g fill="#ffffff" fill-opacity="1"><g transform="translate(182.524737, 38.245097)"><g><path d="M 3.96875 -7.796875 C 4.5 -7.796875 4.957031 -7.695312 5.34375 -7.5 C 5.726562 -7.3125 6.019531 -7.039062 6.21875 -6.6875 C 6.425781 -6.332031 6.53125 -5.910156 6.53125 -5.421875 C 6.53125 -4.941406 6.425781 -4.519531 6.21875 -4.15625 C 6.019531 -3.800781 5.726562 -3.523438 5.34375 -3.328125 C 4.957031 -3.140625 4.5 -3.046875 3.96875 -3.046875 L 2.09375 -3.046875 L 2.09375 0 L 1.171875 0 L 1.171875 -7.796875 Z M 3.9375 -3.828125 C 5.019531 -3.828125 5.5625 -4.359375 5.5625 -5.421875 C 5.5625 -6.484375 5.019531 -7.015625 3.9375 -7.015625 L 2.09375 -7.015625 L 2.09375 -3.828125 Z M 3.9375 -3.828125 "/></g></g></g><g fill="#ffffff" fill-opacity="1"><g transform="translate(189.636219, 38.245097)"><g><path d="M 1.171875 0 L 1.171875 -7.796875 L 4.015625 -7.796875 C 4.535156 -7.796875 4.972656 -7.707031 5.328125 -7.53125 C 5.679688 -7.363281 5.945312 -7.117188 6.125 -6.796875 C 6.300781 -6.484375 6.390625 -6.113281 6.390625 -5.6875 C 6.390625 -5.207031 6.269531 -4.804688 6.03125 -4.484375 C 5.789062 -4.171875 5.414062 -3.9375 4.90625 -3.78125 L 4.90625 -3.671875 C 5.15625 -3.578125 5.359375 -3.421875 5.515625 -3.203125 C 5.679688 -2.992188 5.832031 -2.675781 5.96875 -2.25 L 6.6875 0 L 5.734375 0 L 4.953125 -2.390625 C 4.867188 -2.671875 4.765625 -2.890625 4.640625 -3.046875 C 4.515625 -3.203125 4.359375 -3.316406 4.171875 -3.390625 C 3.992188 -3.460938 3.765625 -3.5 3.484375 -3.5 L 2.09375 -3.5 L 2.09375 0 Z M 3.984375 -4.28125 C 4.472656 -4.28125 4.835938 -4.390625 5.078125 -4.609375 C 5.316406 -4.835938 5.4375 -5.179688 5.4375 -5.640625 C 5.4375 -6.109375 5.316406 -6.453125 5.078125 -6.671875 C 4.835938 -6.898438 4.472656 -7.015625 3.984375 -7.015625 L 2.09375 -7.015625 L 2.09375 -4.28125 Z M 3.984375 -4.28125 "/></g></g></g><g fill="#ffffff" fill-opacity="1"><g transform="translate(196.859736, 38.245097)"><g/></g></g><g fill="#ffffff" fill-opacity="1"><g transform="translate(199.537879, 38.245097)"><g><path d="M 4.3125 0.109375 C 3.625 0.109375 3.015625 -0.046875 2.484375 -0.359375 C 1.953125 -0.671875 1.535156 -1.128906 1.234375 -1.734375 C 0.929688 -2.335938 0.78125 -3.054688 0.78125 -3.890625 C 0.78125 -4.734375 0.929688 -5.457031 1.234375 -6.0625 C 1.535156 -6.664062 1.953125 -7.125 2.484375 -7.4375 C 3.015625 -7.75 3.625 -7.90625 4.3125 -7.90625 C 5.039062 -7.90625 5.644531 -7.765625 6.125 -7.484375 C 6.613281 -7.210938 6.960938 -6.800781 7.171875 -6.25 L 6.59375 -5.859375 L 6.453125 -5.859375 C 6.242188 -6.304688 5.96875 -6.625 5.625 -6.8125 C 5.28125 -7 4.84375 -7.09375 4.3125 -7.09375 C 3.820312 -7.09375 3.382812 -6.984375 3 -6.765625 C 2.625 -6.546875 2.320312 -6.195312 2.09375 -5.71875 C 1.875 -5.238281 1.765625 -4.628906 1.765625 -3.890625 C 1.765625 -3.160156 1.875 -2.554688 2.09375 -2.078125 C 2.320312 -1.609375 2.625 -1.265625 3 -1.046875 C 3.382812 -0.828125 3.820312 -0.71875 4.3125 -0.71875 C 4.875 -0.71875 5.332031 -0.84375 5.6875 -1.09375 C 6.050781 -1.351562 6.320312 -1.765625 6.5 -2.328125 L 6.625 -2.328125 L 7.234375 -2.03125 C 7.054688 -1.332031 6.71875 -0.800781 6.21875 -0.4375 C 5.71875 -0.0703125 5.082031 0.109375 4.3125 0.109375 Z M 4.3125 0.109375 "/></g></g></g><g fill="#ffffff" fill-opacity="1"><g transform="translate(207.188191, 38.245097)"><g><path d="M 3.375 0.109375 C 2.820312 0.109375 2.335938 -0.00390625 1.921875 -0.234375 C 1.515625 -0.472656 1.195312 -0.820312 0.96875 -1.28125 C 0.75 -1.738281 0.640625 -2.289062 0.640625 -2.9375 C 0.640625 -3.59375 0.75 -4.148438 0.96875 -4.609375 C 1.195312 -5.066406 1.515625 -5.410156 1.921875 -5.640625 C 2.335938 -5.878906 2.820312 -6 3.375 -6 C 3.925781 -6 4.40625 -5.878906 4.8125 -5.640625 C 5.226562 -5.410156 5.546875 -5.066406 5.765625 -4.609375 C 5.992188 -4.148438 6.109375 -3.59375 6.109375 -2.9375 C 6.109375 -2.289062 5.992188 -1.738281 5.765625 -1.28125 C 5.546875 -0.820312 5.226562 -0.472656 4.8125 -0.234375 C 4.40625 -0.00390625 3.925781 0.109375 3.375 0.109375 Z M 3.375 -0.671875 C 3.957031 -0.671875 4.40625 -0.851562 4.71875 -1.21875 C 5.03125 -1.59375 5.1875 -2.164062 5.1875 -2.9375 C 5.1875 -3.71875 5.03125 -4.289062 4.71875 -4.65625 C 4.40625 -5.03125 3.957031 -5.21875 3.375 -5.21875 C 2.789062 -5.21875 2.34375 -5.03125 2.03125 -4.65625 C 1.71875 -4.28125 1.5625 -3.707031 1.5625 -2.9375 C 1.5625 -2.164062 1.71875 -1.59375 2.03125 -1.21875 C 2.34375 -0.851562 2.789062 -0.671875 3.375 -0.671875 Z M 3.375 -0.671875 "/></g></g></g><g fill="#ffffff" fill-opacity="1"><g transform="translate(213.942232, 38.245097)"><g><path d="M 1.03125 0 L 1.03125 -5.875 L 1.84375 -5.875 L 1.84375 -5.015625 L 1.96875 -4.984375 C 2.164062 -5.316406 2.40625 -5.566406 2.6875 -5.734375 C 2.96875 -5.910156 3.304688 -6 3.703125 -6 C 4.160156 -6 4.507812 -5.910156 4.75 -5.734375 C 5 -5.566406 5.195312 -5.289062 5.34375 -4.90625 L 5.453125 -4.90625 C 5.648438 -5.257812 5.894531 -5.53125 6.1875 -5.71875 C 6.488281 -5.90625 6.859375 -6 7.296875 -6 C 7.898438 -6 8.347656 -5.832031 8.640625 -5.5 C 8.941406 -5.175781 9.09375 -4.679688 9.09375 -4.015625 L 9.09375 0 L 8.21875 0 L 8.21875 -3.984375 C 8.21875 -4.410156 8.128906 -4.722656 7.953125 -4.921875 C 7.773438 -5.128906 7.488281 -5.234375 7.09375 -5.234375 C 6.625 -5.234375 6.238281 -5.0625 5.9375 -4.71875 C 5.644531 -4.382812 5.5 -3.828125 5.5 -3.046875 L 5.5 0 L 4.625 0 L 4.625 -3.984375 C 4.625 -4.410156 4.53125 -4.722656 4.34375 -4.921875 C 4.164062 -5.128906 3.878906 -5.234375 3.484375 -5.234375 C 3.015625 -5.234375 2.628906 -5.066406 2.328125 -4.734375 C 2.035156 -4.410156 1.890625 -3.875 1.890625 -3.125 L 1.890625 0 Z M 1.03125 0 "/></g></g></g><g fill="#ffffff" fill-opacity="1"><g transform="translate(223.97193, 38.245097)"><g><path d="M 1.03125 2.390625 L 1.03125 -5.875 L 1.890625 -5.875 L 1.890625 -5 L 2 -4.984375 C 2.4375 -5.660156 3.082031 -6 3.9375 -6 C 4.425781 -6 4.851562 -5.882812 5.21875 -5.65625 C 5.582031 -5.4375 5.863281 -5.097656 6.0625 -4.640625 C 6.269531 -4.179688 6.375 -3.613281 6.375 -2.9375 C 6.375 -2.269531 6.265625 -1.707031 6.046875 -1.25 C 5.835938 -0.789062 5.546875 -0.445312 5.171875 -0.21875 C 4.796875 0 4.359375 0.109375 3.859375 0.109375 C 3.460938 0.109375 3.109375 0.0390625 2.796875 -0.09375 C 2.492188 -0.226562 2.226562 -0.457031 2 -0.78125 L 1.890625 -0.75 L 1.890625 2.390625 Z M 3.671875 -0.671875 C 4.867188 -0.671875 5.46875 -1.425781 5.46875 -2.9375 C 5.46875 -4.457031 4.867188 -5.21875 3.671875 -5.21875 C 3.328125 -5.21875 3.019531 -5.132812 2.75 -4.96875 C 2.488281 -4.8125 2.28125 -4.5625 2.125 -4.21875 C 1.96875 -3.882812 1.890625 -3.457031 1.890625 -2.9375 C 1.890625 -2.425781 1.96875 -2 2.125 -1.65625 C 2.28125 -1.3125 2.488281 -1.0625 2.75 -0.90625 C 3.019531 -0.75 3.328125 -0.671875 3.671875 -0.671875 Z M 3.671875 -0.671875 "/></g></g></g><g fill="#ffffff" fill-opacity="1"><g transform="translate(230.992718, 38.245097)"><g><path d="M 2.34375 0.109375 C 1.925781 0.109375 1.597656 -0.00390625 1.359375 -0.234375 C 1.117188 -0.472656 1 -0.828125 1 -1.296875 L 1 -8.25 L 1.875 -8.25 L 1.875 -1.359375 C 1.875 -1.109375 1.921875 -0.929688 2.015625 -0.828125 C 2.109375 -0.722656 2.253906 -0.671875 2.453125 -0.671875 C 2.578125 -0.671875 2.703125 -0.6875 2.828125 -0.71875 L 2.890625 -0.703125 L 3 -0.015625 C 2.9375 0.0234375 2.84375 0.0546875 2.71875 0.078125 C 2.601562 0.0976562 2.476562 0.109375 2.34375 0.109375 Z M 2.34375 0.109375 "/></g></g></g><g fill="#ffffff" fill-opacity="1"><g transform="translate(234.193686, 38.245097)"><g><path d="M 1.46875 -7.015625 C 1.28125 -7.015625 1.128906 -7.070312 1.015625 -7.1875 C 0.898438 -7.300781 0.84375 -7.445312 0.84375 -7.625 C 0.84375 -7.800781 0.898438 -7.945312 1.015625 -8.0625 C 1.128906 -8.1875 1.28125 -8.25 1.46875 -8.25 C 1.644531 -8.25 1.789062 -8.1875 1.90625 -8.0625 C 2.019531 -7.945312 2.078125 -7.800781 2.078125 -7.625 C 2.078125 -7.445312 2.019531 -7.300781 1.90625 -7.1875 C 1.789062 -7.070312 1.644531 -7.015625 1.46875 -7.015625 Z M 1.03125 0 L 1.03125 -5.875 L 1.890625 -5.875 L 1.890625 0 Z M 1.03125 0 "/></g></g></g><g fill="#ffffff" fill-opacity="1"><g transform="translate(237.111901, 38.245097)"><g><path d="M 2.421875 0.109375 C 1.847656 0.109375 1.394531 -0.0390625 1.0625 -0.34375 C 0.738281 -0.644531 0.578125 -1.078125 0.578125 -1.640625 C 0.578125 -1.984375 0.648438 -2.273438 0.796875 -2.515625 C 0.941406 -2.753906 1.164062 -2.945312 1.46875 -3.09375 C 1.769531 -3.25 2.164062 -3.367188 2.65625 -3.453125 C 3.082031 -3.523438 3.40625 -3.601562 3.625 -3.6875 C 3.84375 -3.78125 3.988281 -3.878906 4.0625 -3.984375 C 4.144531 -4.097656 4.1875 -4.238281 4.1875 -4.40625 C 4.1875 -4.675781 4.09375 -4.878906 3.90625 -5.015625 C 3.726562 -5.160156 3.4375 -5.234375 3.03125 -5.234375 C 2.644531 -5.234375 2.316406 -5.160156 2.046875 -5.015625 C 1.773438 -4.867188 1.523438 -4.648438 1.296875 -4.359375 L 1.1875 -4.359375 L 0.765625 -4.953125 C 1.015625 -5.273438 1.332031 -5.53125 1.71875 -5.71875 C 2.101562 -5.90625 2.539062 -6 3.03125 -6 C 3.71875 -6 4.226562 -5.84375 4.5625 -5.53125 C 4.894531 -5.226562 5.0625 -4.8125 5.0625 -4.28125 L 5.0625 -1.15625 C 5.0625 -0.832031 5.195312 -0.671875 5.46875 -0.671875 C 5.5625 -0.671875 5.648438 -0.6875 5.734375 -0.71875 L 5.8125 -0.6875 L 5.921875 -0.09375 C 5.847656 -0.0507812 5.757812 -0.0195312 5.65625 0 C 5.550781 0.03125 5.445312 0.046875 5.34375 0.046875 C 5.019531 0.046875 4.773438 -0.0234375 4.609375 -0.171875 C 4.441406 -0.316406 4.332031 -0.523438 4.28125 -0.796875 L 4.171875 -0.8125 C 4.003906 -0.5 3.78125 -0.265625 3.5 -0.109375 C 3.21875 0.0351562 2.859375 0.109375 2.421875 0.109375 Z M 2.625 -0.578125 C 2.945312 -0.578125 3.226562 -0.648438 3.46875 -0.796875 C 3.707031 -0.953125 3.890625 -1.164062 4.015625 -1.4375 C 4.148438 -1.71875 4.21875 -2.035156 4.21875 -2.390625 L 4.21875 -3.140625 L 4.109375 -3.15625 C 3.984375 -3.070312 3.820312 -3 3.625 -2.9375 C 3.4375 -2.875 3.175781 -2.816406 2.84375 -2.765625 C 2.5 -2.710938 2.226562 -2.640625 2.03125 -2.546875 C 1.832031 -2.453125 1.6875 -2.332031 1.59375 -2.1875 C 1.507812 -2.039062 1.46875 -1.859375 1.46875 -1.640625 C 1.46875 -1.296875 1.566406 -1.03125 1.765625 -0.84375 C 1.972656 -0.664062 2.257812 -0.578125 2.625 -0.578125 Z M 2.625 -0.578125 "/></g></g></g><g fill="#ffffff" fill-opacity="1"><g transform="translate(243.199074, 38.245097)"><g><path d="M 1.03125 0 L 1.03125 -5.875 L 1.84375 -5.875 L 1.84375 -4.953125 L 1.96875 -4.9375 C 2.15625 -5.28125 2.398438 -5.539062 2.703125 -5.71875 C 3.015625 -5.90625 3.390625 -6 3.828125 -6 C 4.535156 -6 5.046875 -5.816406 5.359375 -5.453125 C 5.679688 -5.085938 5.84375 -4.53125 5.84375 -3.78125 L 5.84375 0 L 4.96875 0 L 4.96875 -3.765625 C 4.96875 -4.117188 4.921875 -4.398438 4.828125 -4.609375 C 4.742188 -4.828125 4.601562 -4.984375 4.40625 -5.078125 C 4.21875 -5.179688 3.96875 -5.234375 3.65625 -5.234375 C 3.132812 -5.234375 2.707031 -5.054688 2.375 -4.703125 C 2.050781 -4.359375 1.890625 -3.796875 1.890625 -3.015625 L 1.890625 0 Z M 1.03125 0 "/></g></g></g><g fill="#ffffff" fill-opacity="1"><g transform="translate(249.974455, 38.245097)"><g><path d="M 3.375 0.109375 C 2.851562 0.109375 2.382812 -0.00390625 1.96875 -0.234375 C 1.5625 -0.472656 1.238281 -0.820312 1 -1.28125 C 0.757812 -1.75 0.640625 -2.300781 0.640625 -2.9375 C 0.640625 -3.582031 0.757812 -4.132812 1 -4.59375 C 1.238281 -5.050781 1.5625 -5.398438 1.96875 -5.640625 C 2.382812 -5.878906 2.851562 -6 3.375 -6 C 4 -6 4.492188 -5.878906 4.859375 -5.640625 C 5.222656 -5.410156 5.488281 -5.097656 5.65625 -4.703125 L 5.0625 -4.28125 L 4.953125 -4.28125 C 4.796875 -4.601562 4.59375 -4.835938 4.34375 -4.984375 C 4.09375 -5.140625 3.769531 -5.21875 3.375 -5.21875 C 3.007812 -5.21875 2.691406 -5.128906 2.421875 -4.953125 C 2.148438 -4.785156 1.9375 -4.53125 1.78125 -4.1875 C 1.632812 -3.851562 1.5625 -3.4375 1.5625 -2.9375 C 1.5625 -2.445312 1.632812 -2.03125 1.78125 -1.6875 C 1.9375 -1.351562 2.148438 -1.097656 2.421875 -0.921875 C 2.691406 -0.753906 3.007812 -0.671875 3.375 -0.671875 C 3.78125 -0.671875 4.117188 -0.757812 4.390625 -0.9375 C 4.660156 -1.125 4.875 -1.414062 5.03125 -1.8125 L 5.140625 -1.8125 L 5.703125 -1.484375 C 5.554688 -0.984375 5.285156 -0.59375 4.890625 -0.3125 C 4.492188 -0.03125 3.988281 0.109375 3.375 0.109375 Z M 3.375 0.109375 "/></g></g></g><g fill="#ffffff" fill-opacity="1"><g transform="translate(256.040288, 38.245097)"><g><path d="M 5.609375 -2.734375 L 1.5625 -2.734375 C 1.582031 -2.023438 1.75 -1.503906 2.0625 -1.171875 C 2.382812 -0.835938 2.828125 -0.671875 3.390625 -0.671875 C 3.804688 -0.671875 4.140625 -0.742188 4.390625 -0.890625 C 4.648438 -1.035156 4.851562 -1.269531 5 -1.59375 L 5.109375 -1.59375 L 5.671875 -1.265625 C 5.503906 -0.835938 5.234375 -0.5 4.859375 -0.25 C 4.484375 -0.0078125 3.992188 0.109375 3.390625 0.109375 C 2.816406 0.109375 2.328125 0 1.921875 -0.21875 C 1.515625 -0.445312 1.195312 -0.785156 0.96875 -1.234375 C 0.75 -1.691406 0.640625 -2.257812 0.640625 -2.9375 C 0.640625 -3.601562 0.753906 -4.164062 0.984375 -4.625 C 1.222656 -5.082031 1.539062 -5.425781 1.9375 -5.65625 C 2.34375 -5.882812 2.804688 -6 3.328125 -6 C 4.085938 -6 4.675781 -5.785156 5.09375 -5.359375 C 5.519531 -4.929688 5.734375 -4.300781 5.734375 -3.46875 C 5.734375 -3.132812 5.726562 -2.914062 5.71875 -2.8125 Z M 4.875 -3.46875 C 4.863281 -4.09375 4.722656 -4.546875 4.453125 -4.828125 C 4.191406 -5.117188 3.816406 -5.265625 3.328125 -5.265625 C 2.816406 -5.265625 2.414062 -5.117188 2.125 -4.828125 C 1.832031 -4.546875 1.648438 -4.09375 1.578125 -3.46875 Z M 4.875 -3.46875 "/></g></g></g><g fill="#ffffff" fill-opacity="1"><g transform="translate(262.315572, 38.245097)"><g/></g></g><g transform="matrix(1, 0, 0, 1, 165, 41)"><g clip-path="url(#cd30b92dd0)"><g fill="#bcbcbc" fill-opacity="1"><g transform="translate(1.090168, 6.58355)"><g><path d="M 2.171875 -4.265625 C 2.460938 -4.265625 2.710938 -4.210938 2.921875 -4.109375 C 3.128906 -4.003906 3.285156 -3.851562 3.390625 -3.65625 C 3.503906 -3.457031 3.5625 -3.226562 3.5625 -2.96875 C 3.5625 -2.695312 3.503906 -2.460938 3.390625 -2.265625 C 3.285156 -2.078125 3.128906 -1.929688 2.921875 -1.828125 C 2.710938 -1.722656 2.460938 -1.671875 2.171875 -1.671875 L 1.140625 -1.671875 L 1.140625 0 L 0.640625 0 L 0.640625 -4.265625 Z M 2.15625 -2.09375 C 2.75 -2.09375 3.046875 -2.382812 3.046875 -2.96875 C 3.046875 -3.539062 2.75 -3.828125 2.15625 -3.828125 L 1.140625 -3.828125 L 1.140625 -2.09375 Z M 2.15625 -2.09375 "/></g></g></g><g fill="#bcbcbc" fill-opacity="1"><g transform="translate(4.887473, 6.58355)"><g><path d="M 0.5625 0 L 0.5625 -3.21875 L 1.015625 -3.21875 L 1.015625 -2.703125 L 1.078125 -2.703125 C 1.222656 -3.066406 1.503906 -3.25 1.921875 -3.25 C 2.140625 -3.25 2.300781 -3.207031 2.40625 -3.125 L 2.28125 -2.71875 L 2.234375 -2.703125 C 2.109375 -2.765625 1.972656 -2.796875 1.828125 -2.796875 C 1.578125 -2.796875 1.378906 -2.695312 1.234375 -2.5 C 1.097656 -2.3125 1.03125 -2.003906 1.03125 -1.578125 L 1.03125 0 Z M 0.5625 0 "/></g></g></g><g fill="#bcbcbc" fill-opacity="1"><g transform="translate(7.284085, 6.58355)"><g><path d="M 1.84375 0.0625 C 1.539062 0.0625 1.273438 0 1.046875 -0.125 C 0.828125 -0.257812 0.65625 -0.453125 0.53125 -0.703125 C 0.414062 -0.953125 0.359375 -1.253906 0.359375 -1.609375 C 0.359375 -1.960938 0.414062 -2.265625 0.53125 -2.515625 C 0.65625 -2.765625 0.828125 -2.953125 1.046875 -3.078125 C 1.273438 -3.210938 1.539062 -3.28125 1.84375 -3.28125 C 2.144531 -3.28125 2.40625 -3.210938 2.625 -3.078125 C 2.851562 -2.953125 3.03125 -2.765625 3.15625 -2.515625 C 3.28125 -2.265625 3.34375 -1.960938 3.34375 -1.609375 C 3.34375 -1.253906 3.28125 -0.953125 3.15625 -0.703125 C 3.03125 -0.453125 2.851562 -0.257812 2.625 -0.125 C 2.40625 0 2.144531 0.0625 1.84375 0.0625 Z M 1.84375 -0.359375 C 2.164062 -0.359375 2.410156 -0.457031 2.578125 -0.65625 C 2.742188 -0.863281 2.828125 -1.179688 2.828125 -1.609375 C 2.828125 -2.035156 2.742188 -2.347656 2.578125 -2.546875 C 2.410156 -2.742188 2.164062 -2.84375 1.84375 -2.84375 C 1.519531 -2.84375 1.269531 -2.738281 1.09375 -2.53125 C 0.925781 -2.332031 0.84375 -2.023438 0.84375 -1.609375 C 0.84375 -1.179688 0.925781 -0.863281 1.09375 -0.65625 C 1.269531 -0.457031 1.519531 -0.359375 1.84375 -0.359375 Z M 1.84375 -0.359375 "/></g></g><g transform="translate(10.970732, 6.58355)"><g><path d="M 2.171875 -0.515625 L 2.328125 -0.171875 C 2.253906 -0.0976562 2.15625 -0.0390625 2.03125 0 C 1.90625 0.0390625 1.769531 0.0625 1.625 0.0625 C 1.007812 0.0625 0.703125 -0.25 0.703125 -0.875 L 0.703125 -2.828125 L 0.140625 -2.828125 L 0.140625 -3.21875 L 0.703125 -3.21875 L 0.703125 -3.890625 L 1.1875 -3.96875 L 1.1875 -3.21875 L 2.21875 -3.21875 L 2.21875 -2.828125 L 1.1875 -2.828125 L 1.1875 -0.921875 C 1.1875 -0.546875 1.34375 -0.359375 1.65625 -0.359375 C 1.832031 -0.359375 1.984375 -0.410156 2.109375 -0.515625 Z M 2.171875 -0.515625 "/></g></g></g><g fill="#bcbcbc" fill-opacity="1"><g transform="translate(13.378992, 6.58355)"><g><path d="M 3.0625 -1.5 L 0.859375 -1.5 C 0.867188 -1.101562 0.957031 -0.8125 1.125 -0.625 C 1.300781 -0.445312 1.539062 -0.359375 1.84375 -0.359375 C 2.070312 -0.359375 2.253906 -0.398438 2.390625 -0.484375 C 2.535156 -0.566406 2.648438 -0.695312 2.734375 -0.875 L 2.796875 -0.875 L 3.109375 -0.6875 C 3.015625 -0.457031 2.863281 -0.273438 2.65625 -0.140625 C 2.445312 -0.00390625 2.175781 0.0625 1.84375 0.0625 C 1.539062 0.0625 1.273438 0 1.046875 -0.125 C 0.828125 -0.25 0.65625 -0.429688 0.53125 -0.671875 C 0.414062 -0.921875 0.359375 -1.234375 0.359375 -1.609375 C 0.359375 -1.972656 0.421875 -2.28125 0.546875 -2.53125 C 0.671875 -2.78125 0.84375 -2.96875 1.0625 -3.09375 C 1.28125 -3.21875 1.535156 -3.28125 1.828125 -3.28125 C 2.234375 -3.28125 2.550781 -3.160156 2.78125 -2.921875 C 3.019531 -2.691406 3.140625 -2.347656 3.140625 -1.890625 C 3.140625 -1.710938 3.132812 -1.59375 3.125 -1.53125 Z M 2.671875 -1.890625 C 2.660156 -2.234375 2.582031 -2.484375 2.4375 -2.640625 C 2.289062 -2.796875 2.085938 -2.875 1.828125 -2.875 C 1.546875 -2.875 1.320312 -2.796875 1.15625 -2.640625 C 1 -2.484375 0.898438 -2.234375 0.859375 -1.890625 Z M 2.671875 -1.890625 "/></g></g><g transform="translate(16.803555, 6.58355)"><g><path d="M 1.84375 0.0625 C 1.5625 0.0625 1.304688 0 1.078125 -0.125 C 0.859375 -0.257812 0.679688 -0.453125 0.546875 -0.703125 C 0.421875 -0.953125 0.359375 -1.253906 0.359375 -1.609375 C 0.359375 -1.960938 0.421875 -2.265625 0.546875 -2.515625 C 0.679688 -2.765625 0.859375 -2.953125 1.078125 -3.078125 C 1.304688 -3.210938 1.5625 -3.28125 1.84375 -3.28125 C 2.1875 -3.28125 2.457031 -3.210938 2.65625 -3.078125 C 2.851562 -2.953125 3 -2.785156 3.09375 -2.578125 L 2.765625 -2.34375 L 2.703125 -2.34375 C 2.617188 -2.519531 2.507812 -2.644531 2.375 -2.71875 C 2.238281 -2.800781 2.0625 -2.84375 1.84375 -2.84375 C 1.644531 -2.84375 1.46875 -2.796875 1.3125 -2.703125 C 1.164062 -2.617188 1.050781 -2.484375 0.96875 -2.296875 C 0.882812 -2.109375 0.84375 -1.878906 0.84375 -1.609375 C 0.84375 -1.335938 0.882812 -1.109375 0.96875 -0.921875 C 1.0625 -0.734375 1.179688 -0.59375 1.328125 -0.5 C 1.472656 -0.40625 1.644531 -0.359375 1.84375 -0.359375 C 2.070312 -0.359375 2.257812 -0.410156 2.40625 -0.515625 C 2.550781 -0.617188 2.664062 -0.78125 2.75 -1 L 2.8125 -1 L 3.125 -0.8125 C 3.039062 -0.539062 2.890625 -0.328125 2.671875 -0.171875 C 2.453125 -0.015625 2.175781 0.0625 1.84375 0.0625 Z M 1.84375 0.0625 "/></g></g><g transform="translate(20.114548, 6.58355)"><g><path d="M 2.171875 -0.515625 L 2.328125 -0.171875 C 2.253906 -0.0976562 2.15625 -0.0390625 2.03125 0 C 1.90625 0.0390625 1.769531 0.0625 1.625 0.0625 C 1.007812 0.0625 0.703125 -0.25 0.703125 -0.875 L 0.703125 -2.828125 L 0.140625 -2.828125 L 0.140625 -3.21875 L 0.703125 -3.21875 L 0.703125 -3.890625 L 1.1875 -3.96875 L 1.1875 -3.21875 L 2.21875 -3.21875 L 2.21875 -2.828125 L 1.1875 -2.828125 L 1.1875 -0.921875 C 1.1875 -0.546875 1.34375 -0.359375 1.65625 -0.359375 C 1.832031 -0.359375 1.984375 -0.410156 2.109375 -0.515625 Z M 2.171875 -0.515625 "/></g></g><g transform="translate(22.560664, 6.58355)"><g><path d="M 0.796875 -3.828125 C 0.691406 -3.828125 0.609375 -3.859375 0.546875 -3.921875 C 0.484375 -3.992188 0.453125 -4.078125 0.453125 -4.171875 C 0.453125 -4.265625 0.484375 -4.34375 0.546875 -4.40625 C 0.609375 -4.46875 0.691406 -4.5 0.796875 -4.5 C 0.898438 -4.5 0.984375 -4.46875 1.046875 -4.40625 C 1.109375 -4.34375 1.140625 -4.265625 1.140625 -4.171875 C 1.140625 -4.078125 1.109375 -3.992188 1.046875 -3.921875 C 0.984375 -3.859375 0.898438 -3.828125 0.796875 -3.828125 Z M 0.5625 0 L 0.5625 -3.21875 L 1.03125 -3.21875 L 1.03125 0 Z M 0.5625 0 "/></g></g><g transform="translate(24.153552, 6.58355)"><g><path d="M 0.5625 0 L 0.5625 -3.21875 L 1.015625 -3.21875 L 1.015625 -2.703125 L 1.078125 -2.703125 C 1.179688 -2.890625 1.316406 -3.03125 1.484375 -3.125 C 1.648438 -3.226562 1.851562 -3.28125 2.09375 -3.28125 C 2.476562 -3.28125 2.753906 -3.179688 2.921875 -2.984375 C 3.097656 -2.785156 3.1875 -2.476562 3.1875 -2.0625 L 3.1875 0 L 2.71875 0 L 2.71875 -2.0625 C 2.71875 -2.25 2.691406 -2.398438 2.640625 -2.515625 C 2.585938 -2.640625 2.507812 -2.726562 2.40625 -2.78125 C 2.300781 -2.832031 2.164062 -2.859375 2 -2.859375 C 1.707031 -2.859375 1.472656 -2.757812 1.296875 -2.5625 C 1.117188 -2.375 1.03125 -2.070312 1.03125 -1.65625 L 1.03125 0 Z M 0.5625 0 "/></g></g><g transform="translate(27.851847, 6.58355)"><g><path d="M 1.65625 1.359375 C 1.144531 1.359375 0.769531 1.273438 0.53125 1.109375 C 0.300781 0.941406 0.1875 0.71875 0.1875 0.4375 C 0.1875 0.257812 0.238281 0.113281 0.34375 0 C 0.457031 -0.101562 0.617188 -0.175781 0.828125 -0.21875 L 0.828125 -0.28125 C 0.734375 -0.34375 0.660156 -0.410156 0.609375 -0.484375 C 0.554688 -0.554688 0.53125 -0.644531 0.53125 -0.75 C 0.53125 -0.875 0.566406 -0.972656 0.640625 -1.046875 C 0.722656 -1.128906 0.84375 -1.191406 1 -1.234375 L 1 -1.296875 C 0.65625 -1.484375 0.484375 -1.785156 0.484375 -2.203125 C 0.484375 -2.410156 0.53125 -2.59375 0.625 -2.75 C 0.71875 -2.914062 0.851562 -3.046875 1.03125 -3.140625 C 1.207031 -3.234375 1.414062 -3.28125 1.65625 -3.28125 C 1.914062 -3.28125 2.140625 -3.21875 2.328125 -3.09375 C 2.390625 -3.175781 2.4375 -3.257812 2.46875 -3.34375 C 2.507812 -3.425781 2.535156 -3.523438 2.546875 -3.640625 L 2.609375 -3.671875 L 3 -3.578125 C 2.976562 -3.410156 2.925781 -3.269531 2.84375 -3.15625 C 2.769531 -3.050781 2.660156 -2.960938 2.515625 -2.890625 L 2.515625 -2.828125 C 2.617188 -2.742188 2.691406 -2.644531 2.734375 -2.53125 C 2.785156 -2.425781 2.8125 -2.300781 2.8125 -2.15625 C 2.8125 -1.945312 2.765625 -1.757812 2.671875 -1.59375 C 2.578125 -1.4375 2.441406 -1.3125 2.265625 -1.21875 C 2.085938 -1.132812 1.882812 -1.09375 1.65625 -1.09375 C 1.625 -1.09375 1.570312 -1.09375 1.5 -1.09375 C 1.425781 -1.101562 1.367188 -1.109375 1.328125 -1.109375 C 1.234375 -1.109375 1.15625 -1.078125 1.09375 -1.015625 C 1.03125 -0.960938 1 -0.898438 1 -0.828125 C 1 -0.722656 1.03125 -0.644531 1.09375 -0.59375 C 1.15625 -0.550781 1.265625 -0.523438 1.421875 -0.515625 L 2.1875 -0.5 C 2.507812 -0.476562 2.75 -0.394531 2.90625 -0.25 C 3.0625 -0.113281 3.140625 0.078125 3.140625 0.328125 C 3.140625 0.523438 3.085938 0.703125 2.984375 0.859375 C 2.890625 1.015625 2.726562 1.132812 2.5 1.21875 C 2.28125 1.3125 2 1.359375 1.65625 1.359375 Z M 1.65625 -1.5 C 1.875 -1.5 2.046875 -1.554688 2.171875 -1.671875 C 2.296875 -1.796875 2.359375 -1.960938 2.359375 -2.171875 C 2.359375 -2.390625 2.296875 -2.5625 2.171875 -2.6875 C 2.054688 -2.8125 1.882812 -2.875 1.65625 -2.875 C 1.425781 -2.875 1.25 -2.8125 1.125 -2.6875 C 1 -2.570312 0.9375 -2.398438 0.9375 -2.171875 C 0.9375 -1.953125 1 -1.785156 1.125 -1.671875 C 1.25 -1.554688 1.425781 -1.5 1.65625 -1.5 Z M 1.65625 0.953125 C 1.894531 0.953125 2.085938 0.925781 2.234375 0.875 C 2.390625 0.820312 2.5 0.753906 2.5625 0.671875 C 2.625 0.585938 2.65625 0.488281 2.65625 0.375 C 2.65625 0.28125 2.632812 0.203125 2.59375 0.140625 C 2.5625 0.0859375 2.503906 0.046875 2.421875 0.015625 C 2.347656 -0.015625 2.242188 -0.03125 2.109375 -0.03125 L 1.390625 -0.078125 L 1.28125 -0.078125 C 0.882812 -0.0664062 0.6875 0.0859375 0.6875 0.390625 C 0.6875 0.765625 1.007812 0.953125 1.65625 0.953125 Z M 1.65625 0.953125 "/></g></g><g transform="translate(31.142456, 6.58355)"><g/></g><g transform="translate(32.604302, 6.58355)"><g><path d="M 0.640625 1.359375 C 0.535156 1.359375 0.4375 1.347656 0.34375 1.328125 C 0.25 1.316406 0.164062 1.296875 0.09375 1.265625 L 0.1875 0.890625 L 0.234375 0.859375 C 0.285156 0.890625 0.34375 0.910156 0.40625 0.921875 C 0.476562 0.941406 0.550781 0.953125 0.625 0.953125 C 0.757812 0.953125 0.867188 0.929688 0.953125 0.890625 C 1.035156 0.859375 1.109375 0.800781 1.171875 0.71875 C 1.234375 0.644531 1.289062 0.535156 1.34375 0.390625 L 1.453125 0.078125 L 0.15625 -3.21875 L 0.671875 -3.21875 L 1.6875 -0.59375 L 1.75 -0.59375 L 2.71875 -3.21875 L 3.203125 -3.21875 L 1.765625 0.5 C 1.691406 0.707031 1.601562 0.875 1.5 1 C 1.394531 1.125 1.273438 1.210938 1.140625 1.265625 C 1.003906 1.328125 0.835938 1.359375 0.640625 1.359375 Z M 0.640625 1.359375 "/></g></g></g><g fill="#bcbcbc" fill-opacity="1"><g transform="translate(35.929856, 6.58355)"><g><path d="M 1.84375 0.0625 C 1.539062 0.0625 1.273438 0 1.046875 -0.125 C 0.828125 -0.257812 0.65625 -0.453125 0.53125 -0.703125 C 0.414062 -0.953125 0.359375 -1.253906 0.359375 -1.609375 C 0.359375 -1.960938 0.414062 -2.265625 0.53125 -2.515625 C 0.65625 -2.765625 0.828125 -2.953125 1.046875 -3.078125 C 1.273438 -3.210938 1.539062 -3.28125 1.84375 -3.28125 C 2.144531 -3.28125 2.40625 -3.210938 2.625 -3.078125 C 2.851562 -2.953125 3.03125 -2.765625 3.15625 -2.515625 C 3.28125 -2.265625 3.34375 -1.960938 3.34375 -1.609375 C 3.34375 -1.253906 3.28125 -0.953125 3.15625 -0.703125 C 3.03125 -0.453125 2.851562 -0.257812 2.625 -0.125 C 2.40625 0 2.144531 0.0625 1.84375 0.0625 Z M 1.84375 -0.359375 C 2.164062 -0.359375 2.410156 -0.457031 2.578125 -0.65625 C 2.742188 -0.863281 2.828125 -1.179688 2.828125 -1.609375 C 2.828125 -2.035156 2.742188 -2.347656 2.578125 -2.546875 C 2.410156 -2.742188 2.164062 -2.84375 1.84375 -2.84375 C 1.519531 -2.84375 1.269531 -2.738281 1.09375 -2.53125 C 0.925781 -2.332031 0.84375 -2.023438 0.84375 -1.609375 C 0.84375 -1.179688 0.925781 -0.863281 1.09375 -0.65625 C 1.269531 -0.457031 1.519531 -0.359375 1.84375 -0.359375 Z M 1.84375 -0.359375 "/></g></g><g transform="translate(39.616503, 6.58355)"><g><path d="M 1.59375 0.0625 C 1.226562 0.0625 0.957031 -0.03125 0.78125 -0.21875 C 0.601562 -0.414062 0.515625 -0.703125 0.515625 -1.078125 L 0.515625 -3.21875 L 0.984375 -3.21875 L 0.984375 -1.078125 C 0.984375 -0.597656 1.210938 -0.359375 1.671875 -0.359375 C 1.960938 -0.359375 2.191406 -0.453125 2.359375 -0.640625 C 2.523438 -0.828125 2.609375 -1.132812 2.609375 -1.5625 L 2.609375 -3.21875 L 3.09375 -3.21875 L 3.09375 0 L 2.640625 0 L 2.640625 -0.5 L 2.578125 -0.515625 C 2.472656 -0.316406 2.34375 -0.171875 2.1875 -0.078125 C 2.03125 0.015625 1.832031 0.0625 1.59375 0.0625 Z M 1.59375 0.0625 "/></g></g><g transform="translate(43.265293, 6.58355)"><g><path d="M 0.5625 0 L 0.5625 -3.21875 L 1.015625 -3.21875 L 1.015625 -2.703125 L 1.078125 -2.703125 C 1.222656 -3.066406 1.503906 -3.25 1.921875 -3.25 C 2.140625 -3.25 2.300781 -3.207031 2.40625 -3.125 L 2.28125 -2.71875 L 2.234375 -2.703125 C 2.109375 -2.765625 1.972656 -2.796875 1.828125 -2.796875 C 1.578125 -2.796875 1.378906 -2.695312 1.234375 -2.5 C 1.097656 -2.3125 1.03125 -2.003906 1.03125 -1.578125 L 1.03125 0 Z M 0.5625 0 "/></g></g><g transform="translate(45.746354, 6.58355)"><g/></g><g transform="translate(47.2082, 6.58355)"><g><path d="M 2.140625 0.0625 C 1.898438 0.0625 1.691406 0.015625 1.515625 -0.078125 C 1.335938 -0.171875 1.195312 -0.289062 1.09375 -0.4375 L 1.03125 -0.4375 L 1.03125 0 L 0.5625 0 L 0.5625 -4.5 L 1.03125 -4.5 L 1.03125 -2.734375 L 1.09375 -2.71875 C 1.34375 -3.09375 1.695312 -3.28125 2.15625 -3.28125 C 2.425781 -3.28125 2.660156 -3.21875 2.859375 -3.09375 C 3.054688 -2.96875 3.207031 -2.78125 3.3125 -2.53125 C 3.425781 -2.28125 3.484375 -1.972656 3.484375 -1.609375 C 3.484375 -1.242188 3.425781 -0.9375 3.3125 -0.6875 C 3.195312 -0.4375 3.035156 -0.25 2.828125 -0.125 C 2.628906 0 2.398438 0.0625 2.140625 0.0625 Z M 2.015625 -0.359375 C 2.660156 -0.359375 2.984375 -0.773438 2.984375 -1.609375 C 2.984375 -2.035156 2.898438 -2.347656 2.734375 -2.546875 C 2.566406 -2.742188 2.328125 -2.84375 2.015625 -2.84375 C 1.722656 -2.84375 1.484375 -2.738281 1.296875 -2.53125 C 1.117188 -2.332031 1.03125 -2.023438 1.03125 -1.609375 C 1.03125 -1.191406 1.117188 -0.878906 1.296875 -0.671875 C 1.484375 -0.460938 1.722656 -0.359375 2.015625 -0.359375 Z M 2.015625 -0.359375 "/></g></g><g transform="translate(51.040449, 6.58355)"><g><path d="M 1.59375 0.0625 C 1.226562 0.0625 0.957031 -0.03125 0.78125 -0.21875 C 0.601562 -0.414062 0.515625 -0.703125 0.515625 -1.078125 L 0.515625 -3.21875 L 0.984375 -3.21875 L 0.984375 -1.078125 C 0.984375 -0.597656 1.210938 -0.359375 1.671875 -0.359375 C 1.960938 -0.359375 2.191406 -0.453125 2.359375 -0.640625 C 2.523438 -0.828125 2.609375 -1.132812 2.609375 -1.5625 L 2.609375 -3.21875 L 3.09375 -3.21875 L 3.09375 0 L 2.640625 0 L 2.640625 -0.5 L 2.578125 -0.515625 C 2.472656 -0.316406 2.34375 -0.171875 2.1875 -0.078125 C 2.03125 0.015625 1.832031 0.0625 1.59375 0.0625 Z M 1.59375 0.0625 "/></g></g><g transform="translate(54.68924, 6.58355)"><g><path d="M 1.46875 0.0625 C 1.257812 0.0625 1.066406 0.0351562 0.890625 -0.015625 C 0.722656 -0.0664062 0.582031 -0.140625 0.46875 -0.234375 C 0.351562 -0.328125 0.269531 -0.429688 0.21875 -0.546875 L 0.5 -0.84375 L 0.5625 -0.84375 C 0.664062 -0.6875 0.789062 -0.566406 0.9375 -0.484375 C 1.082031 -0.398438 1.257812 -0.359375 1.46875 -0.359375 C 1.707031 -0.359375 1.882812 -0.40625 2 -0.5 C 2.125 -0.59375 2.1875 -0.722656 2.1875 -0.890625 C 2.1875 -1.015625 2.148438 -1.117188 2.078125 -1.203125 C 2.003906 -1.285156 1.882812 -1.347656 1.71875 -1.390625 L 1.171875 -1.515625 C 0.878906 -1.585938 0.664062 -1.695312 0.53125 -1.84375 C 0.40625 -2 0.34375 -2.191406 0.34375 -2.421875 C 0.34375 -2.585938 0.382812 -2.734375 0.46875 -2.859375 C 0.5625 -2.992188 0.691406 -3.097656 0.859375 -3.171875 C 1.023438 -3.242188 1.222656 -3.28125 1.453125 -3.28125 C 1.753906 -3.28125 1.988281 -3.238281 2.15625 -3.15625 C 2.320312 -3.070312 2.457031 -2.957031 2.5625 -2.8125 L 2.28125 -2.546875 L 2.234375 -2.546875 C 2.128906 -2.660156 2.015625 -2.742188 1.890625 -2.796875 C 1.765625 -2.847656 1.617188 -2.875 1.453125 -2.875 C 1.242188 -2.875 1.082031 -2.835938 0.96875 -2.765625 C 0.851562 -2.691406 0.796875 -2.582031 0.796875 -2.4375 C 0.796875 -2.300781 0.835938 -2.191406 0.921875 -2.109375 C 1.003906 -2.035156 1.144531 -1.972656 1.34375 -1.921875 L 1.875 -1.796875 C 2.15625 -1.734375 2.359375 -1.625 2.484375 -1.46875 C 2.609375 -1.3125 2.671875 -1.117188 2.671875 -0.890625 C 2.671875 -0.703125 2.625 -0.535156 2.53125 -0.390625 C 2.445312 -0.253906 2.3125 -0.144531 2.125 -0.0625 C 1.945312 0.0195312 1.726562 0.0625 1.46875 0.0625 Z M 1.46875 0.0625 "/></g></g><g transform="translate(57.659524, 6.58355)"><g><path d="M 0.796875 -3.828125 C 0.691406 -3.828125 0.609375 -3.859375 0.546875 -3.921875 C 0.484375 -3.992188 0.453125 -4.078125 0.453125 -4.171875 C 0.453125 -4.265625 0.484375 -4.34375 0.546875 -4.40625 C 0.609375 -4.46875 0.691406 -4.5 0.796875 -4.5 C 0.898438 -4.5 0.984375 -4.46875 1.046875 -4.40625 C 1.109375 -4.34375 1.140625 -4.265625 1.140625 -4.171875 C 1.140625 -4.078125 1.109375 -3.992188 1.046875 -3.921875 C 0.984375 -3.859375 0.898438 -3.828125 0.796875 -3.828125 Z M 0.5625 0 L 0.5625 -3.21875 L 1.03125 -3.21875 L 1.03125 0 Z M 0.5625 0 "/></g></g><g transform="translate(59.252412, 6.58355)"><g><path d="M 0.5625 0 L 0.5625 -3.21875 L 1.015625 -3.21875 L 1.015625 -2.703125 L 1.078125 -2.703125 C 1.179688 -2.890625 1.316406 -3.03125 1.484375 -3.125 C 1.648438 -3.226562 1.851562 -3.28125 2.09375 -3.28125 C 2.476562 -3.28125 2.753906 -3.179688 2.921875 -2.984375 C 3.097656 -2.785156 3.1875 -2.476562 3.1875 -2.0625 L 3.1875 0 L 2.71875 0 L 2.71875 -2.0625 C 2.71875 -2.25 2.691406 -2.398438 2.640625 -2.515625 C 2.585938 -2.640625 2.507812 -2.726562 2.40625 -2.78125 C 2.300781 -2.832031 2.164062 -2.859375 2 -2.859375 C 1.707031 -2.859375 1.472656 -2.757812 1.296875 -2.5625 C 1.117188 -2.375 1.03125 -2.070312 1.03125 -1.65625 L 1.03125 0 Z M 0.5625 0 "/></g></g><g transform="translate(62.950707, 6.58355)"><g><path d="M 3.0625 -1.5 L 0.859375 -1.5 C 0.867188 -1.101562 0.957031 -0.8125 1.125 -0.625 C 1.300781 -0.445312 1.539062 -0.359375 1.84375 -0.359375 C 2.070312 -0.359375 2.253906 -0.398438 2.390625 -0.484375 C 2.535156 -0.566406 2.648438 -0.695312 2.734375 -0.875 L 2.796875 -0.875 L 3.109375 -0.6875 C 3.015625 -0.457031 2.863281 -0.273438 2.65625 -0.140625 C 2.445312 -0.00390625 2.175781 0.0625 1.84375 0.0625 C 1.539062 0.0625 1.273438 0 1.046875 -0.125 C 0.828125 -0.25 0.65625 -0.429688 0.53125 -0.671875 C 0.414062 -0.921875 0.359375 -1.234375 0.359375 -1.609375 C 0.359375 -1.972656 0.421875 -2.28125 0.546875 -2.53125 C 0.671875 -2.78125 0.84375 -2.96875 1.0625 -3.09375 C 1.28125 -3.21875 1.535156 -3.28125 1.828125 -3.28125 C 2.234375 -3.28125 2.550781 -3.160156 2.78125 -2.921875 C 3.019531 -2.691406 3.140625 -2.347656 3.140625 -1.890625 C 3.140625 -1.710938 3.132812 -1.59375 3.125 -1.53125 Z M 2.671875 -1.890625 C 2.660156 -2.234375 2.582031 -2.484375 2.4375 -2.640625 C 2.289062 -2.796875 2.085938 -2.875 1.828125 -2.875 C 1.546875 -2.875 1.320312 -2.796875 1.15625 -2.640625 C 1 -2.484375 0.898438 -2.234375 0.859375 -1.890625 Z M 2.671875 -1.890625 "/></g></g><g transform="translate(66.37527, 6.58355)"><g><path d="M 1.46875 0.0625 C 1.257812 0.0625 1.066406 0.0351562 0.890625 -0.015625 C 0.722656 -0.0664062 0.582031 -0.140625 0.46875 -0.234375 C 0.351562 -0.328125 0.269531 -0.429688 0.21875 -0.546875 L 0.5 -0.84375 L 0.5625 -0.84375 C 0.664062 -0.6875 0.789062 -0.566406 0.9375 -0.484375 C 1.082031 -0.398438 1.257812 -0.359375 1.46875 -0.359375 C 1.707031 -0.359375 1.882812 -0.40625 2 -0.5 C 2.125 -0.59375 2.1875 -0.722656 2.1875 -0.890625 C 2.1875 -1.015625 2.148438 -1.117188 2.078125 -1.203125 C 2.003906 -1.285156 1.882812 -1.347656 1.71875 -1.390625 L 1.171875 -1.515625 C 0.878906 -1.585938 0.664062 -1.695312 0.53125 -1.84375 C 0.40625 -2 0.34375 -2.191406 0.34375 -2.421875 C 0.34375 -2.585938 0.382812 -2.734375 0.46875 -2.859375 C 0.5625 -2.992188 0.691406 -3.097656 0.859375 -3.171875 C 1.023438 -3.242188 1.222656 -3.28125 1.453125 -3.28125 C 1.753906 -3.28125 1.988281 -3.238281 2.15625 -3.15625 C 2.320312 -3.070312 2.457031 -2.957031 2.5625 -2.8125 L 2.28125 -2.546875 L 2.234375 -2.546875 C 2.128906 -2.660156 2.015625 -2.742188 1.890625 -2.796875 C 1.765625 -2.847656 1.617188 -2.875 1.453125 -2.875 C 1.242188 -2.875 1.082031 -2.835938 0.96875 -2.765625 C 0.851562 -2.691406 0.796875 -2.582031 0.796875 -2.4375 C 0.796875 -2.300781 0.835938 -2.191406 0.921875 -2.109375 C 1.003906 -2.035156 1.144531 -1.972656 1.34375 -1.921875 L 1.875 -1.796875 C 2.15625 -1.734375 2.359375 -1.625 2.484375 -1.46875 C 2.609375 -1.3125 2.671875 -1.117188 2.671875 -0.890625 C 2.671875 -0.703125 2.625 -0.535156 2.53125 -0.390625 C 2.445312 -0.253906 2.3125 -0.144531 2.125 -0.0625 C 1.945312 0.0195312 1.726562 0.0625 1.46875 0.0625 Z M 1.46875 0.0625 "/></g></g><g transform="translate(69.345554, 6.58355)"><g><path d="M 1.46875 0.0625 C 1.257812 0.0625 1.066406 0.0351562 0.890625 -0.015625 C 0.722656 -0.0664062 0.582031 -0.140625 0.46875 -0.234375 C 0.351562 -0.328125 0.269531 -0.429688 0.21875 -0.546875 L 0.5 -0.84375 L 0.5625 -0.84375 C 0.664062 -0.6875 0.789062 -0.566406 0.9375 -0.484375 C 1.082031 -0.398438 1.257812 -0.359375 1.46875 -0.359375 C 1.707031 -0.359375 1.882812 -0.40625 2 -0.5 C 2.125 -0.59375 2.1875 -0.722656 2.1875 -0.890625 C 2.1875 -1.015625 2.148438 -1.117188 2.078125 -1.203125 C 2.003906 -1.285156 1.882812 -1.347656 1.71875 -1.390625 L 1.171875 -1.515625 C 0.878906 -1.585938 0.664062 -1.695312 0.53125 -1.84375 C 0.40625 -2 0.34375 -2.191406 0.34375 -2.421875 C 0.34375 -2.585938 0.382812 -2.734375 0.46875 -2.859375 C 0.5625 -2.992188 0.691406 -3.097656 0.859375 -3.171875 C 1.023438 -3.242188 1.222656 -3.28125 1.453125 -3.28125 C 1.753906 -3.28125 1.988281 -3.238281 2.15625 -3.15625 C 2.320312 -3.070312 2.457031 -2.957031 2.5625 -2.8125 L 2.28125 -2.546875 L 2.234375 -2.546875 C 2.128906 -2.660156 2.015625 -2.742188 1.890625 -2.796875 C 1.765625 -2.847656 1.617188 -2.875 1.453125 -2.875 C 1.242188 -2.875 1.082031 -2.835938 0.96875 -2.765625 C 0.851562 -2.691406 0.796875 -2.582031 0.796875 -2.4375 C 0.796875 -2.300781 0.835938 -2.191406 0.921875 -2.109375 C 1.003906 -2.035156 1.144531 -1.972656 1.34375 -1.921875 L 1.875 -1.796875 C 2.15625 -1.734375 2.359375 -1.625 2.484375 -1.46875 C 2.609375 -1.3125 2.671875 -1.117188 2.671875 -0.890625 C 2.671875 -0.703125 2.625 -0.535156 2.53125 -0.390625 C 2.445312 -0.253906 2.3125 -0.144531 2.125 -0.0625 C 1.945312 0.0195312 1.726562 0.0625 1.46875 0.0625 Z M 1.46875 0.0625 "/></g></g><g transform="translate(72.315838, 6.58355)"><g><path d="M 3.0625 -1.5 L 0.859375 -1.5 C 0.867188 -1.101562 0.957031 -0.8125 1.125 -0.625 C 1.300781 -0.445312 1.539062 -0.359375 1.84375 -0.359375 C 2.070312 -0.359375 2.253906 -0.398438 2.390625 -0.484375 C 2.535156 -0.566406 2.648438 -0.695312 2.734375 -0.875 L 2.796875 -0.875 L 3.109375 -0.6875 C 3.015625 -0.457031 2.863281 -0.273438 2.65625 -0.140625 C 2.445312 -0.00390625 2.175781 0.0625 1.84375 0.0625 C 1.539062 0.0625 1.273438 0 1.046875 -0.125 C 0.828125 -0.25 0.65625 -0.429688 0.53125 -0.671875 C 0.414062 -0.921875 0.359375 -1.234375 0.359375 -1.609375 C 0.359375 -1.972656 0.421875 -2.28125 0.546875 -2.53125 C 0.671875 -2.78125 0.84375 -2.96875 1.0625 -3.09375 C 1.28125 -3.21875 1.535156 -3.28125 1.828125 -3.28125 C 2.234375 -3.28125 2.550781 -3.160156 2.78125 -2.921875 C 3.019531 -2.691406 3.140625 -2.347656 3.140625 -1.890625 C 3.140625 -1.710938 3.132812 -1.59375 3.125 -1.53125 Z M 2.671875 -1.890625 C 2.660156 -2.234375 2.582031 -2.484375 2.4375 -2.640625 C 2.289062 -2.796875 2.085938 -2.875 1.828125 -2.875 C 1.546875 -2.875 1.320312 -2.796875 1.15625 -2.640625 C 1 -2.484375 0.898438 -2.234375 0.859375 -1.890625 Z M 2.671875 -1.890625 "/></g></g><g transform="translate(75.740402, 6.58355)"><g><path d="M 1.46875 0.0625 C 1.257812 0.0625 1.066406 0.0351562 0.890625 -0.015625 C 0.722656 -0.0664062 0.582031 -0.140625 0.46875 -0.234375 C 0.351562 -0.328125 0.269531 -0.429688 0.21875 -0.546875 L 0.5 -0.84375 L 0.5625 -0.84375 C 0.664062 -0.6875 0.789062 -0.566406 0.9375 -0.484375 C 1.082031 -0.398438 1.257812 -0.359375 1.46875 -0.359375 C 1.707031 -0.359375 1.882812 -0.40625 2 -0.5 C 2.125 -0.59375 2.1875 -0.722656 2.1875 -0.890625 C 2.1875 -1.015625 2.148438 -1.117188 2.078125 -1.203125 C 2.003906 -1.285156 1.882812 -1.347656 1.71875 -1.390625 L 1.171875 -1.515625 C 0.878906 -1.585938 0.664062 -1.695312 0.53125 -1.84375 C 0.40625 -2 0.34375 -2.191406 0.34375 -2.421875 C 0.34375 -2.585938 0.382812 -2.734375 0.46875 -2.859375 C 0.5625 -2.992188 0.691406 -3.097656 0.859375 -3.171875 C 1.023438 -3.242188 1.222656 -3.28125 1.453125 -3.28125 C 1.753906 -3.28125 1.988281 -3.238281 2.15625 -3.15625 C 2.320312 -3.070312 2.457031 -2.957031 2.5625 -2.8125 L 2.28125 -2.546875 L 2.234375 -2.546875 C 2.128906 -2.660156 2.015625 -2.742188 1.890625 -2.796875 C 1.765625 -2.847656 1.617188 -2.875 1.453125 -2.875 C 1.242188 -2.875 1.082031 -2.835938 0.96875 -2.765625 C 0.851562 -2.691406 0.796875 -2.582031 0.796875 -2.4375 C 0.796875 -2.300781 0.835938 -2.191406 0.921875 -2.109375 C 1.003906 -2.035156 1.144531 -1.972656 1.34375 -1.921875 L 1.875 -1.796875 C 2.15625 -1.734375 2.359375 -1.625 2.484375 -1.46875 C 2.609375 -1.3125 2.671875 -1.117188 2.671875 -0.890625 C 2.671875 -0.703125 2.625 -0.535156 2.53125 -0.390625 C 2.445312 -0.253906 2.3125 -0.144531 2.125 -0.0625 C 1.945312 0.0195312 1.726562 0.0625 1.46875 0.0625 Z M 1.46875 0.0625 "/></g></g></g></g></g></svg>