<svg xmlns="http://www.w3.org/2000/svg" xmlns:xlink="http://www.w3.org/1999/xlink" width="80" zoomAndPan="magnify" viewBox="0 0 60 38.999999" height="52" preserveAspectRatio="xMidYMid meet" version="1.0"><defs><clipPath id="bb2d11d05f"><path d="M 15 0 L 45 0 C 48.976562 0 52.792969 1.582031 55.605469 4.394531 C 58.417969 7.207031 60 11.023438 60 15 L 60 24 C 60 27.976562 58.417969 31.792969 55.605469 34.605469 C 52.792969 37.417969 48.976562 39 45 39 L 15 39 C 11.023438 39 7.207031 37.417969 4.394531 34.605469 C 1.582031 31.792969 0 27.976562 0 24 L 0 15 C 0 11.023438 1.582031 7.207031 4.394531 4.394531 C 7.207031 1.582031 11.023438 0 15 0 Z M 15 0 " clip-rule="nonzero"/></clipPath><clipPath id="8daf70c58e"><path d="M 0 0 L 60 0 L 60 39 L 0 39 Z M 0 0 " clip-rule="nonzero"/></clipPath><clipPath id="5a5303f351"><path d="M 15 0 L 45 0 C 48.976562 0 52.792969 1.582031 55.605469 4.394531 C 58.417969 7.207031 60 11.023438 60 15 L 60 24 C 60 27.976562 58.417969 31.792969 55.605469 34.605469 C 52.792969 37.417969 48.976562 39 45 39 L 15 39 C 11.023438 39 7.207031 37.417969 4.394531 34.605469 C 1.582031 31.792969 0 27.976562 0 24 L 0 15 C 0 11.023438 1.582031 7.207031 4.394531 4.394531 C 7.207031 1.582031 11.023438 0 15 0 Z M 15 0 " clip-rule="nonzero"/></clipPath><clipPath id="fcb9988318"><rect x="0" width="60" y="0" height="39"/></clipPath><clipPath id="43c4736856"><path d="M 25 8.175781 L 44.164062 8.175781 L 44.164062 26 L 25 26 Z M 25 8.175781 " clip-rule="nonzero"/></clipPath><clipPath id="0a58c722ec"><path d="M 15.664062 16 L 27 16 L 27 27 L 15.664062 27 Z M 15.664062 16 " clip-rule="nonzero"/></clipPath><clipPath id="8abcafaf4f"><path d="M 19 27 L 32 27 L 32 30.675781 L 19 30.675781 Z M 19 27 " clip-rule="nonzero"/></clipPath></defs><g clip-path="url(#bb2d11d05f)"><g transform="matrix(1, 0, 0, 1, 0, 0)"><g clip-path="url(#fcb9988318)"><g clip-path="url(#8daf70c58e)"><g clip-path="url(#5a5303f351)"><rect x="-13.2" width="86.4" fill="#f9eb57" height="56.159999" y="-8.58" fill-opacity="1"/></g></g></g></g></g><g clip-path="url(#43c4736856)"><path fill="#000000" d="M 43.445312 8.234375 L 26.558594 8.234375 C 26.171875 8.234375 25.871094 8.53125 25.871094 8.921875 L 25.871094 17.390625 L 27.277344 19.066406 L 27.277344 9.640625 L 42.757812 9.640625 L 42.757812 23.613281 L 41.769531 22.835938 C 41.527344 22.625 41.167969 22.625 40.898438 22.835938 L 39.222656 24.152344 L 37.546875 22.835938 C 37.308594 22.625 36.949219 22.625 36.679688 22.835938 L 35.003906 24.152344 L 33.324219 22.835938 C 33.085938 22.625 32.726562 22.625 32.457031 22.835938 L 30.78125 24.152344 L 30.210938 23.703125 C 30.121094 23.824219 30.003906 23.941406 29.882812 24.0625 L 29.164062 24.660156 L 30.363281 25.589844 C 30.601562 25.796875 30.960938 25.796875 31.230469 25.589844 L 32.90625 24.269531 L 34.582031 25.589844 C 34.824219 25.796875 35.183594 25.796875 35.453125 25.589844 L 37.128906 24.269531 L 38.804688 25.589844 C 39.042969 25.796875 39.402344 25.796875 39.671875 25.589844 L 41.347656 24.269531 L 43.027344 25.589844 C 43.234375 25.738281 43.535156 25.765625 43.773438 25.679688 C 44.011719 25.558594 44.164062 25.320312 44.164062 25.050781 L 44.164062 8.921875 C 44.132812 8.53125 43.835938 8.234375 43.445312 8.234375 Z M 43.445312 8.234375 " fill-opacity="1" fill-rule="nonzero"/></g><path fill="#000000" d="M 31.289062 16.96875 L 32.339844 16.96875 C 32.546875 16.96875 32.757812 17.058594 32.90625 17.210938 C 33.058594 17.359375 33.148438 17.570312 33.148438 17.777344 C 33.148438 18.226562 32.789062 18.585938 32.339844 18.585938 L 31.289062 18.585938 C 30.960938 18.585938 30.660156 18.375 30.542969 18.046875 C 30.390625 17.6875 30.003906 17.507812 29.644531 17.628906 C 29.285156 17.777344 29.105469 18.167969 29.226562 18.527344 C 29.523438 19.335938 30.273438 19.871094 31.109375 19.933594 L 31.109375 20.710938 C 31.109375 21.101562 31.441406 21.21875 31.800781 21.21875 C 32.160156 21.21875 32.488281 21.101562 32.488281 20.710938 L 32.488281 19.933594 C 33.625 19.84375 34.523438 18.914062 34.523438 17.75 C 34.523438 17.148438 34.285156 16.613281 33.894531 16.191406 C 33.476562 15.773438 32.9375 15.535156 32.339844 15.535156 L 31.289062 15.535156 C 30.839844 15.535156 30.480469 15.175781 30.480469 14.726562 C 30.480469 14.515625 30.570312 14.308594 30.722656 14.15625 C 30.871094 14.007812 31.082031 13.917969 31.289062 13.917969 L 32.339844 13.917969 C 32.667969 13.917969 32.96875 14.128906 33.085938 14.457031 C 33.207031 14.816406 33.625 14.996094 33.984375 14.875 C 34.34375 14.757812 34.523438 14.335938 34.402344 13.976562 C 34.105469 13.171875 33.355469 12.632812 32.519531 12.542969 L 32.519531 11.765625 C 32.519531 11.375 32.1875 11.253906 31.828125 11.253906 C 31.46875 11.253906 31.140625 11.375 31.140625 11.765625 L 31.140625 12.542969 C 30.632812 12.570312 30.121094 12.78125 29.761719 13.171875 C 29.34375 13.589844 29.105469 14.128906 29.105469 14.726562 C 29.105469 15.984375 30.09375 16.96875 31.289062 16.96875 Z M 31.289062 16.96875 " fill-opacity="1" fill-rule="nonzero"/><path fill="#000000" d="M 36.589844 13.648438 L 40.210938 13.648438 C 40.601562 13.648438 40.898438 13.351562 40.898438 12.960938 C 40.898438 12.570312 40.601562 12.273438 40.210938 12.273438 L 36.589844 12.273438 C 36.199219 12.273438 35.902344 12.570312 35.902344 12.960938 C 35.871094 13.320312 36.199219 13.648438 36.589844 13.648438 Z M 36.589844 13.648438 " fill-opacity="1" fill-rule="nonzero"/><path fill="#000000" d="M 36.589844 16.96875 L 40.210938 16.96875 C 40.601562 16.96875 40.898438 16.671875 40.898438 16.28125 C 40.898438 15.894531 40.601562 15.59375 40.210938 15.59375 L 36.589844 15.59375 C 36.199219 15.59375 35.902344 15.894531 35.902344 16.28125 C 35.902344 16.671875 36.199219 16.96875 36.589844 16.96875 Z M 36.589844 16.96875 " fill-opacity="1" fill-rule="nonzero"/><path fill="#000000" d="M 36.589844 20.320312 L 40.210938 20.320312 C 40.601562 20.320312 40.898438 20.023438 40.898438 19.632812 C 40.898438 19.246094 40.601562 18.945312 40.210938 18.945312 L 36.589844 18.945312 C 36.199219 18.945312 35.902344 19.246094 35.902344 19.632812 C 35.902344 20.023438 36.199219 20.320312 36.589844 20.320312 Z M 36.589844 20.320312 " fill-opacity="1" fill-rule="nonzero"/><path fill="#000000" d="M 25.304688 26.097656 C 24.945312 26.394531 24.433594 26.335938 24.164062 26.007812 L 23.925781 25.707031 C 23.625 25.347656 23.6875 24.839844 24.015625 24.570312 L 27.699219 21.488281 C 28.058594 21.1875 28.566406 21.25 28.835938 21.578125 L 29.074219 21.878906 C 29.375 22.238281 29.316406 22.746094 28.984375 23.015625 Z M 25.304688 26.097656 " fill-opacity="1" fill-rule="nonzero"/><path fill="#000000" d="M 19.074219 18.644531 C 18.71875 18.945312 18.207031 18.886719 17.9375 18.554688 L 17.699219 18.257812 C 17.398438 17.898438 17.460938 17.390625 17.789062 17.121094 L 21.472656 14.039062 C 21.832031 13.738281 22.339844 13.796875 22.609375 14.128906 L 22.847656 14.425781 C 23.148438 14.785156 23.085938 15.292969 22.757812 15.5625 Z M 19.074219 18.644531 " fill-opacity="1" fill-rule="nonzero"/><g clip-path="url(#0a58c722ec)"><path fill="#000000" d="M 15.691406 25.109375 C 15.753906 24.71875 15.960938 24.359375 16.261719 24.121094 L 20.933594 20.652344 L 19.855469 19.363281 L 23.328125 16.460938 L 26.917969 20.742188 L 23.476562 23.613281 L 22.398438 22.328125 L 18.148438 26.335938 C 17.847656 26.605469 17.460938 26.753906 17.070312 26.726562 L 17.039062 26.726562 C 16.652344 26.695312 16.292969 26.515625 16.050781 26.214844 C 15.78125 25.917969 15.664062 25.5 15.691406 25.109375 Z M 15.691406 25.109375 " fill-opacity="1" fill-rule="nonzero"/></g><g clip-path="url(#8abcafaf4f)"><path fill="#000000" d="M 20.214844 28.820312 L 21.351562 28.820312 L 21.351562 28.371094 C 21.351562 27.953125 21.679688 27.621094 22.101562 27.621094 L 28.894531 27.621094 C 29.316406 27.621094 29.644531 27.953125 29.644531 28.371094 L 29.644531 28.820312 L 30.78125 28.820312 C 31.019531 28.820312 31.230469 29.027344 31.230469 29.269531 L 31.230469 30.167969 C 31.230469 30.40625 31.019531 30.613281 30.78125 30.613281 L 20.214844 30.613281 C 19.972656 30.613281 19.765625 30.40625 19.765625 30.167969 L 19.765625 29.269531 C 19.765625 29.027344 19.945312 28.820312 20.214844 28.820312 Z M 20.214844 28.820312 " fill-opacity="1" fill-rule="nonzero"/></g></svg>