<svg xmlns="http://www.w3.org/2000/svg" xmlns:xlink="http://www.w3.org/1999/xlink" width="56" zoomAndPan="magnify" viewBox="0 0 42 42" height="56" preserveAspectRatio="xMidYMid meet" version="1.0"><defs><clipPath id="07aa91466a"><path d="M 0.488281 0 L 41.511719 0 L 41.511719 41.023438 L 0.488281 41.023438 Z M 0.488281 0 " clip-rule="nonzero"/></clipPath><clipPath id="08b3f03403"><path d="M 21 0 C 9.671875 0 0.488281 9.183594 0.488281 20.511719 C 0.488281 31.839844 9.671875 41.023438 21 41.023438 C 32.328125 41.023438 41.511719 31.839844 41.511719 20.511719 C 41.511719 9.183594 32.328125 0 21 0 Z M 21 0 " clip-rule="nonzero"/></clipPath><clipPath id="cc5cdbfc6d"><path d="M 0.488281 0 L 41.511719 0 L 41.511719 41.023438 L 0.488281 41.023438 Z M 0.488281 0 " clip-rule="nonzero"/></clipPath><clipPath id="4c979abf0a"><path d="M 21 0 C 9.671875 0 0.488281 9.183594 0.488281 20.511719 C 0.488281 31.839844 9.671875 41.023438 21 41.023438 C 32.328125 41.023438 41.511719 31.839844 41.511719 20.511719 C 41.511719 9.183594 32.328125 0 21 0 Z M 21 0 " clip-rule="nonzero"/></clipPath><clipPath id="433f576a87"><rect x="0" width="42" y="0" height="42"/></clipPath><clipPath id="47d966436f"><path d="M 7.03125 7.589844 L 34.867188 7.589844 L 34.867188 33.230469 L 7.03125 33.230469 Z M 7.03125 7.589844 " clip-rule="nonzero"/></clipPath></defs><g clip-path="url(#07aa91466a)"><g clip-path="url(#08b3f03403)"><g transform="matrix(1, 0, 0, 1, 0.000000000000000111, 0.000000000000004377)"><g clip-path="url(#433f576a87)"><g clip-path="url(#cc5cdbfc6d)"><g clip-path="url(#4c979abf0a)"><path fill="#bcbcbc" d="M 0.488281 0 L 41.511719 0 L 41.511719 41.023438 L 0.488281 41.023438 Z M 0.488281 0 " fill-opacity="1" fill-rule="nonzero"/></g></g></g></g></g></g><g clip-path="url(#47d966436f)"><path fill="#000000" d="M 18.125 15.320312 L 18.132812 15.328125 C 18.628906 15.613281 19.074219 15.957031 19.460938 16.339844 C 19.484375 16.335938 19.507812 16.335938 19.53125 16.335938 L 27.363281 16.335938 C 27.566406 16.335938 27.734375 16.5 27.734375 16.703125 C 27.734375 16.90625 27.566406 17.070312 27.363281 17.070312 L 20.089844 17.070312 C 20.5625 17.714844 20.90625 18.433594 21.109375 19.191406 C 21.183594 19.460938 21.238281 19.738281 21.273438 20.015625 L 27.363281 20.015625 C 27.566406 20.015625 27.734375 20.183594 27.734375 20.386719 C 27.734375 20.589844 27.566406 20.753906 27.363281 20.753906 L 21.328125 20.753906 C 21.339844 21.75 21.121094 22.757812 20.644531 23.699219 L 27.363281 23.699219 C 27.566406 23.699219 27.734375 23.863281 27.734375 24.070312 C 27.734375 24.273438 27.566406 24.4375 27.363281 24.4375 L 20.207031 24.4375 C 19.320312 25.734375 18.019531 26.609375 16.585938 26.992188 C 16.109375 27.117188 15.617188 27.191406 15.121094 27.207031 L 15.121094 31.746094 C 15.121094 31.9375 15.199219 32.113281 15.328125 32.238281 L 15.339844 32.253906 C 15.464844 32.371094 15.636719 32.441406 15.820312 32.441406 L 33.394531 32.441406 C 33.585938 32.441406 33.761719 32.363281 33.890625 32.238281 L 33.902344 32.222656 C 34.023438 32.097656 34.09375 31.929688 34.09375 31.746094 L 34.09375 9.027344 C 34.09375 8.835938 34.015625 8.660156 33.890625 8.535156 C 33.761719 8.40625 33.585938 8.328125 33.394531 8.328125 L 18.363281 8.328125 L 18.363281 10.453125 C 18.363281 10.757812 18.238281 11.03125 18.039062 11.234375 C 17.835938 11.433594 17.558594 11.558594 17.253906 11.558594 L 15.121094 11.558594 L 15.121094 14.472656 C 16.144531 14.5 17.175781 14.777344 18.125 15.320312 Z M 17.625 8.851562 L 17.625 10.453125 C 17.625 10.554688 17.582031 10.648438 17.515625 10.714844 C 17.449219 10.78125 17.355469 10.820312 17.253906 10.820312 L 15.644531 10.820312 Z M 14.929688 19.652344 C 15.097656 19.652344 15.261719 19.765625 15.386719 19.949219 C 15.542969 20.171875 15.636719 20.484375 15.636719 20.839844 C 15.636719 21.191406 15.542969 21.507812 15.386719 21.730469 C 15.261719 21.910156 15.097656 22.023438 14.929688 22.023438 C 14.761719 22.023438 14.597656 21.910156 14.472656 21.730469 C 14.316406 21.507812 14.222656 21.191406 14.222656 20.839844 C 14.222656 20.484375 14.316406 20.171875 14.472656 19.949219 C 14.597656 19.765625 14.761719 19.652344 14.929688 19.652344 Z M 16.195312 19.894531 C 16.289062 19.933594 16.386719 19.976562 16.476562 20.023438 L 16.480469 20.023438 C 16.871094 20.222656 17.222656 20.5 17.515625 20.839844 C 17.230469 21.171875 16.886719 21.445312 16.503906 21.640625 L 16.476562 21.652344 C 16.386719 21.699219 16.289062 21.742188 16.195312 21.78125 C 16.308594 21.503906 16.378906 21.179688 16.378906 20.839844 C 16.378906 20.496094 16.308594 20.175781 16.195312 19.894531 Z M 13.664062 21.78125 C 13.546875 21.503906 13.480469 21.179688 13.480469 20.839844 C 13.480469 20.496094 13.546875 20.171875 13.664062 19.894531 C 13.570312 19.933594 13.472656 19.976562 13.382812 20.023438 C 12.988281 20.222656 12.632812 20.5 12.34375 20.839844 C 12.636719 21.179688 12.988281 21.457031 13.378906 21.65625 L 13.378906 21.652344 C 13.472656 21.699219 13.566406 21.742188 13.664062 21.78125 Z M 16.8125 19.367188 C 17.386719 19.660156 17.894531 20.085938 18.28125 20.617188 C 18.378906 20.742188 18.382812 20.921875 18.285156 21.054688 C 17.902344 21.582031 17.40625 22 16.84375 22.292969 L 16.8125 22.3125 C 16.238281 22.601562 15.59375 22.761719 14.929688 22.761719 C 14.265625 22.761719 13.621094 22.601562 13.046875 22.3125 L 13.046875 22.308594 C 12.472656 22.015625 11.964844 21.59375 11.578125 21.0625 C 11.480469 20.9375 11.476562 20.757812 11.574219 20.621094 C 11.960938 20.085938 12.46875 19.660156 13.046875 19.367188 C 13.621094 19.074219 14.265625 18.914062 14.929688 18.914062 C 15.59375 18.914062 16.238281 19.074219 16.8125 19.367188 Z M 29.359375 27.921875 C 29.214844 27.777344 29.214844 27.542969 29.359375 27.398438 C 29.503906 27.257812 29.738281 27.257812 29.882812 27.398438 L 30.472656 27.988281 L 31.734375 26.730469 C 31.878906 26.589844 32.113281 26.589844 32.257812 26.730469 C 32.402344 26.875 32.402344 27.109375 32.257812 27.253906 L 30.734375 28.769531 C 30.589844 28.914062 30.355469 28.914062 30.210938 28.769531 Z M 17.515625 28.121094 C 17.3125 28.121094 17.144531 27.953125 17.144531 27.75 C 17.144531 27.546875 17.3125 27.382812 17.515625 27.382812 L 27.363281 27.382812 C 27.566406 27.382812 27.734375 27.546875 27.734375 27.75 C 27.734375 27.953125 27.566406 28.121094 27.363281 28.121094 Z M 19.683594 23.890625 C 18.898438 25.109375 17.710938 25.929688 16.394531 26.28125 C 15.871094 26.417969 15.328125 26.484375 14.78125 26.472656 C 14.773438 26.472656 14.761719 26.46875 14.75 26.46875 L 14.742188 26.46875 C 13.839844 26.441406 12.933594 26.199219 12.101562 25.71875 C 10.746094 24.941406 9.839844 23.691406 9.464844 22.296875 C 9.089844 20.902344 9.246094 19.367188 10.027344 18.019531 C 10.808594 16.675781 12.066406 15.769531 13.464844 15.398438 C 13.882812 15.285156 14.3125 15.222656 14.746094 15.207031 L 14.75 15.207031 C 14.761719 15.207031 14.769531 15.207031 14.777344 15.207031 C 15.789062 15.179688 16.820312 15.417969 17.761719 15.960938 C 19.113281 16.738281 20.019531 17.988281 20.394531 19.378906 C 20.769531 20.773438 20.609375 22.308594 19.828125 23.65625 C 19.792969 23.722656 19.75 23.785156 19.710938 23.851562 C 19.703125 23.863281 19.691406 23.878906 19.683594 23.890625 Z M 29.359375 24.238281 C 29.214844 24.09375 29.214844 23.859375 29.359375 23.71875 C 29.503906 23.574219 29.738281 23.574219 29.882812 23.71875 L 30.472656 24.304688 L 31.734375 23.050781 C 31.878906 22.90625 32.113281 22.90625 32.257812 23.050781 C 32.402344 23.195312 32.402344 23.425781 32.257812 23.570312 L 30.734375 25.085938 C 30.589844 25.230469 30.355469 25.230469 30.210938 25.085938 Z M 29.359375 20.554688 C 29.214844 20.414062 29.214844 20.179688 29.359375 20.035156 C 29.503906 19.890625 29.738281 19.890625 29.882812 20.035156 L 30.472656 20.625 L 31.734375 19.367188 C 31.878906 19.222656 32.113281 19.222656 32.257812 19.367188 C 32.402344 19.511719 32.402344 19.746094 32.257812 19.886719 L 30.734375 21.40625 C 30.589844 21.550781 30.355469 21.550781 30.210938 21.40625 Z M 29.359375 16.875 C 29.214844 16.730469 29.214844 16.496094 29.359375 16.351562 C 29.503906 16.207031 29.738281 16.207031 29.882812 16.351562 L 30.472656 16.941406 L 31.734375 15.683594 C 31.878906 15.539062 32.113281 15.539062 32.257812 15.683594 C 32.402344 15.828125 32.402344 16.0625 32.257812 16.207031 L 30.734375 17.722656 C 30.589844 17.867188 30.355469 17.867188 30.210938 17.722656 Z M 29.359375 13.191406 C 29.214844 13.046875 29.214844 12.8125 29.359375 12.667969 C 29.503906 12.527344 29.738281 12.527344 29.882812 12.667969 L 30.472656 13.257812 L 31.734375 12 C 31.878906 11.859375 32.113281 11.859375 32.257812 12 C 32.402344 12.144531 32.402344 12.378906 32.257812 12.523438 L 30.734375 14.039062 C 30.589844 14.183594 30.355469 14.183594 30.210938 14.039062 Z M 17.515625 13.390625 C 17.3125 13.390625 17.144531 13.222656 17.144531 13.019531 C 17.144531 12.816406 17.3125 12.652344 17.515625 12.652344 L 27.363281 12.652344 C 27.566406 12.652344 27.734375 12.816406 27.734375 13.019531 C 27.734375 13.222656 27.566406 13.390625 27.363281 13.390625 Z M 14.378906 27.1875 C 13.820312 27.140625 13.261719 27.015625 12.714844 26.816406 L 12.023438 28.015625 L 12.152344 28.089844 C 12.328125 28.191406 12.386719 28.414062 12.285156 28.589844 L 10.054688 32.4375 C 9.835938 32.816406 9.476562 33.074219 9.082031 33.179688 C 8.6875 33.285156 8.25 33.242188 7.867188 33.023438 C 7.484375 32.800781 7.226562 32.445312 7.117188 32.050781 C 7.011719 31.65625 7.058594 31.222656 7.277344 30.839844 L 9.507812 26.992188 C 9.609375 26.816406 9.835938 26.757812 10.011719 26.859375 L 10.140625 26.933594 L 10.835938 25.734375 C 9.796875 24.875 9.085938 23.730469 8.75 22.488281 C 8.328125 20.914062 8.507812 19.179688 9.390625 17.65625 C 10.273438 16.132812 11.691406 15.109375 13.273438 14.6875 C 13.636719 14.589844 14.007812 14.523438 14.378906 14.492188 L 14.378906 11.171875 L 14.382812 11.167969 L 14.382812 11.132812 L 14.386719 11.132812 L 14.386719 11.117188 L 14.390625 11.113281 L 14.394531 11.089844 L 14.394531 11.085938 L 14.398438 11.082031 L 14.398438 11.078125 L 14.402344 11.070312 L 14.402344 11.058594 L 14.40625 11.054688 L 14.40625 11.050781 L 14.410156 11.046875 L 14.410156 11.042969 L 14.414062 11.039062 L 14.414062 11.035156 L 14.417969 11.03125 L 14.417969 11.027344 L 14.421875 11.023438 L 14.421875 11.019531 L 14.425781 11.015625 L 14.425781 11.011719 L 14.433594 11.003906 L 14.433594 11 L 14.4375 10.996094 L 14.4375 10.992188 L 14.445312 10.984375 L 14.445312 10.980469 L 14.453125 10.972656 L 14.453125 10.96875 L 14.464844 10.957031 L 14.464844 10.953125 L 14.472656 10.945312 L 14.476562 10.945312 L 14.476562 10.941406 L 14.480469 10.941406 L 14.480469 10.9375 L 14.484375 10.9375 L 14.484375 10.933594 L 14.496094 10.921875 L 17.726562 7.707031 L 17.726562 7.703125 L 17.730469 7.703125 L 17.730469 7.699219 L 17.734375 7.699219 L 17.757812 7.675781 L 17.761719 7.675781 L 17.773438 7.664062 L 17.777344 7.664062 L 17.785156 7.65625 L 17.789062 7.65625 L 17.789062 7.652344 L 17.792969 7.648438 L 17.796875 7.648438 L 17.800781 7.644531 L 17.804688 7.644531 L 17.8125 7.636719 L 17.816406 7.636719 L 17.820312 7.632812 L 17.828125 7.632812 L 17.832031 7.628906 L 17.835938 7.628906 L 17.839844 7.625 L 17.84375 7.625 L 17.847656 7.621094 L 17.851562 7.621094 L 17.859375 7.617188 L 17.863281 7.617188 L 17.867188 7.613281 L 17.875 7.613281 L 17.878906 7.609375 L 17.886719 7.609375 L 17.890625 7.605469 L 17.902344 7.605469 L 17.902344 7.601562 L 17.917969 7.601562 L 17.917969 7.597656 L 17.941406 7.597656 L 17.945312 7.59375 L 33.394531 7.59375 C 33.792969 7.59375 34.152344 7.753906 34.414062 8.011719 C 34.671875 8.273438 34.835938 8.632812 34.835938 9.027344 L 34.835938 31.746094 C 34.835938 32.128906 34.683594 32.476562 34.433594 32.738281 L 34.414062 32.757812 C 34.152344 33.019531 33.792969 33.179688 33.394531 33.179688 L 15.820312 33.179688 C 15.4375 33.179688 15.085938 33.027344 14.824219 32.78125 L 14.804688 32.757812 C 14.542969 32.5 14.378906 32.140625 14.378906 31.746094 Z M 12.035156 26.519531 C 11.945312 26.472656 11.855469 26.425781 11.765625 26.375 C 11.742188 26.363281 11.726562 26.355469 11.707031 26.339844 C 11.613281 26.289062 11.523438 26.230469 11.433594 26.175781 L 10.78125 27.300781 L 11.382812 27.648438 Z M 8.234375 32.386719 C 8.4375 32.503906 8.675781 32.527344 8.890625 32.46875 C 9.105469 32.410156 9.296875 32.273438 9.417969 32.070312 L 11.460938 28.542969 L 10.101562 27.757812 L 10.089844 27.753906 L 9.964844 27.679688 L 7.917969 31.207031 C 7.800781 31.410156 7.777344 31.648438 7.832031 31.863281 C 7.890625 32.074219 8.03125 32.265625 8.234375 32.386719 Z M 17.042969 17.195312 C 18.050781 17.777344 18.730469 18.710938 19.007812 19.75 C 19.289062 20.785156 19.171875 21.921875 18.597656 22.921875 L 18.574219 22.964844 C 17.992188 23.957031 17.058594 24.625 16.023438 24.902344 C 14.988281 25.179688 13.847656 25.066406 12.84375 24.5 C 12.828125 24.488281 12.8125 24.476562 12.796875 24.46875 C 11.796875 23.886719 11.125 22.960938 10.847656 21.929688 C 10.570312 20.898438 10.683594 19.761719 11.253906 18.761719 C 11.265625 18.746094 11.273438 18.730469 11.28125 18.714844 C 11.867188 17.71875 12.796875 17.050781 13.835938 16.777344 C 14.882812 16.496094 16.03125 16.613281 17.042969 17.195312 Z M 13.644531 16.0625 C 14.871094 15.738281 16.222656 15.875 17.410156 16.558594 C 18.597656 17.242188 19.394531 18.339844 19.722656 19.558594 C 20.050781 20.777344 19.914062 22.121094 19.230469 23.300781 L 19.226562 23.3125 C 18.542969 24.492188 17.441406 25.285156 16.214844 25.613281 C 14.996094 25.9375 13.652344 25.804688 12.472656 25.132812 L 12.445312 25.117188 C 11.261719 24.4375 10.464844 23.339844 10.132812 22.117188 C 9.808594 20.90625 9.945312 19.566406 10.617188 18.390625 L 10.628906 18.367188 C 11.316406 17.183594 12.417969 16.390625 13.644531 16.0625 Z M 13.644531 16.0625 " fill-opacity="1" fill-rule="evenodd"/></g></svg>