<svg xmlns="http://www.w3.org/2000/svg" xmlns:xlink="http://www.w3.org/1999/xlink" width="56" zoomAndPan="magnify" viewBox="0 0 42 42" height="56" preserveAspectRatio="xMidYMid meet" version="1.0"><defs><clipPath id="de40aab9b4"><path d="M 0.488281 0 L 41.511719 0 L 41.511719 41.023438 L 0.488281 41.023438 Z M 0.488281 0 " clip-rule="nonzero"/></clipPath><clipPath id="aa1dddd025"><path d="M 21 0 C 9.671875 0 0.488281 9.183594 0.488281 20.511719 C 0.488281 31.839844 9.671875 41.023438 21 41.023438 C 32.328125 41.023438 41.511719 31.839844 41.511719 20.511719 C 41.511719 9.183594 32.328125 0 21 0 Z M 21 0 " clip-rule="nonzero"/></clipPath><clipPath id="93e2fedbab"><path d="M 0.488281 0 L 41.511719 0 L 41.511719 41.023438 L 0.488281 41.023438 Z M 0.488281 0 " clip-rule="nonzero"/></clipPath><clipPath id="ac0cb113b3"><path d="M 21 0 C 9.671875 0 0.488281 9.183594 0.488281 20.511719 C 0.488281 31.839844 9.671875 41.023438 21 41.023438 C 32.328125 41.023438 41.511719 31.839844 41.511719 20.511719 C 41.511719 9.183594 32.328125 0 21 0 Z M 21 0 " clip-rule="nonzero"/></clipPath><clipPath id="e17439598b"><rect x="0" width="42" y="0" height="42"/></clipPath><clipPath id="9c25535fb9"><path d="M 6.933594 28 L 34 28 L 34 34 L 6.933594 34 Z M 6.933594 28 " clip-rule="nonzero"/></clipPath><clipPath id="3f3ebf82fa"><path d="M 30 20 L 34.773438 20 L 34.773438 27 L 30 27 Z M 30 20 " clip-rule="nonzero"/></clipPath></defs><g clip-path="url(#de40aab9b4)"><g clip-path="url(#aa1dddd025)"><g transform="matrix(1, 0, 0, 1, 0.000000000000000111, 0.000000000000004377)"><g clip-path="url(#e17439598b)"><g clip-path="url(#93e2fedbab)"><g clip-path="url(#ac0cb113b3)"><path fill="#bcbcbc" d="M 0.488281 0 L 41.511719 0 L 41.511719 41.023438 L 0.488281 41.023438 Z M 0.488281 0 " fill-opacity="1" fill-rule="nonzero"/></g></g></g></g></g></g><g clip-path="url(#9c25535fb9)"><path fill="#000000" d="M 31.027344 33.386719 L 9.160156 33.386719 C 7.910156 33.386719 6.933594 32.410156 6.933594 31.164062 L 6.933594 29.265625 C 6.933594 29.101562 7.042969 28.992188 7.207031 28.992188 L 32.925781 28.992188 C 33.089844 28.992188 33.199219 29.101562 33.199219 29.265625 L 33.199219 31.164062 C 33.199219 32.410156 32.222656 33.386719 31.027344 33.386719 Z M 7.476562 29.535156 L 7.476562 31.164062 C 7.476562 32.085938 8.238281 32.847656 9.160156 32.847656 L 31.027344 32.847656 C 31.949219 32.847656 32.65625 32.085938 32.65625 31.164062 L 32.65625 29.535156 Z M 7.476562 29.535156 " fill-opacity="1" fill-rule="evenodd"/></g><path fill="#000000" d="M 27.390625 29.535156 L 12.796875 29.535156 C 12.253906 29.535156 11.765625 29.046875 11.765625 28.503906 C 11.765625 27.960938 12.253906 27.527344 12.796875 27.527344 L 27.390625 27.527344 C 27.933594 27.527344 28.367188 27.960938 28.367188 28.503906 C 28.367188 29.046875 27.933594 29.535156 27.390625 29.535156 Z M 12.796875 28.070312 C 12.523438 28.070312 12.308594 28.289062 12.308594 28.503906 C 12.308594 28.777344 12.523438 28.992188 12.796875 28.992188 L 27.390625 28.992188 C 27.609375 28.992188 27.828125 28.777344 27.828125 28.503906 C 27.828125 28.289062 27.609375 28.070312 27.390625 28.070312 Z M 12.796875 28.070312 " fill-opacity="1" fill-rule="evenodd"/><path fill="#000000" d="M 31.300781 28.070312 L 8.835938 28.070312 C 8.238281 28.070312 7.75 27.527344 7.75 26.929688 L 7.75 13.148438 C 7.75 12.496094 8.238281 12.007812 8.835938 12.007812 L 12.46875 12.007812 C 12.632812 12.007812 12.742188 12.117188 12.742188 12.28125 C 12.742188 12.441406 12.632812 12.550781 12.46875 12.550781 L 8.835938 12.550781 C 8.5625 12.550781 8.292969 12.824219 8.292969 13.148438 L 8.292969 26.929688 C 8.292969 27.257812 8.5625 27.527344 8.835938 27.527344 L 31.300781 27.527344 C 31.625 27.527344 31.894531 27.257812 31.894531 26.929688 L 31.894531 24.867188 C 31.894531 24.761719 32.003906 24.597656 32.167969 24.597656 C 32.277344 24.597656 32.382812 24.761719 32.382812 24.867188 L 32.382812 26.929688 C 32.4375 27.527344 31.894531 28.070312 31.300781 28.070312 Z M 31.300781 28.070312 " fill-opacity="1" fill-rule="evenodd"/><path fill="#000000" d="M 25.222656 31.433594 L 14.964844 31.433594 C 14.53125 31.433594 14.207031 31.109375 14.207031 30.730469 L 14.207031 29.265625 C 14.207031 29.101562 14.316406 28.992188 14.476562 28.992188 L 25.65625 28.992188 C 25.820312 28.992188 25.925781 29.101562 25.925781 29.265625 L 25.925781 30.730469 C 25.925781 31.109375 25.601562 31.433594 25.222656 31.433594 Z M 14.75 29.535156 L 14.75 30.730469 C 14.75 30.839844 14.855469 30.890625 14.964844 30.890625 L 25.222656 30.890625 C 25.332031 30.890625 25.382812 30.839844 25.382812 30.730469 L 25.382812 29.535156 Z M 14.75 29.535156 " fill-opacity="1" fill-rule="evenodd"/><path fill="#000000" d="M 28.964844 32.085938 C 28.804688 32.085938 28.695312 31.976562 28.695312 31.816406 L 28.695312 30.511719 C 28.695312 30.402344 28.804688 30.242188 28.964844 30.242188 C 29.128906 30.242188 29.238281 30.402344 29.238281 30.511719 L 29.238281 31.816406 C 29.238281 31.976562 29.128906 32.085938 28.964844 32.085938 Z M 28.964844 32.085938 " fill-opacity="1" fill-rule="evenodd"/><path fill="#000000" d="M 30.050781 32.085938 C 29.886719 32.085938 29.78125 31.976562 29.78125 31.816406 L 29.78125 30.511719 C 29.78125 30.402344 29.886719 30.242188 30.050781 30.242188 C 30.214844 30.242188 30.324219 30.402344 30.324219 30.511719 L 30.324219 31.816406 C 30.324219 31.976562 30.214844 32.085938 30.050781 32.085938 Z M 30.050781 32.085938 " fill-opacity="1" fill-rule="evenodd"/><path fill="#000000" d="M 31.191406 32.085938 C 31.027344 32.085938 30.917969 31.976562 30.917969 31.816406 L 30.917969 30.511719 C 30.917969 30.402344 31.027344 30.242188 31.191406 30.242188 C 31.300781 30.242188 31.460938 30.402344 31.460938 30.511719 L 31.460938 31.816406 C 31.460938 31.976562 31.300781 32.085938 31.191406 32.085938 Z M 31.191406 32.085938 " fill-opacity="1" fill-rule="evenodd"/><path fill="#000000" d="M 12.6875 30.945312 L 8.996094 30.945312 C 8.835938 30.945312 8.726562 30.785156 8.726562 30.675781 C 8.726562 30.511719 8.835938 30.402344 8.996094 30.402344 L 12.6875 30.402344 C 12.851562 30.402344 12.957031 30.511719 12.957031 30.675781 C 12.957031 30.785156 12.851562 30.945312 12.6875 30.945312 Z M 12.6875 30.945312 " fill-opacity="1" fill-rule="evenodd"/><path fill="#000000" d="M 12.6875 31.976562 L 8.996094 31.976562 C 8.835938 31.976562 8.726562 31.867188 8.726562 31.707031 C 8.726562 31.542969 8.835938 31.433594 8.996094 31.433594 L 12.6875 31.433594 C 12.851562 31.433594 12.957031 31.542969 12.957031 31.707031 C 12.957031 31.867188 12.851562 31.976562 12.6875 31.976562 Z M 12.6875 31.976562 " fill-opacity="1" fill-rule="evenodd"/><path fill="#000000" d="M 30.59375 26.496094 L 9.539062 26.496094 C 9.375 26.496094 9.269531 26.386719 9.269531 26.226562 L 9.269531 13.851562 C 9.269531 13.691406 9.375 13.582031 9.539062 13.582031 L 12.46875 13.582031 C 12.632812 13.582031 12.742188 13.691406 12.742188 13.851562 L 12.742188 23.1875 C 12.742188 23.675781 13.121094 24.054688 13.609375 24.054688 L 20.066406 24.054688 C 20.230469 24.054688 20.339844 24.164062 20.339844 24.328125 C 20.339844 24.433594 20.230469 24.597656 20.066406 24.597656 L 13.609375 24.597656 C 12.851562 24.597656 12.199219 23.945312 12.199219 23.1875 L 12.199219 14.125 L 9.8125 14.125 L 9.8125 25.953125 L 30.324219 25.953125 L 30.324219 22.210938 C 30.324219 22.046875 30.429688 21.9375 30.59375 21.9375 C 30.757812 21.9375 30.863281 22.046875 30.863281 22.210938 L 30.863281 26.226562 C 30.863281 26.386719 30.757812 26.496094 30.59375 26.496094 Z M 30.59375 26.496094 " fill-opacity="1" fill-rule="evenodd"/><path fill="#000000" d="M 26.578125 24.597656 L 13.609375 24.597656 C 12.851562 24.597656 12.199219 23.945312 12.199219 23.1875 L 12.199219 8.699219 C 12.199219 7.992188 12.851562 7.34375 13.609375 7.34375 L 26.578125 7.34375 C 27.339844 7.34375 27.933594 7.992188 27.933594 8.699219 L 27.933594 11.847656 C 27.933594 12.007812 27.828125 12.117188 27.664062 12.117188 C 27.5 12.117188 27.390625 12.007812 27.390625 11.847656 L 27.390625 8.699219 C 27.390625 8.265625 27.011719 7.882812 26.578125 7.882812 L 13.609375 7.882812 C 13.121094 7.882812 12.742188 8.265625 12.742188 8.699219 L 12.742188 23.1875 C 12.742188 23.675781 13.121094 24.054688 13.609375 24.054688 L 26.578125 24.054688 C 27.011719 24.054688 27.390625 23.675781 27.390625 23.1875 L 27.390625 20.636719 C 27.390625 20.472656 27.5 20.363281 27.664062 20.363281 C 27.828125 20.363281 27.933594 20.472656 27.933594 20.636719 L 27.933594 23.1875 C 27.933594 23.945312 27.339844 24.597656 26.578125 24.597656 Z M 26.578125 24.597656 " fill-opacity="1" fill-rule="evenodd"/><path fill="#000000" d="M 23.972656 17.328125 L 14.152344 17.328125 C 13.988281 17.328125 13.878906 17.164062 13.878906 17.054688 C 13.878906 16.890625 13.988281 16.785156 14.152344 16.785156 L 23.972656 16.785156 C 24.136719 16.785156 24.246094 16.890625 24.246094 17.054688 C 24.246094 17.164062 24.136719 17.328125 23.972656 17.328125 Z M 23.972656 17.328125 " fill-opacity="1" fill-rule="evenodd"/><path fill="#000000" d="M 24.460938 18.628906 L 14.152344 18.628906 C 13.988281 18.628906 13.878906 18.519531 13.878906 18.355469 C 13.878906 18.25 13.988281 18.085938 14.152344 18.085938 L 24.460938 18.085938 C 24.625 18.085938 24.734375 18.25 24.734375 18.355469 C 24.734375 18.519531 24.625 18.628906 24.460938 18.628906 Z M 24.460938 18.628906 " fill-opacity="1" fill-rule="evenodd"/><path fill="#000000" d="M 25.601562 19.984375 L 14.152344 19.984375 C 13.988281 19.984375 13.878906 19.875 13.878906 19.714844 C 13.878906 19.605469 13.988281 19.441406 14.152344 19.441406 L 25.601562 19.441406 C 25.765625 19.441406 25.871094 19.605469 25.871094 19.714844 C 25.871094 19.875 25.765625 19.984375 25.601562 19.984375 Z M 25.601562 19.984375 " fill-opacity="1" fill-rule="evenodd"/><path fill="#000000" d="M 25.980469 21.34375 L 14.152344 21.34375 C 13.988281 21.34375 13.878906 21.234375 13.878906 21.070312 C 13.878906 20.960938 13.988281 20.800781 14.152344 20.800781 L 25.980469 20.800781 C 26.144531 20.800781 26.253906 20.960938 26.253906 21.070312 C 26.253906 21.234375 26.144531 21.34375 25.980469 21.34375 Z M 25.980469 21.34375 " fill-opacity="1" fill-rule="evenodd"/><path fill="#000000" d="M 25.980469 22.699219 L 14.152344 22.699219 C 13.988281 22.699219 13.878906 22.589844 13.878906 22.425781 C 13.878906 22.265625 13.988281 22.15625 14.152344 22.15625 L 25.980469 22.15625 C 26.144531 22.15625 26.253906 22.265625 26.253906 22.425781 C 26.253906 22.589844 26.144531 22.699219 25.980469 22.699219 Z M 25.980469 22.699219 " fill-opacity="1" fill-rule="evenodd"/><path fill="#000000" d="M 23.972656 15.753906 L 14.476562 15.753906 C 14.316406 15.753906 14.207031 15.644531 14.207031 15.480469 L 14.207031 14.34375 C 14.207031 14.179688 14.316406 14.070312 14.476562 14.070312 L 24.300781 14.070312 C 24.460938 14.070312 24.570312 14.179688 24.570312 14.34375 C 24.570312 14.503906 24.460938 14.613281 24.300781 14.613281 L 14.75 14.613281 L 14.75 15.210938 L 23.972656 15.210938 C 24.082031 15.210938 24.246094 15.320312 24.246094 15.480469 C 24.246094 15.644531 24.082031 15.753906 23.972656 15.753906 Z M 23.972656 15.753906 " fill-opacity="1" fill-rule="evenodd"/><path fill="#000000" d="M 16.648438 14.613281 L 15.398438 14.613281 C 15.292969 14.613281 15.128906 14.503906 15.128906 14.34375 L 15.128906 11.25 C 15.128906 11.085938 15.292969 10.976562 15.398438 10.976562 L 16.648438 10.976562 C 16.8125 10.976562 16.917969 11.085938 16.917969 11.25 L 16.917969 14.34375 C 16.917969 14.503906 16.8125 14.613281 16.648438 14.613281 Z M 15.671875 14.070312 L 16.375 14.070312 L 16.375 11.519531 L 15.671875 11.519531 Z M 15.671875 14.070312 " fill-opacity="1" fill-rule="evenodd"/><path fill="#000000" d="M 19.359375 14.613281 L 18.113281 14.613281 C 17.949219 14.613281 17.84375 14.503906 17.84375 14.34375 L 17.84375 12.171875 C 17.84375 12.007812 17.949219 11.898438 18.113281 11.898438 L 19.359375 11.898438 C 19.46875 11.898438 19.578125 12.007812 19.578125 12.171875 L 19.578125 14.34375 C 19.578125 14.503906 19.46875 14.613281 19.359375 14.613281 Z M 18.382812 14.070312 L 19.035156 14.070312 L 19.035156 12.441406 L 18.382812 12.441406 Z M 18.382812 14.070312 " fill-opacity="1" fill-rule="evenodd"/><path fill="#000000" d="M 22.019531 14.613281 L 20.828125 14.613281 C 20.664062 14.613281 20.554688 14.503906 20.554688 14.34375 L 20.554688 9.511719 C 20.554688 9.351562 20.664062 9.242188 20.828125 9.242188 L 22.019531 9.242188 C 22.183594 9.242188 22.292969 9.351562 22.292969 9.511719 L 22.292969 14.34375 C 22.292969 14.503906 22.183594 14.613281 22.019531 14.613281 Z M 21.097656 14.070312 L 21.75 14.070312 L 21.75 9.785156 L 21.097656 9.785156 Z M 21.097656 14.070312 " fill-opacity="1" fill-rule="evenodd"/><path fill="#000000" d="M 24.300781 14.613281 L 23.539062 14.613281 C 23.375 14.613281 23.269531 14.503906 23.269531 14.34375 L 23.269531 11.195312 C 23.269531 11.085938 23.375 10.921875 23.539062 10.921875 L 24.734375 10.921875 C 24.894531 10.921875 25.003906 11.085938 25.003906 11.195312 L 25.003906 13.636719 C 25.003906 13.800781 24.894531 13.90625 24.734375 13.90625 C 24.570312 13.90625 24.460938 13.800781 24.460938 13.636719 L 24.460938 11.464844 L 23.8125 11.464844 L 23.8125 14.070312 L 24.300781 14.070312 C 24.460938 14.070312 24.570312 14.179688 24.570312 14.34375 C 24.570312 14.503906 24.460938 14.613281 24.300781 14.613281 Z M 24.300781 14.613281 " fill-opacity="1" fill-rule="evenodd"/><path fill="#000000" d="M 28.316406 20.960938 C 26.632812 20.960938 25.058594 20.039062 24.246094 18.574219 C 22.941406 16.296875 23.757812 13.417969 26.035156 12.117188 C 26.742188 11.738281 27.5 11.519531 28.316406 11.519531 C 30.050781 11.519531 31.625 12.441406 32.4375 13.90625 C 33.742188 16.1875 32.925781 19.0625 30.648438 20.3125 C 29.941406 20.746094 29.128906 20.960938 28.316406 20.960938 Z M 28.316406 12.0625 C 27.609375 12.0625 26.902344 12.226562 26.308594 12.605469 C 24.300781 13.746094 23.59375 16.296875 24.734375 18.304688 C 25.4375 19.605469 26.851562 20.417969 28.367188 20.417969 C 29.074219 20.417969 29.78125 20.203125 30.375 19.875 C 32.382812 18.738281 33.089844 16.1875 31.949219 14.179688 C 31.246094 12.875 29.835938 12.0625 28.316406 12.0625 Z M 28.316406 12.0625 " fill-opacity="1" fill-rule="evenodd"/><path fill="#000000" d="M 30.214844 22.644531 C 29.996094 22.644531 29.78125 22.480469 29.617188 22.265625 L 28.640625 20.800781 C 28.585938 20.746094 28.53125 20.636719 28.585938 20.527344 C 28.640625 20.472656 28.695312 20.363281 28.804688 20.363281 C 29.347656 20.3125 29.886719 20.148438 30.375 19.875 C 30.863281 19.605469 31.300781 19.226562 31.625 18.792969 C 31.734375 18.683594 31.789062 18.683594 31.894531 18.683594 C 32.003906 18.683594 32.058594 18.738281 32.113281 18.847656 L 32.871094 20.417969 C 33.035156 20.800781 32.925781 21.179688 32.65625 21.34375 L 30.484375 22.589844 C 30.429688 22.589844 30.324219 22.644531 30.214844 22.644531 Z M 29.292969 20.851562 L 30.050781 21.9375 C 30.105469 22.046875 30.214844 22.101562 30.214844 22.101562 L 32.382812 20.851562 C 32.382812 20.851562 32.4375 20.746094 32.382812 20.636719 L 31.789062 19.441406 C 31.460938 19.769531 31.082031 20.09375 30.648438 20.3125 C 30.214844 20.582031 29.78125 20.746094 29.292969 20.851562 Z M 29.292969 20.851562 " fill-opacity="1" fill-rule="evenodd"/><g clip-path="url(#3f3ebf82fa)"><path fill="#000000" d="M 33.035156 26.386719 C 32.820312 26.386719 32.601562 26.226562 32.492188 26.0625 L 30.375 22.320312 C 30.324219 22.265625 30.324219 22.210938 30.324219 22.101562 C 30.375 22.046875 30.429688 21.992188 30.484375 21.9375 L 32.167969 21.015625 C 32.277344 20.90625 32.4375 20.960938 32.492188 21.125 L 34.609375 24.816406 C 34.773438 25.140625 34.71875 25.519531 34.390625 25.683594 L 33.308594 26.28125 C 33.199219 26.335938 33.144531 26.386719 33.035156 26.386719 Z M 30.972656 22.320312 L 32.980469 25.792969 C 32.980469 25.847656 33.035156 25.847656 33.035156 25.792969 L 34.121094 25.195312 C 34.175781 25.195312 34.175781 25.140625 34.175781 25.085938 L 32.167969 21.613281 Z M 30.972656 22.320312 " fill-opacity="1" fill-rule="evenodd"/></g><path fill="#000000" d="M 28.316406 19.605469 C 27.121094 19.605469 25.980469 18.953125 25.382812 17.921875 C 24.460938 16.296875 25.058594 14.234375 26.6875 13.3125 C 27.175781 12.984375 27.773438 12.875 28.316406 12.875 C 29.5625 12.875 30.703125 13.527344 31.300781 14.558594 C 31.734375 15.371094 31.84375 16.242188 31.625 17.109375 C 31.351562 18.03125 30.8125 18.738281 29.996094 19.171875 C 29.507812 19.441406 28.910156 19.605469 28.316406 19.605469 Z M 28.316406 13.417969 C 27.828125 13.417969 27.339844 13.527344 26.957031 13.746094 C 25.601562 14.558594 25.113281 16.296875 25.871094 17.652344 C 26.359375 18.519531 27.339844 19.0625 28.316406 19.0625 C 28.804688 19.0625 29.292969 18.953125 29.726562 18.683594 C 30.375 18.355469 30.863281 17.707031 31.082031 17 C 31.300781 16.242188 31.191406 15.480469 30.8125 14.832031 C 30.324219 13.960938 29.347656 13.417969 28.316406 13.417969 Z M 28.316406 13.417969 " fill-opacity="1" fill-rule="evenodd"/></svg>