<svg xmlns="http://www.w3.org/2000/svg" xmlns:xlink="http://www.w3.org/1999/xlink" width="56" zoomAndPan="magnify" viewBox="0 0 42 42" height="56" preserveAspectRatio="xMidYMid meet" version="1.0"><defs><clipPath id="788ea820b3"><path d="M 0.488281 0 L 41.511719 0 L 41.511719 41.023438 L 0.488281 41.023438 Z M 0.488281 0 " clip-rule="nonzero"/></clipPath><clipPath id="70a17997c3"><path d="M 21 0 C 9.671875 0 0.488281 9.183594 0.488281 20.511719 C 0.488281 31.839844 9.671875 41.023438 21 41.023438 C 32.328125 41.023438 41.511719 31.839844 41.511719 20.511719 C 41.511719 9.183594 32.328125 0 21 0 Z M 21 0 " clip-rule="nonzero"/></clipPath><clipPath id="0afad7d88b"><path d="M 0.488281 0 L 41.511719 0 L 41.511719 41.023438 L 0.488281 41.023438 Z M 0.488281 0 " clip-rule="nonzero"/></clipPath><clipPath id="6b65f30e26"><path d="M 21 0 C 9.671875 0 0.488281 9.183594 0.488281 20.511719 C 0.488281 31.839844 9.671875 41.023438 21 41.023438 C 32.328125 41.023438 41.511719 31.839844 41.511719 20.511719 C 41.511719 9.183594 32.328125 0 21 0 Z M 21 0 " clip-rule="nonzero"/></clipPath><clipPath id="a663f651ca"><rect x="0" width="42" y="0" height="42"/></clipPath><clipPath id="9554d4ed7d"><path d="M 14 25 L 28 25 L 28 32.101562 L 14 32.101562 Z M 14 25 " clip-rule="nonzero"/></clipPath><clipPath id="7962bccdb6"><path d="M 23 23 L 36.507812 23 L 36.507812 30 L 23 30 Z M 23 23 " clip-rule="nonzero"/></clipPath><clipPath id="dcc5aca9df"><path d="M 5.738281 23 L 19 23 L 19 30 L 5.738281 30 Z M 5.738281 23 " clip-rule="nonzero"/></clipPath><clipPath id="7a102870d4"><path d="M 13 5.730469 L 30 5.730469 L 30 16 L 13 16 Z M 13 5.730469 " clip-rule="nonzero"/></clipPath></defs><g clip-path="url(#788ea820b3)"><g clip-path="url(#70a17997c3)"><g transform="matrix(1, 0, 0, 1, 0.000000000000000111, 0.000000000000004377)"><g clip-path="url(#a663f651ca)"><g clip-path="url(#0afad7d88b)"><g clip-path="url(#6b65f30e26)"><path fill="#bcbcbc" d="M 0.488281 0 L 41.511719 0 L 41.511719 41.023438 L 0.488281 41.023438 Z M 0.488281 0 " fill-opacity="1" fill-rule="nonzero"/></g></g></g></g></g></g><path fill="#000000" d="M 21.121094 25.410156 C 19.664062 25.410156 18.464844 24.007812 18.464844 22.292969 C 18.464844 20.574219 19.65625 19.175781 21.121094 19.175781 C 22.589844 19.175781 23.777344 20.574219 23.777344 22.292969 C 23.777344 24.007812 22.582031 25.410156 21.121094 25.410156 Z M 21.121094 19.886719 C 20.058594 19.886719 19.1875 20.96875 19.1875 22.296875 C 19.1875 23.625 20.054688 24.707031 21.121094 24.707031 C 22.1875 24.707031 23.058594 23.625 23.058594 22.296875 C 23.058594 20.96875 22.1875 19.886719 21.121094 19.886719 Z M 21.121094 19.886719 " fill-opacity="1" fill-rule="nonzero"/><g clip-path="url(#9554d4ed7d)"><path fill="#000000" d="M 27.59375 32.101562 L 14.652344 32.101562 C 14.453125 32.101562 14.289062 31.945312 14.289062 31.75 L 14.289062 29.324219 C 14.289062 28.382812 14.777344 27.523438 15.59375 27.03125 L 18.296875 25.390625 C 18.816406 25.078125 19.5 25.21875 19.859375 25.710938 C 20.179688 26.152344 20.605469 26.394531 21.050781 26.398438 C 21.53125 26.40625 22.007812 26.140625 22.382812 25.648438 C 22.746094 25.179688 23.40625 25.058594 23.921875 25.367188 L 26.664062 27.027344 C 27.480469 27.523438 27.96875 28.378906 27.96875 29.316406 L 27.96875 31.742188 C 27.953125 31.949219 27.796875 32.101562 27.59375 32.101562 Z M 15.011719 31.394531 L 27.238281 31.394531 L 27.238281 29.324219 C 27.238281 28.632812 26.878906 28 26.277344 27.632812 L 23.539062 25.976562 C 23.347656 25.855469 23.09375 25.902344 22.957031 26.082031 C 22.4375 26.753906 21.753906 27.121094 21.039062 27.109375 C 20.359375 27.097656 19.726562 26.75 19.273438 26.117188 C 19.128906 25.921875 18.875 25.867188 18.671875 25.988281 L 15.964844 27.628906 C 15.367188 27.992188 15.003906 28.625 15.003906 29.316406 L 15.003906 31.394531 Z M 15.011719 31.394531 " fill-opacity="1" fill-rule="nonzero"/></g><path fill="#000000" d="M 29.9375 23.414062 C 28.542969 23.414062 27.402344 22.078125 27.402344 20.441406 C 27.402344 18.808594 28.539062 17.472656 29.9375 17.472656 C 31.339844 17.472656 32.472656 18.808594 32.472656 20.441406 C 32.472656 22.078125 31.339844 23.414062 29.9375 23.414062 Z M 29.9375 18.183594 C 28.941406 18.183594 28.125 19.199219 28.125 20.441406 C 28.125 21.6875 28.933594 22.703125 29.9375 22.703125 C 30.941406 22.703125 31.753906 21.6875 31.753906 20.441406 C 31.753906 19.191406 30.941406 18.183594 29.9375 18.183594 Z M 29.9375 18.183594 " fill-opacity="1" fill-rule="nonzero"/><g clip-path="url(#7962bccdb6)"><path fill="#000000" d="M 36.144531 29.753906 L 27.59375 29.753906 C 27.394531 29.753906 27.234375 29.59375 27.234375 29.398438 C 27.234375 29.203125 27.394531 29.046875 27.59375 29.046875 L 35.785156 29.046875 L 35.785156 27.101562 C 35.785156 26.453125 35.449219 25.855469 34.882812 25.519531 L 32.289062 23.945312 C 32.113281 23.835938 31.886719 23.878906 31.757812 24.039062 C 31.261719 24.683594 30.609375 25.03125 29.925781 25.023438 C 29.277344 25.019531 28.675781 24.683594 28.238281 24.078125 C 28.109375 23.902344 27.875 23.855469 27.695312 23.960938 L 25.128906 25.515625 C 24.871094 25.667969 24.65625 25.886719 24.5 26.140625 C 24.398438 26.304688 24.175781 26.363281 24.007812 26.265625 C 23.839844 26.164062 23.777344 25.945312 23.878906 25.78125 C 24.097656 25.433594 24.398438 25.128906 24.753906 24.917969 L 27.316406 23.367188 C 27.816406 23.066406 28.476562 23.199219 28.828125 23.671875 C 29.125 24.085938 29.523438 24.316406 29.9375 24.320312 C 29.945312 24.320312 29.949219 24.320312 29.957031 24.320312 C 30.402344 24.320312 30.839844 24.074219 31.1875 23.621094 C 31.535156 23.164062 32.171875 23.046875 32.667969 23.347656 L 35.261719 24.917969 C 36.039062 25.390625 36.507812 26.207031 36.507812 27.101562 L 36.507812 29.398438 C 36.507812 29.59375 36.34375 29.753906 36.144531 29.753906 Z M 36.144531 29.753906 " fill-opacity="1" fill-rule="nonzero"/></g><path fill="#000000" d="M 12.164062 23.414062 C 10.769531 23.414062 9.625 22.078125 9.625 20.441406 C 9.625 18.808594 10.761719 17.472656 12.164062 17.472656 C 13.558594 17.472656 14.699219 18.808594 14.699219 20.441406 C 14.699219 22.078125 13.5625 23.414062 12.164062 23.414062 Z M 12.164062 18.183594 C 11.164062 18.183594 10.347656 19.199219 10.347656 20.441406 C 10.347656 21.6875 11.160156 22.703125 12.164062 22.703125 C 13.160156 22.703125 13.976562 21.6875 13.976562 20.441406 C 13.976562 19.191406 13.167969 18.183594 12.164062 18.183594 Z M 12.164062 18.183594 " fill-opacity="1" fill-rule="nonzero"/><g clip-path="url(#dcc5aca9df)"><path fill="#000000" d="M 14.652344 29.753906 L 6.097656 29.753906 C 5.902344 29.753906 5.738281 29.59375 5.738281 29.398438 L 5.738281 27.101562 C 5.738281 26.21875 6.214844 25.378906 6.984375 24.917969 L 9.546875 23.367188 C 10.046875 23.066406 10.707031 23.199219 11.058594 23.671875 C 11.359375 24.085938 11.753906 24.316406 12.167969 24.320312 C 12.175781 24.320312 12.179688 24.320312 12.1875 24.320312 C 12.632812 24.320312 13.070312 24.074219 13.417969 23.621094 C 13.765625 23.164062 14.402344 23.046875 14.898438 23.347656 L 17.492188 24.917969 C 17.847656 25.128906 18.148438 25.433594 18.363281 25.78125 C 18.464844 25.945312 18.414062 26.164062 18.238281 26.265625 C 18.0625 26.363281 17.847656 26.3125 17.746094 26.140625 C 17.589844 25.886719 17.371094 25.667969 17.113281 25.515625 L 14.511719 23.945312 C 14.339844 23.835938 14.109375 23.878906 13.984375 24.039062 C 13.484375 24.683594 12.835938 25.03125 12.152344 25.023438 C 11.5 25.019531 10.902344 24.683594 10.460938 24.078125 C 10.335938 23.902344 10.101562 23.855469 9.921875 23.960938 L 7.359375 25.519531 C 6.808594 25.855469 6.460938 26.464844 6.460938 27.101562 L 6.460938 29.046875 L 14.652344 29.046875 C 14.847656 29.046875 15.011719 29.203125 15.011719 29.398438 C 15.011719 29.59375 14.847656 29.753906 14.652344 29.753906 Z M 14.652344 29.753906 " fill-opacity="1" fill-rule="nonzero"/></g><g clip-path="url(#7a102870d4)"><path fill="#000000" d="M 26.878906 15.996094 C 26.722656 15.996094 26.578125 15.898438 26.53125 15.738281 C 26.476562 15.550781 26.585938 15.355469 26.777344 15.300781 L 27.847656 15 C 28.226562 14.894531 28.484375 14.628906 28.484375 14.339844 L 28.484375 13.039062 C 28.484375 12.75 28.226562 12.484375 27.847656 12.378906 L 26.777344 12.078125 C 26.664062 12.046875 26.574219 11.960938 26.535156 11.851562 C 26.464844 11.640625 26.375 11.429688 26.273438 11.226562 C 26.21875 11.121094 26.222656 11.003906 26.285156 10.898438 L 26.824219 9.941406 C 27.019531 9.605469 27.003906 9.238281 26.796875 9.03125 L 25.859375 8.109375 C 25.648438 7.902344 25.273438 7.890625 24.933594 8.082031 L 23.957031 8.613281 C 23.855469 8.671875 23.730469 8.671875 23.621094 8.625 C 23.417969 8.523438 23.203125 8.433594 22.984375 8.363281 C 22.871094 8.328125 22.785156 8.242188 22.757812 8.128906 L 22.449219 7.078125 C 22.34375 6.707031 22.070312 6.453125 21.777344 6.453125 L 20.457031 6.453125 C 20.160156 6.453125 19.890625 6.707031 19.78125 7.078125 L 19.476562 8.128906 C 19.445312 8.242188 19.355469 8.328125 19.246094 8.363281 C 19.03125 8.433594 18.816406 8.523438 18.609375 8.625 C 18.503906 8.675781 18.382812 8.671875 18.273438 8.613281 L 17.300781 8.082031 C 16.957031 7.890625 16.585938 7.902344 16.375 8.109375 L 15.4375 9.03125 C 15.226562 9.238281 15.214844 9.605469 15.40625 9.941406 L 15.949219 10.898438 C 16.007812 10.996094 16.007812 11.121094 15.960938 11.226562 C 15.859375 11.429688 15.773438 11.640625 15.695312 11.851562 C 15.660156 11.964844 15.570312 12.046875 15.457031 12.078125 L 14.386719 12.378906 C 14.007812 12.484375 13.75 12.75 13.75 13.039062 L 13.75 14.339844 C 13.75 14.628906 14.007812 14.894531 14.386719 15 L 15.457031 15.300781 C 15.648438 15.355469 15.757812 15.550781 15.703125 15.738281 C 15.648438 15.925781 15.449219 16.03125 15.257812 15.980469 L 14.1875 15.679688 C 13.496094 15.484375 13.027344 14.945312 13.027344 14.332031 L 13.027344 13.035156 C 13.027344 12.421875 13.496094 11.882812 14.1875 11.6875 L 15.082031 11.441406 C 15.132812 11.316406 15.179688 11.199219 15.234375 11.078125 L 14.78125 10.28125 C 14.429688 9.664062 14.488281 8.960938 14.933594 8.523438 L 15.871094 7.601562 C 16.308594 7.171875 17.03125 7.113281 17.660156 7.457031 L 18.472656 7.898438 C 18.59375 7.84375 18.710938 7.792969 18.839844 7.75 L 19.089844 6.871094 C 19.289062 6.191406 19.835938 5.730469 20.460938 5.730469 L 21.785156 5.730469 C 22.402344 5.730469 22.957031 6.191406 23.152344 6.871094 L 23.40625 7.75 C 23.53125 7.796875 23.652344 7.84375 23.773438 7.898438 L 24.582031 7.457031 C 25.214844 7.105469 25.929688 7.164062 26.375 7.601562 L 27.3125 8.523438 C 27.75 8.953125 27.8125 9.664062 27.460938 10.28125 L 27.011719 11.078125 C 27.066406 11.199219 27.121094 11.316406 27.160156 11.441406 L 28.058594 11.6875 C 28.75 11.882812 29.21875 12.421875 29.21875 13.035156 L 29.21875 14.332031 C 29.21875 14.945312 28.75 15.484375 28.058594 15.679688 L 26.988281 15.980469 C 26.945312 15.992188 26.910156 15.996094 26.878906 15.996094 Z M 26.878906 15.996094 " fill-opacity="1" fill-rule="nonzero"/></g><path fill="#000000" d="M 21.121094 18.394531 C 18.476562 18.394531 16.320312 16.28125 16.320312 13.675781 C 16.320312 11.074219 18.472656 8.960938 21.121094 8.960938 C 23.773438 8.960938 25.925781 11.074219 25.925781 13.675781 C 25.925781 16.28125 23.765625 18.394531 21.121094 18.394531 Z M 21.121094 9.675781 C 18.875 9.675781 17.042969 11.46875 17.042969 13.683594 C 17.042969 15.898438 18.875 17.6875 21.121094 17.6875 C 23.371094 17.6875 25.203125 15.890625 25.203125 13.675781 C 25.203125 11.464844 23.371094 9.675781 21.121094 9.675781 Z M 21.121094 9.675781 " fill-opacity="1" fill-rule="nonzero"/><path fill="#000000" d="M 21.121094 14.378906 C 20.925781 14.378906 20.761719 14.222656 20.761719 14.027344 L 20.761719 10.800781 C 20.761719 10.609375 20.925781 10.449219 21.121094 10.449219 C 21.320312 10.449219 21.484375 10.609375 21.484375 10.800781 L 21.484375 14.027344 C 21.484375 14.222656 21.320312 14.378906 21.121094 14.378906 Z M 21.121094 14.378906 " fill-opacity="1" fill-rule="nonzero"/><path fill="#000000" d="M 21.121094 17.058594 C 20.484375 17.058594 19.96875 16.550781 19.96875 15.925781 C 19.96875 15.300781 20.484375 14.792969 21.121094 14.792969 C 21.757812 14.792969 22.277344 15.300781 22.277344 15.925781 C 22.277344 16.550781 21.757812 17.058594 21.121094 17.058594 Z M 21.121094 15.496094 C 20.882812 15.496094 20.691406 15.683594 20.691406 15.921875 C 20.691406 16.15625 20.882812 16.347656 21.121094 16.347656 C 21.363281 16.347656 21.554688 16.15625 21.554688 15.921875 C 21.554688 15.683594 21.363281 15.496094 21.121094 15.496094 Z M 21.121094 15.496094 " fill-opacity="1" fill-rule="nonzero"/></svg>