<svg xmlns="http://www.w3.org/2000/svg" xmlns:xlink="http://www.w3.org/1999/xlink" width="80" zoomAndPan="magnify" viewBox="0 0 60 38.999999" height="52" preserveAspectRatio="xMidYMid meet" version="1.0"><defs><clipPath id="3e6528a6f6"><path d="M 15 0 L 45 0 C 48.976562 0 52.792969 1.582031 55.605469 4.394531 C 58.417969 7.207031 60 11.023438 60 15 L 60 24 C 60 27.976562 58.417969 31.792969 55.605469 34.605469 C 52.792969 37.417969 48.976562 39 45 39 L 15 39 C 11.023438 39 7.207031 37.417969 4.394531 34.605469 C 1.582031 31.792969 0 27.976562 0 24 L 0 15 C 0 11.023438 1.582031 7.207031 4.394531 4.394531 C 7.207031 1.582031 11.023438 0 15 0 Z M 15 0 " clip-rule="nonzero"/></clipPath><clipPath id="8d209d694c"><path d="M 0 0 L 60 0 L 60 39 L 0 39 Z M 0 0 " clip-rule="nonzero"/></clipPath><clipPath id="b69038cf10"><path d="M 15 0 L 45 0 C 48.976562 0 52.792969 1.582031 55.605469 4.394531 C 58.417969 7.207031 60 11.023438 60 15 L 60 24 C 60 27.976562 58.417969 31.792969 55.605469 34.605469 C 52.792969 37.417969 48.976562 39 45 39 L 15 39 C 11.023438 39 7.207031 37.417969 4.394531 34.605469 C 1.582031 31.792969 0 27.976562 0 24 L 0 15 C 0 11.023438 1.582031 7.207031 4.394531 4.394531 C 7.207031 1.582031 11.023438 0 15 0 Z M 15 0 " clip-rule="nonzero"/></clipPath><clipPath id="54b414f801"><rect x="0" width="60" y="0" height="39"/></clipPath><clipPath id="8fa6bb7c85"><path d="M 19.296875 6.507812 L 41.046875 6.507812 L 41.046875 32.757812 L 19.296875 32.757812 Z M 19.296875 6.507812 " clip-rule="nonzero"/></clipPath></defs><g clip-path="url(#3e6528a6f6)"><g transform="matrix(1, 0, 0, 1, 0, 0)"><g clip-path="url(#54b414f801)"><g clip-path="url(#8d209d694c)"><g clip-path="url(#b69038cf10)"><rect x="-13.2" width="86.4" fill="#82e5ec" height="56.159999" y="-8.58" fill-opacity="1"/></g></g></g></g></g><g clip-path="url(#8fa6bb7c85)"><path fill="#000000" d="M 29.90625 20.730469 C 25.566406 18.175781 23.554688 14.375 23.871094 9.328125 C 23.886719 9.121094 24.011719 8.949219 24.207031 8.871094 L 29.980469 6.566406 C 30.113281 6.511719 30.246094 6.511719 30.378906 6.566406 L 36.152344 8.871094 C 36.347656 8.949219 36.472656 9.121094 36.484375 9.328125 C 36.804688 14.375 34.792969 18.175781 30.449219 20.730469 C 30.277344 20.832031 30.078125 20.832031 29.90625 20.730469 Z M 31.757812 31.496094 L 31.757812 31.5 L 31.753906 31.511719 L 31.753906 31.515625 L 31.75 31.53125 L 31.746094 31.53125 L 31.738281 31.558594 L 31.738281 31.566406 L 31.734375 31.570312 L 31.730469 31.578125 L 31.730469 31.585938 L 31.726562 31.597656 L 31.726562 31.601562 L 31.722656 31.609375 L 31.71875 31.613281 L 31.71875 31.621094 L 31.714844 31.625 L 31.714844 31.628906 L 31.710938 31.632812 L 31.710938 31.640625 L 31.707031 31.644531 L 31.707031 31.648438 L 31.703125 31.65625 L 31.703125 31.660156 L 31.699219 31.664062 L 31.699219 31.667969 L 31.695312 31.675781 L 31.691406 31.679688 L 31.691406 31.683594 L 31.6875 31.6875 L 31.6875 31.695312 L 31.683594 31.695312 L 31.683594 31.703125 L 31.679688 31.707031 L 31.679688 31.710938 L 31.675781 31.714844 L 31.675781 31.71875 L 31.671875 31.722656 L 31.671875 31.730469 L 31.664062 31.738281 L 31.664062 31.742188 L 31.660156 31.746094 L 31.660156 31.753906 L 31.652344 31.761719 L 31.652344 31.765625 L 31.648438 31.769531 L 31.644531 31.777344 L 31.644531 31.78125 L 31.636719 31.789062 L 31.636719 31.796875 L 31.628906 31.804688 L 31.628906 31.808594 L 31.421875 32.175781 L 31.746094 32.382812 C 31.832031 32.4375 31.933594 32.453125 32.03125 32.429688 C 32.125 32.410156 32.214844 32.355469 32.269531 32.269531 L 32.269531 32.265625 C 32.324219 32.179688 32.339844 32.078125 32.320312 31.984375 C 32.304688 31.914062 32.269531 31.851562 32.21875 31.800781 C 32.195312 31.785156 32.171875 31.765625 32.152344 31.746094 C 32.144531 31.742188 32.136719 31.738281 32.132812 31.730469 Z M 40.007812 26.316406 L 40.0625 26.371094 L 41.039062 25.859375 C 40.921875 24.757812 40.648438 23.734375 40.21875 22.800781 C 39.796875 21.878906 39.21875 21.035156 38.492188 20.265625 L 37.402344 20.890625 C 38.191406 21.523438 38.800781 22.285156 39.238281 23.179688 C 39.679688 24.09375 39.9375 25.140625 40.007812 26.316406 Z M 33.0625 24.839844 C 33.039062 24.820312 33.015625 24.808594 32.988281 24.792969 C 32.375 24.488281 31.726562 24.367188 31.046875 24.429688 C 30.390625 24.488281 29.710938 24.71875 29.011719 25.121094 L 28.996094 25.128906 C 28.769531 25.261719 28.542969 25.34375 28.308594 25.378906 C 28.089844 25.410156 27.859375 25.398438 27.625 25.347656 C 27.535156 25.296875 27.460938 25.246094 27.394531 25.195312 C 27.390625 25.1875 27.382812 25.179688 27.375 25.175781 C 27.265625 25.082031 27.195312 24.988281 27.171875 24.890625 C 27.167969 24.878906 27.164062 24.863281 27.164062 24.847656 L 27.160156 24.84375 L 27.160156 24.835938 C 27.15625 24.796875 27.160156 24.753906 27.164062 24.707031 L 29.28125 23.4375 L 30.417969 22.757812 L 30.421875 22.753906 L 31.039062 22.386719 C 31.429688 22.179688 31.828125 22.070312 32.234375 22.054688 C 32.648438 22.042969 33.078125 22.121094 33.527344 22.296875 C 33.558594 22.3125 33.597656 22.324219 33.636719 22.328125 C 34.347656 22.4375 35.003906 22.421875 35.597656 22.277344 C 36.085938 22.15625 36.53125 21.957031 36.933594 21.671875 C 37.566406 22.203125 38.0625 22.835938 38.417969 23.570312 C 38.792969 24.339844 39.015625 25.226562 39.09375 26.226562 L 36.742188 27.21875 L 35.757812 26.582031 Z M 33.714844 26.335938 L 32.570312 25.597656 C 32.109375 25.371094 31.628906 25.28125 31.125 25.324219 C 30.605469 25.371094 30.050781 25.5625 29.464844 25.902344 L 29.457031 25.90625 C 29.132812 26.097656 28.789062 26.222656 28.4375 26.273438 C 28.082031 26.324219 27.722656 26.300781 27.355469 26.210938 C 27.320312 26.199219 27.285156 26.1875 27.25 26.167969 C 27.082031 26.078125 26.933594 25.980469 26.808594 25.878906 C 26.800781 25.871094 26.792969 25.867188 26.785156 25.859375 C 26.53125 25.644531 26.367188 25.398438 26.292969 25.125 C 26.289062 25.105469 26.28125 25.082031 26.277344 25.0625 L 26.277344 25.050781 L 26.273438 25.042969 L 26.273438 25.035156 L 26.269531 25.023438 L 26.269531 25.011719 C 26.234375 24.808594 26.246094 24.601562 26.308594 24.386719 L 26.3125 24.386719 L 26.3125 24.375 L 26.320312 24.359375 L 26.320312 24.347656 L 26.324219 24.347656 L 26.328125 24.332031 L 26.332031 24.320312 L 26.332031 24.3125 L 26.335938 24.304688 L 26.339844 24.292969 L 26.339844 24.289062 L 26.347656 24.277344 L 26.351562 24.265625 L 26.351562 24.261719 L 26.355469 24.25 L 26.359375 24.242188 L 26.359375 24.238281 L 26.363281 24.234375 L 26.363281 24.230469 L 26.367188 24.226562 L 26.375 24.207031 L 26.378906 24.203125 L 26.378906 24.199219 L 26.382812 24.195312 L 26.386719 24.1875 L 26.386719 24.183594 L 26.390625 24.179688 L 26.390625 24.175781 L 26.398438 24.167969 L 26.398438 24.164062 L 26.410156 24.152344 L 26.410156 24.148438 L 26.425781 24.132812 L 26.425781 24.128906 L 26.449219 24.105469 L 26.449219 24.101562 L 26.472656 24.078125 L 26.480469 24.074219 L 26.480469 24.070312 L 26.484375 24.070312 L 26.503906 24.050781 L 26.507812 24.050781 L 26.519531 24.042969 L 26.523438 24.039062 L 26.527344 24.039062 L 26.527344 24.035156 L 26.535156 24.03125 L 26.546875 24.027344 L 29.296875 22.375 C 28.914062 22.175781 28.523438 22.070312 28.125 22.054688 C 27.710938 22.042969 27.277344 22.121094 26.832031 22.296875 C 26.796875 22.3125 26.757812 22.324219 26.71875 22.328125 C 26.007812 22.4375 25.355469 22.421875 24.757812 22.277344 C 24.273438 22.15625 23.828125 21.957031 23.425781 21.671875 C 22.789062 22.203125 22.296875 22.835938 21.9375 23.570312 C 21.5625 24.347656 21.335938 25.238281 21.261719 26.246094 L 22.386719 26.800781 L 23.296875 27.25 C 23.335938 27.269531 23.375 27.296875 23.40625 27.328125 L 24.058594 27.949219 L 24.230469 27.648438 L 24.234375 27.636719 L 24.242188 27.628906 L 24.246094 27.617188 L 24.253906 27.609375 L 24.257812 27.601562 L 24.261719 27.589844 L 24.269531 27.585938 L 24.269531 27.582031 L 24.273438 27.574219 L 24.277344 27.570312 L 24.285156 27.554688 L 24.289062 27.554688 L 24.296875 27.539062 L 24.304688 27.527344 L 24.3125 27.519531 L 24.316406 27.511719 L 24.324219 27.503906 L 24.328125 27.492188 L 24.34375 27.476562 C 24.351562 27.464844 24.359375 27.453125 24.371094 27.445312 L 24.371094 27.441406 L 24.375 27.4375 C 24.558594 27.21875 24.796875 27.066406 25.058594 26.984375 L 25.070312 26.984375 L 25.085938 26.976562 C 25.105469 26.972656 25.121094 26.96875 25.140625 26.964844 L 25.152344 26.960938 L 25.160156 26.957031 L 25.171875 26.957031 L 25.179688 26.953125 L 25.191406 26.953125 L 25.210938 26.949219 L 25.21875 26.945312 L 25.238281 26.945312 L 25.242188 26.941406 L 25.265625 26.941406 L 25.269531 26.9375 L 25.289062 26.9375 L 25.296875 26.933594 L 25.320312 26.933594 C 25.605469 26.902344 25.898438 26.953125 26.164062 27.101562 L 26.167969 27.105469 C 26.496094 27.285156 26.722656 27.578125 26.828125 27.910156 C 27.164062 27.828125 27.535156 27.867188 27.859375 28.046875 L 27.863281 28.046875 C 28.183594 28.226562 28.410156 28.515625 28.519531 28.839844 C 28.820312 28.769531 29.148438 28.804688 29.441406 28.960938 C 29.460938 28.96875 29.480469 28.980469 29.496094 28.988281 C 29.789062 29.164062 29.992188 29.429688 30.089844 29.734375 C 30.414062 29.664062 30.769531 29.707031 31.082031 29.882812 C 31.265625 29.984375 31.421875 30.125 31.539062 30.285156 L 32.621094 30.972656 C 32.628906 30.980469 32.636719 30.984375 32.644531 30.988281 L 32.648438 30.992188 C 32.691406 31.019531 32.734375 31.046875 32.773438 31.082031 L 33.082031 31.28125 C 33.09375 31.285156 33.101562 31.292969 33.113281 31.296875 L 33.113281 31.300781 C 33.199219 31.351562 33.300781 31.363281 33.390625 31.34375 C 33.480469 31.324219 33.5625 31.273438 33.621094 31.199219 C 33.625 31.191406 33.628906 31.183594 33.632812 31.175781 C 33.6875 31.089844 33.699219 30.992188 33.679688 30.898438 C 33.660156 30.804688 33.605469 30.71875 33.515625 30.660156 L 33.179688 30.445312 L 32.683594 30.128906 C 32.675781 30.125 32.667969 30.117188 32.65625 30.113281 C 32.453125 29.984375 32.222656 29.835938 31.996094 29.691406 C 31.945312 29.660156 32.054688 29.730469 31.40625 29.316406 C 31.195312 29.183594 31.132812 28.90625 31.265625 28.695312 C 31.402344 28.488281 31.679688 28.425781 31.890625 28.558594 C 32.148438 28.722656 32.039062 28.652344 32.480469 28.929688 C 32.792969 29.128906 33.105469 29.324219 33.554688 29.613281 L 33.601562 29.644531 L 33.667969 29.6875 L 34.132812 29.980469 L 34.148438 29.992188 C 34.265625 30.058594 34.398438 30.074219 34.523438 30.046875 C 34.652344 30.019531 34.773438 29.945312 34.847656 29.828125 L 34.847656 29.824219 C 34.921875 29.707031 34.945312 29.566406 34.914062 29.4375 C 34.886719 29.308594 34.808594 29.191406 34.691406 29.117188 L 34.6875 29.113281 L 34.054688 28.710938 C 34.046875 28.707031 34.039062 28.699219 34.03125 28.695312 L 33.84375 28.574219 C 33.820312 28.5625 33.800781 28.546875 33.78125 28.535156 L 33.746094 28.507812 L 33.121094 28.113281 C 32.914062 27.976562 32.851562 27.699219 32.984375 27.488281 C 33.121094 27.28125 33.402344 27.21875 33.613281 27.351562 L 34.25 27.757812 C 34.257812 27.765625 34.265625 27.769531 34.273438 27.773438 L 34.460938 27.894531 C 34.5 27.917969 34.519531 27.933594 34.523438 27.933594 C 34.539062 27.945312 34.550781 27.953125 34.5625 27.960938 L 35.152344 28.339844 C 35.171875 28.351562 35.191406 28.363281 35.210938 28.375 L 35.222656 28.382812 L 35.421875 28.511719 C 35.539062 28.585938 35.679688 28.605469 35.8125 28.578125 C 35.941406 28.550781 36.058594 28.472656 36.136719 28.355469 L 36.148438 28.335938 C 36.191406 28.265625 36.210938 28.183594 36.214844 28.105469 C 36.21875 28.050781 36.210938 27.996094 36.199219 27.941406 L 33.71875 26.339844 Z M 24.5625 28.902344 L 25.023438 28.089844 L 25.023438 28.085938 L 25.027344 28.082031 L 25.027344 28.078125 L 25.03125 28.074219 L 25.03125 28.070312 L 25.039062 28.0625 L 25.039062 28.058594 L 25.046875 28.050781 L 25.046875 28.046875 L 25.050781 28.046875 L 25.050781 28.042969 L 25.058594 28.035156 L 25.058594 28.03125 L 25.070312 28.019531 L 25.070312 28.015625 L 25.078125 28.007812 C 25.128906 27.945312 25.195312 27.898438 25.269531 27.867188 L 25.28125 27.863281 L 25.285156 27.863281 L 25.296875 27.859375 L 25.296875 27.855469 L 25.308594 27.855469 L 25.308594 27.851562 L 25.320312 27.851562 L 25.320312 27.847656 L 25.332031 27.847656 L 25.335938 27.84375 L 25.347656 27.84375 L 25.351562 27.839844 L 25.363281 27.839844 L 25.367188 27.835938 L 25.386719 27.835938 L 25.386719 27.832031 L 25.414062 27.832031 L 25.414062 27.828125 L 25.421875 27.828125 C 25.519531 27.820312 25.617188 27.835938 25.710938 27.882812 C 25.71875 27.890625 25.730469 27.894531 25.742188 27.902344 C 25.855469 27.96875 25.933594 28.078125 25.96875 28.199219 C 26.003906 28.320312 25.992188 28.457031 25.933594 28.574219 C 25.925781 28.585938 25.917969 28.601562 25.910156 28.613281 L 25.5625 29.226562 C 25.554688 29.242188 25.546875 29.253906 25.539062 29.265625 C 25.535156 29.273438 25.53125 29.277344 25.527344 29.285156 C 25.515625 29.300781 25.507812 29.316406 25.5 29.328125 L 25.25 29.773438 C 25.183594 29.863281 25.085938 29.925781 24.980469 29.953125 C 24.859375 29.988281 24.722656 29.980469 24.601562 29.917969 C 24.59375 29.910156 24.582031 29.90625 24.570312 29.898438 C 24.457031 29.828125 24.378906 29.722656 24.34375 29.601562 C 24.308594 29.480469 24.320312 29.34375 24.382812 29.226562 C 24.390625 29.214844 24.394531 29.199219 24.402344 29.1875 Z M 26.34375 29.695312 L 26.34375 29.6875 L 26.347656 29.6875 L 26.714844 29.03125 C 26.785156 28.910156 26.898438 28.824219 27.027344 28.789062 C 27.148438 28.753906 27.285156 28.765625 27.402344 28.828125 C 27.414062 28.832031 27.425781 28.839844 27.433594 28.84375 C 27.550781 28.914062 27.628906 29.023438 27.664062 29.144531 C 27.695312 29.265625 27.6875 29.398438 27.625 29.519531 C 27.617188 29.53125 27.609375 29.542969 27.605469 29.554688 L 27.269531 30.152344 L 27.265625 30.152344 L 27.265625 30.15625 L 26.984375 30.65625 L 26.972656 30.679688 L 26.960938 30.691406 C 26.949219 30.707031 26.941406 30.722656 26.929688 30.742188 L 26.5625 31.394531 C 26.492188 31.515625 26.378906 31.601562 26.25 31.636719 C 26.128906 31.671875 25.996094 31.660156 25.875 31.597656 C 25.863281 31.59375 25.851562 31.585938 25.84375 31.582031 C 25.726562 31.511719 25.648438 31.402344 25.613281 31.28125 C 25.578125 31.15625 25.589844 31.015625 25.660156 30.890625 L 26.019531 30.253906 C 26.042969 30.222656 26.0625 30.1875 26.082031 30.152344 Z M 20.351562 26.316406 L 20.296875 26.371094 L 19.316406 25.859375 C 19.433594 24.757812 19.707031 23.734375 20.136719 22.800781 C 20.5625 21.878906 21.136719 21.035156 21.867188 20.265625 L 22.953125 20.890625 C 22.164062 21.523438 21.554688 22.285156 21.121094 23.179688 C 20.679688 24.09375 20.421875 25.140625 20.351562 26.316406 Z M 28.058594 30.597656 L 28.0625 30.589844 L 28.078125 30.566406 C 28.089844 30.550781 28.097656 30.535156 28.109375 30.519531 L 28.441406 29.925781 C 28.5 29.824219 28.59375 29.753906 28.699219 29.722656 C 28.800781 29.695312 28.910156 29.703125 29.011719 29.753906 C 29.019531 29.761719 29.03125 29.765625 29.039062 29.769531 C 29.136719 29.828125 29.199219 29.917969 29.226562 30.015625 C 29.257812 30.121094 29.246094 30.238281 29.191406 30.339844 L 29.144531 30.421875 L 29.140625 30.425781 L 28.613281 31.359375 L 28.609375 31.367188 L 28.605469 31.378906 L 28.59375 31.394531 C 28.582031 31.410156 28.574219 31.421875 28.566406 31.4375 L 28.242188 32.011719 C 28.234375 32.023438 28.226562 32.035156 28.222656 32.046875 C 28.164062 32.140625 28.074219 32.203125 27.972656 32.230469 C 27.871094 32.261719 27.761719 32.253906 27.664062 32.203125 C 27.652344 32.195312 27.644531 32.191406 27.632812 32.183594 C 27.539062 32.128906 27.476562 32.039062 27.445312 31.9375 C 27.417969 31.832031 27.425781 31.71875 27.484375 31.617188 L 27.777344 31.097656 Z M 29.933594 30.867188 L 29.9375 30.859375 C 30.007812 30.742188 30.121094 30.660156 30.246094 30.625 C 30.371094 30.589844 30.515625 30.601562 30.636719 30.667969 C 30.761719 30.738281 30.847656 30.851562 30.882812 30.976562 C 30.886719 30.996094 30.890625 31.015625 30.894531 31.039062 L 30.898438 31.054688 C 30.902344 31.109375 30.902344 31.164062 30.890625 31.21875 L 30.886719 31.242188 L 30.886719 31.246094 L 30.882812 31.246094 L 30.878906 31.261719 L 30.878906 31.265625 L 30.875 31.277344 L 30.875 31.285156 L 30.871094 31.289062 L 30.871094 31.292969 L 30.867188 31.296875 L 30.867188 31.304688 L 30.863281 31.308594 L 30.863281 31.316406 L 30.859375 31.316406 L 30.859375 31.324219 L 30.855469 31.328125 L 30.855469 31.332031 L 30.851562 31.335938 L 30.851562 31.339844 L 30.847656 31.34375 L 30.847656 31.347656 L 30.84375 31.351562 L 30.84375 31.355469 L 30.839844 31.359375 L 30.839844 31.363281 L 30.835938 31.367188 L 30.457031 32.042969 L 30.449219 32.050781 L 30.203125 32.488281 C 30.132812 32.613281 30.019531 32.695312 29.894531 32.730469 C 29.765625 32.769531 29.625 32.753906 29.5 32.6875 C 29.375 32.617188 29.292969 32.503906 29.257812 32.378906 C 29.21875 32.25 29.234375 32.113281 29.300781 31.988281 L 29.402344 31.808594 L 29.402344 31.804688 L 29.40625 31.804688 L 29.40625 31.800781 Z M 29.542969 14.015625 L 28.609375 12.878906 C 28.3125 12.511719 27.765625 12.457031 27.398438 12.753906 C 27.03125 13.046875 26.976562 13.59375 27.273438 13.957031 L 28.898438 15.945312 C 29.191406 16.304688 29.738281 16.363281 30.105469 16.074219 L 30.109375 16.070312 C 30.164062 16.027344 30.214844 15.980469 30.257812 15.925781 L 33.085938 12.46875 C 33.382812 12.105469 33.324219 11.558594 32.957031 11.261719 C 32.59375 10.96875 32.042969 11.023438 31.746094 11.386719 L 29.597656 14.015625 C 29.589844 14.027344 29.582031 14.03125 29.570312 14.03125 C 29.558594 14.03125 29.550781 14.027344 29.542969 14.015625 Z M 29.542969 14.015625 " fill-opacity="1" fill-rule="evenodd"/></g></svg>