<svg xmlns="http://www.w3.org/2000/svg" xmlns:xlink="http://www.w3.org/1999/xlink" width="80" zoomAndPan="magnify" viewBox="0 0 60 38.999999" height="52" preserveAspectRatio="xMidYMid meet" version="1.0"><defs><clipPath id="20834e9b45"><path d="M 15 0 L 45 0 C 48.976562 0 52.792969 1.582031 55.605469 4.394531 C 58.417969 7.207031 60 11.023438 60 15 L 60 24 C 60 27.976562 58.417969 31.792969 55.605469 34.605469 C 52.792969 37.417969 48.976562 39 45 39 L 15 39 C 11.023438 39 7.207031 37.417969 4.394531 34.605469 C 1.582031 31.792969 0 27.976562 0 24 L 0 15 C 0 11.023438 1.582031 7.207031 4.394531 4.394531 C 7.207031 1.582031 11.023438 0 15 0 Z M 15 0 " clip-rule="nonzero"/></clipPath><clipPath id="5c5b24a739"><path d="M 0 0 L 60 0 L 60 39 L 0 39 Z M 0 0 " clip-rule="nonzero"/></clipPath><clipPath id="351fb9349c"><path d="M 15 0 L 45 0 C 48.976562 0 52.792969 1.582031 55.605469 4.394531 C 58.417969 7.207031 60 11.023438 60 15 L 60 24 C 60 27.976562 58.417969 31.792969 55.605469 34.605469 C 52.792969 37.417969 48.976562 39 45 39 L 15 39 C 11.023438 39 7.207031 37.417969 4.394531 34.605469 C 1.582031 31.792969 0 27.976562 0 24 L 0 15 C 0 11.023438 1.582031 7.207031 4.394531 4.394531 C 7.207031 1.582031 11.023438 0 15 0 Z M 15 0 " clip-rule="nonzero"/></clipPath><clipPath id="f9f28556fb"><rect x="0" width="60" y="0" height="39"/></clipPath><clipPath id="01f150a2ec"><path d="M 16.652344 24 L 22 24 L 22 30 L 16.652344 30 Z M 16.652344 24 " clip-rule="nonzero"/></clipPath><clipPath id="f830d14a59"><path d="M 31 29 L 35 29 L 35 31.636719 L 31 31.636719 Z M 31 29 " clip-rule="nonzero"/></clipPath><clipPath id="cbd57aa59a"><path d="M 37 21 L 42 21 L 42 31.636719 L 37 31.636719 Z M 37 21 " clip-rule="nonzero"/></clipPath><clipPath id="6b810df1b8"><path d="M 16.652344 7.636719 L 43.652344 7.636719 L 43.652344 31.636719 L 16.652344 31.636719 Z M 16.652344 7.636719 " clip-rule="nonzero"/></clipPath><clipPath id="d5bb9c3e4b"><path d="M 16.652344 7.636719 L 28 7.636719 L 28 18 L 16.652344 18 Z M 16.652344 7.636719 " clip-rule="nonzero"/></clipPath></defs><g clip-path="url(#20834e9b45)"><g transform="matrix(1, 0, 0, 1, 0, 0)"><g clip-path="url(#f9f28556fb)"><g clip-path="url(#5c5b24a739)"><g clip-path="url(#351fb9349c)"><rect x="-13.2" width="86.4" fill="#fdb8a2" height="56.159999" y="-8.58" fill-opacity="1"/></g></g></g></g></g><g clip-path="url(#01f150a2ec)"><path fill="#000000" d="M 17.199219 29.652344 C 17.476562 29.652344 17.699219 29.429688 17.699219 29.152344 L 17.699219 25.007812 L 20.414062 25.007812 L 20.414062 29.136719 C 20.414062 29.414062 20.640625 29.636719 20.914062 29.636719 C 21.1875 29.636719 21.414062 29.414062 21.414062 29.136719 L 21.414062 24.511719 C 21.414062 24.234375 21.1875 24.011719 20.914062 24.011719 L 17.199219 24.011719 C 16.925781 24.011719 16.703125 24.234375 16.703125 24.511719 L 16.703125 29.152344 C 16.703125 29.429688 16.925781 29.652344 17.199219 29.652344 Z M 17.199219 29.652344 " fill-opacity="1" fill-rule="nonzero"/></g><path fill="#000000" d="M 23.664062 20.796875 L 23.664062 28.652344 C 23.664062 28.929688 23.886719 29.152344 24.164062 29.152344 C 24.4375 29.152344 24.660156 28.929688 24.660156 28.652344 L 24.660156 21.292969 L 27.378906 21.292969 L 27.378906 27.144531 C 27.378906 27.421875 27.601562 27.644531 27.875 27.644531 C 28.152344 27.644531 28.375 27.421875 28.375 27.144531 L 28.375 20.796875 C 28.375 20.519531 28.152344 20.296875 27.875 20.296875 L 24.164062 20.296875 C 23.886719 20.296875 23.664062 20.519531 23.664062 20.796875 Z M 23.664062 20.796875 " fill-opacity="1" fill-rule="nonzero"/><path fill="#000000" d="M 30.65625 25.632812 C 30.929688 25.632812 31.15625 25.410156 31.15625 25.132812 L 31.15625 17.585938 L 33.871094 17.585938 L 33.871094 20.066406 C 33.871094 20.339844 34.09375 20.566406 34.367188 20.566406 C 34.644531 20.566406 34.867188 20.339844 34.867188 20.066406 L 34.867188 17.085938 C 34.867188 16.8125 34.644531 16.585938 34.367188 16.585938 L 30.65625 16.585938 C 30.382812 16.585938 30.15625 16.8125 30.15625 17.085938 L 30.15625 25.132812 C 30.15625 25.410156 30.382812 25.632812 30.65625 25.632812 Z M 30.65625 25.632812 " fill-opacity="1" fill-rule="nonzero"/><g clip-path="url(#f830d14a59)"><path fill="#000000" d="M 34.367188 29.171875 C 34.09375 29.171875 33.871094 29.398438 33.871094 29.671875 L 33.871094 30.511719 L 31.988281 30.511719 C 31.714844 30.511719 31.488281 30.734375 31.488281 31.011719 C 31.488281 31.285156 31.714844 31.511719 31.988281 31.511719 L 34.367188 31.511719 C 34.644531 31.511719 34.867188 31.285156 34.867188 31.011719 L 34.867188 29.671875 C 34.867188 29.398438 34.644531 29.171875 34.367188 29.171875 Z M 34.367188 29.171875 " fill-opacity="1" fill-rule="nonzero"/></g><g clip-path="url(#cbd57aa59a)"><path fill="#000000" d="M 41.332031 21.167969 C 41.058594 21.167969 40.832031 21.394531 40.832031 21.667969 L 40.832031 30.511719 L 38.117188 30.511719 L 38.117188 27 C 38.117188 26.726562 37.894531 26.503906 37.617188 26.503906 C 37.34375 26.503906 37.117188 26.726562 37.117188 27 L 37.117188 31.011719 C 37.117188 31.285156 37.34375 31.511719 37.617188 31.511719 L 41.332031 31.511719 C 41.605469 31.511719 41.832031 31.285156 41.832031 31.011719 L 41.832031 21.667969 C 41.832031 21.394531 41.605469 21.167969 41.332031 21.167969 Z M 41.332031 21.167969 " fill-opacity="1" fill-rule="nonzero"/></g><g clip-path="url(#6b810df1b8)"><path fill="#000000" d="M 43.558594 13.074219 L 39.878906 7.96875 C 39.878906 7.96875 39.839844 7.933594 39.820312 7.914062 C 39.800781 7.894531 39.789062 7.867188 39.765625 7.855469 C 39.757812 7.855469 39.753906 7.855469 39.746094 7.84375 C 39.714844 7.824219 39.683594 7.8125 39.648438 7.796875 C 39.621094 7.789062 39.59375 7.773438 39.566406 7.769531 C 39.535156 7.761719 39.503906 7.769531 39.476562 7.769531 C 39.441406 7.769531 39.410156 7.769531 39.375 7.769531 C 39.34375 7.773438 39.320312 7.789062 39.296875 7.796875 C 39.261719 7.8125 39.226562 7.824219 39.195312 7.84375 C 39.191406 7.84375 39.183594 7.84375 39.179688 7.855469 C 39.160156 7.867188 39.144531 7.894531 39.125 7.914062 C 39.105469 7.933594 39.082031 7.945312 39.066406 7.96875 L 35.386719 13.074219 C 35.277344 13.226562 35.261719 13.429688 35.347656 13.59375 C 35.433594 13.761719 35.601562 13.863281 35.792969 13.863281 L 37.113281 13.863281 C 37.054688 18.238281 35.335938 22.34375 32.253906 25.472656 C 29.054688 28.71875 24.78125 30.507812 20.226562 30.507812 L 17.195312 30.507812 C 16.921875 30.507812 16.695312 30.730469 16.695312 31.003906 C 16.695312 31.28125 16.921875 31.503906 17.195312 31.503906 L 23.695312 31.503906 C 33.527344 31.503906 41.554688 23.636719 41.820312 13.863281 L 43.148438 13.863281 C 43.335938 13.863281 43.507812 13.761719 43.59375 13.59375 C 43.675781 13.429688 43.660156 13.226562 43.550781 13.074219 Z M 43.558594 13.074219 " fill-opacity="1" fill-rule="nonzero"/></g><g clip-path="url(#d5bb9c3e4b)"><path fill="#000000" d="M 18.632812 14.304688 L 18.367188 16.835938 C 18.332031 17.15625 18.472656 17.460938 18.734375 17.648438 C 18.886719 17.765625 19.074219 17.820312 19.253906 17.820312 C 19.375 17.820312 19.496094 17.792969 19.617188 17.738281 L 21.941406 16.707031 L 24.269531 17.738281 C 24.5625 17.871094 24.890625 17.835938 25.152344 17.644531 C 25.410156 17.453125 25.546875 17.152344 25.515625 16.832031 L 25.25 14.300781 L 26.953125 12.40625 C 27.167969 12.167969 27.238281 11.84375 27.136719 11.539062 C 27.039062 11.234375 26.792969 11.007812 26.480469 10.945312 L 23.988281 10.410156 L 22.714844 8.207031 C 22.554688 7.929688 22.265625 7.761719 21.945312 7.761719 C 21.628906 7.761719 21.339844 7.929688 21.179688 8.207031 L 19.90625 10.410156 L 17.414062 10.945312 C 17.101562 11.007812 16.855469 11.234375 16.757812 11.539062 C 16.65625 11.84375 16.726562 12.167969 16.941406 12.410156 L 18.644531 14.304688 Z M 18.632812 14.304688 " fill-opacity="1" fill-rule="nonzero"/></g></svg>