<svg xmlns="http://www.w3.org/2000/svg" xmlns:xlink="http://www.w3.org/1999/xlink" width="56" zoomAndPan="magnify" viewBox="0 0 42 42" height="56" preserveAspectRatio="xMidYMid meet" version="1.0"><defs><clipPath id="28914f9cf8"><path d="M 0.488281 0 L 41.511719 0 L 41.511719 41.023438 L 0.488281 41.023438 Z M 0.488281 0 " clip-rule="nonzero"/></clipPath><clipPath id="7f41267b42"><path d="M 21 0 C 9.671875 0 0.488281 9.183594 0.488281 20.511719 C 0.488281 31.839844 9.671875 41.023438 21 41.023438 C 32.328125 41.023438 41.511719 31.839844 41.511719 20.511719 C 41.511719 9.183594 32.328125 0 21 0 Z M 21 0 " clip-rule="nonzero"/></clipPath><clipPath id="ac6589eb47"><path d="M 0.488281 0 L 41.511719 0 L 41.511719 41.023438 L 0.488281 41.023438 Z M 0.488281 0 " clip-rule="nonzero"/></clipPath><clipPath id="bb3d32bf2d"><path d="M 21 0 C 9.671875 0 0.488281 9.183594 0.488281 20.511719 C 0.488281 31.839844 9.671875 41.023438 21 41.023438 C 32.328125 41.023438 41.511719 31.839844 41.511719 20.511719 C 41.511719 9.183594 32.328125 0 21 0 Z M 21 0 " clip-rule="nonzero"/></clipPath><clipPath id="6b5a44eece"><rect x="0" width="42" y="0" height="42"/></clipPath><clipPath id="b2a8d6ddc9"><path d="M 19 17 L 34.234375 17 L 34.234375 35.296875 L 19 35.296875 Z M 19 17 " clip-rule="nonzero"/></clipPath><clipPath id="5ae9a7e0c3"><path d="M 7.859375 6 L 30 6 L 30 35 L 7.859375 35 Z M 7.859375 6 " clip-rule="nonzero"/></clipPath></defs><g clip-path="url(#28914f9cf8)"><g clip-path="url(#7f41267b42)"><g transform="matrix(1, 0, 0, 1, 0.000000000000000111, 0.000000000000004377)"><g clip-path="url(#6b5a44eece)"><g clip-path="url(#ac6589eb47)"><g clip-path="url(#bb3d32bf2d)"><path fill="#bcbcbc" d="M 0.488281 0 L 41.511719 0 L 41.511719 41.023438 L 0.488281 41.023438 Z M 0.488281 0 " fill-opacity="1" fill-rule="nonzero"/></g></g></g></g></g></g><g clip-path="url(#b2a8d6ddc9)"><path fill="#000000" d="M 26.683594 35.273438 C 26.609375 35.273438 26.539062 35.257812 26.472656 35.226562 L 22.535156 33.320312 C 20.472656 32.324219 19.136719 30.070312 19.136719 27.582031 L 19.136719 18.289062 C 19.136719 18.203125 19.160156 18.121094 19.199219 18.046875 C 19.242188 17.972656 19.300781 17.910156 19.375 17.867188 C 19.449219 17.824219 19.527344 17.800781 19.613281 17.796875 C 19.699219 17.792969 19.78125 17.8125 19.855469 17.851562 C 21.152344 18.542969 23.0625 19.191406 24.808594 18.390625 C 25.402344 18.117188 26.03125 17.976562 26.6875 17.976562 C 27.34375 17.976562 27.96875 18.117188 28.566406 18.390625 C 30.308594 19.191406 32.222656 18.542969 33.519531 17.851562 C 33.59375 17.8125 33.675781 17.792969 33.761719 17.796875 C 33.847656 17.800781 33.925781 17.824219 34 17.867188 C 34.074219 17.910156 34.128906 17.972656 34.171875 18.046875 C 34.214844 18.121094 34.234375 18.203125 34.234375 18.289062 L 34.234375 27.582031 C 34.234375 30.070312 32.902344 32.324219 30.839844 33.320312 L 26.902344 35.226562 C 26.832031 35.257812 26.761719 35.273438 26.683594 35.273438 Z M 20.117188 19.070312 L 20.117188 27.582031 C 20.117188 29.695312 21.230469 31.601562 22.957031 32.433594 L 26.6875 34.234375 L 30.417969 32.433594 C 32.144531 31.601562 33.257812 29.695312 33.257812 27.582031 L 33.257812 19.070312 C 31.824219 19.699219 29.953125 20.109375 28.164062 19.285156 C 27.695312 19.070312 27.203125 18.960938 26.691406 18.960938 C 26.175781 18.960938 25.683594 19.070312 25.21875 19.285156 C 23.421875 20.109375 21.550781 19.699219 20.117188 19.070312 Z M 20.117188 19.070312 " fill-opacity="1" fill-rule="nonzero"/></g><path fill="#000000" d="M 30.070312 31.777344 L 23.296875 31.777344 C 23.140625 31.777344 22.988281 31.746094 22.839844 31.683594 C 22.691406 31.625 22.5625 31.535156 22.449219 31.421875 C 22.335938 31.308594 22.25 31.179688 22.191406 31.03125 C 22.128906 30.882812 22.097656 30.730469 22.097656 30.570312 L 22.097656 25.445312 C 22.097656 25.285156 22.128906 25.128906 22.191406 24.980469 C 22.25 24.835938 22.335938 24.703125 22.449219 24.589844 C 22.5625 24.476562 22.691406 24.390625 22.839844 24.328125 C 22.988281 24.269531 23.140625 24.238281 23.296875 24.238281 L 30.070312 24.238281 C 30.230469 24.238281 30.382812 24.269531 30.53125 24.328125 C 30.679688 24.390625 30.808594 24.476562 30.921875 24.589844 C 31.035156 24.703125 31.121094 24.835938 31.179688 24.980469 C 31.242188 25.128906 31.273438 25.285156 31.273438 25.445312 L 31.273438 30.570312 C 31.273438 30.730469 31.242188 30.882812 31.179688 31.03125 C 31.121094 31.179688 31.035156 31.308594 30.921875 31.421875 C 30.808594 31.535156 30.679688 31.625 30.53125 31.683594 C 30.382812 31.746094 30.230469 31.777344 30.070312 31.777344 Z M 23.296875 25.21875 C 23.148438 25.21875 23.074219 25.292969 23.074219 25.445312 L 23.074219 30.570312 C 23.074219 30.71875 23.148438 30.792969 23.296875 30.792969 L 30.070312 30.792969 C 30.21875 30.792969 30.292969 30.71875 30.296875 30.570312 L 30.296875 25.445312 C 30.292969 25.292969 30.21875 25.21875 30.070312 25.21875 Z M 23.296875 25.21875 " fill-opacity="1" fill-rule="nonzero"/><path fill="#000000" d="M 29.855469 25.21875 L 23.515625 25.21875 C 23.378906 25.21875 23.261719 25.171875 23.167969 25.078125 C 23.074219 24.980469 23.023438 24.863281 23.023438 24.730469 L 23.023438 23.75 C 23.019531 23.257812 23.105469 22.785156 23.289062 22.328125 C 23.472656 21.871094 23.734375 21.464844 24.078125 21.117188 C 24.425781 20.765625 24.820312 20.496094 25.273438 20.304688 C 25.726562 20.117188 26.195312 20.019531 26.6875 20.019531 C 27.175781 20.019531 27.644531 20.117188 28.097656 20.304688 C 28.550781 20.496094 28.945312 20.765625 29.292969 21.117188 C 29.636719 21.464844 29.898438 21.871094 30.082031 22.328125 C 30.265625 22.785156 30.351562 23.257812 30.347656 23.75 L 30.347656 24.730469 C 30.347656 24.863281 30.296875 24.980469 30.203125 25.078125 C 30.109375 25.171875 29.992188 25.21875 29.855469 25.21875 Z M 24.003906 24.238281 L 29.367188 24.238281 L 29.367188 23.75 C 29.375 23.390625 29.308594 23.039062 29.175781 22.707031 C 29.042969 22.371094 28.847656 22.074219 28.597656 21.816406 C 28.34375 21.558594 28.054688 21.359375 27.722656 21.21875 C 27.390625 21.082031 27.042969 21.011719 26.6875 21.011719 C 26.328125 21.011719 25.980469 21.082031 25.648438 21.21875 C 25.316406 21.359375 25.027344 21.558594 24.773438 21.816406 C 24.523438 22.074219 24.328125 22.371094 24.195312 22.707031 C 24.0625 23.039062 23.996094 23.390625 24.003906 23.75 Z M 24.003906 24.238281 " fill-opacity="1" fill-rule="nonzero"/><path fill="#000000" d="M 26.683594 29.105469 C 26.484375 29.105469 26.292969 29.066406 26.109375 28.992188 C 25.921875 28.914062 25.757812 28.804688 25.617188 28.660156 C 25.476562 28.519531 25.367188 28.355469 25.289062 28.167969 C 25.214844 27.984375 25.175781 27.789062 25.175781 27.589844 C 25.175781 27.386719 25.214844 27.195312 25.292969 27.007812 C 25.367188 26.820312 25.476562 26.65625 25.617188 26.515625 C 25.761719 26.371094 25.921875 26.261719 26.109375 26.1875 C 26.292969 26.109375 26.484375 26.070312 26.6875 26.070312 C 26.886719 26.070312 27.078125 26.109375 27.265625 26.1875 C 27.449219 26.265625 27.613281 26.375 27.753906 26.515625 C 27.894531 26.660156 28.003906 26.824219 28.082031 27.007812 C 28.15625 27.195312 28.195312 27.390625 28.195312 27.589844 C 28.195312 27.792969 28.15625 27.984375 28.078125 28.171875 C 28.003906 28.355469 27.894531 28.519531 27.75 28.660156 C 27.609375 28.804688 27.445312 28.914062 27.261719 28.992188 C 27.078125 29.066406 26.886719 29.105469 26.683594 29.105469 Z M 26.683594 27.054688 C 26.539062 27.054688 26.414062 27.105469 26.308594 27.210938 C 26.207031 27.316406 26.152344 27.441406 26.152344 27.589844 C 26.152344 27.734375 26.207031 27.863281 26.308594 27.964844 C 26.414062 28.070312 26.539062 28.121094 26.683594 28.121094 C 26.832031 28.121094 26.957031 28.070312 27.0625 27.964844 C 27.164062 27.863281 27.214844 27.734375 27.214844 27.589844 C 27.214844 27.441406 27.164062 27.316406 27.0625 27.210938 C 26.957031 27.105469 26.832031 27.054688 26.683594 27.054688 Z M 26.683594 27.054688 " fill-opacity="1" fill-rule="nonzero"/><path fill="#000000" d="M 26.683594 29.941406 C 26.550781 29.941406 26.433594 29.894531 26.339844 29.796875 C 26.242188 29.703125 26.195312 29.585938 26.195312 29.449219 L 26.195312 28.613281 C 26.195312 28.480469 26.242188 28.363281 26.339844 28.265625 C 26.433594 28.171875 26.550781 28.121094 26.683594 28.121094 C 26.820312 28.121094 26.9375 28.171875 27.03125 28.265625 C 27.125 28.363281 27.175781 28.480469 27.175781 28.613281 L 27.175781 29.449219 C 27.175781 29.585938 27.125 29.703125 27.03125 29.796875 C 26.9375 29.894531 26.820312 29.941406 26.683594 29.941406 Z M 26.683594 29.941406 " fill-opacity="1" fill-rule="nonzero"/><g clip-path="url(#5ae9a7e0c3)"><path fill="#000000" d="M 24.886719 34.40625 L 10.945312 34.40625 C 10.535156 34.40625 10.140625 34.324219 9.765625 34.167969 C 9.386719 34.011719 9.054688 33.785156 8.765625 33.496094 C 8.476562 33.203125 8.253906 32.871094 8.097656 32.488281 C 7.9375 32.109375 7.859375 31.714844 7.859375 31.304688 L 7.859375 9.113281 C 7.859375 8.703125 7.941406 8.308594 8.097656 7.929688 C 8.253906 7.546875 8.476562 7.214844 8.765625 6.921875 C 9.054688 6.632812 9.386719 6.410156 9.765625 6.25 C 10.140625 6.09375 10.535156 6.015625 10.945312 6.015625 L 24.929688 6.015625 C 25.066406 6.015625 25.179688 6.0625 25.277344 6.160156 L 29.671875 10.578125 C 29.765625 10.675781 29.8125 10.789062 29.8125 10.925781 L 29.8125 19.152344 C 29.8125 19.289062 29.765625 19.40625 29.671875 19.5 C 29.574219 19.597656 29.460938 19.644531 29.324219 19.644531 C 29.191406 19.644531 29.074219 19.597656 28.980469 19.5 C 28.882812 19.40625 28.835938 19.289062 28.835938 19.152344 L 28.835938 11.128906 L 24.726562 6.996094 L 10.945312 6.996094 C 10.664062 7 10.394531 7.050781 10.136719 7.160156 C 9.878906 7.265625 9.652344 7.421875 9.457031 7.617188 C 9.257812 7.816406 9.105469 8.046875 9 8.304688 C 8.890625 8.5625 8.839844 8.835938 8.839844 9.113281 L 8.839844 31.304688 C 8.839844 31.585938 8.890625 31.855469 9 32.113281 C 9.105469 32.375 9.257812 32.601562 9.457031 32.800781 C 9.652344 33 9.878906 33.152344 10.136719 33.261719 C 10.394531 33.367188 10.664062 33.421875 10.945312 33.421875 L 24.886719 33.421875 C 25.023438 33.421875 25.140625 33.472656 25.234375 33.566406 C 25.328125 33.664062 25.378906 33.777344 25.378906 33.914062 C 25.378906 34.050781 25.328125 34.167969 25.234375 34.261719 C 25.140625 34.359375 25.023438 34.40625 24.886719 34.40625 Z M 24.886719 34.40625 " fill-opacity="1" fill-rule="nonzero"/></g><path fill="#000000" d="M 29.324219 11.417969 L 24.925781 11.417969 C 24.792969 11.417969 24.675781 11.371094 24.582031 11.273438 C 24.484375 11.175781 24.4375 11.0625 24.4375 10.925781 L 24.4375 6.507812 C 24.4375 6.371094 24.484375 6.253906 24.582031 6.160156 C 24.675781 6.0625 24.792969 6.015625 24.925781 6.015625 C 25.0625 6.015625 25.175781 6.0625 25.273438 6.160156 C 25.367188 6.253906 25.417969 6.371094 25.417969 6.507812 L 25.417969 10.433594 L 29.324219 10.433594 C 29.460938 10.433594 29.574219 10.480469 29.671875 10.578125 C 29.765625 10.675781 29.8125 10.789062 29.8125 10.925781 C 29.8125 11.0625 29.765625 11.175781 29.671875 11.273438 C 29.574219 11.371094 29.460938 11.417969 29.324219 11.417969 Z M 29.324219 11.417969 " fill-opacity="1" fill-rule="nonzero"/><path fill="#000000" d="M 21.585938 10.550781 L 11.691406 10.550781 C 11.554688 10.550781 11.4375 10.503906 11.34375 10.40625 C 11.25 10.3125 11.199219 10.195312 11.199219 10.058594 C 11.199219 9.925781 11.25 9.808594 11.34375 9.710938 C 11.4375 9.617188 11.554688 9.566406 11.691406 9.566406 L 21.585938 9.566406 C 21.722656 9.566406 21.835938 9.617188 21.933594 9.710938 C 22.027344 9.808594 22.078125 9.925781 22.078125 10.058594 C 22.078125 10.195312 22.027344 10.3125 21.933594 10.40625 C 21.835938 10.503906 21.722656 10.550781 21.585938 10.550781 Z M 21.585938 10.550781 " fill-opacity="1" fill-rule="nonzero"/><path fill="#000000" d="M 26.511719 15.097656 L 12.089844 15.097656 C 11.957031 15.097656 11.839844 15.050781 11.746094 14.953125 C 11.648438 14.859375 11.601562 14.742188 11.601562 14.605469 C 11.601562 14.472656 11.648438 14.355469 11.746094 14.257812 C 11.839844 14.164062 11.957031 14.117188 12.089844 14.117188 L 26.511719 14.117188 C 26.644531 14.117188 26.761719 14.164062 26.855469 14.257812 C 26.953125 14.355469 27 14.472656 27 14.605469 C 27 14.742188 26.953125 14.859375 26.855469 14.953125 C 26.761719 15.050781 26.644531 15.097656 26.511719 15.097656 Z M 26.511719 15.097656 " fill-opacity="1" fill-rule="nonzero"/><path fill="#000000" d="M 19.628906 18.78125 L 12.089844 18.78125 C 11.957031 18.78125 11.839844 18.730469 11.746094 18.636719 C 11.648438 18.539062 11.601562 18.421875 11.601562 18.289062 C 11.601562 18.152344 11.648438 18.035156 11.746094 17.941406 C 11.839844 17.84375 11.957031 17.796875 12.089844 17.796875 L 19.628906 17.796875 C 19.761719 17.796875 19.878906 17.84375 19.972656 17.941406 C 20.066406 18.035156 20.117188 18.152344 20.117188 18.289062 C 20.117188 18.421875 20.066406 18.539062 19.972656 18.636719 C 19.878906 18.730469 19.761719 18.78125 19.628906 18.78125 Z M 19.628906 18.78125 " fill-opacity="1" fill-rule="nonzero"/><path fill="#000000" d="M 19.628906 22.460938 L 12.089844 22.460938 C 11.957031 22.460938 11.839844 22.414062 11.746094 22.316406 C 11.648438 22.222656 11.601562 22.105469 11.601562 21.96875 C 11.601562 21.835938 11.648438 21.71875 11.746094 21.621094 C 11.839844 21.527344 11.957031 21.476562 12.089844 21.476562 L 19.628906 21.476562 C 19.761719 21.476562 19.878906 21.527344 19.972656 21.621094 C 20.066406 21.71875 20.117188 21.835938 20.117188 21.96875 C 20.117188 22.105469 20.066406 22.222656 19.972656 22.316406 C 19.878906 22.414062 19.761719 22.460938 19.628906 22.460938 Z M 19.628906 22.460938 " fill-opacity="1" fill-rule="nonzero"/><path fill="#000000" d="M 19.628906 26.144531 L 12.089844 26.144531 C 11.957031 26.144531 11.839844 26.09375 11.746094 26 C 11.648438 25.902344 11.601562 25.785156 11.601562 25.652344 C 11.601562 25.515625 11.648438 25.398438 11.746094 25.304688 C 11.839844 25.207031 11.957031 25.160156 12.089844 25.160156 L 19.628906 25.160156 C 19.761719 25.160156 19.878906 25.207031 19.972656 25.304688 C 20.066406 25.398438 20.117188 25.515625 20.117188 25.652344 C 20.117188 25.785156 20.066406 25.902344 19.972656 26 C 19.878906 26.09375 19.761719 26.144531 19.628906 26.144531 Z M 19.628906 26.144531 " fill-opacity="1" fill-rule="nonzero"/><path fill="#000000" d="M 19.871094 29.824219 L 12.089844 29.824219 C 11.957031 29.824219 11.839844 29.777344 11.746094 29.679688 C 11.648438 29.582031 11.601562 29.46875 11.601562 29.332031 C 11.601562 29.195312 11.648438 29.082031 11.746094 28.984375 C 11.839844 28.886719 11.957031 28.839844 12.089844 28.839844 L 19.871094 28.839844 C 20.003906 28.839844 20.121094 28.886719 20.214844 28.984375 C 20.3125 29.082031 20.359375 29.195312 20.359375 29.332031 C 20.359375 29.46875 20.3125 29.582031 20.214844 29.679688 C 20.121094 29.777344 20.003906 29.824219 19.871094 29.824219 Z M 19.871094 29.824219 " fill-opacity="1" fill-rule="nonzero"/></svg>