<svg xmlns="http://www.w3.org/2000/svg" xmlns:xlink="http://www.w3.org/1999/xlink" width="80" zoomAndPan="magnify" viewBox="0 0 60 38.999999" height="52" preserveAspectRatio="xMidYMid meet" version="1.0"><defs><clipPath id="6b5c36af8d"><path d="M 15 0 L 45 0 C 48.976562 0 52.792969 1.582031 55.605469 4.394531 C 58.417969 7.207031 60 11.023438 60 15 L 60 24 C 60 27.976562 58.417969 31.792969 55.605469 34.605469 C 52.792969 37.417969 48.976562 39 45 39 L 15 39 C 11.023438 39 7.207031 37.417969 4.394531 34.605469 C 1.582031 31.792969 0 27.976562 0 24 L 0 15 C 0 11.023438 1.582031 7.207031 4.394531 4.394531 C 7.207031 1.582031 11.023438 0 15 0 Z M 15 0 " clip-rule="nonzero"/></clipPath><clipPath id="356701039c"><path d="M 0 0 L 60 0 L 60 39 L 0 39 Z M 0 0 " clip-rule="nonzero"/></clipPath><clipPath id="d1cf96c5b9"><path d="M 15 0 L 45 0 C 48.976562 0 52.792969 1.582031 55.605469 4.394531 C 58.417969 7.207031 60 11.023438 60 15 L 60 24 C 60 27.976562 58.417969 31.792969 55.605469 34.605469 C 52.792969 37.417969 48.976562 39 45 39 L 15 39 C 11.023438 39 7.207031 37.417969 4.394531 34.605469 C 1.582031 31.792969 0 27.976562 0 24 L 0 15 C 0 11.023438 1.582031 7.207031 4.394531 4.394531 C 7.207031 1.582031 11.023438 0 15 0 Z M 15 0 " clip-rule="nonzero"/></clipPath><clipPath id="f166c7d8bc"><rect x="0" width="60" y="0" height="39"/></clipPath><clipPath id="65d49da766"><path d="M 19.386719 6.4375 L 30 6.4375 L 30 17 L 19.386719 17 Z M 19.386719 6.4375 " clip-rule="nonzero"/></clipPath><clipPath id="b06c72c1c9"><path d="M 30 6.4375 L 40.386719 6.4375 L 40.386719 17 L 30 17 Z M 30 6.4375 " clip-rule="nonzero"/></clipPath><clipPath id="25657b4507"><path d="M 25 6.4375 L 34 6.4375 L 34 17 L 25 17 Z M 25 6.4375 " clip-rule="nonzero"/></clipPath><clipPath id="64fdd132b6"><path d="M 22 17 L 38 17 L 38 32.6875 L 22 32.6875 Z M 22 17 " clip-rule="nonzero"/></clipPath></defs><g clip-path="url(#6b5c36af8d)"><g transform="matrix(1, 0, 0, 1, 0, 0)"><g clip-path="url(#f166c7d8bc)"><g clip-path="url(#356701039c)"><g clip-path="url(#d1cf96c5b9)"><rect x="-13.2" width="86.4" fill="#c1ff72" height="56.159999" y="-8.58" fill-opacity="1"/></g></g></g></g></g><g clip-path="url(#65d49da766)"><path fill="#000000" d="M 19.398438 16.179688 C 20.753906 15.191406 22 14.757812 23.109375 14.902344 C 23.890625 15 24.605469 15.375 25.246094 16.023438 C 25.542969 9.972656 27.28125 8.089844 29.035156 6.4375 C 23.855469 6.851562 19.726562 11.011719 19.398438 16.179688 Z M 25.359375 9.246094 C 23.65625 10.230469 22.316406 11.761719 21.578125 13.566406 C 21.53125 13.691406 21.414062 13.769531 21.28125 13.769531 C 21.238281 13.769531 21.203125 13.761719 21.160156 13.742188 C 20.996094 13.671875 20.921875 13.484375 20.988281 13.320312 C 21.777344 11.386719 23.214844 9.738281 25.035156 8.691406 C 25.1875 8.601562 25.378906 8.65625 25.472656 8.808594 C 25.5625 8.964844 25.507812 9.160156 25.359375 9.246094 Z M 25.359375 9.246094 " fill-opacity="1" fill-rule="nonzero"/></g><g clip-path="url(#b06c72c1c9)"><path fill="#000000" d="M 30.738281 6.4375 C 32.492188 8.089844 34.230469 9.972656 34.527344 16.023438 C 35.167969 15.371094 35.890625 15 36.664062 14.902344 C 37.773438 14.765625 39.015625 15.191406 40.375 16.179688 C 40.046875 11.011719 35.914062 6.851562 30.738281 6.4375 Z M 38.609375 13.742188 C 38.570312 13.757812 38.527344 13.769531 38.484375 13.769531 C 38.359375 13.769531 38.242188 13.691406 38.1875 13.566406 C 37.449219 11.769531 36.109375 10.230469 34.410156 9.246094 C 34.257812 9.160156 34.203125 8.964844 34.289062 8.804688 C 34.375 8.652344 34.570312 8.597656 34.726562 8.683594 C 36.550781 9.738281 37.988281 11.386719 38.773438 13.316406 C 38.84375 13.484375 38.769531 13.671875 38.609375 13.742188 Z M 38.609375 13.742188 " fill-opacity="1" fill-rule="nonzero"/></g><g clip-path="url(#25657b4507)"><path fill="#000000" d="M 33.886719 15.984375 C 33.117188 15.210938 32.410156 14.847656 31.742188 14.878906 C 31.101562 14.90625 30.515625 15.300781 29.992188 16.050781 C 29.957031 16.097656 29.90625 16.109375 29.882812 16.109375 C 29.855469 16.109375 29.804688 16.105469 29.769531 16.050781 C 29.25 15.300781 28.660156 14.90625 28.019531 14.878906 C 27.351562 14.851562 26.644531 15.210938 25.875 15.984375 C 26.1875 9.96875 27.976562 8.296875 29.707031 6.675781 C 29.761719 6.621094 29.820312 6.574219 29.875 6.519531 C 29.929688 6.566406 29.988281 6.621094 30.042969 6.671875 C 31.785156 8.296875 33.578125 9.96875 33.886719 15.984375 Z M 33.886719 15.984375 " fill-opacity="1" fill-rule="nonzero"/></g><g clip-path="url(#64fdd132b6)"><path fill="#000000" d="M 36.703125 24.03125 L 35.710938 24.03125 C 35.566406 24.03125 35.4375 23.933594 35.40625 23.792969 C 35.273438 23.273438 35.066406 22.769531 34.796875 22.296875 C 34.722656 22.171875 34.742188 22.007812 34.84375 21.90625 L 35.542969 21.195312 C 35.695312 21.039062 35.695312 20.789062 35.542969 20.636719 L 34.414062 19.488281 C 34.339844 19.410156 34.242188 19.375 34.140625 19.375 C 34.035156 19.375 33.941406 19.410156 33.863281 19.488281 L 33.164062 20.199219 C 33.0625 20.304688 32.902344 20.324219 32.777344 20.25 C 32.3125 19.96875 31.824219 19.761719 31.308594 19.628906 C 31.167969 19.59375 31.070312 19.464844 31.070312 19.320312 L 31.070312 18.3125 C 31.070312 18.09375 30.898438 17.917969 30.683594 17.917969 L 29.085938 17.917969 C 28.867188 17.917969 28.695312 18.09375 28.695312 18.3125 L 28.695312 19.320312 C 28.695312 19.464844 28.597656 19.597656 28.460938 19.628906 C 27.949219 19.765625 27.453125 19.976562 26.988281 20.25 C 26.867188 20.324219 26.703125 20.304688 26.601562 20.199219 L 25.902344 19.488281 C 25.828125 19.410156 25.730469 19.375 25.628906 19.375 C 25.527344 19.375 25.429688 19.410156 25.351562 19.488281 L 24.222656 20.636719 C 24.148438 20.710938 24.109375 20.8125 24.109375 20.914062 C 24.109375 21.019531 24.148438 21.117188 24.222656 21.195312 L 24.921875 21.90625 C 25.023438 22.007812 25.046875 22.171875 24.972656 22.296875 C 24.695312 22.769531 24.492188 23.273438 24.363281 23.792969 C 24.324219 23.933594 24.199219 24.03125 24.054688 24.03125 L 23.066406 24.03125 C 22.851562 24.03125 22.675781 24.207031 22.675781 24.425781 L 22.675781 26.179688 C 22.675781 26.398438 22.851562 26.574219 23.066406 26.574219 L 24.054688 26.574219 C 24.199219 26.574219 24.332031 26.671875 24.363281 26.816406 C 24.492188 27.335938 24.703125 27.835938 24.972656 28.308594 C 25.046875 28.433594 25.023438 28.597656 24.921875 28.699219 L 24.222656 29.410156 C 24.070312 29.566406 24.070312 29.816406 24.222656 29.96875 L 25.351562 31.117188 C 25.429688 31.195312 25.527344 31.234375 25.628906 31.234375 C 25.730469 31.234375 25.828125 31.195312 25.902344 31.117188 L 26.601562 30.40625 C 26.660156 30.347656 26.746094 30.3125 26.828125 30.3125 C 26.882812 30.3125 26.941406 30.332031 26.988281 30.359375 C 27.453125 30.636719 27.941406 30.84375 28.460938 30.976562 C 28.597656 31.015625 28.695312 31.140625 28.695312 31.289062 L 28.695312 32.292969 C 28.695312 32.511719 28.867188 32.6875 29.085938 32.6875 L 30.683594 32.6875 C 30.898438 32.6875 31.070312 32.511719 31.070312 32.292969 L 31.070312 31.289062 C 31.070312 31.140625 31.167969 31.007812 31.308594 30.976562 C 31.820312 30.839844 32.3125 30.632812 32.777344 30.359375 C 32.902344 30.28125 33.0625 30.304688 33.164062 30.40625 L 33.863281 31.117188 C 33.941406 31.195312 34.035156 31.234375 34.140625 31.234375 C 34.242188 31.234375 34.339844 31.195312 34.414062 31.117188 L 35.542969 29.96875 C 35.621094 29.894531 35.65625 29.792969 35.65625 29.691406 C 35.65625 29.585938 35.621094 29.488281 35.542969 29.410156 L 34.84375 28.699219 C 34.742188 28.597656 34.722656 28.433594 34.796875 28.308594 C 35.070312 27.835938 35.273438 27.335938 35.40625 26.816406 C 35.441406 26.671875 35.566406 26.574219 35.710938 26.574219 L 36.703125 26.574219 C 36.917969 26.574219 37.089844 26.398438 37.089844 26.179688 L 37.089844 24.425781 C 37.089844 24.207031 36.910156 24.03125 36.703125 24.03125 Z M 31.117188 29.339844 C 30.925781 29.84375 30.445312 30.199219 29.886719 30.199219 C 29.328125 30.199219 28.84375 29.84375 28.652344 29.339844 C 26.917969 28.792969 25.726562 27.160156 25.726562 25.300781 C 25.726562 23.753906 26.574219 22.316406 27.90625 21.582031 C 27.921875 21.320312 28.023438 21.0625 28.195312 20.855469 C 28.4375 20.566406 28.789062 20.394531 29.160156 20.394531 L 30.617188 20.394531 C 30.988281 20.394531 31.339844 20.558594 31.582031 20.855469 C 31.753906 21.0625 31.851562 21.3125 31.871094 21.582031 C 33.203125 22.316406 34.054688 23.753906 34.054688 25.300781 C 34.046875 27.160156 32.851562 28.792969 31.117188 29.339844 Z M 31.117188 29.339844 " fill-opacity="1" fill-rule="nonzero"/></g><path fill="#000000" d="M 30.574219 28.859375 C 30.574219 28.910156 30.570312 28.953125 30.558594 29 C 30.558594 29 30.558594 29.007812 30.558594 29.007812 C 30.496094 29.324219 30.214844 29.558594 29.886719 29.558594 C 29.558594 29.558594 29.277344 29.324219 29.214844 29.007812 C 29.214844 29.007812 29.214844 29 29.214844 29 C 29.203125 28.957031 29.195312 28.910156 29.195312 28.859375 C 29.195312 28.472656 29.503906 28.160156 29.886719 28.160156 C 30.269531 28.160156 30.574219 28.472656 30.574219 28.859375 Z M 30.574219 28.859375 " fill-opacity="1" fill-rule="nonzero"/><path fill="#000000" d="M 33.414062 25.300781 C 33.414062 26.78125 32.519531 28.09375 31.1875 28.628906 C 31.082031 27.996094 30.539062 27.507812 29.886719 27.507812 C 29.234375 27.507812 28.6875 27.996094 28.582031 28.628906 C 27.253906 28.09375 26.359375 26.78125 26.359375 25.300781 C 26.359375 24.070312 26.996094 22.921875 28.003906 22.269531 L 28.996094 26.796875 C 29.03125 26.953125 29.164062 27.050781 29.308594 27.050781 C 29.332031 27.050781 29.359375 27.050781 29.378906 27.042969 C 29.550781 27.007812 29.660156 26.832031 29.621094 26.65625 L 28.546875 21.777344 C 28.546875 21.769531 28.539062 21.757812 28.539062 21.746094 C 28.539062 21.746094 28.539062 21.742188 28.539062 21.742188 C 28.523438 21.570312 28.574219 21.402344 28.679688 21.277344 C 28.796875 21.132812 28.972656 21.050781 29.152344 21.050781 L 30.613281 21.050781 C 30.796875 21.050781 30.96875 21.132812 31.085938 21.277344 C 31.195312 21.40625 31.242188 21.578125 31.226562 21.742188 C 31.226562 21.742188 31.226562 21.746094 31.226562 21.746094 C 31.226562 21.757812 31.226562 21.769531 31.222656 21.777344 L 30.144531 26.65625 C 30.105469 26.832031 30.214844 27.007812 30.386719 27.042969 C 30.558594 27.082031 30.726562 26.972656 30.769531 26.796875 L 31.769531 22.277344 C 32.78125 22.925781 33.414062 24.074219 33.414062 25.300781 Z M 33.414062 25.300781 " fill-opacity="1" fill-rule="nonzero"/></svg>