<svg xmlns="http://www.w3.org/2000/svg" xmlns:xlink="http://www.w3.org/1999/xlink" width="56" zoomAndPan="magnify" viewBox="0 0 42 42" height="56" preserveAspectRatio="xMidYMid meet" version="1.0"><defs><clipPath id="da726c2336"><path d="M 0.488281 0 L 41.511719 0 L 41.511719 41.023438 L 0.488281 41.023438 Z M 0.488281 0 " clip-rule="nonzero"/></clipPath><clipPath id="d881db7b79"><path d="M 21 0 C 9.671875 0 0.488281 9.183594 0.488281 20.511719 C 0.488281 31.839844 9.671875 41.023438 21 41.023438 C 32.328125 41.023438 41.511719 31.839844 41.511719 20.511719 C 41.511719 9.183594 32.328125 0 21 0 Z M 21 0 " clip-rule="nonzero"/></clipPath><clipPath id="ff7c40d19f"><path d="M 0.488281 0 L 41.511719 0 L 41.511719 41.023438 L 0.488281 41.023438 Z M 0.488281 0 " clip-rule="nonzero"/></clipPath><clipPath id="95a106a687"><path d="M 21 0 C 9.671875 0 0.488281 9.183594 0.488281 20.511719 C 0.488281 31.839844 9.671875 41.023438 21 41.023438 C 32.328125 41.023438 41.511719 31.839844 41.511719 20.511719 C 41.511719 9.183594 32.328125 0 21 0 Z M 21 0 " clip-rule="nonzero"/></clipPath><clipPath id="5b46bae517"><rect x="0" width="42" y="0" height="42"/></clipPath><clipPath id="86cc36ad08"><path d="M 7.484375 6.996094 L 34.589844 6.996094 L 34.589844 34.101562 L 7.484375 34.101562 Z M 7.484375 6.996094 " clip-rule="nonzero"/></clipPath></defs><g clip-path="url(#da726c2336)"><g clip-path="url(#d881db7b79)"><g transform="matrix(1, 0, 0, 1, 0.000000000000000111, 0.000000000000004377)"><g clip-path="url(#5b46bae517)"><g clip-path="url(#ff7c40d19f)"><g clip-path="url(#95a106a687)"><path fill="#bcbcbc" d="M 0.488281 0 L 41.511719 0 L 41.511719 41.023438 L 0.488281 41.023438 Z M 0.488281 0 " fill-opacity="1" fill-rule="nonzero"/></g></g></g></g></g></g><g clip-path="url(#86cc36ad08)"><path fill="#000000" d="M 33.515625 30.757812 L 32.621094 30.566406 C 32.96875 30.1875 33.175781 29.683594 33.175781 29.132812 C 33.175781 28.066406 32.394531 27.183594 31.378906 27.019531 C 31.375 26.375 30.933594 25.828125 30.304688 25.695312 L 29.414062 25.5 C 29.757812 25.121094 29.96875 24.617188 29.96875 24.066406 C 29.96875 22.886719 29.007812 21.929688 27.832031 21.929688 C 26.652344 21.929688 25.691406 22.886719 25.691406 24.066406 C 25.691406 24.617188 25.902344 25.121094 26.246094 25.5 L 25.355469 25.695312 C 25.058594 25.757812 24.804688 25.914062 24.621094 26.125 C 24.433594 25.914062 24.179688 25.757812 23.882812 25.695312 L 22.992188 25.5 C 23.335938 25.121094 23.546875 24.617188 23.546875 24.066406 C 23.546875 22.886719 22.585938 21.929688 21.410156 21.929688 C 20.230469 21.929688 19.269531 22.886719 19.269531 24.066406 C 19.269531 24.617188 19.480469 25.121094 19.824219 25.5 L 18.933594 25.695312 C 18.304688 25.832031 17.863281 26.375 17.859375 27.019531 C 16.84375 27.183594 16.0625 28.066406 16.0625 29.132812 C 16.0625 29.683594 16.269531 30.1875 16.617188 30.566406 L 15.722656 30.757812 C 15.089844 30.894531 14.648438 31.441406 14.648438 32.089844 L 14.648438 33.761719 C 14.648438 33.949219 14.800781 34.101562 14.988281 34.101562 L 34.253906 34.101562 C 34.4375 34.101562 34.589844 33.949219 34.589844 33.761719 L 34.589844 32.089844 C 34.589844 31.441406 34.148438 30.894531 33.515625 30.757812 Z M 32.503906 29.132812 C 32.503906 29.9375 31.847656 30.59375 31.039062 30.59375 C 30.234375 30.59375 29.578125 29.9375 29.578125 29.132812 C 29.578125 28.324219 30.234375 27.667969 31.039062 27.667969 C 31.847656 27.667969 32.503906 28.324219 32.503906 29.132812 Z M 27.828125 31.191406 C 27.640625 30.976562 27.390625 30.820312 27.09375 30.757812 L 26.199219 30.566406 C 26.542969 30.1875 26.753906 29.683594 26.753906 29.132812 C 26.753906 29.097656 26.753906 29.066406 26.753906 29.035156 L 28.90625 29.035156 C 28.90625 29.066406 28.902344 29.101562 28.902344 29.132812 C 28.902344 29.683594 29.113281 30.1875 29.457031 30.566406 L 28.566406 30.757812 C 28.269531 30.820312 28.015625 30.976562 27.828125 31.191406 Z M 27.492188 33.425781 L 21.746094 33.425781 L 21.746094 32.089844 C 21.746094 31.761719 21.96875 31.488281 22.285156 31.417969 L 23.777344 31.09375 C 24.035156 31.207031 24.320312 31.269531 24.617188 31.269531 C 24.917969 31.269531 25.199219 31.207031 25.457031 31.09375 L 26.949219 31.417969 C 27.269531 31.488281 27.492188 31.761719 27.492188 32.089844 Z M 20.671875 30.757812 L 19.777344 30.566406 C 20.121094 30.1875 20.332031 29.683594 20.332031 29.132812 C 20.332031 29.097656 20.332031 29.066406 20.332031 29.035156 L 22.484375 29.035156 C 22.484375 29.066406 22.480469 29.101562 22.480469 29.132812 C 22.480469 29.683594 22.691406 30.1875 23.035156 30.566406 L 22.144531 30.757812 C 21.847656 30.820312 21.59375 30.976562 21.40625 31.191406 C 21.222656 30.976562 20.96875 30.820312 20.671875 30.757812 Z M 24.617188 27.667969 C 25.425781 27.667969 26.082031 28.324219 26.082031 29.132812 C 26.082031 29.9375 25.425781 30.59375 24.617188 30.59375 C 23.8125 30.59375 23.15625 29.9375 23.15625 29.132812 C 23.15625 28.324219 23.8125 27.667969 24.617188 27.667969 Z M 27.828125 22.605469 C 28.636719 22.605469 29.292969 23.261719 29.292969 24.066406 C 29.292969 24.871094 28.636719 25.527344 27.828125 25.527344 C 27.023438 25.527344 26.367188 24.871094 26.367188 24.066406 C 26.367188 23.261719 27.023438 22.605469 27.828125 22.605469 Z M 25.496094 26.351562 L 26.988281 26.03125 C 27.246094 26.140625 27.53125 26.203125 27.828125 26.203125 C 28.128906 26.203125 28.410156 26.140625 28.667969 26.03125 L 30.160156 26.351562 C 30.480469 26.421875 30.699219 26.695312 30.703125 27.019531 C 29.945312 27.140625 29.316406 27.664062 29.046875 28.359375 L 26.609375 28.359375 C 26.339844 27.664062 25.714844 27.140625 24.957031 27.019531 C 24.957031 26.695312 25.179688 26.421875 25.5 26.351562 Z M 21.40625 22.605469 C 22.214844 22.605469 22.871094 23.261719 22.871094 24.066406 C 22.871094 24.871094 22.214844 25.527344 21.40625 25.527344 C 20.601562 25.527344 19.945312 24.871094 19.945312 24.066406 C 19.945312 23.261719 20.601562 22.605469 21.40625 22.605469 Z M 19.074219 26.351562 L 20.566406 26.03125 C 20.824219 26.140625 21.109375 26.203125 21.40625 26.203125 C 21.707031 26.203125 21.988281 26.140625 22.246094 26.03125 L 23.738281 26.351562 C 24.058594 26.421875 24.277344 26.695312 24.28125 27.019531 C 23.523438 27.140625 22.894531 27.664062 22.625 28.359375 L 20.1875 28.359375 C 19.917969 27.664062 19.292969 27.140625 18.535156 27.019531 C 18.535156 26.695312 18.757812 26.421875 19.078125 26.351562 Z M 18.195312 27.667969 C 19.003906 27.667969 19.660156 28.324219 19.660156 29.132812 C 19.660156 29.9375 19.003906 30.59375 18.195312 30.59375 C 17.390625 30.59375 16.734375 29.9375 16.734375 29.132812 C 16.734375 28.324219 17.390625 27.667969 18.195312 27.667969 Z M 21.070312 33.425781 L 15.320312 33.425781 L 15.320312 32.089844 C 15.320312 31.761719 15.542969 31.488281 15.863281 31.417969 L 17.355469 31.09375 C 17.613281 31.207031 17.898438 31.269531 18.195312 31.269531 C 18.492188 31.269531 18.777344 31.207031 19.035156 31.09375 L 20.527344 31.417969 C 20.847656 31.488281 21.070312 31.761719 21.070312 32.089844 Z M 33.914062 33.425781 L 28.167969 33.425781 L 28.167969 32.089844 C 28.167969 31.761719 28.390625 31.488281 28.707031 31.417969 L 30.199219 31.09375 C 30.457031 31.207031 30.742188 31.269531 31.039062 31.269531 C 31.339844 31.269531 31.621094 31.207031 31.878906 31.09375 L 33.371094 31.417969 C 33.691406 31.488281 33.914062 31.761719 33.914062 32.089844 Z M 16.453125 14.167969 L 16.453125 20.816406 C 16.453125 21.003906 16.605469 21.15625 16.792969 21.15625 L 31.039062 21.15625 C 31.226562 21.15625 31.378906 21.003906 31.378906 20.816406 L 31.378906 8.730469 C 31.378906 8.542969 31.226562 8.394531 31.039062 8.394531 L 16.792969 8.394531 C 16.605469 8.394531 16.453125 8.542969 16.453125 8.730469 L 16.453125 11.75 L 13.089844 11.75 L 9.800781 11.761719 C 8.523438 11.761719 7.484375 12.800781 7.484375 14.078125 L 7.484375 19.378906 C 7.484375 20.039062 8.027344 20.578125 8.691406 20.578125 C 8.886719 20.578125 9.066406 20.53125 9.226562 20.453125 L 9.226562 25.246094 C 9.226562 26.023438 9.863281 26.660156 10.640625 26.660156 C 11.070312 26.660156 11.457031 26.464844 11.71875 26.160156 C 11.976562 26.464844 12.363281 26.660156 12.792969 26.660156 C 13.574219 26.660156 14.207031 26.023438 14.207031 25.246094 L 14.207031 14.167969 L 16.457031 14.167969 Z M 17.128906 9.066406 L 30.703125 9.066406 L 30.703125 20.480469 L 17.128906 20.480469 L 17.128906 14.167969 L 19.023438 14.167969 C 19.691406 14.167969 20.234375 13.625 20.234375 12.957031 C 20.234375 12.289062 19.691406 11.75 19.023438 11.75 L 17.128906 11.75 Z M 13.53125 25.246094 C 13.53125 25.652344 13.203125 25.984375 12.792969 25.984375 C 12.386719 25.984375 12.054688 25.652344 12.054688 25.246094 C 12.054688 25.246094 12.054688 25.246094 12.054688 25.242188 L 12.054688 19.390625 C 12.054688 19.207031 11.902344 19.054688 11.71875 19.054688 C 11.53125 19.054688 11.378906 19.207031 11.378906 19.390625 L 11.378906 25.242188 C 11.378906 25.246094 11.378906 25.246094 11.378906 25.246094 C 11.378906 25.652344 11.050781 25.984375 10.640625 25.984375 C 10.234375 25.984375 9.902344 25.652344 9.902344 25.246094 L 9.902344 19.390625 C 9.902344 19.386719 9.902344 19.382812 9.902344 19.378906 L 9.902344 15.035156 C 9.902344 14.847656 9.75 14.699219 9.566406 14.699219 C 9.378906 14.699219 9.226562 14.847656 9.226562 15.035156 L 9.226562 19.378906 C 9.226562 19.664062 8.984375 19.902344 8.691406 19.902344 C 8.402344 19.902344 8.160156 19.664062 8.160156 19.378906 L 8.160156 14.078125 C 8.160156 13.171875 8.894531 12.4375 9.804688 12.4375 L 13.089844 12.421875 L 19.023438 12.421875 C 19.320312 12.421875 19.558594 12.664062 19.558594 12.957031 C 19.558594 13.25 19.320312 13.492188 19.023438 13.492188 L 13.871094 13.492188 C 13.683594 13.492188 13.53125 13.644531 13.53125 13.828125 Z M 11.714844 11.140625 C 12.855469 11.140625 13.785156 10.210938 13.785156 9.066406 C 13.785156 7.925781 12.855469 6.996094 11.714844 6.996094 C 10.570312 6.996094 9.640625 7.925781 9.640625 9.066406 C 9.640625 10.210938 10.570312 11.140625 11.714844 11.140625 Z M 11.714844 7.671875 C 12.484375 7.671875 13.109375 8.296875 13.109375 9.066406 C 13.109375 9.839844 12.484375 10.464844 11.714844 10.464844 C 10.941406 10.464844 10.316406 9.839844 10.316406 9.066406 C 10.316406 8.296875 10.941406 7.671875 11.714844 7.671875 Z M 21.824219 11.148438 C 21.824219 10.960938 21.976562 10.8125 22.164062 10.8125 L 28.671875 10.8125 C 28.859375 10.8125 29.007812 10.960938 29.007812 11.148438 C 29.007812 11.335938 28.859375 11.484375 28.671875 11.484375 L 22.164062 11.484375 C 21.976562 11.484375 21.824219 11.335938 21.824219 11.148438 Z M 21.824219 13.566406 C 21.824219 13.378906 21.976562 13.226562 22.164062 13.226562 L 28.671875 13.226562 C 28.859375 13.226562 29.007812 13.378906 29.007812 13.566406 C 29.007812 13.75 28.859375 13.902344 28.671875 13.902344 L 22.164062 13.902344 C 21.976562 13.902344 21.824219 13.75 21.824219 13.566406 Z M 29.007812 15.984375 C 29.007812 16.167969 28.859375 16.320312 28.671875 16.320312 L 19.160156 16.320312 C 18.976562 16.320312 18.824219 16.167969 18.824219 15.984375 C 18.824219 15.796875 18.976562 15.644531 19.160156 15.644531 L 28.671875 15.644531 C 28.859375 15.644531 29.007812 15.796875 29.007812 15.984375 Z M 29.007812 18.402344 C 29.007812 18.585938 28.859375 18.738281 28.671875 18.738281 L 19.160156 18.738281 C 18.976562 18.738281 18.824219 18.585938 18.824219 18.402344 C 18.824219 18.214844 18.976562 18.0625 19.160156 18.0625 L 28.671875 18.0625 C 28.859375 18.0625 29.007812 18.214844 29.007812 18.402344 Z M 29.007812 18.402344 " fill-opacity="1" fill-rule="nonzero"/></g></svg>