<svg xmlns="http://www.w3.org/2000/svg" xmlns:xlink="http://www.w3.org/1999/xlink" width="40" zoomAndPan="magnify" viewBox="0 0 30 30.000001" height="40" preserveAspectRatio="xMidYMid meet" version="1.0"><defs><clipPath id="7b98bfb5b5"><path d="M 1.355469 0.433594 L 29.515625 0.433594 L 29.515625 28.742188 L 1.355469 28.742188 Z M 1.355469 0.433594 " clip-rule="nonzero"/></clipPath></defs><g clip-path="url(#7b98bfb5b5)"><path fill="#ffffff" d="M 20.761719 23.414062 C 20.515625 23.414062 20.316406 23.613281 20.316406 23.859375 L 20.316406 23.996094 C 20.316406 24.40625 19.984375 24.738281 19.578125 24.738281 L 2.984375 24.738281 C 2.574219 24.738281 2.242188 24.40625 2.242188 23.996094 L 2.242188 2.664062 C 2.242188 2.253906 2.574219 1.921875 2.984375 1.921875 L 7.28125 1.921875 L 7.28125 3.40625 L 4.167969 3.40625 C 3.925781 3.40625 3.726562 3.601562 3.726562 3.847656 L 3.726562 22.8125 C 3.726562 23.054688 3.925781 23.253906 4.167969 23.253906 L 11.246094 23.253906 C 11.488281 23.253906 11.6875 23.054688 11.6875 22.8125 C 11.6875 22.566406 11.488281 22.367188 11.246094 22.367188 L 4.613281 22.367188 L 4.613281 4.292969 L 7.382812 4.292969 C 7.550781 4.640625 7.90625 4.886719 8.316406 4.886719 L 14.242188 4.886719 C 14.65625 4.886719 15.007812 4.640625 15.175781 4.292969 L 17.945312 4.292969 L 17.945312 7.144531 C 17.945312 7.386719 18.144531 7.585938 18.390625 7.585938 C 18.636719 7.585938 18.835938 7.386719 18.835938 7.144531 L 18.835938 3.847656 C 18.835938 3.601562 18.636719 3.40625 18.390625 3.40625 L 15.28125 3.40625 L 15.28125 1.921875 L 19.578125 1.921875 C 19.984375 1.921875 20.316406 2.253906 20.316406 2.664062 L 20.316406 7.925781 C 20.316406 8.171875 20.515625 8.371094 20.761719 8.371094 C 21.007812 8.371094 21.207031 8.171875 21.207031 7.925781 L 21.207031 2.664062 C 21.207031 1.765625 20.476562 1.035156 19.578125 1.035156 L 15.175781 1.035156 C 15.007812 0.683594 14.65625 0.441406 14.242188 0.441406 L 8.316406 0.441406 C 7.90625 0.441406 7.550781 0.683594 7.382812 1.035156 L 2.984375 1.035156 C 2.085938 1.035156 1.355469 1.765625 1.355469 2.664062 L 1.355469 23.996094 C 1.355469 24.894531 2.085938 25.625 2.984375 25.625 L 19.578125 25.625 C 20.476562 25.625 21.207031 24.894531 21.207031 23.996094 L 21.207031 23.859375 C 21.207031 23.613281 21.007812 23.414062 20.761719 23.414062 Z M 8.316406 1.332031 L 14.242188 1.332031 C 14.324219 1.332031 14.390625 1.398438 14.390625 1.480469 L 14.390625 3.847656 C 14.390625 3.929688 14.324219 3.996094 14.242188 3.996094 L 8.316406 3.996094 C 8.234375 3.996094 8.167969 3.929688 8.167969 3.847656 L 8.167969 1.480469 C 8.167969 1.398438 8.234375 1.332031 8.316406 1.332031 Z M 10.539062 9.1875 L 10.539062 7.550781 L 6.6875 7.550781 L 6.6875 11.402344 L 8.898438 11.402344 C 9.144531 11.402344 9.34375 11.601562 9.34375 11.847656 C 9.34375 12.09375 9.144531 12.292969 8.898438 12.292969 L 6.242188 12.292969 C 6 12.292969 5.800781 12.09375 5.800781 11.847656 L 5.800781 7.109375 C 5.800781 6.863281 6 6.664062 6.242188 6.664062 L 10.984375 6.664062 C 11.230469 6.664062 11.429688 6.863281 11.429688 7.109375 L 11.429688 9.1875 C 11.429688 9.433594 11.230469 9.632812 10.984375 9.632812 C 10.738281 9.632812 10.539062 9.433594 10.539062 9.1875 Z M 6.6875 15.253906 L 6.6875 19.105469 L 8.714844 19.105469 C 8.960938 19.105469 9.160156 19.304688 9.160156 19.550781 C 9.160156 19.796875 8.960938 19.996094 8.714844 19.996094 L 6.242188 19.996094 C 6 19.996094 5.800781 19.796875 5.800781 19.550781 L 5.800781 14.8125 C 5.800781 14.566406 6 14.367188 6.242188 14.367188 L 7.992188 14.367188 C 8.238281 14.367188 8.4375 14.566406 8.4375 14.8125 C 8.4375 15.054688 8.238281 15.253906 7.992188 15.253906 Z M 15.433594 6.664062 C 15.679688 6.664062 15.878906 6.863281 15.878906 7.109375 C 15.878906 7.351562 15.679688 7.550781 15.433594 7.550781 L 13.355469 7.550781 C 13.109375 7.550781 12.910156 7.351562 12.910156 7.109375 C 12.910156 6.863281 13.109375 6.664062 13.355469 6.664062 Z M 20.484375 12.222656 C 18.460938 10.203125 15.171875 10.203125 13.148438 12.222656 C 11.128906 14.246094 11.128906 17.535156 13.148438 19.558594 C 14.160156 20.570312 15.488281 21.074219 16.816406 21.074219 C 18.144531 21.074219 19.472656 20.570312 20.484375 19.558594 C 22.503906 17.535156 22.503906 14.246094 20.484375 12.222656 Z M 19.855469 18.929688 C 18.179688 20.601562 15.453125 20.605469 13.777344 18.929688 C 12.105469 17.253906 12.105469 14.527344 13.777344 12.851562 C 14.617188 12.015625 15.714844 11.597656 16.816406 11.597656 C 17.917969 11.597656 19.015625 12.015625 19.855469 12.851562 C 21.53125 14.527344 21.53125 17.253906 19.855469 18.929688 Z M 18.910156 14.390625 C 19.082031 14.566406 19.082031 14.847656 18.910156 15.019531 L 16.539062 17.390625 C 16.453125 17.476562 16.335938 17.519531 16.222656 17.519531 C 16.109375 17.519531 15.996094 17.476562 15.910156 17.390625 L 14.722656 16.207031 C 14.550781 16.03125 14.550781 15.75 14.722656 15.578125 C 14.898438 15.402344 15.179688 15.402344 15.351562 15.578125 L 16.222656 16.449219 L 18.28125 14.390625 C 18.453125 14.21875 18.734375 14.21875 18.910156 14.390625 Z M 28.863281 24.796875 L 25.09375 21.023438 C 24.925781 20.855469 24.628906 20.855469 24.464844 21.023438 L 24.359375 21.128906 L 23.183594 19.953125 C 25.046875 17.03125 24.707031 13.097656 22.160156 10.546875 C 20.730469 9.121094 18.835938 8.335938 16.816406 8.335938 C 14.796875 8.335938 12.902344 9.121094 11.472656 10.546875 C 8.527344 13.496094 8.527344 18.289062 11.472656 21.234375 C 12.902344 22.660156 14.796875 23.445312 16.816406 23.445312 C 18.28125 23.445312 19.675781 23.027344 20.878906 22.257812 L 22.054688 23.433594 L 21.949219 23.539062 C 21.867188 23.621094 21.820312 23.734375 21.820312 23.851562 C 21.820312 23.96875 21.867188 24.082031 21.949219 24.167969 L 25.71875 27.9375 C 26.140625 28.355469 26.699219 28.589844 27.292969 28.589844 C 27.886719 28.589844 28.441406 28.359375 28.863281 27.9375 C 29.28125 27.519531 29.515625 26.960938 29.515625 26.367188 C 29.515625 25.773438 29.28125 25.214844 28.863281 24.796875 Z M 12.101562 20.605469 C 9.503906 18.003906 9.503906 13.777344 12.101562 11.175781 C 13.363281 9.917969 15.035156 9.226562 16.816406 9.226562 C 18.597656 9.226562 20.269531 9.917969 21.53125 11.175781 C 24.128906 13.777344 24.128906 18.003906 21.53125 20.605469 C 20.269531 21.863281 18.597656 22.558594 16.816406 22.558594 C 15.035156 22.558594 13.363281 21.863281 12.101562 20.605469 Z M 22.160156 21.234375 C 22.335938 21.058594 22.5 20.871094 22.65625 20.683594 L 23.730469 21.757812 L 22.683594 22.804688 L 21.609375 21.730469 C 21.800781 21.574219 21.984375 21.410156 22.160156 21.234375 Z M 28.234375 27.308594 C 27.730469 27.8125 26.851562 27.8125 26.347656 27.308594 L 22.890625 23.851562 L 24.777344 21.964844 L 28.234375 25.421875 C 28.488281 25.675781 28.625 26.011719 28.625 26.367188 C 28.625 26.722656 28.488281 27.058594 28.234375 27.308594 Z M 28.234375 27.308594 " fill-opacity="1" fill-rule="nonzero"/></g></svg>