<svg xmlns="http://www.w3.org/2000/svg" xmlns:xlink="http://www.w3.org/1999/xlink" width="40" zoomAndPan="magnify" viewBox="0 0 30 30.000001" height="40" preserveAspectRatio="xMidYMid meet" version="1.0"><defs><clipPath id="6013354f56"><path d="M 0.484375 0 L 28.789062 0 L 28.789062 28.304688 L 0.484375 28.304688 Z M 0.484375 0 " clip-rule="nonzero"/></clipPath></defs><g clip-path="url(#6013354f56)"><path fill="#000000" d="M 9.820312 22.105469 C 9.820312 20.375 8.414062 18.96875 6.6875 18.96875 C 4.957031 18.96875 3.546875 20.375 3.546875 22.105469 C 3.546875 23.835938 4.957031 25.242188 6.6875 25.242188 C 8.414062 25.242188 9.820312 23.835938 9.820312 22.105469 Z M 6.6875 24.359375 C 5.441406 24.359375 4.429688 23.347656 4.429688 22.105469 C 4.429688 20.863281 5.441406 19.851562 6.6875 19.851562 C 7.929688 19.851562 8.941406 20.863281 8.941406 22.105469 C 8.941406 23.347656 7.929688 24.359375 6.6875 24.359375 Z M 28.421875 20.878906 L 28.078125 20.78125 C 27.753906 20.6875 27.492188 20.453125 27.359375 20.132812 C 27.230469 19.8125 27.246094 19.457031 27.414062 19.164062 L 27.585938 18.851562 C 27.683594 18.679688 27.652344 18.464844 27.515625 18.324219 L 26.363281 17.164062 C 26.222656 17.027344 26.007812 16.996094 25.835938 17.089844 L 25.523438 17.261719 C 25.394531 17.335938 25.253906 17.378906 25.109375 17.394531 L 25.109375 5.617188 L 25.46875 5.433594 L 26.359375 7.148438 C 26.441406 7.304688 26.613281 7.398438 26.789062 7.382812 C 26.964844 7.367188 27.117188 7.246094 27.171875 7.078125 L 28.71875 2.171875 C 28.792969 1.941406 28.664062 1.695312 28.429688 1.621094 L 23.527344 0.0703125 C 23.355469 0.0195312 23.171875 0.0703125 23.054688 0.207031 C 22.941406 0.34375 22.921875 0.535156 23.003906 0.695312 L 23.894531 2.410156 L 13.964844 7.574219 L 12 3.792969 C 11.886719 3.578125 11.621094 3.492188 11.402344 3.605469 L 0.738281 9.152344 C 0.632812 9.207031 0.554688 9.296875 0.519531 9.410156 C 0.484375 9.519531 0.496094 9.640625 0.550781 9.746094 L 1.714844 11.984375 C 1.792969 12.136719 1.949219 12.222656 2.105469 12.222656 C 2.175781 12.222656 2.246094 12.207031 2.308594 12.171875 L 4.132812 11.226562 L 4.132812 17.375 C 3.996094 17.359375 3.863281 17.316406 3.742188 17.246094 L 3.433594 17.074219 C 3.261719 16.976562 3.046875 17.007812 2.90625 17.144531 L 1.746094 18.300781 C 1.605469 18.4375 1.574219 18.652344 1.671875 18.824219 L 1.84375 19.136719 C 2.007812 19.433594 2.023438 19.785156 1.890625 20.101562 C 1.757812 20.421875 1.496094 20.660156 1.167969 20.75 L 0.828125 20.847656 C 0.636719 20.902344 0.507812 21.074219 0.503906 21.269531 L 0.5 22.90625 C 0.5 23.105469 0.628906 23.277344 0.820312 23.332031 L 1.164062 23.429688 C 1.488281 23.523438 1.746094 23.757812 1.878906 24.078125 C 2.011719 24.398438 1.992188 24.753906 1.828125 25.046875 L 1.652344 25.359375 C 1.558594 25.53125 1.585938 25.746094 1.726562 25.882812 L 2.878906 27.046875 C 3.019531 27.1875 3.234375 27.214844 3.40625 27.121094 L 3.71875 26.949219 C 4.011719 26.785156 4.363281 26.765625 4.683594 26.898438 C 5.003906 27.035156 5.238281 27.296875 5.332031 27.621094 L 5.425781 27.960938 C 5.480469 28.152344 5.652344 28.285156 5.847656 28.285156 L 7.488281 28.289062 C 7.6875 28.289062 7.859375 28.160156 7.914062 27.96875 L 8.011719 27.628906 C 8.128906 27.207031 8.503906 26.902344 8.929688 26.839844 C 8.96875 27.027344 9.039062 27.210938 9.140625 27.386719 C 9.472656 27.960938 10.042969 28.289062 10.707031 28.289062 L 18.535156 28.289062 C 19.199219 28.289062 19.769531 27.960938 20.101562 27.386719 C 20.203125 27.207031 20.273438 27.019531 20.3125 26.828125 C 20.730469 26.902344 21.082031 27.203125 21.199219 27.621094 L 21.296875 27.964844 C 21.351562 28.152344 21.523438 28.285156 21.71875 28.285156 L 23.355469 28.289062 C 23.355469 28.289062 23.359375 28.289062 23.359375 28.289062 C 23.554688 28.289062 23.726562 28.160156 23.78125 27.972656 L 23.878906 27.628906 C 23.972656 27.304688 24.210938 27.042969 24.53125 26.910156 C 24.851562 26.777344 25.203125 26.796875 25.496094 26.964844 L 25.808594 27.136719 C 25.980469 27.234375 26.195312 27.207031 26.335938 27.066406 L 27.496094 25.910156 C 27.632812 25.773438 27.664062 25.558594 27.570312 25.386719 L 27.398438 25.074219 C 27.234375 24.777344 27.214844 24.425781 27.351562 24.105469 C 27.484375 23.785156 27.746094 23.550781 28.070312 23.460938 L 28.414062 23.363281 C 28.601562 23.308594 28.734375 23.136719 28.734375 22.941406 L 28.738281 21.304688 C 28.738281 21.105469 28.609375 20.933594 28.421875 20.878906 Z M 24.226562 17.101562 C 24.078125 16.964844 23.964844 16.789062 23.910156 16.589844 L 23.8125 16.246094 C 23.761719 16.058594 23.585938 15.925781 23.390625 15.925781 L 21.753906 15.921875 C 21.554688 15.921875 21.382812 16.050781 21.328125 16.238281 L 21.230469 16.582031 C 21.203125 16.675781 21.167969 16.761719 21.121094 16.839844 L 21.121094 7.695312 L 24.226562 6.078125 Z M 17.539062 18.824219 L 17.714844 19.136719 C 17.875 19.433594 17.894531 19.785156 17.761719 20.105469 C 17.660156 20.347656 17.484375 20.539062 17.261719 20.660156 L 16.1875 18.796875 C 16.070312 18.59375 15.921875 18.421875 15.75 18.285156 L 15.75 10.484375 L 18.859375 8.871094 L 18.859375 17.082031 C 18.828125 17.101562 18.800781 17.121094 18.777344 17.144531 L 17.617188 18.300781 C 17.476562 18.4375 17.445312 18.652344 17.539062 18.824219 Z M 14.621094 17.894531 C 14.535156 17.894531 14.453125 17.898438 14.371094 17.910156 L 14.371094 11.203125 L 14.867188 10.945312 L 14.867188 17.910156 C 14.789062 17.898438 14.703125 17.894531 14.621094 17.894531 Z M 13.054688 18.796875 L 11.96875 20.679688 C 11.757812 20.558594 11.585938 20.367188 11.492188 20.128906 C 11.359375 19.808594 11.378906 19.457031 11.542969 19.164062 L 11.71875 18.851562 C 11.816406 18.679688 11.785156 18.464844 11.644531 18.324219 L 10.492188 17.164062 C 10.457031 17.132812 10.421875 17.105469 10.382812 17.085938 L 10.382812 8.0625 C 10.738281 8.753906 10.984375 9.222656 11.226562 9.691406 C 11.519531 10.253906 11.816406 10.820312 12.3125 11.777344 C 12.367188 11.878906 12.457031 11.957031 12.570312 11.992188 C 12.683594 12.027344 12.804688 12.019531 12.90625 11.964844 L 13.488281 11.660156 L 13.488281 18.285156 C 13.320312 18.421875 13.171875 18.59375 13.054688 18.796875 Z M 9.003906 8.691406 L 9.5 8.433594 L 9.5 17.332031 C 9.339844 17.390625 9.171875 17.410156 9.003906 17.394531 Z M 19.742188 8.410156 L 20.238281 8.152344 L 20.238281 17.382812 C 20.066406 17.394531 19.898438 17.371094 19.742188 17.308594 Z M 2.292969 11.1875 L 1.535156 9.730469 L 11.417969 4.589844 L 13.386719 8.375 C 13.5 8.589844 13.765625 8.671875 13.980469 8.5625 L 24.695312 2.992188 C 24.796875 2.9375 24.875 2.84375 24.910156 2.730469 C 24.945312 2.621094 24.933594 2.5 24.882812 2.394531 L 24.277344 1.234375 L 27.746094 2.328125 L 26.652344 5.796875 L 26.046875 4.632812 C 25.933594 4.417969 25.667969 4.335938 25.453125 4.445312 L 24.464844 4.960938 C 24.460938 4.960938 24.457031 4.964844 24.457031 4.964844 L 20.480469 7.03125 C 20.472656 7.035156 20.46875 7.039062 20.464844 7.042969 L 15.105469 9.828125 C 15.101562 9.828125 15.097656 9.832031 15.097656 9.832031 L 13.753906 10.53125 C 13.738281 10.539062 13.722656 10.546875 13.707031 10.554688 L 12.890625 10.980469 C 12.511719 10.25 12.261719 9.765625 12.007812 9.28125 C 11.714844 8.71875 11.421875 8.152344 10.925781 7.195312 C 10.871094 7.09375 10.777344 7.015625 10.667969 6.980469 C 10.554688 6.945312 10.433594 6.953125 10.328125 7.007812 L 9.734375 7.316406 C 9.734375 7.320312 9.730469 7.320312 9.730469 7.320312 Z M 8.121094 9.152344 L 8.121094 16.792969 C 8.085938 16.730469 8.0625 16.660156 8.039062 16.589844 L 7.945312 16.25 C 7.890625 16.058594 7.71875 15.925781 7.523438 15.925781 L 5.882812 15.921875 C 5.6875 15.921875 5.511719 16.050781 5.457031 16.238281 L 5.359375 16.582031 C 5.300781 16.792969 5.179688 16.976562 5.011719 17.117188 L 5.011719 10.765625 Z M 7.164062 27.386719 L 7.15625 27.40625 L 6.1875 27.402344 L 6.179688 27.382812 C 6.015625 26.796875 5.59375 26.324219 5.023438 26.085938 C 4.453125 25.847656 3.820312 25.882812 3.289062 26.175781 L 3.269531 26.1875 L 2.585938 25.5 L 2.59375 25.480469 C 2.894531 24.949219 2.929688 24.316406 2.695312 23.742188 C 2.460938 23.171875 1.988281 22.75 1.40625 22.582031 L 1.382812 22.578125 L 1.386719 21.605469 L 1.40625 21.597656 C 1.996094 21.433594 2.46875 21.011719 2.707031 20.441406 C 2.941406 19.871094 2.910156 19.238281 2.613281 18.710938 L 2.601562 18.691406 L 3.292969 18.003906 L 3.3125 18.015625 C 3.714844 18.242188 4.175781 18.316406 4.625 18.238281 C 4.648438 18.234375 4.667969 18.230469 4.6875 18.226562 C 4.808594 18.199219 4.929688 18.164062 5.046875 18.117188 C 5.617188 17.878906 6.039062 17.410156 6.207031 16.828125 L 6.214844 16.804688 L 7.183594 16.808594 L 7.191406 16.828125 C 7.355469 17.414062 7.777344 17.886719 8.347656 18.125 C 8.355469 18.128906 8.367188 18.132812 8.378906 18.136719 C 8.394531 18.144531 8.414062 18.152344 8.433594 18.160156 C 8.980469 18.359375 9.574219 18.316406 10.082031 18.035156 L 10.101562 18.023438 L 10.785156 18.710938 L 10.773438 18.730469 C 10.476562 19.261719 10.441406 19.894531 10.675781 20.464844 C 10.847656 20.886719 11.148438 21.226562 11.527344 21.441406 L 9.140625 25.578125 C 9.070312 25.695312 9.015625 25.820312 8.976562 25.945312 C 8.140625 25.992188 7.398438 26.558594 7.164062 27.386719 Z M 19.335938 26.945312 C 19.164062 27.242188 18.878906 27.40625 18.535156 27.40625 L 10.707031 27.40625 C 10.359375 27.40625 10.078125 27.242188 9.902344 26.945312 C 9.808594 26.78125 9.765625 26.605469 9.773438 26.433594 C 9.777344 26.429688 9.777344 26.421875 9.777344 26.417969 C 9.785156 26.28125 9.828125 26.148438 9.902344 26.019531 L 13.820312 19.238281 C 13.902344 19.09375 14.011719 18.980469 14.140625 18.902344 C 14.148438 18.898438 14.152344 18.894531 14.160156 18.890625 C 14.292969 18.816406 14.449219 18.773438 14.621094 18.773438 C 14.789062 18.773438 14.945312 18.816406 15.082031 18.890625 C 15.085938 18.894531 15.09375 18.898438 15.101562 18.902344 C 15.230469 18.980469 15.339844 19.09375 15.421875 19.238281 L 19.335938 26.019531 C 19.410156 26.144531 19.453125 26.277344 19.464844 26.410156 C 19.464844 26.414062 19.464844 26.421875 19.464844 26.425781 C 19.476562 26.601562 19.433594 26.777344 19.335938 26.945312 Z M 27.855469 22.605469 L 27.832031 22.613281 C 27.246094 22.777344 26.773438 23.195312 26.535156 23.765625 C 26.296875 24.335938 26.332031 24.96875 26.625 25.5 L 26.636719 25.519531 L 25.949219 26.207031 L 25.929688 26.195312 C 25.398438 25.894531 24.765625 25.859375 24.195312 26.09375 C 23.621094 26.332031 23.199219 26.800781 23.03125 27.386719 L 23.027344 27.40625 L 22.054688 27.402344 L 22.050781 27.382812 C 21.820312 26.5625 21.089844 25.992188 20.261719 25.933594 C 20.21875 25.8125 20.167969 25.691406 20.101562 25.578125 L 17.703125 21.425781 C 18.089844 21.210938 18.398438 20.867188 18.574219 20.445312 C 18.8125 19.875 18.78125 19.242188 18.484375 18.710938 L 18.472656 18.691406 L 19.164062 18.003906 L 19.183594 18.015625 C 19.683594 18.296875 20.277344 18.34375 20.828125 18.148438 C 20.835938 18.144531 20.84375 18.144531 20.851562 18.140625 C 20.875 18.132812 20.894531 18.125 20.917969 18.117188 C 21.488281 17.878906 21.910156 17.410156 22.078125 16.828125 L 22.085938 16.804688 L 23.054688 16.808594 L 23.0625 16.828125 C 23.226562 17.414062 23.648438 17.886719 24.214844 18.125 C 24.328125 18.171875 24.441406 18.207031 24.554688 18.230469 C 24.570312 18.238281 24.585938 18.238281 24.605469 18.242188 C 25.0625 18.335938 25.539062 18.265625 25.949219 18.035156 L 25.972656 18.023438 L 26.65625 18.710938 L 26.644531 18.730469 C 26.347656 19.261719 26.308594 19.894531 26.546875 20.464844 C 26.78125 21.039062 27.25 21.460938 27.835938 21.628906 L 27.855469 21.632812 Z M 22.554688 18.96875 C 20.824219 18.96875 19.417969 20.375 19.417969 22.105469 C 19.417969 23.835938 20.824219 25.242188 22.554688 25.242188 C 24.285156 25.242188 25.691406 23.835938 25.691406 22.105469 C 25.691406 20.375 24.285156 18.96875 22.554688 18.96875 Z M 22.554688 24.359375 C 21.3125 24.359375 20.300781 23.347656 20.300781 22.105469 C 20.300781 20.863281 21.3125 19.851562 22.554688 19.851562 C 23.796875 19.851562 24.808594 20.863281 24.808594 22.105469 C 24.808594 23.347656 23.796875 24.359375 22.554688 24.359375 Z M 15.0625 21.273438 L 15.0625 24.113281 C 15.0625 24.359375 14.863281 24.554688 14.621094 24.554688 C 14.375 24.554688 14.179688 24.359375 14.179688 24.113281 L 14.179688 21.273438 C 14.179688 21.03125 14.375 20.832031 14.621094 20.832031 C 14.863281 20.832031 15.0625 21.03125 15.0625 21.273438 Z M 15.0625 25.445312 L 15.0625 25.816406 C 15.0625 26.058594 14.863281 26.257812 14.621094 26.257812 C 14.375 26.257812 14.179688 26.058594 14.179688 25.816406 L 14.179688 25.445312 C 14.179688 25.203125 14.375 25.007812 14.621094 25.007812 C 14.863281 25.007812 15.0625 25.203125 15.0625 25.445312 Z M 15.0625 25.445312 " fill-opacity="1" fill-rule="nonzero"/></g></svg>