<svg xmlns="http://www.w3.org/2000/svg" xmlns:xlink="http://www.w3.org/1999/xlink" width="40" zoomAndPan="magnify" viewBox="0 0 30 30.000001" height="40" preserveAspectRatio="xMidYMid meet" version="1.0"><defs><clipPath id="dfc8d2e826"><path d="M 1.542969 0.695312 L 28.398438 0.695312 L 28.398438 28.277344 L 1.542969 28.277344 Z M 1.542969 0.695312 " clip-rule="nonzero"/></clipPath></defs><g clip-path="url(#dfc8d2e826)"><path fill="#ffffff" d="M 14.753906 20.835938 C 11.496094 19.347656 8.984375 17.359375 7.460938 14.683594 C 5.9375 12 5.417969 8.640625 6.148438 4.414062 C 6.167969 4.300781 6.21875 4.195312 6.296875 4.117188 C 6.375 4.03125 6.480469 3.972656 6.605469 3.953125 C 8.324219 3.695312 9.855469 3.320312 11.195312 2.804688 C 12.527344 2.292969 13.679688 1.640625 14.652344 0.828125 C 14.660156 0.820312 14.671875 0.8125 14.683594 0.804688 C 14.777344 0.738281 14.890625 0.703125 15 0.703125 C 15.121094 0.703125 15.246094 0.746094 15.347656 0.832031 L 15.347656 0.828125 C 16.320312 1.640625 17.472656 2.292969 18.804688 2.804688 C 20.144531 3.320312 21.675781 3.695312 23.394531 3.953125 C 23.402344 3.957031 23.410156 3.957031 23.417969 3.957031 C 23.53125 3.980469 23.628906 4.035156 23.703125 4.117188 C 23.714844 4.125 23.722656 4.136719 23.730469 4.148438 C 23.792969 4.222656 23.835938 4.316406 23.851562 4.414062 C 24.582031 8.640625 24.0625 12 22.539062 14.683594 C 21.015625 17.363281 18.496094 19.355469 15.226562 20.84375 L 15.226562 20.847656 C 15.152344 20.878906 15.078125 20.898438 15 20.898438 C 14.921875 20.898438 14.847656 20.878906 14.773438 20.847656 Z M 8.304688 25.058594 L 7.953125 25.152344 C 7.769531 25.203125 7.664062 25.390625 7.710938 25.574219 L 8.371094 28.039062 C 8.421875 28.222656 8.609375 28.332031 8.792969 28.28125 L 14.285156 26.808594 C 14.46875 26.761719 14.578125 26.574219 14.527344 26.390625 L 13.867188 23.925781 C 13.820312 23.742188 13.632812 23.632812 13.449219 23.679688 L 13.097656 23.773438 L 12.636719 22.042969 C 12.628906 22.011719 12.617188 21.976562 12.609375 21.945312 L 12.601562 21.914062 C 12.597656 21.90625 12.59375 21.894531 12.59375 21.886719 C 12.453125 21.421875 12.234375 21.007812 11.933594 20.640625 C 11.617188 20.261719 11.21875 19.9375 10.734375 19.671875 L 7.632812 17.886719 C 7.347656 17.722656 7.019531 17.6875 6.726562 17.765625 C 6.4375 17.84375 6.175781 18.03125 6.011719 18.304688 C 6 18.320312 5.988281 18.339844 5.980469 18.359375 C 5.902344 18.507812 5.855469 18.664062 5.84375 18.824219 L 5.757812 18.773438 L 4.144531 12.742188 C 3.996094 12.183594 3.570312 11.921875 3.105469 11.882812 C 2.941406 11.867188 2.769531 11.882812 2.609375 11.925781 C 2.445312 11.96875 2.289062 12.042969 2.152344 12.136719 C 1.777344 12.394531 1.542969 12.816406 1.675781 13.339844 L 2.5625 19.800781 L 2.5625 19.808594 C 2.691406 20.953125 3.269531 21.882812 4.300781 22.585938 L 4.308594 22.589844 L 4.320312 22.601562 L 4.324219 22.601562 L 4.328125 22.605469 L 4.335938 22.609375 L 4.339844 22.609375 C 4.820312 22.871094 5.292969 23.113281 5.914062 23.417969 C 6.511719 23.710938 7.210938 24.042969 8.148438 24.480469 Z M 25.660156 22.609375 L 25.664062 22.609375 L 25.679688 22.601562 L 25.691406 22.589844 L 25.695312 22.589844 L 25.699219 22.585938 C 26.210938 22.238281 26.609375 21.832031 26.898438 21.371094 C 27.195312 20.902344 27.375 20.382812 27.4375 19.808594 L 27.441406 19.800781 L 28.324219 13.339844 C 28.457031 12.816406 28.222656 12.394531 27.847656 12.136719 C 27.710938 12.042969 27.554688 11.96875 27.390625 11.925781 C 27.230469 11.882812 27.058594 11.867188 26.894531 11.882812 C 26.429688 11.921875 26.003906 12.183594 25.855469 12.742188 L 24.242188 18.773438 L 24.15625 18.824219 C 24.140625 18.652344 24.089844 18.484375 24 18.324219 C 23.835938 18.039062 23.570312 17.847656 23.273438 17.765625 C 22.980469 17.6875 22.65625 17.722656 22.367188 17.886719 L 19.269531 19.671875 C 18.78125 19.9375 18.382812 20.261719 18.066406 20.640625 C 17.765625 21.007812 17.546875 21.421875 17.410156 21.886719 C 17.40625 21.894531 17.402344 21.90625 17.398438 21.914062 L 17.390625 21.953125 C 17.382812 21.980469 17.375 22.007812 17.367188 22.039062 L 16.902344 23.773438 L 16.550781 23.679688 C 16.367188 23.632812 16.179688 23.742188 16.132812 23.925781 L 15.472656 26.390625 C 15.421875 26.574219 15.53125 26.761719 15.714844 26.808594 L 21.207031 28.28125 C 21.390625 28.332031 21.578125 28.222656 21.628906 28.039062 L 22.289062 25.574219 C 22.335938 25.390625 22.230469 25.203125 22.046875 25.152344 L 21.695312 25.058594 L 21.851562 24.480469 C 22.789062 24.042969 23.488281 23.710938 24.089844 23.417969 C 24.707031 23.113281 25.179688 22.871094 25.660156 22.609375 Z M 25.660156 22.609375 " fill-opacity="1" fill-rule="evenodd"/></g><path fill="#ffffff" d="M 10.769531 11.390625 C 10.753906 11.378906 10.742188 11.359375 10.730469 11.34375 C 10.515625 11.066406 10.429688 10.726562 10.464844 10.398438 C 10.496094 10.070312 10.652344 9.753906 10.921875 9.523438 C 10.9375 9.507812 10.953125 9.496094 10.96875 9.484375 C 11.25 9.269531 11.589844 9.183594 11.917969 9.214844 C 12.253906 9.25 12.582031 9.414062 12.8125 9.699219 L 14.125 11.3125 L 14.851562 10.417969 L 15.457031 9.675781 L 15.457031 9.671875 L 15.46875 9.660156 L 17.1875 7.542969 C 17.417969 7.257812 17.746094 7.09375 18.082031 7.058594 C 18.421875 7.023438 18.773438 7.117188 19.054688 7.347656 C 19.339844 7.578125 19.5 7.902344 19.535156 8.242188 C 19.570312 8.578125 19.476562 8.929688 19.25 9.214844 L 17.515625 11.347656 L 16.910156 12.089844 L 15.179688 14.222656 C 15.144531 14.265625 15.105469 14.304688 15.070312 14.34375 C 15.03125 14.378906 14.988281 14.414062 14.945312 14.445312 C 14.664062 14.671875 14.316406 14.761719 13.980469 14.726562 C 13.644531 14.691406 13.320312 14.53125 13.089844 14.246094 Z M 15 18.621094 C 16.011719 18.117188 16.988281 17.535156 17.871094 16.84375 C 18.796875 16.125 19.621094 15.289062 20.285156 14.316406 C 21.164062 13.023438 21.671875 11.609375 21.90625 10.140625 C 22.132812 8.742188 22.109375 7.289062 21.933594 5.84375 C 20.71875 5.617188 19.507812 5.304688 18.34375 4.882812 C 17.164062 4.453125 16.035156 3.90625 15 3.203125 C 13.964844 3.90625 12.835938 4.453125 11.65625 4.882812 C 10.492188 5.304688 9.28125 5.617188 8.066406 5.84375 C 7.890625 7.289062 7.867188 8.742188 8.09375 10.140625 C 8.328125 11.609375 8.835938 13.023438 9.714844 14.316406 C 10.378906 15.289062 11.203125 16.125 12.128906 16.84375 C 13.011719 17.535156 13.988281 18.117188 15 18.621094 Z M 15 18.621094 " fill-opacity="1" fill-rule="evenodd"/><path fill="#ffffff" d="M 8.058594 14.34375 C 9.496094 16.875 11.886719 18.765625 15 20.195312 C 18.113281 18.765625 20.503906 16.875 21.941406 14.34375 C 23.378906 11.820312 23.871094 8.636719 23.191406 4.617188 C 21.472656 4.351562 19.929688 3.96875 18.558594 3.441406 C 17.195312 2.917969 16.007812 2.253906 15 1.433594 C 13.992188 2.253906 12.804688 2.917969 11.441406 3.441406 C 10.070312 3.96875 8.527344 4.351562 6.808594 4.617188 C 6.128906 8.636719 6.621094 11.820312 8.058594 14.34375 Z M 18.292969 17.382812 C 17.324219 18.140625 16.253906 18.773438 15.152344 19.308594 L 15.148438 19.308594 L 15.148438 19.3125 C 15.058594 19.355469 14.949219 19.359375 14.851562 19.3125 C 13.75 18.773438 12.675781 18.140625 11.707031 17.382812 C 10.730469 16.625 9.855469 15.738281 9.148438 14.703125 C 8.207031 13.320312 7.667969 11.8125 7.417969 10.25 C 7.167969 8.699219 7.207031 7.09375 7.417969 5.507812 C 7.4375 5.363281 7.546875 5.242188 7.699219 5.214844 C 8.957031 4.988281 10.214844 4.675781 11.421875 4.238281 C 12.617188 3.800781 13.761719 3.238281 14.796875 2.507812 C 14.914062 2.425781 15.074219 2.417969 15.199219 2.503906 C 16.234375 3.238281 17.378906 3.800781 18.578125 4.238281 C 19.78125 4.675781 21.035156 4.988281 22.289062 5.214844 C 22.4375 5.234375 22.5625 5.351562 22.582031 5.507812 C 22.792969 7.09375 22.832031 8.699219 22.582031 10.25 C 22.332031 11.8125 21.792969 13.320312 20.851562 14.703125 C 20.148438 15.738281 19.269531 16.625 18.292969 17.382812 Z M 18.292969 17.382812 " fill-opacity="1" fill-rule="evenodd"/><path fill="#ffffff" d="M 11.144531 10.46875 C 11.128906 10.632812 11.171875 10.800781 11.28125 10.9375 L 11.285156 10.9375 L 13.621094 13.8125 C 13.730469 13.949219 13.886719 14.027344 14.050781 14.046875 C 14.210938 14.0625 14.375 14.019531 14.511719 13.917969 C 14.523438 13.90625 14.535156 13.898438 14.546875 13.890625 C 14.5625 13.875 14.578125 13.863281 14.59375 13.847656 C 14.613281 13.828125 14.632812 13.808594 14.648438 13.789062 L 16.378906 11.660156 L 16.378906 11.65625 L 16.984375 10.914062 L 18.714844 8.78125 C 18.828125 8.644531 18.871094 8.476562 18.855469 8.3125 C 18.835938 8.148438 18.757812 7.992188 18.621094 7.878906 C 18.488281 7.769531 18.316406 7.726562 18.152344 7.742188 C 17.988281 7.757812 17.832031 7.835938 17.722656 7.972656 L 16 10.089844 L 15.992188 10.101562 L 15.988281 10.105469 L 15.382812 10.847656 L 14.394531 12.066406 C 14.378906 12.085938 14.359375 12.105469 14.339844 12.121094 C 14.191406 12.242188 13.976562 12.21875 13.859375 12.074219 L 12.277344 10.128906 C 12.167969 9.992188 12.011719 9.914062 11.847656 9.898438 C 11.683594 9.882812 11.511719 9.925781 11.378906 10.035156 C 11.242188 10.148438 11.164062 10.304688 11.144531 10.46875 Z M 11.144531 10.46875 " fill-opacity="1" fill-rule="evenodd"/><path fill="#ffffff" d="M 12.945312 24.527344 L 8.464844 25.726562 L 8.945312 27.527344 L 13.777344 26.234375 L 13.292969 24.433594 Z M 12.945312 24.527344 " fill-opacity="1" fill-rule="evenodd"/><path fill="#ffffff" d="M 21.035156 24.882812 L 21.230469 24.148438 C 21.257812 24.050781 21.320312 23.96875 21.417969 23.925781 C 22.472656 23.4375 23.210938 23.085938 23.789062 22.804688 C 24.367188 22.519531 24.828125 22.28125 25.320312 22.015625 C 25.75 21.71875 26.082031 21.382812 26.320312 21.003906 C 26.53125 20.667969 26.671875 20.292969 26.734375 19.882812 L 26.753906 19.742188 L 26.757812 19.734375 C 26.757812 19.726562 26.757812 19.71875 26.761719 19.710938 L 27.648438 13.226562 C 27.648438 13.210938 27.652344 13.195312 27.65625 13.183594 C 27.710938 12.976562 27.613281 12.804688 27.460938 12.699219 C 27.386719 12.652344 27.304688 12.613281 27.21875 12.589844 C 27.128906 12.566406 27.039062 12.558594 26.949219 12.566406 C 26.757812 12.582031 26.582031 12.691406 26.519531 12.917969 L 24.871094 19.085938 C 24.84375 19.1875 24.773438 19.265625 24.6875 19.308594 L 23.597656 19.9375 L 23.5625 19.957031 L 21.917969 20.90625 C 21.753906 21 21.546875 20.945312 21.449219 20.78125 C 21.355469 20.617188 21.410156 20.40625 21.574219 20.3125 L 23.21875 19.363281 C 23.339844 19.292969 23.421875 19.179688 23.457031 19.050781 C 23.488281 18.925781 23.476562 18.789062 23.410156 18.671875 L 23.402344 18.664062 C 23.335938 18.542969 23.222656 18.464844 23.097656 18.429688 C 22.96875 18.398438 22.832031 18.410156 22.710938 18.480469 L 19.769531 20.171875 C 19.75 20.1875 19.726562 20.203125 19.703125 20.214844 C 19.246094 20.453125 18.875 20.738281 18.597656 21.078125 C 18.355469 21.371094 18.179688 21.707031 18.066406 22.082031 L 18.0625 22.09375 L 17.5625 23.953125 Z M 4.679688 22.015625 C 5.171875 22.28125 5.632812 22.519531 6.214844 22.804688 C 6.789062 23.085938 7.527344 23.4375 8.582031 23.925781 C 8.679688 23.96875 8.742188 24.050781 8.769531 24.148438 L 8.964844 24.882812 L 12.4375 23.953125 L 11.9375 22.09375 L 11.933594 22.082031 C 11.820312 21.703125 11.644531 21.371094 11.402344 21.078125 C 11.125 20.738281 10.753906 20.453125 10.296875 20.214844 C 10.273438 20.203125 10.25 20.1875 10.230469 20.171875 L 7.289062 18.480469 C 7.167969 18.410156 7.03125 18.398438 6.902344 18.429688 C 6.777344 18.464844 6.664062 18.546875 6.59375 18.664062 L 6.59375 18.667969 L 6.582031 18.6875 C 6.523438 18.804688 6.511719 18.933594 6.542969 19.050781 C 6.578125 19.179688 6.660156 19.292969 6.78125 19.363281 L 6.800781 19.371094 L 6.800781 19.375 L 8.425781 20.3125 C 8.589844 20.40625 8.644531 20.617188 8.550781 20.78125 C 8.453125 20.945312 8.246094 21 8.082031 20.90625 L 6.457031 19.96875 C 6.445312 19.960938 6.429688 19.953125 6.417969 19.945312 L 6.40625 19.9375 L 5.3125 19.308594 C 5.226562 19.265625 5.15625 19.1875 5.128906 19.085938 L 3.480469 12.917969 C 3.421875 12.691406 3.242188 12.582031 3.050781 12.566406 C 2.960938 12.558594 2.871094 12.566406 2.78125 12.589844 C 2.695312 12.613281 2.613281 12.652344 2.539062 12.699219 C 2.386719 12.804688 2.289062 12.976562 2.34375 13.183594 C 2.347656 13.195312 2.351562 13.210938 2.351562 13.226562 L 3.242188 19.710938 C 3.242188 19.71875 3.242188 19.726562 3.242188 19.734375 L 3.246094 19.746094 L 3.265625 19.878906 C 3.402344 20.746094 3.871094 21.460938 4.679688 22.015625 Z M 4.679688 22.015625 " fill-opacity="1" fill-rule="evenodd"/><path fill="#ffffff" d="M 21.535156 25.726562 L 17.058594 24.527344 L 16.707031 24.433594 L 16.222656 26.234375 L 21.054688 27.527344 Z M 21.535156 25.726562 " fill-opacity="1" fill-rule="evenodd"/></svg>