<svg xmlns="http://www.w3.org/2000/svg" xmlns:xlink="http://www.w3.org/1999/xlink" width="40" zoomAndPan="magnify" viewBox="0 0 30 30.000001" height="40" preserveAspectRatio="xMidYMid meet" version="1.0"><defs><clipPath id="2180282026"><path d="M 0.484375 0 L 29.515625 0 L 29.515625 29.03125 L 0.484375 29.03125 Z M 0.484375 0 " clip-rule="nonzero"/></clipPath></defs><g clip-path="url(#2180282026)"><path fill="#000000" d="M 26.390625 0 L 3.609375 0 C 1.886719 0 0.484375 1.402344 0.484375 3.125 L 0.484375 21.351562 C 0.484375 23.074219 1.886719 24.476562 3.609375 24.476562 L 12.152344 24.476562 L 12.152344 25.617188 L 11.585938 25.617188 C 10.015625 25.617188 8.738281 26.894531 8.738281 28.464844 C 8.738281 28.777344 8.992188 29.03125 9.308594 29.03125 L 20.691406 29.03125 C 21.007812 29.03125 21.261719 28.777344 21.261719 28.464844 C 21.261719 26.894531 19.984375 25.617188 18.414062 25.617188 L 17.847656 25.617188 L 17.847656 24.476562 L 26.390625 24.476562 C 28.113281 24.476562 29.515625 23.074219 29.515625 21.351562 L 29.515625 3.125 C 29.515625 1.402344 28.113281 0 26.390625 0 Z M 3.609375 1.136719 L 26.390625 1.136719 C 27.484375 1.136719 28.378906 2.03125 28.378906 3.125 L 28.378906 18.785156 L 1.621094 18.785156 L 1.621094 3.125 C 1.621094 2.03125 2.515625 1.136719 3.609375 1.136719 Z M 20.027344 27.894531 L 9.972656 27.894531 C 10.210938 27.230469 10.84375 26.753906 11.585938 26.753906 L 18.414062 26.753906 C 19.15625 26.753906 19.789062 27.230469 20.027344 27.894531 Z M 16.707031 25.617188 L 13.292969 25.617188 L 13.292969 24.476562 L 16.707031 24.476562 Z M 26.390625 23.339844 L 3.609375 23.339844 C 2.515625 23.339844 1.621094 22.449219 1.621094 21.351562 L 1.621094 19.925781 L 28.378906 19.925781 L 28.378906 21.351562 C 28.378906 22.449219 27.484375 23.339844 26.390625 23.339844 Z M 26.390625 23.339844 " fill-opacity="1" fill-rule="nonzero"/></g><path fill="#000000" d="M 8.738281 9.109375 C 9.765625 9.109375 10.570312 8.199219 10.429688 7.167969 L 12.183594 5.28125 C 12.730469 5.75 13.492188 5.816406 14.097656 5.492188 L 16.148438 7.203125 C 16.03125 8.226562 16.835938 9.109375 17.847656 9.109375 C 18.789062 9.109375 19.554688 8.34375 19.554688 7.402344 L 21.457031 6.546875 C 21.726562 6.726562 22.050781 6.832031 22.398438 6.832031 C 23.34375 6.832031 24.109375 6.066406 24.109375 5.125 C 24.109375 4.183594 23.34375 3.414062 22.398438 3.414062 C 21.265625 3.414062 20.4375 4.511719 20.761719 5.609375 L 19.171875 6.324219 C 18.546875 5.554688 17.402344 5.472656 16.675781 6.160156 L 14.867188 4.648438 C 15.34375 3.527344 14.511719 2.277344 13.292969 2.277344 C 12.257812 2.277344 11.449219 3.199219 11.601562 4.238281 L 9.855469 6.113281 C 9.558594 5.851562 9.164062 5.691406 8.738281 5.691406 C 7.796875 5.691406 7.03125 6.457031 7.03125 7.398438 C 7.03125 8.34375 7.796875 9.109375 8.738281 9.109375 Z M 22.398438 4.554688 C 22.714844 4.554688 22.96875 4.808594 22.96875 5.125 C 22.96875 5.4375 22.714844 5.691406 22.398438 5.691406 C 22.085938 5.691406 21.832031 5.4375 21.832031 5.125 C 21.832031 4.808594 22.085938 4.554688 22.398438 4.554688 Z M 17.847656 6.832031 C 18.160156 6.832031 18.414062 7.085938 18.414062 7.398438 C 18.414062 7.714844 18.160156 7.96875 17.847656 7.96875 C 17.53125 7.96875 17.277344 7.714844 17.277344 7.398438 C 17.277344 7.085938 17.53125 6.832031 17.847656 6.832031 Z M 13.292969 3.414062 C 13.605469 3.414062 13.863281 3.671875 13.863281 3.984375 C 13.863281 4.296875 13.605469 4.554688 13.292969 4.554688 C 12.976562 4.554688 12.722656 4.296875 12.722656 3.984375 C 12.722656 3.671875 12.976562 3.414062 13.292969 3.414062 Z M 8.738281 6.832031 C 9.050781 6.832031 9.308594 7.085938 9.308594 7.398438 C 9.308594 7.714844 9.050781 7.96875 8.738281 7.96875 C 8.425781 7.96875 8.167969 7.714844 8.167969 7.398438 C 8.167969 7.085938 8.425781 6.832031 8.738281 6.832031 Z M 8.738281 6.832031 " fill-opacity="1" fill-rule="nonzero"/><path fill="#000000" d="M 5.324219 17.648438 C 5.5 17.648438 24.21875 17.648438 24.675781 17.648438 C 24.992188 17.648438 25.246094 17.390625 25.246094 17.078125 C 25.246094 16.761719 24.992188 16.507812 24.675781 16.507812 L 24.109375 16.507812 L 24.109375 8.539062 C 24.109375 8.222656 23.851562 7.96875 23.539062 7.96875 L 21.261719 7.96875 C 20.949219 7.96875 20.691406 8.222656 20.691406 8.539062 L 20.691406 16.507812 L 19.554688 16.507812 L 19.554688 11.953125 C 19.554688 11.640625 19.300781 11.386719 18.984375 11.386719 L 16.707031 11.386719 C 16.394531 11.386719 16.136719 11.640625 16.136719 11.953125 L 16.136719 16.507812 L 15 16.507812 L 15 8.539062 C 15 8.222656 14.746094 7.96875 14.429688 7.96875 L 12.152344 7.96875 C 11.839844 7.96875 11.585938 8.222656 11.585938 8.539062 L 11.585938 16.507812 L 10.445312 16.507812 L 10.445312 11.386719 C 10.445312 11.070312 10.191406 10.816406 9.875 10.816406 L 7.601562 10.816406 C 7.285156 10.816406 7.03125 11.070312 7.03125 11.386719 L 7.03125 16.507812 L 5.324219 16.507812 C 5.007812 16.507812 4.753906 16.761719 4.753906 17.078125 C 4.753906 17.390625 5.007812 17.648438 5.324219 17.648438 Z M 21.832031 9.109375 L 22.96875 9.109375 L 22.96875 16.507812 L 21.832031 16.507812 Z M 17.277344 12.523438 L 18.414062 12.523438 L 18.414062 16.507812 L 17.277344 16.507812 Z M 12.722656 9.109375 L 13.863281 9.109375 L 13.863281 16.507812 L 12.722656 16.507812 Z M 8.167969 11.953125 L 9.308594 11.953125 L 9.308594 16.507812 L 8.167969 16.507812 Z M 8.167969 11.953125 " fill-opacity="1" fill-rule="nonzero"/><path fill="#000000" d="M 27.238281 21.632812 C 27.238281 21.789062 27.183594 21.921875 27.074219 22.035156 C 26.960938 22.144531 26.828125 22.199219 26.667969 22.199219 C 26.511719 22.199219 26.378906 22.144531 26.265625 22.035156 C 26.15625 21.921875 26.101562 21.789062 26.101562 21.632812 C 26.101562 21.476562 26.15625 21.339844 26.265625 21.230469 C 26.378906 21.117188 26.511719 21.0625 26.667969 21.0625 C 26.828125 21.0625 26.960938 21.117188 27.074219 21.230469 C 27.183594 21.339844 27.238281 21.476562 27.238281 21.632812 Z M 27.238281 21.632812 " fill-opacity="1" fill-rule="nonzero"/><path fill="#000000" d="M 24.394531 21.0625 L 23.253906 21.0625 C 22.941406 21.0625 22.683594 21.316406 22.683594 21.632812 C 22.683594 21.945312 22.941406 22.199219 23.253906 22.199219 L 24.394531 22.199219 C 24.707031 22.199219 24.960938 21.945312 24.960938 21.632812 C 24.960938 21.316406 24.707031 21.0625 24.394531 21.0625 Z M 24.394531 21.0625 " fill-opacity="1" fill-rule="nonzero"/><path fill="#000000" d="M 20.976562 21.0625 L 19.839844 21.0625 C 19.523438 21.0625 19.269531 21.316406 19.269531 21.632812 C 19.269531 21.945312 19.523438 22.199219 19.839844 22.199219 L 20.976562 22.199219 C 21.292969 22.199219 21.546875 21.945312 21.546875 21.632812 C 21.546875 21.316406 21.292969 21.0625 20.976562 21.0625 Z M 20.976562 21.0625 " fill-opacity="1" fill-rule="nonzero"/></svg>