<svg xmlns="http://www.w3.org/2000/svg" xmlns:xlink="http://www.w3.org/1999/xlink" width="40" zoomAndPan="magnify" viewBox="0 0 30 30.000001" height="40" preserveAspectRatio="xMidYMid meet" version="1.0"><defs><clipPath id="928636227e"><path d="M 1 0.519531 L 29.226562 0.519531 L 29.226562 28.824219 L 1 28.824219 Z M 1 0.519531 " clip-rule="nonzero"/></clipPath></defs><g clip-path="url(#928636227e)"><path fill="#ffffff" d="M 27.269531 1.367188 L 23.746094 1.367188 L 23.746094 0.957031 C 23.746094 0.714844 23.550781 0.519531 23.308594 0.519531 L 16.589844 0.519531 C 16.351562 0.519531 16.152344 0.714844 16.152344 0.957031 L 16.152344 1.367188 L 12.632812 1.367188 C 11.636719 1.367188 10.824219 2.175781 10.824219 3.175781 L 10.824219 6.039062 C 10.050781 5.683594 9.320312 5.269531 8.628906 4.789062 C 8.480469 4.6875 8.28125 4.6875 8.132812 4.789062 C 6.246094 6.09375 4.070312 6.933594 1.484375 7.359375 C 1.28125 7.390625 1.128906 7.5625 1.117188 7.769531 C 0.921875 12.007812 1.683594 15.359375 3.382812 17.742188 C 2.976562 18.265625 2.734375 18.925781 2.734375 19.640625 C 2.734375 20.535156 3.113281 21.34375 3.722656 21.914062 C 2.234375 22.128906 1.085938 23.410156 1.085938 24.957031 L 1.085938 28.070312 C 1.085938 28.3125 1.28125 28.507812 1.523438 28.507812 L 10.164062 28.507812 C 10.40625 28.507812 10.601562 28.3125 10.601562 28.070312 L 10.601562 24.957031 C 10.601562 23.410156 9.453125 22.128906 7.964844 21.914062 C 8.140625 21.75 8.296875 21.566406 8.433594 21.363281 C 8.464844 21.359375 8.5 21.351562 8.53125 21.339844 C 9.367188 21.03125 10.132812 20.648438 10.824219 20.191406 L 10.824219 23.285156 C 10.824219 24.28125 11.636719 25.09375 12.632812 25.09375 L 27.269531 25.09375 C 28.265625 25.09375 29.078125 24.28125 29.078125 23.285156 L 29.078125 3.175781 C 29.078125 2.175781 28.265625 1.367188 27.269531 1.367188 Z M 13.242188 17.921875 C 13.535156 17.53125 13.800781 17.117188 14.042969 16.675781 C 15.269531 14.410156 15.808594 11.414062 15.640625 7.769531 C 15.632812 7.5625 15.480469 7.390625 15.273438 7.359375 C 14.566406 7.242188 13.890625 7.09375 13.242188 6.914062 L 13.242188 4.957031 C 13.242188 4.578125 13.550781 4.265625 13.933594 4.265625 L 16.152344 4.265625 L 16.152344 4.675781 C 16.152344 4.917969 16.351562 5.113281 16.589844 5.113281 L 23.308594 5.113281 C 23.550781 5.113281 23.746094 4.917969 23.746094 4.675781 L 23.746094 4.265625 L 25.972656 4.265625 C 26.351562 4.265625 26.660156 4.578125 26.660156 4.957031 L 26.660156 21.5 C 26.660156 21.882812 26.351562 22.191406 25.972656 22.191406 L 13.933594 22.191406 C 13.550781 22.191406 13.242188 21.882812 13.242188 21.5 Z M 17.027344 1.390625 L 22.875 1.390625 L 22.875 4.242188 L 17.027344 4.242188 Z M 11.699219 3.175781 C 11.699219 2.660156 12.117188 2.238281 12.632812 2.238281 L 16.152344 2.238281 L 16.152344 3.394531 L 13.933594 3.394531 C 13.070312 3.394531 12.367188 4.09375 12.367188 4.957031 L 12.367188 6.648438 C 12.140625 6.570312 11.917969 6.492188 11.699219 6.40625 Z M 3.605469 19.640625 C 3.605469 18.40625 4.609375 17.40625 5.84375 17.40625 C 7.078125 17.40625 8.082031 18.40625 8.082031 19.640625 C 8.082031 20.875 7.078125 21.878906 5.84375 21.878906 C 4.609375 21.878906 3.605469 20.875 3.605469 19.640625 Z M 6.289062 16.5625 C 4.902344 15.050781 4.191406 12.863281 4.121094 9.882812 C 5.65625 9.492188 7.085938 8.925781 8.378906 8.195312 C 9.667969 8.921875 11.101562 9.488281 12.640625 9.882812 C 12.539062 14.003906 11.183594 16.675781 8.507812 18.035156 C 8.035156 17.253906 7.230469 16.699219 6.289062 16.5625 Z M 9.726562 24.957031 L 9.726562 27.632812 L 1.960938 27.632812 L 1.960938 24.957031 C 1.960938 23.742188 2.949219 22.753906 4.164062 22.753906 L 7.527344 22.753906 C 8.738281 22.753906 9.726562 23.742188 9.726562 24.957031 Z M 8.851562 18.839844 C 10.496094 18.019531 11.722656 16.742188 12.492188 15.042969 C 13.164062 13.554688 13.503906 11.753906 13.519531 9.546875 C 13.519531 9.339844 13.378906 9.164062 13.183594 9.117188 C 11.507812 8.722656 9.964844 8.113281 8.601562 7.316406 C 8.464844 7.234375 8.296875 7.234375 8.160156 7.316406 C 6.789062 8.117188 5.25 8.722656 3.578125 9.117188 C 3.378906 9.164062 3.238281 9.339844 3.238281 9.546875 C 3.261719 12.585938 3.902344 14.902344 5.183594 16.601562 C 4.757812 16.695312 4.359375 16.875 4.019531 17.125 C 2.535156 14.976562 1.847656 11.964844 1.976562 8.160156 C 4.429688 7.714844 6.53125 6.902344 8.378906 5.679688 C 9.675781 6.535156 11.09375 7.191406 12.671875 7.660156 C 12.675781 7.660156 12.675781 7.660156 12.675781 7.660156 C 13.347656 7.859375 14.050781 8.027344 14.78125 8.160156 C 14.917969 12.199219 14.171875 15.28125 12.507812 17.457031 C 12.472656 17.492188 12.441406 17.527344 12.417969 17.570312 C 12.007812 18.089844 11.542969 18.558594 11.027344 18.96875 C 11 18.988281 10.980469 19.003906 10.957031 19.023438 C 10.34375 19.503906 9.65625 19.914062 8.894531 20.25 C 8.933594 20.054688 8.953125 19.847656 8.953125 19.640625 C 8.953125 19.363281 8.917969 19.09375 8.851562 18.839844 Z M 28.203125 23.285156 C 28.203125 23.800781 27.785156 24.21875 27.269531 24.21875 L 12.632812 24.21875 C 12.117188 24.21875 11.699219 23.800781 11.699219 23.285156 L 11.699219 19.542969 C 11.933594 19.347656 12.15625 19.144531 12.367188 18.933594 L 12.367188 21.5 C 12.367188 22.363281 13.070312 23.066406 13.933594 23.066406 L 25.972656 23.066406 C 26.832031 23.066406 27.535156 22.363281 27.535156 21.5 L 27.535156 4.957031 C 27.535156 4.09375 26.832031 3.394531 25.972656 3.394531 L 23.746094 3.394531 L 23.746094 2.238281 L 27.269531 2.238281 C 27.785156 2.238281 28.203125 2.660156 28.203125 3.175781 Z M 10.746094 12.171875 L 8.203125 14.714844 C 8.121094 14.796875 8.011719 14.84375 7.894531 14.84375 C 7.777344 14.84375 7.667969 14.796875 7.585938 14.714844 L 6.011719 13.144531 C 5.84375 12.972656 5.84375 12.695312 6.011719 12.527344 C 6.183594 12.355469 6.460938 12.355469 6.632812 12.527344 L 7.894531 13.789062 L 10.128906 11.554688 C 10.300781 11.386719 10.574219 11.386719 10.746094 11.554688 C 10.917969 11.726562 10.917969 12.003906 10.746094 12.171875 Z M 21.839844 10.214844 L 24.953125 10.214844 C 25.195312 10.214844 25.390625 10.019531 25.390625 9.777344 L 25.390625 6.664062 C 25.390625 6.421875 25.195312 6.226562 24.953125 6.226562 L 21.839844 6.226562 C 21.597656 6.226562 21.402344 6.421875 21.402344 6.664062 L 21.402344 9.777344 C 21.402344 10.019531 21.597656 10.214844 21.839844 10.214844 Z M 22.273438 7.101562 L 24.515625 7.101562 L 24.515625 9.34375 L 22.273438 9.34375 Z M 21.839844 15.648438 L 24.953125 15.648438 C 25.195312 15.648438 25.390625 15.453125 25.390625 15.210938 L 25.390625 12.09375 C 25.390625 11.855469 25.195312 11.660156 24.953125 11.660156 L 21.839844 11.660156 C 21.597656 11.660156 21.402344 11.855469 21.402344 12.09375 L 21.402344 15.210938 C 21.402344 15.453125 21.597656 15.648438 21.839844 15.648438 Z M 22.273438 12.53125 L 24.515625 12.53125 L 24.515625 14.773438 L 22.273438 14.773438 Z M 21.839844 21.082031 L 24.953125 21.082031 C 25.195312 21.082031 25.390625 20.882812 25.390625 20.644531 L 25.390625 17.527344 C 25.390625 17.285156 25.195312 17.089844 24.953125 17.089844 L 21.839844 17.089844 C 21.597656 17.089844 21.402344 17.285156 21.402344 17.527344 L 21.402344 20.644531 C 21.402344 20.882812 21.597656 21.082031 21.839844 21.082031 Z M 22.273438 17.964844 L 24.515625 17.964844 L 24.515625 20.207031 L 22.273438 20.207031 Z M 16.050781 6.664062 C 16.050781 6.421875 16.246094 6.226562 16.488281 6.226562 L 20.546875 6.226562 C 20.789062 6.226562 20.984375 6.421875 20.984375 6.664062 C 20.984375 6.902344 20.789062 7.101562 20.546875 7.101562 L 16.488281 7.101562 C 16.246094 7.101562 16.050781 6.902344 16.050781 6.664062 Z M 16.050781 9.777344 C 16.050781 9.539062 16.246094 9.34375 16.488281 9.34375 L 20.546875 9.34375 C 20.789062 9.34375 20.984375 9.539062 20.984375 9.777344 C 20.984375 10.019531 20.789062 10.214844 20.546875 10.214844 L 16.488281 10.214844 C 16.246094 10.214844 16.050781 10.019531 16.050781 9.777344 Z M 16.050781 8.21875 C 16.050781 7.980469 16.246094 7.78125 16.488281 7.78125 L 20.546875 7.78125 C 20.789062 7.78125 20.984375 7.980469 20.984375 8.21875 C 20.984375 8.460938 20.789062 8.65625 20.546875 8.65625 L 16.488281 8.65625 C 16.246094 8.65625 16.050781 8.460938 16.050781 8.21875 Z M 15.847656 12.09375 C 15.847656 11.855469 16.042969 11.660156 16.28125 11.660156 L 20.34375 11.660156 C 20.585938 11.660156 20.78125 11.855469 20.78125 12.09375 C 20.78125 12.335938 20.585938 12.53125 20.34375 12.53125 L 16.28125 12.53125 C 16.042969 12.53125 15.847656 12.335938 15.847656 12.09375 Z M 15.847656 15.210938 C 15.847656 14.96875 16.042969 14.773438 16.28125 14.773438 L 20.34375 14.773438 C 20.585938 14.773438 20.78125 14.96875 20.78125 15.210938 C 20.78125 15.453125 20.585938 15.648438 20.34375 15.648438 L 16.28125 15.648438 C 16.042969 15.648438 15.847656 15.453125 15.847656 15.210938 Z M 15.847656 13.652344 C 15.847656 13.410156 16.042969 13.214844 16.28125 13.214844 L 20.34375 13.214844 C 20.585938 13.214844 20.78125 13.410156 20.78125 13.652344 C 20.78125 13.894531 20.585938 14.089844 20.34375 14.089844 L 16.28125 14.089844 C 16.042969 14.089844 15.847656 13.894531 15.847656 13.652344 Z M 15.640625 17.527344 C 15.640625 17.285156 15.835938 17.089844 16.078125 17.089844 L 20.136719 17.089844 C 20.378906 17.089844 20.574219 17.285156 20.574219 17.527344 C 20.574219 17.769531 20.378906 17.964844 20.136719 17.964844 L 16.078125 17.964844 C 15.835938 17.964844 15.640625 17.769531 15.640625 17.527344 Z M 15.640625 20.644531 C 15.640625 20.402344 15.835938 20.207031 16.078125 20.207031 L 20.136719 20.207031 C 20.378906 20.207031 20.574219 20.402344 20.574219 20.644531 C 20.574219 20.882812 20.378906 21.078125 20.136719 21.078125 L 16.078125 21.078125 C 15.835938 21.082031 15.640625 20.882812 15.640625 20.644531 Z M 15.640625 19.085938 C 15.640625 18.84375 15.835938 18.648438 16.078125 18.648438 L 20.136719 18.648438 C 20.378906 18.648438 20.574219 18.84375 20.574219 19.085938 C 20.574219 19.328125 20.378906 19.523438 20.136719 19.523438 L 16.078125 19.523438 C 15.835938 19.523438 15.640625 19.328125 15.640625 19.085938 Z M 15.640625 19.085938 " fill-opacity="1" fill-rule="nonzero"/></g></svg>