<svg xmlns="http://www.w3.org/2000/svg" xmlns:xlink="http://www.w3.org/1999/xlink" width="40" zoomAndPan="magnify" viewBox="0 0 30 30.000001" height="40" preserveAspectRatio="xMidYMid meet" version="1.0"><defs><clipPath id="2a8c74417f"><path d="M 1 0.519531 L 29.226562 0.519531 L 29.226562 28.824219 L 1 28.824219 Z M 1 0.519531 " clip-rule="nonzero"/></clipPath></defs><g clip-path="url(#2a8c74417f)"><path fill="#000000" d="M 27.40625 1.375 L 23.867188 1.375 L 23.867188 0.960938 C 23.867188 0.714844 23.671875 0.519531 23.425781 0.519531 L 16.671875 0.519531 C 16.429688 0.519531 16.234375 0.714844 16.234375 0.960938 L 16.234375 1.375 L 12.695312 1.375 C 11.691406 1.375 10.875 2.195312 10.875 3.203125 L 10.875 6.101562 C 10.097656 5.742188 9.363281 5.324219 8.667969 4.839844 C 8.519531 4.734375 8.320312 4.734375 8.167969 4.839844 C 6.273438 6.15625 4.089844 7.007812 1.488281 7.4375 C 1.28125 7.46875 1.128906 7.644531 1.121094 7.851562 C 0.921875 12.136719 1.6875 15.527344 3.394531 17.9375 C 2.988281 18.46875 2.742188 19.132812 2.742188 19.859375 C 2.742188 20.765625 3.125 21.582031 3.738281 22.15625 C 2.242188 22.371094 1.089844 23.667969 1.089844 25.234375 L 1.089844 28.382812 C 1.089844 28.628906 1.285156 28.824219 1.527344 28.824219 L 10.210938 28.824219 C 10.453125 28.824219 10.652344 28.628906 10.652344 28.382812 L 10.652344 25.234375 C 10.652344 23.667969 9.5 22.371094 8.003906 22.15625 C 8.179688 21.988281 8.335938 21.804688 8.472656 21.601562 C 8.503906 21.597656 8.539062 21.589844 8.570312 21.578125 C 9.410156 21.265625 10.179688 20.875 10.875 20.414062 L 10.875 23.542969 C 10.875 24.550781 11.691406 25.371094 12.695312 25.371094 L 27.40625 25.371094 C 28.410156 25.371094 29.222656 24.550781 29.222656 23.542969 L 29.222656 3.203125 C 29.222656 2.195312 28.410156 1.375 27.40625 1.375 Z M 13.304688 18.121094 C 13.601562 17.726562 13.871094 17.304688 14.109375 16.859375 C 15.347656 14.566406 15.886719 11.535156 15.71875 7.851562 C 15.707031 7.644531 15.554688 7.46875 15.351562 7.4375 C 14.636719 7.316406 13.957031 7.167969 13.304688 6.984375 L 13.304688 5.007812 C 13.304688 4.621094 13.617188 4.308594 14 4.308594 L 16.234375 4.308594 L 16.234375 4.726562 C 16.234375 4.96875 16.429688 5.167969 16.671875 5.167969 L 23.425781 5.167969 C 23.671875 5.167969 23.867188 4.96875 23.867188 4.726562 L 23.867188 4.308594 L 26.101562 4.308594 C 26.484375 4.308594 26.796875 4.621094 26.796875 5.007812 L 26.796875 21.738281 C 26.796875 22.125 26.484375 22.4375 26.101562 22.4375 L 14 22.4375 C 13.617188 22.4375 13.304688 22.125 13.304688 21.738281 Z M 17.113281 1.402344 L 22.988281 1.402344 L 22.988281 4.28125 L 17.113281 4.28125 Z M 11.753906 3.203125 C 11.753906 2.683594 12.175781 2.257812 12.695312 2.257812 L 16.234375 2.257812 L 16.234375 3.425781 L 14 3.425781 C 13.132812 3.425781 12.425781 4.136719 12.425781 5.007812 L 12.425781 6.714844 C 12.199219 6.640625 11.976562 6.558594 11.753906 6.472656 Z M 3.621094 19.859375 C 3.621094 18.609375 4.628906 17.597656 5.871094 17.597656 C 7.109375 17.597656 8.117188 18.609375 8.117188 19.859375 C 8.117188 21.105469 7.109375 22.121094 5.871094 22.121094 C 4.628906 22.121094 3.621094 21.105469 3.621094 19.859375 Z M 6.316406 16.746094 C 4.925781 15.21875 4.207031 13.003906 4.136719 9.988281 C 5.683594 9.59375 7.121094 9.019531 8.417969 8.28125 C 9.714844 9.019531 11.152344 9.59375 12.699219 9.988281 C 12.601562 14.160156 11.238281 16.859375 8.546875 18.234375 C 8.070312 17.445312 7.261719 16.882812 6.316406 16.746094 Z M 9.773438 25.234375 L 9.773438 27.941406 L 1.96875 27.941406 L 1.96875 25.234375 C 1.96875 24.003906 2.960938 23.007812 4.179688 23.007812 L 7.5625 23.007812 C 8.78125 23.007812 9.773438 24.003906 9.773438 25.234375 Z M 8.890625 19.046875 C 10.546875 18.21875 11.777344 16.929688 12.550781 15.210938 C 13.230469 13.703125 13.566406 11.882812 13.585938 9.648438 C 13.585938 9.441406 13.445312 9.261719 13.246094 9.214844 C 11.5625 8.8125 10.015625 8.199219 8.640625 7.390625 C 8.503906 7.3125 8.335938 7.3125 8.195312 7.390625 C 6.820312 8.203125 5.269531 8.816406 3.589844 9.214844 C 3.390625 9.261719 3.25 9.441406 3.253906 9.648438 C 3.277344 12.722656 3.917969 15.066406 5.207031 16.785156 C 4.777344 16.878906 4.378906 17.0625 4.035156 17.3125 C 2.542969 15.140625 1.855469 12.09375 1.984375 8.246094 C 4.449219 7.796875 6.5625 6.972656 8.417969 5.734375 C 9.722656 6.605469 11.148438 7.269531 12.734375 7.742188 C 12.734375 7.742188 12.738281 7.742188 12.738281 7.742188 C 13.414062 7.945312 14.117188 8.113281 14.855469 8.246094 C 14.992188 12.332031 14.238281 15.449219 12.566406 17.648438 C 12.53125 17.683594 12.503906 17.722656 12.480469 17.765625 C 12.066406 18.289062 11.601562 18.761719 11.078125 19.179688 C 11.054688 19.195312 11.03125 19.214844 11.011719 19.234375 C 10.394531 19.722656 9.703125 20.132812 8.9375 20.476562 C 8.976562 20.273438 8.996094 20.070312 8.996094 19.855469 C 8.996094 19.578125 8.960938 19.304688 8.890625 19.046875 Z M 28.34375 23.542969 C 28.34375 24.066406 27.925781 24.488281 27.40625 24.488281 L 12.695312 24.488281 C 12.175781 24.488281 11.753906 24.066406 11.753906 23.542969 L 11.753906 19.757812 C 11.988281 19.5625 12.214844 19.355469 12.425781 19.140625 L 12.425781 21.738281 C 12.425781 22.613281 13.132812 23.320312 14 23.320312 L 26.101562 23.320312 C 26.96875 23.320312 27.671875 22.613281 27.671875 21.738281 L 27.671875 5.007812 C 27.671875 4.136719 26.96875 3.425781 26.101562 3.425781 L 23.867188 3.425781 L 23.867188 2.257812 L 27.40625 2.257812 C 27.925781 2.257812 28.34375 2.683594 28.34375 3.203125 Z M 10.796875 12.304688 L 8.242188 14.878906 C 8.160156 14.960938 8.046875 15.007812 7.929688 15.007812 C 7.816406 15.007812 7.703125 14.960938 7.621094 14.878906 L 6.039062 13.285156 C 5.867188 13.113281 5.867188 12.835938 6.039062 12.660156 C 6.210938 12.488281 6.488281 12.488281 6.660156 12.660156 L 7.929688 13.941406 L 10.175781 11.679688 C 10.347656 11.507812 10.625 11.507812 10.796875 11.679688 C 10.96875 11.851562 10.96875 12.132812 10.796875 12.304688 Z M 21.949219 10.324219 L 25.082031 10.324219 C 25.324219 10.324219 25.519531 10.128906 25.519531 9.882812 L 25.519531 6.730469 C 25.519531 6.488281 25.324219 6.289062 25.082031 6.289062 L 21.949219 6.289062 C 21.703125 6.289062 21.507812 6.488281 21.507812 6.730469 L 21.507812 9.882812 C 21.507812 10.128906 21.703125 10.324219 21.949219 10.324219 Z M 22.386719 7.175781 L 24.640625 7.175781 L 24.640625 9.441406 L 22.386719 9.441406 Z M 21.949219 15.820312 L 25.082031 15.820312 C 25.324219 15.820312 25.519531 15.621094 25.519531 15.378906 L 25.519531 12.226562 C 25.519531 11.984375 25.324219 11.785156 25.082031 11.785156 L 21.949219 11.785156 C 21.703125 11.785156 21.507812 11.984375 21.507812 12.226562 L 21.507812 15.378906 C 21.507812 15.621094 21.703125 15.820312 21.949219 15.820312 Z M 22.386719 12.667969 L 24.640625 12.667969 L 24.640625 14.9375 L 22.386719 14.9375 Z M 21.949219 21.3125 L 25.082031 21.3125 C 25.324219 21.3125 25.519531 21.117188 25.519531 20.871094 L 25.519531 17.71875 C 25.519531 17.476562 25.324219 17.277344 25.082031 17.277344 L 21.949219 17.277344 C 21.703125 17.277344 21.507812 17.476562 21.507812 17.71875 L 21.507812 20.871094 C 21.507812 21.117188 21.703125 21.3125 21.949219 21.3125 Z M 22.386719 18.160156 L 24.640625 18.160156 L 24.640625 20.429688 L 22.386719 20.429688 Z M 16.132812 6.730469 C 16.132812 6.488281 16.328125 6.289062 16.570312 6.289062 L 20.648438 6.289062 C 20.894531 6.289062 21.089844 6.488281 21.089844 6.730469 C 21.089844 6.976562 20.894531 7.175781 20.648438 7.175781 L 16.570312 7.175781 C 16.328125 7.175781 16.132812 6.976562 16.132812 6.730469 Z M 16.132812 9.882812 C 16.132812 9.640625 16.328125 9.441406 16.570312 9.441406 L 20.648438 9.441406 C 20.894531 9.441406 21.089844 9.640625 21.089844 9.882812 C 21.089844 10.128906 20.894531 10.324219 20.648438 10.324219 L 16.570312 10.324219 C 16.328125 10.324219 16.132812 10.128906 16.132812 9.882812 Z M 16.132812 8.308594 C 16.132812 8.0625 16.328125 7.867188 16.570312 7.867188 L 20.648438 7.867188 C 20.894531 7.867188 21.089844 8.0625 21.089844 8.308594 C 21.089844 8.550781 20.894531 8.75 20.648438 8.75 L 16.570312 8.75 C 16.328125 8.75 16.132812 8.550781 16.132812 8.308594 Z M 15.925781 12.226562 C 15.925781 11.984375 16.121094 11.785156 16.363281 11.785156 L 20.445312 11.785156 C 20.6875 11.785156 20.882812 11.984375 20.882812 12.226562 C 20.882812 12.472656 20.6875 12.667969 20.445312 12.667969 L 16.363281 12.667969 C 16.121094 12.667969 15.925781 12.472656 15.925781 12.226562 Z M 15.925781 15.378906 C 15.925781 15.132812 16.121094 14.9375 16.363281 14.9375 L 20.445312 14.9375 C 20.6875 14.9375 20.882812 15.132812 20.882812 15.378906 C 20.882812 15.621094 20.6875 15.820312 20.445312 15.820312 L 16.363281 15.820312 C 16.121094 15.820312 15.925781 15.621094 15.925781 15.378906 Z M 15.925781 13.800781 C 15.925781 13.558594 16.121094 13.359375 16.363281 13.359375 L 20.445312 13.359375 C 20.6875 13.359375 20.882812 13.558594 20.882812 13.800781 C 20.882812 14.046875 20.6875 14.242188 20.445312 14.242188 L 16.363281 14.242188 C 16.121094 14.242188 15.925781 14.046875 15.925781 13.800781 Z M 15.71875 17.722656 C 15.71875 17.476562 15.914062 17.28125 16.15625 17.28125 L 20.238281 17.28125 C 20.480469 17.28125 20.675781 17.476562 20.675781 17.722656 C 20.675781 17.964844 20.480469 18.164062 20.238281 18.164062 L 16.15625 18.164062 C 15.914062 18.164062 15.71875 17.964844 15.71875 17.722656 Z M 15.71875 20.871094 C 15.71875 20.628906 15.914062 20.429688 16.15625 20.429688 L 20.238281 20.429688 C 20.480469 20.429688 20.675781 20.628906 20.675781 20.871094 C 20.675781 21.117188 20.480469 21.3125 20.238281 21.3125 L 16.15625 21.3125 C 15.914062 21.3125 15.71875 21.117188 15.71875 20.871094 Z M 15.71875 19.296875 C 15.71875 19.050781 15.914062 18.855469 16.15625 18.855469 L 20.238281 18.855469 C 20.480469 18.855469 20.675781 19.050781 20.675781 19.296875 C 20.675781 19.539062 20.480469 19.738281 20.238281 19.738281 L 16.15625 19.738281 C 15.914062 19.738281 15.71875 19.539062 15.71875 19.296875 Z M 15.71875 19.296875 " fill-opacity="1" fill-rule="nonzero"/></g></svg>