<svg xmlns="http://www.w3.org/2000/svg" xmlns:xlink="http://www.w3.org/1999/xlink" width="40" zoomAndPan="magnify" viewBox="0 0 30 30.000001" height="40" preserveAspectRatio="xMidYMid meet" version="1.0"><defs><clipPath id="c62bec5113"><path d="M 1.226562 0.882812 L 28.804688 0.882812 L 28.804688 29.03125 L 1.226562 29.03125 Z M 1.226562 0.882812 " clip-rule="nonzero"/></clipPath></defs><g clip-path="url(#c62bec5113)"><path fill="#ffffff" d="M 11.222656 9.308594 C 8.820312 9.308594 6.863281 11.261719 6.863281 13.664062 C 6.863281 16.066406 8.820312 18.023438 11.222656 18.023438 C 13.625 18.023438 15.578125 16.066406 15.578125 13.664062 C 15.578125 11.261719 13.625 9.308594 11.222656 9.308594 Z M 11.222656 17.195312 C 9.273438 17.195312 7.691406 15.609375 7.691406 13.664062 C 7.691406 11.71875 9.273438 10.136719 11.222656 10.136719 C 13.167969 10.136719 14.75 11.71875 14.75 13.664062 C 14.75 15.609375 13.167969 17.195312 11.222656 17.195312 Z M 12.855469 12.6875 C 12.855469 13.445312 12.335938 14.085938 11.636719 14.269531 L 11.636719 14.613281 C 11.636719 14.839844 11.449219 15.027344 11.222656 15.027344 C 10.992188 15.027344 10.808594 14.839844 10.808594 14.613281 L 10.808594 13.910156 C 10.808594 13.679688 10.992188 13.496094 11.222656 13.496094 C 11.667969 13.496094 12.027344 13.132812 12.027344 12.6875 C 12.027344 12.242188 11.667969 11.882812 11.222656 11.882812 C 10.777344 11.882812 10.414062 12.242188 10.414062 12.6875 C 10.414062 12.777344 10.429688 12.867188 10.460938 12.953125 C 10.535156 13.167969 10.421875 13.40625 10.203125 13.480469 C 9.988281 13.554688 9.753906 13.441406 9.679688 13.226562 C 9.617188 13.050781 9.585938 12.871094 9.585938 12.6875 C 9.585938 11.789062 10.320312 11.054688 11.222656 11.054688 C 12.121094 11.054688 12.855469 11.789062 12.855469 12.6875 Z M 11.683594 15.765625 C 11.683594 16.023438 11.476562 16.230469 11.222656 16.230469 C 10.96875 16.230469 10.757812 16.023438 10.757812 15.765625 C 10.757812 15.511719 10.96875 15.304688 11.222656 15.304688 C 11.476562 15.304688 11.683594 15.511719 11.683594 15.765625 Z M 27.902344 9.738281 L 20.949219 9.738281 C 20.480469 9.738281 20.097656 10.121094 20.097656 10.589844 L 20.097656 13.25 L 17.128906 13.25 C 17.035156 11.929688 16.507812 10.726562 15.6875 9.78125 L 17.863281 7.605469 C 17.964844 7.964844 18.292969 8.230469 18.683594 8.230469 L 25.636719 8.230469 C 26.105469 8.230469 26.488281 7.847656 26.488281 7.378906 L 26.488281 1.734375 C 26.488281 1.265625 26.105469 0.882812 25.636719 0.882812 L 18.683594 0.882812 C 18.214844 0.882812 17.832031 1.265625 17.832031 1.734375 L 17.832031 6.46875 L 15.105469 9.195312 C 14.0625 8.292969 12.707031 7.742188 11.222656 7.742188 C 7.957031 7.742188 5.300781 10.398438 5.300781 13.664062 C 5.300781 14.746094 5.589844 15.789062 6.140625 16.707031 L 1.785156 21.0625 C 1.785156 21.066406 1.78125 21.066406 1.777344 21.070312 C 1.242188 21.636719 1.25 22.542969 1.796875 23.089844 C 2.074219 23.371094 2.445312 23.511719 2.8125 23.511719 C 3.183594 23.511719 3.550781 23.371094 3.832031 23.089844 C 3.832031 23.089844 3.835938 23.089844 3.835938 23.089844 L 8.179688 18.746094 C 8.976562 19.226562 9.875 19.507812 10.808594 19.570312 L 10.808594 21.683594 L 7.882812 21.683594 C 7.414062 21.683594 7.03125 22.066406 7.03125 22.535156 L 7.03125 28.179688 C 7.03125 28.648438 7.414062 29.03125 7.882812 29.03125 L 14.835938 29.03125 C 15.304688 29.03125 15.6875 28.648438 15.6875 28.179688 L 15.6875 22.535156 C 15.6875 22.066406 15.304688 21.683594 14.835938 21.683594 L 11.636719 21.683594 L 11.636719 19.570312 C 12.957031 19.480469 14.160156 18.953125 15.105469 18.132812 L 17.832031 20.863281 L 17.832031 25.59375 C 17.832031 26.0625 18.214844 26.445312 18.683594 26.445312 L 25.636719 26.445312 C 26.105469 26.445312 26.488281 26.0625 26.488281 25.59375 L 26.488281 19.949219 C 26.488281 19.480469 26.105469 19.097656 25.636719 19.097656 L 18.683594 19.097656 C 18.292969 19.097656 17.964844 19.363281 17.863281 19.722656 L 15.6875 17.546875 C 16.507812 16.605469 17.035156 15.402344 17.128906 14.078125 L 20.097656 14.078125 L 20.097656 16.234375 C 20.097656 16.703125 20.480469 17.085938 20.949219 17.085938 L 27.902344 17.085938 C 28.371094 17.085938 28.753906 16.703125 28.753906 16.234375 L 28.753906 10.589844 C 28.753906 10.121094 28.371094 9.738281 27.902344 9.738281 Z M 14.859375 22.535156 L 14.859375 28.179688 C 14.859375 28.191406 14.847656 28.203125 14.835938 28.203125 L 7.882812 28.203125 C 7.871094 28.203125 7.859375 28.191406 7.859375 28.179688 L 7.859375 22.535156 C 7.859375 22.523438 7.871094 22.511719 7.882812 22.511719 L 14.835938 22.511719 C 14.847656 22.511719 14.859375 22.523438 14.859375 22.535156 Z M 18.660156 1.734375 C 18.660156 1.722656 18.671875 1.710938 18.683594 1.710938 L 25.636719 1.710938 C 25.648438 1.710938 25.660156 1.722656 25.660156 1.734375 L 25.660156 7.378906 C 25.660156 7.390625 25.648438 7.402344 25.636719 7.402344 L 18.683594 7.402344 C 18.671875 7.402344 18.660156 7.390625 18.660156 7.378906 Z M 18.660156 19.949219 C 18.660156 19.9375 18.671875 19.925781 18.683594 19.925781 L 25.636719 19.925781 C 25.648438 19.925781 25.660156 19.9375 25.660156 19.949219 L 25.660156 25.59375 C 25.660156 25.605469 25.648438 25.617188 25.636719 25.617188 L 18.683594 25.617188 C 18.671875 25.617188 18.660156 25.605469 18.660156 25.59375 Z M 11.222656 18.757812 C 10.191406 18.757812 9.199219 18.453125 8.355469 17.875 C 8.191406 17.765625 7.96875 17.785156 7.828125 17.925781 L 3.25 22.503906 C 3.007812 22.742188 2.621094 22.746094 2.382812 22.503906 C 2.148438 22.273438 2.148438 21.886719 2.375 21.644531 L 6.960938 17.058594 C 7.101562 16.917969 7.121094 16.695312 7.011719 16.53125 C 6.433594 15.6875 6.128906 14.695312 6.128906 13.664062 C 6.128906 10.855469 8.414062 8.570312 11.222656 8.570312 C 14.03125 8.570312 16.316406 10.855469 16.316406 13.664062 C 16.316406 16.472656 14.03125 18.757812 11.222656 18.757812 Z M 27.925781 16.234375 C 27.925781 16.246094 27.914062 16.257812 27.902344 16.257812 L 20.949219 16.257812 C 20.9375 16.257812 20.925781 16.246094 20.925781 16.234375 L 20.925781 10.589844 C 20.925781 10.578125 20.9375 10.566406 20.949219 10.566406 L 27.902344 10.566406 C 27.914062 10.566406 27.925781 10.578125 27.925781 10.589844 Z M 27.164062 15.058594 C 27.164062 15.289062 26.980469 15.472656 26.75 15.472656 L 24.808594 15.472656 C 24.578125 15.472656 24.394531 15.289062 24.394531 15.058594 C 24.394531 14.832031 24.578125 14.644531 24.808594 14.644531 L 26.75 14.644531 C 26.980469 14.644531 27.164062 14.832031 27.164062 15.058594 Z M 23.863281 15.058594 C 23.863281 15.289062 23.679688 15.472656 23.449219 15.472656 L 22.101562 15.472656 C 21.871094 15.472656 21.6875 15.289062 21.6875 15.058594 C 21.6875 14.832031 21.871094 14.644531 22.101562 14.644531 L 23.449219 14.644531 C 23.679688 14.644531 23.863281 14.832031 23.863281 15.058594 Z M 21.6875 11.765625 C 21.6875 11.535156 21.871094 11.351562 22.101562 11.351562 L 22.960938 11.351562 C 23.191406 11.351562 23.375 11.535156 23.375 11.765625 C 23.375 11.992188 23.191406 12.179688 22.960938 12.179688 L 22.101562 12.179688 C 21.871094 12.179688 21.6875 11.992188 21.6875 11.765625 Z M 27.164062 11.765625 C 27.164062 11.992188 26.980469 12.179688 26.75 12.179688 L 24.375 12.179688 C 24.148438 12.179688 23.960938 11.992188 23.960938 11.765625 C 23.960938 11.535156 24.148438 11.351562 24.375 11.351562 L 26.75 11.351562 C 26.980469 11.351562 27.164062 11.535156 27.164062 11.765625 Z M 21.6875 13.410156 C 21.6875 13.183594 21.871094 12.996094 22.101562 12.996094 L 24.578125 12.996094 C 24.804688 12.996094 24.992188 13.183594 24.992188 13.410156 C 24.992188 13.640625 24.804688 13.824219 24.578125 13.824219 L 22.101562 13.824219 C 21.871094 13.824219 21.6875 13.640625 21.6875 13.410156 Z M 27.164062 13.410156 C 27.164062 13.640625 26.980469 13.824219 26.75 13.824219 L 26.175781 13.824219 C 25.949219 13.824219 25.765625 13.640625 25.765625 13.410156 C 25.765625 13.183594 25.949219 12.996094 26.175781 12.996094 L 26.75 12.996094 C 26.980469 12.996094 27.164062 13.183594 27.164062 13.410156 Z M 24.898438 24.421875 C 24.898438 24.648438 24.714844 24.832031 24.484375 24.832031 L 22.542969 24.832031 C 22.3125 24.832031 22.128906 24.648438 22.128906 24.421875 C 22.128906 24.191406 22.3125 24.007812 22.542969 24.007812 L 24.484375 24.007812 C 24.714844 24.007812 24.898438 24.191406 24.898438 24.421875 Z M 24.898438 22.773438 C 24.898438 23 24.714844 23.1875 24.484375 23.1875 L 23.914062 23.1875 C 23.683594 23.1875 23.5 23 23.5 22.773438 C 23.5 22.542969 23.683594 22.359375 23.914062 22.359375 L 24.484375 22.359375 C 24.714844 22.359375 24.898438 22.542969 24.898438 22.773438 Z M 19.421875 24.421875 C 19.421875 24.191406 19.605469 24.007812 19.835938 24.007812 L 21.183594 24.007812 C 21.414062 24.007812 21.597656 24.191406 21.597656 24.421875 C 21.597656 24.648438 21.414062 24.832031 21.183594 24.832031 L 19.835938 24.832031 C 19.605469 24.832031 19.421875 24.648438 19.421875 24.421875 Z M 21.695312 21.125 C 21.695312 20.894531 21.882812 20.710938 22.109375 20.710938 L 24.484375 20.710938 C 24.714844 20.710938 24.898438 20.894531 24.898438 21.125 C 24.898438 21.351562 24.714844 21.539062 24.484375 21.539062 L 22.109375 21.539062 C 21.882812 21.539062 21.695312 21.351562 21.695312 21.125 Z M 19.421875 22.773438 C 19.421875 22.542969 19.605469 22.359375 19.835938 22.359375 L 22.3125 22.359375 C 22.539062 22.359375 22.726562 22.542969 22.726562 22.773438 C 22.726562 23 22.539062 23.1875 22.3125 23.1875 L 19.835938 23.1875 C 19.605469 23.1875 19.421875 23 19.421875 22.773438 Z M 19.421875 21.125 C 19.421875 20.894531 19.605469 20.710938 19.835938 20.710938 L 20.695312 20.710938 C 20.925781 20.710938 21.109375 20.894531 21.109375 21.125 C 21.109375 21.351562 20.925781 21.539062 20.695312 21.539062 L 19.835938 21.539062 C 19.605469 21.539062 19.421875 21.351562 19.421875 21.125 Z M 8.621094 23.710938 C 8.621094 23.480469 8.804688 23.296875 9.035156 23.296875 L 9.894531 23.296875 C 10.121094 23.296875 10.308594 23.480469 10.308594 23.710938 C 10.308594 23.9375 10.121094 24.125 9.894531 24.125 L 9.035156 24.125 C 8.804688 24.125 8.621094 23.9375 8.621094 23.710938 Z M 8.621094 25.355469 C 8.621094 25.128906 8.804688 24.941406 9.035156 24.941406 L 11.507812 24.941406 C 11.738281 24.941406 11.921875 25.128906 11.921875 25.355469 C 11.921875 25.585938 11.738281 25.769531 11.507812 25.769531 L 9.035156 25.769531 C 8.804688 25.769531 8.621094 25.585938 8.621094 25.355469 Z M 8.621094 27.003906 C 8.621094 26.777344 8.804688 26.589844 9.035156 26.589844 L 10.382812 26.589844 C 10.609375 26.589844 10.796875 26.777344 10.796875 27.003906 C 10.796875 27.234375 10.609375 27.417969 10.382812 27.417969 L 9.035156 27.417969 C 8.804688 27.417969 8.621094 27.234375 8.621094 27.003906 Z M 14.097656 27.003906 C 14.097656 27.234375 13.910156 27.417969 13.683594 27.417969 L 11.738281 27.417969 C 11.511719 27.417969 11.324219 27.234375 11.324219 27.003906 C 11.324219 26.777344 11.511719 26.589844 11.738281 26.589844 L 13.683594 26.589844 C 13.910156 26.589844 14.097656 26.777344 14.097656 27.003906 Z M 10.894531 23.710938 C 10.894531 23.480469 11.078125 23.296875 11.308594 23.296875 L 13.683594 23.296875 C 13.910156 23.296875 14.097656 23.480469 14.097656 23.710938 C 14.097656 23.9375 13.910156 24.125 13.683594 24.125 L 11.308594 24.125 C 11.078125 24.125 10.894531 23.9375 10.894531 23.710938 Z M 14.097656 25.355469 C 14.097656 25.585938 13.910156 25.769531 13.683594 25.769531 L 13.109375 25.769531 C 12.882812 25.769531 12.695312 25.585938 12.695312 25.355469 C 12.695312 25.128906 12.882812 24.941406 13.109375 24.941406 L 13.683594 24.941406 C 13.910156 24.941406 14.097656 25.128906 14.097656 25.355469 Z M 21.695312 2.910156 C 21.695312 2.679688 21.882812 2.496094 22.109375 2.496094 L 24.484375 2.496094 C 24.714844 2.496094 24.898438 2.679688 24.898438 2.910156 C 24.898438 3.136719 24.714844 3.324219 24.484375 3.324219 L 22.109375 3.324219 C 21.882812 3.324219 21.695312 3.136719 21.695312 2.910156 Z M 24.898438 6.207031 C 24.898438 6.433594 24.714844 6.621094 24.484375 6.621094 L 22.542969 6.621094 C 22.3125 6.621094 22.128906 6.433594 22.128906 6.207031 C 22.128906 5.976562 22.3125 5.792969 22.542969 5.792969 L 24.484375 5.792969 C 24.714844 5.792969 24.898438 5.976562 24.898438 6.207031 Z M 19.421875 4.558594 C 19.421875 4.328125 19.605469 4.144531 19.835938 4.144531 L 22.3125 4.144531 C 22.539062 4.144531 22.726562 4.328125 22.726562 4.558594 C 22.726562 4.785156 22.539062 4.972656 22.3125 4.972656 L 19.835938 4.972656 C 19.605469 4.972656 19.421875 4.785156 19.421875 4.558594 Z M 19.421875 6.207031 C 19.421875 5.976562 19.605469 5.792969 19.835938 5.792969 L 21.183594 5.792969 C 21.414062 5.792969 21.597656 5.976562 21.597656 6.207031 C 21.597656 6.433594 21.414062 6.621094 21.183594 6.621094 L 19.835938 6.621094 C 19.605469 6.621094 19.421875 6.433594 19.421875 6.207031 Z M 19.421875 2.910156 C 19.421875 2.679688 19.605469 2.496094 19.835938 2.496094 L 20.695312 2.496094 C 20.925781 2.496094 21.109375 2.679688 21.109375 2.910156 C 21.109375 3.136719 20.925781 3.324219 20.695312 3.324219 L 19.835938 3.324219 C 19.605469 3.324219 19.421875 3.136719 19.421875 2.910156 Z M 24.898438 4.558594 C 24.898438 4.785156 24.714844 4.972656 24.484375 4.972656 L 23.914062 4.972656 C 23.683594 4.972656 23.5 4.785156 23.5 4.558594 C 23.5 4.328125 23.683594 4.144531 23.914062 4.144531 L 24.484375 4.144531 C 24.714844 4.144531 24.898438 4.328125 24.898438 4.558594 Z M 24.898438 4.558594 " fill-opacity="1" fill-rule="nonzero"/></g></svg>