<svg xmlns="http://www.w3.org/2000/svg" xmlns:xlink="http://www.w3.org/1999/xlink" width="40" zoomAndPan="magnify" viewBox="0 0 30 30.000001" height="40" preserveAspectRatio="xMidYMid meet" version="1.0"><defs><clipPath id="aca1a4e54c"><path d="M 1.226562 0.882812 L 28.804688 0.882812 L 28.804688 29.03125 L 1.226562 29.03125 Z M 1.226562 0.882812 " clip-rule="nonzero"/></clipPath></defs><g clip-path="url(#aca1a4e54c)"><path fill="#000000" d="M 11.234375 9.355469 C 8.828125 9.355469 6.871094 11.320312 6.871094 13.738281 C 6.871094 16.152344 8.828125 18.117188 11.234375 18.117188 C 13.640625 18.117188 15.597656 16.152344 15.597656 13.738281 C 15.597656 11.320312 13.640625 9.355469 11.234375 9.355469 Z M 11.234375 17.285156 C 9.285156 17.285156 7.699219 15.695312 7.699219 13.738281 C 7.699219 11.78125 9.285156 10.1875 11.234375 10.1875 C 13.183594 10.1875 14.769531 11.78125 14.769531 13.738281 C 14.769531 15.695312 13.183594 17.285156 11.234375 17.285156 Z M 12.871094 12.753906 C 12.871094 13.515625 12.351562 14.160156 11.648438 14.34375 L 11.648438 14.691406 C 11.648438 14.917969 11.464844 15.105469 11.234375 15.105469 C 11.003906 15.105469 10.820312 14.917969 10.820312 14.691406 L 10.820312 13.980469 C 10.820312 13.753906 11.003906 13.566406 11.234375 13.566406 C 11.679688 13.566406 12.042969 13.203125 12.042969 12.753906 C 12.042969 12.308594 11.679688 11.945312 11.234375 11.945312 C 10.789062 11.945312 10.425781 12.308594 10.425781 12.753906 C 10.425781 12.847656 10.441406 12.9375 10.472656 13.023438 C 10.546875 13.238281 10.433594 13.476562 10.214844 13.550781 C 10 13.625 9.761719 13.511719 9.6875 13.292969 C 9.628906 13.121094 9.597656 12.941406 9.597656 12.753906 C 9.597656 11.847656 10.332031 11.113281 11.234375 11.113281 C 12.136719 11.113281 12.871094 11.847656 12.871094 12.753906 Z M 11.695312 15.851562 C 11.695312 16.105469 11.488281 16.316406 11.234375 16.316406 C 10.980469 16.316406 10.769531 16.105469 10.769531 15.851562 C 10.769531 15.59375 10.980469 15.386719 11.234375 15.386719 C 11.488281 15.386719 11.695312 15.59375 11.695312 15.851562 Z M 27.933594 9.789062 L 20.972656 9.789062 C 20.503906 9.789062 20.121094 10.171875 20.121094 10.644531 L 20.121094 13.320312 L 17.148438 13.320312 C 17.054688 11.992188 16.527344 10.78125 15.707031 9.832031 L 17.886719 7.644531 C 17.984375 8.007812 18.316406 8.273438 18.707031 8.273438 L 25.667969 8.273438 C 26.136719 8.273438 26.519531 7.890625 26.519531 7.417969 L 26.519531 1.738281 C 26.519531 1.265625 26.136719 0.882812 25.667969 0.882812 L 18.707031 0.882812 C 18.234375 0.882812 17.855469 1.265625 17.855469 1.738281 L 17.855469 6.5 L 15.121094 9.242188 C 14.078125 8.332031 12.71875 7.78125 11.234375 7.78125 C 7.964844 7.78125 5.304688 10.453125 5.304688 13.738281 C 5.304688 14.824219 5.59375 15.875 6.144531 16.796875 L 1.785156 21.175781 C 1.785156 21.179688 1.78125 21.179688 1.777344 21.183594 C 1.242188 21.753906 1.25 22.664062 1.796875 23.214844 C 2.078125 23.5 2.445312 23.640625 2.816406 23.640625 C 3.1875 23.640625 3.554688 23.5 3.835938 23.214844 L 8.1875 18.847656 C 8.988281 19.328125 9.886719 19.613281 10.820312 19.675781 L 10.820312 21.800781 L 7.890625 21.800781 C 7.421875 21.800781 7.039062 22.183594 7.039062 22.65625 L 7.039062 28.332031 C 7.039062 28.804688 7.421875 29.191406 7.890625 29.191406 L 14.851562 29.191406 C 15.320312 29.191406 15.703125 28.804688 15.703125 28.332031 L 15.703125 22.65625 C 15.703125 22.183594 15.320312 21.800781 14.851562 21.800781 L 11.648438 21.800781 L 11.648438 19.675781 C 12.972656 19.585938 14.175781 19.054688 15.121094 18.230469 L 17.855469 20.972656 L 17.855469 25.734375 C 17.855469 26.207031 18.234375 26.589844 18.707031 26.589844 L 25.667969 26.589844 C 26.136719 26.589844 26.519531 26.207031 26.519531 25.734375 L 26.519531 20.058594 C 26.519531 19.585938 26.136719 19.199219 25.667969 19.199219 L 18.707031 19.199219 C 18.316406 19.199219 17.984375 19.46875 17.886719 19.828125 L 15.707031 17.640625 C 16.527344 16.691406 17.054688 15.484375 17.148438 14.152344 L 20.121094 14.152344 L 20.121094 16.320312 C 20.121094 16.792969 20.503906 17.175781 20.972656 17.175781 L 27.9375 17.175781 C 28.40625 17.175781 28.789062 16.792969 28.789062 16.320312 L 28.789062 10.644531 C 28.789062 10.171875 28.40625 9.789062 27.9375 9.789062 Z M 14.875 22.65625 L 14.875 28.332031 C 14.875 28.347656 14.863281 28.355469 14.851562 28.355469 L 7.890625 28.355469 C 7.878906 28.355469 7.867188 28.347656 7.867188 28.332031 L 7.867188 22.65625 C 7.867188 22.644531 7.878906 22.632812 7.890625 22.632812 L 14.851562 22.632812 C 14.863281 22.632812 14.875 22.644531 14.875 22.65625 Z M 18.683594 1.738281 C 18.683594 1.726562 18.695312 1.714844 18.707031 1.714844 L 25.667969 1.714844 C 25.679688 1.714844 25.691406 1.726562 25.691406 1.738281 L 25.691406 7.417969 C 25.691406 7.429688 25.679688 7.441406 25.667969 7.441406 L 18.707031 7.441406 C 18.695312 7.441406 18.683594 7.429688 18.683594 7.417969 Z M 18.683594 20.058594 C 18.683594 20.046875 18.695312 20.035156 18.707031 20.035156 L 25.667969 20.035156 C 25.679688 20.035156 25.691406 20.046875 25.691406 20.058594 L 25.691406 25.734375 C 25.691406 25.746094 25.679688 25.757812 25.667969 25.757812 L 18.707031 25.757812 C 18.695312 25.757812 18.683594 25.746094 18.683594 25.734375 Z M 11.234375 18.859375 C 10.203125 18.859375 9.210938 18.550781 8.363281 17.972656 C 8.199219 17.859375 7.976562 17.878906 7.835938 18.023438 L 3.25 22.625 C 3.011719 22.867188 2.621094 22.867188 2.382812 22.628906 C 2.148438 22.394531 2.148438 22.007812 2.378906 21.761719 L 6.96875 17.148438 C 7.109375 17.007812 7.128906 16.785156 7.015625 16.621094 C 6.4375 15.769531 6.132812 14.773438 6.132812 13.738281 C 6.132812 10.914062 8.421875 8.613281 11.234375 8.613281 C 14.046875 8.613281 16.335938 10.914062 16.335938 13.738281 C 16.335938 16.5625 14.046875 18.859375 11.234375 18.859375 Z M 27.960938 16.320312 C 27.960938 16.332031 27.949219 16.34375 27.933594 16.34375 L 20.972656 16.34375 C 20.960938 16.34375 20.949219 16.332031 20.949219 16.320312 L 20.949219 10.644531 C 20.949219 10.632812 20.960938 10.621094 20.972656 10.621094 L 27.933594 10.621094 C 27.949219 10.621094 27.960938 10.632812 27.960938 10.644531 Z M 27.195312 15.140625 C 27.195312 15.371094 27.011719 15.554688 26.78125 15.554688 L 24.835938 15.554688 C 24.609375 15.554688 24.421875 15.371094 24.421875 15.140625 C 24.421875 14.910156 24.609375 14.722656 24.835938 14.722656 L 26.78125 14.722656 C 27.011719 14.722656 27.195312 14.910156 27.195312 15.140625 Z M 23.890625 15.140625 C 23.890625 15.371094 23.707031 15.554688 23.476562 15.554688 L 22.128906 15.554688 C 21.898438 15.554688 21.710938 15.371094 21.710938 15.140625 C 21.710938 14.910156 21.898438 14.722656 22.128906 14.722656 L 23.476562 14.722656 C 23.707031 14.722656 23.890625 14.910156 23.890625 15.140625 Z M 21.710938 11.824219 C 21.710938 11.59375 21.898438 11.410156 22.128906 11.410156 L 22.988281 11.410156 C 23.21875 11.410156 23.402344 11.59375 23.402344 11.824219 C 23.402344 12.054688 23.21875 12.242188 22.988281 12.242188 L 22.128906 12.242188 C 21.898438 12.242188 21.710938 12.054688 21.710938 11.824219 Z M 27.195312 11.824219 C 27.195312 12.054688 27.011719 12.242188 26.78125 12.242188 L 24.40625 12.242188 C 24.175781 12.242188 23.988281 12.054688 23.988281 11.824219 C 23.988281 11.59375 24.175781 11.410156 24.40625 11.410156 L 26.78125 11.410156 C 27.011719 11.410156 27.195312 11.59375 27.195312 11.824219 Z M 21.710938 13.480469 C 21.710938 13.253906 21.898438 13.066406 22.128906 13.066406 L 24.605469 13.066406 C 24.835938 13.066406 25.019531 13.253906 25.019531 13.480469 C 25.019531 13.710938 24.835938 13.898438 24.605469 13.898438 L 22.128906 13.898438 C 21.898438 13.898438 21.710938 13.710938 21.710938 13.480469 Z M 27.195312 13.480469 C 27.195312 13.710938 27.011719 13.898438 26.78125 13.898438 L 26.207031 13.898438 C 25.980469 13.898438 25.792969 13.710938 25.792969 13.480469 C 25.792969 13.253906 25.980469 13.066406 26.207031 13.066406 L 26.78125 13.066406 C 27.011719 13.066406 27.195312 13.253906 27.195312 13.480469 Z M 24.929688 24.550781 C 24.929688 24.78125 24.742188 24.96875 24.515625 24.96875 L 22.570312 24.96875 C 22.339844 24.96875 22.152344 24.78125 22.152344 24.550781 C 22.152344 24.324219 22.339844 24.136719 22.570312 24.136719 L 24.515625 24.136719 C 24.742188 24.136719 24.929688 24.324219 24.929688 24.550781 Z M 24.929688 22.894531 C 24.929688 23.125 24.742188 23.3125 24.515625 23.3125 L 23.941406 23.3125 C 23.710938 23.3125 23.527344 23.125 23.527344 22.894531 C 23.527344 22.664062 23.710938 22.480469 23.941406 22.480469 L 24.515625 22.480469 C 24.742188 22.480469 24.929688 22.664062 24.929688 22.894531 Z M 19.445312 24.550781 C 19.445312 24.324219 19.628906 24.136719 19.859375 24.136719 L 21.210938 24.136719 C 21.4375 24.136719 21.625 24.324219 21.625 24.550781 C 21.625 24.78125 21.4375 24.96875 21.210938 24.96875 L 19.859375 24.96875 C 19.628906 24.96875 19.445312 24.78125 19.445312 24.550781 Z M 21.722656 21.238281 C 21.722656 21.007812 21.90625 20.820312 22.136719 20.820312 L 24.515625 20.820312 C 24.742188 20.820312 24.929688 21.007812 24.929688 21.238281 C 24.929688 21.46875 24.742188 21.65625 24.515625 21.65625 L 22.136719 21.65625 C 21.90625 21.65625 21.722656 21.46875 21.722656 21.238281 Z M 19.445312 22.894531 C 19.445312 22.664062 19.628906 22.480469 19.859375 22.480469 L 22.335938 22.480469 C 22.566406 22.480469 22.75 22.664062 22.75 22.894531 C 22.75 23.125 22.566406 23.3125 22.335938 23.3125 L 19.859375 23.3125 C 19.628906 23.3125 19.445312 23.125 19.445312 22.894531 Z M 19.445312 21.238281 C 19.445312 21.007812 19.628906 20.820312 19.859375 20.820312 L 20.71875 20.820312 C 20.949219 20.820312 21.136719 21.007812 21.136719 21.238281 C 21.136719 21.46875 20.949219 21.65625 20.71875 21.65625 L 19.859375 21.65625 C 19.628906 21.65625 19.445312 21.46875 19.445312 21.238281 Z M 8.628906 23.839844 C 8.628906 23.609375 8.8125 23.421875 9.042969 23.421875 L 9.90625 23.421875 C 10.132812 23.421875 10.320312 23.609375 10.320312 23.839844 C 10.320312 24.066406 10.132812 24.253906 9.90625 24.253906 L 9.042969 24.253906 C 8.8125 24.253906 8.628906 24.066406 8.628906 23.839844 Z M 8.628906 25.496094 C 8.628906 25.265625 8.8125 25.078125 9.042969 25.078125 L 11.519531 25.078125 C 11.75 25.078125 11.9375 25.265625 11.9375 25.496094 C 11.9375 25.726562 11.75 25.910156 11.519531 25.910156 L 9.042969 25.910156 C 8.8125 25.910156 8.628906 25.726562 8.628906 25.496094 Z M 8.628906 27.152344 C 8.628906 26.921875 8.8125 26.734375 9.042969 26.734375 L 10.394531 26.734375 C 10.621094 26.734375 10.808594 26.921875 10.808594 27.152344 C 10.808594 27.382812 10.621094 27.570312 10.394531 27.570312 L 9.042969 27.570312 C 8.8125 27.570312 8.628906 27.382812 8.628906 27.152344 Z M 14.113281 27.152344 C 14.113281 27.382812 13.925781 27.570312 13.699219 27.570312 L 11.753906 27.570312 C 11.523438 27.570312 11.339844 27.382812 11.339844 27.152344 C 11.339844 26.921875 11.523438 26.734375 11.753906 26.734375 L 13.699219 26.734375 C 13.925781 26.734375 14.113281 26.921875 14.113281 27.152344 Z M 10.90625 23.839844 C 10.90625 23.609375 11.089844 23.421875 11.320312 23.421875 L 13.699219 23.421875 C 13.925781 23.421875 14.113281 23.609375 14.113281 23.839844 C 14.113281 24.066406 13.925781 24.253906 13.699219 24.253906 L 11.320312 24.253906 C 11.089844 24.253906 10.90625 24.066406 10.90625 23.839844 Z M 14.113281 25.496094 C 14.113281 25.726562 13.925781 25.910156 13.699219 25.910156 L 13.125 25.910156 C 12.894531 25.910156 12.710938 25.726562 12.710938 25.496094 C 12.710938 25.265625 12.894531 25.078125 13.125 25.078125 L 13.699219 25.078125 C 13.925781 25.078125 14.113281 25.265625 14.113281 25.496094 Z M 21.722656 2.921875 C 21.722656 2.691406 21.90625 2.503906 22.136719 2.503906 L 24.515625 2.503906 C 24.742188 2.503906 24.929688 2.691406 24.929688 2.921875 C 24.929688 3.152344 24.742188 3.335938 24.515625 3.335938 L 22.136719 3.335938 C 21.90625 3.335938 21.722656 3.152344 21.722656 2.921875 Z M 24.929688 6.234375 C 24.929688 6.464844 24.742188 6.652344 24.515625 6.652344 L 22.570312 6.652344 C 22.339844 6.652344 22.152344 6.464844 22.152344 6.234375 C 22.152344 6.003906 22.339844 5.820312 22.570312 5.820312 L 24.515625 5.820312 C 24.742188 5.820312 24.929688 6.003906 24.929688 6.234375 Z M 19.445312 4.578125 C 19.445312 4.347656 19.628906 4.160156 19.859375 4.160156 L 22.335938 4.160156 C 22.566406 4.160156 22.75 4.347656 22.75 4.578125 C 22.75 4.808594 22.566406 4.996094 22.335938 4.996094 L 19.859375 4.996094 C 19.628906 4.996094 19.445312 4.808594 19.445312 4.578125 Z M 19.445312 6.234375 C 19.445312 6.003906 19.628906 5.820312 19.859375 5.820312 L 21.210938 5.820312 C 21.4375 5.820312 21.625 6.003906 21.625 6.234375 C 21.625 6.464844 21.4375 6.652344 21.210938 6.652344 L 19.859375 6.652344 C 19.628906 6.652344 19.445312 6.464844 19.445312 6.234375 Z M 19.445312 2.921875 C 19.445312 2.691406 19.628906 2.503906 19.859375 2.503906 L 20.71875 2.503906 C 20.949219 2.503906 21.136719 2.691406 21.136719 2.921875 C 21.136719 3.152344 20.949219 3.335938 20.71875 3.335938 L 19.859375 3.335938 C 19.628906 3.335938 19.445312 3.152344 19.445312 2.921875 Z M 24.929688 4.578125 C 24.929688 4.808594 24.742188 4.996094 24.515625 4.996094 L 23.941406 4.996094 C 23.710938 4.996094 23.527344 4.808594 23.527344 4.578125 C 23.527344 4.347656 23.710938 4.160156 23.941406 4.160156 L 24.515625 4.160156 C 24.742188 4.160156 24.929688 4.347656 24.929688 4.578125 Z M 24.929688 4.578125 " fill-opacity="1" fill-rule="nonzero"/></g></svg>