<svg xmlns="http://www.w3.org/2000/svg" xmlns:xlink="http://www.w3.org/1999/xlink" width="40" zoomAndPan="magnify" viewBox="0 0 30 30.000001" height="40" preserveAspectRatio="xMidYMid meet" version="1.0"><defs><clipPath id="f1d833750e"><path d="M 7 2 L 29.515625 2 L 29.515625 19 L 7 19 Z M 7 2 " clip-rule="nonzero"/></clipPath><clipPath id="05e952deed"><path d="M 0.484375 0.15625 L 29.515625 0.15625 L 29.515625 29.03125 L 0.484375 29.03125 Z M 0.484375 0.15625 " clip-rule="nonzero"/></clipPath></defs><g clip-path="url(#f1d833750e)"><path fill="#ffffff" d="M 14.941406 18.914062 C 14.507812 18.914062 14.070312 18.75 13.738281 18.417969 L 7.90625 12.582031 C 7.769531 12.449219 7.769531 12.230469 7.90625 12.097656 L 9.824219 10.175781 C 9.957031 10.042969 10.175781 10.042969 10.308594 10.175781 L 14.941406 14.8125 L 27.148438 2.601562 C 27.28125 2.46875 27.496094 2.46875 27.632812 2.601562 L 29.550781 4.523438 C 29.683594 4.65625 29.683594 4.871094 29.550781 5.007812 L 16.144531 18.417969 C 15.8125 18.746094 15.375 18.914062 14.941406 18.914062 Z M 14.941406 18.914062 " fill-opacity="1" fill-rule="nonzero"/></g><g clip-path="url(#05e952deed)"><path fill="#ffffff" d="M 25.414062 10.53125 C 25.902344 11.792969 26.171875 13.160156 26.171875 14.59375 C 26.171875 20.804688 21.121094 25.855469 14.914062 25.855469 C 8.703125 25.855469 3.652344 20.804688 3.652344 14.59375 C 3.652344 8.386719 8.703125 3.335938 14.914062 3.335938 C 17.726562 3.335938 20.304688 4.375 22.28125 6.085938 L 24.53125 3.839844 C 21.882812 1.464844 18.496094 0.167969 14.914062 0.167969 C 11.058594 0.167969 7.4375 1.667969 4.710938 4.390625 C 1.984375 7.117188 0.484375 10.742188 0.484375 14.59375 C 0.484375 18.449219 1.984375 22.070312 4.710938 24.796875 C 7.433594 27.523438 11.058594 29.023438 14.914062 29.023438 C 18.765625 29.023438 22.390625 27.523438 25.113281 24.796875 C 27.839844 22.070312 29.339844 18.449219 29.339844 14.59375 C 29.339844 12.3125 28.8125 10.109375 27.816406 8.125 Z M 25.414062 10.53125 " fill-opacity="1" fill-rule="nonzero"/></g><path fill="#ffffff" d="M 6.445312 15.488281 L 5.292969 15.488281 C 5.054688 15.488281 4.863281 15.292969 4.863281 15.054688 C 4.863281 14.816406 5.054688 14.625 5.292969 14.625 L 6.445312 14.625 C 6.683594 14.625 6.878906 14.816406 6.878906 15.054688 C 6.878906 15.292969 6.683594 15.488281 6.445312 15.488281 Z M 6.445312 15.488281 " fill-opacity="1" fill-rule="nonzero"/><path fill="#ffffff" d="M 15.34375 24.5 C 15.105469 24.5 14.914062 24.308594 14.914062 24.070312 L 14.914062 22.917969 C 14.914062 22.679688 15.105469 22.484375 15.34375 22.484375 C 15.582031 22.484375 15.777344 22.679688 15.777344 22.917969 L 15.777344 24.070312 C 15.777344 24.308594 15.582031 24.5 15.34375 24.5 Z M 15.34375 24.5 " fill-opacity="1" fill-rule="nonzero"/><path fill="#ffffff" d="M 15.34375 6.472656 C 15.105469 6.472656 14.914062 6.28125 14.914062 6.042969 L 14.914062 4.890625 C 14.914062 4.652344 15.105469 4.457031 15.34375 4.457031 C 15.582031 4.457031 15.777344 4.652344 15.777344 4.890625 L 15.777344 6.042969 C 15.777344 6.28125 15.582031 6.472656 15.34375 6.472656 Z M 15.34375 6.472656 " fill-opacity="1" fill-rule="nonzero"/><path fill="#ffffff" d="M 24.558594 15.515625 L 23.40625 15.515625 C 23.167969 15.515625 22.976562 15.324219 22.976562 15.085938 C 22.976562 14.847656 23.167969 14.652344 23.40625 14.652344 L 24.558594 14.652344 C 24.796875 14.652344 24.992188 14.847656 24.992188 15.085938 C 24.992188 15.324219 24.796875 15.515625 24.558594 15.515625 Z M 24.558594 15.515625 " fill-opacity="1" fill-rule="nonzero"/></svg>