<svg xmlns="http://www.w3.org/2000/svg" xmlns:xlink="http://www.w3.org/1999/xlink" width="40" zoomAndPan="magnify" viewBox="0 0 30 30.000001" height="40" preserveAspectRatio="xMidYMid meet" version="1.0"><defs><clipPath id="a54d744d75"><path d="M 7 2 L 29.515625 2 L 29.515625 20 L 7 20 Z M 7 2 " clip-rule="nonzero"/></clipPath><clipPath id="53e0ed3c17"><path d="M 0.484375 0.15625 L 29.515625 0.15625 L 29.515625 29.03125 L 0.484375 29.03125 Z M 0.484375 0.15625 " clip-rule="nonzero"/></clipPath></defs><g clip-path="url(#a54d744d75)"><path fill="#000000" d="M 14.855469 19.015625 C 14.425781 19.015625 13.992188 18.851562 13.664062 18.515625 L 7.859375 12.648438 C 7.730469 12.515625 7.730469 12.296875 7.859375 12.164062 L 9.769531 10.234375 C 9.902344 10.097656 10.117188 10.097656 10.25 10.234375 L 14.855469 14.890625 L 26.996094 2.617188 C 27.125 2.484375 27.339844 2.484375 27.472656 2.617188 L 29.382812 4.546875 C 29.515625 4.683594 29.515625 4.898438 29.382812 5.03125 L 16.050781 18.515625 C 15.722656 18.851562 15.289062 19.015625 14.855469 19.015625 Z M 14.855469 19.015625 " fill-opacity="1" fill-rule="nonzero"/></g><g clip-path="url(#53e0ed3c17)"><path fill="#000000" d="M 25.269531 10.585938 C 25.753906 11.855469 26.023438 13.234375 26.023438 14.671875 C 26.023438 20.917969 21 25.996094 14.828125 25.996094 C 8.65625 25.996094 3.632812 20.917969 3.632812 14.671875 C 3.632812 8.429688 8.65625 3.351562 14.828125 3.351562 C 17.628906 3.351562 20.191406 4.394531 22.15625 6.121094 L 24.390625 3.859375 C 21.757812 1.472656 18.390625 0.167969 14.828125 0.167969 C 10.996094 0.167969 7.394531 1.675781 4.6875 4.414062 C 1.976562 7.15625 0.484375 10.796875 0.484375 14.671875 C 0.484375 18.546875 1.976562 22.191406 4.6875 24.933594 C 7.394531 27.671875 10.996094 29.179688 14.828125 29.179688 C 18.660156 29.179688 22.261719 27.671875 24.972656 24.933594 C 27.679688 22.191406 29.171875 18.546875 29.171875 14.671875 C 29.171875 12.378906 28.648438 10.164062 27.660156 8.171875 Z M 25.269531 10.585938 " fill-opacity="1" fill-rule="nonzero"/></g><path fill="#000000" d="M 6.410156 15.570312 L 5.265625 15.570312 C 5.027344 15.570312 4.835938 15.375 4.835938 15.136719 C 4.835938 14.898438 5.027344 14.703125 5.265625 14.703125 L 6.410156 14.703125 C 6.648438 14.703125 6.839844 14.898438 6.839844 15.136719 C 6.839844 15.378906 6.648438 15.570312 6.410156 15.570312 Z M 6.410156 15.570312 " fill-opacity="1" fill-rule="nonzero"/><path fill="#000000" d="M 15.257812 24.632812 C 15.019531 24.632812 14.828125 24.441406 14.828125 24.199219 L 14.828125 23.042969 C 14.828125 22.800781 15.019531 22.609375 15.257812 22.609375 C 15.496094 22.609375 15.6875 22.800781 15.6875 23.042969 L 15.6875 24.199219 C 15.6875 24.441406 15.496094 24.632812 15.257812 24.632812 Z M 15.257812 24.632812 " fill-opacity="1" fill-rule="nonzero"/><path fill="#000000" d="M 15.257812 6.507812 C 15.019531 6.507812 14.828125 6.3125 14.828125 6.074219 L 14.828125 4.914062 C 14.828125 4.675781 15.019531 4.480469 15.257812 4.480469 C 15.496094 4.480469 15.6875 4.675781 15.6875 4.914062 L 15.6875 6.074219 C 15.6875 6.3125 15.496094 6.507812 15.257812 6.507812 Z M 15.257812 6.507812 " fill-opacity="1" fill-rule="nonzero"/><path fill="#000000" d="M 24.417969 15.601562 L 23.273438 15.601562 C 23.039062 15.601562 22.84375 15.40625 22.84375 15.167969 C 22.84375 14.925781 23.039062 14.730469 23.273438 14.730469 L 24.417969 14.730469 C 24.65625 14.730469 24.847656 14.925781 24.847656 15.167969 C 24.847656 15.40625 24.65625 15.601562 24.417969 15.601562 Z M 24.417969 15.601562 " fill-opacity="1" fill-rule="nonzero"/></svg>