<svg xmlns="http://www.w3.org/2000/svg" xmlns:xlink="http://www.w3.org/1999/xlink" width="40" zoomAndPan="magnify" viewBox="0 0 30 30.000001" height="40" preserveAspectRatio="xMidYMid meet" version="1.0"><defs><clipPath id="7971596d94"><path d="M 0.484375 0.21875 L 20 0.21875 L 20 29.03125 L 0.484375 29.03125 Z M 0.484375 0.21875 " clip-rule="nonzero"/></clipPath><clipPath id="a6dfe039d5"><path d="M 11 25 L 22 25 L 22 29.03125 L 11 29.03125 Z M 11 25 " clip-rule="nonzero"/></clipPath><clipPath id="ea73814e3f"><path d="M 13 14 L 29.515625 14 L 29.515625 26 L 13 26 Z M 13 14 " clip-rule="nonzero"/></clipPath></defs><path fill="#ffffff" d="M 3.285156 14.238281 C 3.105469 14.082031 2.8125 14.101562 2.65625 14.28125 C 2.5 14.464844 2.519531 14.753906 2.703125 14.914062 L 3.015625 15.183594 C 3.105469 15.25 3.195312 15.296875 3.308594 15.296875 C 3.421875 15.296875 3.511719 15.25 3.601562 15.183594 L 4.636719 14.28125 C 4.816406 14.125 4.839844 13.832031 4.683594 13.652344 C 4.523438 13.472656 4.230469 13.449219 4.050781 13.609375 L 3.308594 14.238281 Z M 3.285156 14.238281 " fill-opacity="1" fill-rule="nonzero"/><path fill="#ffffff" d="M 2.703125 17.164062 L 3.015625 17.433594 C 3.105469 17.5 3.195312 17.546875 3.308594 17.546875 C 3.421875 17.546875 3.511719 17.5 3.601562 17.433594 L 4.636719 16.535156 C 4.816406 16.375 4.839844 16.082031 4.683594 15.902344 C 4.523438 15.722656 4.230469 15.699219 4.050781 15.859375 L 3.308594 16.488281 L 3.285156 16.464844 C 3.105469 16.308594 2.8125 16.332031 2.65625 16.511719 C 2.5 16.714844 2.519531 16.984375 2.703125 17.164062 Z M 2.703125 17.164062 " fill-opacity="1" fill-rule="nonzero"/><path fill="#ffffff" d="M 2.703125 19.414062 L 3.015625 19.683594 C 3.105469 19.75 3.195312 19.796875 3.308594 19.796875 C 3.421875 19.796875 3.511719 19.75 3.601562 19.683594 L 4.636719 18.785156 C 4.816406 18.625 4.839844 18.332031 4.683594 18.152344 C 4.523438 17.972656 4.230469 17.949219 4.050781 18.109375 L 3.308594 18.738281 L 3.285156 18.714844 C 3.105469 18.558594 2.8125 18.582031 2.65625 18.761719 C 2.5 18.964844 2.519531 19.234375 2.703125 19.414062 Z M 2.703125 19.414062 " fill-opacity="1" fill-rule="nonzero"/><path fill="#ffffff" d="M 2.703125 21.664062 L 3.015625 21.933594 C 3.105469 22 3.195312 22.046875 3.308594 22.046875 C 3.421875 22.046875 3.511719 22 3.601562 21.933594 L 4.636719 21.035156 C 4.816406 20.875 4.839844 20.585938 4.683594 20.402344 C 4.523438 20.222656 4.230469 20.203125 4.050781 20.359375 L 3.308594 20.988281 L 3.285156 20.964844 C 3.105469 20.808594 2.8125 20.832031 2.65625 21.011719 C 2.5 21.214844 2.519531 21.484375 2.703125 21.664062 Z M 2.703125 21.664062 " fill-opacity="1" fill-rule="nonzero"/><path fill="#ffffff" d="M 14.921875 7.644531 C 15.167969 7.644531 15.371094 7.441406 15.371094 7.195312 C 15.371094 6.945312 15.167969 6.742188 14.921875 6.742188 L 5.46875 6.742188 C 5.222656 6.742188 5.019531 6.945312 5.019531 7.195312 C 5.019531 7.441406 5.222656 7.644531 5.46875 7.644531 Z M 14.921875 7.644531 " fill-opacity="1" fill-rule="nonzero"/><path fill="#ffffff" d="M 3.445312 8.996094 C 3.445312 9.242188 3.648438 9.445312 3.894531 9.445312 L 16.496094 9.445312 C 16.742188 9.445312 16.945312 9.242188 16.945312 8.996094 C 16.945312 8.746094 16.742188 8.542969 16.496094 8.542969 L 3.894531 8.542969 C 3.648438 8.542969 3.445312 8.746094 3.445312 8.996094 Z M 3.445312 8.996094 " fill-opacity="1" fill-rule="nonzero"/><path fill="#ffffff" d="M 3.894531 11.246094 L 16.496094 11.246094 C 16.742188 11.246094 16.945312 11.042969 16.945312 10.792969 C 16.945312 10.546875 16.742188 10.34375 16.496094 10.34375 L 3.894531 10.34375 C 3.648438 10.34375 3.445312 10.546875 3.445312 10.792969 C 3.445312 11.042969 3.648438 11.246094 3.894531 11.246094 Z M 3.894531 11.246094 " fill-opacity="1" fill-rule="nonzero"/><path fill="#ffffff" d="M 7.023438 24.410156 C 6.976562 24.253906 6.820312 24.140625 6.664062 24.117188 L 5.648438 23.960938 L 5.199219 22.992188 C 5.132812 22.835938 4.972656 22.722656 4.792969 22.722656 C 4.613281 22.722656 4.457031 22.8125 4.390625 22.992188 L 3.9375 23.960938 L 2.925781 24.117188 C 2.769531 24.140625 2.613281 24.253906 2.566406 24.410156 C 2.519531 24.566406 2.542969 24.746094 2.679688 24.859375 L 3.421875 25.625 L 3.242188 26.707031 C 3.21875 26.886719 3.285156 27.042969 3.421875 27.15625 C 3.554688 27.246094 3.738281 27.269531 3.894531 27.179688 L 4.792969 26.683594 L 5.695312 27.179688 C 5.761719 27.222656 5.828125 27.246094 5.917969 27.246094 C 6.007812 27.246094 6.097656 27.222656 6.191406 27.15625 C 6.324219 27.066406 6.390625 26.886719 6.371094 26.707031 L 6.191406 25.625 L 6.933594 24.859375 C 7.042969 24.746094 7.066406 24.566406 7.023438 24.410156 Z M 5.378906 25.152344 C 5.289062 25.265625 5.246094 25.398438 5.265625 25.535156 L 5.335938 25.917969 L 5.042969 25.761719 C 4.972656 25.714844 4.90625 25.691406 4.816406 25.691406 C 4.726562 25.691406 4.660156 25.714844 4.589844 25.761719 L 4.300781 25.917969 L 4.367188 25.535156 C 4.390625 25.398438 4.34375 25.242188 4.253906 25.152344 L 3.960938 24.859375 L 4.34375 24.792969 C 4.5 24.769531 4.613281 24.679688 4.683594 24.542969 L 4.839844 24.230469 L 4.996094 24.542969 C 5.0625 24.679688 5.175781 24.769531 5.335938 24.792969 L 5.71875 24.859375 Z M 5.378906 25.152344 " fill-opacity="1" fill-rule="nonzero"/><path fill="#ffffff" d="M 13.59375 20.695312 L 6.144531 20.695312 C 5.898438 20.695312 5.695312 20.898438 5.695312 21.148438 C 5.695312 21.394531 5.898438 21.597656 6.144531 21.597656 L 12.875 21.597656 C 13.03125 21.238281 13.277344 20.921875 13.59375 20.695312 Z M 13.59375 20.695312 " fill-opacity="1" fill-rule="nonzero"/><path fill="#ffffff" d="M 6.144531 18.445312 C 5.898438 18.445312 5.695312 18.648438 5.695312 18.894531 C 5.695312 19.144531 5.898438 19.347656 6.144531 19.347656 L 13.164062 19.347656 C 13.097656 19.054688 13.097656 18.761719 13.164062 18.445312 Z M 6.144531 18.445312 " fill-opacity="1" fill-rule="nonzero"/><path fill="#ffffff" d="M 14.695312 16.734375 C 14.605469 16.554688 14.539062 16.375 14.515625 16.195312 L 6.144531 16.195312 C 5.898438 16.195312 5.695312 16.398438 5.695312 16.644531 C 5.695312 16.894531 5.898438 17.097656 6.144531 17.097656 L 14.019531 17.097656 C 14.222656 16.9375 14.449219 16.824219 14.695312 16.734375 Z M 14.695312 16.734375 " fill-opacity="1" fill-rule="nonzero"/><path fill="#ffffff" d="M 15.394531 13.945312 L 6.144531 13.945312 C 5.898438 13.945312 5.695312 14.148438 5.695312 14.394531 C 5.695312 14.644531 5.898438 14.84375 6.144531 14.84375 L 14.671875 14.84375 C 14.832031 14.484375 15.078125 14.171875 15.394531 13.945312 Z M 15.394531 13.945312 " fill-opacity="1" fill-rule="nonzero"/><g clip-path="url(#7971596d94)"><path fill="#ffffff" d="M 2.320312 29.023438 L 11.164062 29.023438 C 11.117188 28.886719 11.074219 28.730469 11.074219 28.574219 L 11.074219 28.121094 L 2.320312 28.121094 C 1.824219 28.121094 1.417969 27.71875 1.417969 27.222656 L 1.417969 3.820312 C 1.417969 3.324219 1.824219 2.917969 2.320312 2.917969 L 5.246094 2.917969 L 5.246094 3.820312 C 5.246094 4.5625 5.851562 5.167969 6.59375 5.167969 L 13.796875 5.167969 C 14.539062 5.167969 15.144531 4.5625 15.144531 3.820312 L 15.144531 2.917969 L 18.070312 2.917969 C 18.566406 2.917969 18.972656 3.324219 18.972656 3.820312 L 18.972656 13.96875 L 19.871094 14.191406 L 19.871094 3.820312 C 19.871094 2.828125 19.0625 2.019531 18.070312 2.019531 L 13.796875 2.019531 L 13.796875 1.566406 C 13.796875 0.824219 13.1875 0.21875 12.445312 0.21875 L 7.945312 0.21875 C 7.203125 0.21875 6.59375 0.824219 6.59375 1.566406 L 6.59375 2.019531 L 2.320312 2.019531 C 1.328125 2.019531 0.519531 2.828125 0.519531 3.820312 L 0.519531 27.222656 C 0.519531 28.214844 1.328125 29.023438 2.320312 29.023438 Z M 7.496094 1.566406 C 7.496094 1.320312 7.699219 1.117188 7.945312 1.117188 L 12.445312 1.117188 C 12.691406 1.117188 12.894531 1.320312 12.894531 1.566406 L 12.894531 2.019531 L 7.496094 2.019531 Z M 6.144531 2.917969 L 14.246094 2.917969 L 14.246094 3.820312 C 14.246094 4.066406 14.042969 4.269531 13.796875 4.269531 L 6.59375 4.269531 C 6.347656 4.269531 6.144531 4.066406 6.144531 3.820312 Z M 6.144531 2.917969 " fill-opacity="1" fill-rule="nonzero"/></g><path fill="#ffffff" d="M 12.421875 24.410156 C 12.378906 24.253906 12.222656 24.140625 12.0625 24.117188 L 11.050781 23.960938 L 10.601562 22.992188 C 10.53125 22.835938 10.375 22.722656 10.195312 22.722656 C 10.015625 22.722656 9.859375 22.8125 9.789062 22.992188 L 9.339844 23.960938 L 8.328125 24.117188 C 8.171875 24.140625 8.011719 24.253906 7.96875 24.410156 C 7.921875 24.566406 7.945312 24.746094 8.078125 24.859375 L 8.824219 25.625 L 8.640625 26.707031 C 8.621094 26.886719 8.6875 27.042969 8.824219 27.15625 C 8.957031 27.269531 9.136719 27.269531 9.296875 27.179688 L 10.195312 26.683594 L 11.09375 27.179688 C 11.117188 26.660156 11.296875 26.1875 11.613281 25.804688 L 11.589844 25.625 L 12.332031 24.859375 C 12.445312 24.746094 12.46875 24.566406 12.421875 24.410156 Z M 10.78125 25.152344 C 10.691406 25.265625 10.644531 25.398438 10.667969 25.535156 L 10.734375 25.917969 L 10.441406 25.761719 C 10.375 25.714844 10.308594 25.691406 10.21875 25.691406 C 10.128906 25.691406 10.058594 25.714844 9.992188 25.761719 L 9.699219 25.917969 L 9.769531 25.535156 C 9.789062 25.398438 9.746094 25.242188 9.65625 25.152344 L 9.363281 24.859375 L 9.746094 24.792969 C 9.902344 24.769531 10.015625 24.679688 10.082031 24.542969 L 10.242188 24.230469 L 10.398438 24.542969 C 10.464844 24.679688 10.578125 24.769531 10.734375 24.792969 L 11.117188 24.859375 Z M 10.78125 25.152344 " fill-opacity="1" fill-rule="nonzero"/><g clip-path="url(#a6dfe039d5)"><path fill="#ffffff" d="M 12.445312 29.023438 L 21.449219 29.023438 C 21.695312 29.023438 21.898438 28.820312 21.898438 28.574219 L 21.898438 27.222656 C 21.898438 26.480469 21.289062 25.871094 20.546875 25.871094 L 13.347656 25.871094 C 12.601562 25.871094 11.996094 26.480469 11.996094 27.222656 L 11.996094 28.574219 C 11.996094 28.820312 12.199219 29.023438 12.445312 29.023438 Z M 12.894531 27.222656 C 12.894531 26.976562 13.097656 26.773438 13.347656 26.773438 L 20.546875 26.773438 C 20.792969 26.773438 20.996094 26.976562 20.996094 27.222656 L 20.996094 28.121094 L 12.894531 28.121094 Z M 12.894531 27.222656 " fill-opacity="1" fill-rule="nonzero"/></g><g clip-path="url(#ea73814e3f)"><path fill="#ffffff" d="M 21.695312 18.378906 L 21.761719 18.402344 C 21.875 18.421875 21.988281 18.445312 22.101562 18.445312 C 22.707031 18.445312 23.269531 18.042969 23.429688 17.410156 C 23.519531 17.050781 23.472656 16.691406 23.269531 16.375 C 23.089844 16.0625 22.773438 15.835938 22.414062 15.746094 L 17.058594 14.417969 C 16.316406 14.238281 15.574219 14.6875 15.394531 15.40625 C 15.304688 15.769531 15.347656 16.128906 15.550781 16.441406 C 15.730469 16.757812 16.046875 16.984375 16.40625 17.074219 L 16.453125 17.074219 L 16.292969 17.726562 L 15.6875 17.570312 C 15.347656 17.476562 14.964844 17.546875 14.671875 17.726562 C 14.359375 17.90625 14.15625 18.199219 14.066406 18.558594 C 13.886719 19.277344 14.335938 20.023438 15.054688 20.203125 L 15.664062 20.359375 L 15.460938 21.238281 L 15.28125 21.191406 C 14.539062 21.011719 13.796875 21.460938 13.617188 22.183594 C 13.527344 22.542969 13.570312 22.902344 13.773438 23.21875 C 13.953125 23.53125 14.269531 23.757812 14.628906 23.847656 L 19.984375 25.175781 C 20.097656 25.199219 20.210938 25.21875 20.320312 25.21875 C 20.929688 25.21875 21.492188 24.816406 21.648438 24.183594 C 21.738281 23.824219 21.695312 23.464844 21.492188 23.148438 C 21.3125 22.855469 21.042969 22.65625 20.703125 22.542969 L 20.90625 21.6875 L 27.660156 23.375 C 27.769531 23.398438 27.882812 23.417969 27.996094 23.417969 C 28.242188 23.417969 28.46875 23.351562 28.695312 23.21875 C 29.007812 23.035156 29.210938 22.746094 29.300781 22.382812 C 29.480469 21.664062 29.03125 20.921875 28.3125 20.742188 L 21.558594 19.054688 Z M 15.257812 19.324219 C 15.011719 19.257812 14.875 19.007812 14.945312 18.785156 C 14.964844 18.671875 15.054688 18.558594 15.144531 18.515625 C 15.214844 18.46875 15.304688 18.445312 15.371094 18.445312 C 15.417969 18.445312 15.4375 18.445312 15.484375 18.46875 L 16.089844 18.625 L 15.890625 19.503906 Z M 20.703125 23.601562 C 20.773438 23.710938 20.792969 23.824219 20.75 23.9375 C 20.683594 24.183594 20.433594 24.34375 20.1875 24.273438 L 14.832031 22.945312 C 14.71875 22.925781 14.605469 22.835938 14.539062 22.746094 C 14.472656 22.632812 14.449219 22.519531 14.492188 22.40625 C 14.5625 22.160156 14.808594 22 15.054688 22.070312 L 20.414062 23.398438 C 20.546875 23.417969 20.636719 23.488281 20.703125 23.601562 Z M 19.828125 22.316406 L 16.316406 21.4375 L 17.328125 17.296875 L 20.839844 18.175781 Z M 16.632812 16.21875 C 16.519531 16.195312 16.40625 16.105469 16.339844 16.015625 C 16.273438 15.902344 16.25 15.789062 16.292969 15.679688 C 16.363281 15.429688 16.609375 15.273438 16.855469 15.339844 L 22.210938 16.667969 C 22.324219 16.691406 22.4375 16.78125 22.503906 16.871094 C 22.574219 16.984375 22.59375 17.097656 22.550781 17.207031 C 22.484375 17.457031 22.234375 17.613281 21.988281 17.546875 Z M 28.085938 21.621094 C 28.332031 21.6875 28.46875 21.933594 28.402344 22.160156 C 28.378906 22.273438 28.289062 22.382812 28.199219 22.429688 C 28.085938 22.496094 27.972656 22.519531 27.859375 22.472656 L 21.109375 20.785156 L 21.3125 19.910156 Z M 28.085938 21.621094 " fill-opacity="1" fill-rule="nonzero"/></g></svg>