<svg xmlns="http://www.w3.org/2000/svg" xmlns:xlink="http://www.w3.org/1999/xlink" width="40" zoomAndPan="magnify" viewBox="0 0 30 30.000001" height="40" preserveAspectRatio="xMidYMid meet" version="1.0"><defs><clipPath id="0e4ab7535a"><path d="M 0.484375 0.21875 L 20 0.21875 L 20 29.03125 L 0.484375 29.03125 Z M 0.484375 0.21875 " clip-rule="nonzero"/></clipPath><clipPath id="81a4b91664"><path d="M 11 26 L 22 26 L 22 29.03125 L 11 29.03125 Z M 11 26 " clip-rule="nonzero"/></clipPath><clipPath id="4f98b533d1"><path d="M 13 14 L 29.515625 14 L 29.515625 26 L 13 26 Z M 13 14 " clip-rule="nonzero"/></clipPath></defs><path fill="#000000" d="M 3.285156 14.347656 C 3.105469 14.191406 2.8125 14.210938 2.65625 14.394531 C 2.5 14.574219 2.519531 14.871094 2.703125 15.027344 L 3.015625 15.300781 C 3.105469 15.367188 3.195312 15.414062 3.308594 15.414062 C 3.421875 15.414062 3.511719 15.367188 3.601562 15.300781 L 4.636719 14.394531 C 4.816406 14.234375 4.839844 13.941406 4.683594 13.757812 C 4.523438 13.578125 4.230469 13.554688 4.050781 13.714844 L 3.308594 14.347656 Z M 3.285156 14.347656 " fill-opacity="1" fill-rule="nonzero"/><path fill="#000000" d="M 2.703125 17.296875 L 3.015625 17.570312 C 3.105469 17.636719 3.195312 17.683594 3.308594 17.683594 C 3.421875 17.683594 3.511719 17.636719 3.601562 17.570312 L 4.636719 16.660156 C 4.816406 16.503906 4.839844 16.207031 4.683594 16.027344 C 4.523438 15.84375 4.230469 15.824219 4.050781 15.980469 L 3.308594 16.617188 L 3.285156 16.59375 C 3.105469 16.433594 2.8125 16.457031 2.65625 16.640625 C 2.5 16.84375 2.519531 17.117188 2.703125 17.296875 Z M 2.703125 17.296875 " fill-opacity="1" fill-rule="nonzero"/><path fill="#000000" d="M 2.703125 19.566406 L 3.015625 19.835938 C 3.105469 19.90625 3.195312 19.949219 3.308594 19.949219 C 3.421875 19.949219 3.511719 19.90625 3.601562 19.835938 L 4.636719 18.929688 C 4.816406 18.769531 4.839844 18.476562 4.683594 18.292969 C 4.523438 18.113281 4.230469 18.089844 4.050781 18.25 L 3.308594 18.882812 L 3.285156 18.863281 C 3.105469 18.703125 2.8125 18.726562 2.65625 18.90625 C 2.5 19.113281 2.519531 19.382812 2.703125 19.566406 Z M 2.703125 19.566406 " fill-opacity="1" fill-rule="nonzero"/><path fill="#000000" d="M 2.703125 21.832031 L 3.015625 22.105469 C 3.105469 22.171875 3.195312 22.21875 3.308594 22.21875 C 3.421875 22.21875 3.511719 22.171875 3.601562 22.105469 L 4.636719 21.199219 C 4.816406 21.039062 4.839844 20.746094 4.683594 20.5625 C 4.523438 20.382812 4.230469 20.359375 4.050781 20.519531 L 3.308594 21.152344 L 3.285156 21.128906 C 3.105469 20.972656 2.8125 20.992188 2.65625 21.175781 C 2.5 21.378906 2.519531 21.652344 2.703125 21.832031 Z M 2.703125 21.832031 " fill-opacity="1" fill-rule="nonzero"/><path fill="#000000" d="M 14.921875 7.703125 C 15.167969 7.703125 15.371094 7.5 15.371094 7.25 C 15.371094 7 15.167969 6.796875 14.921875 6.796875 L 5.46875 6.796875 C 5.222656 6.796875 5.019531 7 5.019531 7.25 C 5.019531 7.5 5.222656 7.703125 5.46875 7.703125 Z M 14.921875 7.703125 " fill-opacity="1" fill-rule="nonzero"/><path fill="#000000" d="M 3.445312 9.0625 C 3.445312 9.3125 3.648438 9.515625 3.894531 9.515625 L 16.496094 9.515625 C 16.742188 9.515625 16.945312 9.3125 16.945312 9.0625 C 16.945312 8.8125 16.742188 8.609375 16.496094 8.609375 L 3.894531 8.609375 C 3.648438 8.609375 3.445312 8.8125 3.445312 9.0625 Z M 3.445312 9.0625 " fill-opacity="1" fill-rule="nonzero"/><path fill="#000000" d="M 3.894531 11.332031 L 16.496094 11.332031 C 16.742188 11.332031 16.945312 11.128906 16.945312 10.878906 C 16.945312 10.628906 16.742188 10.425781 16.496094 10.425781 L 3.894531 10.425781 C 3.648438 10.425781 3.445312 10.628906 3.445312 10.878906 C 3.445312 11.128906 3.648438 11.332031 3.894531 11.332031 Z M 3.894531 11.332031 " fill-opacity="1" fill-rule="nonzero"/><path fill="#000000" d="M 7.023438 24.601562 C 6.976562 24.441406 6.820312 24.328125 6.664062 24.304688 L 5.648438 24.148438 L 5.199219 23.171875 C 5.132812 23.011719 4.972656 22.898438 4.792969 22.898438 C 4.613281 22.898438 4.457031 22.988281 4.390625 23.171875 L 3.9375 24.148438 L 2.925781 24.304688 C 2.769531 24.328125 2.613281 24.441406 2.566406 24.601562 C 2.519531 24.757812 2.542969 24.941406 2.679688 25.054688 L 3.421875 25.824219 L 3.242188 26.914062 C 3.21875 27.09375 3.285156 27.253906 3.421875 27.367188 C 3.554688 27.457031 3.738281 27.480469 3.894531 27.390625 L 4.792969 26.890625 L 5.695312 27.390625 C 5.761719 27.433594 5.828125 27.457031 5.917969 27.457031 C 6.007812 27.457031 6.097656 27.433594 6.191406 27.367188 C 6.324219 27.277344 6.390625 27.09375 6.371094 26.914062 L 6.191406 25.824219 L 6.933594 25.054688 C 7.042969 24.941406 7.066406 24.757812 7.023438 24.601562 Z M 5.378906 25.347656 C 5.289062 25.460938 5.246094 25.597656 5.265625 25.734375 L 5.335938 26.121094 L 5.042969 25.960938 C 4.972656 25.914062 4.90625 25.894531 4.816406 25.894531 C 4.726562 25.894531 4.660156 25.914062 4.589844 25.960938 L 4.300781 26.121094 L 4.367188 25.734375 C 4.390625 25.597656 4.34375 25.441406 4.253906 25.347656 L 3.960938 25.054688 L 4.34375 24.984375 C 4.5 24.964844 4.613281 24.871094 4.683594 24.738281 L 4.839844 24.417969 L 4.996094 24.738281 C 5.0625 24.871094 5.175781 24.964844 5.335938 24.984375 L 5.71875 25.054688 Z M 5.378906 25.347656 " fill-opacity="1" fill-rule="nonzero"/><path fill="#000000" d="M 13.59375 20.859375 L 6.144531 20.859375 C 5.898438 20.859375 5.695312 21.0625 5.695312 21.3125 C 5.695312 21.5625 5.898438 21.765625 6.144531 21.765625 L 12.875 21.765625 C 13.03125 21.402344 13.277344 21.085938 13.59375 20.859375 Z M 13.59375 20.859375 " fill-opacity="1" fill-rule="nonzero"/><path fill="#000000" d="M 6.144531 18.589844 C 5.898438 18.589844 5.695312 18.792969 5.695312 19.042969 C 5.695312 19.292969 5.898438 19.496094 6.144531 19.496094 L 13.164062 19.496094 C 13.097656 19.203125 13.097656 18.90625 13.164062 18.589844 Z M 6.144531 18.589844 " fill-opacity="1" fill-rule="nonzero"/><path fill="#000000" d="M 14.695312 16.867188 C 14.605469 16.683594 14.539062 16.503906 14.515625 16.320312 L 6.144531 16.320312 C 5.898438 16.320312 5.695312 16.527344 5.695312 16.773438 C 5.695312 17.023438 5.898438 17.230469 6.144531 17.230469 L 14.019531 17.230469 C 14.222656 17.070312 14.449219 16.957031 14.695312 16.867188 Z M 14.695312 16.867188 " fill-opacity="1" fill-rule="nonzero"/><path fill="#000000" d="M 15.394531 14.054688 L 6.144531 14.054688 C 5.898438 14.054688 5.695312 14.257812 5.695312 14.507812 C 5.695312 14.757812 5.898438 14.960938 6.144531 14.960938 L 14.671875 14.960938 C 14.832031 14.597656 15.078125 14.28125 15.394531 14.054688 Z M 15.394531 14.054688 " fill-opacity="1" fill-rule="nonzero"/><g clip-path="url(#0e4ab7535a)"><path fill="#000000" d="M 2.320312 29.25 L 11.164062 29.25 C 11.117188 29.113281 11.074219 28.957031 11.074219 28.796875 L 11.074219 28.34375 L 2.320312 28.34375 C 1.824219 28.34375 1.417969 27.933594 1.417969 27.433594 L 1.417969 3.847656 C 1.417969 3.347656 1.824219 2.941406 2.320312 2.941406 L 5.246094 2.941406 L 5.246094 3.847656 C 5.246094 4.59375 5.851562 5.207031 6.59375 5.207031 L 13.796875 5.207031 C 14.539062 5.207031 15.144531 4.59375 15.144531 3.847656 L 15.144531 2.941406 L 18.070312 2.941406 C 18.566406 2.941406 18.972656 3.347656 18.972656 3.847656 L 18.972656 14.074219 L 19.871094 14.304688 L 19.871094 3.847656 C 19.871094 2.847656 19.0625 2.03125 18.070312 2.03125 L 13.796875 2.03125 L 13.796875 1.578125 C 13.796875 0.832031 13.1875 0.21875 12.445312 0.21875 L 7.945312 0.21875 C 7.203125 0.21875 6.59375 0.832031 6.59375 1.578125 L 6.59375 2.03125 L 2.320312 2.03125 C 1.328125 2.03125 0.519531 2.847656 0.519531 3.847656 L 0.519531 27.433594 C 0.519531 28.433594 1.328125 29.25 2.320312 29.25 Z M 7.496094 1.578125 C 7.496094 1.328125 7.699219 1.125 7.945312 1.125 L 12.445312 1.125 C 12.691406 1.125 12.894531 1.328125 12.894531 1.578125 L 12.894531 2.03125 L 7.496094 2.03125 Z M 6.144531 2.941406 L 14.246094 2.941406 L 14.246094 3.847656 C 14.246094 4.097656 14.042969 4.300781 13.796875 4.300781 L 6.59375 4.300781 C 6.347656 4.300781 6.144531 4.097656 6.144531 3.847656 Z M 6.144531 2.941406 " fill-opacity="1" fill-rule="nonzero"/></g><path fill="#000000" d="M 12.421875 24.601562 C 12.378906 24.441406 12.222656 24.328125 12.0625 24.304688 L 11.050781 24.148438 L 10.601562 23.171875 C 10.53125 23.011719 10.375 22.898438 10.195312 22.898438 C 10.015625 22.898438 9.859375 22.988281 9.789062 23.171875 L 9.339844 24.148438 L 8.328125 24.304688 C 8.171875 24.328125 8.011719 24.441406 7.96875 24.601562 C 7.921875 24.757812 7.945312 24.941406 8.078125 25.054688 L 8.824219 25.824219 L 8.640625 26.914062 C 8.621094 27.09375 8.6875 27.253906 8.824219 27.367188 C 8.957031 27.480469 9.136719 27.480469 9.296875 27.390625 L 10.195312 26.890625 L 11.09375 27.390625 C 11.117188 26.867188 11.296875 26.390625 11.613281 26.007812 L 11.589844 25.824219 L 12.332031 25.054688 C 12.445312 24.941406 12.46875 24.757812 12.421875 24.601562 Z M 10.78125 25.347656 C 10.691406 25.460938 10.644531 25.597656 10.667969 25.734375 L 10.734375 26.121094 L 10.441406 25.960938 C 10.375 25.914062 10.308594 25.894531 10.21875 25.894531 C 10.128906 25.894531 10.058594 25.914062 9.992188 25.960938 L 9.699219 26.121094 L 9.769531 25.734375 C 9.789062 25.597656 9.746094 25.441406 9.65625 25.347656 L 9.363281 25.054688 L 9.746094 24.984375 C 9.902344 24.964844 10.015625 24.871094 10.082031 24.738281 L 10.242188 24.417969 L 10.398438 24.738281 C 10.464844 24.871094 10.578125 24.964844 10.734375 24.984375 L 11.117188 25.054688 Z M 10.78125 25.347656 " fill-opacity="1" fill-rule="nonzero"/><g clip-path="url(#81a4b91664)"><path fill="#000000" d="M 12.445312 29.25 L 21.449219 29.25 C 21.695312 29.25 21.898438 29.046875 21.898438 28.796875 L 21.898438 27.433594 C 21.898438 26.6875 21.289062 26.074219 20.546875 26.074219 L 13.347656 26.074219 C 12.601562 26.074219 11.996094 26.6875 11.996094 27.433594 L 11.996094 28.796875 C 11.996094 29.046875 12.199219 29.25 12.445312 29.25 Z M 12.894531 27.433594 C 12.894531 27.1875 13.097656 26.980469 13.347656 26.980469 L 20.546875 26.980469 C 20.792969 26.980469 20.996094 27.1875 20.996094 27.433594 L 20.996094 28.34375 L 12.894531 28.34375 Z M 12.894531 27.433594 " fill-opacity="1" fill-rule="nonzero"/></g><g clip-path="url(#4f98b533d1)"><path fill="#000000" d="M 21.695312 18.523438 L 21.761719 18.542969 C 21.875 18.566406 21.988281 18.589844 22.101562 18.589844 C 22.707031 18.589844 23.269531 18.179688 23.429688 17.546875 C 23.519531 17.183594 23.472656 16.820312 23.269531 16.503906 C 23.089844 16.183594 22.773438 15.957031 22.414062 15.867188 L 17.058594 14.53125 C 16.316406 14.347656 15.574219 14.800781 15.394531 15.527344 C 15.304688 15.890625 15.347656 16.253906 15.550781 16.570312 C 15.730469 16.886719 16.046875 17.117188 16.40625 17.207031 L 16.453125 17.207031 L 16.292969 17.863281 L 15.6875 17.707031 C 15.347656 17.613281 14.964844 17.683594 14.671875 17.863281 C 14.359375 18.046875 14.15625 18.339844 14.066406 18.703125 C 13.886719 19.429688 14.335938 20.175781 15.054688 20.359375 L 15.664062 20.519531 L 15.460938 21.402344 L 15.28125 21.355469 C 14.539062 21.175781 13.796875 21.628906 13.617188 22.355469 C 13.527344 22.71875 13.570312 23.082031 13.773438 23.398438 C 13.953125 23.714844 14.269531 23.941406 14.628906 24.035156 L 19.984375 25.371094 C 20.097656 25.394531 20.210938 25.417969 20.320312 25.417969 C 20.929688 25.417969 21.492188 25.007812 21.648438 24.375 C 21.738281 24.011719 21.695312 23.648438 21.492188 23.332031 C 21.3125 23.035156 21.042969 22.832031 20.703125 22.71875 L 20.90625 21.855469 L 27.660156 23.558594 C 27.769531 23.578125 27.882812 23.601562 27.996094 23.601562 C 28.242188 23.601562 28.46875 23.535156 28.695312 23.398438 C 29.007812 23.214844 29.210938 22.921875 29.300781 22.558594 C 29.480469 21.832031 29.03125 21.085938 28.3125 20.902344 L 21.558594 19.203125 Z M 15.257812 19.472656 C 15.011719 19.40625 14.875 19.15625 14.945312 18.929688 C 14.964844 18.816406 15.054688 18.703125 15.144531 18.65625 C 15.214844 18.613281 15.304688 18.589844 15.371094 18.589844 C 15.417969 18.589844 15.4375 18.589844 15.484375 18.613281 L 16.089844 18.769531 L 15.890625 19.65625 Z M 20.703125 23.785156 C 20.773438 23.898438 20.792969 24.011719 20.75 24.125 C 20.683594 24.375 20.433594 24.53125 20.1875 24.464844 L 14.832031 23.125 C 14.71875 23.101562 14.605469 23.011719 14.539062 22.921875 C 14.472656 22.808594 14.449219 22.695312 14.492188 22.582031 C 14.5625 22.332031 14.808594 22.171875 15.054688 22.242188 L 20.414062 23.578125 C 20.546875 23.601562 20.636719 23.671875 20.703125 23.785156 Z M 19.828125 22.492188 L 16.316406 21.605469 L 17.328125 17.433594 L 20.839844 18.316406 Z M 16.632812 16.34375 C 16.519531 16.320312 16.40625 16.230469 16.339844 16.140625 C 16.273438 16.027344 16.25 15.914062 16.292969 15.800781 C 16.363281 15.550781 16.609375 15.390625 16.855469 15.460938 L 22.210938 16.796875 C 22.324219 16.820312 22.4375 16.910156 22.503906 17.003906 C 22.574219 17.117188 22.59375 17.230469 22.550781 17.34375 C 22.484375 17.589844 22.234375 17.75 21.988281 17.683594 Z M 28.085938 21.789062 C 28.332031 21.855469 28.46875 22.105469 28.402344 22.332031 C 28.378906 22.445312 28.289062 22.558594 28.199219 22.605469 C 28.085938 22.671875 27.972656 22.695312 27.859375 22.648438 L 21.109375 20.949219 L 21.3125 20.0625 Z M 28.085938 21.789062 " fill-opacity="1" fill-rule="nonzero"/></g></svg>