<svg xmlns="http://www.w3.org/2000/svg" xmlns:xlink="http://www.w3.org/1999/xlink" width="40" zoomAndPan="magnify" viewBox="0 0 30 30.000001" height="40" preserveAspectRatio="xMidYMid meet" version="1.0"><defs><clipPath id="69cb2ceec5"><path d="M 1.355469 0.871094 L 28.933594 0.871094 L 28.933594 28.453125 L 1.355469 28.453125 Z M 1.355469 0.871094 " clip-rule="nonzero"/></clipPath></defs><g clip-path="url(#69cb2ceec5)"><path fill="#ffffff" d="M 13.996094 16.746094 L 17.980469 12.761719 C 18.113281 12.628906 18.113281 12.414062 17.980469 12.28125 C 17.847656 12.148438 17.632812 12.148438 17.5 12.28125 L 13.757812 16.023438 L 11.945312 14.214844 C 11.816406 14.082031 11.597656 14.082031 11.46875 14.214844 C 11.332031 14.347656 11.332031 14.5625 11.46875 14.695312 L 13.515625 16.746094 C 13.582031 16.808594 13.667969 16.84375 13.757812 16.84375 C 13.847656 16.84375 13.933594 16.808594 13.996094 16.746094 Z M 14.996094 28.15625 C 17.945312 28.15625 20.75 27.230469 23.113281 25.476562 C 23.265625 25.367188 23.296875 25.152344 23.183594 25.003906 C 23.070312 24.851562 22.859375 24.820312 22.707031 24.933594 C 20.464844 26.597656 17.796875 27.476562 14.996094 27.476562 C 12.46875 27.476562 10.054688 26.761719 7.960938 25.40625 L 9.316406 25.183594 C 9.503906 25.152344 9.628906 24.976562 9.597656 24.792969 C 9.566406 24.609375 9.390625 24.480469 9.207031 24.511719 L 7.023438 24.871094 C 6.839844 24.898438 6.710938 25.074219 6.742188 25.261719 L 7.097656 27.445312 C 7.125 27.609375 7.269531 27.730469 7.433594 27.730469 C 7.453125 27.730469 7.472656 27.726562 7.488281 27.722656 C 7.675781 27.695312 7.800781 27.519531 7.769531 27.335938 L 7.542969 25.941406 C 9.757812 27.390625 12.320312 28.15625 14.996094 28.15625 Z M 4.636719 6.542969 C 4.609375 6.355469 4.433594 6.230469 4.246094 6.261719 L 2.0625 6.617188 C 1.878906 6.648438 1.753906 6.824219 1.78125 7.007812 C 1.8125 7.195312 1.988281 7.320312 2.171875 7.289062 L 3.566406 7.0625 C 2.113281 9.277344 1.351562 11.835938 1.351562 14.511719 C 1.351562 17.460938 2.277344 20.269531 4.03125 22.632812 C 4.097656 22.722656 4.199219 22.769531 4.304688 22.769531 C 4.375 22.769531 4.445312 22.746094 4.503906 22.703125 C 4.65625 22.589844 4.6875 22.378906 4.574219 22.226562 C 2.910156 19.984375 2.03125 17.316406 2.03125 14.511719 C 2.03125 11.988281 2.746094 9.574219 4.101562 7.480469 L 4.324219 8.835938 C 4.351562 9 4.496094 9.121094 4.660156 9.121094 C 4.675781 9.121094 4.695312 9.117188 4.714844 9.117188 C 4.898438 9.085938 5.023438 8.910156 4.996094 8.726562 Z M 25.484375 6.324219 C 25.335938 6.433594 25.304688 6.648438 25.414062 6.796875 C 27.078125 9.042969 27.957031 11.710938 27.957031 14.511719 C 27.957031 17.035156 27.246094 19.453125 25.886719 21.546875 L 25.664062 20.191406 C 25.636719 20.003906 25.460938 19.878906 25.273438 19.910156 C 25.089844 19.941406 24.964844 20.113281 24.996094 20.300781 L 25.351562 22.484375 C 25.378906 22.652344 25.523438 22.769531 25.6875 22.769531 C 25.703125 22.769531 25.722656 22.765625 25.742188 22.765625 L 27.925781 22.40625 C 28.109375 22.378906 28.238281 22.203125 28.207031 22.015625 C 28.175781 21.832031 28.003906 21.707031 27.816406 21.738281 L 26.425781 21.964844 C 27.875 19.75 28.636719 17.1875 28.636719 14.511719 C 28.636719 11.5625 27.710938 8.757812 25.960938 6.394531 C 25.847656 6.242188 25.636719 6.210938 25.484375 6.324219 Z M 20.78125 4.511719 L 22.964844 4.15625 C 23.152344 4.125 23.277344 3.949219 23.246094 3.765625 L 22.890625 1.582031 C 22.859375 1.394531 22.683594 1.269531 22.5 1.300781 C 22.3125 1.332031 22.1875 1.507812 22.21875 1.691406 L 22.445312 3.082031 C 20.230469 1.632812 17.667969 0.871094 14.996094 0.871094 C 12.046875 0.871094 9.238281 1.796875 6.875 3.546875 C 6.726562 3.660156 6.691406 3.871094 6.804688 4.023438 C 6.871094 4.113281 6.972656 4.160156 7.078125 4.160156 C 7.148438 4.160156 7.21875 4.140625 7.28125 4.09375 C 9.523438 2.429688 12.191406 1.550781 14.996094 1.550781 C 17.515625 1.550781 19.933594 2.261719 22.027344 3.621094 L 20.671875 3.84375 C 20.488281 3.871094 20.359375 4.046875 20.390625 4.234375 C 20.417969 4.398438 20.5625 4.519531 20.726562 4.519531 C 20.746094 4.519531 20.761719 4.515625 20.78125 4.511719 Z M 14.996094 9.261719 C 17.890625 9.261719 20.246094 11.617188 20.246094 14.511719 C 20.246094 17.410156 17.890625 19.765625 14.996094 19.765625 C 12.097656 19.765625 9.742188 17.410156 9.742188 14.511719 C 9.742188 11.617188 12.097656 9.261719 14.996094 9.261719 Z M 7.664062 9.011719 L 9.496094 7.179688 C 9.542969 7.128906 9.613281 7.125 9.671875 7.160156 L 11.136719 8.105469 C 11.382812 8.265625 11.675781 8.285156 11.9375 8.15625 C 12.171875 8.042969 12.417969 7.941406 12.664062 7.855469 C 12.941406 7.757812 13.132812 7.539062 13.195312 7.253906 L 13.558594 5.550781 C 13.574219 5.484375 13.628906 5.4375 13.699219 5.4375 L 16.292969 5.4375 C 16.363281 5.4375 16.414062 5.484375 16.429688 5.550781 L 16.796875 7.253906 C 16.855469 7.539062 17.050781 7.757812 17.328125 7.855469 C 17.574219 7.941406 17.816406 8.042969 18.050781 8.15625 C 18.316406 8.285156 18.609375 8.265625 18.855469 8.105469 L 20.316406 7.160156 C 20.375 7.125 20.445312 7.128906 20.496094 7.179688 L 22.328125 9.011719 C 22.378906 9.0625 22.386719 9.132812 22.347656 9.191406 L 21.402344 10.652344 C 21.242188 10.898438 21.222656 11.191406 21.351562 11.457031 C 21.464844 11.691406 21.566406 11.933594 21.652344 12.179688 C 21.75 12.457031 21.96875 12.652344 22.253906 12.710938 L 23.957031 13.078125 C 24.023438 13.09375 24.070312 13.148438 24.070312 13.214844 L 24.070312 15.808594 C 24.070312 15.878906 24.023438 15.933594 23.957031 15.949219 L 22.253906 16.3125 C 21.96875 16.375 21.75 16.570312 21.652344 16.84375 C 21.566406 17.089844 21.464844 17.335938 21.351562 17.570312 C 21.222656 17.832031 21.242188 18.125 21.402344 18.371094 L 22.347656 19.835938 C 22.386719 19.894531 22.378906 19.964844 22.328125 20.011719 L 20.496094 21.847656 C 20.445312 21.894531 20.375 21.902344 20.316406 21.863281 L 18.855469 20.917969 C 18.609375 20.757812 18.316406 20.742188 18.050781 20.867188 C 17.816406 20.984375 17.574219 21.082031 17.328125 21.171875 C 17.050781 21.265625 16.855469 21.488281 16.796875 21.773438 L 16.429688 23.472656 C 16.414062 23.542969 16.363281 23.585938 16.292969 23.585938 L 13.699219 23.585938 C 13.628906 23.585938 13.574219 23.542969 13.558594 23.472656 L 13.195312 21.773438 C 13.132812 21.488281 12.941406 21.265625 12.664062 21.171875 C 12.417969 21.082031 12.175781 20.984375 11.9375 20.867188 C 11.820312 20.8125 11.699219 20.785156 11.578125 20.785156 C 11.425781 20.785156 11.273438 20.828125 11.136719 20.917969 L 9.671875 21.863281 C 9.613281 21.902344 9.542969 21.894531 9.496094 21.847656 L 7.664062 20.011719 C 7.613281 19.964844 7.605469 19.894531 7.644531 19.835938 L 8.589844 18.371094 C 8.746094 18.125 8.765625 17.835938 8.640625 17.570312 C 8.527344 17.335938 8.425781 17.089844 8.339844 16.84375 C 8.242188 16.566406 8.023438 16.375 7.734375 16.3125 L 6.03125 15.949219 C 5.964844 15.933594 5.921875 15.878906 5.921875 15.808594 L 5.921875 13.214844 C 5.921875 13.148438 5.964844 13.09375 6.03125 13.078125 L 7.734375 12.710938 C 8.023438 12.648438 8.242188 12.457031 8.339844 12.179688 C 8.425781 11.9375 8.523438 11.691406 8.640625 11.457031 C 8.765625 11.191406 8.746094 10.898438 8.589844 10.652344 L 7.644531 9.191406 C 7.605469 9.132812 7.613281 9.0625 7.664062 9.011719 Z M 7.664062 9.011719 " fill-opacity="1" fill-rule="evenodd"/></g></svg>