<svg xmlns="http://www.w3.org/2000/svg" xmlns:xlink="http://www.w3.org/1999/xlink" width="40" zoomAndPan="magnify" viewBox="0 0 30 30.000001" height="40" preserveAspectRatio="xMidYMid meet" version="1.0"><defs><clipPath id="c44d11493f"><path d="M 1.355469 0.871094 L 28.933594 0.871094 L 28.933594 28.453125 L 1.355469 28.453125 Z M 1.355469 0.871094 " clip-rule="nonzero"/></clipPath></defs><g clip-path="url(#c44d11493f)"><path fill="#000000" d="M 14.132812 16.917969 L 18.160156 12.890625 C 18.292969 12.757812 18.292969 12.539062 18.160156 12.40625 C 18.027344 12.269531 17.808594 12.269531 17.675781 12.40625 L 13.890625 16.1875 L 12.0625 14.359375 C 11.925781 14.222656 11.710938 14.222656 11.578125 14.359375 C 11.441406 14.492188 11.441406 14.710938 11.578125 14.84375 L 13.648438 16.917969 C 13.714844 16.980469 13.800781 17.015625 13.890625 17.015625 C 13.980469 17.015625 14.070312 16.980469 14.132812 16.917969 Z M 15.140625 28.449219 C 18.121094 28.449219 20.960938 27.515625 23.347656 25.742188 C 23.5 25.628906 23.53125 25.417969 23.417969 25.261719 C 23.304688 25.109375 23.089844 25.078125 22.9375 25.191406 C 20.671875 26.875 17.976562 27.765625 15.140625 27.765625 C 12.589844 27.765625 10.148438 27.042969 8.03125 25.671875 L 9.402344 25.445312 C 9.589844 25.414062 9.71875 25.238281 9.6875 25.050781 C 9.65625 24.863281 9.480469 24.738281 9.292969 24.769531 L 7.085938 25.128906 C 6.898438 25.160156 6.769531 25.335938 6.800781 25.523438 L 7.160156 27.730469 C 7.1875 27.898438 7.335938 28.019531 7.5 28.019531 C 7.519531 28.019531 7.535156 28.019531 7.554688 28.015625 C 7.742188 27.984375 7.871094 27.808594 7.839844 27.621094 L 7.609375 26.214844 C 9.851562 27.679688 12.4375 28.449219 15.140625 28.449219 Z M 4.671875 6.601562 C 4.644531 6.414062 4.464844 6.289062 4.277344 6.320312 L 2.070312 6.679688 C 1.882812 6.710938 1.757812 6.886719 1.789062 7.074219 C 1.816406 7.261719 1.996094 7.390625 2.183594 7.359375 L 3.589844 7.128906 C 2.125 9.367188 1.351562 11.957031 1.351562 14.660156 C 1.351562 17.640625 2.289062 20.480469 4.058594 22.867188 C 4.125 22.957031 4.230469 23.007812 4.335938 23.007812 C 4.40625 23.007812 4.476562 22.984375 4.539062 22.9375 C 4.691406 22.824219 4.722656 22.609375 4.609375 22.457031 C 2.929688 20.1875 2.039062 17.492188 2.039062 14.660156 C 2.039062 12.109375 2.761719 9.667969 4.132812 7.550781 L 4.355469 8.921875 C 4.382812 9.089844 4.53125 9.210938 4.695312 9.210938 C 4.714844 9.210938 4.730469 9.207031 4.75 9.203125 C 4.9375 9.175781 5.066406 8.996094 5.035156 8.808594 Z M 25.746094 6.382812 C 25.59375 6.496094 25.5625 6.710938 25.675781 6.863281 C 27.355469 9.132812 28.246094 11.828125 28.246094 14.660156 C 28.246094 17.210938 27.523438 19.652344 26.152344 21.769531 L 25.929688 20.398438 C 25.898438 20.210938 25.722656 20.085938 25.535156 20.117188 C 25.347656 20.148438 25.21875 20.324219 25.25 20.511719 L 25.613281 22.71875 C 25.640625 22.886719 25.785156 23.007812 25.949219 23.007812 C 25.96875 23.007812 25.988281 23.003906 26.003906 23 L 28.214844 22.640625 C 28.402344 22.609375 28.527344 22.433594 28.496094 22.246094 C 28.464844 22.058594 28.289062 21.933594 28.101562 21.960938 L 26.695312 22.191406 C 28.160156 19.953125 28.933594 17.363281 28.933594 14.660156 C 28.933594 11.679688 27.996094 8.84375 26.226562 6.453125 C 26.113281 6.300781 25.898438 6.269531 25.746094 6.382812 Z M 20.992188 4.550781 L 23.199219 4.191406 C 23.386719 4.160156 23.511719 3.984375 23.484375 3.796875 L 23.121094 1.589844 C 23.089844 1.402344 22.914062 1.273438 22.726562 1.304688 C 22.539062 1.335938 22.414062 1.511719 22.445312 1.699219 L 22.675781 3.105469 C 20.433594 1.640625 17.847656 0.871094 15.140625 0.871094 C 12.160156 0.871094 9.324219 1.804688 6.933594 3.578125 C 6.78125 3.691406 6.75 3.90625 6.863281 4.058594 C 6.929688 4.148438 7.035156 4.195312 7.140625 4.195312 C 7.210938 4.195312 7.28125 4.175781 7.34375 4.128906 C 9.613281 2.445312 12.308594 1.558594 15.140625 1.558594 C 17.691406 1.558594 20.132812 2.277344 22.25 3.652344 L 20.878906 3.875 C 20.691406 3.90625 20.566406 4.082031 20.597656 4.269531 C 20.625 4.4375 20.769531 4.558594 20.933594 4.558594 C 20.953125 4.558594 20.972656 4.554688 20.992188 4.550781 Z M 15.140625 9.351562 C 18.070312 9.351562 20.449219 11.734375 20.449219 14.660156 C 20.449219 17.585938 18.070312 19.96875 15.140625 19.96875 C 12.214844 19.96875 9.832031 17.585938 9.832031 14.660156 C 9.832031 11.734375 12.214844 9.351562 15.140625 9.351562 Z M 7.730469 9.101562 L 9.582031 7.25 C 9.632812 7.199219 9.703125 7.191406 9.761719 7.230469 L 11.242188 8.183594 C 11.488281 8.347656 11.785156 8.363281 12.050781 8.234375 C 12.289062 8.121094 12.535156 8.019531 12.785156 7.929688 C 13.066406 7.832031 13.261719 7.613281 13.324219 7.324219 L 13.691406 5.601562 C 13.707031 5.53125 13.761719 5.488281 13.832031 5.488281 L 16.453125 5.488281 C 16.523438 5.488281 16.578125 5.53125 16.59375 5.601562 L 16.964844 7.324219 C 17.023438 7.613281 17.21875 7.832031 17.5 7.929688 C 17.75 8.019531 17.996094 8.121094 18.234375 8.234375 C 18.5 8.363281 18.796875 8.347656 19.042969 8.183594 L 20.523438 7.230469 C 20.582031 7.191406 20.652344 7.199219 20.703125 7.25 L 22.554688 9.101562 C 22.605469 9.152344 22.613281 9.222656 22.574219 9.28125 L 21.617188 10.757812 C 21.457031 11.007812 21.4375 11.304688 21.566406 11.570312 C 21.683594 11.808594 21.785156 12.054688 21.871094 12.304688 C 21.96875 12.582031 22.191406 12.777344 22.480469 12.839844 L 24.203125 13.210938 C 24.269531 13.222656 24.316406 13.28125 24.316406 13.351562 L 24.316406 15.96875 C 24.316406 16.039062 24.269531 16.097656 24.203125 16.109375 L 22.480469 16.480469 C 22.191406 16.542969 21.96875 16.738281 21.871094 17.015625 C 21.785156 17.265625 21.683594 17.511719 21.566406 17.75 C 21.4375 18.015625 21.457031 18.3125 21.617188 18.5625 L 22.574219 20.039062 C 22.613281 20.097656 22.605469 20.171875 22.554688 20.21875 L 20.703125 22.074219 C 20.652344 22.121094 20.582031 22.128906 20.523438 22.089844 L 19.042969 21.136719 C 18.796875 20.972656 18.5 20.957031 18.234375 21.085938 C 17.996094 21.199219 17.75 21.300781 17.5 21.390625 C 17.21875 21.488281 17.023438 21.710938 16.964844 22 L 16.59375 23.71875 C 16.578125 23.789062 16.523438 23.832031 16.453125 23.832031 L 13.832031 23.832031 C 13.761719 23.832031 13.707031 23.789062 13.691406 23.71875 L 13.324219 22 C 13.261719 21.710938 13.066406 21.488281 12.785156 21.390625 C 12.539062 21.300781 12.292969 21.199219 12.050781 21.085938 C 11.933594 21.027344 11.8125 21 11.691406 21 C 11.535156 21 11.378906 21.046875 11.242188 21.136719 L 9.761719 22.089844 C 9.703125 22.128906 9.632812 22.121094 9.582031 22.074219 L 7.730469 20.21875 C 7.679688 20.171875 7.671875 20.097656 7.710938 20.039062 L 8.667969 18.5625 C 8.828125 18.3125 8.847656 18.015625 8.71875 17.75 C 8.601562 17.511719 8.5 17.265625 8.414062 17.015625 C 8.316406 16.738281 8.09375 16.542969 7.804688 16.480469 L 6.082031 16.109375 C 6.015625 16.097656 5.96875 16.039062 5.96875 15.96875 L 5.96875 13.351562 C 5.96875 13.28125 6.015625 13.222656 6.082031 13.210938 L 7.804688 12.839844 C 8.09375 12.777344 8.316406 12.582031 8.414062 12.304688 C 8.5 12.054688 8.601562 11.808594 8.71875 11.570312 C 8.847656 11.304688 8.828125 11.007812 8.667969 10.757812 L 7.710938 9.28125 C 7.671875 9.222656 7.679688 9.152344 7.730469 9.101562 Z M 7.730469 9.101562 " fill-opacity="1" fill-rule="evenodd"/></g></svg>