<svg xmlns="http://www.w3.org/2000/svg" xmlns:xlink="http://www.w3.org/1999/xlink" width="40" zoomAndPan="magnify" viewBox="0 0 30 30.000001" height="40" preserveAspectRatio="xMidYMid meet" version="1.0"><defs><clipPath id="a64411301c"><path d="M 5 0.726562 L 27.171875 0.726562 L 27.171875 29.03125 L 5 29.03125 Z M 5 0.726562 " clip-rule="nonzero"/></clipPath><clipPath id="2c8a9301ee"><path d="M 2.492188 8 L 14 8 L 14 19 L 2.492188 19 Z M 2.492188 8 " clip-rule="nonzero"/></clipPath></defs><g clip-path="url(#a64411301c)"><path fill="#ffffff" d="M 27.492188 23.832031 L 27.492188 1.199219 C 27.492188 0.914062 27.304688 0.726562 27.023438 0.726562 L 5.800781 0.726562 C 5.519531 0.726562 5.328125 0.914062 5.328125 1.199219 L 5.328125 7.800781 L 6.273438 7.800781 L 6.273438 1.667969 L 26.550781 1.667969 L 26.550781 23.363281 L 22.304688 23.363281 C 22.023438 23.363281 21.835938 23.550781 21.835938 23.832031 L 21.835938 28.078125 L 6.273438 28.078125 L 6.273438 21.003906 L 5.328125 21.003906 L 5.328125 28.550781 C 5.328125 28.832031 5.519531 29.019531 5.800781 29.019531 L 22.304688 29.019531 C 22.449219 29.019531 22.542969 28.972656 22.636719 28.878906 L 27.351562 24.164062 C 27.398438 24.117188 27.398438 24.070312 27.445312 24.023438 L 27.445312 23.976562 C 27.492188 23.929688 27.492188 23.878906 27.492188 23.832031 Z M 22.777344 24.304688 L 25.890625 24.304688 L 22.777344 27.417969 Z M 22.777344 24.304688 " fill-opacity="1" fill-rule="nonzero"/></g><g clip-path="url(#2c8a9301ee)"><path fill="#ffffff" d="M 8.628906 18.644531 L 13.347656 18.644531 L 13.347656 17.703125 L 11.929688 17.703125 L 11.929688 8.742188 C 11.929688 8.460938 11.742188 8.269531 11.460938 8.269531 L 8.628906 8.269531 C 8.347656 8.269531 8.160156 8.460938 8.160156 8.742188 L 8.160156 11.574219 L 5.800781 11.574219 C 5.519531 11.574219 5.328125 11.761719 5.328125 12.042969 L 5.328125 13.929688 L 2.972656 13.929688 C 2.6875 13.929688 2.5 14.117188 2.5 14.402344 L 2.5 18.175781 C 2.5 18.457031 2.6875 18.644531 2.972656 18.644531 Z M 9.101562 9.214844 L 10.988281 9.214844 L 10.988281 17.703125 L 9.101562 17.703125 Z M 6.273438 12.515625 L 8.160156 12.515625 L 8.160156 17.703125 L 6.273438 17.703125 Z M 3.441406 14.875 L 5.328125 14.875 L 5.328125 17.703125 L 3.441406 17.703125 Z M 3.441406 14.875 " fill-opacity="1" fill-rule="nonzero"/></g><path fill="#ffffff" d="M 24.664062 12.042969 L 24.664062 4.027344 C 24.664062 3.742188 24.476562 3.554688 24.191406 3.554688 L 14.289062 3.554688 C 14.007812 3.554688 13.816406 3.742188 13.816406 4.027344 L 13.816406 12.042969 C 13.816406 12.328125 14.007812 12.515625 14.289062 12.515625 L 24.191406 12.515625 C 24.476562 12.515625 24.664062 12.328125 24.664062 12.042969 Z M 23.722656 6.386719 L 18.0625 6.386719 L 18.0625 4.5 L 23.722656 4.5 Z M 17.117188 4.5 L 17.117188 6.386719 L 14.761719 6.386719 C 14.761719 5.628906 14.761719 4.5 14.761719 4.5 Z M 14.761719 7.328125 L 17.117188 7.328125 L 17.117188 11.574219 L 14.761719 11.574219 C 14.761719 11.574219 14.761719 9.355469 14.761719 7.328125 Z M 18.0625 11.574219 L 18.0625 7.328125 L 23.722656 7.328125 L 23.722656 11.574219 Z M 18.0625 11.574219 " fill-opacity="1" fill-rule="nonzero"/><path fill="#ffffff" d="M 14.289062 13.929688 L 24.191406 13.929688 L 24.191406 14.875 L 14.289062 14.875 Z M 14.289062 13.929688 " fill-opacity="1" fill-rule="nonzero"/><path fill="#ffffff" d="M 14.289062 16.289062 L 24.191406 16.289062 L 24.191406 17.230469 L 14.289062 17.230469 Z M 14.289062 16.289062 " fill-opacity="1" fill-rule="nonzero"/><path fill="#ffffff" d="M 14.289062 18.644531 L 24.191406 18.644531 L 24.191406 19.589844 L 14.289062 19.589844 Z M 14.289062 18.644531 " fill-opacity="1" fill-rule="nonzero"/><path fill="#ffffff" d="M 7.6875 3.554688 L 10.515625 3.554688 L 10.515625 4.5 L 7.6875 4.5 Z M 7.6875 3.554688 " fill-opacity="1" fill-rule="nonzero"/><path fill="#ffffff" d="M 7.6875 5.914062 L 11.929688 5.914062 L 11.929688 6.855469 L 7.6875 6.855469 Z M 7.6875 5.914062 " fill-opacity="1" fill-rule="nonzero"/><path fill="#ffffff" d="M 7.6875 21.003906 L 10.988281 21.003906 L 10.988281 21.945312 L 7.6875 21.945312 Z M 7.6875 21.003906 " fill-opacity="1" fill-rule="nonzero"/><path fill="#ffffff" d="M 12.402344 21.003906 L 15.703125 21.003906 L 15.703125 21.945312 L 12.402344 21.945312 Z M 12.402344 21.003906 " fill-opacity="1" fill-rule="nonzero"/><path fill="#ffffff" d="M 17.117188 21.003906 L 20.421875 21.003906 L 20.421875 21.945312 L 17.117188 21.945312 Z M 17.117188 21.003906 " fill-opacity="1" fill-rule="nonzero"/><path fill="#ffffff" d="M 7.6875 23.363281 L 10.988281 23.363281 L 10.988281 24.304688 L 7.6875 24.304688 Z M 7.6875 23.363281 " fill-opacity="1" fill-rule="nonzero"/><path fill="#ffffff" d="M 12.402344 23.363281 L 15.703125 23.363281 L 15.703125 24.304688 L 12.402344 24.304688 Z M 12.402344 23.363281 " fill-opacity="1" fill-rule="nonzero"/><path fill="#ffffff" d="M 17.117188 23.363281 L 20.421875 23.363281 L 20.421875 24.304688 L 17.117188 24.304688 Z M 17.117188 23.363281 " fill-opacity="1" fill-rule="nonzero"/><path fill="#ffffff" d="M 7.6875 25.71875 L 10.988281 25.71875 L 10.988281 26.664062 L 7.6875 26.664062 Z M 7.6875 25.71875 " fill-opacity="1" fill-rule="nonzero"/><path fill="#ffffff" d="M 12.402344 25.71875 L 15.703125 25.71875 L 15.703125 26.664062 L 12.402344 26.664062 Z M 12.402344 25.71875 " fill-opacity="1" fill-rule="nonzero"/><path fill="#ffffff" d="M 17.117188 25.71875 L 20.421875 25.71875 L 20.421875 26.664062 L 17.117188 26.664062 Z M 17.117188 25.71875 " fill-opacity="1" fill-rule="nonzero"/></svg>