<svg xmlns="http://www.w3.org/2000/svg" xmlns:xlink="http://www.w3.org/1999/xlink" width="40" zoomAndPan="magnify" viewBox="0 0 30 30.000001" height="40" preserveAspectRatio="xMidYMid meet" version="1.0"><defs><clipPath id="8a738ba7f5"><path d="M 5 0.726562 L 27.171875 0.726562 L 27.171875 29.03125 L 5 29.03125 Z M 5 0.726562 " clip-rule="nonzero"/></clipPath><clipPath id="f09c75a71f"><path d="M 2.492188 8 L 14 8 L 14 19 L 2.492188 19 Z M 2.492188 8 " clip-rule="nonzero"/></clipPath></defs><g clip-path="url(#8a738ba7f5)"><path fill="#000000" d="M 27.164062 23.84375 L 27.164062 1.199219 C 27.164062 0.914062 26.980469 0.726562 26.699219 0.726562 L 5.757812 0.726562 C 5.476562 0.726562 5.292969 0.914062 5.292969 1.199219 L 5.292969 7.800781 L 6.222656 7.800781 L 6.222656 1.667969 L 26.234375 1.667969 L 26.234375 23.371094 L 22.046875 23.371094 C 21.765625 23.371094 21.582031 23.558594 21.582031 23.84375 L 21.582031 28.089844 L 6.222656 28.089844 L 6.222656 21.011719 L 5.292969 21.011719 L 5.292969 28.558594 C 5.292969 28.84375 5.476562 29.03125 5.757812 29.03125 L 22.046875 29.03125 C 22.183594 29.03125 22.277344 28.984375 22.371094 28.890625 L 27.027344 24.171875 C 27.070312 24.125 27.070312 24.078125 27.117188 24.03125 L 27.117188 23.984375 C 27.164062 23.9375 27.164062 23.890625 27.164062 23.84375 Z M 22.511719 24.316406 L 25.582031 24.316406 L 24.046875 25.871094 L 22.511719 27.429688 Z M 22.511719 24.316406 " fill-opacity="1" fill-rule="nonzero"/></g><g clip-path="url(#f09c75a71f)"><path fill="#000000" d="M 8.550781 18.652344 L 13.203125 18.652344 L 13.203125 17.710938 L 11.808594 17.710938 L 11.808594 8.746094 C 11.808594 8.464844 11.621094 8.273438 11.34375 8.273438 L 8.550781 8.273438 C 8.269531 8.273438 8.085938 8.464844 8.085938 8.746094 L 8.085938 11.578125 L 5.757812 11.578125 C 5.476562 11.578125 5.292969 11.765625 5.292969 12.046875 L 5.292969 13.933594 L 2.964844 13.933594 C 2.6875 13.933594 2.5 14.125 2.5 14.40625 L 2.5 18.179688 C 2.5 18.464844 2.6875 18.652344 2.964844 18.652344 Z M 9.015625 9.21875 L 10.875 9.21875 L 10.875 17.710938 L 9.015625 17.710938 Z M 6.222656 12.519531 L 8.085938 12.519531 L 8.085938 17.710938 L 6.222656 17.710938 Z M 3.429688 14.878906 L 5.292969 14.878906 L 5.292969 17.710938 L 3.429688 17.710938 Z M 3.429688 14.878906 " fill-opacity="1" fill-rule="nonzero"/></g><path fill="#000000" d="M 24.371094 12.046875 L 24.371094 4.027344 C 24.371094 3.746094 24.1875 3.554688 23.90625 3.554688 L 14.132812 3.554688 C 13.855469 3.554688 13.667969 3.746094 13.667969 4.027344 L 13.667969 12.046875 C 13.667969 12.332031 13.855469 12.519531 14.132812 12.519531 L 23.90625 12.519531 C 24.1875 12.519531 24.371094 12.332031 24.371094 12.046875 Z M 23.441406 6.386719 L 17.855469 6.386719 L 17.855469 4.5 L 23.441406 4.5 Z M 16.925781 4.5 L 16.925781 6.386719 L 14.601562 6.386719 C 14.601562 5.632812 14.601562 4.5 14.601562 4.5 Z M 14.601562 7.332031 L 16.925781 7.332031 L 16.925781 11.578125 L 14.601562 11.578125 C 14.601562 11.578125 14.601562 9.359375 14.601562 7.332031 Z M 17.855469 11.578125 L 17.855469 7.332031 L 23.441406 7.332031 L 23.441406 11.578125 Z M 17.855469 11.578125 " fill-opacity="1" fill-rule="nonzero"/><path fill="#000000" d="M 14.132812 13.933594 L 23.90625 13.933594 L 23.90625 14.878906 L 14.132812 14.878906 Z M 14.132812 13.933594 " fill-opacity="1" fill-rule="nonzero"/><path fill="#000000" d="M 14.132812 16.292969 L 23.90625 16.292969 L 23.90625 17.238281 L 14.132812 17.238281 Z M 14.132812 16.292969 " fill-opacity="1" fill-rule="nonzero"/><path fill="#000000" d="M 14.132812 18.652344 L 23.90625 18.652344 L 23.90625 19.597656 L 14.132812 19.597656 Z M 14.132812 18.652344 " fill-opacity="1" fill-rule="nonzero"/><path fill="#000000" d="M 7.617188 3.554688 L 10.410156 3.554688 L 10.410156 4.5 L 7.617188 4.5 Z M 7.617188 3.554688 " fill-opacity="1" fill-rule="nonzero"/><path fill="#000000" d="M 7.617188 5.914062 L 11.808594 5.914062 L 11.808594 6.859375 L 7.617188 6.859375 Z M 7.617188 5.914062 " fill-opacity="1" fill-rule="nonzero"/><path fill="#000000" d="M 7.617188 21.011719 L 10.875 21.011719 L 10.875 21.957031 L 7.617188 21.957031 Z M 7.617188 21.011719 " fill-opacity="1" fill-rule="nonzero"/><path fill="#000000" d="M 12.273438 21.011719 L 15.53125 21.011719 L 15.53125 21.957031 L 12.273438 21.957031 Z M 12.273438 21.011719 " fill-opacity="1" fill-rule="nonzero"/><path fill="#000000" d="M 16.925781 21.011719 L 20.183594 21.011719 L 20.183594 21.957031 L 16.925781 21.957031 Z M 16.925781 21.011719 " fill-opacity="1" fill-rule="nonzero"/><path fill="#000000" d="M 7.617188 23.371094 L 10.875 23.371094 L 10.875 24.316406 L 7.617188 24.316406 Z M 7.617188 23.371094 " fill-opacity="1" fill-rule="nonzero"/><path fill="#000000" d="M 12.273438 23.371094 L 15.53125 23.371094 L 15.53125 24.316406 L 12.273438 24.316406 Z M 12.273438 23.371094 " fill-opacity="1" fill-rule="nonzero"/><path fill="#000000" d="M 16.925781 23.371094 L 20.183594 23.371094 L 20.183594 24.316406 L 16.925781 24.316406 Z M 16.925781 23.371094 " fill-opacity="1" fill-rule="nonzero"/><path fill="#000000" d="M 7.617188 25.730469 L 10.875 25.730469 L 10.875 26.671875 L 7.617188 26.671875 Z M 7.617188 25.730469 " fill-opacity="1" fill-rule="nonzero"/><path fill="#000000" d="M 12.273438 25.730469 L 15.53125 25.730469 L 15.53125 26.671875 L 12.273438 26.671875 Z M 12.273438 25.730469 " fill-opacity="1" fill-rule="nonzero"/><path fill="#000000" d="M 16.925781 25.730469 L 20.183594 25.730469 L 20.183594 26.671875 L 16.925781 26.671875 Z M 16.925781 25.730469 " fill-opacity="1" fill-rule="nonzero"/></svg>