<svg xmlns="http://www.w3.org/2000/svg" xmlns:xlink="http://www.w3.org/1999/xlink" width="40" zoomAndPan="magnify" viewBox="0 0 30 30.000001" height="40" preserveAspectRatio="xMidYMid meet" version="1.0"><defs><clipPath id="24ca7512b3"><path d="M 1.355469 0.433594 L 29.515625 0.433594 L 29.515625 28.742188 L 1.355469 28.742188 Z M 1.355469 0.433594 " clip-rule="nonzero"/></clipPath></defs><g clip-path="url(#24ca7512b3)"><path fill="#000000" d="M 20.863281 23.535156 C 20.617188 23.535156 20.417969 23.734375 20.417969 23.980469 L 20.417969 24.121094 C 20.417969 24.53125 20.082031 24.863281 19.671875 24.863281 L 2.992188 24.863281 C 2.582031 24.863281 2.25 24.53125 2.25 24.121094 L 2.25 2.675781 C 2.25 2.265625 2.582031 1.929688 2.992188 1.929688 L 7.3125 1.929688 L 7.3125 3.421875 L 4.183594 3.421875 C 3.9375 3.421875 3.738281 3.621094 3.738281 3.867188 L 3.738281 22.929688 C 3.738281 23.175781 3.9375 23.375 4.183594 23.375 L 11.296875 23.375 C 11.542969 23.375 11.742188 23.175781 11.742188 22.929688 C 11.742188 22.679688 11.542969 22.480469 11.296875 22.480469 L 4.632812 22.480469 L 4.632812 4.3125 L 7.417969 4.3125 C 7.585938 4.664062 7.941406 4.910156 8.355469 4.910156 L 14.3125 4.910156 C 14.726562 4.910156 15.082031 4.664062 15.25 4.3125 L 18.035156 4.3125 L 18.035156 7.179688 C 18.035156 7.425781 18.234375 7.625 18.480469 7.625 C 18.726562 7.625 18.925781 7.425781 18.925781 7.179688 L 18.925781 3.867188 C 18.925781 3.621094 18.726562 3.421875 18.480469 3.421875 L 15.351562 3.421875 L 15.351562 1.929688 L 19.671875 1.929688 C 20.082031 1.929688 20.417969 2.265625 20.417969 2.675781 L 20.417969 7.964844 C 20.417969 8.210938 20.617188 8.410156 20.863281 8.410156 C 21.109375 8.410156 21.308594 8.210938 21.308594 7.964844 L 21.308594 2.675781 C 21.308594 1.773438 20.574219 1.039062 19.671875 1.039062 L 15.25 1.039062 C 15.082031 0.6875 14.726562 0.441406 14.3125 0.441406 L 8.355469 0.441406 C 7.941406 0.441406 7.585938 0.6875 7.417969 1.039062 L 2.992188 1.039062 C 2.089844 1.039062 1.355469 1.773438 1.355469 2.675781 L 1.355469 24.121094 C 1.355469 25.023438 2.089844 25.757812 2.992188 25.757812 L 19.671875 25.757812 C 20.574219 25.757812 21.308594 25.023438 21.308594 24.121094 L 21.308594 23.980469 C 21.308594 23.734375 21.109375 23.535156 20.863281 23.535156 Z M 8.355469 1.335938 L 14.3125 1.335938 C 14.394531 1.335938 14.460938 1.402344 14.460938 1.484375 L 14.460938 3.867188 C 14.460938 3.949219 14.394531 4.015625 14.3125 4.015625 L 8.355469 4.015625 C 8.273438 4.015625 8.203125 3.949219 8.203125 3.867188 L 8.203125 1.484375 C 8.203125 1.402344 8.273438 1.335938 8.355469 1.335938 Z M 10.585938 9.234375 L 10.585938 7.589844 L 6.714844 7.589844 L 6.714844 11.460938 L 8.9375 11.460938 C 9.183594 11.460938 9.382812 11.660156 9.382812 11.910156 C 9.382812 12.15625 9.183594 12.355469 8.9375 12.355469 L 6.269531 12.355469 C 6.023438 12.355469 5.824219 12.15625 5.824219 11.910156 L 5.824219 7.144531 C 5.824219 6.894531 6.023438 6.695312 6.269531 6.695312 L 11.035156 6.695312 C 11.28125 6.695312 11.480469 6.894531 11.480469 7.144531 L 11.480469 9.234375 C 11.480469 9.480469 11.28125 9.679688 11.035156 9.679688 C 10.789062 9.679688 10.585938 9.480469 10.585938 9.234375 Z M 6.714844 15.332031 L 6.714844 19.207031 L 8.753906 19.207031 C 9 19.207031 9.199219 19.40625 9.199219 19.652344 C 9.199219 19.898438 9 20.097656 8.753906 20.097656 L 6.269531 20.097656 C 6.023438 20.097656 5.824219 19.898438 5.824219 19.652344 L 5.824219 14.886719 C 5.824219 14.640625 6.023438 14.441406 6.269531 14.441406 L 8.027344 14.441406 C 8.273438 14.441406 8.472656 14.640625 8.472656 14.886719 C 8.472656 15.132812 8.273438 15.332031 8.027344 15.332031 Z M 15.507812 6.695312 C 15.753906 6.695312 15.953125 6.894531 15.953125 7.144531 C 15.953125 7.390625 15.753906 7.589844 15.507812 7.589844 L 13.417969 7.589844 C 13.171875 7.589844 12.96875 7.390625 12.96875 7.144531 C 12.96875 6.894531 13.171875 6.695312 13.417969 6.695312 Z M 20.582031 12.285156 C 18.550781 10.253906 15.242188 10.253906 13.210938 12.285156 C 11.179688 14.320312 11.179688 17.625 13.210938 19.65625 C 14.226562 20.675781 15.5625 21.183594 16.898438 21.183594 C 18.230469 21.183594 19.566406 20.675781 20.582031 19.65625 C 22.613281 17.625 22.617188 14.320312 20.582031 12.285156 Z M 19.953125 19.027344 C 18.269531 20.707031 15.527344 20.710938 13.84375 19.027344 C 12.160156 17.34375 12.160156 14.601562 13.84375 12.917969 C 14.6875 12.078125 15.792969 11.65625 16.898438 11.65625 C 18.003906 11.65625 19.109375 12.078125 19.953125 12.917969 C 21.636719 14.601562 21.636719 17.34375 19.953125 19.027344 Z M 19 14.464844 C 19.175781 14.640625 19.175781 14.921875 19 15.097656 L 16.617188 17.480469 C 16.53125 17.566406 16.417969 17.609375 16.300781 17.609375 C 16.1875 17.609375 16.074219 17.566406 15.984375 17.480469 L 14.792969 16.289062 C 14.621094 16.113281 14.621094 15.832031 14.792969 15.65625 C 14.96875 15.480469 15.25 15.480469 15.425781 15.65625 L 16.300781 16.53125 L 18.367188 14.464844 C 18.542969 14.289062 18.824219 14.289062 19 14.464844 Z M 29.007812 24.921875 L 25.214844 21.132812 C 25.046875 20.964844 24.753906 20.964844 24.585938 21.132812 L 24.480469 21.238281 L 23.296875 20.054688 C 25.171875 17.117188 24.832031 13.164062 22.269531 10.601562 C 20.832031 9.167969 18.925781 8.378906 16.898438 8.378906 C 14.867188 8.378906 12.960938 9.167969 11.527344 10.601562 C 8.566406 13.5625 8.566406 18.382812 11.527344 21.34375 C 12.960938 22.777344 14.867188 23.566406 16.898438 23.566406 C 18.367188 23.566406 19.773438 23.148438 20.980469 22.371094 L 22.164062 23.554688 L 22.058594 23.660156 C 21.972656 23.742188 21.925781 23.855469 21.925781 23.976562 C 21.925781 24.09375 21.972656 24.207031 22.058594 24.289062 L 25.847656 28.082031 C 26.269531 28.503906 26.832031 28.734375 27.425781 28.734375 C 28.023438 28.734375 28.585938 28.503906 29.007812 28.082031 C 29.429688 27.660156 29.660156 27.097656 29.660156 26.503906 C 29.660156 25.90625 29.429688 25.34375 29.007812 24.921875 Z M 12.160156 20.710938 C 9.546875 18.097656 9.546875 13.847656 12.160156 11.234375 C 13.425781 9.96875 15.109375 9.269531 16.898438 9.269531 C 18.6875 9.269531 20.371094 9.96875 21.636719 11.234375 C 24.25 13.847656 24.25 18.097656 21.636719 20.710938 C 20.371094 21.976562 18.6875 22.671875 16.898438 22.671875 C 15.109375 22.671875 13.425781 21.976562 12.160156 20.710938 Z M 22.269531 21.34375 C 22.445312 21.164062 22.609375 20.980469 22.769531 20.789062 L 23.847656 21.867188 L 22.792969 22.921875 L 21.714844 21.84375 C 21.90625 21.6875 22.089844 21.519531 22.269531 21.34375 Z M 28.375 27.449219 C 27.867188 27.957031 26.984375 27.957031 26.480469 27.449219 L 23.003906 23.976562 L 24.898438 22.078125 L 28.375 25.554688 C 28.628906 25.808594 28.769531 26.144531 28.769531 26.503906 C 28.769531 26.859375 28.628906 27.195312 28.375 27.449219 Z M 28.375 27.449219 " fill-opacity="1" fill-rule="nonzero"/></g></svg>