<svg xmlns="http://www.w3.org/2000/svg" xmlns:xlink="http://www.w3.org/1999/xlink" width="40" zoomAndPan="magnify" viewBox="0 0 30 30.000001" height="40" preserveAspectRatio="xMidYMid meet" version="1.0"><defs><clipPath id="4a4b72b709"><path d="M 2.296875 0 L 25 0 L 25 29.03125 L 2.296875 29.03125 Z M 2.296875 0 " clip-rule="nonzero"/></clipPath><clipPath id="2051f7c3c7"><path d="M 4 9 L 27.703125 9 L 27.703125 28 L 4 28 Z M 4 9 " clip-rule="nonzero"/></clipPath></defs><path fill="#000000" d="M 20.410156 3.195312 L 5.921875 3.195312 C 5.671875 3.195312 5.46875 3.398438 5.46875 3.648438 C 5.46875 3.898438 5.671875 4.101562 5.921875 4.101562 L 20.410156 4.101562 C 20.660156 4.101562 20.863281 3.898438 20.863281 3.648438 C 20.863281 3.398438 20.660156 3.195312 20.410156 3.195312 Z M 20.410156 3.195312 " fill-opacity="1" fill-rule="nonzero"/><path fill="#000000" d="M 20.410156 5.460938 L 5.921875 5.460938 C 5.671875 5.460938 5.46875 5.664062 5.46875 5.914062 C 5.46875 6.160156 5.671875 6.367188 5.921875 6.367188 L 20.410156 6.367188 C 20.660156 6.367188 20.863281 6.160156 20.863281 5.914062 C 20.863281 5.664062 20.660156 5.460938 20.410156 5.460938 Z M 20.410156 5.460938 " fill-opacity="1" fill-rule="nonzero"/><path fill="#000000" d="M 20.863281 8.175781 C 20.863281 7.925781 20.660156 7.722656 20.410156 7.722656 L 5.921875 7.722656 C 5.671875 7.722656 5.46875 7.925781 5.46875 8.175781 C 5.46875 8.425781 5.671875 8.628906 5.921875 8.628906 L 20.410156 8.628906 C 20.660156 8.628906 20.863281 8.425781 20.863281 8.175781 Z M 20.863281 8.175781 " fill-opacity="1" fill-rule="nonzero"/><path fill="#000000" d="M 5.921875 12.476562 C 5.671875 12.476562 5.46875 12.683594 5.46875 12.929688 C 5.46875 13.179688 5.671875 13.382812 5.921875 13.382812 L 10.675781 13.382812 C 10.925781 13.382812 11.128906 13.179688 11.128906 12.929688 C 11.128906 12.683594 10.925781 12.476562 10.675781 12.476562 Z M 5.921875 12.476562 " fill-opacity="1" fill-rule="nonzero"/><path fill="#000000" d="M 19.1875 9.988281 L 5.921875 9.988281 C 5.671875 9.988281 5.46875 10.191406 5.46875 10.441406 C 5.46875 10.691406 5.671875 10.894531 5.921875 10.894531 L 18.28125 10.894531 Z M 19.1875 9.988281 " fill-opacity="1" fill-rule="nonzero"/><g clip-path="url(#4a4b72b709)"><path fill="#000000" d="M 23.171875 27.035156 C 23.152344 27.035156 23.152344 27.035156 23.128906 27.035156 L 23.128906 27.648438 C 23.128906 27.898438 22.925781 28.101562 22.675781 28.101562 L 3.65625 28.101562 C 3.40625 28.101562 3.203125 27.898438 3.203125 27.648438 L 3.203125 1.382812 C 3.203125 1.136719 3.40625 0.929688 3.65625 0.929688 L 22.675781 0.929688 C 22.925781 0.929688 23.128906 1.136719 23.128906 1.382812 L 23.128906 8.5625 C 23.21875 8.628906 23.285156 8.675781 23.378906 8.765625 L 24.035156 9.398438 L 24.035156 1.382812 C 24.035156 0.636719 23.421875 0.0273438 22.675781 0.0273438 L 3.65625 0.0273438 C 2.910156 0.0273438 2.296875 0.636719 2.296875 1.382812 L 2.296875 27.648438 C 2.296875 28.394531 2.910156 29.007812 3.65625 29.007812 L 22.675781 29.007812 C 23.421875 29.007812 24.035156 28.394531 24.035156 27.648438 L 24.035156 27.464844 L 23.492188 27.21875 C 23.378906 27.195312 23.265625 27.128906 23.171875 27.035156 Z M 23.171875 27.035156 " fill-opacity="1" fill-rule="nonzero"/></g><path fill="#000000" d="M 23.128906 14.921875 C 23.398438 15.261719 23.714844 15.648438 24.035156 16.054688 L 24.035156 12.976562 L 23.128906 13.882812 Z M 23.128906 14.921875 " fill-opacity="1" fill-rule="nonzero"/><g clip-path="url(#2051f7c3c7)"><path fill="#000000" d="M 27.316406 18.863281 L 26.410156 18.636719 C 26.140625 18.570312 25.867188 18.613281 25.640625 18.75 C 25.597656 18.773438 25.550781 18.816406 25.503906 18.839844 L 24.464844 18.207031 C 23.492188 16.710938 21.632812 14.539062 21.429688 14.3125 C 21.429688 14.3125 23.648438 12.070312 23.671875 12.070312 C 24.148438 11.574219 24.148438 10.757812 23.648438 10.28125 L 22.742188 9.421875 C 22.246094 8.945312 21.476562 8.96875 21 9.445312 L 17.921875 12.523438 C 17.082031 12.410156 15.949219 12.546875 15.949219 12.546875 C 15.023438 12.660156 14.320312 13.269531 13.574219 13.722656 C 12.214844 14.5625 11.378906 15.582031 10.652344 16.578125 C 10.359375 16.960938 10.402344 17.550781 10.699219 17.914062 C 10.699219 17.914062 11.152344 18.457031 11.171875 18.476562 C 11.332031 18.613281 11.535156 18.683594 11.738281 18.726562 L 10.628906 19.835938 C 10.585938 19.882812 10.5625 19.925781 10.539062 19.949219 L 8.75 23.640625 L 7.550781 25.089844 L 7.1875 24.570312 C 7.054688 24.386719 6.804688 24.320312 6.601562 24.433594 L 5.898438 24.816406 L 5.695312 23.933594 C 5.648438 23.753906 5.492188 23.617188 5.308594 23.59375 C 5.128906 23.574219 4.949219 23.6875 4.855469 23.84375 L 4.15625 25.292969 C 4.042969 25.519531 4.132812 25.792969 4.359375 25.90625 C 4.585938 26.019531 4.855469 25.925781 4.96875 25.699219 L 5.128906 25.382812 L 5.171875 25.609375 C 5.195312 25.746094 5.308594 25.859375 5.421875 25.925781 C 5.558594 25.996094 5.695312 25.972656 5.832031 25.90625 L 6.714844 25.429688 C 6.714844 25.429688 7.1875 26.085938 7.1875 26.085938 C 7.347656 26.3125 7.710938 26.335938 7.890625 26.132812 L 9.316406 24.410156 L 11.945312 23.121094 C 11.785156 23.367188 11.695312 23.640625 11.785156 23.933594 C 12.078125 24.773438 12.847656 25.089844 13.527344 25.359375 C 13.914062 25.519531 14.277344 25.65625 14.5 25.859375 C 15.113281 26.449219 16.402344 26.46875 17.445312 26.46875 C 17.695312 26.46875 17.941406 26.492188 18.167969 26.492188 C 18.167969 26.492188 21 26.378906 21 26.378906 C 21.160156 26.378906 21.339844 26.335938 21.496094 26.3125 C 22.289062 26.222656 23.058594 26.132812 23.605469 26.0625 C 23.625 26.222656 23.714844 26.335938 23.875 26.402344 C 23.875 26.402344 26.59375 27.601562 26.613281 27.601562 C 26.839844 27.691406 27.113281 27.601562 27.203125 27.375 C 27.292969 27.148438 27.203125 26.878906 26.976562 26.789062 L 24.601562 25.746094 L 26.070312 19.609375 C 26.09375 19.542969 26.140625 19.496094 26.207031 19.519531 L 27.113281 19.746094 C 27.363281 19.8125 27.609375 19.65625 27.65625 19.429688 C 27.703125 19.203125 27.566406 18.929688 27.316406 18.863281 Z M 11.378906 17.324219 C 11.355469 17.300781 11.355469 17.300781 11.378906 17.324219 C 11.355469 17.277344 11.378906 17.1875 11.398438 17.074219 C 12.167969 16.03125 12.894531 15.195312 14.050781 14.492188 C 14.230469 14.378906 14.390625 14.265625 14.546875 14.152344 C 15.046875 13.8125 15.5 13.496094 16.0625 13.429688 C 16.359375 13.382812 16.742188 13.382812 17.082031 13.382812 L 14.140625 16.328125 C 13.1875 16.394531 12.714844 17.1875 12.078125 17.777344 C 12.011719 17.84375 11.875 17.84375 11.785156 17.800781 Z M 10.109375 23.007812 C 10.15625 22.871094 11.082031 20.902344 11.082031 20.902344 L 12.214844 21.988281 Z M 11.605469 20.132812 L 21.632812 10.078125 C 21.769531 9.941406 21.972656 9.941406 22.109375 10.078125 C 22.109375 10.078125 23.015625 10.9375 23.015625 10.9375 C 23.152344 11.074219 23.152344 11.300781 23.015625 11.4375 L 13.007812 21.46875 Z M 17.492188 18.796875 L 18.351562 20.359375 C 18.328125 20.402344 18.328125 20.472656 18.304688 20.515625 C 18.078125 21.308594 17.738281 22.484375 17.082031 22.597656 C 17.082031 22.597656 16.335938 22.734375 16.335938 22.734375 C 15.882812 22.804688 15.40625 22.441406 14.976562 22.371094 C 14.480469 22.28125 13.914062 22.28125 13.371094 22.394531 L 17.195312 18.570312 Z M 23.785156 25.113281 C 23.785156 25.113281 23.761719 25.113281 23.785156 25.113281 C 23.265625 25.226562 22.042969 25.339844 21.386719 25.429688 C 21.386719 25.429688 21.363281 25.429688 21.363281 25.429688 C 20.09375 25.632812 18.734375 25.609375 17.46875 25.585938 C 16.742188 25.585938 15.5 25.566406 15.136719 25.226562 C 14.773438 24.886719 14.320312 24.703125 13.867188 24.523438 C 13.210938 24.273438 12.804688 24.09375 12.667969 23.6875 C 12.691406 23.617188 12.847656 23.460938 12.960938 23.414062 C 13.617188 23.1875 14.253906 23.121094 14.820312 23.234375 C 15.40625 23.347656 15.882812 23.707031 16.496094 23.59375 L 17.242188 23.460938 C 18.464844 23.253906 18.894531 21.738281 19.1875 20.742188 C 19.234375 20.628906 19.257812 20.515625 19.277344 20.402344 C 19.324219 20.289062 19.300781 20.152344 19.234375 20.039062 C 19.234375 20.039062 18.238281 18.230469 18.238281 18.230469 C 18.148438 18.070312 17.964844 17.980469 17.851562 17.867188 L 20.796875 14.902344 C 21.136719 15.308594 22.902344 17.367188 23.761719 18.726562 C 23.808594 18.796875 23.851562 18.839844 23.898438 18.863281 L 25.097656 19.585938 Z M 23.785156 25.113281 " fill-opacity="1" fill-rule="nonzero"/></g></svg>