<svg xmlns="http://www.w3.org/2000/svg" xmlns:xlink="http://www.w3.org/1999/xlink" width="40" zoomAndPan="magnify" viewBox="0 0 30 30.000001" height="40" preserveAspectRatio="xMidYMid meet" version="1.0"><defs><clipPath id="bf808de48d"><path d="M 2.660156 0.542969 L 28.789062 0.542969 L 28.789062 28.851562 L 2.660156 28.851562 Z M 2.660156 0.542969 " clip-rule="nonzero"/></clipPath></defs><g clip-path="url(#bf808de48d)"><path fill="#ffffff" d="M 10.289062 23.382812 C 9.515625 23.886719 8.589844 24.179688 7.597656 24.179688 C 4.871094 24.179688 2.660156 21.96875 2.660156 19.238281 C 2.660156 17.117188 4.003906 15.304688 5.882812 14.605469 L 5.882812 4.125 C 5.882812 3.503906 6.386719 3 7.007812 3 L 9.960938 3 L 9.960938 2.503906 C 9.960938 2.289062 10.136719 2.109375 10.355469 2.109375 C 10.355469 2.109375 11.921875 2.109375 11.921875 2.109375 C 12.101562 1.222656 12.890625 0.550781 13.832031 0.550781 C 14.777344 0.550781 15.5625 1.222656 15.746094 2.109375 L 17.3125 2.109375 C 17.53125 2.109375 17.707031 2.289062 17.707031 2.503906 L 17.707031 3 L 20.65625 3 C 21.277344 3 21.78125 3.503906 21.78125 4.125 L 21.78125 6.082031 L 22.414062 6.082031 C 22.875 6.082031 23.246094 6.453125 23.246094 6.910156 C 23.246094 7.871094 24.40625 8.351562 25.082031 7.671875 C 25.40625 7.347656 25.933594 7.347656 26.257812 7.671875 L 27.199219 8.613281 C 27.523438 8.9375 27.523438 9.464844 27.199219 9.789062 C 26.519531 10.464844 27.003906 11.625 27.960938 11.625 C 28.421875 11.625 28.789062 12 28.789062 12.457031 L 28.789062 13.785156 C 28.789062 14.246094 28.421875 14.617188 27.960938 14.617188 C 27.003906 14.617188 26.519531 15.777344 27.199219 16.453125 C 27.523438 16.777344 27.523438 17.304688 27.199219 17.628906 L 26.257812 18.570312 C 25.933594 18.894531 25.40625 18.894531 25.082031 18.570312 C 24.40625 17.894531 23.246094 18.375 23.246094 19.332031 C 23.246094 19.792969 22.875 20.164062 22.414062 20.164062 L 21.78125 20.164062 L 21.78125 22.121094 C 21.78125 22.738281 21.277344 23.242188 20.65625 23.242188 L 13.671875 23.242188 L 16.457031 26.027344 C 16.835938 26.410156 16.835938 27.03125 16.457031 27.410156 L 15.769531 28.097656 C 15.390625 28.476562 14.765625 28.476562 14.386719 28.097656 L 11.234375 24.945312 C 10.996094 24.707031 10.910156 24.375 10.96875 24.0625 Z M 6.671875 14.386719 C 6.890625 14.347656 7.117188 14.320312 7.34375 14.308594 L 7.34375 4.851562 C 7.34375 4.636719 7.519531 4.457031 7.738281 4.457031 L 9.960938 4.457031 L 9.960938 3.789062 L 7.007812 3.789062 C 6.824219 3.789062 6.671875 3.9375 6.671875 4.125 Z M 8.132812 14.328125 C 10.609375 14.59375 12.539062 16.691406 12.539062 19.238281 C 12.539062 19.859375 12.425781 20.449219 12.21875 20.996094 L 19.53125 20.996094 L 19.53125 5.246094 L 8.132812 5.246094 Z M 11.257812 22.558594 C 11.148438 22.675781 11.035156 22.789062 10.917969 22.898438 L 11.410156 23.390625 C 11.511719 23.285156 11.644531 23.152344 11.75 23.046875 Z M 16.917969 4.457031 L 16.917969 2.898438 L 15.390625 2.898438 C 15.171875 2.898438 14.996094 2.722656 14.996094 2.503906 C 14.996094 1.863281 14.476562 1.339844 13.832031 1.339844 C 13.191406 1.339844 12.667969 1.863281 12.667969 2.503906 C 12.667969 2.722656 12.492188 2.898438 12.273438 2.898438 L 10.75 2.898438 L 10.75 4.457031 Z M 20.992188 22.121094 L 20.992188 4.125 C 20.992188 3.9375 20.839844 3.789062 20.65625 3.789062 L 17.707031 3.789062 L 17.707031 4.457031 L 19.925781 4.457031 C 20.144531 4.457031 20.320312 4.636719 20.320312 4.851562 L 20.320312 21.390625 C 20.320312 21.609375 20.144531 21.785156 19.925781 21.785156 L 11.832031 21.785156 C 11.804688 21.832031 11.773438 21.878906 11.742188 21.929688 L 12.269531 22.453125 L 20.65625 22.453125 C 20.839844 22.453125 20.992188 22.304688 20.992188 22.121094 Z M 21.78125 19.375 L 22.414062 19.375 C 22.4375 19.375 22.457031 19.355469 22.457031 19.332031 C 22.457031 17.671875 24.46875 16.839844 25.640625 18.011719 C 25.65625 18.027344 25.683594 18.027344 25.703125 18.011719 L 26.640625 17.074219 C 26.65625 17.054688 26.65625 17.027344 26.640625 17.011719 C 25.46875 15.839844 26.300781 13.828125 27.960938 13.828125 C 27.984375 13.828125 28.003906 13.808594 28.003906 13.785156 L 28.003906 12.457031 C 28.003906 12.433594 27.984375 12.414062 27.960938 12.414062 C 26.300781 12.414062 25.46875 10.402344 26.640625 9.230469 C 26.65625 9.214844 26.65625 9.1875 26.640625 9.171875 L 25.703125 8.230469 C 25.683594 8.214844 25.65625 8.214844 25.640625 8.230469 C 24.46875 9.40625 22.457031 8.570312 22.457031 6.910156 C 22.457031 6.886719 22.4375 6.871094 22.414062 6.871094 L 21.78125 6.871094 L 21.78125 9.535156 C 23.742188 9.550781 25.339844 11.15625 25.339844 13.121094 C 25.339844 15.085938 23.742188 16.691406 21.78125 16.710938 Z M 21.78125 10.324219 L 21.78125 15.921875 C 23.308594 15.90625 24.550781 14.652344 24.550781 13.121094 C 24.550781 11.589844 23.308594 10.339844 21.78125 10.324219 Z M 13.164062 9.160156 C 12.945312 9.160156 12.769531 8.984375 12.769531 8.769531 C 12.769531 8.550781 12.945312 8.375 13.164062 8.375 L 18.371094 8.375 C 18.589844 8.375 18.765625 8.550781 18.765625 8.769531 C 18.765625 8.984375 18.589844 9.160156 18.371094 9.160156 Z M 9.035156 13.332031 C 8.871094 13.1875 8.855469 12.941406 9 12.777344 C 9.140625 12.613281 9.390625 12.597656 9.554688 12.738281 L 10.230469 13.332031 L 11.671875 12.089844 C 11.835938 11.945312 12.085938 11.964844 12.226562 12.128906 C 12.371094 12.292969 12.351562 12.542969 12.1875 12.6875 L 10.488281 14.152344 C 10.339844 14.28125 10.117188 14.28125 9.96875 14.152344 Z M 13.164062 14.25 C 12.945312 14.25 12.769531 14.074219 12.769531 13.855469 C 12.769531 13.636719 12.945312 13.460938 13.164062 13.460938 L 15.394531 13.460938 C 15.609375 13.460938 15.789062 13.636719 15.789062 13.855469 C 15.789062 14.074219 15.609375 14.25 15.394531 14.25 Z M 13.164062 10.511719 C 12.945312 10.511719 12.769531 10.335938 12.769531 10.117188 C 12.769531 9.898438 12.945312 9.722656 13.164062 9.722656 L 15.394531 9.722656 C 15.609375 9.722656 15.789062 9.898438 15.789062 10.117188 C 15.789062 10.335938 15.609375 10.511719 15.394531 10.511719 Z M 13.164062 12.902344 C 12.945312 12.902344 12.769531 12.726562 12.769531 12.507812 C 12.769531 12.289062 12.945312 12.113281 13.164062 12.113281 L 18.371094 12.113281 C 18.589844 12.113281 18.765625 12.289062 18.765625 12.507812 C 18.765625 12.726562 18.589844 12.902344 18.371094 12.902344 Z M 13.164062 16.640625 C 12.945312 16.640625 12.769531 16.464844 12.769531 16.246094 C 12.769531 16.027344 12.945312 15.851562 13.164062 15.851562 L 18.371094 15.851562 C 18.589844 15.851562 18.765625 16.027344 18.765625 16.246094 C 18.765625 16.464844 18.589844 16.640625 18.371094 16.640625 Z M 9.035156 9.59375 C 8.871094 9.449219 8.855469 9.199219 9 9.035156 C 9.140625 8.875 9.390625 8.855469 9.554688 9 L 10.230469 9.59375 L 11.671875 8.351562 C 11.835938 8.207031 12.085938 8.226562 12.226562 8.390625 C 12.371094 8.554688 12.351562 8.804688 12.1875 8.945312 L 10.488281 10.414062 C 10.339844 10.542969 10.117188 10.542969 9.96875 10.414062 Z M 13.164062 17.988281 C 12.945312 17.988281 12.769531 17.8125 12.769531 17.59375 C 12.769531 17.378906 12.945312 17.199219 13.164062 17.199219 L 15.394531 17.199219 C 15.609375 17.199219 15.789062 17.378906 15.789062 17.59375 C 15.789062 17.8125 15.609375 17.988281 15.394531 17.988281 Z M 13.832031 2.914062 C 13.605469 2.914062 13.421875 2.730469 13.421875 2.503906 C 13.421875 2.277344 13.605469 2.09375 13.832031 2.09375 C 14.058594 2.09375 14.242188 2.277344 14.242188 2.503906 C 14.242188 2.730469 14.058594 2.914062 13.832031 2.914062 Z M 7.597656 15.089844 C 5.308594 15.089844 3.449219 16.949219 3.449219 19.238281 C 3.449219 21.53125 5.308594 23.390625 7.597656 23.390625 C 9.890625 23.390625 11.75 21.53125 11.75 19.238281 C 11.75 16.949219 9.890625 15.089844 7.597656 15.089844 Z M 7.597656 22.960938 C 5.550781 22.960938 3.875 21.289062 3.875 19.238281 C 3.875 17.191406 5.550781 15.515625 7.597656 15.515625 C 9.652344 15.515625 11.320312 17.191406 11.320312 19.238281 C 11.320312 21.289062 9.652344 22.960938 7.597656 22.960938 Z M 7.597656 22.175781 C 9.214844 22.175781 10.535156 20.855469 10.535156 19.238281 C 10.535156 17.625 9.214844 16.304688 7.597656 16.304688 C 5.984375 16.304688 4.664062 17.625 4.664062 19.238281 C 4.664062 20.855469 5.984375 22.175781 7.597656 22.175781 Z M 5.640625 19.425781 C 5.476562 19.28125 5.457031 19.035156 5.601562 18.871094 C 5.746094 18.707031 5.996094 18.691406 6.160156 18.832031 C 6.160156 18.832031 7.109375 19.664062 7.109375 19.664062 L 9.042969 17.992188 C 9.207031 17.851562 9.457031 17.871094 9.597656 18.035156 C 9.742188 18.199219 9.722656 18.449219 9.558594 18.589844 L 7.363281 20.484375 C 7.214844 20.613281 6.992188 20.613281 6.847656 20.484375 Z M 11.792969 24.121094 C 11.71875 24.191406 11.71875 24.3125 11.792969 24.386719 L 14.945312 27.539062 C 15.019531 27.613281 15.140625 27.613281 15.214844 27.539062 L 15.898438 26.851562 C 15.972656 26.78125 15.972656 26.660156 15.898438 26.585938 L 12.746094 23.433594 C 12.671875 23.359375 12.550781 23.359375 12.480469 23.433594 Z M 11.792969 24.121094 " fill-opacity="1" fill-rule="evenodd"/></g></svg>