<svg xmlns="http://www.w3.org/2000/svg" xmlns:xlink="http://www.w3.org/1999/xlink" width="40" zoomAndPan="magnify" viewBox="0 0 30 30.000001" height="40" preserveAspectRatio="xMidYMid meet" version="1.0"><defs><clipPath id="88bc5acd04"><path d="M 2.660156 0.542969 L 28.789062 0.542969 L 28.789062 28.851562 L 2.660156 28.851562 Z M 2.660156 0.542969 " clip-rule="nonzero"/></clipPath></defs><g clip-path="url(#88bc5acd04)"><path fill="#000000" d="M 10.289062 23.679688 C 9.515625 24.191406 8.589844 24.484375 7.597656 24.484375 C 4.871094 24.484375 2.660156 22.246094 2.660156 19.484375 C 2.660156 17.332031 4.003906 15.496094 5.882812 14.789062 L 5.882812 4.171875 C 5.882812 3.542969 6.386719 3.03125 7.007812 3.03125 L 9.960938 3.03125 L 9.960938 2.53125 C 9.960938 2.308594 10.136719 2.132812 10.355469 2.132812 C 10.355469 2.132812 11.921875 2.132812 11.921875 2.132812 C 12.101562 1.230469 12.890625 0.550781 13.832031 0.550781 C 14.777344 0.550781 15.5625 1.230469 15.746094 2.132812 L 17.3125 2.132812 C 17.53125 2.132812 17.707031 2.308594 17.707031 2.53125 L 17.707031 3.03125 L 20.65625 3.03125 C 21.277344 3.03125 21.78125 3.542969 21.78125 4.171875 L 21.78125 6.152344 L 22.414062 6.152344 C 22.875 6.152344 23.246094 6.53125 23.246094 6.996094 C 23.246094 7.964844 24.40625 8.453125 25.082031 7.765625 C 25.40625 7.4375 25.933594 7.4375 26.257812 7.765625 L 27.199219 8.71875 C 27.523438 9.046875 27.523438 9.578125 27.199219 9.910156 C 26.519531 10.59375 27.003906 11.769531 27.960938 11.769531 C 28.421875 11.769531 28.789062 12.148438 28.789062 12.613281 L 28.789062 13.957031 C 28.789062 14.421875 28.421875 14.800781 27.960938 14.800781 C 27.003906 14.800781 26.519531 15.976562 27.199219 16.660156 C 27.523438 16.988281 27.523438 17.523438 27.199219 17.851562 L 26.257812 18.804688 C 25.933594 19.132812 25.40625 19.132812 25.082031 18.804688 C 24.40625 18.117188 23.246094 18.605469 23.246094 19.574219 C 23.246094 20.042969 22.875 20.417969 22.414062 20.417969 L 21.78125 20.417969 L 21.78125 22.398438 C 21.78125 23.027344 21.277344 23.539062 20.65625 23.539062 L 13.671875 23.539062 L 16.457031 26.359375 C 16.835938 26.746094 16.835938 27.375 16.457031 27.761719 L 15.769531 28.453125 C 15.390625 28.839844 14.765625 28.839844 14.386719 28.453125 L 11.234375 25.261719 C 10.996094 25.019531 10.910156 24.683594 10.96875 24.371094 Z M 6.671875 14.566406 C 6.890625 14.527344 7.117188 14.5 7.34375 14.488281 L 7.34375 4.910156 C 7.34375 4.6875 7.519531 4.507812 7.738281 4.507812 L 9.960938 4.507812 L 9.960938 3.832031 L 7.007812 3.832031 C 6.824219 3.832031 6.671875 3.984375 6.671875 4.171875 Z M 8.132812 14.507812 C 10.609375 14.777344 12.539062 16.902344 12.539062 19.484375 C 12.539062 20.109375 12.425781 20.707031 12.21875 21.261719 L 19.53125 21.261719 L 19.53125 5.308594 L 8.132812 5.308594 Z M 11.257812 22.84375 C 11.148438 22.964844 11.035156 23.078125 10.917969 23.1875 L 11.410156 23.6875 C 11.511719 23.582031 11.644531 23.445312 11.75 23.339844 Z M 16.917969 4.507812 L 16.917969 2.929688 L 15.390625 2.929688 C 15.171875 2.929688 14.996094 2.75 14.996094 2.53125 C 14.996094 1.878906 14.476562 1.351562 13.832031 1.351562 C 13.191406 1.351562 12.667969 1.878906 12.667969 2.53125 C 12.667969 2.75 12.492188 2.929688 12.273438 2.929688 L 10.75 2.929688 L 10.75 4.507812 Z M 20.992188 22.398438 L 20.992188 4.171875 C 20.992188 3.984375 20.839844 3.832031 20.65625 3.832031 L 17.707031 3.832031 L 17.707031 4.507812 L 19.925781 4.507812 C 20.144531 4.507812 20.320312 4.6875 20.320312 4.910156 L 20.320312 21.660156 C 20.320312 21.882812 20.144531 22.058594 19.925781 22.058594 L 11.832031 22.058594 C 11.804688 22.109375 11.773438 22.15625 11.742188 22.207031 L 12.269531 22.738281 L 20.65625 22.738281 C 20.839844 22.738281 20.992188 22.585938 20.992188 22.398438 Z M 21.78125 19.617188 L 22.414062 19.617188 C 22.4375 19.617188 22.457031 19.597656 22.457031 19.574219 C 22.457031 17.894531 24.46875 17.050781 25.640625 18.238281 C 25.65625 18.257812 25.683594 18.257812 25.703125 18.238281 L 26.640625 17.289062 C 26.65625 17.269531 26.65625 17.242188 26.640625 17.226562 C 25.46875 16.039062 26.300781 14 27.960938 14 C 27.984375 14 28.003906 13.980469 28.003906 13.957031 L 28.003906 12.613281 C 28.003906 12.589844 27.984375 12.570312 27.960938 12.570312 C 26.300781 12.570312 25.46875 10.53125 26.640625 9.34375 C 26.65625 9.328125 26.65625 9.300781 26.640625 9.28125 L 25.703125 8.332031 C 25.683594 8.3125 25.65625 8.3125 25.640625 8.332031 C 24.46875 9.519531 22.457031 8.675781 22.457031 6.996094 C 22.457031 6.972656 22.4375 6.953125 22.414062 6.953125 L 21.78125 6.953125 L 21.78125 9.652344 C 23.742188 9.667969 25.339844 11.292969 25.339844 13.285156 C 25.339844 15.277344 23.742188 16.902344 21.78125 16.917969 Z M 21.78125 10.449219 L 21.78125 16.121094 C 23.308594 16.105469 24.550781 14.835938 24.550781 13.285156 C 24.550781 11.734375 23.308594 10.464844 21.78125 10.449219 Z M 13.164062 9.273438 C 12.945312 9.273438 12.769531 9.09375 12.769531 8.875 C 12.769531 8.652344 12.945312 8.476562 13.164062 8.476562 L 18.371094 8.476562 C 18.589844 8.476562 18.765625 8.652344 18.765625 8.875 C 18.765625 9.09375 18.589844 9.273438 18.371094 9.273438 Z M 9.035156 13.5 C 8.871094 13.355469 8.855469 13.101562 9 12.933594 C 9.140625 12.769531 9.390625 12.753906 9.554688 12.898438 L 10.230469 13.5 L 11.671875 12.238281 C 11.835938 12.09375 12.085938 12.113281 12.226562 12.28125 C 12.371094 12.445312 12.351562 12.699219 12.1875 12.84375 L 10.488281 14.332031 C 10.339844 14.460938 10.117188 14.460938 9.96875 14.328125 Z M 13.164062 14.429688 C 12.945312 14.429688 12.769531 14.25 12.769531 14.027344 C 12.769531 13.808594 12.945312 13.628906 13.164062 13.628906 L 15.394531 13.628906 C 15.609375 13.628906 15.789062 13.808594 15.789062 14.027344 C 15.789062 14.25 15.609375 14.429688 15.394531 14.429688 Z M 13.164062 10.640625 C 12.945312 10.640625 12.769531 10.460938 12.769531 10.242188 C 12.769531 10.019531 12.945312 9.839844 13.164062 9.839844 L 15.394531 9.839844 C 15.609375 9.839844 15.789062 10.019531 15.789062 10.242188 C 15.789062 10.460938 15.609375 10.640625 15.394531 10.640625 Z M 13.164062 13.0625 C 12.945312 13.0625 12.769531 12.882812 12.769531 12.664062 C 12.769531 12.441406 12.945312 12.261719 13.164062 12.261719 L 18.371094 12.261719 C 18.589844 12.261719 18.765625 12.441406 18.765625 12.664062 C 18.765625 12.882812 18.589844 13.0625 18.371094 13.0625 Z M 13.164062 16.851562 C 12.945312 16.851562 12.769531 16.671875 12.769531 16.449219 C 12.769531 16.230469 12.945312 16.050781 13.164062 16.050781 L 18.371094 16.050781 C 18.589844 16.050781 18.765625 16.230469 18.765625 16.449219 C 18.765625 16.671875 18.589844 16.851562 18.371094 16.851562 Z M 9.035156 9.710938 C 8.871094 9.566406 8.855469 9.3125 9 9.148438 C 9.140625 8.980469 9.390625 8.964844 9.554688 9.109375 L 10.230469 9.710938 L 11.671875 8.449219 C 11.835938 8.308594 12.085938 8.324219 12.226562 8.492188 C 12.371094 8.660156 12.351562 8.910156 12.1875 9.054688 L 10.488281 10.542969 C 10.339844 10.671875 10.117188 10.671875 9.96875 10.542969 Z M 13.164062 18.214844 C 12.945312 18.214844 12.769531 18.035156 12.769531 17.816406 C 12.769531 17.597656 12.945312 17.417969 13.164062 17.417969 L 15.394531 17.417969 C 15.609375 17.417969 15.789062 17.597656 15.789062 17.816406 C 15.789062 18.035156 15.609375 18.214844 15.394531 18.214844 Z M 13.832031 2.945312 C 13.605469 2.945312 13.421875 2.761719 13.421875 2.53125 C 13.421875 2.300781 13.605469 2.113281 13.832031 2.113281 C 14.058594 2.113281 14.242188 2.300781 14.242188 2.53125 C 14.242188 2.761719 14.058594 2.945312 13.832031 2.945312 Z M 7.597656 15.277344 C 5.308594 15.277344 3.449219 17.160156 3.449219 19.484375 C 3.449219 21.804688 5.308594 23.6875 7.597656 23.6875 C 9.890625 23.6875 11.75 21.804688 11.75 19.484375 C 11.75 17.160156 9.890625 15.277344 7.597656 15.277344 Z M 7.597656 23.253906 C 5.550781 23.253906 3.875 21.558594 3.875 19.484375 C 3.875 17.40625 5.550781 15.710938 7.597656 15.710938 C 9.652344 15.710938 11.320312 17.40625 11.320312 19.484375 C 11.320312 21.558594 9.652344 23.253906 7.597656 23.253906 Z M 7.597656 22.453125 C 9.214844 22.453125 10.535156 21.121094 10.535156 19.484375 C 10.535156 17.847656 9.214844 16.511719 7.597656 16.511719 C 5.984375 16.511719 4.664062 17.847656 4.664062 19.484375 C 4.664062 21.121094 5.984375 22.453125 7.597656 22.453125 Z M 5.640625 19.671875 C 5.476562 19.527344 5.457031 19.273438 5.601562 19.109375 C 5.746094 18.941406 5.996094 18.925781 6.160156 19.070312 C 6.160156 19.070312 7.109375 19.914062 7.109375 19.914062 L 9.042969 18.21875 C 9.207031 18.078125 9.457031 18.09375 9.597656 18.261719 C 9.742188 18.429688 9.722656 18.679688 9.558594 18.824219 L 7.363281 20.746094 C 7.214844 20.875 6.992188 20.875 6.847656 20.742188 Z M 11.792969 24.425781 C 11.71875 24.5 11.71875 24.621094 11.792969 24.695312 L 14.945312 27.890625 C 15.019531 27.964844 15.140625 27.964844 15.214844 27.890625 L 15.898438 27.195312 C 15.972656 27.121094 15.972656 27 15.898438 26.925781 L 12.746094 23.730469 C 12.671875 23.65625 12.550781 23.65625 12.480469 23.730469 Z M 11.792969 24.425781 " fill-opacity="1" fill-rule="evenodd"/></g></svg>