<svg xmlns="http://www.w3.org/2000/svg" xmlns:xlink="http://www.w3.org/1999/xlink" width="40" zoomAndPan="magnify" viewBox="0 0 30 30.000001" height="40" preserveAspectRatio="xMidYMid meet" version="1.0"><defs><clipPath id="19fd69f64f"><path d="M 1.933594 0.582031 L 28 0.582031 L 28 28.160156 L 1.933594 28.160156 Z M 1.933594 0.582031 " clip-rule="nonzero"/></clipPath></defs><g clip-path="url(#19fd69f64f)"><path fill="#ffffff" d="M 16.570312 26.417969 L 2.394531 26.417969 C 2.148438 26.417969 1.945312 26.21875 1.945312 25.96875 L 1.945312 3.722656 C 1.945312 3.476562 2.148438 3.273438 2.394531 3.273438 L 4.640625 3.273438 L 4.640625 1.03125 C 4.640625 0.78125 4.839844 0.582031 5.089844 0.582031 L 19.472656 0.582031 C 19.59375 0.582031 19.707031 0.628906 19.792969 0.710938 L 22.574219 3.496094 C 22.65625 3.578125 22.703125 3.695312 22.703125 3.8125 L 22.703125 6.378906 C 23.84375 5.238281 24.664062 4.421875 24.664062 4.421875 C 25.316406 3.761719 26.394531 3.761719 27.050781 4.417969 L 27.402344 4.769531 C 27.402344 4.769531 27.402344 4.769531 27.40625 4.769531 C 28.058594 5.429688 28.058594 6.503906 27.402344 7.160156 L 22.703125 11.859375 L 22.703125 18.980469 C 24.382812 19.777344 25.546875 21.492188 25.546875 23.472656 C 25.546875 26.21875 23.316406 28.445312 20.574219 28.445312 C 18.933594 28.445312 17.476562 27.648438 16.570312 26.417969 Z M 5.539062 3.273438 L 16.78125 3.273438 C 16.902344 3.273438 17.015625 3.320312 17.097656 3.40625 L 19.878906 6.1875 C 19.964844 6.269531 20.011719 6.382812 20.011719 6.503906 L 20.011719 9.070312 C 20.621094 8.464844 21.234375 7.851562 21.804688 7.277344 L 21.804688 4.261719 L 19.472656 4.261719 C 19.226562 4.261719 19.023438 4.0625 19.023438 3.8125 L 19.023438 1.480469 C 17.121094 1.480469 5.539062 1.480469 5.539062 1.480469 Z M 19.113281 9.96875 L 19.113281 6.953125 L 16.78125 6.953125 C 16.53125 6.953125 16.332031 6.75 16.332031 6.503906 L 16.332031 4.171875 C 13.945312 4.171875 2.847656 4.171875 2.847656 4.171875 L 2.847656 25.519531 L 16.042969 25.519531 C 15.757812 24.894531 15.601562 24.203125 15.601562 23.472656 C 15.601562 23.324219 15.609375 23.179688 15.621094 23.035156 L 5.898438 23.035156 C 5.652344 23.035156 5.449219 22.832031 5.449219 22.582031 C 5.449219 22.335938 5.652344 22.132812 5.898438 22.132812 L 15.785156 22.132812 C 16.238281 20.507812 17.5 19.214844 19.113281 18.71875 L 19.113281 15.453125 L 18.480469 16.082031 C 18.425781 16.136719 18.355469 16.179688 18.28125 16.199219 L 16.503906 16.675781 C 16.464844 16.886719 16.28125 17.042969 16.0625 17.042969 L 5.898438 17.042969 C 5.652344 17.042969 5.449219 16.84375 5.449219 16.59375 C 5.449219 16.347656 5.652344 16.144531 5.898438 16.144531 L 14.925781 16.144531 L 15.488281 14.050781 L 5.898438 14.050781 C 5.652344 14.050781 5.449219 13.847656 5.449219 13.601562 C 5.449219 13.351562 5.652344 13.152344 5.898438 13.152344 L 15.933594 13.152344 C 16.402344 12.679688 17.675781 11.40625 19.113281 9.96875 Z M 18.476562 6.054688 L 17.230469 4.808594 C 17.230469 5.417969 17.230469 6.054688 17.230469 6.054688 Z M 21.171875 3.363281 L 19.921875 2.117188 C 19.921875 2.726562 19.921875 3.363281 19.921875 3.363281 Z M 21.804688 12.757812 L 20.011719 14.550781 L 20.011719 18.53125 C 20.195312 18.511719 20.382812 18.5 20.574219 18.5 C 21 18.5 21.410156 18.554688 21.804688 18.652344 Z M 16.289062 14.523438 C 16.128906 15.113281 15.917969 15.90625 15.917969 15.90625 L 17.300781 15.535156 Z M 18.164062 15.132812 L 25.425781 7.871094 L 23.953125 6.398438 L 16.691406 13.660156 Z M 26.058594 7.238281 L 26.769531 6.527344 C 27.078125 6.21875 27.078125 5.714844 26.769531 5.402344 L 26.417969 5.054688 C 26.417969 5.054688 26.417969 5.054688 26.417969 5.050781 C 26.109375 4.742188 25.605469 4.742188 25.296875 5.050781 C 25.296875 5.050781 25.296875 5.054688 25.296875 5.054688 L 24.585938 5.761719 Z M 20.574219 19.398438 C 18.324219 19.398438 16.5 21.222656 16.5 23.472656 C 16.5 25.71875 18.324219 27.546875 20.574219 27.546875 C 22.820312 27.546875 24.648438 25.71875 24.648438 23.472656 C 24.648438 21.222656 22.820312 19.398438 20.574219 19.398438 Z M 18.222656 23.714844 C 18.050781 23.539062 18.050781 23.253906 18.222656 23.078125 C 18.398438 22.902344 18.683594 22.902344 18.859375 23.078125 C 18.859375 23.078125 19.949219 24.164062 19.949219 24.164062 L 22.289062 21.824219 C 22.460938 21.652344 22.746094 21.652344 22.921875 21.824219 C 23.097656 22 23.097656 22.285156 22.921875 22.460938 L 20.265625 25.117188 C 20.089844 25.292969 19.804688 25.292969 19.628906 25.117188 Z M 10.609375 8.0625 C 10.363281 8.0625 10.160156 7.863281 10.160156 7.613281 C 10.160156 7.367188 10.363281 7.164062 10.609375 7.164062 L 13.191406 7.164062 C 13.441406 7.164062 13.640625 7.367188 13.640625 7.613281 C 13.640625 7.863281 13.441406 8.0625 13.191406 8.0625 Z M 5.582031 7.996094 C 5.40625 7.820312 5.40625 7.535156 5.582031 7.359375 C 5.757812 7.183594 6.042969 7.183594 6.21875 7.359375 L 7.085938 8.226562 L 8.734375 6.582031 C 8.90625 6.40625 9.191406 6.40625 9.367188 6.582031 C 9.542969 6.757812 9.542969 7.042969 9.367188 7.21875 L 7.40625 9.179688 C 7.230469 9.355469 6.945312 9.355469 6.769531 9.179688 Z M 5.898438 20.039062 C 5.652344 20.039062 5.449219 19.835938 5.449219 19.589844 C 5.449219 19.339844 5.652344 19.140625 5.898438 19.140625 L 16.0625 19.140625 C 16.308594 19.140625 16.511719 19.339844 16.511719 19.589844 C 16.511719 19.835938 16.308594 20.039062 16.0625 20.039062 Z M 5.898438 11.058594 C 5.652344 11.058594 5.449219 10.855469 5.449219 10.609375 C 5.449219 10.359375 5.652344 10.160156 5.898438 10.160156 L 16.0625 10.160156 C 16.308594 10.160156 16.511719 10.359375 16.511719 10.609375 C 16.511719 10.855469 16.308594 11.058594 16.0625 11.058594 Z M 5.898438 11.058594 " fill-opacity="1" fill-rule="evenodd"/></g></svg>