<svg xmlns="http://www.w3.org/2000/svg" xmlns:xlink="http://www.w3.org/1999/xlink" width="40" zoomAndPan="magnify" viewBox="0 0 30 30.000001" height="40" preserveAspectRatio="xMidYMid meet" version="1.0"><defs><clipPath id="dc67205f33"><path d="M 1.933594 0.582031 L 28 0.582031 L 28 28.160156 L 1.933594 28.160156 Z M 1.933594 0.582031 " clip-rule="nonzero"/></clipPath></defs><g clip-path="url(#dc67205f33)"><path fill="#000000" d="M 16.570312 26.15625 L 2.394531 26.15625 C 2.148438 26.15625 1.945312 25.957031 1.945312 25.710938 L 1.945312 3.691406 C 1.945312 3.445312 2.148438 3.246094 2.394531 3.246094 L 4.640625 3.246094 L 4.640625 1.027344 C 4.640625 0.78125 4.839844 0.582031 5.089844 0.582031 L 19.472656 0.582031 C 19.59375 0.582031 19.707031 0.628906 19.792969 0.710938 L 22.574219 3.464844 C 22.65625 3.550781 22.703125 3.664062 22.703125 3.78125 L 22.703125 6.320312 C 23.84375 5.191406 24.664062 4.382812 24.664062 4.382812 C 25.316406 3.726562 26.394531 3.726562 27.050781 4.378906 L 27.402344 4.726562 C 27.402344 4.726562 27.402344 4.726562 27.40625 4.726562 C 28.058594 5.382812 28.058594 6.445312 27.402344 7.09375 L 22.703125 11.746094 L 22.703125 18.792969 C 24.382812 19.582031 25.546875 21.277344 25.546875 23.238281 C 25.546875 25.957031 23.316406 28.160156 20.574219 28.160156 C 18.933594 28.160156 17.476562 27.371094 16.570312 26.15625 Z M 5.539062 3.246094 L 16.78125 3.246094 C 16.902344 3.246094 17.015625 3.292969 17.097656 3.375 L 19.878906 6.128906 C 19.964844 6.210938 20.011719 6.324219 20.011719 6.441406 L 20.011719 8.984375 C 20.621094 8.382812 21.234375 7.777344 21.804688 7.210938 L 21.804688 4.226562 L 19.472656 4.226562 C 19.226562 4.226562 19.023438 4.027344 19.023438 3.78125 L 19.023438 1.46875 C 17.121094 1.46875 5.539062 1.46875 5.539062 1.46875 Z M 19.113281 9.875 L 19.113281 6.886719 L 16.78125 6.886719 C 16.53125 6.886719 16.332031 6.6875 16.332031 6.441406 L 16.332031 4.136719 C 13.945312 4.136719 2.847656 4.136719 2.847656 4.136719 L 2.847656 25.265625 L 16.042969 25.265625 C 15.757812 24.648438 15.601562 23.960938 15.601562 23.238281 C 15.601562 23.09375 15.609375 22.949219 15.621094 22.804688 L 5.898438 22.804688 C 5.652344 22.804688 5.449219 22.605469 5.449219 22.359375 C 5.449219 22.113281 5.652344 21.914062 5.898438 21.914062 L 15.785156 21.914062 C 16.238281 20.304688 17.5 19.023438 19.113281 18.535156 L 19.113281 15.300781 L 18.480469 15.925781 C 18.425781 15.980469 18.355469 16.019531 18.28125 16.039062 L 16.503906 16.511719 C 16.464844 16.71875 16.28125 16.875 16.0625 16.875 L 5.898438 16.875 C 5.652344 16.875 5.449219 16.675781 5.449219 16.433594 C 5.449219 16.1875 5.652344 15.988281 5.898438 15.988281 L 14.925781 15.988281 L 15.488281 13.914062 L 5.898438 13.914062 C 5.652344 13.914062 5.449219 13.714844 5.449219 13.46875 C 5.449219 13.222656 5.652344 13.023438 5.898438 13.023438 L 15.933594 13.023438 C 16.402344 12.558594 17.675781 11.296875 19.113281 9.875 Z M 18.476562 6 L 17.230469 4.765625 C 17.230469 5.367188 17.230469 6 17.230469 6 Z M 21.171875 3.335938 L 19.921875 2.101562 C 19.921875 2.703125 19.921875 3.335938 19.921875 3.335938 Z M 21.804688 12.632812 L 20.011719 14.410156 L 20.011719 18.347656 C 20.195312 18.328125 20.382812 18.316406 20.574219 18.316406 C 21 18.316406 21.410156 18.371094 21.804688 18.46875 Z M 16.289062 14.382812 C 16.128906 14.964844 15.917969 15.75 15.917969 15.75 L 17.300781 15.382812 Z M 18.164062 14.984375 L 25.425781 7.796875 L 23.953125 6.335938 L 16.691406 13.527344 Z M 26.058594 7.167969 L 26.769531 6.464844 C 27.078125 6.160156 27.078125 5.660156 26.769531 5.355469 L 26.417969 5.007812 C 26.109375 4.699219 25.605469 4.699219 25.296875 5.007812 L 24.585938 5.710938 Z M 20.574219 19.207031 C 18.324219 19.207031 16.5 21.015625 16.5 23.238281 C 16.5 25.464844 18.324219 27.273438 20.574219 27.273438 C 22.820312 27.273438 24.648438 25.464844 24.648438 23.238281 C 24.648438 21.015625 22.820312 19.207031 20.574219 19.207031 Z M 18.222656 23.476562 C 18.050781 23.304688 18.050781 23.023438 18.222656 22.847656 C 18.398438 22.675781 18.683594 22.675781 18.859375 22.847656 C 18.859375 22.847656 19.949219 23.925781 19.949219 23.925781 L 22.289062 21.609375 C 22.460938 21.4375 22.746094 21.4375 22.921875 21.609375 C 23.097656 21.785156 23.097656 22.066406 22.921875 22.238281 L 20.265625 24.871094 C 20.089844 25.042969 19.804688 25.042969 19.628906 24.871094 Z M 10.609375 7.988281 C 10.363281 7.988281 10.160156 7.789062 10.160156 7.542969 C 10.160156 7.296875 10.363281 7.097656 10.609375 7.097656 L 13.191406 7.097656 C 13.441406 7.097656 13.640625 7.296875 13.640625 7.542969 C 13.640625 7.789062 13.441406 7.988281 13.191406 7.988281 Z M 5.582031 7.917969 C 5.40625 7.746094 5.40625 7.464844 5.582031 7.289062 C 5.757812 7.117188 6.042969 7.117188 6.21875 7.289062 L 7.085938 8.148438 L 8.734375 6.519531 C 8.90625 6.347656 9.191406 6.347656 9.367188 6.519531 C 9.542969 6.695312 9.542969 6.976562 9.367188 7.148438 L 7.40625 9.09375 C 7.230469 9.265625 6.945312 9.265625 6.769531 9.09375 Z M 5.898438 19.839844 C 5.652344 19.839844 5.449219 19.640625 5.449219 19.394531 C 5.449219 19.152344 5.652344 18.949219 5.898438 18.949219 L 16.0625 18.949219 C 16.308594 18.949219 16.511719 19.152344 16.511719 19.394531 C 16.511719 19.640625 16.308594 19.839844 16.0625 19.839844 Z M 5.898438 10.949219 C 5.652344 10.949219 5.449219 10.75 5.449219 10.507812 C 5.449219 10.261719 5.652344 10.0625 5.898438 10.0625 L 16.0625 10.0625 C 16.308594 10.0625 16.511719 10.261719 16.511719 10.507812 C 16.511719 10.75 16.308594 10.949219 16.0625 10.949219 Z M 5.898438 10.949219 " fill-opacity="1" fill-rule="evenodd"/></g></svg>