<svg xmlns="http://www.w3.org/2000/svg" xmlns:xlink="http://www.w3.org/1999/xlink" width="40" zoomAndPan="magnify" viewBox="0 0 30 30.000001" height="40" preserveAspectRatio="xMidYMid meet" version="1.0"><defs><clipPath id="270433e932"><path d="M 4 1 L 28 1 L 28 28.851562 L 4 28.851562 Z M 4 1 " clip-rule="nonzero"/></clipPath><clipPath id="22c0bb68eb"><path d="M 1.027344 13 L 4 13 L 4 16 L 1.027344 16 Z M 1.027344 13 " clip-rule="nonzero"/></clipPath><clipPath id="a9ef6d90cf"><path d="M 1.027344 17 L 4 17 L 4 20 L 1.027344 20 Z M 1.027344 17 " clip-rule="nonzero"/></clipPath></defs><g clip-path="url(#270433e932)"><path fill="#ffffff" d="M 23.914062 5.683594 C 23.382812 5.152344 22.808594 4.667969 22.191406 4.234375 C 21.574219 3.796875 20.929688 3.417969 20.25 3.09375 C 19.570312 2.765625 18.867188 2.5 18.144531 2.292969 C 17.417969 2.085938 16.679688 1.941406 15.933594 1.859375 C 15.183594 1.777344 14.433594 1.761719 13.679688 1.804688 C 12.929688 1.847656 12.183594 1.957031 11.453125 2.128906 C 10.71875 2.296875 10.003906 2.527344 9.308594 2.820312 C 8.613281 3.109375 7.949219 3.457031 7.3125 3.863281 L 7.488281 2.980469 C 7.511719 2.847656 7.511719 2.714844 7.484375 2.582031 C 7.457031 2.449219 7.402344 2.328125 7.328125 2.214844 C 7.253906 2.105469 7.160156 2.011719 7.046875 1.9375 C 6.933594 1.859375 6.8125 1.808594 6.679688 1.785156 C 6.546875 1.757812 6.414062 1.757812 6.28125 1.78125 C 6.148438 1.808594 6.027344 1.859375 5.914062 1.933594 C 5.800781 2.007812 5.707031 2.097656 5.628906 2.210938 C 5.554688 2.320312 5.5 2.445312 5.472656 2.574219 L 4.746094 6.207031 C 4.703125 6.488281 4.757812 6.746094 4.914062 6.980469 C 5.070312 7.207031 5.285156 7.351562 5.554688 7.417969 L 9.183594 8.144531 C 9.316406 8.167969 9.449219 8.164062 9.582031 8.136719 C 9.714844 8.109375 9.835938 8.058594 9.949219 7.984375 C 10.058594 7.90625 10.152344 7.8125 10.226562 7.703125 C 10.300781 7.589844 10.351562 7.464844 10.378906 7.335938 C 10.40625 7.203125 10.40625 7.070312 10.378906 6.9375 C 10.355469 6.804688 10.304688 6.683594 10.230469 6.570312 C 10.15625 6.457031 10.0625 6.363281 9.953125 6.285156 C 9.839844 6.207031 9.71875 6.15625 9.585938 6.128906 L 8.066406 5.824219 C 8.429688 5.578125 8.804688 5.351562 9.191406 5.144531 C 9.578125 4.941406 9.976562 4.757812 10.386719 4.597656 C 10.792969 4.441406 11.210938 4.304688 11.632812 4.195312 C 12.058594 4.085938 12.488281 4 12.921875 3.941406 C 13.355469 3.878906 13.792969 3.84375 14.230469 3.835938 C 14.667969 3.828125 15.105469 3.84375 15.542969 3.882812 C 15.976562 3.925781 16.410156 3.992188 16.839844 4.082031 C 17.269531 4.175781 17.691406 4.292969 18.105469 4.433594 C 18.519531 4.574219 18.925781 4.738281 19.320312 4.925781 C 19.714844 5.113281 20.101562 5.324219 20.472656 5.558594 C 20.84375 5.789062 21.199219 6.042969 21.542969 6.316406 C 21.882812 6.589844 22.207031 6.886719 22.515625 7.195312 C 22.824219 7.507812 23.113281 7.835938 23.382812 8.183594 C 23.652344 8.527344 23.902344 8.890625 24.128906 9.261719 C 24.355469 9.636719 24.5625 10.023438 24.742188 10.421875 C 24.925781 10.820312 25.085938 11.230469 25.21875 11.644531 C 25.355469 12.0625 25.464844 12.484375 25.550781 12.917969 C 25.636719 13.347656 25.699219 13.777344 25.734375 14.214844 C 25.769531 14.652344 25.777344 15.089844 25.765625 15.527344 C 25.75 15.964844 25.707031 16.402344 25.640625 16.835938 C 25.574219 17.269531 25.484375 17.695312 25.367188 18.117188 C 25.253906 18.542969 25.113281 18.957031 24.949219 19.363281 C 24.785156 19.769531 24.597656 20.164062 24.386719 20.550781 C 24.175781 20.933594 23.945312 21.304688 23.691406 21.664062 C 23.4375 22.019531 23.164062 22.363281 22.871094 22.6875 C 22.578125 23.011719 22.265625 23.320312 21.9375 23.609375 C 21.609375 23.898438 21.265625 24.167969 20.902344 24.417969 C 20.542969 24.667969 20.167969 24.894531 19.78125 25.101562 C 19.394531 25.308594 19 25.492188 18.589844 25.652344 C 18.183594 25.808594 17.765625 25.945312 17.34375 26.058594 C 16.917969 26.167969 16.488281 26.253906 16.054688 26.316406 C 15.621094 26.378906 15.183594 26.414062 14.746094 26.425781 C 14.609375 26.425781 14.480469 26.457031 14.355469 26.511719 C 14.230469 26.566406 14.121094 26.644531 14.027344 26.742188 C 13.933594 26.839844 13.863281 26.953125 13.8125 27.082031 C 13.765625 27.207031 13.742188 27.339844 13.746094 27.476562 C 13.75 27.613281 13.777344 27.742188 13.832031 27.867188 C 13.886719 27.992188 13.964844 28.101562 14.0625 28.195312 C 14.164062 28.289062 14.273438 28.359375 14.402344 28.410156 C 14.53125 28.460938 14.660156 28.480469 14.796875 28.480469 C 16.105469 28.445312 17.378906 28.226562 18.621094 27.820312 C 19.863281 27.414062 21.019531 26.839844 22.09375 26.09375 C 23.164062 25.347656 24.109375 24.464844 24.921875 23.441406 C 25.734375 22.417969 26.386719 21.300781 26.871094 20.085938 C 27.355469 18.871094 27.65625 17.617188 27.773438 16.3125 C 27.890625 15.011719 27.816406 13.722656 27.554688 12.441406 C 27.289062 11.160156 26.847656 9.945312 26.230469 8.792969 C 25.609375 7.644531 24.839844 6.605469 23.914062 5.683594 Z M 23.914062 5.683594 " fill-opacity="1" fill-rule="nonzero"/></g><g clip-path="url(#22c0bb68eb)"><path fill="#ffffff" d="M 2.175781 15.273438 C 2.453125 15.273438 2.6875 15.175781 2.886719 14.984375 C 3.085938 14.792969 3.191406 14.5625 3.199219 14.285156 C 3.210938 14.011719 3.121094 13.769531 2.9375 13.566406 C 2.753906 13.359375 2.523438 13.246094 2.25 13.226562 C 2.113281 13.21875 1.980469 13.234375 1.851562 13.277344 C 1.722656 13.320312 1.605469 13.386719 1.503906 13.476562 C 1.402344 13.566406 1.320312 13.671875 1.257812 13.792969 C 1.199219 13.914062 1.164062 14.042969 1.152344 14.179688 C 1.144531 14.3125 1.160156 14.445312 1.203125 14.574219 C 1.246094 14.703125 1.3125 14.820312 1.402344 14.921875 C 1.492188 15.023438 1.597656 15.105469 1.71875 15.167969 C 1.839844 15.226562 1.96875 15.261719 2.105469 15.273438 Z M 2.175781 15.273438 " fill-opacity="1" fill-rule="nonzero"/></g><g clip-path="url(#a9ef6d90cf)"><path fill="#ffffff" d="M 3.554688 18.058594 C 3.519531 17.925781 3.460938 17.804688 3.378906 17.699219 C 3.292969 17.589844 3.195312 17.5 3.078125 17.433594 C 2.960938 17.363281 2.832031 17.320312 2.699219 17.304688 C 2.5625 17.285156 2.429688 17.292969 2.300781 17.328125 C 2.167969 17.363281 2.046875 17.421875 1.941406 17.503906 C 1.832031 17.585938 1.742188 17.6875 1.675781 17.804688 C 1.605469 17.921875 1.5625 18.046875 1.546875 18.179688 C 1.527344 18.316406 1.535156 18.449219 1.570312 18.582031 L 1.570312 18.59375 C 1.628906 18.816406 1.753906 18.996094 1.933594 19.136719 C 2.117188 19.277344 2.324219 19.351562 2.554688 19.351562 C 2.648438 19.355469 2.738281 19.339844 2.824219 19.3125 C 2.957031 19.277344 3.074219 19.21875 3.183594 19.136719 C 3.292969 19.054688 3.378906 18.953125 3.449219 18.835938 C 3.519531 18.71875 3.5625 18.59375 3.578125 18.457031 C 3.597656 18.320312 3.589844 18.1875 3.554688 18.058594 Z M 3.554688 18.058594 " fill-opacity="1" fill-rule="nonzero"/></g><path fill="#ffffff" d="M 2.730469 11.214844 C 2.859375 11.273438 2.992188 11.300781 3.132812 11.296875 C 3.335938 11.300781 3.527344 11.246094 3.699219 11.132812 C 3.871094 11.019531 3.996094 10.871094 4.078125 10.679688 C 4.132812 10.554688 4.160156 10.425781 4.164062 10.289062 C 4.164062 10.152344 4.140625 10.019531 4.089844 9.890625 C 4.042969 9.765625 3.96875 9.652344 3.875 9.554688 C 3.777344 9.457031 3.667969 9.378906 3.542969 9.324219 C 3.417969 9.269531 3.289062 9.242188 3.152344 9.242188 C 3.015625 9.238281 2.882812 9.261719 2.753906 9.3125 C 2.628906 9.363281 2.515625 9.4375 2.417969 9.53125 C 2.320312 9.628906 2.242188 9.738281 2.191406 9.863281 C 2.136719 9.988281 2.109375 10.121094 2.105469 10.257812 C 2.105469 10.394531 2.128906 10.523438 2.179688 10.652344 C 2.230469 10.777344 2.304688 10.890625 2.398438 10.988281 C 2.496094 11.085938 2.605469 11.160156 2.730469 11.214844 Z M 2.730469 11.214844 " fill-opacity="1" fill-rule="nonzero"/><path fill="#ffffff" d="M 11.03125 25.894531 C 10.902344 25.851562 10.769531 25.832031 10.628906 25.84375 C 10.492188 25.851562 10.363281 25.886719 10.238281 25.949219 C 10.117188 26.011719 10.011719 26.097656 9.921875 26.203125 C 9.832031 26.304688 9.765625 26.425781 9.726562 26.554688 C 9.683594 26.6875 9.667969 26.820312 9.683594 26.957031 C 9.695312 27.097656 9.734375 27.226562 9.800781 27.347656 C 9.863281 27.46875 9.949219 27.574219 10.058594 27.660156 C 10.164062 27.746094 10.285156 27.808594 10.414062 27.847656 C 10.515625 27.878906 10.617188 27.898438 10.722656 27.898438 C 10.976562 27.898438 11.199219 27.816406 11.390625 27.648438 C 11.582031 27.484375 11.695312 27.277344 11.734375 27.027344 C 11.773438 26.777344 11.726562 26.546875 11.59375 26.332031 C 11.460938 26.117188 11.273438 25.972656 11.03125 25.894531 Z M 11.03125 25.894531 " fill-opacity="1" fill-rule="nonzero"/><path fill="#ffffff" d="M 3.6875 21.191406 C 3.574219 21.265625 3.480469 21.359375 3.402344 21.476562 C 3.328125 21.589844 3.277344 21.710938 3.25 21.847656 C 3.226562 21.980469 3.226562 22.113281 3.253906 22.25 C 3.28125 22.382812 3.332031 22.503906 3.410156 22.617188 C 3.617188 22.914062 3.898438 23.066406 4.261719 23.070312 C 4.472656 23.070312 4.664062 23.007812 4.835938 22.886719 C 4.949219 22.808594 5.042969 22.714844 5.121094 22.601562 C 5.195312 22.492188 5.246094 22.367188 5.273438 22.234375 C 5.296875 22.101562 5.296875 21.96875 5.269531 21.835938 C 5.242188 21.703125 5.191406 21.578125 5.113281 21.46875 C 5.039062 21.355469 4.945312 21.261719 4.828125 21.183594 C 4.714844 21.109375 4.59375 21.058594 4.457031 21.03125 C 4.324219 21.007812 4.191406 21.007812 4.058594 21.035156 C 3.921875 21.0625 3.800781 21.113281 3.6875 21.191406 Z M 3.6875 21.191406 " fill-opacity="1" fill-rule="nonzero"/><path fill="#ffffff" d="M 6.265625 24.386719 C 6.183594 24.496094 6.125 24.613281 6.09375 24.746094 C 6.058594 24.878906 6.050781 25.011719 6.070312 25.148438 C 6.089844 25.28125 6.136719 25.40625 6.203125 25.523438 C 6.273438 25.640625 6.363281 25.742188 6.46875 25.824219 C 6.652344 25.957031 6.859375 26.027344 7.085938 26.027344 C 7.429688 26.027344 7.703125 25.890625 7.910156 25.617188 C 7.992188 25.507812 8.046875 25.386719 8.082031 25.257812 C 8.113281 25.125 8.121094 24.992188 8.101562 24.855469 C 8.082031 24.722656 8.039062 24.597656 7.96875 24.480469 C 7.902344 24.363281 7.8125 24.261719 7.703125 24.179688 C 7.59375 24.097656 7.476562 24.035156 7.34375 24 C 7.210938 23.96875 7.078125 23.960938 6.941406 23.976562 C 6.804688 23.996094 6.679688 24.042969 6.5625 24.113281 C 6.445312 24.183594 6.34375 24.273438 6.265625 24.386719 Z M 6.265625 24.386719 " fill-opacity="1" fill-rule="nonzero"/><path fill="#ffffff" d="M 13.246094 16.066406 L 17.355469 20.171875 C 17.453125 20.269531 17.5625 20.339844 17.691406 20.394531 C 17.816406 20.445312 17.945312 20.46875 18.082031 20.46875 C 18.21875 20.46875 18.347656 20.445312 18.472656 20.394531 C 18.601562 20.339844 18.710938 20.269531 18.808594 20.171875 C 18.90625 20.078125 18.980469 19.964844 19.03125 19.839844 C 19.082031 19.714844 19.109375 19.582031 19.109375 19.449219 C 19.109375 19.3125 19.082031 19.179688 19.03125 19.054688 C 18.980469 18.929688 18.90625 18.816406 18.808594 18.722656 L 15 14.914062 L 15 9.175781 C 15 9.039062 14.972656 8.90625 14.921875 8.78125 C 14.871094 8.65625 14.796875 8.542969 14.699219 8.449219 C 14.601562 8.351562 14.492188 8.277344 14.367188 8.226562 C 14.238281 8.171875 14.109375 8.148438 13.972656 8.148438 C 13.835938 8.148438 13.707031 8.171875 13.578125 8.226562 C 13.453125 8.277344 13.34375 8.351562 13.246094 8.449219 C 13.148438 8.542969 13.074219 8.65625 13.023438 8.78125 C 12.972656 8.90625 12.945312 9.039062 12.945312 9.175781 L 12.945312 15.339844 C 12.949219 15.621094 13.050781 15.863281 13.246094 16.066406 Z M 13.246094 16.066406 " fill-opacity="1" fill-rule="nonzero"/></svg>