<svg xmlns="http://www.w3.org/2000/svg" xmlns:xlink="http://www.w3.org/1999/xlink" width="40" zoomAndPan="magnify" viewBox="0 0 30 30.000001" height="40" preserveAspectRatio="xMidYMid meet" version="1.0"><defs><clipPath id="e1cc80fdfc"><path d="M 4 1 L 29 1 L 29 28.851562 L 4 28.851562 Z M 4 1 " clip-rule="nonzero"/></clipPath><clipPath id="e0683b8051"><path d="M 1.027344 13 L 4 13 L 4 16 L 1.027344 16 Z M 1.027344 13 " clip-rule="nonzero"/></clipPath><clipPath id="f67f057e32"><path d="M 1.027344 17 L 4 17 L 4 20 L 1.027344 20 Z M 1.027344 17 " clip-rule="nonzero"/></clipPath><clipPath id="097e101a9a"><path d="M 9 26 L 12 26 L 12 28.851562 L 9 28.851562 Z M 9 26 " clip-rule="nonzero"/></clipPath></defs><g clip-path="url(#e1cc80fdfc)"><path fill="#000000" d="M 24.210938 5.75 C 23.671875 5.210938 23.089844 4.722656 22.464844 4.28125 C 21.84375 3.839844 21.1875 3.453125 20.5 3.125 C 19.808594 2.796875 19.097656 2.527344 18.363281 2.316406 C 17.632812 2.109375 16.882812 1.960938 16.125 1.878906 C 15.367188 1.792969 14.605469 1.777344 13.84375 1.820312 C 13.082031 1.867188 12.332031 1.976562 11.585938 2.148438 C 10.84375 2.320312 10.121094 2.554688 9.414062 2.847656 C 8.710938 3.144531 8.039062 3.496094 7.394531 3.90625 L 7.570312 3.011719 C 7.597656 2.875 7.59375 2.742188 7.566406 2.609375 C 7.539062 2.472656 7.488281 2.351562 7.410156 2.238281 C 7.332031 2.125 7.238281 2.03125 7.125 1.953125 C 7.011719 1.878906 6.886719 1.828125 6.753906 1.800781 C 6.617188 1.773438 6.484375 1.773438 6.351562 1.796875 C 6.214844 1.824219 6.089844 1.875 5.976562 1.949219 C 5.863281 2.027344 5.765625 2.121094 5.691406 2.230469 C 5.613281 2.34375 5.558594 2.46875 5.53125 2.601562 L 4.796875 6.28125 C 4.75 6.5625 4.808594 6.824219 4.964844 7.0625 C 5.125 7.292969 5.339844 7.441406 5.613281 7.503906 L 9.289062 8.242188 C 9.425781 8.265625 9.558594 8.265625 9.691406 8.238281 C 9.828125 8.207031 9.949219 8.15625 10.0625 8.078125 C 10.175781 8.003906 10.269531 7.90625 10.347656 7.792969 C 10.421875 7.679688 10.472656 7.554688 10.5 7.421875 C 10.527344 7.289062 10.527344 7.152344 10.5 7.019531 C 10.476562 6.886719 10.425781 6.761719 10.351562 6.648438 C 10.273438 6.53125 10.179688 6.4375 10.070312 6.359375 C 9.957031 6.28125 9.832031 6.230469 9.699219 6.199219 L 8.160156 5.894531 C 8.523438 5.640625 8.90625 5.410156 9.296875 5.203125 C 9.6875 4.996094 10.09375 4.8125 10.507812 4.652344 C 10.921875 4.492188 11.34375 4.355469 11.773438 4.242188 C 12.203125 4.132812 12.636719 4.046875 13.074219 3.984375 C 13.515625 3.921875 13.957031 3.886719 14.402344 3.878906 C 14.84375 3.867188 15.289062 3.886719 15.730469 3.925781 C 16.171875 3.96875 16.609375 4.035156 17.042969 4.128906 C 17.480469 4.222656 17.90625 4.339844 18.328125 4.484375 C 18.746094 4.625 19.15625 4.792969 19.558594 4.984375 C 19.960938 5.171875 20.347656 5.386719 20.722656 5.621094 C 21.101562 5.859375 21.460938 6.113281 21.808594 6.390625 C 22.15625 6.671875 22.484375 6.96875 22.796875 7.285156 C 23.105469 7.597656 23.398438 7.933594 23.671875 8.28125 C 23.945312 8.632812 24.199219 8.996094 24.429688 9.375 C 24.660156 9.757812 24.867188 10.148438 25.050781 10.550781 C 25.238281 10.953125 25.398438 11.367188 25.535156 11.789062 C 25.671875 12.210938 25.78125 12.640625 25.871094 13.078125 C 25.957031 13.511719 26.019531 13.949219 26.054688 14.394531 C 26.089844 14.835938 26.101562 15.277344 26.085938 15.722656 C 26.070312 16.167969 26.027344 16.609375 25.960938 17.046875 C 25.894531 17.484375 25.800781 17.917969 25.683594 18.347656 C 25.566406 18.777344 25.425781 19.195312 25.257812 19.605469 C 25.09375 20.019531 24.902344 20.417969 24.691406 20.808594 C 24.476562 21.199219 24.242188 21.574219 23.984375 21.9375 C 23.730469 22.296875 23.453125 22.644531 23.15625 22.976562 C 22.859375 23.304688 22.542969 23.617188 22.210938 23.910156 C 21.875 24.203125 21.527344 24.476562 21.160156 24.730469 C 20.796875 24.980469 20.417969 25.210938 20.027344 25.421875 C 19.632812 25.628906 19.230469 25.816406 18.820312 25.976562 C 18.40625 26.136719 17.984375 26.277344 17.554688 26.386719 C 17.125 26.5 16.691406 26.589844 16.25 26.652344 C 15.8125 26.710938 15.371094 26.75 14.925781 26.761719 C 14.789062 26.761719 14.65625 26.792969 14.527344 26.847656 C 14.402344 26.90625 14.292969 26.984375 14.195312 27.082031 C 14.101562 27.183594 14.03125 27.296875 13.980469 27.425781 C 13.929688 27.554688 13.90625 27.6875 13.910156 27.824219 C 13.914062 27.964844 13.945312 28.097656 14 28.222656 C 14.054688 28.347656 14.132812 28.460938 14.234375 28.554688 C 14.332031 28.648438 14.449219 28.722656 14.574219 28.773438 C 14.703125 28.820312 14.839844 28.84375 14.976562 28.839844 C 16.300781 28.808594 17.589844 28.585938 18.847656 28.175781 C 20.105469 27.765625 21.28125 27.179688 22.367188 26.425781 C 23.453125 25.667969 24.410156 24.773438 25.234375 23.738281 C 26.058594 22.703125 26.714844 21.570312 27.207031 20.339844 C 27.699219 19.109375 28.003906 17.835938 28.121094 16.519531 C 28.238281 15.199219 28.164062 13.890625 27.898438 12.59375 C 27.632812 11.300781 27.183594 10.066406 26.558594 8.902344 C 25.929688 7.738281 25.148438 6.6875 24.210938 5.75 Z M 24.210938 5.75 " fill-opacity="1" fill-rule="nonzero"/></g><g clip-path="url(#e0683b8051)"><path fill="#000000" d="M 2.191406 15.464844 C 2.46875 15.464844 2.710938 15.367188 2.910156 15.171875 C 3.113281 14.980469 3.21875 14.742188 3.226562 14.464844 C 3.238281 14.183594 3.148438 13.941406 2.960938 13.734375 C 2.777344 13.527344 2.542969 13.414062 2.265625 13.394531 C 2.125 13.382812 1.992188 13.402344 1.863281 13.445312 C 1.730469 13.488281 1.613281 13.554688 1.511719 13.644531 C 1.40625 13.734375 1.324219 13.84375 1.261719 13.964844 C 1.199219 14.089844 1.164062 14.21875 1.15625 14.355469 C 1.144531 14.492188 1.164062 14.628906 1.207031 14.757812 C 1.25 14.886719 1.316406 15.003906 1.40625 15.109375 C 1.496094 15.214844 1.605469 15.296875 1.726562 15.359375 C 1.851562 15.417969 1.980469 15.453125 2.117188 15.464844 Z M 2.191406 15.464844 " fill-opacity="1" fill-rule="nonzero"/></g><g clip-path="url(#f67f057e32)"><path fill="#000000" d="M 3.585938 18.285156 C 3.550781 18.152344 3.492188 18.03125 3.40625 17.921875 C 3.324219 17.8125 3.222656 17.722656 3.105469 17.652344 C 2.984375 17.582031 2.855469 17.539062 2.71875 17.519531 C 2.585938 17.5 2.449219 17.511719 2.316406 17.546875 C 2.183594 17.582031 2.0625 17.640625 1.953125 17.722656 C 1.84375 17.808594 1.753906 17.910156 1.683594 18.027344 C 1.613281 18.144531 1.570312 18.273438 1.550781 18.410156 C 1.535156 18.546875 1.542969 18.683594 1.578125 18.816406 L 1.578125 18.828125 C 1.636719 19.050781 1.761719 19.234375 1.949219 19.378906 C 2.132812 19.523438 2.34375 19.59375 2.578125 19.59375 C 2.667969 19.597656 2.757812 19.585938 2.847656 19.554688 C 2.980469 19.519531 3.101562 19.460938 3.210938 19.378906 C 3.320312 19.292969 3.410156 19.191406 3.480469 19.074219 C 3.550781 18.953125 3.59375 18.828125 3.613281 18.6875 C 3.628906 18.550781 3.621094 18.417969 3.585938 18.285156 Z M 3.585938 18.285156 " fill-opacity="1" fill-rule="nonzero"/></g><path fill="#000000" d="M 2.753906 11.355469 C 2.882812 11.410156 3.019531 11.441406 3.160156 11.4375 C 3.367188 11.4375 3.558594 11.382812 3.734375 11.269531 C 3.90625 11.15625 4.035156 11.003906 4.117188 10.8125 C 4.171875 10.6875 4.199219 10.554688 4.203125 10.414062 C 4.207031 10.277344 4.183594 10.144531 4.132812 10.015625 C 4.082031 9.886719 4.007812 9.769531 3.910156 9.671875 C 3.816406 9.570312 3.703125 9.496094 3.578125 9.441406 C 3.449219 9.382812 3.316406 9.355469 3.179688 9.355469 C 3.039062 9.351562 2.90625 9.375 2.777344 9.425781 C 2.648438 9.476562 2.535156 9.550781 2.4375 9.648438 C 2.335938 9.746094 2.257812 9.855469 2.203125 9.984375 C 2.148438 10.109375 2.121094 10.242188 2.121094 10.382812 C 2.117188 10.519531 2.144531 10.652344 2.195312 10.78125 C 2.246094 10.910156 2.320312 11.023438 2.417969 11.125 C 2.515625 11.222656 2.625 11.300781 2.753906 11.355469 Z M 2.753906 11.355469 " fill-opacity="1" fill-rule="nonzero"/><g clip-path="url(#097e101a9a)"><path fill="#000000" d="M 11.164062 26.226562 C 11.03125 26.179688 10.894531 26.160156 10.753906 26.171875 C 10.617188 26.179688 10.484375 26.21875 10.359375 26.28125 C 10.234375 26.34375 10.128906 26.429688 10.039062 26.535156 C 9.945312 26.640625 9.878906 26.761719 9.839844 26.894531 C 9.796875 27.027344 9.78125 27.164062 9.792969 27.300781 C 9.808594 27.441406 9.847656 27.570312 9.914062 27.695312 C 9.980469 27.816406 10.066406 27.921875 10.175781 28.011719 C 10.28125 28.097656 10.402344 28.164062 10.539062 28.203125 C 10.640625 28.234375 10.742188 28.253906 10.851562 28.253906 C 11.105469 28.253906 11.332031 28.167969 11.523438 28.003906 C 11.71875 27.835938 11.835938 27.625 11.871094 27.371094 C 11.910156 27.121094 11.863281 26.886719 11.730469 26.667969 C 11.59375 26.449219 11.40625 26.300781 11.164062 26.226562 Z M 11.164062 26.226562 " fill-opacity="1" fill-rule="nonzero"/></g><path fill="#000000" d="M 3.722656 21.457031 C 3.605469 21.535156 3.511719 21.632812 3.433594 21.746094 C 3.359375 21.863281 3.308594 21.988281 3.28125 22.125 C 3.253906 22.257812 3.253906 22.394531 3.28125 22.53125 C 3.308594 22.664062 3.363281 22.789062 3.441406 22.90625 C 3.648438 23.207031 3.9375 23.359375 4.304688 23.363281 C 4.519531 23.363281 4.710938 23.300781 4.886719 23.175781 C 5 23.097656 5.097656 23.003906 5.171875 22.890625 C 5.25 22.777344 5.300781 22.652344 5.328125 22.515625 C 5.355469 22.382812 5.351562 22.246094 5.324219 22.113281 C 5.296875 21.976562 5.246094 21.851562 5.167969 21.738281 C 5.089844 21.625 4.996094 21.527344 4.878906 21.453125 C 4.765625 21.375 4.636719 21.324219 4.503906 21.300781 C 4.367188 21.273438 4.230469 21.273438 4.097656 21.300781 C 3.960938 21.328125 3.835938 21.382812 3.722656 21.457031 Z M 3.722656 21.457031 " fill-opacity="1" fill-rule="nonzero"/><path fill="#000000" d="M 6.332031 24.695312 C 6.25 24.804688 6.191406 24.929688 6.160156 25.0625 C 6.125 25.195312 6.117188 25.328125 6.136719 25.464844 C 6.15625 25.601562 6.203125 25.730469 6.269531 25.847656 C 6.339844 25.96875 6.429688 26.070312 6.542969 26.152344 C 6.726562 26.289062 6.933594 26.359375 7.164062 26.359375 C 7.511719 26.355469 7.789062 26.21875 8 25.945312 C 8.082031 25.832031 8.140625 25.710938 8.171875 25.578125 C 8.207031 25.445312 8.214844 25.308594 8.195312 25.171875 C 8.175781 25.035156 8.128906 24.910156 8.058594 24.789062 C 7.992188 24.671875 7.898438 24.570312 7.789062 24.488281 C 7.679688 24.402344 7.558594 24.34375 7.425781 24.304688 C 7.289062 24.269531 7.15625 24.261719 7.019531 24.28125 C 6.878906 24.300781 6.753906 24.347656 6.632812 24.417969 C 6.515625 24.492188 6.414062 24.582031 6.332031 24.695312 Z M 6.332031 24.695312 " fill-opacity="1" fill-rule="nonzero"/><path fill="#000000" d="M 13.40625 16.265625 L 17.566406 20.429688 C 17.667969 20.523438 17.777344 20.597656 17.90625 20.648438 C 18.035156 20.703125 18.164062 20.726562 18.304688 20.726562 C 18.441406 20.726562 18.574219 20.703125 18.699219 20.648438 C 18.828125 20.597656 18.941406 20.523438 19.039062 20.429688 C 19.136719 20.332031 19.210938 20.21875 19.265625 20.089844 C 19.316406 19.964844 19.34375 19.832031 19.34375 19.691406 C 19.34375 19.554688 19.316406 19.421875 19.265625 19.292969 C 19.210938 19.167969 19.136719 19.054688 19.039062 18.957031 L 15.179688 15.097656 L 15.179688 9.285156 C 15.179688 9.148438 15.15625 9.015625 15.101562 8.886719 C 15.050781 8.761719 14.972656 8.648438 14.875 8.550781 C 14.777344 8.453125 14.667969 8.378906 14.539062 8.324219 C 14.410156 8.273438 14.277344 8.246094 14.140625 8.246094 C 14.003906 8.246094 13.871094 8.273438 13.742188 8.324219 C 13.613281 8.378906 13.503906 8.453125 13.40625 8.550781 C 13.308594 8.648438 13.230469 8.761719 13.179688 8.886719 C 13.125 9.015625 13.101562 9.148438 13.101562 9.285156 L 13.101562 15.53125 C 13.101562 15.816406 13.207031 16.0625 13.40625 16.265625 Z M 13.40625 16.265625 " fill-opacity="1" fill-rule="nonzero"/></svg>