<svg xmlns="http://www.w3.org/2000/svg" xmlns:xlink="http://www.w3.org/1999/xlink" width="40" zoomAndPan="magnify" viewBox="0 0 30 30.000001" height="40" preserveAspectRatio="xMidYMid meet" version="1.0"><defs><clipPath id="e7e1612878"><path d="M 1.449219 0.4375 L 28.304688 0.4375 L 28.304688 28.746094 L 1.449219 28.746094 Z M 1.449219 0.4375 " clip-rule="nonzero"/></clipPath></defs><g clip-path="url(#e7e1612878)"><path fill="#ffffff" d="M 19.445312 6.757812 C 19.386719 6.648438 19.328125 6.542969 19.269531 6.4375 L 22.042969 3.203125 C 22.125 3.285156 22.210938 3.359375 22.300781 3.425781 Z M 7.976562 7.824219 L 4.492188 9.632812 C 4.550781 9.726562 4.605469 9.828125 4.648438 9.933594 L 8.132812 8.125 C 8.070312 8.03125 8.019531 7.929688 7.976562 7.824219 Z M 14.878906 8.988281 L 11.546875 7.652344 C 11.511719 7.761719 11.46875 7.867188 11.417969 7.96875 L 14.75 9.304688 C 14.785156 9.195312 14.828125 9.089844 14.878906 8.988281 Z M 4.335938 18.121094 C 4.285156 18.074219 4.234375 18.023438 4.183594 17.972656 C 3.398438 17.1875 2.769531 16.292969 2.304688 15.324219 L 1.453125 15.324219 L 1.453125 22.578125 L 4.335938 22.578125 Z M 11.171875 17.980469 L 11.171875 12.539062 L 8.289062 12.539062 L 8.289062 17.441406 C 9.121094 17.796875 10.023438 17.984375 10.957031 17.984375 C 11.027344 17.984375 11.101562 17.984375 11.171875 17.980469 Z M 8.289062 20.402344 L 8.289062 22.578125 L 11.171875 22.578125 L 11.171875 20.777344 C 11.101562 20.777344 11.027344 20.777344 10.957031 20.777344 C 10.039062 20.777344 9.144531 20.648438 8.289062 20.402344 Z M 17.375 13.414062 L 15.125 13.414062 L 15.125 16.558594 C 15.34375 16.386719 15.554688 16.199219 15.753906 15.996094 C 16.496094 15.257812 17.042969 14.375 17.375 13.414062 Z M 15.125 19.828125 L 15.125 22.578125 L 18.007812 22.578125 L 18.007812 21.28125 L 16.046875 19.316406 C 15.746094 19.503906 15.441406 19.675781 15.125 19.828125 Z M 21.960938 19.171875 L 24.84375 22.058594 L 24.84375 7.332031 L 21.960938 7.332031 Z M 21.769531 25.039062 L 1.453125 25.039062 L 1.453125 26.28125 L 23.011719 26.28125 Z M 4.171875 11.316406 C 4.277344 11.117188 4.335938 10.890625 4.335938 10.652344 C 4.335938 10.480469 4.304688 10.316406 4.25 10.164062 C 4.191406 10.546875 4.167969 10.929688 4.171875 11.316406 Z M 9.730469 8.546875 C 10.523438 8.546875 11.171875 7.902344 11.171875 7.105469 C 11.171875 6.3125 10.523438 5.664062 9.730469 5.664062 C 8.933594 5.664062 8.289062 6.3125 8.289062 7.105469 C 8.289062 7.902344 8.933594 8.546875 9.730469 8.546875 Z M 16.566406 11.289062 C 17.042969 11.289062 17.460938 11.058594 17.726562 10.707031 C 17.671875 9.957031 17.5 9.234375 17.214844 8.558594 C 17.019531 8.460938 16.796875 8.40625 16.566406 8.40625 C 15.769531 8.40625 15.125 9.054688 15.125 9.847656 C 15.125 10.644531 15.769531 11.289062 16.566406 11.289062 Z M 23.402344 0.4375 C 22.605469 0.4375 21.960938 1.085938 21.960938 1.882812 C 21.960938 2.675781 22.605469 3.324219 23.402344 3.324219 C 24.199219 3.324219 24.84375 2.675781 24.84375 1.882812 C 24.84375 1.085938 24.199219 0.4375 23.402344 0.4375 Z M 18.816406 16.671875 C 18.5 17.128906 18.136719 17.566406 17.730469 17.972656 C 17.324219 18.375 16.890625 18.742188 16.433594 19.0625 L 17.859375 20.488281 L 20.246094 18.101562 Z M 18.179688 20.808594 L 25.375 28.007812 C 25.746094 28.375 26.246094 28.585938 26.746094 28.585938 C 27.1875 28.585938 27.589844 28.425781 27.886719 28.128906 C 28.542969 27.472656 28.488281 26.34375 27.765625 25.617188 L 20.566406 18.421875 Z M 4.503906 17.652344 C 2.78125 15.929688 1.832031 13.636719 1.832031 11.199219 C 1.832031 8.761719 2.78125 6.46875 4.503906 4.746094 C 6.226562 3.023438 8.519531 2.074219 10.957031 2.074219 C 13.394531 2.074219 15.683594 3.023438 17.410156 4.746094 C 20.964844 8.304688 20.964844 14.09375 17.410156 17.652344 C 15.683594 19.375 13.394531 20.324219 10.957031 20.324219 C 8.519531 20.324219 6.226562 19.375 4.503906 17.652344 Z M 5.835938 16.320312 C 7.203125 17.6875 9.023438 18.441406 10.957031 18.441406 C 12.890625 18.441406 14.707031 17.6875 16.078125 16.320312 C 17.445312 14.953125 18.199219 13.132812 18.199219 11.199219 C 18.199219 9.265625 17.445312 7.445312 16.078125 6.078125 C 14.707031 4.710938 12.890625 3.957031 10.957031 3.957031 C 9.023438 3.957031 7.203125 4.710938 5.835938 6.078125 C 3.011719 8.902344 3.011719 13.496094 5.835938 16.320312 Z M 5.835938 16.320312 " fill-opacity="1" fill-rule="nonzero"/></g></svg>