<svg xmlns="http://www.w3.org/2000/svg" xmlns:xlink="http://www.w3.org/1999/xlink" width="40" zoomAndPan="magnify" viewBox="0 0 30 30.000001" height="40" preserveAspectRatio="xMidYMid meet" version="1.0"><defs><clipPath id="23c24aed10"><path d="M 1.449219 0.4375 L 28.304688 0.4375 L 28.304688 28.746094 L 1.449219 28.746094 Z M 1.449219 0.4375 " clip-rule="nonzero"/></clipPath></defs><g clip-path="url(#23c24aed10)"><path fill="#000000" d="M 19.285156 6.792969 C 19.230469 6.683594 19.171875 6.578125 19.113281 6.472656 L 21.863281 3.21875 C 21.941406 3.300781 22.027344 3.375 22.121094 3.441406 Z M 7.917969 7.867188 L 4.464844 9.683594 C 4.523438 9.78125 4.578125 9.882812 4.621094 9.988281 L 8.074219 8.171875 C 8.011719 8.074219 7.960938 7.972656 7.917969 7.867188 Z M 14.757812 9.035156 L 11.457031 7.691406 C 11.425781 7.800781 11.382812 7.910156 11.332031 8.007812 L 14.632812 9.355469 C 14.667969 9.242188 14.707031 9.136719 14.757812 9.035156 Z M 4.3125 18.222656 C 4.257812 18.171875 4.207031 18.121094 4.160156 18.070312 C 3.382812 17.285156 2.757812 16.382812 2.296875 15.40625 L 1.453125 15.40625 L 1.453125 22.703125 L 4.3125 22.703125 Z M 11.085938 18.082031 L 11.085938 12.609375 L 8.226562 12.609375 L 8.226562 17.539062 C 9.050781 17.898438 9.949219 18.085938 10.871094 18.085938 C 10.945312 18.085938 11.015625 18.082031 11.085938 18.082031 Z M 8.226562 20.515625 L 8.226562 22.703125 L 11.085938 22.703125 L 11.085938 20.890625 C 11.015625 20.890625 10.945312 20.894531 10.871094 20.894531 C 9.964844 20.894531 9.078125 20.765625 8.226562 20.515625 Z M 17.234375 13.488281 L 15.003906 13.488281 L 15.003906 16.648438 C 15.222656 16.476562 15.429688 16.289062 15.628906 16.085938 C 16.363281 15.339844 16.90625 14.453125 17.234375 13.488281 Z M 15.003906 19.9375 L 15.003906 22.703125 L 17.863281 22.703125 L 17.863281 21.398438 L 15.917969 19.425781 C 15.621094 19.613281 15.316406 19.785156 15.003906 19.9375 Z M 21.78125 19.277344 L 24.640625 22.179688 L 24.640625 7.371094 L 21.78125 7.371094 Z M 21.589844 25.179688 L 1.453125 25.179688 L 1.453125 26.425781 L 22.820312 26.425781 Z M 4.148438 11.378906 C 4.253906 11.175781 4.3125 10.949219 4.3125 10.710938 C 4.3125 10.539062 4.28125 10.371094 4.226562 10.21875 C 4.167969 10.601562 4.144531 10.992188 4.148438 11.378906 Z M 9.65625 8.59375 C 10.445312 8.59375 11.085938 7.945312 11.085938 7.144531 C 11.085938 6.34375 10.445312 5.695312 9.65625 5.695312 C 8.867188 5.695312 8.226562 6.34375 8.226562 7.144531 C 8.226562 7.945312 8.867188 8.59375 9.65625 8.59375 Z M 16.433594 11.351562 C 16.902344 11.351562 17.320312 11.121094 17.582031 10.761719 C 17.53125 10.011719 17.355469 9.285156 17.074219 8.605469 C 16.882812 8.507812 16.664062 8.453125 16.433594 8.453125 C 15.644531 8.453125 15.003906 9.101562 15.003906 9.902344 C 15.003906 10.703125 15.644531 11.351562 16.433594 11.351562 Z M 23.210938 0.4375 C 22.421875 0.4375 21.78125 1.089844 21.78125 1.890625 C 21.78125 2.691406 22.421875 3.339844 23.210938 3.339844 C 23.996094 3.339844 24.640625 2.691406 24.640625 1.890625 C 24.640625 1.089844 23.996094 0.4375 23.210938 0.4375 Z M 18.664062 16.765625 C 18.351562 17.222656 17.988281 17.660156 17.585938 18.070312 C 17.1875 18.476562 16.753906 18.84375 16.300781 19.167969 L 17.714844 20.601562 L 20.082031 18.199219 Z M 18.03125 20.925781 L 25.164062 28.160156 C 25.53125 28.53125 26.027344 28.746094 26.523438 28.746094 C 26.960938 28.746094 27.363281 28.582031 27.652344 28.285156 C 28.304688 27.625 28.25 26.492188 27.53125 25.761719 L 20.398438 18.523438 Z M 4.476562 17.75 C 2.769531 16.015625 1.828125 13.710938 1.828125 11.257812 C 1.828125 8.808594 2.769531 6.503906 4.476562 4.769531 C 6.183594 3.035156 8.457031 2.082031 10.871094 2.082031 C 13.289062 2.082031 15.558594 3.035156 17.269531 4.769531 C 20.796875 8.347656 20.796875 14.171875 17.269531 17.75 C 15.558594 19.480469 13.289062 20.4375 10.871094 20.4375 C 8.457031 20.4375 6.183594 19.480469 4.476562 17.75 Z M 5.796875 16.410156 C 7.152344 17.785156 8.957031 18.542969 10.871094 18.542969 C 12.789062 18.542969 14.59375 17.785156 15.949219 16.410156 C 17.304688 15.035156 18.050781 13.203125 18.050781 11.257812 C 18.050781 9.3125 17.304688 7.484375 15.949219 6.109375 C 14.59375 4.734375 12.789062 3.976562 10.871094 3.976562 C 8.957031 3.976562 7.152344 4.734375 5.796875 6.109375 C 3 8.949219 3 13.570312 5.796875 16.410156 Z M 5.796875 16.410156 " fill-opacity="1" fill-rule="nonzero"/></g></svg>