<svg xmlns="http://www.w3.org/2000/svg" xmlns:xlink="http://www.w3.org/1999/xlink" width="40" zoomAndPan="magnify" viewBox="0 0 30 30.000001" height="40" preserveAspectRatio="xMidYMid meet" version="1.0"><defs><clipPath id="f581f8e6c0"><path d="M 2.089844 0.359375 L 29.515625 0.359375 L 29.515625 28.667969 L 2.089844 28.667969 Z M 2.089844 0.359375 " clip-rule="nonzero"/></clipPath></defs><g clip-path="url(#f581f8e6c0)"><path fill="#ffffff" d="M 22.695312 15.316406 C 21.214844 13.839844 18.8125 13.839844 17.332031 15.316406 C 15.855469 16.796875 15.855469 19.203125 17.332031 20.679688 C 18.8125 22.15625 21.214844 22.15625 22.695312 20.679688 C 24.171875 19.203125 24.171875 16.796875 22.695312 15.316406 Z M 23.300781 21.285156 C 21.484375 23.09375 18.539062 23.09375 16.730469 21.285156 C 14.917969 19.472656 14.917969 16.523438 16.730469 14.714844 C 18.539062 12.902344 21.488281 12.902344 23.300781 14.714844 C 25.109375 16.523438 25.109375 19.472656 23.300781 21.285156 Z M 22.824219 17.148438 C 22.890625 17.375 22.765625 17.613281 22.539062 17.679688 C 22.308594 17.746094 22.074219 17.621094 22.003906 17.394531 C 21.789062 16.683594 21.210938 16.140625 20.488281 15.972656 C 20.257812 15.917969 20.113281 15.6875 20.167969 15.457031 C 20.222656 15.230469 20.449219 15.085938 20.679688 15.140625 C 21.703125 15.378906 22.523438 16.144531 22.824219 17.148438 Z M 11.667969 9.695312 L 20.21875 9.695312 C 20.453125 9.695312 20.644531 9.503906 20.644531 9.265625 C 20.644531 9.03125 20.453125 8.839844 20.21875 8.839844 L 11.667969 8.839844 C 11.429688 8.839844 11.238281 9.03125 11.238281 9.265625 C 11.238281 9.503906 11.429688 9.695312 11.667969 9.695312 Z M 28.605469 25.898438 L 26.273438 23.570312 L 25.585938 24.261719 L 27.914062 26.589844 Z M 25.34375 18 C 25.34375 20.945312 22.957031 23.332031 20.015625 23.332031 C 17.070312 23.332031 14.683594 20.941406 14.683594 18 C 14.683594 15.050781 17.070312 12.667969 20.015625 12.667969 C 22.960938 12.667969 25.34375 15.050781 25.34375 18 Z M 11.238281 13.382812 C 11.238281 13.617188 11.429688 13.808594 11.664062 13.808594 L 15.464844 13.808594 C 14.601562 14.746094 14.078125 15.886719 13.902344 17.070312 L 11.664062 17.070312 C 11.429688 17.070312 11.238281 17.257812 11.238281 17.496094 C 11.238281 17.730469 11.429688 17.925781 11.664062 17.925781 L 13.832031 17.925781 C 13.808594 19.851562 14.675781 21.710938 16.28125 22.929688 L 13.664062 24.742188 L 7.585938 20.539062 C 6.152344 19.546875 5.363281 18.042969 5.363281 16.300781 L 5.363281 7.519531 C 8.375 7.429688 11.296875 6.375 13.664062 4.519531 C 16.035156 6.375 18.953125 7.429688 21.964844 7.519531 L 21.964844 12.128906 C 20.128906 11.523438 18.0625 11.796875 16.4375 12.953125 L 11.667969 12.953125 C 11.429688 12.953125 11.238281 13.144531 11.238281 13.382812 Z M 18.878906 24.074219 L 13.664062 27.683594 L 6.207031 22.527344 C 4.105469 21.070312 2.945312 18.859375 2.945312 16.300781 L 2.945312 5.109375 L 4.9375 5.109375 C 7.65625 5.109375 10.304688 4.160156 12.398438 2.433594 L 13.664062 1.390625 L 14.929688 2.433594 C 17.023438 4.160156 19.675781 5.109375 22.390625 5.109375 L 24.382812 5.109375 L 24.382812 13.621094 C 23.910156 13.148438 23.382812 12.773438 22.820312 12.484375 L 22.820312 7.097656 C 22.820312 6.863281 22.628906 6.671875 22.390625 6.671875 C 19.3125 6.671875 16.308594 5.597656 13.9375 3.640625 C 13.777344 3.511719 13.550781 3.511719 13.394531 3.640625 C 11.019531 5.597656 8.015625 6.671875 4.9375 6.671875 C 4.699219 6.671875 4.507812 6.863281 4.507812 7.097656 L 4.507812 16.300781 C 4.507812 18.328125 5.429688 20.085938 7.097656 21.242188 L 13.421875 25.613281 C 13.566406 25.714844 13.761719 25.714844 13.90625 25.613281 L 17.058594 23.433594 C 17.636719 23.746094 18.25 23.960938 18.878906 24.074219 Z M 29.515625 25.898438 C 29.515625 26.09375 29.4375 26.277344 29.300781 26.414062 L 28.429688 27.285156 C 28.144531 27.570312 27.6875 27.570312 27.402344 27.285156 L 24.890625 24.773438 C 24.605469 24.492188 24.605469 24.03125 24.890625 23.75 L 25.023438 23.613281 L 24.074219 22.664062 C 22.972656 23.625 21.613281 24.125 20.234375 24.175781 L 13.90625 28.554688 C 13.761719 28.65625 13.566406 28.65625 13.421875 28.554688 L 5.722656 23.230469 C 3.398438 21.621094 2.089844 19.125 2.089844 16.300781 L 2.089844 4.683594 C 2.089844 4.445312 2.28125 4.253906 2.519531 4.253906 L 4.9375 4.253906 C 7.457031 4.253906 9.914062 3.375 11.855469 1.773438 L 13.394531 0.507812 C 13.550781 0.378906 13.777344 0.378906 13.9375 0.507812 L 15.472656 1.773438 C 17.414062 3.375 19.871094 4.253906 22.390625 4.253906 L 24.808594 4.253906 C 25.046875 4.253906 25.238281 4.445312 25.238281 4.683594 L 25.238281 14.6875 C 26.679688 16.960938 26.496094 19.976562 24.679688 22.058594 L 25.628906 23.011719 C 25.8125 22.820312 25.957031 22.660156 26.273438 22.660156 C 26.46875 22.660156 26.652344 22.734375 26.789062 22.871094 L 29.300781 25.386719 C 29.4375 25.523438 29.515625 25.703125 29.515625 25.898438 Z M 9.664062 16.34375 L 8.128906 17.742188 L 7.414062 17.023438 C 7.246094 16.859375 6.976562 16.859375 6.808594 17.023438 C 6.640625 17.195312 6.640625 17.464844 6.808594 17.628906 L 7.8125 18.636719 C 7.96875 18.792969 8.230469 18.800781 8.402344 18.648438 L 10.238281 16.980469 C 10.414062 16.820312 10.425781 16.550781 10.265625 16.375 C 10.109375 16.199219 9.835938 16.1875 9.664062 16.34375 Z M 9.664062 8.117188 L 8.128906 9.507812 L 7.414062 8.796875 C 7.246094 8.628906 6.976562 8.628906 6.808594 8.796875 C 6.640625 8.960938 6.640625 9.230469 6.808594 9.402344 L 7.8125 10.402344 C 7.972656 10.566406 8.230469 10.570312 8.402344 10.417969 L 10.238281 8.746094 C 10.414062 8.585938 10.425781 8.316406 10.265625 8.144531 C 10.109375 7.96875 9.835938 7.953125 9.664062 8.117188 Z M 10.265625 12.257812 C 10.109375 12.082031 9.835938 12.070312 9.664062 12.230469 L 8.128906 13.625 L 7.414062 12.910156 C 7.246094 12.746094 6.976562 12.746094 6.808594 12.910156 C 6.640625 13.082031 6.640625 13.351562 6.808594 13.515625 L 7.8125 14.519531 C 7.972656 14.679688 8.230469 14.6875 8.402344 14.53125 L 10.238281 12.863281 C 10.414062 12.703125 10.425781 12.429688 10.265625 12.257812 Z M 10.265625 12.257812 " fill-opacity="1" fill-rule="evenodd"/></g></svg>