<svg xmlns="http://www.w3.org/2000/svg" xmlns:xlink="http://www.w3.org/1999/xlink" width="40" zoomAndPan="magnify" viewBox="0 0 30 30.000001" height="40" preserveAspectRatio="xMidYMid meet" version="1.0"><defs><clipPath id="10545540c0"><path d="M 2.089844 0.359375 L 29.515625 0.359375 L 29.515625 28.667969 L 2.089844 28.667969 Z M 2.089844 0.359375 " clip-rule="nonzero"/></clipPath></defs><g clip-path="url(#10545540c0)"><path fill="#000000" d="M 22.8125 15.316406 C 21.328125 13.839844 18.910156 13.839844 17.421875 15.316406 C 15.9375 16.796875 15.9375 19.203125 17.421875 20.679688 C 18.910156 22.15625 21.328125 22.15625 22.8125 20.679688 C 24.300781 19.203125 24.300781 16.796875 22.8125 15.316406 Z M 23.421875 21.285156 C 21.597656 23.09375 18.636719 23.09375 16.8125 21.285156 C 14.992188 19.472656 14.992188 16.523438 16.8125 14.714844 C 18.636719 12.902344 21.601562 12.902344 23.421875 14.714844 C 25.242188 16.523438 25.242188 19.472656 23.421875 21.285156 Z M 22.945312 17.148438 C 23.011719 17.375 22.882812 17.613281 22.65625 17.679688 C 22.425781 17.746094 22.1875 17.621094 22.121094 17.394531 C 21.90625 16.683594 21.324219 16.140625 20.59375 15.972656 C 20.363281 15.917969 20.21875 15.6875 20.273438 15.457031 C 20.324219 15.230469 20.558594 15.085938 20.789062 15.140625 C 21.816406 15.378906 22.640625 16.144531 22.945312 17.148438 Z M 11.722656 9.695312 L 20.324219 9.695312 C 20.558594 9.695312 20.753906 9.503906 20.753906 9.265625 C 20.753906 9.03125 20.558594 8.839844 20.324219 8.839844 L 11.722656 8.839844 C 11.484375 8.839844 11.292969 9.03125 11.292969 9.265625 C 11.292969 9.503906 11.484375 9.695312 11.722656 9.695312 Z M 28.757812 25.898438 L 26.414062 23.570312 L 25.722656 24.261719 L 28.066406 26.589844 Z M 25.480469 18 C 25.480469 20.945312 23.078125 23.332031 20.117188 23.332031 C 17.15625 23.332031 14.757812 20.941406 14.757812 18 C 14.757812 15.050781 17.15625 12.667969 20.117188 12.667969 C 23.082031 12.667969 25.480469 15.050781 25.480469 18 Z M 11.292969 13.382812 C 11.292969 13.617188 11.484375 13.808594 11.722656 13.808594 L 15.542969 13.808594 C 14.671875 14.746094 14.148438 15.886719 13.96875 17.070312 L 11.722656 17.070312 C 11.484375 17.070312 11.292969 17.257812 11.292969 17.496094 C 11.292969 17.730469 11.484375 17.925781 11.722656 17.925781 L 13.898438 17.925781 C 13.878906 19.851562 14.746094 21.710938 16.363281 22.929688 L 13.730469 24.742188 L 7.617188 20.539062 C 6.175781 19.546875 5.382812 18.042969 5.382812 16.300781 L 5.382812 7.519531 C 8.410156 7.429688 11.347656 6.375 13.730469 4.519531 C 16.117188 6.375 19.050781 7.429688 22.078125 7.519531 L 22.078125 12.128906 C 20.234375 11.523438 18.15625 11.796875 16.519531 12.953125 L 11.722656 12.953125 C 11.484375 12.953125 11.292969 13.144531 11.292969 13.382812 Z M 18.976562 24.074219 L 13.730469 27.683594 L 6.234375 22.527344 C 4.117188 21.070312 2.949219 18.859375 2.949219 16.300781 L 2.949219 5.109375 L 4.953125 5.109375 C 7.6875 5.109375 10.351562 4.160156 12.457031 2.433594 L 13.730469 1.390625 L 15.003906 2.433594 C 17.113281 4.160156 19.777344 5.109375 22.507812 5.109375 L 24.511719 5.109375 L 24.511719 13.621094 C 24.039062 13.148438 23.507812 12.773438 22.941406 12.484375 L 22.941406 7.097656 C 22.941406 6.863281 22.746094 6.671875 22.507812 6.671875 C 19.414062 6.671875 16.390625 5.597656 14.003906 3.640625 C 13.847656 3.511719 13.617188 3.511719 13.457031 3.640625 C 11.070312 5.597656 8.050781 6.671875 4.953125 6.671875 C 4.714844 6.671875 4.523438 6.863281 4.523438 7.097656 L 4.523438 16.300781 C 4.523438 18.328125 5.449219 20.085938 7.128906 21.242188 L 13.484375 25.613281 C 13.632812 25.714844 13.828125 25.714844 13.976562 25.613281 L 17.144531 23.433594 C 17.726562 23.746094 18.34375 23.960938 18.976562 24.074219 Z M 29.671875 25.898438 C 29.671875 26.09375 29.597656 26.277344 29.460938 26.414062 L 28.582031 27.285156 C 28.296875 27.570312 27.835938 27.570312 27.550781 27.285156 L 25.019531 24.773438 C 24.738281 24.492188 24.738281 24.03125 25.019531 23.75 L 25.15625 23.613281 L 24.203125 22.664062 C 23.09375 23.625 21.722656 24.125 20.339844 24.175781 L 13.976562 28.554688 C 13.828125 28.65625 13.632812 28.65625 13.484375 28.554688 L 5.742188 23.230469 C 3.40625 21.621094 2.089844 19.125 2.089844 16.300781 L 2.089844 4.683594 C 2.089844 4.445312 2.28125 4.253906 2.519531 4.253906 L 4.953125 4.253906 C 7.488281 4.253906 9.960938 3.375 11.914062 1.773438 L 13.457031 0.507812 C 13.617188 0.378906 13.847656 0.378906 14.003906 0.507812 L 15.550781 1.773438 C 17.503906 3.375 19.976562 4.253906 22.507812 4.253906 L 24.941406 4.253906 C 25.179688 4.253906 25.371094 4.445312 25.371094 4.683594 L 25.371094 14.6875 C 26.824219 16.960938 26.636719 19.976562 24.808594 22.058594 L 25.765625 23.011719 C 25.949219 22.820312 26.09375 22.660156 26.414062 22.660156 C 26.609375 22.660156 26.792969 22.734375 26.929688 22.871094 L 29.460938 25.386719 C 29.597656 25.523438 29.671875 25.703125 29.671875 25.898438 Z M 9.707031 16.34375 L 8.164062 17.742188 L 7.445312 17.023438 C 7.277344 16.859375 7.003906 16.859375 6.835938 17.023438 C 6.667969 17.195312 6.667969 17.464844 6.835938 17.628906 L 7.84375 18.636719 C 8.003906 18.792969 8.265625 18.800781 8.4375 18.648438 L 10.285156 16.980469 C 10.460938 16.820312 10.472656 16.550781 10.3125 16.375 C 10.152344 16.199219 9.882812 16.1875 9.707031 16.34375 Z M 9.707031 8.117188 L 8.164062 9.507812 L 7.445312 8.796875 C 7.277344 8.628906 7.003906 8.628906 6.835938 8.796875 C 6.667969 8.960938 6.667969 9.230469 6.835938 9.402344 L 7.84375 10.402344 C 8.007812 10.566406 8.265625 10.570312 8.4375 10.417969 L 10.285156 8.746094 C 10.460938 8.585938 10.472656 8.316406 10.3125 8.144531 C 10.152344 7.96875 9.882812 7.953125 9.707031 8.117188 Z M 10.3125 12.257812 C 10.152344 12.082031 9.882812 12.070312 9.707031 12.230469 L 8.164062 13.625 L 7.445312 12.910156 C 7.277344 12.746094 7.003906 12.746094 6.835938 12.910156 C 6.667969 13.082031 6.667969 13.351562 6.835938 13.515625 L 7.84375 14.519531 C 8.007812 14.679688 8.265625 14.6875 8.4375 14.53125 L 10.285156 12.863281 C 10.460938 12.703125 10.472656 12.429688 10.3125 12.257812 Z M 10.3125 12.257812 " fill-opacity="1" fill-rule="evenodd"/></g></svg>