<svg xmlns="http://www.w3.org/2000/svg" xmlns:xlink="http://www.w3.org/1999/xlink" width="40" zoomAndPan="magnify" viewBox="0 0 30 30.000001" height="40" preserveAspectRatio="xMidYMid meet" version="1.0"><defs><clipPath id="2a8cba13d2"><path d="M 1.449219 6 L 26 6 L 26 23 L 1.449219 23 Z M 1.449219 6 " clip-rule="nonzero"/></clipPath><clipPath id="4f7b3b307b"><path d="M 1.449219 18 L 26 18 L 26 20 L 1.449219 20 Z M 1.449219 18 " clip-rule="nonzero"/></clipPath><clipPath id="b3dcdde9cb"><path d="M 6 1.453125 L 17 1.453125 L 17 20 L 6 20 Z M 6 1.453125 " clip-rule="nonzero"/></clipPath><clipPath id="4c0aaa7605"><path d="M 4 1.453125 L 8 1.453125 L 8 6 L 4 6 Z M 4 1.453125 " clip-rule="nonzero"/></clipPath><clipPath id="8cabc042a7"><path d="M 18 1.453125 L 28.304688 1.453125 L 28.304688 13 L 18 13 Z M 18 1.453125 " clip-rule="nonzero"/></clipPath></defs><g clip-path="url(#2a8cba13d2)"><path fill="#ffffff" d="M 23.328125 22.964844 L 3.773438 22.964844 C 3.464844 22.964844 3.171875 22.902344 2.886719 22.785156 C 2.601562 22.667969 2.351562 22.5 2.132812 22.285156 C 1.917969 22.066406 1.75 21.816406 1.632812 21.53125 C 1.515625 21.25 1.457031 20.953125 1.457031 20.644531 L 1.457031 8.410156 C 1.457031 8.101562 1.515625 7.808594 1.632812 7.523438 C 1.75 7.242188 1.917969 6.988281 2.132812 6.773438 C 2.351562 6.554688 2.601562 6.386719 2.886719 6.269531 C 3.171875 6.152344 3.464844 6.09375 3.773438 6.09375 L 4.582031 6.09375 C 4.714844 6.09375 4.828125 6.140625 4.921875 6.234375 C 5.015625 6.328125 5.0625 6.445312 5.0625 6.578125 C 5.0625 6.710938 5.015625 6.824219 4.921875 6.917969 C 4.828125 7.011719 4.714844 7.0625 4.582031 7.0625 L 3.773438 7.0625 C 3.59375 7.0625 3.421875 7.09375 3.257812 7.164062 C 3.089844 7.234375 2.945312 7.332031 2.820312 7.457031 C 2.691406 7.582031 2.59375 7.730469 2.527344 7.894531 C 2.457031 8.058594 2.421875 8.230469 2.421875 8.410156 L 2.421875 20.644531 C 2.421875 20.824219 2.457031 20.996094 2.527344 21.164062 C 2.59375 21.328125 2.691406 21.472656 2.820312 21.601562 C 2.945312 21.726562 3.089844 21.824219 3.257812 21.894531 C 3.421875 21.960938 3.59375 21.996094 3.773438 21.996094 L 23.328125 21.996094 C 23.507812 21.996094 23.679688 21.960938 23.84375 21.894531 C 24.007812 21.824219 24.15625 21.726562 24.28125 21.601562 C 24.410156 21.472656 24.507812 21.328125 24.574219 21.164062 C 24.644531 20.996094 24.675781 20.824219 24.679688 20.644531 L 24.679688 13.523438 C 24.679688 13.390625 24.726562 13.277344 24.820312 13.183594 C 24.914062 13.085938 25.027344 13.039062 25.160156 13.039062 C 25.296875 13.039062 25.410156 13.085938 25.503906 13.183594 C 25.597656 13.277344 25.644531 13.390625 25.644531 13.523438 L 25.644531 20.644531 C 25.644531 20.953125 25.585938 21.25 25.46875 21.53125 C 25.351562 21.816406 25.183594 22.066406 24.964844 22.285156 C 24.75 22.5 24.5 22.667969 24.214844 22.785156 C 23.929688 22.902344 23.636719 22.964844 23.328125 22.964844 Z M 23.328125 22.964844 " fill-opacity="1" fill-rule="nonzero"/></g><path fill="#ffffff" d="M 16.652344 7.0625 L 15.96875 7.0625 C 15.835938 7.0625 15.722656 7.011719 15.628906 6.917969 C 15.53125 6.824219 15.484375 6.710938 15.484375 6.578125 C 15.484375 6.445312 15.53125 6.328125 15.628906 6.234375 C 15.722656 6.140625 15.835938 6.09375 15.96875 6.09375 L 16.652344 6.09375 C 16.785156 6.09375 16.898438 6.140625 16.992188 6.234375 C 17.089844 6.328125 17.136719 6.445312 17.136719 6.578125 C 17.136719 6.710938 17.089844 6.824219 16.992188 6.917969 C 16.898438 7.011719 16.785156 7.0625 16.652344 7.0625 Z M 16.652344 7.0625 " fill-opacity="1" fill-rule="nonzero"/><g clip-path="url(#4f7b3b307b)"><path fill="#ffffff" d="M 25.160156 19.222656 L 1.9375 19.222656 C 1.804688 19.222656 1.691406 19.175781 1.597656 19.082031 C 1.503906 18.988281 1.457031 18.875 1.457031 18.738281 C 1.457031 18.605469 1.503906 18.492188 1.597656 18.398438 C 1.691406 18.304688 1.804688 18.257812 1.9375 18.257812 L 25.160156 18.257812 C 25.296875 18.257812 25.410156 18.304688 25.503906 18.398438 C 25.597656 18.492188 25.644531 18.605469 25.644531 18.738281 C 25.644531 18.875 25.597656 18.988281 25.503906 19.082031 C 25.410156 19.175781 25.296875 19.222656 25.160156 19.222656 Z M 25.160156 19.222656 " fill-opacity="1" fill-rule="nonzero"/></g><path fill="#ffffff" d="M 6.550781 21.054688 L 4.199219 21.054688 C 4.066406 21.054688 3.953125 21.007812 3.859375 20.914062 C 3.765625 20.816406 3.714844 20.703125 3.714844 20.570312 C 3.714844 20.4375 3.765625 20.324219 3.859375 20.226562 C 3.953125 20.132812 4.066406 20.085938 4.199219 20.085938 L 6.550781 20.085938 C 6.683594 20.085938 6.796875 20.132812 6.894531 20.226562 C 6.988281 20.324219 7.035156 20.4375 7.035156 20.570312 C 7.035156 20.703125 6.988281 20.816406 6.894531 20.914062 C 6.796875 21.007812 6.683594 21.054688 6.550781 21.054688 Z M 6.550781 21.054688 " fill-opacity="1" fill-rule="nonzero"/><path fill="#ffffff" d="M 18.414062 28.957031 L 8.6875 28.957031 C 8.480469 28.957031 8.285156 28.921875 8.09375 28.84375 C 7.902344 28.765625 7.734375 28.652344 7.589844 28.507812 C 7.445312 28.363281 7.332031 28.199219 7.253906 28.007812 C 7.175781 27.820312 7.136719 27.621094 7.136719 27.417969 C 7.136719 27.210938 7.175781 27.015625 7.253906 26.824219 C 7.332031 26.636719 7.445312 26.46875 7.589844 26.324219 C 7.734375 26.179688 7.902344 26.070312 8.09375 25.992188 C 8.285156 25.914062 8.480469 25.875 8.6875 25.875 L 18.414062 25.875 C 18.617188 25.878906 18.8125 25.917969 19 25.996094 C 19.191406 26.074219 19.355469 26.1875 19.5 26.332031 C 19.640625 26.476562 19.753906 26.640625 19.832031 26.828125 C 19.910156 27.019531 19.945312 27.214844 19.945312 27.417969 C 19.945312 27.621094 19.910156 27.816406 19.832031 28.003906 C 19.753906 28.191406 19.640625 28.359375 19.5 28.503906 C 19.355469 28.648438 19.191406 28.757812 19 28.839844 C 18.8125 28.917969 18.617188 28.957031 18.414062 28.957031 Z M 8.6875 26.84375 C 8.527344 26.84375 8.390625 26.898438 8.277344 27.011719 C 8.164062 27.121094 8.105469 27.257812 8.105469 27.417969 C 8.105469 27.578125 8.164062 27.710938 8.277344 27.824219 C 8.390625 27.9375 8.527344 27.992188 8.6875 27.988281 L 18.414062 27.988281 C 18.570312 27.988281 18.707031 27.933594 18.816406 27.820312 C 18.925781 27.707031 18.984375 27.574219 18.984375 27.417969 C 18.984375 27.261719 18.925781 27.125 18.816406 27.015625 C 18.707031 26.902344 18.570312 26.84375 18.414062 26.84375 Z M 8.6875 26.84375 " fill-opacity="1" fill-rule="nonzero"/><path fill="#ffffff" d="M 9.9375 26.84375 C 9.855469 26.84375 9.777344 26.824219 9.703125 26.78125 C 9.628906 26.742188 9.570312 26.6875 9.527344 26.617188 C 9.484375 26.542969 9.457031 26.46875 9.453125 26.382812 C 9.449219 26.300781 9.464844 26.21875 9.503906 26.144531 C 10.0625 24.984375 10.382812 23.761719 10.46875 22.480469 C 10.46875 22.34375 10.515625 22.230469 10.609375 22.136719 C 10.703125 22.042969 10.820312 21.996094 10.953125 21.996094 C 11.085938 21.996094 11.199219 22.042969 11.292969 22.136719 C 11.390625 22.230469 11.4375 22.34375 11.4375 22.480469 C 11.355469 23.914062 11 25.28125 10.371094 26.574219 C 10.28125 26.753906 10.136719 26.84375 9.9375 26.84375 Z M 9.9375 26.84375 " fill-opacity="1" fill-rule="nonzero"/><path fill="#ffffff" d="M 17.164062 26.84375 C 16.960938 26.84375 16.816406 26.753906 16.730469 26.574219 C 16.101562 25.28125 15.746094 23.914062 15.664062 22.480469 C 15.664062 22.34375 15.710938 22.230469 15.804688 22.136719 C 15.898438 22.042969 16.015625 21.996094 16.148438 21.996094 C 16.28125 21.996094 16.394531 22.042969 16.488281 22.136719 C 16.585938 22.230469 16.632812 22.34375 16.632812 22.480469 C 16.71875 23.761719 17.039062 24.984375 17.597656 26.144531 C 17.632812 26.21875 17.648438 26.300781 17.644531 26.382812 C 17.640625 26.46875 17.617188 26.542969 17.574219 26.617188 C 17.53125 26.6875 17.472656 26.742188 17.398438 26.78125 C 17.324219 26.824219 17.246094 26.84375 17.164062 26.84375 Z M 17.164062 26.84375 " fill-opacity="1" fill-rule="nonzero"/><path fill="#ffffff" d="M 4.582031 19.222656 C 4.445312 19.222656 4.332031 19.175781 4.238281 19.082031 C 4.144531 18.988281 4.097656 18.875 4.097656 18.738281 L 4.097656 5.15625 C 4.097656 5.019531 4.144531 4.90625 4.238281 4.8125 C 4.332031 4.71875 4.445312 4.671875 4.582031 4.671875 C 4.714844 4.671875 4.828125 4.71875 4.921875 4.8125 C 5.015625 4.90625 5.0625 5.019531 5.0625 5.15625 L 5.0625 18.738281 C 5.0625 18.875 5.015625 18.988281 4.921875 19.082031 C 4.828125 19.175781 4.714844 19.222656 4.582031 19.222656 Z M 4.582031 19.222656 " fill-opacity="1" fill-rule="nonzero"/><g clip-path="url(#b3dcdde9cb)"><path fill="#ffffff" d="M 15.96875 19.222656 C 15.835938 19.222656 15.722656 19.175781 15.628906 19.082031 C 15.53125 18.988281 15.484375 18.875 15.484375 18.738281 L 15.484375 3.367188 C 15.484375 3.21875 15.433594 3.09375 15.328125 2.988281 C 15.222656 2.886719 15.097656 2.832031 14.949219 2.832031 L 7.386719 2.832031 C 7.253906 2.832031 7.140625 2.785156 7.042969 2.691406 C 6.949219 2.597656 6.902344 2.480469 6.902344 2.347656 C 6.902344 2.214844 6.949219 2.101562 7.042969 2.007812 C 7.140625 1.910156 7.253906 1.863281 7.386719 1.863281 L 14.949219 1.863281 C 15.148438 1.863281 15.339844 1.902344 15.523438 1.980469 C 15.707031 2.054688 15.871094 2.164062 16.011719 2.304688 C 16.152344 2.445312 16.261719 2.609375 16.339844 2.792969 C 16.414062 2.976562 16.453125 3.167969 16.453125 3.367188 L 16.453125 18.738281 C 16.453125 18.875 16.40625 18.988281 16.3125 19.082031 C 16.21875 19.175781 16.101562 19.222656 15.96875 19.222656 Z M 15.96875 19.222656 " fill-opacity="1" fill-rule="nonzero"/></g><g clip-path="url(#4c0aaa7605)"><path fill="#ffffff" d="M 6.609375 5.640625 L 4.578125 5.640625 C 4.363281 5.640625 4.214844 5.542969 4.132812 5.34375 C 4.050781 5.144531 4.085938 4.96875 4.238281 4.816406 L 7.046875 2.007812 C 7.199219 1.855469 7.375 1.820312 7.574219 1.902344 C 7.773438 1.984375 7.871094 2.132812 7.871094 2.347656 L 7.871094 4.378906 C 7.871094 4.546875 7.839844 4.707031 7.773438 4.859375 C 7.710938 5.015625 7.621094 5.152344 7.5 5.269531 C 7.382812 5.390625 7.246094 5.480469 7.089844 5.542969 C 6.9375 5.609375 6.777344 5.640625 6.609375 5.640625 Z M 5.746094 4.671875 L 6.609375 4.671875 C 6.691406 4.671875 6.757812 4.644531 6.816406 4.585938 C 6.875 4.527344 6.902344 4.460938 6.902344 4.378906 L 6.902344 3.515625 Z M 5.746094 4.671875 " fill-opacity="1" fill-rule="nonzero"/></g><path fill="#ffffff" d="M 7.066406 8.929688 C 6.933594 8.929688 6.820312 8.882812 6.722656 8.789062 L 6.015625 8.082031 C 5.925781 7.988281 5.878906 7.875 5.878906 7.742188 C 5.878906 7.609375 5.925781 7.496094 6.019531 7.402344 C 6.113281 7.308594 6.226562 7.261719 6.359375 7.261719 C 6.492188 7.257812 6.605469 7.304688 6.699219 7.398438 L 7.066406 7.761719 L 8.074219 6.757812 C 8.167969 6.660156 8.28125 6.613281 8.417969 6.609375 C 8.550781 6.609375 8.667969 6.65625 8.761719 6.753906 C 8.855469 6.847656 8.902344 6.960938 8.902344 7.097656 C 8.902344 7.230469 8.855469 7.347656 8.757812 7.441406 L 7.410156 8.789062 C 7.3125 8.882812 7.199219 8.929688 7.066406 8.929688 Z M 7.066406 8.929688 " fill-opacity="1" fill-rule="nonzero"/><path fill="#ffffff" d="M 14.011719 7.582031 L 10.289062 7.582031 C 10.15625 7.582031 10.042969 7.535156 9.949219 7.441406 C 9.855469 7.347656 9.804688 7.230469 9.804688 7.097656 C 9.804688 6.964844 9.855469 6.851562 9.949219 6.757812 C 10.042969 6.664062 10.15625 6.613281 10.289062 6.613281 L 14.011719 6.613281 C 14.148438 6.613281 14.261719 6.664062 14.355469 6.757812 C 14.449219 6.851562 14.496094 6.964844 14.496094 7.097656 C 14.496094 7.230469 14.449219 7.347656 14.355469 7.441406 C 14.261719 7.535156 14.148438 7.582031 14.011719 7.582031 Z M 14.011719 7.582031 " fill-opacity="1" fill-rule="nonzero"/><path fill="#ffffff" d="M 12.152344 8.929688 L 10.289062 8.929688 C 10.15625 8.929688 10.042969 8.882812 9.949219 8.789062 C 9.855469 8.695312 9.804688 8.582031 9.804688 8.449219 C 9.804688 8.3125 9.855469 8.199219 9.949219 8.105469 C 10.042969 8.011719 10.15625 7.964844 10.289062 7.964844 L 12.152344 7.964844 C 12.285156 7.964844 12.398438 8.011719 12.492188 8.105469 C 12.589844 8.199219 12.636719 8.3125 12.636719 8.449219 C 12.636719 8.582031 12.589844 8.695312 12.492188 8.789062 C 12.398438 8.882812 12.285156 8.929688 12.152344 8.929688 Z M 12.152344 8.929688 " fill-opacity="1" fill-rule="nonzero"/><path fill="#ffffff" d="M 7.066406 12.40625 C 6.933594 12.40625 6.820312 12.359375 6.722656 12.265625 L 6.015625 11.554688 C 5.925781 11.460938 5.878906 11.347656 5.878906 11.214844 C 5.882812 11.082031 5.929688 10.972656 6.023438 10.878906 C 6.117188 10.785156 6.226562 10.738281 6.359375 10.734375 C 6.492188 10.734375 6.605469 10.78125 6.699219 10.871094 L 7.066406 11.238281 L 8.074219 10.230469 C 8.167969 10.132812 8.28125 10.085938 8.417969 10.085938 C 8.550781 10.082031 8.667969 10.128906 8.761719 10.226562 C 8.859375 10.320312 8.90625 10.4375 8.902344 10.570312 C 8.902344 10.707031 8.855469 10.820312 8.757812 10.914062 L 7.410156 12.265625 C 7.3125 12.359375 7.199219 12.40625 7.066406 12.40625 Z M 7.066406 12.40625 " fill-opacity="1" fill-rule="nonzero"/><path fill="#ffffff" d="M 14.011719 11.058594 L 10.289062 11.058594 C 10.15625 11.058594 10.042969 11.011719 9.949219 10.914062 C 9.855469 10.820312 9.804688 10.707031 9.804688 10.574219 C 9.804688 10.441406 9.855469 10.324219 9.949219 10.230469 C 10.042969 10.136719 10.15625 10.089844 10.289062 10.089844 L 14.011719 10.089844 C 14.148438 10.089844 14.261719 10.136719 14.355469 10.230469 C 14.449219 10.324219 14.496094 10.441406 14.496094 10.574219 C 14.496094 10.707031 14.449219 10.820312 14.355469 10.914062 C 14.261719 11.011719 14.148438 11.058594 14.011719 11.058594 Z M 14.011719 11.058594 " fill-opacity="1" fill-rule="nonzero"/><path fill="#ffffff" d="M 12.152344 12.40625 L 10.289062 12.40625 C 10.15625 12.40625 10.042969 12.359375 9.949219 12.265625 C 9.855469 12.167969 9.804688 12.054688 9.804688 11.921875 C 9.804688 11.789062 9.855469 11.675781 9.949219 11.578125 C 10.042969 11.484375 10.15625 11.4375 10.289062 11.4375 L 12.152344 11.4375 C 12.285156 11.4375 12.398438 11.484375 12.492188 11.578125 C 12.589844 11.675781 12.636719 11.789062 12.636719 11.921875 C 12.636719 12.054688 12.589844 12.167969 12.492188 12.265625 C 12.398438 12.359375 12.285156 12.40625 12.152344 12.40625 Z M 12.152344 12.40625 " fill-opacity="1" fill-rule="nonzero"/><path fill="#ffffff" d="M 7.066406 15.878906 C 6.933594 15.878906 6.820312 15.832031 6.722656 15.738281 L 6.015625 15.03125 C 5.921875 14.9375 5.871094 14.824219 5.871094 14.6875 C 5.867188 14.554688 5.917969 14.4375 6.011719 14.34375 C 6.105469 14.246094 6.222656 14.199219 6.359375 14.199219 C 6.492188 14.203125 6.605469 14.25 6.699219 14.347656 L 7.066406 14.710938 L 8.074219 13.707031 C 8.167969 13.609375 8.28125 13.5625 8.417969 13.558594 C 8.550781 13.558594 8.667969 13.605469 8.761719 13.703125 C 8.855469 13.796875 8.902344 13.910156 8.902344 14.046875 C 8.902344 14.179688 8.855469 14.296875 8.757812 14.390625 L 7.410156 15.738281 C 7.3125 15.832031 7.199219 15.878906 7.066406 15.878906 Z M 7.066406 15.878906 " fill-opacity="1" fill-rule="nonzero"/><path fill="#ffffff" d="M 14.011719 14.53125 L 10.289062 14.53125 C 10.15625 14.53125 10.042969 14.484375 9.949219 14.390625 C 9.855469 14.296875 9.804688 14.179688 9.804688 14.046875 C 9.804688 13.914062 9.855469 13.800781 9.949219 13.707031 C 10.042969 13.609375 10.15625 13.5625 10.289062 13.5625 L 14.011719 13.5625 C 14.148438 13.5625 14.261719 13.609375 14.355469 13.707031 C 14.449219 13.800781 14.496094 13.914062 14.496094 14.046875 C 14.496094 14.179688 14.449219 14.296875 14.355469 14.390625 C 14.261719 14.484375 14.148438 14.53125 14.011719 14.53125 Z M 14.011719 14.53125 " fill-opacity="1" fill-rule="nonzero"/><path fill="#ffffff" d="M 12.152344 15.878906 L 10.289062 15.878906 C 10.15625 15.878906 10.042969 15.832031 9.949219 15.738281 C 9.855469 15.644531 9.804688 15.53125 9.804688 15.398438 C 9.804688 15.261719 9.855469 15.148438 9.949219 15.054688 C 10.042969 14.960938 10.15625 14.914062 10.289062 14.914062 L 12.152344 14.914062 C 12.285156 14.914062 12.398438 14.960938 12.492188 15.054688 C 12.589844 15.148438 12.636719 15.261719 12.636719 15.398438 C 12.636719 15.53125 12.589844 15.644531 12.492188 15.738281 C 12.398438 15.832031 12.285156 15.878906 12.152344 15.878906 Z M 12.152344 15.878906 " fill-opacity="1" fill-rule="nonzero"/><g clip-path="url(#8cabc042a7)"><path fill="#ffffff" d="M 23.351562 12.238281 C 23.011719 12.238281 22.675781 12.207031 22.339844 12.140625 C 22.007812 12.074219 21.679688 11.976562 21.367188 11.84375 C 21.050781 11.714844 20.753906 11.554688 20.46875 11.367188 C 20.1875 11.175781 19.925781 10.960938 19.683594 10.71875 C 19.441406 10.480469 19.226562 10.21875 19.039062 9.933594 C 18.847656 9.652344 18.691406 9.351562 18.558594 9.039062 C 18.429688 8.722656 18.332031 8.398438 18.265625 8.066406 C 18.199219 7.730469 18.164062 7.394531 18.164062 7.050781 C 18.164062 6.710938 18.199219 6.375 18.265625 6.039062 C 18.332031 5.707031 18.429688 5.382812 18.558594 5.066406 C 18.691406 4.753906 18.847656 4.453125 19.039062 4.171875 C 19.226562 3.886719 19.441406 3.625 19.683594 3.382812 C 19.925781 3.144531 20.1875 2.929688 20.46875 2.738281 C 20.753906 2.550781 21.050781 2.390625 21.367188 2.257812 C 21.679688 2.128906 22.007812 2.03125 22.339844 1.964844 C 22.675781 1.898438 23.011719 1.863281 23.351562 1.863281 C 23.691406 1.863281 24.03125 1.898438 24.363281 1.964844 C 24.699219 2.03125 25.023438 2.128906 25.335938 2.257812 C 25.652344 2.390625 25.949219 2.550781 26.234375 2.738281 C 26.515625 2.929688 26.78125 3.144531 27.019531 3.382812 C 27.261719 3.625 27.476562 3.886719 27.664062 4.171875 C 27.855469 4.453125 28.015625 4.753906 28.144531 5.066406 C 28.273438 5.382812 28.375 5.707031 28.441406 6.039062 C 28.507812 6.375 28.539062 6.710938 28.539062 7.050781 C 28.539062 7.394531 28.503906 7.730469 28.4375 8.0625 C 28.371094 8.398438 28.273438 8.722656 28.144531 9.035156 C 28.011719 9.351562 27.851562 9.648438 27.664062 9.933594 C 27.472656 10.214844 27.257812 10.476562 27.019531 10.71875 C 26.777344 10.960938 26.515625 11.175781 26.234375 11.363281 C 25.949219 11.554688 25.652344 11.714844 25.335938 11.84375 C 25.023438 11.972656 24.699219 12.074219 24.363281 12.140625 C 24.03125 12.207031 23.691406 12.238281 23.351562 12.238281 Z M 23.351562 2.832031 C 23.074219 2.832031 22.800781 2.859375 22.527344 2.914062 C 22.257812 2.96875 21.992188 3.046875 21.738281 3.152344 C 21.480469 3.257812 21.238281 3.390625 21.007812 3.542969 C 20.777344 3.699219 20.5625 3.871094 20.367188 4.070312 C 20.171875 4.265625 19.996094 4.476562 19.84375 4.707031 C 19.6875 4.9375 19.558594 5.179688 19.453125 5.4375 C 19.347656 5.695312 19.265625 5.957031 19.214844 6.230469 C 19.160156 6.5 19.132812 6.773438 19.132812 7.050781 C 19.132812 7.328125 19.160156 7.605469 19.214844 7.875 C 19.265625 8.148438 19.347656 8.410156 19.453125 8.667969 C 19.558594 8.921875 19.6875 9.167969 19.84375 9.398438 C 19.996094 9.628906 20.171875 9.839844 20.367188 10.035156 C 20.5625 10.234375 20.777344 10.40625 21.007812 10.5625 C 21.238281 10.714844 21.480469 10.84375 21.738281 10.953125 C 21.992188 11.058594 22.257812 11.136719 22.527344 11.191406 C 22.800781 11.246094 23.074219 11.273438 23.351562 11.273438 C 23.628906 11.273438 23.902344 11.246094 24.175781 11.191406 C 24.445312 11.136719 24.710938 11.058594 24.96875 10.953125 C 25.222656 10.84375 25.464844 10.714844 25.695312 10.5625 C 25.925781 10.40625 26.140625 10.234375 26.335938 10.035156 C 26.53125 9.839844 26.707031 9.628906 26.859375 9.398438 C 27.015625 9.167969 27.144531 8.921875 27.25 8.667969 C 27.355469 8.410156 27.4375 8.148438 27.492188 7.875 C 27.546875 7.605469 27.570312 7.328125 27.570312 7.050781 C 27.570312 6.777344 27.542969 6.5 27.492188 6.230469 C 27.4375 5.957031 27.355469 5.695312 27.25 5.4375 C 27.144531 5.183594 27.011719 4.9375 26.859375 4.710938 C 26.707031 4.480469 26.53125 4.265625 26.335938 4.070312 C 26.140625 3.875 25.925781 3.699219 25.695312 3.546875 C 25.464844 3.390625 25.222656 3.261719 24.964844 3.15625 C 24.710938 3.046875 24.445312 2.96875 24.175781 2.914062 C 23.902344 2.859375 23.628906 2.832031 23.351562 2.832031 Z M 23.351562 2.832031 " fill-opacity="1" fill-rule="nonzero"/></g><path fill="#ffffff" d="M 23.351562 9.171875 C 23.070312 9.171875 22.800781 9.117188 22.542969 9.007812 C 22.28125 8.902344 22.054688 8.75 21.855469 8.550781 C 21.65625 8.351562 21.503906 8.121094 21.394531 7.863281 C 21.289062 7.605469 21.234375 7.332031 21.234375 7.050781 C 21.234375 6.773438 21.289062 6.5 21.394531 6.242188 C 21.503906 5.980469 21.65625 5.753906 21.855469 5.554688 C 22.054688 5.355469 22.28125 5.203125 22.542969 5.09375 C 22.800781 4.988281 23.070312 4.933594 23.351562 4.933594 C 23.632812 4.933594 23.902344 4.988281 24.164062 5.09375 C 24.421875 5.203125 24.652344 5.355469 24.851562 5.554688 C 25.046875 5.753906 25.203125 5.980469 25.308594 6.242188 C 25.417969 6.5 25.46875 6.773438 25.46875 7.050781 C 25.46875 7.332031 25.417969 7.601562 25.308594 7.863281 C 25.199219 8.121094 25.046875 8.351562 24.847656 8.550781 C 24.652344 8.75 24.421875 8.902344 24.164062 9.007812 C 23.902344 9.117188 23.632812 9.171875 23.351562 9.171875 Z M 23.351562 5.902344 C 23.199219 5.902344 23.050781 5.929688 22.910156 5.988281 C 22.769531 6.046875 22.644531 6.128906 22.539062 6.238281 C 22.429688 6.347656 22.347656 6.472656 22.289062 6.613281 C 22.230469 6.753906 22.203125 6.898438 22.203125 7.050781 C 22.203125 7.203125 22.230469 7.351562 22.289062 7.492188 C 22.347656 7.632812 22.429688 7.757812 22.539062 7.867188 C 22.644531 7.972656 22.769531 8.058594 22.910156 8.117188 C 23.050781 8.175781 23.199219 8.203125 23.351562 8.203125 C 23.503906 8.203125 23.652344 8.175781 23.792969 8.117188 C 23.933594 8.058594 24.058594 7.972656 24.164062 7.867188 C 24.273438 7.757812 24.355469 7.632812 24.414062 7.492188 C 24.472656 7.351562 24.503906 7.203125 24.503906 7.050781 C 24.503906 6.898438 24.472656 6.753906 24.414062 6.613281 C 24.355469 6.472656 24.273438 6.347656 24.164062 6.238281 C 24.058594 6.132812 23.933594 6.046875 23.792969 5.988281 C 23.652344 5.929688 23.503906 5.902344 23.351562 5.902344 Z M 23.351562 5.902344 " fill-opacity="1" fill-rule="nonzero"/><path fill="#ffffff" d="M 23.351562 5.902344 C 23.21875 5.902344 23.105469 5.855469 23.011719 5.761719 C 22.914062 5.664062 22.867188 5.550781 22.867188 5.417969 L 22.867188 4.53125 C 22.867188 4.398438 22.914062 4.285156 23.011719 4.191406 C 23.105469 4.097656 23.21875 4.046875 23.351562 4.046875 C 23.484375 4.046875 23.601562 4.097656 23.695312 4.191406 C 23.789062 4.285156 23.835938 4.398438 23.835938 4.53125 L 23.835938 5.417969 C 23.835938 5.550781 23.789062 5.664062 23.695312 5.761719 C 23.601562 5.855469 23.484375 5.902344 23.351562 5.902344 Z M 23.351562 5.902344 " fill-opacity="1" fill-rule="nonzero"/><path fill="#ffffff" d="M 22.195312 6.378906 C 22.0625 6.378906 21.949219 6.332031 21.855469 6.238281 L 21.226562 5.613281 C 21.132812 5.519531 21.082031 5.402344 21.082031 5.269531 C 21.082031 5.132812 21.128906 5.019531 21.222656 4.921875 C 21.320312 4.828125 21.433594 4.78125 21.570312 4.78125 C 21.703125 4.78125 21.820312 4.832031 21.914062 4.929688 L 22.539062 5.554688 C 22.691406 5.707031 22.726562 5.882812 22.644531 6.082031 C 22.5625 6.28125 22.410156 6.378906 22.195312 6.378906 Z M 22.195312 6.378906 " fill-opacity="1" fill-rule="nonzero"/><path fill="#ffffff" d="M 21.71875 7.535156 L 20.832031 7.535156 C 20.699219 7.535156 20.585938 7.488281 20.488281 7.394531 C 20.394531 7.300781 20.347656 7.1875 20.347656 7.050781 C 20.347656 6.917969 20.394531 6.804688 20.488281 6.710938 C 20.585938 6.617188 20.699219 6.570312 20.832031 6.570312 L 21.71875 6.570312 C 21.851562 6.570312 21.964844 6.617188 22.058594 6.710938 C 22.152344 6.804688 22.203125 6.917969 22.203125 7.050781 C 22.203125 7.1875 22.152344 7.300781 22.058594 7.394531 C 21.964844 7.488281 21.851562 7.535156 21.71875 7.535156 Z M 21.71875 7.535156 " fill-opacity="1" fill-rule="nonzero"/><path fill="#ffffff" d="M 21.570312 9.316406 C 21.355469 9.316406 21.207031 9.21875 21.125 9.019531 C 21.042969 8.820312 21.074219 8.644531 21.226562 8.492188 L 21.855469 7.867188 C 21.949219 7.773438 22.0625 7.726562 22.195312 7.730469 C 22.328125 7.730469 22.441406 7.777344 22.535156 7.871094 C 22.625 7.964844 22.675781 8.078125 22.675781 8.210938 C 22.675781 8.339844 22.628906 8.457031 22.539062 8.550781 L 21.914062 9.175781 C 21.816406 9.269531 21.703125 9.320312 21.570312 9.316406 Z M 21.570312 9.316406 " fill-opacity="1" fill-rule="nonzero"/><path fill="#ffffff" d="M 23.351562 10.054688 C 23.21875 10.054688 23.105469 10.007812 23.011719 9.914062 C 22.914062 9.820312 22.867188 9.707031 22.867188 9.574219 L 22.867188 8.6875 C 22.867188 8.554688 22.914062 8.441406 23.011719 8.34375 C 23.105469 8.25 23.21875 8.203125 23.351562 8.203125 C 23.484375 8.203125 23.601562 8.25 23.695312 8.34375 C 23.789062 8.441406 23.835938 8.554688 23.835938 8.6875 L 23.835938 9.574219 C 23.835938 9.707031 23.789062 9.820312 23.695312 9.914062 C 23.601562 10.007812 23.484375 10.054688 23.351562 10.054688 Z M 23.351562 10.054688 " fill-opacity="1" fill-rule="nonzero"/><path fill="#ffffff" d="M 25.132812 9.316406 C 25 9.320312 24.886719 9.269531 24.792969 9.175781 L 24.167969 8.550781 C 24.074219 8.457031 24.027344 8.339844 24.03125 8.210938 C 24.03125 8.078125 24.078125 7.964844 24.171875 7.871094 C 24.265625 7.777344 24.378906 7.730469 24.507812 7.730469 C 24.640625 7.726562 24.753906 7.773438 24.851562 7.867188 L 25.476562 8.492188 C 25.628906 8.644531 25.664062 8.820312 25.582031 9.019531 C 25.5 9.21875 25.351562 9.316406 25.132812 9.316406 Z M 25.132812 9.316406 " fill-opacity="1" fill-rule="nonzero"/><path fill="#ffffff" d="M 25.871094 7.535156 L 24.988281 7.535156 C 24.851562 7.535156 24.738281 7.488281 24.644531 7.394531 C 24.550781 7.300781 24.503906 7.1875 24.503906 7.050781 C 24.503906 6.917969 24.550781 6.804688 24.644531 6.710938 C 24.738281 6.617188 24.851562 6.570312 24.988281 6.570312 L 25.871094 6.570312 C 26.003906 6.570312 26.121094 6.617188 26.214844 6.710938 C 26.308594 6.804688 26.355469 6.917969 26.355469 7.050781 C 26.355469 7.1875 26.308594 7.300781 26.214844 7.394531 C 26.121094 7.488281 26.003906 7.535156 25.871094 7.535156 Z M 25.871094 7.535156 " fill-opacity="1" fill-rule="nonzero"/><path fill="#ffffff" d="M 24.507812 6.378906 C 24.292969 6.378906 24.144531 6.28125 24.0625 6.082031 C 23.980469 5.882812 24.015625 5.707031 24.167969 5.554688 L 24.792969 4.929688 C 24.886719 4.832031 25 4.78125 25.136719 4.78125 C 25.269531 4.78125 25.386719 4.828125 25.480469 4.925781 C 25.574219 5.019531 25.625 5.132812 25.621094 5.269531 C 25.621094 5.402344 25.574219 5.519531 25.476562 5.613281 L 24.851562 6.238281 C 24.757812 6.332031 24.640625 6.378906 24.507812 6.378906 Z M 24.507812 6.378906 " fill-opacity="1" fill-rule="nonzero"/><path fill="#ffffff" d="M 22.5 15.523438 L 18.429688 15.523438 C 18.296875 15.523438 18.183594 15.472656 18.089844 15.378906 C 17.992188 15.285156 17.945312 15.171875 17.945312 15.039062 C 17.945312 14.90625 17.992188 14.789062 18.089844 14.695312 C 18.183594 14.601562 18.296875 14.554688 18.429688 14.554688 L 22.5 14.554688 C 22.632812 14.554688 22.75 14.601562 22.84375 14.695312 C 22.9375 14.789062 22.984375 14.90625 22.984375 15.039062 C 22.984375 15.171875 22.9375 15.285156 22.84375 15.378906 C 22.75 15.472656 22.632812 15.523438 22.5 15.523438 Z M 22.5 15.523438 " fill-opacity="1" fill-rule="nonzero"/><path fill="#ffffff" d="M 20.632812 17.371094 L 18.429688 17.371094 C 18.296875 17.371094 18.183594 17.324219 18.089844 17.230469 C 17.992188 17.136719 17.945312 17.023438 17.945312 16.890625 C 17.945312 16.753906 17.992188 16.640625 18.089844 16.546875 C 18.183594 16.453125 18.296875 16.40625 18.429688 16.40625 L 20.632812 16.40625 C 20.765625 16.40625 20.878906 16.453125 20.972656 16.546875 C 21.066406 16.640625 21.113281 16.753906 21.113281 16.890625 C 21.113281 17.023438 21.066406 17.136719 20.972656 17.230469 C 20.878906 17.324219 20.765625 17.371094 20.632812 17.371094 Z M 20.632812 17.371094 " fill-opacity="1" fill-rule="nonzero"/></svg>