<svg xmlns="http://www.w3.org/2000/svg" xmlns:xlink="http://www.w3.org/1999/xlink" width="40" zoomAndPan="magnify" viewBox="0 0 30 30.000001" height="40" preserveAspectRatio="xMidYMid meet" version="1.0"><defs><clipPath id="316ba83ddd"><path d="M 1.449219 6 L 26 6 L 26 23 L 1.449219 23 Z M 1.449219 6 " clip-rule="nonzero"/></clipPath><clipPath id="7f70500f0a"><path d="M 1.449219 18 L 26 18 L 26 20 L 1.449219 20 Z M 1.449219 18 " clip-rule="nonzero"/></clipPath><clipPath id="2010fa5a9d"><path d="M 6 1.453125 L 17 1.453125 L 17 20 L 6 20 Z M 6 1.453125 " clip-rule="nonzero"/></clipPath><clipPath id="a8aa18d61f"><path d="M 4 1.453125 L 8 1.453125 L 8 6 L 4 6 Z M 4 1.453125 " clip-rule="nonzero"/></clipPath><clipPath id="47402f8c63"><path d="M 18 1.453125 L 28.304688 1.453125 L 28.304688 13 L 18 13 Z M 18 1.453125 " clip-rule="nonzero"/></clipPath></defs><g clip-path="url(#316ba83ddd)"><path fill="#000000" d="M 23.136719 22.964844 L 3.753906 22.964844 C 3.449219 22.964844 3.15625 22.902344 2.875 22.785156 C 2.59375 22.667969 2.34375 22.5 2.128906 22.285156 C 1.914062 22.066406 1.746094 21.816406 1.628906 21.53125 C 1.515625 21.25 1.457031 20.953125 1.457031 20.644531 L 1.457031 8.410156 C 1.457031 8.101562 1.515625 7.808594 1.628906 7.523438 C 1.746094 7.242188 1.914062 6.988281 2.128906 6.773438 C 2.34375 6.554688 2.59375 6.386719 2.875 6.269531 C 3.15625 6.152344 3.449219 6.09375 3.753906 6.09375 L 4.554688 6.09375 C 4.6875 6.09375 4.796875 6.140625 4.890625 6.234375 C 4.984375 6.328125 5.03125 6.445312 5.03125 6.578125 C 5.03125 6.710938 4.984375 6.824219 4.890625 6.917969 C 4.796875 7.011719 4.6875 7.0625 4.554688 7.0625 L 3.753906 7.0625 C 3.574219 7.0625 3.40625 7.09375 3.242188 7.164062 C 3.078125 7.234375 2.933594 7.332031 2.808594 7.457031 C 2.679688 7.582031 2.585938 7.730469 2.515625 7.894531 C 2.449219 8.058594 2.414062 8.230469 2.414062 8.410156 L 2.414062 20.644531 C 2.414062 20.824219 2.449219 20.996094 2.515625 21.164062 C 2.585938 21.328125 2.679688 21.472656 2.808594 21.601562 C 2.933594 21.726562 3.078125 21.824219 3.242188 21.894531 C 3.40625 21.960938 3.574219 21.996094 3.753906 21.996094 L 23.136719 21.996094 C 23.3125 21.996094 23.484375 21.960938 23.648438 21.894531 C 23.8125 21.824219 23.957031 21.726562 24.082031 21.601562 C 24.207031 21.472656 24.304688 21.328125 24.371094 21.164062 C 24.4375 20.996094 24.472656 20.824219 24.472656 20.644531 L 24.472656 13.523438 C 24.472656 13.390625 24.519531 13.277344 24.613281 13.183594 C 24.707031 13.085938 24.820312 13.039062 24.953125 13.039062 C 25.085938 13.039062 25.199219 13.085938 25.292969 13.183594 C 25.386719 13.277344 25.433594 13.390625 25.433594 13.523438 L 25.433594 20.644531 C 25.433594 20.953125 25.375 21.25 25.257812 21.53125 C 25.140625 21.816406 24.972656 22.066406 24.757812 22.285156 C 24.542969 22.5 24.296875 22.667969 24.015625 22.785156 C 23.734375 22.902344 23.441406 22.964844 23.136719 22.964844 Z M 23.136719 22.964844 " fill-opacity="1" fill-rule="nonzero"/></g><path fill="#000000" d="M 16.519531 7.0625 L 15.839844 7.0625 C 15.710938 7.0625 15.597656 7.011719 15.503906 6.917969 C 15.410156 6.824219 15.363281 6.710938 15.363281 6.578125 C 15.363281 6.445312 15.410156 6.328125 15.503906 6.234375 C 15.597656 6.140625 15.710938 6.09375 15.839844 6.09375 L 16.519531 6.09375 C 16.648438 6.09375 16.761719 6.140625 16.855469 6.234375 C 16.949219 6.328125 16.996094 6.445312 16.996094 6.578125 C 16.996094 6.710938 16.949219 6.824219 16.855469 6.917969 C 16.761719 7.011719 16.648438 7.0625 16.519531 7.0625 Z M 16.519531 7.0625 " fill-opacity="1" fill-rule="nonzero"/><g clip-path="url(#7f70500f0a)"><path fill="#000000" d="M 24.953125 19.222656 L 1.933594 19.222656 C 1.800781 19.222656 1.6875 19.175781 1.59375 19.082031 C 1.503906 18.988281 1.457031 18.875 1.457031 18.738281 C 1.457031 18.605469 1.503906 18.492188 1.59375 18.398438 C 1.6875 18.304688 1.800781 18.257812 1.933594 18.257812 L 24.953125 18.257812 C 25.085938 18.257812 25.199219 18.304688 25.292969 18.398438 C 25.386719 18.492188 25.433594 18.605469 25.433594 18.738281 C 25.433594 18.875 25.386719 18.988281 25.292969 19.082031 C 25.199219 19.175781 25.085938 19.222656 24.953125 19.222656 Z M 24.953125 19.222656 " fill-opacity="1" fill-rule="nonzero"/></g><path fill="#000000" d="M 6.507812 21.054688 L 4.175781 21.054688 C 4.042969 21.054688 3.929688 21.007812 3.835938 20.914062 C 3.742188 20.816406 3.695312 20.703125 3.695312 20.570312 C 3.695312 20.4375 3.742188 20.324219 3.835938 20.226562 C 3.929688 20.132812 4.042969 20.085938 4.175781 20.085938 L 6.507812 20.085938 C 6.636719 20.085938 6.75 20.132812 6.84375 20.226562 C 6.9375 20.324219 6.984375 20.4375 6.984375 20.570312 C 6.984375 20.703125 6.9375 20.816406 6.84375 20.914062 C 6.75 21.007812 6.636719 21.054688 6.507812 21.054688 Z M 6.507812 21.054688 " fill-opacity="1" fill-rule="nonzero"/><path fill="#000000" d="M 18.265625 28.957031 L 8.621094 28.957031 C 8.417969 28.957031 8.222656 28.921875 8.035156 28.84375 C 7.847656 28.765625 7.679688 28.652344 7.535156 28.507812 C 7.394531 28.363281 7.28125 28.199219 7.203125 28.007812 C 7.125 27.820312 7.085938 27.621094 7.085938 27.417969 C 7.085938 27.210938 7.125 27.015625 7.203125 26.824219 C 7.28125 26.636719 7.394531 26.46875 7.535156 26.324219 C 7.679688 26.179688 7.847656 26.070312 8.035156 25.992188 C 8.222656 25.914062 8.417969 25.875 8.621094 25.875 L 18.265625 25.875 C 18.46875 25.878906 18.660156 25.917969 18.847656 25.996094 C 19.035156 26.074219 19.199219 26.1875 19.339844 26.332031 C 19.484375 26.476562 19.59375 26.640625 19.667969 26.828125 C 19.746094 27.019531 19.785156 27.214844 19.785156 27.417969 C 19.785156 27.621094 19.746094 27.816406 19.667969 28.003906 C 19.59375 28.191406 19.484375 28.359375 19.339844 28.503906 C 19.199219 28.648438 19.035156 28.757812 18.847656 28.839844 C 18.660156 28.917969 18.46875 28.957031 18.265625 28.957031 Z M 8.621094 26.84375 C 8.464844 26.84375 8.328125 26.898438 8.21875 27.011719 C 8.105469 27.121094 8.050781 27.257812 8.050781 27.417969 C 8.050781 27.578125 8.105469 27.710938 8.21875 27.824219 C 8.328125 27.9375 8.464844 27.992188 8.621094 27.988281 L 18.265625 27.988281 C 18.421875 27.988281 18.554688 27.933594 18.664062 27.820312 C 18.773438 27.707031 18.828125 27.574219 18.828125 27.417969 C 18.828125 27.261719 18.773438 27.125 18.664062 27.015625 C 18.554688 26.902344 18.421875 26.84375 18.265625 26.84375 Z M 8.621094 26.84375 " fill-opacity="1" fill-rule="nonzero"/><path fill="#000000" d="M 9.863281 26.84375 C 9.78125 26.84375 9.703125 26.824219 9.628906 26.78125 C 9.558594 26.742188 9.5 26.6875 9.457031 26.617188 C 9.410156 26.542969 9.386719 26.46875 9.382812 26.382812 C 9.378906 26.300781 9.394531 26.21875 9.433594 26.144531 C 9.984375 24.984375 10.304688 23.761719 10.390625 22.480469 C 10.390625 22.34375 10.4375 22.230469 10.53125 22.136719 C 10.625 22.042969 10.738281 21.996094 10.867188 21.996094 C 11 21.996094 11.113281 22.042969 11.207031 22.136719 C 11.300781 22.230469 11.347656 22.34375 11.347656 22.480469 C 11.265625 23.914062 10.914062 25.28125 10.292969 26.574219 C 10.203125 26.753906 10.0625 26.84375 9.863281 26.84375 Z M 9.863281 26.84375 " fill-opacity="1" fill-rule="nonzero"/><path fill="#000000" d="M 17.023438 26.84375 C 16.824219 26.84375 16.683594 26.753906 16.59375 26.574219 C 15.972656 25.28125 15.621094 23.914062 15.539062 22.480469 C 15.539062 22.34375 15.585938 22.230469 15.679688 22.136719 C 15.773438 22.042969 15.886719 21.996094 16.019531 21.996094 C 16.152344 21.996094 16.265625 22.042969 16.359375 22.136719 C 16.453125 22.230469 16.5 22.34375 16.5 22.480469 C 16.582031 23.761719 16.902344 24.984375 17.453125 26.144531 C 17.492188 26.21875 17.507812 26.300781 17.503906 26.382812 C 17.5 26.46875 17.476562 26.542969 17.433594 26.617188 C 17.386719 26.6875 17.332031 26.742188 17.257812 26.78125 C 17.183594 26.824219 17.109375 26.84375 17.023438 26.84375 Z M 17.023438 26.84375 " fill-opacity="1" fill-rule="nonzero"/><path fill="#000000" d="M 4.554688 19.222656 C 4.421875 19.222656 4.308594 19.175781 4.214844 19.082031 C 4.121094 18.988281 4.074219 18.875 4.074219 18.738281 L 4.074219 5.15625 C 4.074219 5.019531 4.121094 4.90625 4.214844 4.8125 C 4.308594 4.71875 4.421875 4.671875 4.554688 4.671875 C 4.6875 4.671875 4.796875 4.71875 4.890625 4.8125 C 4.984375 4.90625 5.03125 5.019531 5.03125 5.15625 L 5.03125 18.738281 C 5.03125 18.875 4.984375 18.988281 4.890625 19.082031 C 4.796875 19.175781 4.6875 19.222656 4.554688 19.222656 Z M 4.554688 19.222656 " fill-opacity="1" fill-rule="nonzero"/><g clip-path="url(#2010fa5a9d)"><path fill="#000000" d="M 15.839844 19.222656 C 15.710938 19.222656 15.597656 19.175781 15.503906 19.082031 C 15.410156 18.988281 15.363281 18.875 15.363281 18.738281 L 15.363281 3.367188 C 15.363281 3.21875 15.308594 3.09375 15.207031 2.988281 C 15.101562 2.886719 14.976562 2.832031 14.832031 2.832031 L 7.335938 2.832031 C 7.203125 2.832031 7.089844 2.785156 6.996094 2.691406 C 6.902344 2.597656 6.855469 2.480469 6.855469 2.347656 C 6.855469 2.214844 6.902344 2.101562 6.996094 2.007812 C 7.089844 1.910156 7.203125 1.863281 7.335938 1.863281 L 14.832031 1.863281 C 15.027344 1.863281 15.21875 1.902344 15.402344 1.980469 C 15.582031 2.054688 15.746094 2.164062 15.882812 2.304688 C 16.023438 2.445312 16.132812 2.609375 16.207031 2.792969 C 16.28125 2.976562 16.320312 3.167969 16.320312 3.367188 L 16.320312 18.738281 C 16.320312 18.875 16.273438 18.988281 16.179688 19.082031 C 16.085938 19.175781 15.972656 19.222656 15.839844 19.222656 Z M 15.839844 19.222656 " fill-opacity="1" fill-rule="nonzero"/></g><g clip-path="url(#a8aa18d61f)"><path fill="#000000" d="M 6.5625 5.640625 L 4.550781 5.640625 C 4.335938 5.640625 4.191406 5.542969 4.109375 5.34375 C 4.027344 5.144531 4.0625 4.96875 4.210938 4.816406 L 6.996094 2.007812 C 7.148438 1.855469 7.320312 1.820312 7.519531 1.902344 C 7.714844 1.984375 7.816406 2.132812 7.816406 2.347656 L 7.816406 4.378906 C 7.816406 4.546875 7.78125 4.707031 7.71875 4.859375 C 7.65625 5.015625 7.566406 5.152344 7.449219 5.269531 C 7.332031 5.390625 7.195312 5.480469 7.042969 5.542969 C 6.890625 5.609375 6.730469 5.640625 6.5625 5.640625 Z M 5.707031 4.671875 L 6.5625 4.671875 C 6.644531 4.671875 6.714844 4.644531 6.769531 4.585938 C 6.828125 4.527344 6.855469 4.460938 6.855469 4.378906 L 6.855469 3.515625 Z M 5.707031 4.671875 " fill-opacity="1" fill-rule="nonzero"/></g><path fill="#000000" d="M 7.015625 8.929688 C 6.882812 8.929688 6.769531 8.882812 6.679688 8.789062 L 5.976562 8.082031 C 5.886719 7.988281 5.839844 7.875 5.839844 7.742188 C 5.839844 7.609375 5.886719 7.496094 5.980469 7.402344 C 6.074219 7.308594 6.1875 7.261719 6.316406 7.261719 C 6.449219 7.257812 6.5625 7.304688 6.65625 7.398438 L 7.015625 7.761719 L 8.015625 6.757812 C 8.109375 6.660156 8.222656 6.613281 8.355469 6.609375 C 8.488281 6.609375 8.601562 6.65625 8.699219 6.753906 C 8.792969 6.847656 8.839844 6.960938 8.835938 7.097656 C 8.835938 7.230469 8.789062 7.347656 8.691406 7.441406 L 7.355469 8.789062 C 7.261719 8.882812 7.148438 8.929688 7.015625 8.929688 Z M 7.015625 8.929688 " fill-opacity="1" fill-rule="nonzero"/><path fill="#000000" d="M 13.902344 7.582031 L 10.210938 7.582031 C 10.078125 7.582031 9.96875 7.535156 9.875 7.441406 C 9.78125 7.347656 9.734375 7.230469 9.734375 7.097656 C 9.734375 6.964844 9.78125 6.851562 9.875 6.757812 C 9.96875 6.664062 10.078125 6.613281 10.210938 6.613281 L 13.902344 6.613281 C 14.035156 6.613281 14.148438 6.664062 14.242188 6.757812 C 14.335938 6.851562 14.382812 6.964844 14.382812 7.097656 C 14.382812 7.230469 14.335938 7.347656 14.242188 7.441406 C 14.148438 7.535156 14.035156 7.582031 13.902344 7.582031 Z M 13.902344 7.582031 " fill-opacity="1" fill-rule="nonzero"/><path fill="#000000" d="M 12.058594 8.929688 L 10.210938 8.929688 C 10.078125 8.929688 9.96875 8.882812 9.875 8.789062 C 9.78125 8.695312 9.734375 8.582031 9.734375 8.449219 C 9.734375 8.3125 9.78125 8.199219 9.875 8.105469 C 9.96875 8.011719 10.078125 7.964844 10.210938 7.964844 L 12.058594 7.964844 C 12.191406 7.964844 12.304688 8.011719 12.398438 8.105469 C 12.492188 8.199219 12.539062 8.3125 12.539062 8.449219 C 12.539062 8.582031 12.492188 8.695312 12.398438 8.789062 C 12.304688 8.882812 12.191406 8.929688 12.058594 8.929688 Z M 12.058594 8.929688 " fill-opacity="1" fill-rule="nonzero"/><path fill="#000000" d="M 7.015625 12.40625 C 6.882812 12.40625 6.769531 12.359375 6.679688 12.265625 L 5.976562 11.554688 C 5.886719 11.460938 5.839844 11.347656 5.839844 11.214844 C 5.84375 11.082031 5.890625 10.972656 5.980469 10.878906 C 6.074219 10.785156 6.1875 10.738281 6.316406 10.734375 C 6.449219 10.734375 6.5625 10.78125 6.65625 10.871094 L 7.015625 11.238281 L 8.015625 10.230469 C 8.109375 10.132812 8.222656 10.085938 8.355469 10.085938 C 8.488281 10.082031 8.601562 10.128906 8.699219 10.226562 C 8.792969 10.320312 8.839844 10.4375 8.839844 10.570312 C 8.835938 10.707031 8.789062 10.820312 8.691406 10.914062 L 7.355469 12.265625 C 7.261719 12.359375 7.148438 12.40625 7.015625 12.40625 Z M 7.015625 12.40625 " fill-opacity="1" fill-rule="nonzero"/><path fill="#000000" d="M 13.902344 11.058594 L 10.210938 11.058594 C 10.078125 11.058594 9.96875 11.011719 9.875 10.914062 C 9.78125 10.820312 9.734375 10.707031 9.734375 10.574219 C 9.734375 10.441406 9.78125 10.324219 9.875 10.230469 C 9.96875 10.136719 10.078125 10.089844 10.210938 10.089844 L 13.902344 10.089844 C 14.035156 10.089844 14.148438 10.136719 14.242188 10.230469 C 14.335938 10.324219 14.382812 10.441406 14.382812 10.574219 C 14.382812 10.707031 14.335938 10.820312 14.242188 10.914062 C 14.148438 11.011719 14.035156 11.058594 13.902344 11.058594 Z M 13.902344 11.058594 " fill-opacity="1" fill-rule="nonzero"/><path fill="#000000" d="M 12.058594 12.40625 L 10.210938 12.40625 C 10.078125 12.40625 9.96875 12.359375 9.875 12.265625 C 9.78125 12.167969 9.734375 12.054688 9.734375 11.921875 C 9.734375 11.789062 9.78125 11.675781 9.875 11.578125 C 9.96875 11.484375 10.078125 11.4375 10.210938 11.4375 L 12.058594 11.4375 C 12.191406 11.4375 12.304688 11.484375 12.398438 11.578125 C 12.492188 11.675781 12.539062 11.789062 12.539062 11.921875 C 12.539062 12.054688 12.492188 12.167969 12.398438 12.265625 C 12.304688 12.359375 12.191406 12.40625 12.058594 12.40625 Z M 12.058594 12.40625 " fill-opacity="1" fill-rule="nonzero"/><path fill="#000000" d="M 7.015625 15.878906 C 6.882812 15.878906 6.769531 15.832031 6.679688 15.738281 L 5.976562 15.03125 C 5.878906 14.9375 5.832031 14.824219 5.832031 14.6875 C 5.832031 14.554688 5.875 14.4375 5.972656 14.34375 C 6.066406 14.246094 6.179688 14.199219 6.3125 14.199219 C 6.449219 14.203125 6.5625 14.25 6.65625 14.347656 L 7.015625 14.710938 L 8.015625 13.707031 C 8.109375 13.609375 8.222656 13.5625 8.355469 13.558594 C 8.488281 13.558594 8.601562 13.605469 8.699219 13.703125 C 8.792969 13.796875 8.839844 13.910156 8.835938 14.046875 C 8.835938 14.179688 8.789062 14.296875 8.691406 14.390625 L 7.355469 15.738281 C 7.261719 15.832031 7.148438 15.878906 7.015625 15.878906 Z M 7.015625 15.878906 " fill-opacity="1" fill-rule="nonzero"/><path fill="#000000" d="M 13.902344 14.53125 L 10.210938 14.53125 C 10.078125 14.53125 9.96875 14.484375 9.875 14.390625 C 9.78125 14.296875 9.734375 14.179688 9.734375 14.046875 C 9.734375 13.914062 9.78125 13.800781 9.875 13.707031 C 9.96875 13.609375 10.078125 13.5625 10.210938 13.5625 L 13.902344 13.5625 C 14.035156 13.5625 14.148438 13.609375 14.242188 13.707031 C 14.335938 13.800781 14.382812 13.914062 14.382812 14.046875 C 14.382812 14.179688 14.335938 14.296875 14.242188 14.390625 C 14.148438 14.484375 14.035156 14.53125 13.902344 14.53125 Z M 13.902344 14.53125 " fill-opacity="1" fill-rule="nonzero"/><path fill="#000000" d="M 12.058594 15.878906 L 10.210938 15.878906 C 10.078125 15.878906 9.96875 15.832031 9.875 15.738281 C 9.78125 15.644531 9.734375 15.53125 9.734375 15.398438 C 9.734375 15.261719 9.78125 15.148438 9.875 15.054688 C 9.96875 14.960938 10.078125 14.914062 10.210938 14.914062 L 12.058594 14.914062 C 12.191406 14.914062 12.304688 14.960938 12.398438 15.054688 C 12.492188 15.148438 12.539062 15.261719 12.539062 15.398438 C 12.539062 15.53125 12.492188 15.644531 12.398438 15.738281 C 12.304688 15.832031 12.191406 15.878906 12.058594 15.878906 Z M 12.058594 15.878906 " fill-opacity="1" fill-rule="nonzero"/><g clip-path="url(#47402f8c63)"><path fill="#000000" d="M 23.160156 12.238281 C 22.820312 12.238281 22.488281 12.207031 22.15625 12.140625 C 21.824219 12.074219 21.503906 11.976562 21.191406 11.84375 C 20.878906 11.714844 20.582031 11.554688 20.304688 11.367188 C 20.023438 11.175781 19.761719 10.960938 19.523438 10.71875 C 19.285156 10.480469 19.070312 10.21875 18.882812 9.933594 C 18.695312 9.652344 18.539062 9.351562 18.410156 9.039062 C 18.28125 8.722656 18.183594 8.398438 18.117188 8.066406 C 18.050781 7.730469 18.015625 7.394531 18.015625 7.050781 C 18.015625 6.710938 18.050781 6.375 18.117188 6.039062 C 18.183594 5.707031 18.28125 5.382812 18.410156 5.066406 C 18.539062 4.753906 18.695312 4.453125 18.882812 4.171875 C 19.070312 3.886719 19.285156 3.625 19.523438 3.382812 C 19.761719 3.144531 20.023438 2.929688 20.304688 2.738281 C 20.582031 2.550781 20.878906 2.390625 21.191406 2.257812 C 21.503906 2.128906 21.824219 2.03125 22.15625 1.964844 C 22.488281 1.898438 22.820312 1.863281 23.160156 1.863281 C 23.496094 1.863281 23.832031 1.898438 24.164062 1.964844 C 24.492188 2.03125 24.816406 2.128906 25.128906 2.257812 C 25.4375 2.390625 25.734375 2.550781 26.015625 2.738281 C 26.296875 2.929688 26.558594 3.144531 26.796875 3.382812 C 27.035156 3.625 27.246094 3.886719 27.433594 4.171875 C 27.621094 4.453125 27.78125 4.753906 27.910156 5.066406 C 28.039062 5.382812 28.136719 5.707031 28.203125 6.039062 C 28.269531 6.375 28.300781 6.710938 28.300781 7.050781 C 28.300781 7.394531 28.269531 7.730469 28.203125 8.0625 C 28.136719 8.398438 28.039062 8.722656 27.910156 9.035156 C 27.777344 9.351562 27.621094 9.648438 27.433594 9.933594 C 27.246094 10.214844 27.03125 10.476562 26.792969 10.71875 C 26.554688 10.960938 26.296875 11.175781 26.015625 11.363281 C 25.734375 11.554688 25.4375 11.714844 25.125 11.84375 C 24.816406 11.972656 24.492188 12.074219 24.164062 12.140625 C 23.832031 12.207031 23.496094 12.238281 23.160156 12.238281 Z M 23.160156 2.832031 C 22.886719 2.832031 22.613281 2.859375 22.34375 2.914062 C 22.074219 2.96875 21.8125 3.046875 21.558594 3.152344 C 21.304688 3.257812 21.0625 3.390625 20.835938 3.542969 C 20.605469 3.699219 20.394531 3.871094 20.203125 4.070312 C 20.007812 4.265625 19.835938 4.476562 19.679688 4.707031 C 19.527344 4.9375 19.398438 5.179688 19.296875 5.4375 C 19.191406 5.695312 19.109375 5.957031 19.058594 6.230469 C 19.003906 6.5 18.976562 6.773438 18.976562 7.050781 C 18.976562 7.328125 19.003906 7.605469 19.058594 7.875 C 19.109375 8.148438 19.191406 8.410156 19.296875 8.667969 C 19.398438 8.921875 19.527344 9.167969 19.679688 9.398438 C 19.835938 9.628906 20.007812 9.839844 20.203125 10.035156 C 20.394531 10.234375 20.605469 10.40625 20.835938 10.5625 C 21.0625 10.714844 21.304688 10.84375 21.558594 10.953125 C 21.8125 11.058594 22.074219 11.136719 22.34375 11.191406 C 22.613281 11.246094 22.886719 11.273438 23.160156 11.273438 C 23.433594 11.273438 23.707031 11.246094 23.976562 11.191406 C 24.246094 11.136719 24.507812 11.058594 24.761719 10.953125 C 25.015625 10.84375 25.253906 10.714844 25.484375 10.5625 C 25.710938 10.40625 25.921875 10.234375 26.117188 10.035156 C 26.3125 9.839844 26.484375 9.628906 26.636719 9.398438 C 26.789062 9.167969 26.917969 8.921875 27.023438 8.667969 C 27.128906 8.410156 27.207031 8.148438 27.261719 7.875 C 27.316406 7.605469 27.34375 7.328125 27.34375 7.050781 C 27.34375 6.777344 27.316406 6.5 27.261719 6.230469 C 27.207031 5.957031 27.128906 5.695312 27.023438 5.4375 C 26.917969 5.183594 26.789062 4.9375 26.636719 4.710938 C 26.484375 4.480469 26.308594 4.265625 26.117188 4.070312 C 25.921875 3.875 25.710938 3.699219 25.480469 3.546875 C 25.253906 3.390625 25.011719 3.261719 24.757812 3.15625 C 24.507812 3.046875 24.246094 2.96875 23.976562 2.914062 C 23.707031 2.859375 23.433594 2.832031 23.160156 2.832031 Z M 23.160156 2.832031 " fill-opacity="1" fill-rule="nonzero"/></g><path fill="#000000" d="M 23.160156 9.171875 C 22.882812 9.171875 22.613281 9.117188 22.355469 9.007812 C 22.097656 8.902344 21.871094 8.75 21.675781 8.550781 C 21.476562 8.351562 21.324219 8.121094 21.21875 7.863281 C 21.113281 7.605469 21.058594 7.332031 21.058594 7.050781 C 21.058594 6.773438 21.113281 6.5 21.21875 6.242188 C 21.324219 5.980469 21.476562 5.753906 21.675781 5.554688 C 21.871094 5.355469 22.097656 5.203125 22.355469 5.09375 C 22.613281 4.988281 22.882812 4.933594 23.160156 4.933594 C 23.4375 4.933594 23.707031 4.988281 23.964844 5.09375 C 24.21875 5.203125 24.449219 5.355469 24.644531 5.554688 C 24.839844 5.753906 24.992188 5.980469 25.101562 6.242188 C 25.207031 6.5 25.257812 6.773438 25.257812 7.050781 C 25.257812 7.332031 25.207031 7.601562 25.097656 7.863281 C 24.992188 8.121094 24.839844 8.351562 24.644531 8.550781 C 24.445312 8.75 24.21875 8.902344 23.960938 9.007812 C 23.707031 9.117188 23.4375 9.171875 23.160156 9.171875 Z M 23.160156 5.902344 C 23.007812 5.902344 22.863281 5.929688 22.722656 5.988281 C 22.582031 6.046875 22.460938 6.128906 22.351562 6.238281 C 22.246094 6.347656 22.164062 6.472656 22.105469 6.613281 C 22.046875 6.753906 22.019531 6.898438 22.019531 7.050781 C 22.019531 7.203125 22.046875 7.351562 22.105469 7.492188 C 22.164062 7.632812 22.246094 7.757812 22.351562 7.867188 C 22.460938 7.972656 22.582031 8.058594 22.722656 8.117188 C 22.863281 8.175781 23.007812 8.203125 23.160156 8.203125 C 23.3125 8.203125 23.457031 8.175781 23.597656 8.117188 C 23.734375 8.058594 23.859375 7.972656 23.964844 7.867188 C 24.074219 7.757812 24.15625 7.632812 24.214844 7.492188 C 24.269531 7.351562 24.300781 7.203125 24.300781 7.050781 C 24.300781 6.898438 24.269531 6.753906 24.214844 6.613281 C 24.15625 6.472656 24.074219 6.347656 23.964844 6.238281 C 23.859375 6.132812 23.734375 6.046875 23.597656 5.988281 C 23.457031 5.929688 23.3125 5.902344 23.160156 5.902344 Z M 23.160156 5.902344 " fill-opacity="1" fill-rule="nonzero"/><path fill="#000000" d="M 23.160156 5.902344 C 23.027344 5.902344 22.914062 5.855469 22.820312 5.761719 C 22.726562 5.664062 22.679688 5.550781 22.679688 5.417969 L 22.679688 4.53125 C 22.679688 4.398438 22.726562 4.285156 22.820312 4.191406 C 22.914062 4.097656 23.027344 4.046875 23.160156 4.046875 C 23.292969 4.046875 23.40625 4.097656 23.5 4.191406 C 23.59375 4.285156 23.640625 4.398438 23.640625 4.53125 L 23.640625 5.417969 C 23.640625 5.550781 23.59375 5.664062 23.5 5.761719 C 23.40625 5.855469 23.292969 5.902344 23.160156 5.902344 Z M 23.160156 5.902344 " fill-opacity="1" fill-rule="nonzero"/><path fill="#000000" d="M 22.015625 6.378906 C 21.882812 6.378906 21.769531 6.332031 21.675781 6.238281 L 21.054688 5.613281 C 20.957031 5.519531 20.910156 5.402344 20.910156 5.269531 C 20.90625 5.132812 20.953125 5.019531 21.050781 4.921875 C 21.144531 4.828125 21.257812 4.78125 21.390625 4.78125 C 21.527344 4.78125 21.640625 4.832031 21.734375 4.929688 L 22.351562 5.554688 C 22.503906 5.707031 22.539062 5.882812 22.457031 6.082031 C 22.375 6.28125 22.226562 6.378906 22.015625 6.378906 Z M 22.015625 6.378906 " fill-opacity="1" fill-rule="nonzero"/><path fill="#000000" d="M 21.539062 7.535156 L 20.660156 7.535156 C 20.53125 7.535156 20.417969 7.488281 20.324219 7.394531 C 20.230469 7.300781 20.183594 7.1875 20.183594 7.050781 C 20.183594 6.917969 20.230469 6.804688 20.324219 6.710938 C 20.417969 6.617188 20.53125 6.570312 20.660156 6.570312 L 21.539062 6.570312 C 21.671875 6.570312 21.785156 6.617188 21.878906 6.710938 C 21.972656 6.804688 22.019531 6.917969 22.019531 7.050781 C 22.019531 7.1875 21.972656 7.300781 21.878906 7.394531 C 21.785156 7.488281 21.671875 7.535156 21.539062 7.535156 Z M 21.539062 7.535156 " fill-opacity="1" fill-rule="nonzero"/><path fill="#000000" d="M 21.394531 9.316406 C 21.179688 9.316406 21.03125 9.21875 20.949219 9.019531 C 20.867188 8.820312 20.902344 8.644531 21.054688 8.492188 L 21.675781 7.867188 C 21.769531 7.773438 21.882812 7.726562 22.011719 7.730469 C 22.144531 7.730469 22.253906 7.777344 22.347656 7.871094 C 22.441406 7.964844 22.488281 8.078125 22.488281 8.210938 C 22.488281 8.339844 22.445312 8.457031 22.351562 8.550781 L 21.734375 9.175781 C 21.640625 9.269531 21.527344 9.320312 21.394531 9.316406 Z M 21.394531 9.316406 " fill-opacity="1" fill-rule="nonzero"/><path fill="#000000" d="M 23.160156 10.054688 C 23.027344 10.054688 22.914062 10.007812 22.820312 9.914062 C 22.726562 9.820312 22.679688 9.707031 22.679688 9.574219 L 22.679688 8.6875 C 22.679688 8.554688 22.726562 8.441406 22.820312 8.34375 C 22.914062 8.25 23.027344 8.203125 23.160156 8.203125 C 23.292969 8.203125 23.40625 8.25 23.5 8.34375 C 23.59375 8.441406 23.640625 8.554688 23.640625 8.6875 L 23.640625 9.574219 C 23.640625 9.707031 23.59375 9.820312 23.5 9.914062 C 23.40625 10.007812 23.292969 10.054688 23.160156 10.054688 Z M 23.160156 10.054688 " fill-opacity="1" fill-rule="nonzero"/><path fill="#000000" d="M 24.925781 9.316406 C 24.792969 9.320312 24.679688 9.269531 24.585938 9.175781 L 23.964844 8.550781 C 23.875 8.457031 23.832031 8.339844 23.832031 8.210938 C 23.832031 8.078125 23.878906 7.964844 23.972656 7.871094 C 24.0625 7.777344 24.175781 7.730469 24.308594 7.730469 C 24.4375 7.726562 24.550781 7.773438 24.644531 7.867188 L 25.265625 8.492188 C 25.417969 8.644531 25.449219 8.820312 25.367188 9.019531 C 25.289062 9.21875 25.140625 9.316406 24.925781 9.316406 Z M 24.925781 9.316406 " fill-opacity="1" fill-rule="nonzero"/><path fill="#000000" d="M 25.65625 7.535156 L 24.78125 7.535156 C 24.648438 7.535156 24.535156 7.488281 24.441406 7.394531 C 24.347656 7.300781 24.300781 7.1875 24.300781 7.050781 C 24.300781 6.917969 24.347656 6.804688 24.441406 6.710938 C 24.535156 6.617188 24.648438 6.570312 24.78125 6.570312 L 25.65625 6.570312 C 25.789062 6.570312 25.902344 6.617188 25.996094 6.710938 C 26.089844 6.804688 26.136719 6.917969 26.136719 7.050781 C 26.136719 7.1875 26.089844 7.300781 25.996094 7.394531 C 25.902344 7.488281 25.789062 7.535156 25.65625 7.535156 Z M 25.65625 7.535156 " fill-opacity="1" fill-rule="nonzero"/><path fill="#000000" d="M 24.304688 6.378906 C 24.09375 6.378906 23.945312 6.28125 23.863281 6.082031 C 23.78125 5.882812 23.816406 5.707031 23.964844 5.554688 L 24.585938 4.929688 C 24.679688 4.832031 24.792969 4.78125 24.925781 4.78125 C 25.0625 4.78125 25.175781 4.828125 25.269531 4.925781 C 25.363281 5.019531 25.410156 5.132812 25.410156 5.269531 C 25.410156 5.402344 25.359375 5.519531 25.265625 5.613281 L 24.644531 6.238281 C 24.550781 6.332031 24.4375 6.378906 24.304688 6.378906 Z M 24.304688 6.378906 " fill-opacity="1" fill-rule="nonzero"/><path fill="#000000" d="M 22.316406 15.523438 L 18.28125 15.523438 C 18.148438 15.523438 18.035156 15.472656 17.941406 15.378906 C 17.847656 15.285156 17.800781 15.171875 17.800781 15.039062 C 17.800781 14.90625 17.847656 14.789062 17.941406 14.695312 C 18.035156 14.601562 18.148438 14.554688 18.28125 14.554688 L 22.316406 14.554688 C 22.449219 14.554688 22.5625 14.601562 22.65625 14.695312 C 22.75 14.789062 22.796875 14.90625 22.796875 15.039062 C 22.796875 15.171875 22.75 15.285156 22.65625 15.378906 C 22.5625 15.472656 22.449219 15.523438 22.316406 15.523438 Z M 22.316406 15.523438 " fill-opacity="1" fill-rule="nonzero"/><path fill="#000000" d="M 20.460938 17.371094 L 18.28125 17.371094 C 18.148438 17.371094 18.035156 17.324219 17.941406 17.230469 C 17.847656 17.136719 17.800781 17.023438 17.800781 16.890625 C 17.800781 16.753906 17.847656 16.640625 17.941406 16.546875 C 18.035156 16.453125 18.148438 16.40625 18.28125 16.40625 L 20.460938 16.40625 C 20.59375 16.40625 20.707031 16.453125 20.800781 16.546875 C 20.894531 16.640625 20.941406 16.753906 20.941406 16.890625 C 20.941406 17.023438 20.894531 17.136719 20.800781 17.230469 C 20.707031 17.324219 20.59375 17.371094 20.460938 17.371094 Z M 20.460938 17.371094 " fill-opacity="1" fill-rule="nonzero"/></svg>