<svg xmlns="http://www.w3.org/2000/svg" xmlns:xlink="http://www.w3.org/1999/xlink" width="40" zoomAndPan="magnify" viewBox="0 0 30 30.000001" height="40" preserveAspectRatio="xMidYMid meet" version="1.0"><defs><clipPath id="89a88d16e8"><path d="M 1.476562 0 L 23 0 L 23 26 L 1.476562 26 Z M 1.476562 0 " clip-rule="nonzero"/></clipPath><clipPath id="fc242d190b"><path d="M 15 7 L 28.332031 7 L 28.332031 29.03125 L 15 29.03125 Z M 15 7 " clip-rule="nonzero"/></clipPath></defs><g clip-path="url(#89a88d16e8)"><path fill="#ffffff" d="M 19.265625 24.582031 L 2.542969 24.582031 L 2.542969 1.066406 L 21.707031 1.066406 L 21.707031 6.507812 C 21.707031 6.800781 21.945312 7.039062 22.238281 7.039062 C 22.535156 7.039062 22.773438 6.800781 22.773438 6.507812 L 22.773438 0.535156 C 22.773438 0.242188 22.535156 0.00390625 22.238281 0.00390625 L 2.011719 0.00390625 C 1.714844 0.00390625 1.476562 0.242188 1.476562 0.535156 L 1.476562 25.113281 C 1.476562 25.410156 1.714844 25.648438 2.011719 25.648438 L 19.265625 25.648438 C 19.558594 25.648438 19.796875 25.410156 19.796875 25.113281 C 19.796875 24.820312 19.558594 24.582031 19.265625 24.582031 Z M 19.265625 24.582031 " fill-opacity="1" fill-rule="nonzero"/></g><path fill="#ffffff" d="M 9.453125 4.183594 C 9.453125 3.890625 9.214844 3.652344 8.921875 3.652344 L 5.648438 3.652344 C 5.355469 3.652344 5.117188 3.890625 5.117188 4.183594 L 5.117188 7.457031 C 5.117188 7.75 5.355469 7.988281 5.648438 7.988281 L 8.921875 7.988281 C 9.214844 7.988281 9.453125 7.75 9.453125 7.457031 Z M 8.390625 6.925781 L 6.183594 6.925781 L 6.183594 4.714844 L 8.390625 4.714844 Z M 8.390625 6.925781 " fill-opacity="1" fill-rule="nonzero"/><path fill="#ffffff" d="M 19.132812 4.921875 C 19.132812 4.628906 18.894531 4.390625 18.601562 4.390625 L 10.949219 4.390625 C 10.65625 4.390625 10.417969 4.628906 10.417969 4.921875 C 10.417969 5.214844 10.65625 5.453125 10.949219 5.453125 L 18.601562 5.453125 C 18.894531 5.453125 19.132812 5.214844 19.132812 4.921875 Z M 19.132812 4.921875 " fill-opacity="1" fill-rule="nonzero"/><path fill="#ffffff" d="M 10.949219 7.480469 L 14.773438 7.480469 C 15.070312 7.480469 15.308594 7.242188 15.308594 6.949219 C 15.308594 6.65625 15.070312 6.417969 14.773438 6.417969 L 10.949219 6.417969 C 10.65625 6.417969 10.417969 6.65625 10.417969 6.949219 C 10.417969 7.242188 10.65625 7.480469 10.949219 7.480469 Z M 10.949219 7.480469 " fill-opacity="1" fill-rule="nonzero"/><path fill="#ffffff" d="M 9.453125 11.1875 C 9.453125 10.894531 9.214844 10.65625 8.921875 10.65625 L 5.648438 10.65625 C 5.355469 10.65625 5.117188 10.894531 5.117188 11.1875 L 5.117188 14.460938 C 5.117188 14.753906 5.355469 14.992188 5.648438 14.992188 L 8.921875 14.992188 C 9.214844 14.992188 9.453125 14.753906 9.453125 14.460938 Z M 8.390625 13.929688 L 6.183594 13.929688 L 6.183594 11.722656 L 8.390625 11.722656 Z M 8.390625 13.929688 " fill-opacity="1" fill-rule="nonzero"/><path fill="#ffffff" d="M 15.175781 11.394531 L 10.949219 11.394531 C 10.65625 11.394531 10.417969 11.632812 10.417969 11.925781 C 10.417969 12.222656 10.65625 12.460938 10.949219 12.460938 L 15.175781 12.460938 C 15.46875 12.460938 15.707031 12.222656 15.707031 11.925781 C 15.707031 11.632812 15.46875 11.394531 15.175781 11.394531 Z M 15.175781 11.394531 " fill-opacity="1" fill-rule="nonzero"/><path fill="#ffffff" d="M 10.949219 14.488281 L 14.773438 14.488281 C 15.070312 14.488281 15.308594 14.25 15.308594 13.953125 C 15.308594 13.660156 15.070312 13.421875 14.773438 13.421875 L 10.949219 13.421875 C 10.65625 13.421875 10.417969 13.660156 10.417969 13.953125 C 10.417969 14.25 10.65625 14.488281 10.949219 14.488281 Z M 10.949219 14.488281 " fill-opacity="1" fill-rule="nonzero"/><path fill="#ffffff" d="M 8.921875 17.660156 L 5.648438 17.660156 C 5.355469 17.660156 5.117188 17.898438 5.117188 18.195312 L 5.117188 21.464844 C 5.117188 21.761719 5.355469 22 5.648438 22 L 8.921875 22 C 9.214844 22 9.453125 21.761719 9.453125 21.464844 L 9.453125 18.195312 C 9.453125 17.898438 9.214844 17.660156 8.921875 17.660156 Z M 8.390625 20.933594 L 6.183594 20.933594 L 6.183594 18.726562 L 8.390625 18.726562 Z M 8.390625 20.933594 " fill-opacity="1" fill-rule="nonzero"/><path fill="#ffffff" d="M 18.058594 18.933594 C 18.058594 18.636719 17.820312 18.398438 17.527344 18.398438 L 10.949219 18.398438 C 10.65625 18.398438 10.417969 18.636719 10.417969 18.933594 C 10.417969 19.226562 10.65625 19.464844 10.949219 19.464844 L 17.527344 19.464844 C 17.820312 19.464844 18.058594 19.226562 18.058594 18.933594 Z M 18.058594 18.933594 " fill-opacity="1" fill-rule="nonzero"/><path fill="#ffffff" d="M 10.699219 21.320312 C 10.40625 21.320312 10.167969 21.558594 10.167969 21.855469 C 10.167969 22.148438 10.40625 22.386719 10.699219 22.386719 L 14.527344 22.386719 C 14.820312 22.386719 15.058594 22.148438 15.058594 21.855469 C 15.058594 21.558594 14.820312 21.320312 14.527344 21.320312 Z M 10.699219 21.320312 " fill-opacity="1" fill-rule="nonzero"/><g clip-path="url(#fc242d190b)"><path fill="#ffffff" d="M 28.023438 11.191406 C 27.707031 10.445312 27.253906 9.773438 26.675781 9.199219 C 26.101562 8.621094 25.429688 8.167969 24.683594 7.851562 C 23.910156 7.527344 23.085938 7.359375 22.238281 7.359375 C 21.394531 7.359375 20.570312 7.527344 19.796875 7.851562 C 19.050781 8.167969 18.378906 8.621094 17.800781 9.199219 C 17.226562 9.773438 16.773438 10.445312 16.457031 11.191406 C 16.128906 11.964844 15.964844 12.789062 15.964844 13.636719 C 15.964844 14.480469 16.128906 15.304688 16.457031 16.078125 C 16.773438 16.824219 17.226562 17.496094 17.800781 18.074219 C 18.378906 18.648438 19.050781 19.101562 19.796875 19.417969 C 20.148438 19.566406 20.511719 19.683594 20.882812 19.765625 L 20.882812 20.703125 C 20.480469 20.824219 20.1875 21.199219 20.1875 21.640625 L 20.1875 26.976562 C 20.1875 28.109375 21.109375 29.027344 22.238281 29.027344 C 23.371094 29.027344 24.289062 28.109375 24.289062 26.976562 L 24.289062 21.640625 C 24.289062 21.199219 23.996094 20.824219 23.597656 20.703125 L 23.597656 19.765625 C 23.964844 19.683594 24.328125 19.566406 24.683594 19.417969 C 25.429688 19.101562 26.101562 18.648438 26.675781 18.074219 C 27.253906 17.496094 27.707031 16.824219 28.023438 16.078125 C 28.347656 15.304688 28.515625 14.480469 28.515625 13.636719 C 28.515625 12.789062 28.347656 11.964844 28.023438 11.191406 Z M 22.53125 20.664062 L 21.949219 20.664062 L 21.949219 19.933594 L 22.21875 19.941406 C 22.234375 19.941406 22.246094 19.941406 22.261719 19.941406 L 22.53125 19.933594 Z M 23.226562 26.976562 C 23.226562 27.523438 22.785156 27.964844 22.238281 27.964844 C 21.695312 27.964844 21.253906 27.523438 21.253906 26.976562 L 21.253906 21.726562 L 23.226562 21.726562 Z M 25.925781 17.320312 C 24.941406 18.304688 23.632812 18.847656 22.238281 18.847656 C 20.847656 18.847656 19.539062 18.304688 18.554688 17.320312 C 17.570312 16.335938 17.027344 15.027344 17.027344 13.636719 C 17.027344 12.242188 17.570312 10.933594 18.554688 9.949219 C 19.539062 8.964844 20.847656 8.425781 22.238281 8.425781 C 23.632812 8.425781 24.941406 8.964844 25.925781 9.949219 C 26.910156 10.933594 27.449219 12.242188 27.449219 13.636719 C 27.449219 15.027344 26.910156 16.335938 25.925781 17.320312 Z M 25.925781 17.320312 " fill-opacity="1" fill-rule="nonzero"/></g><path fill="#ffffff" d="M 24.285156 11.726562 L 20.964844 15.050781 L 19.640625 13.726562 C 19.433594 13.519531 19.09375 13.519531 18.886719 13.726562 C 18.679688 13.933594 18.679688 14.273438 18.886719 14.480469 L 20.585938 16.179688 C 20.691406 16.28125 20.828125 16.335938 20.964844 16.335938 C 21.097656 16.335938 21.234375 16.28125 21.339844 16.179688 L 25.039062 12.480469 C 25.246094 12.269531 25.246094 11.933594 25.039062 11.726562 C 24.832031 11.519531 24.496094 11.519531 24.285156 11.726562 Z M 24.285156 11.726562 " fill-opacity="1" fill-rule="nonzero"/></svg>