<svg xmlns="http://www.w3.org/2000/svg" xmlns:xlink="http://www.w3.org/1999/xlink" width="40" zoomAndPan="magnify" viewBox="0 0 30 30.000001" height="40" preserveAspectRatio="xMidYMid meet" version="1.0"><defs><clipPath id="02e851ca73"><path d="M 1.476562 0 L 23 0 L 23 26 L 1.476562 26 Z M 1.476562 0 " clip-rule="nonzero"/></clipPath><clipPath id="5560ae6c19"><path d="M 15 7 L 28.332031 7 L 28.332031 29.03125 L 15 29.03125 Z M 15 7 " clip-rule="nonzero"/></clipPath></defs><g clip-path="url(#02e851ca73)"><path fill="#000000" d="M 19.144531 24.582031 L 2.535156 24.582031 L 2.535156 1.066406 L 21.570312 1.066406 L 21.570312 6.507812 C 21.570312 6.800781 21.808594 7.039062 22.101562 7.039062 C 22.390625 7.039062 22.628906 6.800781 22.628906 6.507812 L 22.628906 0.535156 C 22.628906 0.242188 22.390625 0.00390625 22.101562 0.00390625 L 2.007812 0.00390625 C 1.714844 0.00390625 1.476562 0.242188 1.476562 0.535156 L 1.476562 25.113281 C 1.476562 25.410156 1.714844 25.648438 2.007812 25.648438 L 19.144531 25.648438 C 19.4375 25.648438 19.671875 25.410156 19.671875 25.113281 C 19.671875 24.820312 19.4375 24.582031 19.144531 24.582031 Z M 19.144531 24.582031 " fill-opacity="1" fill-rule="nonzero"/></g><path fill="#000000" d="M 9.402344 4.183594 C 9.402344 3.890625 9.164062 3.652344 8.871094 3.652344 L 5.621094 3.652344 C 5.332031 3.652344 5.09375 3.890625 5.09375 4.183594 L 5.09375 7.457031 C 5.09375 7.75 5.328125 7.988281 5.621094 7.988281 L 8.871094 7.988281 C 9.164062 7.988281 9.402344 7.75 9.402344 7.457031 Z M 8.34375 6.925781 L 6.152344 6.925781 L 6.152344 4.714844 L 8.34375 4.714844 Z M 8.34375 6.925781 " fill-opacity="1" fill-rule="nonzero"/><path fill="#000000" d="M 19.015625 4.921875 C 19.015625 4.628906 18.777344 4.390625 18.484375 4.390625 L 10.886719 4.390625 C 10.59375 4.390625 10.359375 4.628906 10.359375 4.921875 C 10.359375 5.214844 10.59375 5.453125 10.886719 5.453125 L 18.484375 5.453125 C 18.777344 5.453125 19.015625 5.214844 19.015625 4.921875 Z M 19.015625 4.921875 " fill-opacity="1" fill-rule="nonzero"/><path fill="#000000" d="M 10.886719 7.480469 L 14.6875 7.480469 C 14.976562 7.480469 15.214844 7.242188 15.214844 6.949219 C 15.214844 6.65625 14.976562 6.417969 14.6875 6.417969 L 10.886719 6.417969 C 10.59375 6.417969 10.359375 6.65625 10.359375 6.949219 C 10.359375 7.242188 10.59375 7.480469 10.886719 7.480469 Z M 10.886719 7.480469 " fill-opacity="1" fill-rule="nonzero"/><path fill="#000000" d="M 9.402344 11.1875 C 9.402344 10.894531 9.164062 10.65625 8.871094 10.65625 L 5.621094 10.65625 C 5.332031 10.65625 5.09375 10.894531 5.09375 11.1875 L 5.09375 14.460938 C 5.09375 14.753906 5.328125 14.992188 5.621094 14.992188 L 8.871094 14.992188 C 9.164062 14.992188 9.402344 14.753906 9.402344 14.460938 Z M 8.34375 13.929688 L 6.152344 13.929688 L 6.152344 11.722656 L 8.34375 11.722656 Z M 8.34375 13.929688 " fill-opacity="1" fill-rule="nonzero"/><path fill="#000000" d="M 15.082031 11.394531 L 10.886719 11.394531 C 10.59375 11.394531 10.359375 11.632812 10.359375 11.925781 C 10.359375 12.222656 10.59375 12.460938 10.886719 12.460938 L 15.082031 12.460938 C 15.375 12.460938 15.613281 12.222656 15.613281 11.925781 C 15.613281 11.632812 15.375 11.394531 15.082031 11.394531 Z M 15.082031 11.394531 " fill-opacity="1" fill-rule="nonzero"/><path fill="#000000" d="M 10.886719 14.488281 L 14.6875 14.488281 C 14.976562 14.488281 15.214844 14.25 15.214844 13.953125 C 15.214844 13.660156 14.976562 13.421875 14.6875 13.421875 L 10.886719 13.421875 C 10.59375 13.421875 10.359375 13.660156 10.359375 13.953125 C 10.359375 14.25 10.59375 14.488281 10.886719 14.488281 Z M 10.886719 14.488281 " fill-opacity="1" fill-rule="nonzero"/><path fill="#000000" d="M 8.871094 17.660156 L 5.621094 17.660156 C 5.332031 17.660156 5.09375 17.898438 5.09375 18.195312 L 5.09375 21.464844 C 5.09375 21.761719 5.328125 22 5.621094 22 L 8.871094 22 C 9.164062 22 9.402344 21.761719 9.402344 21.464844 L 9.402344 18.195312 C 9.402344 17.898438 9.164062 17.660156 8.871094 17.660156 Z M 8.34375 20.933594 L 6.152344 20.933594 L 6.152344 18.726562 L 8.34375 18.726562 Z M 8.34375 20.933594 " fill-opacity="1" fill-rule="nonzero"/><path fill="#000000" d="M 17.945312 18.933594 C 17.945312 18.636719 17.710938 18.398438 17.417969 18.398438 L 10.886719 18.398438 C 10.59375 18.398438 10.359375 18.636719 10.359375 18.933594 C 10.359375 19.226562 10.59375 19.464844 10.886719 19.464844 L 17.417969 19.464844 C 17.710938 19.464844 17.945312 19.226562 17.945312 18.933594 Z M 17.945312 18.933594 " fill-opacity="1" fill-rule="nonzero"/><path fill="#000000" d="M 10.640625 21.320312 C 10.347656 21.320312 10.109375 21.558594 10.109375 21.855469 C 10.109375 22.148438 10.347656 22.386719 10.640625 22.386719 L 14.4375 22.386719 C 14.730469 22.386719 14.96875 22.148438 14.96875 21.855469 C 14.96875 21.558594 14.730469 21.320312 14.4375 21.320312 Z M 10.640625 21.320312 " fill-opacity="1" fill-rule="nonzero"/><g clip-path="url(#5560ae6c19)"><path fill="#000000" d="M 27.84375 11.191406 C 27.53125 10.445312 27.078125 9.773438 26.507812 9.199219 C 25.933594 8.621094 25.269531 8.167969 24.527344 7.851562 C 23.757812 7.527344 22.941406 7.359375 22.101562 7.359375 C 21.257812 7.359375 20.441406 7.527344 19.671875 7.851562 C 18.929688 8.167969 18.265625 8.621094 17.691406 9.199219 C 17.121094 9.773438 16.671875 10.445312 16.355469 11.191406 C 16.03125 11.964844 15.867188 12.789062 15.867188 13.636719 C 15.867188 14.480469 16.03125 15.304688 16.355469 16.078125 C 16.671875 16.824219 17.121094 17.496094 17.691406 18.074219 C 18.265625 18.648438 18.929688 19.101562 19.671875 19.417969 C 20.023438 19.566406 20.382812 19.683594 20.753906 19.765625 L 20.753906 20.703125 C 20.355469 20.824219 20.0625 21.199219 20.0625 21.640625 L 20.0625 26.976562 C 20.0625 28.109375 20.976562 29.027344 22.101562 29.027344 C 23.222656 29.027344 24.136719 28.109375 24.136719 26.976562 L 24.136719 21.640625 C 24.136719 21.199219 23.847656 20.824219 23.449219 20.703125 L 23.449219 19.765625 C 23.816406 19.683594 24.175781 19.566406 24.527344 19.417969 C 25.269531 19.101562 25.933594 18.648438 26.507812 18.074219 C 27.082031 17.496094 27.53125 16.824219 27.84375 16.078125 C 28.167969 15.304688 28.332031 14.480469 28.332031 13.636719 C 28.332031 12.789062 28.167969 11.964844 27.84375 11.191406 Z M 22.390625 20.664062 L 21.808594 20.664062 L 21.808594 19.933594 L 22.078125 19.941406 C 22.09375 19.941406 22.105469 19.941406 22.121094 19.941406 L 22.390625 19.933594 Z M 23.082031 26.976562 C 23.082031 27.523438 22.640625 27.964844 22.101562 27.964844 C 21.558594 27.964844 21.121094 27.523438 21.121094 26.976562 L 21.121094 21.726562 L 23.082031 21.726562 Z M 25.761719 17.320312 C 24.78125 18.304688 23.484375 18.847656 22.101562 18.847656 C 20.71875 18.847656 19.417969 18.304688 18.441406 17.320312 C 17.460938 16.335938 16.925781 15.027344 16.925781 13.636719 C 16.925781 12.242188 17.460938 10.933594 18.441406 9.949219 C 19.417969 8.964844 20.71875 8.425781 22.101562 8.425781 C 23.484375 8.425781 24.78125 8.964844 25.761719 9.949219 C 26.738281 10.933594 27.277344 12.242188 27.277344 13.636719 C 27.277344 15.027344 26.738281 16.335938 25.761719 17.320312 Z M 25.761719 17.320312 " fill-opacity="1" fill-rule="nonzero"/></g><path fill="#000000" d="M 24.132812 11.726562 L 20.832031 15.050781 L 19.519531 13.726562 C 19.3125 13.519531 18.976562 13.519531 18.769531 13.726562 C 18.5625 13.933594 18.5625 14.273438 18.769531 14.480469 L 20.457031 16.179688 C 20.5625 16.28125 20.695312 16.335938 20.832031 16.335938 C 20.96875 16.335938 21.101562 16.28125 21.207031 16.179688 L 24.882812 12.480469 C 25.085938 12.269531 25.085938 11.933594 24.882812 11.726562 C 24.675781 11.519531 24.339844 11.519531 24.132812 11.726562 Z M 24.132812 11.726562 " fill-opacity="1" fill-rule="nonzero"/></svg>