<svg xmlns="http://www.w3.org/2000/svg" xmlns:xlink="http://www.w3.org/1999/xlink" width="260" zoomAndPan="magnify" viewBox="0 0 194.87999 166.499995" height="222" preserveAspectRatio="xMidYMid meet" version="1.0"><defs><g/><clipPath id="e7002f785b"><path d="M 0.230469 0 L 194.527344 0 L 194.527344 166 L 0.230469 166 Z M 0.230469 0 " clip-rule="nonzero"/></clipPath><clipPath id="20252751dd"><path d="M 18.542969 0 L 175.953125 0 C 180.914062 0 185.667969 1.96875 189.171875 5.476562 C 192.679688 8.980469 194.648438 13.734375 194.648438 18.695312 L 194.648438 147.308594 C 194.648438 152.265625 192.679688 157.019531 189.171875 160.527344 C 185.667969 164.03125 180.914062 166 175.953125 166 L 18.542969 166 C 13.585938 166 8.832031 164.03125 5.324219 160.527344 C 1.820312 157.019531 -0.148438 152.265625 -0.148438 147.308594 L -0.148438 18.695312 C -0.148438 13.734375 1.820312 8.980469 5.324219 5.476562 C 8.832031 1.96875 13.585938 0 18.542969 0 Z M 18.542969 0 " clip-rule="nonzero"/></clipPath><clipPath id="5fef3fdcf1"><path d="M 0.230469 0 L 194.527344 0 L 194.527344 166 L 0.230469 166 Z M 0.230469 0 " clip-rule="nonzero"/></clipPath><clipPath id="f9dd65e118"><path d="M 18.542969 0 L 175.953125 0 C 180.914062 0 185.667969 1.96875 189.171875 5.476562 C 192.679688 8.980469 194.648438 13.734375 194.648438 18.695312 L 194.648438 147.308594 C 194.648438 152.265625 192.679688 157.019531 189.171875 160.527344 C 185.667969 164.03125 180.914062 166 175.953125 166 L 18.542969 166 C 13.585938 166 8.832031 164.03125 5.324219 160.527344 C 1.820312 157.019531 -0.148438 152.265625 -0.148438 147.308594 L -0.148438 18.695312 C -0.148438 13.734375 1.820312 8.980469 5.324219 5.476562 C 8.832031 1.96875 13.585938 0 18.542969 0 Z M 18.542969 0 " clip-rule="nonzero"/></clipPath><clipPath id="3c4fc0fc41"><rect x="0" width="195" y="0" height="166"/></clipPath><clipPath id="aaeafa8c7e"><path d="M 16.058594 16.421875 L 40.421875 16.421875 L 40.421875 39.269531 L 16.058594 39.269531 Z M 16.058594 16.421875 " clip-rule="nonzero"/></clipPath><clipPath id="9721ecc708"><path d="M 20.546875 16.421875 L 35.886719 16.421875 C 38.367188 16.421875 40.375 18.433594 40.375 20.910156 L 40.375 34.78125 C 40.375 37.261719 38.367188 39.269531 35.886719 39.269531 L 20.546875 39.269531 C 18.070312 39.269531 16.058594 37.261719 16.058594 34.78125 L 16.058594 20.910156 C 16.058594 18.433594 18.070312 16.421875 20.546875 16.421875 Z M 20.546875 16.421875 " clip-rule="nonzero"/></clipPath><clipPath id="cb17688e76"><path d="M 0.0585938 0.421875 L 24.421875 0.421875 L 24.421875 23.269531 L 0.0585938 23.269531 Z M 0.0585938 0.421875 " clip-rule="nonzero"/></clipPath><clipPath id="5767c9f2f4"><path d="M 4.546875 0.421875 L 19.886719 0.421875 C 22.367188 0.421875 24.375 2.433594 24.375 4.910156 L 24.375 18.78125 C 24.375 21.261719 22.367188 23.269531 19.886719 23.269531 L 4.546875 23.269531 C 2.070312 23.269531 0.0585938 21.261719 0.0585938 18.78125 L 0.0585938 4.910156 C 0.0585938 2.433594 2.070312 0.421875 4.546875 0.421875 Z M 4.546875 0.421875 " clip-rule="nonzero"/></clipPath><clipPath id="48094e0dc0"><rect x="0" width="25" y="0" height="24"/></clipPath><clipPath id="95228728d7"><path d="M 21.0625 19.40625 L 36.765625 19.40625 L 36.765625 36.605469 L 21.0625 36.605469 Z M 21.0625 19.40625 " clip-rule="nonzero"/></clipPath><clipPath id="50efde5004"><path d="M 8 0.761719 L 13.785156 0.761719 L 13.785156 5.089844 L 8 5.089844 Z M 8 0.761719 " clip-rule="nonzero"/></clipPath><clipPath id="b4017ead1d"><path d="M 0.792969 4 L 13.785156 4 L 13.785156 5.089844 L 0.792969 5.089844 Z M 0.792969 4 " clip-rule="nonzero"/></clipPath><clipPath id="0a4dde1e99"><path d="M 0.515625 6.332031 L 6 6.332031 L 6 10.664062 L 0.515625 10.664062 Z M 0.515625 6.332031 " clip-rule="nonzero"/></clipPath><clipPath id="5ac1c8b391"><path d="M 0.515625 6.332031 L 13.507812 6.332031 L 13.507812 8 L 0.515625 8 Z M 0.515625 6.332031 " clip-rule="nonzero"/></clipPath><clipPath id="1d03f35e53"><rect x="0" width="14" y="0" height="11"/></clipPath><clipPath id="8d8a984422"><path d="M 111.503906 98 L 167 98 L 167 115.539062 L 111.503906 115.539062 Z M 111.503906 98 " clip-rule="nonzero"/></clipPath><clipPath id="bc7c2d6ab4"><path d="M 111.503906 79 L 167 79 L 167 96 L 111.503906 96 Z M 111.503906 79 " clip-rule="nonzero"/></clipPath><clipPath id="3b40b183cf"><path d="M 111.503906 60 L 142 60 L 142 77 L 111.503906 77 Z M 111.503906 60 " clip-rule="nonzero"/></clipPath><clipPath id="eb67c850d8"><path d="M 141 49 L 178.054688 49 L 178.054688 86 L 141 86 Z M 141 49 " clip-rule="nonzero"/></clipPath><clipPath id="fa2483c6ad"><path d="M 0.0234375 2 L 7 2 L 7 10 L 0.0234375 10 Z M 0.0234375 2 " clip-rule="nonzero"/></clipPath><clipPath id="8c1360b852"><rect x="0" width="22" y="0" height="13"/></clipPath><clipPath id="a4c358d790"><path d="M 0.0078125 2 L 7 2 L 7 10 L 0.0078125 10 Z M 0.0078125 2 " clip-rule="nonzero"/></clipPath><clipPath id="579a4015c2"><rect x="0" width="23" y="0" height="13"/></clipPath><clipPath id="440d17799e"><path d="M 0.0234375 3 L 9 3 L 9 14 L 0.0234375 14 Z M 0.0234375 3 " clip-rule="nonzero"/></clipPath><clipPath id="69216d0894"><rect x="0" width="74" y="0" height="19"/></clipPath><clipPath id="759b7765a3"><path d="M 0.0234375 2 L 5 2 L 5 8 L 0.0234375 8 Z M 0.0234375 2 " clip-rule="nonzero"/></clipPath><clipPath id="9d14f9b8a0"><rect x="0" width="68" y="0" height="10"/></clipPath></defs><g clip-path="url(#e7002f785b)"><g clip-path="url(#20252751dd)"><g transform="matrix(1, 0, 0, 1, 0.000000000000000028, 0)"><g clip-path="url(#3c4fc0fc41)"><g clip-path="url(#5fef3fdcf1)"><g clip-path="url(#f9dd65e118)"><path fill="#181e25" d="M -0.148438 0 L 194.382812 0 L 194.382812 166 L -0.148438 166 Z M -0.148438 0 " fill-opacity="1" fill-rule="nonzero"/></g></g></g></g></g></g><g clip-path="url(#aaeafa8c7e)"><g clip-path="url(#9721ecc708)"><g transform="matrix(1, 0, 0, 1, 16, 16)"><g clip-path="url(#48094e0dc0)"><g clip-path="url(#cb17688e76)"><g clip-path="url(#5767c9f2f4)"><path fill="#fcec55" d="M 0.0585938 0.421875 L 24.332031 0.421875 L 24.332031 23.269531 L 0.0585938 23.269531 Z M 0.0585938 0.421875 " fill-opacity="1" fill-rule="nonzero"/></g></g></g></g></g></g><g clip-path="url(#95228728d7)"><path fill="#000000" d="M 28.898438 32.007812 C 29.019531 32.117188 29.082031 32.253906 29.09375 32.417969 C 29.101562 32.582031 29.054688 32.722656 28.945312 32.847656 L 26.71875 35.410156 C 26.148438 36.066406 25.4375 36.417969 24.582031 36.46875 C 24.519531 36.472656 24.457031 36.472656 24.394531 36.472656 C 23.78125 36.472656 23.222656 36.304688 22.710938 35.964844 C 22.199219 35.625 21.816406 35.171875 21.566406 34.605469 C 21.316406 34.035156 21.238281 33.445312 21.332031 32.828125 C 21.425781 32.214844 21.671875 31.671875 22.078125 31.207031 L 25.980469 26.722656 C 26.253906 26.410156 26.574219 26.160156 26.945312 25.976562 C 27.3125 25.792969 27.703125 25.6875 28.113281 25.664062 C 28.523438 25.640625 28.925781 25.695312 29.3125 25.832031 C 29.703125 25.96875 30.050781 26.175781 30.359375 26.457031 C 30.476562 26.566406 30.542969 26.699219 30.554688 26.863281 C 30.5625 27.027344 30.515625 27.171875 30.40625 27.292969 C 30.300781 27.417969 30.167969 27.484375 30.007812 27.492188 C 29.847656 27.503906 29.707031 27.453125 29.585938 27.347656 C 29.394531 27.171875 29.175781 27.042969 28.933594 26.957031 C 28.691406 26.871094 28.441406 26.835938 28.183594 26.851562 C 27.929688 26.867188 27.683594 26.933594 27.453125 27.046875 C 27.222656 27.160156 27.023438 27.316406 26.851562 27.511719 L 22.949219 31.996094 C 22.777344 32.195312 22.648438 32.414062 22.566406 32.664062 C 22.480469 32.910156 22.449219 33.164062 22.464844 33.425781 C 22.476562 33.6875 22.542969 33.9375 22.65625 34.171875 C 22.765625 34.410156 22.917969 34.613281 23.113281 34.789062 C 23.304688 34.960938 23.519531 35.09375 23.765625 35.179688 C 24.007812 35.261719 24.257812 35.296875 24.511719 35.28125 C 24.769531 35.265625 25.011719 35.203125 25.246094 35.085938 C 25.476562 34.972656 25.675781 34.816406 25.847656 34.621094 L 28.078125 32.058594 C 28.183594 31.933594 28.316406 31.871094 28.476562 31.859375 C 28.636719 31.851562 28.777344 31.898438 28.898438 32.007812 Z M 35.375 20.6875 C 35.066406 20.410156 34.71875 20.203125 34.332031 20.066406 C 33.941406 19.929688 33.542969 19.871094 33.132812 19.898438 C 32.722656 19.921875 32.332031 20.027344 31.960938 20.210938 C 31.589844 20.394531 31.269531 20.640625 30.996094 20.957031 L 28.765625 23.519531 C 28.660156 23.640625 28.613281 23.785156 28.621094 23.949219 C 28.632812 24.113281 28.695312 24.25 28.816406 24.359375 C 28.9375 24.464844 29.078125 24.515625 29.238281 24.507812 C 29.398438 24.496094 29.53125 24.429688 29.640625 24.308594 L 31.867188 21.742188 C 32.035156 21.539062 32.238281 21.375 32.46875 21.253906 C 32.703125 21.132812 32.949219 21.0625 33.210938 21.042969 C 33.472656 21.023438 33.726562 21.054688 33.976562 21.140625 C 34.222656 21.226562 34.445312 21.359375 34.640625 21.535156 C 34.835938 21.710938 34.992188 21.921875 35.101562 22.164062 C 35.214844 22.402344 35.277344 22.65625 35.289062 22.925781 C 35.300781 23.191406 35.261719 23.449219 35.171875 23.699219 C 35.082031 23.949219 34.945312 24.171875 34.765625 24.367188 L 30.863281 28.851562 C 30.695312 29.050781 30.492188 29.203125 30.261719 29.320312 C 30.03125 29.433594 29.789062 29.5 29.53125 29.515625 C 29.273438 29.53125 29.023438 29.496094 28.78125 29.410156 C 28.539062 29.324219 28.324219 29.195312 28.128906 29.019531 C 28.011719 28.910156 27.871094 28.863281 27.707031 28.871094 C 27.546875 28.882812 27.414062 28.949219 27.308594 29.070312 C 27.199219 29.195312 27.152344 29.335938 27.164062 29.5 C 27.171875 29.664062 27.238281 29.800781 27.359375 29.910156 C 27.945312 30.441406 28.628906 30.707031 29.414062 30.707031 C 29.476562 30.707031 29.539062 30.707031 29.601562 30.703125 C 30.457031 30.652344 31.167969 30.300781 31.734375 29.644531 L 35.636719 25.15625 C 35.910156 24.84375 36.113281 24.488281 36.246094 24.089844 C 36.378906 23.695312 36.433594 23.285156 36.410156 22.867188 C 36.386719 22.449219 36.285156 22.050781 36.105469 21.671875 C 35.925781 21.296875 35.683594 20.96875 35.375 20.6875 Z M 35.375 20.6875 " fill-opacity="1" fill-rule="nonzero"/></g><g transform="matrix(1, 0, 0, 1, 42, 63)"><g clip-path="url(#1d03f35e53)"><g clip-path="url(#50efde5004)"><path fill="#ffffff" d="M 8.933594 7.96875 C 8.933594 7.847656 8.976562 7.730469 9.082031 7.65625 L 12.675781 4.609375 L 9.082031 1.5625 C 8.902344 1.414062 8.886719 1.148438 9.035156 0.984375 C 9.183594 0.808594 9.449219 0.792969 9.628906 0.941406 L 13.59375 4.300781 C 13.785156 4.460938 13.785156 4.773438 13.59375 4.933594 L 9.628906 8.292969 C 9.449219 8.441406 9.183594 8.425781 9.035156 8.25 C 8.960938 8.160156 8.933594 8.054688 8.933594 7.96875 Z M 8.933594 7.96875 " fill-opacity="1" fill-rule="nonzero"/></g><g clip-path="url(#b4017ead1d)"><path fill="#ffffff" d="M 0.429688 4.609375 C 0.429688 4.386719 0.621094 4.195312 0.84375 4.195312 L 13.324219 4.195312 C 13.546875 4.195312 13.738281 4.386719 13.738281 4.609375 C 13.738281 4.832031 13.546875 5.023438 13.324219 5.023438 L 0.84375 5.023438 C 0.621094 5.023438 0.429688 4.832031 0.429688 4.609375 Z M 0.429688 4.609375 " fill-opacity="1" fill-rule="nonzero"/></g><g clip-path="url(#0a4dde1e99)"><path fill="#ffffff" d="M 5.367188 3.457031 C 5.367188 3.574219 5.324219 3.691406 5.21875 3.765625 L 1.625 6.8125 L 5.21875 9.859375 C 5.394531 10.007812 5.410156 10.273438 5.261719 10.4375 C 5.117188 10.613281 4.847656 10.628906 4.671875 10.480469 L 0.707031 7.125 C 0.515625 6.960938 0.515625 6.648438 0.707031 6.488281 L 4.671875 3.128906 C 4.847656 2.980469 5.117188 2.996094 5.261719 3.175781 C 5.335938 3.261719 5.367188 3.367188 5.367188 3.457031 Z M 5.367188 3.457031 " fill-opacity="1" fill-rule="nonzero"/></g><g clip-path="url(#5ac1c8b391)"><path fill="#ffffff" d="M 13.871094 6.8125 C 13.871094 7.035156 13.679688 7.226562 13.457031 7.226562 L 0.972656 7.226562 C 0.75 7.226562 0.558594 7.035156 0.558594 6.8125 C 0.558594 6.589844 0.75 6.398438 0.972656 6.398438 L 13.457031 6.398438 C 13.679688 6.398438 13.871094 6.589844 13.871094 6.8125 Z M 13.871094 6.8125 " fill-opacity="1" fill-rule="nonzero"/></g></g></g><g clip-path="url(#8d8a984422)"><path fill="#fcec55" d="M 164.007812 98.875 L 114.164062 98.875 C 112.695312 98.875 111.503906 100.066406 111.503906 101.539062 L 111.503906 114.84375 C 111.503906 115.136719 111.742188 115.378906 112.039062 115.378906 L 166.132812 115.378906 C 166.429688 115.378906 166.667969 115.136719 166.667969 114.84375 L 166.667969 101.539062 C 166.667969 100.066406 165.476562 98.875 164.007812 98.875 Z M 119.195312 109.824219 C 117.691406 109.824219 116.472656 108.605469 116.472656 107.101562 C 116.472656 105.59375 117.691406 104.375 119.195312 104.375 C 120.699219 104.375 121.917969 105.597656 121.917969 107.101562 C 121.917969 108.605469 120.699219 109.824219 119.195312 109.824219 Z M 127.097656 109.824219 C 125.59375 109.824219 124.375 108.605469 124.375 107.101562 C 124.375 105.59375 125.59375 104.375 127.097656 104.375 C 128.601562 104.375 129.820312 105.597656 129.820312 107.101562 C 129.820312 108.605469 128.601562 109.824219 127.097656 109.824219 Z M 163.039062 112.492188 L 143.597656 112.492188 C 143.304688 112.492188 143.066406 112.253906 143.066406 111.960938 L 143.066406 103.203125 C 143.066406 102.90625 143.304688 102.667969 143.597656 102.667969 L 163.039062 102.667969 C 163.332031 102.667969 163.570312 102.90625 163.570312 103.203125 L 163.570312 111.960938 C 163.570312 112.253906 163.332031 112.492188 163.039062 112.492188 Z M 163.039062 112.492188 " fill-opacity="1" fill-rule="nonzero"/></g><g clip-path="url(#bc7c2d6ab4)"><path fill="#fcec55" d="M 163.570312 87.148438 L 163.570312 92.519531 C 163.570312 92.816406 163.332031 93.054688 163.039062 93.054688 L 143.597656 93.054688 C 143.304688 93.054688 143.066406 92.816406 143.066406 92.519531 L 143.066406 83.761719 C 143.066406 83.46875 143.304688 83.230469 143.597656 83.230469 L 147.339844 83.230469 C 146.6875 82.71875 146.0625 82.167969 145.46875 81.574219 C 144.796875 80.902344 144.175781 80.1875 143.609375 79.4375 L 114.164062 79.4375 C 112.695312 79.4375 111.503906 80.628906 111.503906 82.097656 L 111.503906 95.40625 C 111.503906 95.699219 111.742188 95.9375 112.039062 95.9375 L 166.132812 95.9375 C 166.429688 95.9375 166.667969 95.699219 166.667969 95.40625 L 166.667969 86.296875 C 165.65625 86.664062 164.625 86.949219 163.570312 87.148438 Z M 119.195312 90.386719 C 117.691406 90.386719 116.472656 89.164062 116.472656 87.660156 C 116.472656 86.15625 117.691406 84.9375 119.195312 84.9375 C 120.699219 84.9375 121.917969 86.15625 121.917969 87.660156 C 121.917969 89.164062 120.699219 90.386719 119.195312 90.386719 Z M 127.097656 90.386719 C 125.59375 90.386719 124.375 89.164062 124.375 87.660156 C 124.375 86.15625 125.59375 84.9375 127.097656 84.9375 C 128.601562 84.9375 129.820312 86.15625 129.820312 87.660156 C 129.820312 89.164062 128.601562 90.386719 127.097656 90.386719 Z M 127.097656 90.386719 " fill-opacity="1" fill-rule="nonzero"/></g><g clip-path="url(#3b40b183cf)"><path fill="#fcec55" d="M 141.132812 75.140625 C 140.074219 72.644531 139.539062 69.992188 139.539062 67.261719 C 139.539062 64.753906 139.992188 62.3125 140.882812 60 L 114.164062 60 C 112.695312 60 111.503906 61.191406 111.503906 62.660156 L 111.503906 75.964844 C 111.503906 76.261719 111.742188 76.5 112.039062 76.5 L 141.765625 76.5 C 141.539062 76.054688 141.328125 75.601562 141.132812 75.140625 Z M 119.195312 70.945312 C 117.691406 70.945312 116.472656 69.726562 116.472656 68.222656 C 116.472656 66.71875 117.691406 65.5 119.195312 65.5 C 120.699219 65.5 121.917969 66.71875 121.917969 68.222656 C 121.917969 69.726562 120.699219 70.945312 119.195312 70.945312 Z M 127.097656 70.945312 C 125.59375 70.945312 124.375 69.726562 124.375 68.222656 C 124.375 66.71875 125.59375 65.5 127.097656 65.5 C 128.601562 65.5 129.820312 66.71875 129.820312 68.222656 C 129.820312 69.726562 128.601562 70.945312 127.097656 70.945312 Z M 127.097656 70.945312 " fill-opacity="1" fill-rule="nonzero"/></g><g clip-path="url(#eb67c850d8)"><path fill="#fcec55" d="M 159.78125 49 C 149.691406 49 141.515625 57.175781 141.515625 67.261719 C 141.515625 77.347656 149.691406 85.523438 159.78125 85.523438 C 169.867188 85.523438 178.042969 77.347656 178.042969 67.261719 C 178.042969 57.175781 169.867188 49 159.78125 49 Z M 153.878906 78.824219 L 150.675781 78.824219 L 150.675781 73.003906 L 153.878906 73.003906 Z M 159.21875 78.824219 L 156.015625 78.824219 L 156.015625 67.769531 L 159.21875 67.769531 Z M 164.558594 78.824219 L 161.355469 78.824219 L 161.355469 70.492188 L 164.558594 70.492188 Z M 169.898438 78.824219 L 166.695312 78.824219 L 166.695312 65.472656 L 169.898438 65.472656 Z M 168.992188 62.085938 L 167.558594 60.652344 L 162.210938 66 L 157.429688 61.21875 L 150.191406 68.460938 C 149.992188 68.65625 149.734375 68.757812 149.472656 68.757812 C 149.214844 68.757812 148.953125 68.65625 148.757812 68.460938 C 148.359375 68.0625 148.359375 67.421875 148.757812 67.023438 L 157.429688 58.351562 L 162.210938 63.128906 L 166.125 59.214844 L 164.6875 57.78125 L 170.570312 56.207031 Z M 168.992188 62.085938 " fill-opacity="1" fill-rule="nonzero"/></g><g transform="matrix(1, 0, 0, 1, 16, 62)"><g clip-path="url(#8c1360b852)"><g clip-path="url(#fa2483c6ad)"><g fill="#d9d9d9" fill-opacity="1"><g transform="translate(0.0600846, 9.51424)"><g><path d="M 6.3125 -2.09375 C 6.113281 -1.351562 5.773438 -0.800781 5.296875 -0.4375 C 4.816406 -0.0703125 4.242188 0.109375 3.578125 0.109375 C 2.492188 0.109375 1.703125 -0.226562 1.203125 -0.90625 C 0.710938 -1.582031 0.46875 -2.394531 0.46875 -3.34375 C 0.46875 -4.40625 0.757812 -5.234375 1.34375 -5.828125 C 1.925781 -6.421875 2.671875 -6.71875 3.578125 -6.71875 C 4.222656 -6.71875 4.773438 -6.550781 5.234375 -6.21875 C 5.691406 -5.894531 6.015625 -5.421875 6.203125 -4.796875 L 5.34375 -4.59375 C 5.195312 -5.050781 4.972656 -5.394531 4.671875 -5.625 C 4.378906 -5.851562 4.015625 -5.96875 3.578125 -5.96875 C 2.859375 -5.96875 2.3125 -5.726562 1.9375 -5.25 C 1.5625 -4.78125 1.375 -4.148438 1.375 -3.359375 C 1.375 -2.441406 1.566406 -1.757812 1.953125 -1.3125 C 2.347656 -0.863281 2.863281 -0.640625 3.5 -0.640625 C 4.019531 -0.640625 4.441406 -0.773438 4.765625 -1.046875 C 5.085938 -1.328125 5.3125 -1.75 5.4375 -2.3125 Z M 6.3125 -2.09375 "/></g></g></g></g><g fill="#d9d9d9" fill-opacity="1"><g transform="translate(7.008783, 9.51424)"><g><path d="M 6.984375 0 L 6.15625 0 L 6.15625 -5.53125 L 6.140625 -5.53125 L 4.234375 0 L 3.453125 0 L 1.5625 -5.625 L 1.53125 -5.625 L 1.53125 0 L 0.703125 0 L 0.703125 -6.609375 L 2.015625 -6.609375 L 3.578125 -1.9375 C 3.753906 -1.414062 3.851562 -1.085938 3.875 -0.953125 L 3.890625 -0.953125 C 3.972656 -1.203125 4.09375 -1.554688 4.25 -2.015625 L 5.828125 -6.609375 L 6.984375 -6.609375 Z M 6.984375 0 "/></g></g></g><g fill="#d9d9d9" fill-opacity="1"><g transform="translate(14.981447, 9.51424)"><g><path d="M 0.71875 -6.609375 L 3.203125 -6.609375 C 3.597656 -6.609375 3.9375 -6.585938 4.21875 -6.546875 C 4.507812 -6.515625 4.773438 -6.414062 5.015625 -6.25 C 5.253906 -6.082031 5.4375 -5.859375 5.5625 -5.578125 C 5.6875 -5.296875 5.75 -5.003906 5.75 -4.703125 C 5.75 -4.085938 5.550781 -3.59375 5.15625 -3.21875 C 4.769531 -2.851562 4.144531 -2.671875 3.28125 -2.671875 L 1.59375 -2.671875 L 1.59375 0 L 0.71875 0 Z M 1.59375 -3.46875 L 3.28125 -3.46875 C 4.320312 -3.46875 4.84375 -3.867188 4.84375 -4.671875 C 4.84375 -4.929688 4.773438 -5.160156 4.640625 -5.359375 C 4.503906 -5.566406 4.335938 -5.695312 4.140625 -5.75 C 3.941406 -5.800781 3.648438 -5.828125 3.265625 -5.828125 L 1.59375 -5.828125 Z M 1.59375 -3.46875 "/></g></g></g></g></g><g transform="matrix(1, 0, 0, 1, 61, 62)"><g clip-path="url(#579a4015c2)"><g clip-path="url(#a4c358d790)"><g fill="#d9d9d9" fill-opacity="1"><g transform="translate(0.0250363, 9.51424)"><g><path d="M 6.3125 -2.09375 C 6.113281 -1.351562 5.773438 -0.800781 5.296875 -0.4375 C 4.816406 -0.0703125 4.242188 0.109375 3.578125 0.109375 C 2.492188 0.109375 1.703125 -0.226562 1.203125 -0.90625 C 0.710938 -1.582031 0.46875 -2.394531 0.46875 -3.34375 C 0.46875 -4.40625 0.757812 -5.234375 1.34375 -5.828125 C 1.925781 -6.421875 2.671875 -6.71875 3.578125 -6.71875 C 4.222656 -6.71875 4.773438 -6.550781 5.234375 -6.21875 C 5.691406 -5.894531 6.015625 -5.421875 6.203125 -4.796875 L 5.34375 -4.59375 C 5.195312 -5.050781 4.972656 -5.394531 4.671875 -5.625 C 4.378906 -5.851562 4.015625 -5.96875 3.578125 -5.96875 C 2.859375 -5.96875 2.3125 -5.726562 1.9375 -5.25 C 1.5625 -4.78125 1.375 -4.148438 1.375 -3.359375 C 1.375 -2.441406 1.566406 -1.757812 1.953125 -1.3125 C 2.347656 -0.863281 2.863281 -0.640625 3.5 -0.640625 C 4.019531 -0.640625 4.441406 -0.773438 4.765625 -1.046875 C 5.085938 -1.328125 5.3125 -1.75 5.4375 -2.3125 Z M 6.3125 -2.09375 "/></g></g></g></g><g fill="#d9d9d9" fill-opacity="1"><g transform="translate(6.973735, 9.51424)"><g><path d="M 6.5625 0 L 5.46875 0 C 4.8125 -1.039062 4.398438 -1.675781 4.234375 -1.90625 C 4.078125 -2.144531 3.910156 -2.347656 3.734375 -2.515625 C 3.554688 -2.691406 3.390625 -2.800781 3.234375 -2.84375 C 3.078125 -2.894531 2.875 -2.921875 2.625 -2.921875 L 1.609375 -2.921875 L 1.609375 0 L 0.734375 0 L 0.734375 -6.609375 L 3.671875 -6.609375 C 4.066406 -6.609375 4.398438 -6.582031 4.671875 -6.53125 C 4.941406 -6.476562 5.175781 -6.367188 5.375 -6.203125 C 5.582031 -6.046875 5.738281 -5.84375 5.84375 -5.59375 C 5.957031 -5.34375 6.015625 -5.078125 6.015625 -4.796875 C 6.015625 -4.296875 5.859375 -3.894531 5.546875 -3.59375 C 5.234375 -3.289062 4.773438 -3.097656 4.171875 -3.015625 L 4.171875 -3 C 4.609375 -2.800781 5.019531 -2.398438 5.40625 -1.796875 Z M 1.609375 -3.703125 L 3.484375 -3.703125 C 3.867188 -3.703125 4.171875 -3.734375 4.390625 -3.796875 C 4.609375 -3.859375 4.785156 -3.984375 4.921875 -4.171875 C 5.054688 -4.359375 5.125 -4.566406 5.125 -4.796875 C 5.125 -5.097656 5.007812 -5.351562 4.78125 -5.5625 C 4.5625 -5.78125 4.203125 -5.890625 3.703125 -5.890625 L 1.609375 -5.890625 Z M 1.609375 -3.703125 "/></g></g></g><g fill="#d9d9d9" fill-opacity="1"><g transform="translate(13.922433, 9.51424)"><g><path d="M 6.984375 0 L 6.15625 0 L 6.15625 -5.53125 L 6.140625 -5.53125 L 4.234375 0 L 3.453125 0 L 1.5625 -5.625 L 1.53125 -5.625 L 1.53125 0 L 0.703125 0 L 0.703125 -6.609375 L 2.015625 -6.609375 L 3.578125 -1.9375 C 3.753906 -1.414062 3.851562 -1.085938 3.875 -0.953125 L 3.890625 -0.953125 C 3.972656 -1.203125 4.09375 -1.554688 4.25 -2.015625 L 5.828125 -6.609375 L 6.984375 -6.609375 Z M 6.984375 0 "/></g></g></g></g></g><g transform="matrix(1, 0, 0, 1, 16, 82)"><g clip-path="url(#69216d0894)"><g clip-path="url(#440d17799e)"><g fill="#ffffff" fill-opacity="1"><g transform="translate(0.0600846, 13.478696)"><g><path d="M 7.046875 -3.5 L 8.90625 -2.90625 C 8.351562 -0.863281 7.039062 0.15625 4.96875 0.15625 C 3.695312 0.15625 2.65625 -0.273438 1.84375 -1.140625 C 1.03125 -2.003906 0.625 -3.179688 0.625 -4.671875 C 0.625 -6.242188 1.03125 -7.46875 1.84375 -8.34375 C 2.664062 -9.226562 3.742188 -9.671875 5.078125 -9.671875 C 6.242188 -9.671875 7.191406 -9.320312 7.921875 -8.625 C 8.347656 -8.21875 8.671875 -7.640625 8.890625 -6.890625 L 6.984375 -6.421875 C 6.867188 -6.921875 6.632812 -7.3125 6.28125 -7.59375 C 5.925781 -7.875 5.492188 -8.015625 4.984375 -8.015625 C 4.273438 -8.015625 3.695312 -7.765625 3.25 -7.265625 C 2.8125 -6.765625 2.59375 -5.945312 2.59375 -4.8125 C 2.59375 -3.613281 2.8125 -2.753906 3.25 -2.234375 C 3.6875 -1.722656 4.25 -1.46875 4.9375 -1.46875 C 5.457031 -1.46875 5.898438 -1.628906 6.265625 -1.953125 C 6.628906 -2.285156 6.890625 -2.800781 7.046875 -3.5 Z M 7.046875 -3.5 "/></g></g></g></g><g fill="#ffffff" fill-opacity="1"><g transform="translate(10.045566, 13.478696)"><g><path d="M 0.53125 -3.546875 C 0.53125 -4.148438 0.675781 -4.734375 0.96875 -5.296875 C 1.269531 -5.859375 1.691406 -6.285156 2.234375 -6.578125 C 2.785156 -6.878906 3.398438 -7.03125 4.078125 -7.03125 C 5.117188 -7.03125 5.972656 -6.691406 6.640625 -6.015625 C 7.304688 -5.335938 7.640625 -4.488281 7.640625 -3.46875 C 7.640625 -2.425781 7.300781 -1.5625 6.625 -0.875 C 5.945312 -0.1875 5.101562 0.15625 4.09375 0.15625 C 3.457031 0.15625 2.851562 0.015625 2.28125 -0.265625 C 1.707031 -0.554688 1.269531 -0.972656 0.96875 -1.515625 C 0.675781 -2.066406 0.53125 -2.742188 0.53125 -3.546875 Z M 2.40625 -3.4375 C 2.40625 -2.757812 2.566406 -2.238281 2.890625 -1.875 C 3.210938 -1.507812 3.613281 -1.328125 4.09375 -1.328125 C 4.5625 -1.328125 4.957031 -1.507812 5.28125 -1.875 C 5.601562 -2.238281 5.765625 -2.765625 5.765625 -3.453125 C 5.765625 -4.128906 5.601562 -4.644531 5.28125 -5 C 4.957031 -5.363281 4.5625 -5.546875 4.09375 -5.546875 C 3.613281 -5.546875 3.210938 -5.363281 2.890625 -5 C 2.566406 -4.644531 2.40625 -4.125 2.40625 -3.4375 Z M 2.40625 -3.4375 "/></g></g></g><g fill="#ffffff" fill-opacity="1"><g transform="translate(18.55312, 13.478696)"><g><path d="M 7.21875 0 L 5.390625 0 L 5.390625 -3.515625 C 5.390625 -4.265625 5.351562 -4.742188 5.28125 -4.953125 C 5.207031 -5.171875 5.082031 -5.335938 4.90625 -5.453125 C 4.726562 -5.578125 4.515625 -5.640625 4.265625 -5.640625 C 3.953125 -5.640625 3.671875 -5.550781 3.421875 -5.375 C 3.171875 -5.207031 3 -4.984375 2.90625 -4.703125 C 2.8125 -4.421875 2.765625 -3.894531 2.765625 -3.125 L 2.765625 0 L 0.9375 0 L 0.9375 -6.890625 L 2.640625 -6.890625 L 2.640625 -5.875 C 3.234375 -6.644531 3.988281 -7.03125 4.90625 -7.03125 C 5.3125 -7.03125 5.679688 -6.957031 6.015625 -6.8125 C 6.347656 -6.675781 6.597656 -6.492188 6.765625 -6.265625 C 6.929688 -6.046875 7.046875 -5.789062 7.109375 -5.5 C 7.179688 -5.21875 7.21875 -4.8125 7.21875 -4.28125 Z M 7.21875 0 "/></g></g></g><g fill="#ffffff" fill-opacity="1"><g transform="translate(27.060674, 13.478696)"><g><path d="M 7.21875 0 L 5.390625 0 L 5.390625 -3.515625 C 5.390625 -4.265625 5.351562 -4.742188 5.28125 -4.953125 C 5.207031 -5.171875 5.082031 -5.335938 4.90625 -5.453125 C 4.726562 -5.578125 4.515625 -5.640625 4.265625 -5.640625 C 3.953125 -5.640625 3.671875 -5.550781 3.421875 -5.375 C 3.171875 -5.207031 3 -4.984375 2.90625 -4.703125 C 2.8125 -4.421875 2.765625 -3.894531 2.765625 -3.125 L 2.765625 0 L 0.9375 0 L 0.9375 -6.890625 L 2.640625 -6.890625 L 2.640625 -5.875 C 3.234375 -6.644531 3.988281 -7.03125 4.90625 -7.03125 C 5.3125 -7.03125 5.679688 -6.957031 6.015625 -6.8125 C 6.347656 -6.675781 6.597656 -6.492188 6.765625 -6.265625 C 6.929688 -6.046875 7.046875 -5.789062 7.109375 -5.5 C 7.179688 -5.21875 7.21875 -4.8125 7.21875 -4.28125 Z M 7.21875 0 "/></g></g></g><g fill="#ffffff" fill-opacity="1"><g transform="translate(35.568228, 13.478696)"><g><path d="M 4.9375 -2.1875 L 6.75 -1.890625 C 6.269531 -0.523438 5.273438 0.15625 3.765625 0.15625 C 2.679688 0.15625 1.851562 -0.160156 1.28125 -0.796875 C 0.707031 -1.429688 0.421875 -2.296875 0.421875 -3.390625 C 0.421875 -4.523438 0.71875 -5.414062 1.3125 -6.0625 C 1.914062 -6.707031 2.675781 -7.03125 3.59375 -7.03125 C 4.601562 -7.03125 5.398438 -6.695312 5.984375 -6.03125 C 6.566406 -5.375 6.859375 -4.394531 6.859375 -3.09375 L 6.859375 -2.921875 L 2.28125 -2.921875 C 2.300781 -2.378906 2.445312 -1.957031 2.71875 -1.65625 C 3 -1.351562 3.351562 -1.203125 3.78125 -1.203125 C 4.363281 -1.203125 4.75 -1.53125 4.9375 -2.1875 Z M 5.046875 -4.046875 C 5.023438 -4.554688 4.882812 -4.945312 4.625 -5.21875 C 4.375 -5.5 4.0625 -5.640625 3.6875 -5.640625 C 3.289062 -5.640625 2.960938 -5.492188 2.703125 -5.203125 C 2.453125 -4.921875 2.328125 -4.546875 2.328125 -4.078125 L 2.328125 -4.046875 Z M 5.046875 -4.046875 "/></g></g></g><g fill="#ffffff" fill-opacity="1"><g transform="translate(43.349782, 13.478696)"><g><path d="M 6.953125 -4.84375 L 5.171875 -4.53125 C 5.109375 -4.882812 4.96875 -5.148438 4.75 -5.328125 C 4.53125 -5.515625 4.253906 -5.609375 3.921875 -5.609375 C 3.472656 -5.609375 3.113281 -5.453125 2.84375 -5.140625 C 2.570312 -4.828125 2.4375 -4.304688 2.4375 -3.578125 C 2.4375 -2.742188 2.570312 -2.160156 2.84375 -1.828125 C 3.113281 -1.492188 3.476562 -1.328125 3.9375 -1.328125 C 4.289062 -1.328125 4.578125 -1.425781 4.796875 -1.625 C 5.015625 -1.820312 5.171875 -2.160156 5.265625 -2.640625 L 7.046875 -2.328125 C 6.671875 -0.671875 5.609375 0.15625 3.859375 0.15625 C 2.847656 0.15625 2.046875 -0.160156 1.453125 -0.796875 C 0.859375 -1.429688 0.5625 -2.3125 0.5625 -3.4375 C 0.5625 -4.570312 0.859375 -5.453125 1.453125 -6.078125 C 2.046875 -6.710938 2.859375 -7.03125 3.890625 -7.03125 C 4.734375 -7.03125 5.398438 -6.851562 5.890625 -6.5 C 6.390625 -6.144531 6.742188 -5.59375 6.953125 -4.84375 Z M 6.953125 -4.84375 "/></g></g></g><g fill="#ffffff" fill-opacity="1"><g transform="translate(51.131336, 13.478696)"><g><path d="M 4.125 -6.890625 L 4.125 -5.4375 L 2.859375 -5.4375 L 2.859375 -2.65625 C 2.859375 -2.101562 2.867188 -1.78125 2.890625 -1.6875 C 2.921875 -1.59375 2.976562 -1.515625 3.0625 -1.453125 C 3.144531 -1.390625 3.25 -1.359375 3.375 -1.359375 C 3.539062 -1.359375 3.785156 -1.414062 4.109375 -1.53125 L 4.265625 -0.109375 C 3.835938 0.0664062 3.351562 0.15625 2.8125 0.15625 C 2.425781 0.15625 2.085938 0.078125 1.796875 -0.078125 C 1.503906 -0.234375 1.300781 -0.460938 1.1875 -0.765625 C 1.082031 -1.066406 1.03125 -1.625 1.03125 -2.4375 L 1.03125 -5.4375 L 0.203125 -5.4375 L 0.203125 -6.890625 L 1.03125 -6.890625 L 1.03125 -8.265625 L 2.859375 -9.328125 L 2.859375 -6.890625 Z M 4.125 -6.890625 "/></g></g></g><g fill="#ffffff" fill-opacity="1"><g transform="translate(55.950546, 13.478696)"><g><path d="M 4.9375 -2.1875 L 6.75 -1.890625 C 6.269531 -0.523438 5.273438 0.15625 3.765625 0.15625 C 2.679688 0.15625 1.851562 -0.160156 1.28125 -0.796875 C 0.707031 -1.429688 0.421875 -2.296875 0.421875 -3.390625 C 0.421875 -4.523438 0.71875 -5.414062 1.3125 -6.0625 C 1.914062 -6.707031 2.675781 -7.03125 3.59375 -7.03125 C 4.601562 -7.03125 5.398438 -6.695312 5.984375 -6.03125 C 6.566406 -5.375 6.859375 -4.394531 6.859375 -3.09375 L 6.859375 -2.921875 L 2.28125 -2.921875 C 2.300781 -2.378906 2.445312 -1.957031 2.71875 -1.65625 C 3 -1.351562 3.351562 -1.203125 3.78125 -1.203125 C 4.363281 -1.203125 4.75 -1.53125 4.9375 -2.1875 Z M 5.046875 -4.046875 C 5.023438 -4.554688 4.882812 -4.945312 4.625 -5.21875 C 4.375 -5.5 4.0625 -5.640625 3.6875 -5.640625 C 3.289062 -5.640625 2.960938 -5.492188 2.703125 -5.203125 C 2.453125 -4.921875 2.328125 -4.546875 2.328125 -4.078125 L 2.328125 -4.046875 Z M 5.046875 -4.046875 "/></g></g></g><g fill="#ffffff" fill-opacity="1"><g transform="translate(63.7321, 13.478696)"><g><path d="M 7.265625 0 L 5.578125 0 L 5.578125 -1.015625 C 5.296875 -0.617188 4.960938 -0.320312 4.578125 -0.125 C 4.191406 0.0625 3.804688 0.15625 3.421875 0.15625 C 2.628906 0.15625 1.953125 -0.160156 1.390625 -0.796875 C 0.828125 -1.429688 0.546875 -2.320312 0.546875 -3.46875 C 0.546875 -4.632812 0.816406 -5.519531 1.359375 -6.125 C 1.910156 -6.726562 2.609375 -7.03125 3.453125 -7.03125 C 4.222656 -7.03125 4.890625 -6.710938 5.453125 -6.078125 L 5.453125 -9.5 L 7.265625 -9.5 Z M 2.40625 -3.59375 C 2.40625 -2.769531 2.546875 -2.179688 2.828125 -1.828125 C 3.109375 -1.472656 3.476562 -1.296875 3.9375 -1.296875 C 4.363281 -1.296875 4.722656 -1.46875 5.015625 -1.8125 C 5.304688 -2.164062 5.453125 -2.695312 5.453125 -3.40625 C 5.453125 -4.207031 5.304688 -4.78125 5.015625 -5.125 C 4.734375 -5.46875 4.375 -5.640625 3.9375 -5.640625 C 3.5 -5.640625 3.132812 -5.46875 2.84375 -5.125 C 2.550781 -4.789062 2.40625 -4.28125 2.40625 -3.59375 Z M 2.40625 -3.59375 "/></g></g></g></g></g><g transform="matrix(1, 0, 0, 1, 16, 100)"><g clip-path="url(#9d14f9b8a0)"><g clip-path="url(#759b7765a3)"><g fill="#fcec55" fill-opacity="1"><g transform="translate(0.0600846, 7.315179)"><g><path d="M 3.46875 -3.5 C 3.445312 -3.8125 3.332031 -4.046875 3.125 -4.203125 C 2.925781 -4.367188 2.640625 -4.453125 2.265625 -4.453125 C 1.929688 -4.453125 1.65625 -4.390625 1.4375 -4.265625 C 1.226562 -4.140625 1.125 -3.957031 1.125 -3.71875 C 1.125 -3.5 1.207031 -3.335938 1.375 -3.234375 C 1.539062 -3.128906 1.851562 -3.023438 2.3125 -2.921875 C 2.71875 -2.828125 3.050781 -2.734375 3.3125 -2.640625 C 3.570312 -2.546875 3.796875 -2.398438 3.984375 -2.203125 C 4.171875 -2.003906 4.265625 -1.738281 4.265625 -1.40625 C 4.265625 -0.976562 4.09375 -0.625 3.75 -0.34375 C 3.40625 -0.0625 2.960938 0.078125 2.421875 0.078125 C 1.722656 0.078125 1.203125 -0.0703125 0.859375 -0.375 C 0.515625 -0.6875 0.332031 -1.09375 0.3125 -1.59375 L 0.9375 -1.640625 C 0.96875 -1.242188 1.117188 -0.953125 1.390625 -0.765625 C 1.671875 -0.585938 2.003906 -0.5 2.390625 -0.5 C 2.765625 -0.5 3.0625 -0.570312 3.28125 -0.71875 C 3.507812 -0.875 3.625 -1.082031 3.625 -1.34375 C 3.625 -1.613281 3.503906 -1.8125 3.265625 -1.9375 C 3.035156 -2.0625 2.640625 -2.179688 2.078125 -2.296875 C 1.523438 -2.421875 1.125 -2.59375 0.875 -2.8125 C 0.625 -3.03125 0.5 -3.316406 0.5 -3.671875 C 0.5 -4.066406 0.65625 -4.394531 0.96875 -4.65625 C 1.28125 -4.914062 1.707031 -5.046875 2.25 -5.046875 C 2.789062 -5.046875 3.226562 -4.914062 3.5625 -4.65625 C 3.90625 -4.394531 4.085938 -4.023438 4.109375 -3.546875 Z M 3.46875 -3.5 "/></g></g></g></g><g fill="#fcec55" fill-opacity="1"><g transform="translate(4.889311, 7.315179)"><g><path d="M 3.578125 -1.640625 L 0.890625 -1.640625 C 0.910156 -1.242188 1.019531 -0.941406 1.21875 -0.734375 C 1.425781 -0.523438 1.679688 -0.421875 1.984375 -0.421875 C 2.210938 -0.421875 2.40625 -0.476562 2.5625 -0.59375 C 2.726562 -0.71875 2.851562 -0.90625 2.9375 -1.15625 L 3.5625 -1.078125 C 3.457031 -0.703125 3.269531 -0.414062 3 -0.21875 C 2.726562 -0.0195312 2.390625 0.078125 1.984375 0.078125 C 1.441406 0.078125 1.019531 -0.0820312 0.71875 -0.40625 C 0.414062 -0.738281 0.265625 -1.191406 0.265625 -1.765625 C 0.265625 -2.328125 0.410156 -2.785156 0.703125 -3.140625 C 1.003906 -3.492188 1.421875 -3.671875 1.953125 -3.671875 C 2.210938 -3.671875 2.460938 -3.613281 2.703125 -3.5 C 2.953125 -3.382812 3.160156 -3.1875 3.328125 -2.90625 C 3.492188 -2.632812 3.578125 -2.210938 3.578125 -1.640625 Z M 2.953125 -2.140625 C 2.929688 -2.503906 2.816406 -2.765625 2.609375 -2.921875 C 2.410156 -3.085938 2.191406 -3.171875 1.953125 -3.171875 C 1.671875 -3.171875 1.4375 -3.070312 1.25 -2.875 C 1.0625 -2.6875 0.953125 -2.441406 0.921875 -2.140625 Z M 2.953125 -2.140625 "/></g></g></g><g fill="#fcec55" fill-opacity="1"><g transform="translate(8.950563, 7.315179)"><g><path d="M 3.40625 -1.234375 C 3.320312 -0.773438 3.140625 -0.441406 2.859375 -0.234375 C 2.578125 -0.0234375 2.257812 0.078125 1.90625 0.078125 C 1.382812 0.078125 0.976562 -0.0859375 0.6875 -0.421875 C 0.40625 -0.765625 0.265625 -1.21875 0.265625 -1.78125 C 0.265625 -2.25 0.347656 -2.625 0.515625 -2.90625 C 0.679688 -3.1875 0.882812 -3.382812 1.125 -3.5 C 1.375 -3.613281 1.632812 -3.671875 1.90625 -3.671875 C 2.269531 -3.671875 2.582031 -3.570312 2.84375 -3.375 C 3.113281 -3.1875 3.273438 -2.90625 3.328125 -2.53125 L 2.75 -2.4375 C 2.6875 -2.6875 2.585938 -2.867188 2.453125 -2.984375 C 2.316406 -3.109375 2.144531 -3.171875 1.9375 -3.171875 C 1.59375 -3.171875 1.332031 -3.050781 1.15625 -2.8125 C 0.976562 -2.570312 0.890625 -2.234375 0.890625 -1.796875 C 0.890625 -1.359375 0.972656 -1.019531 1.140625 -0.78125 C 1.316406 -0.539062 1.566406 -0.421875 1.890625 -0.421875 C 2.148438 -0.421875 2.351562 -0.492188 2.5 -0.640625 C 2.65625 -0.785156 2.753906 -1.007812 2.796875 -1.3125 Z M 3.40625 -1.234375 "/></g></g></g><g fill="#fcec55" fill-opacity="1"><g transform="translate(12.622754, 7.315179)"><g><path d="M 3.375 0 L 2.828125 0 L 2.828125 -0.53125 L 2.8125 -0.53125 C 2.53125 -0.125 2.15625 0.078125 1.6875 0.078125 C 1.4375 0.078125 1.203125 0.0195312 0.984375 -0.09375 C 0.773438 -0.207031 0.632812 -0.363281 0.5625 -0.5625 C 0.488281 -0.769531 0.453125 -1.035156 0.453125 -1.359375 L 0.453125 -3.59375 L 1.0625 -3.59375 L 1.0625 -1.59375 C 1.0625 -1.28125 1.078125 -1.050781 1.109375 -0.90625 C 1.140625 -0.769531 1.21875 -0.65625 1.34375 -0.5625 C 1.476562 -0.476562 1.632812 -0.4375 1.8125 -0.4375 C 2.039062 -0.4375 2.253906 -0.515625 2.453125 -0.671875 C 2.660156 -0.835938 2.765625 -1.171875 2.765625 -1.671875 L 2.765625 -3.59375 L 3.375 -3.59375 Z M 3.375 0 "/></g></g></g><g fill="#fcec55" fill-opacity="1"><g transform="translate(16.684007, 7.315179)"><g><path d="M 2.390625 -3.46875 L 2.1875 -2.90625 C 2.03125 -3 1.882812 -3.046875 1.75 -3.046875 C 1.519531 -3.046875 1.34375 -2.941406 1.21875 -2.734375 C 1.101562 -2.535156 1.046875 -2.25 1.046875 -1.875 L 1.046875 0 L 0.4375 0 L 0.4375 -3.59375 L 1 -3.59375 L 1 -3.046875 L 1.015625 -3.046875 C 1.203125 -3.460938 1.453125 -3.671875 1.765625 -3.671875 C 1.972656 -3.671875 2.179688 -3.601562 2.390625 -3.46875 Z M 2.390625 -3.46875 "/></g></g></g><g fill="#fcec55" fill-opacity="1"><g transform="translate(19.199163, 7.315179)"><g><path d="M 3.578125 -1.640625 L 0.890625 -1.640625 C 0.910156 -1.242188 1.019531 -0.941406 1.21875 -0.734375 C 1.425781 -0.523438 1.679688 -0.421875 1.984375 -0.421875 C 2.210938 -0.421875 2.40625 -0.476562 2.5625 -0.59375 C 2.726562 -0.71875 2.851562 -0.90625 2.9375 -1.15625 L 3.5625 -1.078125 C 3.457031 -0.703125 3.269531 -0.414062 3 -0.21875 C 2.726562 -0.0195312 2.390625 0.078125 1.984375 0.078125 C 1.441406 0.078125 1.019531 -0.0820312 0.71875 -0.40625 C 0.414062 -0.738281 0.265625 -1.191406 0.265625 -1.765625 C 0.265625 -2.328125 0.410156 -2.785156 0.703125 -3.140625 C 1.003906 -3.492188 1.421875 -3.671875 1.953125 -3.671875 C 2.210938 -3.671875 2.460938 -3.613281 2.703125 -3.5 C 2.953125 -3.382812 3.160156 -3.1875 3.328125 -2.90625 C 3.492188 -2.632812 3.578125 -2.210938 3.578125 -1.640625 Z M 2.953125 -2.140625 C 2.929688 -2.503906 2.816406 -2.765625 2.609375 -2.921875 C 2.410156 -3.085938 2.191406 -3.171875 1.953125 -3.171875 C 1.671875 -3.171875 1.4375 -3.070312 1.25 -2.875 C 1.0625 -2.6875 0.953125 -2.441406 0.921875 -2.140625 Z M 2.953125 -2.140625 "/></g></g></g><g fill="#fcec55" fill-opacity="1"><g transform="translate(23.260415, 7.315179)"><g><path d="M 3.359375 0 L 2.796875 0 L 2.796875 -0.453125 L 2.78125 -0.453125 C 2.5625 -0.0976562 2.234375 0.078125 1.796875 0.078125 C 1.347656 0.078125 0.976562 -0.09375 0.6875 -0.4375 C 0.394531 -0.78125 0.25 -1.234375 0.25 -1.796875 C 0.25 -2.367188 0.382812 -2.820312 0.65625 -3.15625 C 0.9375 -3.5 1.304688 -3.671875 1.765625 -3.671875 C 2.191406 -3.671875 2.515625 -3.503906 2.734375 -3.171875 L 2.75 -3.171875 L 2.75 -4.953125 L 3.359375 -4.953125 Z M 1.859375 -0.421875 C 2.117188 -0.421875 2.34375 -0.53125 2.53125 -0.75 C 2.71875 -0.96875 2.8125 -1.296875 2.8125 -1.734375 C 2.8125 -2.171875 2.722656 -2.519531 2.546875 -2.78125 C 2.378906 -3.039062 2.140625 -3.171875 1.828125 -3.171875 C 1.515625 -3.171875 1.273438 -3.039062 1.109375 -2.78125 C 0.953125 -2.53125 0.875 -2.203125 0.875 -1.796875 C 0.875 -1.492188 0.914062 -1.238281 1 -1.03125 C 1.082031 -0.832031 1.203125 -0.679688 1.359375 -0.578125 C 1.515625 -0.472656 1.679688 -0.421875 1.859375 -0.421875 Z M 1.859375 -0.421875 "/></g></g></g><g fill="#fcec55" fill-opacity="1"><g transform="translate(27.321668, 7.315179)"><g/></g></g><g fill="#fcec55" fill-opacity="1"><g transform="translate(29.454528, 7.315179)"><g><path d="M 4.734375 -1.578125 C 4.585938 -1.015625 4.332031 -0.597656 3.96875 -0.328125 C 3.613281 -0.0546875 3.1875 0.078125 2.6875 0.078125 C 1.875 0.078125 1.28125 -0.171875 0.90625 -0.671875 C 0.53125 -1.179688 0.34375 -1.796875 0.34375 -2.515625 C 0.34375 -3.304688 0.5625 -3.925781 1 -4.375 C 1.4375 -4.820312 2 -5.046875 2.6875 -5.046875 C 3.164062 -5.046875 3.578125 -4.921875 3.921875 -4.671875 C 4.265625 -4.421875 4.503906 -4.0625 4.640625 -3.59375 L 4 -3.4375 C 3.894531 -3.78125 3.726562 -4.039062 3.5 -4.21875 C 3.28125 -4.394531 3.007812 -4.484375 2.6875 -4.484375 C 2.144531 -4.484375 1.734375 -4.300781 1.453125 -3.9375 C 1.171875 -3.582031 1.03125 -3.109375 1.03125 -2.515625 C 1.03125 -1.828125 1.175781 -1.3125 1.46875 -0.96875 C 1.757812 -0.632812 2.144531 -0.46875 2.625 -0.46875 C 3.007812 -0.46875 3.320312 -0.570312 3.5625 -0.78125 C 3.8125 -1 3.984375 -1.316406 4.078125 -1.734375 Z M 4.734375 -1.578125 "/></g></g></g><g fill="#fcec55" fill-opacity="1"><g transform="translate(34.66605, 7.315179)"><g><path d="M 1.921875 -3.671875 C 2.410156 -3.671875 2.8125 -3.507812 3.125 -3.1875 C 3.445312 -2.875 3.609375 -2.425781 3.609375 -1.84375 C 3.609375 -1.144531 3.4375 -0.648438 3.09375 -0.359375 C 2.75 -0.0664062 2.359375 0.078125 1.921875 0.078125 C 1.472656 0.078125 1.082031 -0.0664062 0.75 -0.359375 C 0.414062 -0.660156 0.25 -1.140625 0.25 -1.796875 C 0.25 -2.421875 0.40625 -2.890625 0.71875 -3.203125 C 1.039062 -3.515625 1.441406 -3.671875 1.921875 -3.671875 Z M 1.921875 -0.421875 C 2.265625 -0.421875 2.523438 -0.546875 2.703125 -0.796875 C 2.890625 -1.054688 2.984375 -1.394531 2.984375 -1.8125 C 2.984375 -2.257812 2.878906 -2.597656 2.671875 -2.828125 C 2.472656 -3.054688 2.222656 -3.171875 1.921875 -3.171875 C 1.609375 -3.171875 1.351562 -3.054688 1.15625 -2.828125 C 0.957031 -2.597656 0.859375 -2.253906 0.859375 -1.796875 C 0.859375 -1.335938 0.957031 -0.992188 1.15625 -0.765625 C 1.363281 -0.535156 1.617188 -0.421875 1.921875 -0.421875 Z M 1.921875 -0.421875 "/></g></g></g><g fill="#fcec55" fill-opacity="1"><g transform="translate(38.727302, 7.315179)"><g><path d="M 3.390625 0 L 2.78125 0 L 2.78125 -2.1875 C 2.78125 -2.550781 2.710938 -2.800781 2.578125 -2.9375 C 2.453125 -3.070312 2.269531 -3.140625 2.03125 -3.140625 C 1.851562 -3.140625 1.679688 -3.09375 1.515625 -3 C 1.359375 -2.914062 1.242188 -2.796875 1.171875 -2.640625 C 1.109375 -2.484375 1.078125 -2.253906 1.078125 -1.953125 L 1.078125 0 L 0.46875 0 L 0.46875 -3.59375 L 1.015625 -3.59375 L 1.015625 -3.078125 L 1.03125 -3.078125 C 1.15625 -3.273438 1.3125 -3.421875 1.5 -3.515625 C 1.6875 -3.617188 1.90625 -3.671875 2.15625 -3.671875 C 2.34375 -3.671875 2.53125 -3.632812 2.71875 -3.5625 C 2.90625 -3.5 3.050781 -3.398438 3.15625 -3.265625 C 3.257812 -3.128906 3.320312 -2.984375 3.34375 -2.828125 C 3.375 -2.671875 3.390625 -2.460938 3.390625 -2.203125 Z M 3.390625 0 "/></g></g></g><g fill="#fcec55" fill-opacity="1"><g transform="translate(42.788555, 7.315179)"><g><path d="M 3.390625 0 L 2.78125 0 L 2.78125 -2.1875 C 2.78125 -2.550781 2.710938 -2.800781 2.578125 -2.9375 C 2.453125 -3.070312 2.269531 -3.140625 2.03125 -3.140625 C 1.851562 -3.140625 1.679688 -3.09375 1.515625 -3 C 1.359375 -2.914062 1.242188 -2.796875 1.171875 -2.640625 C 1.109375 -2.484375 1.078125 -2.253906 1.078125 -1.953125 L 1.078125 0 L 0.46875 0 L 0.46875 -3.59375 L 1.015625 -3.59375 L 1.015625 -3.078125 L 1.03125 -3.078125 C 1.15625 -3.273438 1.3125 -3.421875 1.5 -3.515625 C 1.6875 -3.617188 1.90625 -3.671875 2.15625 -3.671875 C 2.34375 -3.671875 2.53125 -3.632812 2.71875 -3.5625 C 2.90625 -3.5 3.050781 -3.398438 3.15625 -3.265625 C 3.257812 -3.128906 3.320312 -2.984375 3.34375 -2.828125 C 3.375 -2.671875 3.390625 -2.460938 3.390625 -2.203125 Z M 3.390625 0 "/></g></g></g><g fill="#fcec55" fill-opacity="1"><g transform="translate(46.849807, 7.315179)"><g><path d="M 3.578125 -1.640625 L 0.890625 -1.640625 C 0.910156 -1.242188 1.019531 -0.941406 1.21875 -0.734375 C 1.425781 -0.523438 1.679688 -0.421875 1.984375 -0.421875 C 2.210938 -0.421875 2.40625 -0.476562 2.5625 -0.59375 C 2.726562 -0.71875 2.851562 -0.90625 2.9375 -1.15625 L 3.5625 -1.078125 C 3.457031 -0.703125 3.269531 -0.414062 3 -0.21875 C 2.726562 -0.0195312 2.390625 0.078125 1.984375 0.078125 C 1.441406 0.078125 1.019531 -0.0820312 0.71875 -0.40625 C 0.414062 -0.738281 0.265625 -1.191406 0.265625 -1.765625 C 0.265625 -2.328125 0.410156 -2.785156 0.703125 -3.140625 C 1.003906 -3.492188 1.421875 -3.671875 1.953125 -3.671875 C 2.210938 -3.671875 2.460938 -3.613281 2.703125 -3.5 C 2.953125 -3.382812 3.160156 -3.1875 3.328125 -2.90625 C 3.492188 -2.632812 3.578125 -2.210938 3.578125 -1.640625 Z M 2.953125 -2.140625 C 2.929688 -2.503906 2.816406 -2.765625 2.609375 -2.921875 C 2.410156 -3.085938 2.191406 -3.171875 1.953125 -3.171875 C 1.671875 -3.171875 1.4375 -3.070312 1.25 -2.875 C 1.0625 -2.6875 0.953125 -2.441406 0.921875 -2.140625 Z M 2.953125 -2.140625 "/></g></g></g><g fill="#fcec55" fill-opacity="1"><g transform="translate(50.91106, 7.315179)"><g><path d="M 3.40625 -1.234375 C 3.320312 -0.773438 3.140625 -0.441406 2.859375 -0.234375 C 2.578125 -0.0234375 2.257812 0.078125 1.90625 0.078125 C 1.382812 0.078125 0.976562 -0.0859375 0.6875 -0.421875 C 0.40625 -0.765625 0.265625 -1.21875 0.265625 -1.78125 C 0.265625 -2.25 0.347656 -2.625 0.515625 -2.90625 C 0.679688 -3.1875 0.882812 -3.382812 1.125 -3.5 C 1.375 -3.613281 1.632812 -3.671875 1.90625 -3.671875 C 2.269531 -3.671875 2.582031 -3.570312 2.84375 -3.375 C 3.113281 -3.1875 3.273438 -2.90625 3.328125 -2.53125 L 2.75 -2.4375 C 2.6875 -2.6875 2.585938 -2.867188 2.453125 -2.984375 C 2.316406 -3.109375 2.144531 -3.171875 1.9375 -3.171875 C 1.59375 -3.171875 1.332031 -3.050781 1.15625 -2.8125 C 0.976562 -2.570312 0.890625 -2.234375 0.890625 -1.796875 C 0.890625 -1.359375 0.972656 -1.019531 1.140625 -0.78125 C 1.316406 -0.539062 1.566406 -0.421875 1.890625 -0.421875 C 2.148438 -0.421875 2.351562 -0.492188 2.5 -0.640625 C 2.65625 -0.785156 2.753906 -1.007812 2.796875 -1.3125 Z M 3.40625 -1.234375 "/></g></g></g><g fill="#fcec55" fill-opacity="1"><g transform="translate(54.583251, 7.315179)"><g><path d="M 1.859375 0 C 1.679688 0.03125 1.53125 0.046875 1.40625 0.046875 C 1.132812 0.046875 0.9375 0 0.8125 -0.09375 C 0.695312 -0.1875 0.625 -0.304688 0.59375 -0.453125 C 0.570312 -0.597656 0.5625 -0.796875 0.5625 -1.046875 L 0.5625 -3.109375 L 0.125 -3.109375 L 0.125 -3.59375 L 0.5625 -3.59375 L 0.5625 -4.484375 L 1.171875 -4.84375 L 1.171875 -3.59375 L 1.78125 -3.59375 L 1.78125 -3.109375 L 1.171875 -3.109375 L 1.171875 -1.015625 C 1.171875 -0.835938 1.1875 -0.707031 1.21875 -0.625 C 1.257812 -0.550781 1.351562 -0.515625 1.5 -0.515625 C 1.59375 -0.515625 1.6875 -0.523438 1.78125 -0.546875 Z M 1.859375 0 "/></g></g></g><g fill="#fcec55" fill-opacity="1"><g transform="translate(56.716111, 7.315179)"><g><path d="M 1.078125 0 L 0.46875 0 L 0.46875 -3.59375 L 1.078125 -3.59375 Z M 1.078125 -4.265625 L 0.46875 -4.265625 L 0.46875 -4.953125 L 1.078125 -4.953125 Z M 1.078125 -4.265625 "/></g></g></g><g fill="#fcec55" fill-opacity="1"><g transform="translate(58.463293, 7.315179)"><g><path d="M 1.921875 -3.671875 C 2.410156 -3.671875 2.8125 -3.507812 3.125 -3.1875 C 3.445312 -2.875 3.609375 -2.425781 3.609375 -1.84375 C 3.609375 -1.144531 3.4375 -0.648438 3.09375 -0.359375 C 2.75 -0.0664062 2.359375 0.078125 1.921875 0.078125 C 1.472656 0.078125 1.082031 -0.0664062 0.75 -0.359375 C 0.414062 -0.660156 0.25 -1.140625 0.25 -1.796875 C 0.25 -2.421875 0.40625 -2.890625 0.71875 -3.203125 C 1.039062 -3.515625 1.441406 -3.671875 1.921875 -3.671875 Z M 1.921875 -0.421875 C 2.265625 -0.421875 2.523438 -0.546875 2.703125 -0.796875 C 2.890625 -1.054688 2.984375 -1.394531 2.984375 -1.8125 C 2.984375 -2.257812 2.878906 -2.597656 2.671875 -2.828125 C 2.472656 -3.054688 2.222656 -3.171875 1.921875 -3.171875 C 1.609375 -3.171875 1.351562 -3.054688 1.15625 -2.828125 C 0.957031 -2.597656 0.859375 -2.253906 0.859375 -1.796875 C 0.859375 -1.335938 0.957031 -0.992188 1.15625 -0.765625 C 1.363281 -0.535156 1.617188 -0.421875 1.921875 -0.421875 Z M 1.921875 -0.421875 "/></g></g></g><g fill="#fcec55" fill-opacity="1"><g transform="translate(62.524546, 7.315179)"><g><path d="M 3.390625 0 L 2.78125 0 L 2.78125 -2.1875 C 2.78125 -2.550781 2.710938 -2.800781 2.578125 -2.9375 C 2.453125 -3.070312 2.269531 -3.140625 2.03125 -3.140625 C 1.851562 -3.140625 1.679688 -3.09375 1.515625 -3 C 1.359375 -2.914062 1.242188 -2.796875 1.171875 -2.640625 C 1.109375 -2.484375 1.078125 -2.253906 1.078125 -1.953125 L 1.078125 0 L 0.46875 0 L 0.46875 -3.59375 L 1.015625 -3.59375 L 1.015625 -3.078125 L 1.03125 -3.078125 C 1.15625 -3.273438 1.3125 -3.421875 1.5 -3.515625 C 1.6875 -3.617188 1.90625 -3.671875 2.15625 -3.671875 C 2.34375 -3.671875 2.53125 -3.632812 2.71875 -3.5625 C 2.90625 -3.5 3.050781 -3.398438 3.15625 -3.265625 C 3.257812 -3.128906 3.320312 -2.984375 3.34375 -2.828125 C 3.375 -2.671875 3.390625 -2.460938 3.390625 -2.203125 Z M 3.390625 0 "/></g></g></g></g></g></svg>