<svg xmlns="http://www.w3.org/2000/svg" xmlns:xlink="http://www.w3.org/1999/xlink" width="52" zoomAndPan="magnify" viewBox="0 0 39 38.999999" height="52" preserveAspectRatio="xMidYMid meet" version="1.0"><defs><clipPath id="fae009da7b"><path d="M 0 0.683594 L 39 0.683594 L 39 38.183594 L 0 38.183594 Z M 0 0.683594 " clip-rule="nonzero"/></clipPath></defs><path fill="#ffffff" d="M 11.285156 18.652344 C 11.308594 18.65625 11.332031 18.65625 11.359375 18.65625 C 11.601562 18.65625 11.832031 18.558594 12.003906 18.386719 L 18.613281 11.71875 C 18.96875 11.359375 18.964844 10.785156 18.609375 10.433594 C 18.253906 10.082031 17.679688 10.082031 17.324219 10.4375 L 11.476562 16.339844 L 9.769531 13.917969 C 9.480469 13.507812 8.914062 13.410156 8.503906 13.699219 C 8.09375 13.988281 7.996094 14.554688 8.285156 14.964844 L 10.617188 18.269531 C 10.773438 18.488281 11.015625 18.628906 11.285156 18.652344 Z M 11.285156 18.652344 " fill-opacity="1" fill-rule="nonzero"/><g clip-path="url(#fae009da7b)"><path fill="#ffffff" d="M 38.320312 32.59375 C 38.386719 32.226562 39 31.898438 39 31.511719 C 39 31.125 38.386719 30.792969 38.320312 30.425781 C 38.253906 30.046875 38.71875 29.527344 38.589844 29.171875 C 38.457031 28.8125 37.769531 28.714844 37.578125 28.386719 C 37.390625 28.054688 37.644531 27.410156 37.402344 27.117188 C 37.15625 26.828125 36.476562 26.96875 36.183594 26.726562 C 35.890625 26.480469 35.914062 25.785156 35.585938 25.59375 C 35.324219 25.445312 34.898438 25.640625 34.554688 25.664062 L 34.554688 3.550781 C 34.554688 2.785156 34.257812 2.070312 33.714844 1.527344 C 33.175781 0.988281 32.457031 0.691406 31.695312 0.691406 L 11.417969 0.691406 C 10.65625 0.691406 9.9375 0.988281 9.394531 1.527344 C 8.855469 2.070312 8.558594 2.785156 8.558594 3.550781 L 8.558594 6.460938 L 8.574219 6.460938 C 7.675781 7.121094 6.914062 7.933594 6.300781 8.878906 C 5.617188 9.933594 5.160156 11.089844 4.941406 12.316406 C 4.730469 13.5 4.753906 14.699219 5.003906 15.882812 C 5.253906 17.0625 5.722656 18.167969 6.398438 19.164062 C 6.925781 19.945312 7.5625 20.628906 8.296875 21.214844 L 7.394531 22.601562 C 6.828125 22.597656 6.277344 22.871094 5.945312 23.378906 L 0.511719 31.746094 C 0 32.535156 0.226562 33.59375 1.015625 34.105469 C 1.300781 34.292969 1.625 34.378906 1.941406 34.378906 C 2.5 34.378906 3.046875 34.105469 3.375 33.601562 L 8.558594 25.617188 L 8.558594 31.945312 C 8.558594 32.707031 8.855469 33.425781 9.394531 33.964844 C 9.9375 34.507812 10.65625 34.804688 11.417969 34.804688 L 26.816406 34.804688 C 26.882812 35.152344 26.726562 35.652344 26.933594 35.902344 C 27.179688 36.191406 27.859375 36.050781 28.152344 36.292969 C 28.445312 36.539062 28.421875 37.234375 28.753906 37.425781 C 29.078125 37.617188 29.671875 37.25 30.03125 37.382812 C 30.386719 37.507812 30.601562 38.171875 30.980469 38.238281 C 31.351562 38.300781 31.78125 37.757812 32.167969 37.757812 C 32.554688 37.757812 32.988281 38.304688 33.355469 38.238281 C 33.734375 38.171875 33.953125 37.507812 34.304688 37.382812 C 34.667969 37.25 35.257812 37.617188 35.585938 37.425781 C 35.917969 37.234375 35.894531 36.539062 36.183594 36.292969 C 36.476562 36.050781 37.15625 36.191406 37.402344 35.902344 C 37.644531 35.609375 37.390625 34.964844 37.582031 34.632812 C 37.769531 34.304688 38.460938 34.207031 38.589844 33.847656 C 38.71875 33.492188 38.253906 32.972656 38.320312 32.59375 Z M 7.3125 9.535156 C 8.488281 7.722656 10.304688 6.476562 12.417969 6.027344 C 12.984375 5.90625 13.554688 5.84375 14.117188 5.84375 C 15.667969 5.84375 17.183594 6.289062 18.511719 7.152344 C 22.257812 9.585938 23.324219 14.609375 20.894531 18.355469 C 19.714844 20.167969 17.902344 21.414062 15.789062 21.867188 C 13.671875 22.316406 11.507812 21.914062 9.695312 20.738281 C 5.949219 18.304688 4.878906 13.28125 7.3125 9.535156 Z M 9.496094 31.945312 L 9.496094 22.71875 L 9.828125 22.207031 C 10.660156 22.640625 11.546875 22.941406 12.472656 23.105469 C 13.011719 23.203125 13.554688 23.25 14.097656 23.25 C 14.746094 23.25 15.394531 23.179688 16.039062 23.042969 C 17.222656 22.792969 18.324219 22.324219 19.320312 21.648438 C 20.28125 21 21.097656 20.1875 21.757812 19.230469 L 29.5625 19.246094 L 29.5625 18.148438 L 22.410156 18.136719 C 22.820312 17.328125 23.105469 16.46875 23.265625 15.574219 C 23.398438 14.832031 23.4375 14.078125 23.390625 13.332031 L 29.5625 13.332031 L 29.5625 12.234375 L 23.25 12.234375 C 23.234375 12.160156 23.21875 12.082031 23.203125 12.007812 C 22.953125 10.824219 22.484375 9.722656 21.808594 8.726562 C 21.609375 8.429688 21.390625 8.144531 21.160156 7.878906 L 29.5625 7.878906 L 29.5625 6.78125 L 20.109375 6.78125 L 20.109375 6.835938 C 19.8125 6.585938 19.5 6.355469 19.171875 6.140625 C 18.117188 5.457031 16.960938 5 15.734375 4.785156 C 14.550781 4.574219 13.351562 4.59375 12.167969 4.84375 C 11.222656 5.046875 10.328125 5.386719 9.496094 5.859375 L 9.496094 3.550781 C 9.496094 2.492188 10.359375 1.628906 11.417969 1.628906 L 31.695312 1.628906 C 32.753906 1.628906 33.617188 2.492188 33.617188 3.550781 L 33.617188 24.929688 C 33.539062 24.855469 33.453125 24.796875 33.355469 24.78125 C 32.988281 24.71875 32.558594 25.261719 32.167969 25.261719 C 31.78125 25.261719 31.351562 24.714844 30.980469 24.78125 C 30.601562 24.847656 30.386719 25.511719 30.03125 25.640625 C 29.671875 25.769531 29.078125 25.402344 28.753906 25.59375 C 28.421875 25.785156 28.445312 26.480469 28.152344 26.726562 C 27.863281 26.96875 27.179688 26.828125 26.933594 27.117188 C 26.691406 27.410156 26.949219 28.054688 26.757812 28.386719 C 26.710938 28.464844 26.636719 28.53125 26.546875 28.59375 L 13.148438 28.59375 L 13.148438 29.6875 L 25.816406 29.6875 C 25.917969 29.941406 26.054688 30.207031 26.015625 30.425781 C 25.953125 30.792969 25.335938 31.125 25.335938 31.511719 C 25.335938 31.898438 25.949219 32.226562 26.015625 32.59375 C 26.082031 32.972656 25.617188 33.492188 25.746094 33.847656 C 25.75 33.855469 25.753906 33.859375 25.753906 33.867188 L 11.417969 33.867188 C 10.359375 33.867188 9.496094 33.003906 9.496094 31.945312 Z M 35.859375 29.566406 L 31.089844 34.375 C 30.964844 34.5 30.796875 34.570312 30.625 34.570312 C 30.605469 34.570312 30.589844 34.566406 30.570312 34.566406 C 30.378906 34.550781 30.203125 34.449219 30.089844 34.292969 L 28.410156 31.90625 C 28.199219 31.613281 28.273438 31.203125 28.566406 30.996094 C 28.863281 30.789062 29.269531 30.859375 29.480469 31.15625 L 30.710938 32.902344 L 34.925781 28.644531 C 35.183594 28.390625 35.597656 28.386719 35.851562 28.640625 C 36.109375 28.894531 36.109375 29.308594 35.859375 29.566406 Z M 35.859375 29.566406 " fill-opacity="1" fill-rule="nonzero"/></g><path fill="#ffffff" d="M 13.148438 23.625 L 29.5625 23.625 L 29.5625 24.722656 L 13.148438 24.722656 Z M 13.148438 23.625 " fill-opacity="1" fill-rule="nonzero"/></svg>