<svg xmlns="http://www.w3.org/2000/svg" xmlns:xlink="http://www.w3.org/1999/xlink" width="52" zoomAndPan="magnify" viewBox="0 0 39 38.999999" height="52" preserveAspectRatio="xMidYMid meet" version="1.0"><defs><clipPath id="118a29eed6"><path d="M 0 0 L 39 0 L 39 38.25 L 0 38.25 Z M 0 0 " clip-rule="nonzero"/></clipPath></defs><g clip-path="url(#118a29eed6)"><path fill="#ffffff" d="M 28.039062 4.1875 L 25.320312 4.1875 L 25.320312 2.417969 L 28.9375 2.417969 C 29.636719 2.417969 30.207031 2.988281 30.207031 3.691406 L 30.207031 9.042969 C 29.683594 9.089844 29.191406 9.382812 28.90625 9.871094 L 28.441406 10.683594 L 28.441406 4.585938 C 28.441406 4.367188 28.261719 4.1875 28.039062 4.1875 Z M 19.152344 31.695312 C 15.355469 31.695312 12.230469 34.570312 11.835938 38.261719 L 26.46875 38.261719 C 26.074219 34.570312 22.949219 31.695312 19.152344 31.695312 Z M 27.246094 27.175781 C 27.246094 29.230469 28.914062 30.898438 30.96875 30.898438 C 33.023438 30.898438 34.6875 29.230469 34.6875 27.175781 C 34.6875 25.121094 33.023438 23.457031 30.96875 23.457031 C 28.914062 23.457031 27.246094 25.121094 27.246094 27.175781 Z M 7.339844 30.898438 C 9.394531 30.898438 11.058594 29.230469 11.058594 27.175781 C 11.058594 25.121094 9.394531 23.457031 7.339844 23.457031 C 5.285156 23.457031 3.617188 25.121094 3.617188 27.175781 C 3.617188 29.230469 5.285156 30.898438 7.339844 30.898438 Z M 19.152344 23.457031 C 17.097656 23.457031 15.433594 25.121094 15.433594 27.175781 C 15.433594 29.230469 17.097656 30.898438 19.152344 30.898438 C 21.207031 30.898438 22.875 29.230469 22.875 27.175781 C 22.875 25.121094 21.207031 23.457031 19.152344 23.457031 Z M 7.339844 31.695312 C 3.542969 31.695312 0.417969 34.570312 0.0234375 38.261719 L 10.554688 38.261719 C 10.738281 36.550781 11.308594 35.046875 12.382812 33.695312 C 11.066406 32.453125 9.292969 31.695312 7.339844 31.695312 Z M 30.96875 31.695312 C 29.015625 31.695312 27.242188 32.453125 25.925781 33.695312 C 27 35.046875 27.570312 36.550781 27.753906 38.261719 L 38.285156 38.261719 C 37.890625 34.570312 34.765625 31.695312 30.96875 31.695312 Z M 30.824219 9.046875 L 33.355469 10.503906 C 33.542969 10.617188 33.789062 10.550781 33.898438 10.359375 L 37.082031 4.84375 C 37.191406 4.652344 37.125 4.410156 36.9375 4.300781 L 36.429688 4.007812 L 37.105469 2.839844 C 37.277344 2.539062 37.175781 2.148438 36.875 1.976562 L 36.359375 1.679688 C 36.058594 1.503906 35.667969 1.609375 35.496094 1.910156 L 34.820312 3.078125 L 34.40625 2.839844 C 34.21875 2.730469 33.972656 2.796875 33.863281 2.984375 L 30.679688 8.5 C 30.570312 8.691406 30.632812 8.9375 30.824219 9.046875 Z M 38.863281 5.261719 C 38.695312 4.640625 38.347656 4.382812 37.851562 4.09375 L 37.21875 5.195312 C 37.394531 5.296875 37.574219 5.367188 37.632812 5.589844 C 37.660156 5.703125 37.648438 5.824219 37.589844 5.929688 L 34.835938 10.703125 C 34.65625 11.007812 34.761719 11.398438 35.066406 11.574219 C 35.371094 11.75 35.757812 11.644531 35.933594 11.339844 L 38.691406 6.570312 C 38.929688 6.15625 38.976562 5.6875 38.863281 5.261719 Z M 30.011719 10.507812 L 26.132812 17.230469 L 26.210938 18.660156 L 25.285156 20.265625 C 25.113281 20.570312 25.214844 20.960938 25.519531 21.132812 C 25.824219 21.308594 26.210938 21.203125 26.386719 20.898438 L 27.296875 19.324219 L 28.613281 18.660156 L 32.492188 11.941406 C 32.601562 11.75 32.535156 11.507812 32.347656 11.398438 L 30.554688 10.363281 C 30.367188 10.253906 30.121094 10.320312 30.011719 10.507812 Z M 14.261719 4.554688 L 14.261719 2.050781 C 14.261719 1.832031 14.441406 1.652344 14.660156 1.652344 L 16.761719 1.652344 C 16.929688 1.652344 17.074219 1.550781 17.132812 1.394531 C 17.441406 0.578125 18.230469 0 19.152344 0 C 20.078125 0 20.863281 0.578125 21.171875 1.394531 C 21.234375 1.550781 21.378906 1.652344 21.546875 1.652344 L 23.648438 1.652344 C 23.867188 1.652344 24.046875 1.832031 24.046875 2.050781 L 24.046875 4.554688 C 24.046875 4.777344 23.867188 4.953125 23.648438 4.953125 L 14.660156 4.953125 C 14.441406 4.953125 14.261719 4.777344 14.261719 4.554688 Z M 18.582031 1.769531 C 18.582031 2.085938 18.839844 2.34375 19.152344 2.34375 C 19.46875 2.34375 19.726562 2.085938 19.726562 1.769531 C 19.726562 1.453125 19.46875 1.199219 19.152344 1.199219 C 18.839844 1.199219 18.582031 1.453125 18.582031 1.769531 Z M 9.867188 4.585938 C 9.867188 4.367188 10.046875 4.1875 10.265625 4.1875 L 12.988281 4.1875 L 12.988281 2.417969 L 9.371094 2.417969 C 8.671875 2.417969 8.101562 2.988281 8.101562 3.691406 L 8.101562 22.238281 C 8.738281 22.335938 9.335938 22.554688 9.867188 22.867188 Z M 29.527344 19.628906 L 28.4375 20.175781 L 28.4375 22.867188 C 28.972656 22.554688 29.570312 22.335938 30.207031 22.238281 L 30.207031 18.449219 Z M 26.109375 28.335938 C 25.96875 27.757812 25.9375 27.160156 26.007812 26.570312 L 24.113281 26.570312 C 24.183594 27.160156 24.152344 27.757812 24.015625 28.335938 Z M 14.292969 28.335938 C 14.15625 27.761719 14.121094 27.160156 14.195312 26.570312 L 12.300781 26.570312 C 12.371094 27.160156 12.335938 27.757812 12.199219 28.335938 Z M 21.542969 20.234375 C 20.644531 20.820312 20.519531 20.75 19.6875 20.191406 C 18.613281 19.46875 17.324219 18.601562 15.886719 20.152344 C 15.648438 20.410156 15.664062 20.8125 15.921875 21.050781 C 16.179688 21.289062 16.578125 21.273438 16.816406 21.015625 C 17.515625 20.261719 18.316406 20.800781 18.980469 21.246094 C 20.269531 22.113281 20.882812 22.179688 22.238281 21.300781 C 22.667969 21.019531 23.148438 20.707031 23.933594 20.738281 C 23.890625 20.226562 24.03125 19.894531 24.273438 19.46875 C 22.972656 19.308594 22.214844 19.796875 21.542969 20.234375 Z M 18.894531 8.542969 L 25.996094 8.542969 C 26.347656 8.542969 26.632812 8.257812 26.632812 7.90625 C 26.632812 7.554688 26.347656 7.269531 25.996094 7.269531 L 18.894531 7.269531 C 18.542969 7.269531 18.257812 7.554688 18.257812 7.90625 C 18.257812 8.257812 18.542969 8.542969 18.894531 8.542969 Z M 18.894531 10.84375 L 25.996094 10.84375 C 26.347656 10.84375 26.632812 10.558594 26.632812 10.207031 C 26.632812 9.855469 26.347656 9.570312 25.996094 9.570312 L 18.894531 9.570312 C 18.542969 9.570312 18.257812 9.855469 18.257812 10.207031 C 18.257812 10.558594 18.542969 10.84375 18.894531 10.84375 Z M 18.894531 15.015625 L 25.9375 15.015625 L 26.515625 14.011719 C 26.402344 13.847656 26.210938 13.742188 25.996094 13.742188 L 18.894531 13.742188 C 18.542969 13.742188 18.257812 14.027344 18.257812 14.378906 C 18.257812 14.730469 18.542969 15.015625 18.894531 15.015625 Z M 18.894531 17.316406 L 24.859375 17.316406 L 24.835938 16.921875 L 25.34375 16.042969 L 18.894531 16.042969 C 18.542969 16.042969 18.257812 16.328125 18.257812 16.679688 C 18.257812 17.03125 18.542969 17.316406 18.894531 17.316406 Z M 15.929688 17.546875 L 12.730469 17.546875 C 12.5 17.546875 12.3125 17.359375 12.3125 17.128906 L 12.3125 13.929688 C 12.3125 13.699219 12.5 13.511719 12.730469 13.511719 L 15.929688 13.511719 C 16.15625 13.511719 16.347656 13.699219 16.347656 13.929688 L 16.347656 17.128906 C 16.34375 17.359375 16.15625 17.546875 15.929688 17.546875 Z M 15.578125 14.414062 C 15.304688 14.195312 14.902344 14.238281 14.683594 14.511719 L 14.128906 15.195312 L 13.929688 14.996094 C 13.679688 14.746094 13.277344 14.746094 13.027344 14.996094 C 12.777344 15.246094 12.777344 15.648438 13.027344 15.898438 L 13.726562 16.597656 C 14.011719 16.878906 14.476562 16.835938 14.703125 16.511719 L 15.675781 15.308594 C 15.894531 15.035156 15.851562 14.636719 15.578125 14.414062 Z M 12.3125 10.65625 L 12.3125 7.457031 C 12.3125 7.226562 12.5 7.039062 12.730469 7.039062 L 15.929688 7.039062 C 16.15625 7.039062 16.347656 7.226562 16.347656 7.457031 L 16.347656 10.65625 C 16.347656 10.886719 16.15625 11.074219 15.929688 11.074219 L 12.730469 11.074219 C 12.5 11.074219 12.3125 10.886719 12.3125 10.65625 Z M 13.027344 9.425781 L 13.726562 10.125 C 13.996094 10.394531 14.441406 10.371094 14.675781 10.074219 L 15.675781 8.839844 C 15.898438 8.566406 15.855469 8.164062 15.582031 7.941406 C 15.308594 7.722656 14.90625 7.765625 14.683594 8.039062 L 14.128906 8.722656 L 13.929688 8.523438 C 13.679688 8.273438 13.277344 8.273438 13.027344 8.523438 C 12.777344 8.773438 12.777344 9.175781 13.027344 9.425781 Z M 13.027344 9.425781 " fill-opacity="1" fill-rule="evenodd"/></g></svg>