<svg xmlns="http://www.w3.org/2000/svg" xmlns:xlink="http://www.w3.org/1999/xlink" width="52" zoomAndPan="magnify" viewBox="0 0 39 38.999999" height="52" preserveAspectRatio="xMidYMid meet" version="1.0"><path fill="#ffffff" d="M 14.875 34.390625 L 26.613281 34.390625 C 26.945312 34.390625 27.21875 34.117188 27.21875 33.785156 C 27.21875 33.449219 26.945312 33.175781 26.613281 33.175781 L 14.875 33.175781 Z M 14.875 34.390625 " fill-opacity="1" fill-rule="nonzero"/><path fill="#ffffff" d="M 6.992188 35.90625 L 5.171875 35.90625 C 2.988281 35.90625 1.226562 34.148438 1.226562 31.964844 C 1.226562 29.78125 2.988281 28.023438 5.171875 28.023438 L 30.554688 28.023438 C 29.917969 28.902344 29.160156 30.296875 29.128906 31.964844 C 29.097656 33.691406 29.828125 35.058594 30.464844 35.90625 L 14.875 35.90625 L 14.875 37.121094 L 31.859375 37.121094 C 32.101562 37.121094 32.34375 36.96875 32.433594 36.726562 C 32.523438 36.484375 32.433594 36.210938 32.253906 36.058594 C 32.222656 36.027344 30.3125 34.449219 30.339844 31.996094 C 30.371094 29.660156 32.253906 27.902344 32.28125 27.871094 C 32.464844 27.6875 32.523438 27.445312 32.433594 27.203125 C 32.34375 26.960938 32.132812 26.808594 31.859375 26.808594 L 5.171875 26.808594 C 2.320312 26.808594 0.015625 29.113281 0.015625 31.964844 C 0.015625 34.816406 2.320312 37.121094 5.171875 37.121094 L 6.992188 37.121094 Z M 6.992188 35.90625 " fill-opacity="1" fill-rule="nonzero"/><path fill="#ffffff" d="M 19.96875 29.539062 L 6.625 29.539062 C 6.292969 29.539062 6.019531 29.8125 6.019531 30.144531 C 6.019531 30.476562 6.292969 30.75 6.625 30.75 L 8.203125 30.75 L 8.203125 38.332031 C 8.203125 38.605469 8.386719 38.816406 8.628906 38.910156 C 8.871094 39 9.144531 38.910156 9.296875 38.667969 L 10.933594 36.332031 L 12.570312 38.667969 C 12.691406 38.816406 12.875 38.9375 13.054688 38.9375 C 13.117188 38.9375 13.175781 38.9375 13.238281 38.910156 C 13.480469 38.816406 13.664062 38.605469 13.664062 38.332031 L 13.664062 30.75 L 19.96875 30.75 C 20.304688 30.75 20.578125 30.476562 20.578125 30.144531 C 20.578125 29.8125 20.304688 29.539062 19.96875 29.539062 Z M 12.449219 36.421875 L 11.417969 34.964844 C 11.296875 34.816406 11.113281 34.695312 10.933594 34.695312 C 10.75 34.695312 10.539062 34.785156 10.449219 34.964844 L 9.417969 36.421875 L 9.417969 30.75 L 12.449219 30.75 Z M 12.449219 36.421875 " fill-opacity="1" fill-rule="nonzero"/><path fill="#ffffff" d="M 7.777344 22.109375 L 7.050781 23.925781 C 6.898438 24.292969 6.960938 24.714844 7.171875 25.050781 C 7.382812 25.382812 7.777344 25.59375 8.171875 25.59375 L 24.578125 25.59375 C 24.972656 25.59375 25.367188 25.382812 25.582031 25.050781 C 25.792969 24.714844 25.851562 24.292969 25.703125 23.925781 L 24.972656 22.109375 C 24.792969 21.652344 24.367188 21.351562 23.851562 21.351562 L 8.929688 21.351562 C 8.414062 21.351562 7.992188 21.652344 7.777344 22.109375 Z M 23.851562 22.5625 L 24.578125 24.382812 L 8.203125 24.382812 L 8.929688 22.5625 Z M 23.851562 22.5625 " fill-opacity="1" fill-rule="nonzero"/><path fill="#ffffff" d="M 23.0625 20.136719 C 23.398438 20.136719 23.667969 19.863281 23.667969 19.53125 C 23.667969 19.195312 23.398438 18.921875 23.0625 18.921875 L 9.71875 18.921875 C 9.386719 18.921875 9.113281 19.195312 9.113281 19.53125 C 9.113281 19.863281 9.386719 20.136719 9.71875 20.136719 Z M 23.0625 20.136719 " fill-opacity="1" fill-rule="nonzero"/><path fill="#ffffff" d="M 37.136719 15.375 L 21.425781 8.976562 C 21.757812 8.128906 22.03125 7.25 22.214844 6.671875 C 22.335938 6.703125 22.425781 6.703125 22.546875 6.703125 C 22.730469 6.703125 22.882812 6.671875 23.0625 6.609375 C 23.488281 6.488281 23.820312 6.1875 24.003906 5.792969 C 24.398438 5.003906 24.09375 4.003906 23.277344 3.578125 L 16.847656 0.242188 C 16.453125 0.03125 15.996094 0 15.601562 0.152344 C 15.179688 0.273438 14.84375 0.578125 14.664062 0.96875 C 14.328125 1.636719 14.480469 2.394531 14.996094 2.882812 C 14.421875 3.609375 13.417969 5.003906 12.601562 6.550781 C 11.996094 7.703125 11.355469 9.644531 11.054688 10.644531 C 10.78125 10.582031 10.507812 10.582031 10.234375 10.675781 C 9.8125 10.796875 9.476562 11.097656 9.296875 11.492188 C 8.902344 12.28125 9.203125 13.28125 10.023438 13.707031 L 16.453125 17.042969 C 16.695312 17.164062 16.9375 17.226562 17.210938 17.226562 C 17.390625 17.226562 17.542969 17.195312 17.726562 17.132812 C 18.152344 17.011719 18.484375 16.710938 18.664062 16.316406 C 19 15.648438 18.847656 14.859375 18.332031 14.375 C 18.695312 13.890625 19.210938 13.160156 19.757812 12.34375 L 34.679688 20.289062 C 35.101562 20.53125 35.617188 20.683594 36.105469 20.683594 C 36.375 20.683594 36.621094 20.652344 36.890625 20.5625 C 37.652344 20.347656 38.226562 19.832031 38.589844 19.167969 C 38.953125 18.46875 38.984375 17.679688 38.742188 16.953125 C 38.410156 16.285156 37.863281 15.710938 37.136719 15.375 Z M 15.753906 1.546875 C 15.816406 1.457031 15.90625 1.363281 15.996094 1.335938 C 16.027344 1.335938 16.058594 1.335938 16.117188 1.335938 C 16.179688 1.335938 16.238281 1.363281 16.300781 1.394531 L 22.730469 4.730469 C 22.941406 4.851562 23.03125 5.09375 22.910156 5.308594 C 22.851562 5.398438 22.761719 5.488281 22.667969 5.519531 C 22.546875 5.550781 22.457031 5.550781 22.335938 5.488281 L 22.09375 5.367188 L 19.121094 3.820312 L 15.9375 2.152344 C 15.722656 2.03125 15.632812 1.757812 15.753906 1.546875 Z M 13.691406 7.15625 C 14.480469 5.609375 15.542969 4.214844 16.058594 3.546875 L 21.121094 6.1875 C 20.820312 7.097656 20.152344 9.097656 19.574219 10.21875 C 18.910156 11.554688 17.785156 13.101562 17.242188 13.828125 L 16.726562 13.554688 L 12.175781 11.222656 C 12.449219 10.28125 13.117188 8.277344 13.691406 7.15625 Z M 17.542969 15.832031 C 17.484375 15.921875 17.390625 16.011719 17.300781 16.042969 C 17.179688 16.074219 17.089844 16.074219 16.96875 16.011719 L 10.539062 12.675781 C 10.328125 12.554688 10.234375 12.3125 10.355469 12.101562 C 10.417969 12.007812 10.507812 11.917969 10.597656 11.886719 C 10.628906 11.886719 10.691406 11.859375 10.71875 11.859375 C 10.78125 11.859375 10.839844 11.886719 10.902344 11.917969 L 13.269531 13.132812 L 17.121094 15.101562 L 17.363281 15.222656 C 17.574219 15.375 17.664062 15.617188 17.542969 15.832031 Z M 37.4375 18.679688 C 37.226562 19.074219 36.890625 19.347656 36.46875 19.46875 C 36.042969 19.589844 35.589844 19.53125 35.195312 19.289062 L 20.332031 11.371094 C 20.457031 11.160156 20.546875 10.976562 20.667969 10.765625 C 20.757812 10.554688 20.878906 10.339844 20.972656 10.097656 L 36.679688 16.496094 C 37.074219 16.679688 37.378906 17.011719 37.527344 17.4375 C 37.679688 17.832031 37.652344 18.285156 37.4375 18.679688 Z M 37.4375 18.679688 " fill-opacity="1" fill-rule="nonzero"/></svg>