<svg xmlns="http://www.w3.org/2000/svg" xmlns:xlink="http://www.w3.org/1999/xlink" width="52" zoomAndPan="magnify" viewBox="0 0 39 38.999999" height="52" preserveAspectRatio="xMidYMid meet" version="1.0"><path fill="#ffffff" d="M 3.90625 17.863281 C 3.90625 17.515625 4.1875 17.234375 4.535156 17.234375 L 24.636719 17.234375 C 24.984375 17.234375 25.265625 17.515625 25.265625 17.863281 C 25.265625 18.210938 24.980469 18.492188 24.636719 18.492188 L 4.535156 18.492188 C 4.1875 18.492188 3.90625 18.210938 3.90625 17.863281 Z M 4.535156 25.832031 L 24.636719 25.832031 C 24.984375 25.832031 25.265625 25.550781 25.265625 25.203125 C 25.265625 24.859375 24.980469 24.574219 24.636719 24.574219 L 4.535156 24.574219 C 4.1875 24.574219 3.90625 24.859375 3.90625 25.203125 C 3.90625 25.550781 4.1875 25.832031 4.535156 25.832031 Z M 21.96875 31.917969 L 4.535156 31.917969 C 4.1875 31.917969 3.90625 32.199219 3.90625 32.546875 C 3.90625 32.894531 4.1875 33.175781 4.535156 33.175781 L 21.96875 33.175781 C 22.316406 33.175781 22.597656 32.894531 22.597656 32.546875 C 22.597656 32.199219 22.316406 31.917969 21.96875 31.917969 Z M 4.535156 22.164062 L 24.636719 22.164062 C 24.984375 22.164062 25.265625 21.882812 25.265625 21.535156 C 25.265625 21.1875 24.980469 20.90625 24.636719 20.90625 L 4.535156 20.90625 C 4.1875 20.90625 3.90625 21.1875 3.90625 21.535156 C 3.90625 21.882812 4.1875 22.164062 4.535156 22.164062 Z M 21.96875 28.246094 L 4.535156 28.246094 C 4.1875 28.246094 3.90625 28.527344 3.90625 28.875 C 3.90625 29.222656 4.1875 29.503906 4.535156 29.503906 L 21.96875 29.503906 C 22.316406 29.503906 22.597656 29.222656 22.597656 28.875 C 22.597656 28.527344 22.316406 28.246094 21.96875 28.246094 Z M 4.535156 9.449219 L 9.066406 9.449219 C 9.414062 9.449219 9.695312 9.164062 9.695312 8.820312 C 9.695312 8.472656 9.414062 8.191406 9.066406 8.191406 L 4.535156 8.191406 C 4.1875 8.191406 3.90625 8.472656 3.90625 8.820312 C 3.90625 9.164062 4.1875 9.449219 4.535156 9.449219 Z M 4.535156 11.378906 L 9.066406 11.378906 C 9.414062 11.378906 9.695312 11.097656 9.695312 10.75 C 9.695312 10.402344 9.414062 10.121094 9.066406 10.121094 L 4.535156 10.121094 C 4.1875 10.121094 3.90625 10.402344 3.90625 10.75 C 3.90625 11.097656 4.1875 11.378906 4.535156 11.378906 Z M 4.535156 13.3125 L 9.066406 13.3125 C 9.414062 13.3125 9.695312 13.03125 9.695312 12.683594 C 9.695312 12.335938 9.414062 12.054688 9.066406 12.054688 L 4.535156 12.054688 C 4.1875 12.054688 3.90625 12.335938 3.90625 12.683594 C 3.90625 13.03125 4.1875 13.3125 4.535156 13.3125 Z M 39 27.515625 L 39 38.371094 C 39 38.71875 38.71875 39 38.371094 39 L 0.628906 39 C 0.28125 39 0 38.71875 0 38.371094 L 0 3.59375 C 0 3.246094 0.28125 2.964844 0.628906 2.964844 L 10.554688 2.964844 L 10.554688 0.628906 C 10.554688 0.28125 10.835938 0 11.183594 0 L 30.1875 0 C 30.289062 0 30.382812 0.0234375 30.464844 0.0625 C 30.546875 0.105469 30.621094 0.164062 30.675781 0.234375 L 38.832031 9.03125 C 38.832031 9.03125 38.832031 9.035156 38.832031 9.035156 C 38.859375 9.0625 38.878906 9.09375 38.902344 9.125 C 38.902344 9.125 38.902344 9.128906 38.90625 9.132812 C 38.925781 9.160156 38.941406 9.195312 38.953125 9.226562 C 38.957031 9.230469 38.957031 9.234375 38.957031 9.238281 C 38.96875 9.269531 38.980469 9.300781 38.988281 9.335938 C 38.988281 9.339844 38.988281 9.34375 38.988281 9.351562 C 38.996094 9.382812 38.996094 9.417969 38.996094 9.449219 C 38.996094 9.453125 39 9.457031 39 9.460938 Z M 20.261719 5.195312 L 20.261719 11.792969 L 26.378906 11.792969 Z M 28.394531 26.886719 L 29.464844 26.886719 L 29.464844 23.796875 C 29.464844 23.148438 29.753906 22.558594 30.21875 22.136719 C 30.667969 21.730469 31.285156 21.476562 31.957031 21.476562 C 32.628906 21.476562 33.246094 21.730469 33.695312 22.136719 C 34.160156 22.558594 34.449219 23.148438 34.449219 23.796875 L 34.449219 26.886719 L 35.523438 26.886719 L 35.523438 23.738281 C 35.523438 22.734375 35.121094 21.824219 34.472656 21.167969 C 33.828125 20.511719 32.9375 20.101562 31.957031 20.101562 C 30.980469 20.101562 30.089844 20.511719 29.445312 21.167969 C 28.839844 21.78125 28.449219 22.613281 28.398438 23.535156 L 28.394531 25.035156 Z M 33.191406 26.886719 L 33.191406 23.796875 C 33.191406 23.515625 33.058594 23.257812 32.851562 23.066406 C 32.625 22.863281 32.308594 22.734375 31.957031 22.734375 C 31.609375 22.734375 31.292969 22.863281 31.066406 23.066406 C 30.855469 23.257812 30.726562 23.515625 30.726562 23.796875 L 30.726562 26.886719 Z M 26.171875 28.144531 L 26.171875 30.503906 L 37.742188 30.503906 L 37.742188 28.144531 Z M 30.816406 2.230469 L 30.816406 8.832031 L 36.933594 8.832031 Z M 26.171875 34.125 L 37.742188 34.125 L 37.742188 31.761719 L 26.171875 31.761719 Z M 11.8125 2.964844 L 19.632812 2.964844 C 19.734375 2.964844 19.828125 2.988281 19.910156 3.027344 C 19.992188 3.066406 20.066406 3.125 20.125 3.199219 L 28.277344 11.996094 C 28.285156 12.007812 28.296875 12.019531 28.304688 12.03125 C 28.308594 12.035156 28.3125 12.039062 28.316406 12.046875 C 28.324219 12.054688 28.332031 12.066406 28.335938 12.074219 C 28.34375 12.082031 28.347656 12.089844 28.351562 12.097656 C 28.359375 12.109375 28.363281 12.117188 28.367188 12.125 C 28.371094 12.136719 28.378906 12.144531 28.382812 12.15625 C 28.386719 12.164062 28.390625 12.171875 28.394531 12.179688 C 28.398438 12.191406 28.402344 12.199219 28.40625 12.210938 C 28.410156 12.21875 28.410156 12.230469 28.414062 12.238281 C 28.417969 12.25 28.421875 12.257812 28.421875 12.269531 C 28.425781 12.28125 28.425781 12.289062 28.429688 12.296875 C 28.429688 12.308594 28.433594 12.320312 28.4375 12.332031 C 28.4375 12.339844 28.4375 12.347656 28.4375 12.359375 C 28.441406 12.371094 28.441406 12.378906 28.441406 12.390625 C 28.441406 12.402344 28.441406 12.410156 28.441406 12.417969 C 28.441406 12.429688 28.441406 12.441406 28.441406 12.453125 C 28.441406 12.453125 28.441406 12.457031 28.441406 12.457031 L 28.410156 20.433594 C 28.453125 20.382812 28.5 20.335938 28.546875 20.285156 C 29.421875 19.398438 30.628906 18.84375 31.957031 18.84375 C 33.285156 18.84375 34.488281 19.398438 35.363281 20.285156 C 36.234375 21.175781 36.777344 22.398438 36.777344 23.738281 L 36.777344 26.886719 L 37.742188 26.886719 L 37.742188 10.085938 L 30.1875 10.089844 C 29.839844 10.089844 29.558594 9.808594 29.558594 9.460938 L 29.558594 1.257812 L 11.8125 1.257812 Z M 1.257812 37.742188 L 24.914062 37.742188 L 24.914062 27.515625 C 24.914062 27.167969 25.195312 26.886719 25.542969 26.886719 L 27.136719 26.886719 L 27.136719 23.742188 C 27.136719 23.632812 27.140625 23.523438 27.148438 23.417969 L 27.191406 13.050781 L 19.636719 13.054688 C 19.289062 13.054688 19.007812 12.773438 19.007812 12.425781 L 19.007812 4.222656 L 1.257812 4.222656 Z M 37.742188 35.382812 L 26.171875 35.382812 L 26.171875 37.742188 L 27.621094 37.742188 C 27.683594 37.722656 27.75 37.710938 27.816406 37.710938 C 27.886719 37.710938 27.953125 37.722656 28.011719 37.742188 L 37.742188 37.742188 Z M 37.742188 35.382812 " fill-opacity="1" fill-rule="nonzero"/></svg>