<svg xmlns="http://www.w3.org/2000/svg" xmlns:xlink="http://www.w3.org/1999/xlink" width="52" zoomAndPan="magnify" viewBox="0 0 39 38.999999" height="52" preserveAspectRatio="xMidYMid meet" version="1.0"><path fill="#ffffff" d="M 24.683594 15.433594 C 25.6875 14.316406 26.273438 12.902344 26.273438 11.429688 L 26.273438 9.898438 L 26.804688 9.898438 C 27.160156 9.898438 27.394531 9.660156 27.394531 9.308594 L 27.394531 6.773438 C 27.394531 6.421875 27.160156 6.1875 26.804688 6.1875 L 12.195312 6.1875 C 11.839844 6.1875 11.605469 6.421875 11.605469 6.773438 L 11.605469 9.308594 C 11.605469 9.660156 11.839844 9.898438 12.195312 9.898438 L 12.726562 9.898438 L 12.726562 11.429688 C 12.726562 12.902344 13.3125 14.316406 14.316406 15.433594 L 18.085938 19.558594 L 14.316406 23.683594 C 13.3125 24.800781 12.726562 26.214844 12.726562 27.6875 L 12.726562 29.21875 L 12.195312 29.21875 C 11.839844 29.21875 11.605469 29.457031 11.605469 29.808594 L 11.605469 32.34375 C 11.605469 32.695312 11.839844 32.933594 12.195312 32.933594 L 26.804688 32.933594 C 27.160156 32.933594 27.394531 32.695312 27.394531 32.34375 L 27.394531 29.808594 C 27.394531 29.457031 27.160156 29.21875 26.804688 29.21875 L 26.273438 29.21875 L 26.273438 27.6875 C 26.273438 26.214844 25.6875 24.800781 24.683594 23.683594 L 20.914062 19.558594 Z M 12.785156 7.363281 L 26.214844 7.363281 L 26.214844 8.71875 C 21.503906 8.71875 17.554688 8.71875 12.785156 8.71875 Z M 15.199219 14.609375 C 14.375 13.726562 13.902344 12.546875 13.902344 11.371094 L 13.902344 9.839844 L 25.097656 9.839844 L 25.097656 11.371094 C 25.097656 12.546875 24.625 13.667969 23.800781 14.609375 L 20.03125 18.734375 C 19.734375 19.027344 19.207031 19.027344 18.910156 18.734375 Z M 26.214844 31.753906 L 12.785156 31.753906 L 12.785156 30.398438 C 17.496094 30.398438 21.445312 30.398438 26.214844 30.398438 Z M 23.800781 24.507812 C 24.625 25.390625 25.097656 26.570312 25.097656 27.746094 L 25.097656 29.28125 L 13.902344 29.28125 L 13.902344 27.746094 C 13.902344 26.570312 14.375 25.449219 15.199219 24.507812 L 18.96875 20.382812 C 19.265625 20.089844 19.792969 20.089844 20.089844 20.382812 Z M 23.800781 24.507812 " fill-opacity="1" fill-rule="nonzero"/><path fill="#ffffff" d="M 3.0625 20.03125 L 5.183594 17.910156 C 5.421875 17.671875 5.421875 17.320312 5.183594 17.085938 C 4.949219 16.847656 4.59375 16.847656 4.359375 17.085938 L 3.300781 18.144531 C 4.007812 10.722656 9.425781 4.714844 16.789062 3.476562 C 17.085938 3.417969 17.320312 3.121094 17.261719 2.769531 C 17.203125 2.472656 16.90625 2.238281 16.554688 2.296875 C 8.660156 3.652344 2.769531 10.191406 2.121094 18.085938 L 1.121094 16.90625 C 0.882812 16.671875 0.53125 16.613281 0.292969 16.847656 C 0.0585938 17.085938 0 17.4375 0.234375 17.671875 L 2.238281 19.972656 C 2.355469 20.089844 2.472656 20.148438 2.652344 20.148438 C 2.769531 20.207031 2.945312 20.148438 3.0625 20.03125 Z M 3.0625 20.03125 " fill-opacity="1" fill-rule="nonzero"/><path fill="#ffffff" d="M 17.792969 33.992188 C 17.554688 33.757812 17.203125 33.757812 16.964844 33.992188 C 16.730469 34.226562 16.730469 34.582031 16.964844 34.816406 L 18.027344 35.878906 C 10.664062 35.171875 4.535156 29.457031 3.417969 22.035156 C 3.359375 21.738281 3.0625 21.503906 2.769531 21.5625 C 2.414062 21.621094 2.179688 21.914062 2.238281 22.210938 C 3.417969 30.164062 9.957031 36.230469 17.851562 36.996094 L 16.613281 37.878906 C 16.378906 38.058594 16.320312 38.46875 16.496094 38.707031 C 16.671875 38.941406 17.085938 39 17.320312 38.824219 L 19.851562 36.9375 C 19.972656 36.820312 20.089844 36.703125 20.089844 36.527344 C 20.089844 36.347656 20.03125 36.171875 19.914062 36.054688 Z M 17.792969 33.992188 " fill-opacity="1" fill-rule="nonzero"/><path fill="#ffffff" d="M 38.824219 21.503906 L 36.820312 19.207031 C 36.703125 19.085938 36.585938 19.027344 36.40625 19.027344 C 36.230469 19.027344 36.113281 19.085938 35.996094 19.207031 L 33.875 21.328125 C 33.640625 21.5625 33.640625 21.914062 33.875 22.152344 C 34.109375 22.386719 34.464844 22.386719 34.699219 22.152344 L 35.761719 21.089844 C 35.113281 28.574219 29.28125 34.816406 21.796875 35.820312 C 21.503906 35.878906 21.265625 36.171875 21.265625 36.464844 C 21.328125 36.761719 21.621094 36.996094 21.914062 36.996094 C 30.046875 35.878906 36.230469 29.160156 36.9375 21.089844 L 38 22.269531 C 38.234375 22.503906 38.585938 22.5625 38.824219 22.328125 C 39 22.09375 39 21.738281 38.824219 21.503906 Z M 38.824219 21.503906 " fill-opacity="1" fill-rule="nonzero"/><path fill="#ffffff" d="M 21.207031 5.183594 C 21.445312 5.421875 21.796875 5.421875 22.035156 5.183594 C 22.269531 4.949219 22.269531 4.59375 22.035156 4.359375 L 20.972656 3.300781 C 28.335938 4.007812 34.523438 9.78125 35.582031 17.261719 C 35.640625 17.554688 35.9375 17.792969 36.230469 17.734375 C 36.527344 17.671875 36.761719 17.378906 36.703125 17.085938 C 35.640625 9.011719 28.984375 2.828125 21.03125 2.121094 L 22.210938 1.121094 C 22.445312 0.882812 22.503906 0.53125 22.269531 0.292969 C 22.035156 0.0585938 21.679688 0 21.445312 0.234375 L 19.148438 2.179688 C 18.96875 2.296875 18.910156 2.472656 18.910156 2.652344 C 18.910156 2.828125 18.96875 3.003906 19.085938 3.121094 Z M 21.207031 5.183594 " fill-opacity="1" fill-rule="nonzero"/></svg>