<svg xmlns="http://www.w3.org/2000/svg" xmlns:xlink="http://www.w3.org/1999/xlink" width="52" zoomAndPan="magnify" viewBox="0 0 39 38.999999" height="52" preserveAspectRatio="xMidYMid meet" version="1.0"><defs><clipPath id="03acafc4fa"><path d="M 0 0 L 39 0 L 39 38.878906 L 0 38.878906 Z M 0 0 " clip-rule="nonzero"/></clipPath><clipPath id="4cd164d338"><rect x="0" width="39" y="0" height="39"/></clipPath></defs><g><g clip-path="url(#4cd164d338)"><g clip-path="url(#03acafc4fa)"><path fill="#ffffff" d="M 19.902344 24.761719 C 24.246094 24.496094 27.917969 21.753906 29.53125 17.933594 C 29.542969 17.902344 29.570312 17.882812 29.605469 17.882812 L 33.40625 17.832031 C 33.597656 17.828125 33.761719 17.78125 33.898438 17.617188 L 37.058594 13.875 C 37.089844 13.835938 37.136719 13.847656 37.195312 13.847656 C 38.1875 13.847656 38.992188 13.042969 38.992188 12.050781 C 38.992188 11.0625 38.1875 10.257812 37.195312 10.257812 C 35.621094 10.257812 34.820312 12.136719 35.878906 13.277344 C 35.90625 13.304688 35.910156 13.351562 35.882812 13.382812 L 33.171875 16.59375 C 33.15625 16.613281 33.136719 16.621094 33.113281 16.621094 L 30.085938 16.664062 C 30.03125 16.664062 29.992188 16.613281 30.007812 16.558594 C 30.207031 15.828125 30.339844 15.0625 30.386719 14.277344 C 30.390625 14.230469 30.351562 14.191406 30.304688 14.191406 L 27.152344 14.191406 C 27.113281 14.191406 27.078125 14.226562 27.074219 14.265625 C 26.742188 18.082031 23.707031 21.121094 19.890625 21.449219 C 19.851562 21.453125 19.816406 21.488281 19.816406 21.527344 L 19.816406 24.679688 C 19.816406 24.726562 19.855469 24.765625 19.902344 24.761719 Z M 21.757812 19.65625 L 21.757812 15.863281 C 21.757812 15.820312 21.796875 15.785156 21.839844 15.785156 L 23.851562 15.785156 C 24.128906 15.785156 24.421875 15.953125 24.421875 16.207031 L 24.421875 17.761719 C 24.421875 17.78125 24.417969 17.796875 24.402344 17.8125 C 23.730469 18.636719 22.863281 19.300781 21.871094 19.730469 C 21.816406 19.753906 21.757812 19.714844 21.757812 19.65625 Z M 16.660156 11.84375 L 16.660156 19.660156 C 16.660156 19.71875 16.597656 19.757812 16.546875 19.734375 C 15.554688 19.304688 14.6875 18.640625 14.015625 17.8125 C 14 17.796875 13.996094 17.78125 13.996094 17.761719 L 13.996094 9.546875 C 13.996094 9.289062 14.289062 9.121094 14.566406 9.121094 L 16.085938 9.121094 C 16.363281 9.121094 16.660156 9.289062 16.660156 9.546875 Z M 17.878906 20.082031 L 17.878906 12.53125 C 17.878906 12.488281 17.914062 12.453125 17.957031 12.453125 L 19.96875 12.453125 C 20.246094 12.453125 20.539062 12.621094 20.539062 12.878906 L 20.539062 20.082031 C 20.539062 20.121094 20.511719 20.152344 20.476562 20.160156 C 20.023438 20.246094 19.671875 20.265625 19.21875 20.296875 L 18.683594 20.257812 C 18.429688 20.242188 18.183594 20.207031 17.941406 20.164062 C 17.90625 20.15625 17.878906 20.121094 17.878906 20.082031 Z M 1.8125 17.585938 C 0.824219 17.585938 0.0195312 18.390625 0.0195312 19.382812 C 0.0195312 20.375 0.824219 21.175781 1.8125 21.175781 C 2.574219 21.175781 3.222656 20.707031 3.484375 20.039062 C 3.496094 20.007812 3.527344 19.988281 3.5625 19.988281 L 9.980469 19.988281 C 10.007812 19.988281 10.03125 20 10.046875 20.023438 C 11.949219 22.722656 15.011719 24.546875 18.515625 24.761719 C 18.5625 24.765625 18.601562 24.726562 18.601562 24.679688 L 18.601562 21.53125 C 18.601562 21.488281 18.566406 21.453125 18.527344 21.449219 C 14.722656 21.128906 11.671875 18.082031 11.34375 14.265625 C 11.339844 14.226562 11.304688 14.191406 11.265625 14.191406 L 8.113281 14.191406 C 8.066406 14.191406 8.027344 14.230469 8.03125 14.28125 C 8.128906 15.847656 8.546875 17.324219 9.222656 18.652344 C 9.25 18.707031 9.210938 18.769531 9.148438 18.769531 L 3.558594 18.769531 C 3.527344 18.769531 3.496094 18.75 3.484375 18.71875 C 3.21875 18.054688 2.574219 17.585938 1.8125 17.585938 Z M 4.359375 0.00390625 C 3.367188 0.00390625 2.5625 0.808594 2.5625 1.800781 C 2.5625 2.792969 3.367188 3.597656 4.359375 3.597656 C 5.105469 3.597656 5.746094 3.140625 6.015625 2.488281 C 6.027344 2.457031 6.058594 2.4375 6.09375 2.4375 L 9.152344 2.480469 C 9.179688 2.480469 9.207031 2.496094 9.222656 2.519531 L 11.101562 5.777344 C 11.117188 5.808594 11.113281 5.847656 11.089844 5.871094 C 9.332031 7.722656 8.199219 10.175781 8.03125 12.890625 C 8.027344 12.9375 8.066406 12.976562 8.113281 12.976562 L 11.265625 12.976562 C 11.308594 12.976562 11.339844 12.941406 11.34375 12.902344 C 11.675781 9.082031 14.714844 6.046875 18.527344 5.71875 C 18.566406 5.714844 18.601562 5.679688 18.601562 5.640625 L 18.601562 2.488281 C 18.601562 2.441406 18.5625 2.402344 18.515625 2.40625 C 16.09375 2.554688 13.878906 3.472656 12.113281 4.917969 C 12.074219 4.949219 12.019531 4.941406 11.992188 4.898438 L 10.078125 1.578125 C 9.964844 1.382812 9.765625 1.277344 9.558594 1.273438 L 6.117188 1.226562 C 6.082031 1.226562 6.054688 1.203125 6.039062 1.171875 C 5.785156 0.492188 5.128906 0.00390625 4.359375 0.00390625 Z M 34.847656 0.00390625 C 35.839844 0.00390625 36.640625 0.808594 36.640625 1.800781 C 36.640625 2.792969 35.839844 3.597656 34.847656 3.597656 C 34.234375 3.597656 33.695312 3.292969 33.371094 2.828125 C 33.355469 2.804688 33.332031 2.792969 33.304688 2.792969 L 26.761719 2.792969 C 26.714844 2.792969 26.679688 2.828125 26.679688 2.871094 L 26.679688 5.207031 C 26.679688 5.230469 26.6875 5.25 26.707031 5.265625 C 28.816406 7.171875 30.199219 9.867188 30.386719 12.890625 C 30.390625 12.9375 30.351562 12.976562 30.304688 12.976562 L 27.152344 12.976562 C 27.113281 12.976562 27.078125 12.941406 27.074219 12.902344 C 26.746094 9.085938 23.707031 6.046875 19.890625 5.71875 C 19.851562 5.714844 19.816406 5.679688 19.816406 5.640625 L 19.816406 2.488281 C 19.816406 2.441406 19.855469 2.402344 19.902344 2.40625 C 21.902344 2.527344 23.757812 3.175781 25.335938 4.210938 C 25.390625 4.246094 25.460938 4.207031 25.460938 4.140625 L 25.460938 2.183594 C 25.460938 1.847656 25.734375 1.574219 26.070312 1.574219 L 32.996094 1.574219 C 33.035156 1.574219 33.066406 1.546875 33.074219 1.503906 C 33.214844 0.652344 33.953125 0.00390625 34.847656 0.00390625 Z M 37.636719 27.988281 L 36.230469 27.988281 C 35.664062 27.988281 35.203125 28.453125 35.203125 29.015625 L 35.203125 37.695312 C 35.203125 38.261719 35.664062 38.722656 36.230469 38.722656 L 37.636719 38.722656 C 38.203125 38.722656 38.664062 38.261719 38.664062 37.695312 L 38.664062 29.015625 C 38.664062 28.453125 38.203125 27.988281 37.636719 27.988281 Z M 16.125 30.484375 C 16.277344 30.515625 16.089844 30.664062 16.195312 30.996094 C 16.601562 32.265625 17.921875 32.875 19.183594 32.609375 C 20.355469 32.363281 21.96875 31.9375 23.003906 31.839844 C 23.421875 31.800781 23.816406 31.816406 24.242188 31.875 C 24.574219 31.921875 24.882812 31.691406 24.929688 31.359375 C 24.976562 31.027344 24.746094 30.71875 24.414062 30.671875 C 24.164062 30.636719 23.910156 30.613281 23.652344 30.605469 C 22.289062 30.566406 20.386719 31.113281 18.9375 31.417969 C 18.570312 31.496094 18.203125 31.445312 17.910156 31.289062 C 16.824219 30.707031 17.171875 28.765625 18.585938 28.339844 L 24.613281 26.523438 C 27.265625 25.722656 28.933594 27.636719 31.324219 28.289062 C 32.183594 28.523438 33.046875 28.726562 33.921875 28.929688 C 33.960938 28.941406 33.984375 28.972656 33.984375 29.011719 L 33.984375 37.351562 C 33.984375 37.394531 33.949219 37.433594 33.902344 37.433594 C 31.054688 37.398438 28.152344 37.390625 25.402344 37.785156 C 23.40625 38.074219 21.429688 38.804688 19.4375 38.640625 C 16.921875 38.4375 14.257812 36.832031 12.179688 35.484375 C 9.144531 33.515625 5.445312 30.367188 2.777344 27.835938 C 2.132812 27.230469 2.070312 26.230469 2.636719 25.546875 L 2.714844 25.453125 C 3.234375 24.816406 4.121094 24.652344 4.835938 25.054688 C 8.273438 26.992188 12.371094 29.324219 14.925781 30.175781 C 15.3125 30.304688 15.710938 30.410156 16.125 30.484375 Z M 16.125 30.484375 " fill-opacity="1" fill-rule="evenodd"/></g></g></g></svg>