<svg xmlns="http://www.w3.org/2000/svg" xmlns:xlink="http://www.w3.org/1999/xlink" width="52" zoomAndPan="magnify" viewBox="0 0 39 38.999999" height="52" preserveAspectRatio="xMidYMid meet" version="1.0"><defs><clipPath id="29aa5e0306"><path d="M 1.820312 3 L 37.070312 3 L 37.070312 39 L 1.820312 39 Z M 1.820312 3 " clip-rule="nonzero"/></clipPath><clipPath id="36db1965a7"><path d="M 1.820312 10 L 26 10 L 26 12 L 1.820312 12 Z M 1.820312 10 " clip-rule="nonzero"/></clipPath><clipPath id="de3bd9aeb3"><path d="M 30 10 L 37.070312 10 L 37.070312 12 L 30 12 Z M 30 10 " clip-rule="nonzero"/></clipPath></defs><path fill="#ffffff" d="M 19.957031 37.035156 L 19.046875 37.035156 C 18.855469 37.035156 18.671875 36.996094 18.496094 36.921875 C 18.320312 36.851562 18.164062 36.746094 18.027344 36.609375 C 17.894531 36.476562 17.789062 36.320312 17.714844 36.144531 C 17.640625 35.96875 17.605469 35.785156 17.605469 35.59375 L 17.605469 35.0625 C 17.605469 34.996094 17.574219 34.957031 17.515625 34.9375 C 16.476562 34.625 15.566406 34.09375 14.777344 33.351562 C 14.730469 33.308594 14.675781 33.304688 14.621094 33.335938 L 14.160156 33.601562 C 13.996094 33.699219 13.816406 33.757812 13.628906 33.78125 C 13.4375 33.808594 13.253906 33.792969 13.066406 33.746094 C 12.882812 33.695312 12.714844 33.613281 12.5625 33.496094 C 12.414062 33.382812 12.289062 33.242188 12.195312 33.074219 L 11.738281 32.285156 C 11.644531 32.121094 11.582031 31.945312 11.558594 31.753906 C 11.535156 31.566406 11.546875 31.378906 11.597656 31.195312 C 11.644531 31.007812 11.726562 30.84375 11.84375 30.691406 C 11.960938 30.539062 12.101562 30.414062 12.265625 30.320312 L 12.726562 30.054688 C 12.785156 30.019531 12.804688 29.96875 12.785156 29.90625 C 12.535156 28.851562 12.535156 27.796875 12.785156 26.746094 C 12.800781 26.679688 12.777344 26.632812 12.722656 26.601562 L 12.261719 26.335938 C 12.097656 26.238281 11.957031 26.117188 11.839844 25.964844 C 11.722656 25.8125 11.640625 25.644531 11.589844 25.460938 C 11.542969 25.277344 11.527344 25.089844 11.554688 24.902344 C 11.578125 24.710938 11.636719 24.535156 11.734375 24.371094 L 12.1875 23.582031 C 12.285156 23.414062 12.40625 23.273438 12.558594 23.160156 C 12.710938 23.042969 12.878906 22.960938 13.0625 22.910156 C 13.246094 22.863281 13.433594 22.847656 13.621094 22.875 C 13.8125 22.898438 13.988281 22.957031 14.15625 23.054688 L 14.617188 23.320312 C 14.671875 23.351562 14.722656 23.347656 14.769531 23.300781 C 15.558594 22.558594 16.472656 22.03125 17.511719 21.71875 C 17.570312 21.699219 17.601562 21.660156 17.601562 21.597656 L 17.601562 21.0625 C 17.601562 20.871094 17.636719 20.6875 17.710938 20.511719 C 17.785156 20.335938 17.886719 20.179688 18.023438 20.046875 C 18.15625 19.910156 18.3125 19.804688 18.488281 19.734375 C 18.667969 19.660156 18.851562 19.621094 19.042969 19.621094 L 19.953125 19.621094 C 20.144531 19.621094 20.328125 19.660156 20.503906 19.734375 C 20.679688 19.804688 20.835938 19.910156 20.972656 20.046875 C 21.105469 20.179688 21.210938 20.335938 21.285156 20.511719 C 21.355469 20.6875 21.394531 20.871094 21.394531 21.0625 L 21.394531 21.597656 C 21.394531 21.660156 21.421875 21.699219 21.484375 21.71875 C 22.519531 22.03125 23.433594 22.558594 24.222656 23.300781 C 24.269531 23.347656 24.320312 23.351562 24.375 23.320312 L 24.839844 23.054688 C 25.003906 22.957031 25.183594 22.898438 25.371094 22.875 C 25.558594 22.847656 25.746094 22.863281 25.929688 22.910156 C 26.117188 22.960938 26.285156 23.042969 26.433594 23.160156 C 26.585938 23.273438 26.710938 23.414062 26.804688 23.582031 L 27.261719 24.371094 C 27.355469 24.535156 27.414062 24.710938 27.441406 24.902344 C 27.464844 25.089844 27.453125 25.277344 27.402344 25.460938 C 27.351562 25.644531 27.269531 25.8125 27.152344 25.964844 C 27.039062 26.117188 26.898438 26.238281 26.730469 26.335938 L 26.269531 26.601562 C 26.214844 26.632812 26.195312 26.679688 26.210938 26.746094 C 26.460938 27.796875 26.464844 28.851562 26.21875 29.90625 C 26.203125 29.96875 26.226562 30.015625 26.28125 30.050781 L 26.742188 30.316406 C 26.90625 30.410156 27.046875 30.535156 27.164062 30.6875 C 27.28125 30.835938 27.363281 31.003906 27.414062 31.1875 C 27.460938 31.375 27.476562 31.558594 27.449219 31.75 C 27.425781 31.9375 27.367188 32.117188 27.269531 32.28125 L 26.816406 33.070312 C 26.71875 33.234375 26.597656 33.375 26.445312 33.492188 C 26.292969 33.609375 26.125 33.691406 25.941406 33.738281 C 25.757812 33.789062 25.570312 33.800781 25.378906 33.777344 C 25.191406 33.753906 25.015625 33.691406 24.847656 33.597656 L 24.386719 33.332031 C 24.332031 33.296875 24.28125 33.304688 24.234375 33.347656 C 23.445312 34.089844 22.53125 34.617188 21.492188 34.933594 C 21.433594 34.949219 21.402344 34.992188 21.402344 35.054688 L 21.402344 35.585938 C 21.402344 35.78125 21.367188 35.964844 21.292969 36.140625 C 21.222656 36.320312 21.117188 36.476562 20.980469 36.609375 C 20.84375 36.746094 20.6875 36.851562 20.511719 36.925781 C 20.332031 36.996094 20.148438 37.035156 19.957031 37.035156 Z M 14.6875 32.003906 C 15.070312 32.007812 15.398438 32.136719 15.671875 32.398438 C 16.3125 33 17.050781 33.425781 17.890625 33.679688 C 18.195312 33.773438 18.441406 33.949219 18.628906 34.203125 C 18.816406 34.457031 18.914062 34.742188 18.914062 35.0625 L 18.914062 35.59375 C 18.914062 35.679688 18.957031 35.722656 19.042969 35.722656 L 19.957031 35.722656 C 20.042969 35.722656 20.085938 35.679688 20.085938 35.59375 L 20.085938 35.0625 C 20.085938 34.742188 20.183594 34.457031 20.371094 34.203125 C 20.5625 33.949219 20.808594 33.773438 21.109375 33.679688 C 21.949219 33.425781 22.6875 33 23.328125 32.398438 C 23.558594 32.179688 23.832031 32.050781 24.148438 32.011719 C 24.464844 31.976562 24.761719 32.039062 25.039062 32.199219 L 25.5 32.464844 C 25.53125 32.484375 25.5625 32.488281 25.597656 32.480469 C 25.632812 32.472656 25.660156 32.453125 25.679688 32.417969 L 26.136719 31.628906 C 26.152344 31.597656 26.160156 31.566406 26.148438 31.53125 C 26.140625 31.496094 26.121094 31.46875 26.089844 31.449219 L 25.628906 31.183594 C 25.351562 31.023438 25.148438 30.800781 25.023438 30.507812 C 24.894531 30.214844 24.871094 29.914062 24.945312 29.605469 C 25.144531 28.75 25.144531 27.898438 24.945312 27.046875 C 24.871094 26.734375 24.894531 26.433594 25.023438 26.140625 C 25.148438 25.847656 25.351562 25.625 25.628906 25.464844 L 26.089844 25.199219 C 26.164062 25.15625 26.179688 25.097656 26.136719 25.019531 L 25.679688 24.234375 C 25.664062 24.199219 25.636719 24.179688 25.597656 24.171875 C 25.5625 24.164062 25.53125 24.167969 25.5 24.183594 L 25.039062 24.453125 C 24.761719 24.613281 24.464844 24.675781 24.152344 24.636719 C 23.835938 24.601562 23.5625 24.472656 23.328125 24.253906 C 22.691406 23.652344 21.953125 23.226562 21.113281 22.972656 C 20.808594 22.878906 20.5625 22.703125 20.375 22.449219 C 20.183594 22.195312 20.089844 21.910156 20.085938 21.59375 L 20.085938 21.0625 C 20.085938 20.972656 20.042969 20.929688 19.957031 20.929688 L 19.046875 20.929688 C 18.960938 20.929688 18.914062 20.972656 18.914062 21.0625 L 18.914062 21.59375 C 18.914062 21.910156 18.820312 22.195312 18.628906 22.449219 C 18.441406 22.703125 18.195312 22.878906 17.890625 22.972656 C 17.050781 23.226562 16.3125 23.652344 15.675781 24.253906 C 15.441406 24.472656 15.167969 24.601562 14.851562 24.636719 C 14.535156 24.675781 14.242188 24.613281 13.964844 24.453125 L 13.503906 24.183594 C 13.472656 24.167969 13.441406 24.164062 13.40625 24.171875 C 13.367188 24.179688 13.339844 24.199219 13.324219 24.234375 L 12.867188 25.019531 C 12.824219 25.097656 12.839844 25.15625 12.914062 25.199219 L 13.375 25.464844 C 13.652344 25.625 13.855469 25.847656 13.980469 26.140625 C 14.109375 26.433594 14.132812 26.734375 14.058594 27.046875 C 13.859375 27.898438 13.859375 28.75 14.058594 29.605469 C 14.132812 29.914062 14.109375 30.214844 13.980469 30.507812 C 13.855469 30.800781 13.652344 31.023438 13.375 31.183594 L 12.914062 31.449219 C 12.882812 31.46875 12.863281 31.496094 12.855469 31.53125 C 12.84375 31.566406 12.847656 31.597656 12.867188 31.628906 L 13.324219 32.417969 C 13.339844 32.453125 13.367188 32.472656 13.40625 32.480469 C 13.441406 32.488281 13.472656 32.484375 13.503906 32.464844 L 13.964844 32.199219 C 14.191406 32.070312 14.429688 32.003906 14.6875 32.003906 Z M 14.6875 32.003906 " fill-opacity="1" fill-rule="nonzero"/><path fill="#ffffff" d="M 19.5 32.425781 C 19.234375 32.425781 18.964844 32.398438 18.703125 32.347656 C 18.4375 32.292969 18.183594 32.214844 17.933594 32.113281 C 17.6875 32.011719 17.449219 31.882812 17.226562 31.734375 C 17.003906 31.585938 16.796875 31.414062 16.605469 31.226562 C 16.414062 31.035156 16.246094 30.828125 16.09375 30.605469 C 15.945312 30.378906 15.820312 30.144531 15.71875 29.894531 C 15.613281 29.648438 15.535156 29.390625 15.484375 29.128906 C 15.429688 28.863281 15.40625 28.597656 15.40625 28.328125 C 15.40625 28.058594 15.429688 27.792969 15.484375 27.527344 C 15.535156 27.265625 15.613281 27.007812 15.71875 26.761719 C 15.820312 26.511719 15.945312 26.277344 16.09375 26.050781 C 16.246094 25.828125 16.414062 25.621094 16.605469 25.429688 C 16.796875 25.242188 17.003906 25.070312 17.226562 24.921875 C 17.449219 24.773438 17.6875 24.644531 17.933594 24.542969 C 18.183594 24.441406 18.4375 24.363281 18.703125 24.308594 C 18.964844 24.257812 19.234375 24.230469 19.5 24.230469 C 19.769531 24.230469 20.039062 24.257812 20.300781 24.308594 C 20.566406 24.363281 20.820312 24.441406 21.070312 24.542969 C 21.316406 24.644531 21.554688 24.773438 21.777344 24.921875 C 22 25.070312 22.207031 25.242188 22.398438 25.429688 C 22.589844 25.621094 22.757812 25.828125 22.90625 26.050781 C 23.058594 26.277344 23.183594 26.511719 23.285156 26.761719 C 23.390625 27.007812 23.46875 27.265625 23.519531 27.527344 C 23.570312 27.792969 23.597656 28.058594 23.597656 28.328125 C 23.597656 28.597656 23.570312 28.863281 23.519531 29.128906 C 23.464844 29.390625 23.386719 29.648438 23.285156 29.894531 C 23.183594 30.144531 23.054688 30.378906 22.90625 30.601562 C 22.757812 30.828125 22.585938 31.035156 22.398438 31.222656 C 22.207031 31.414062 22 31.582031 21.777344 31.734375 C 21.554688 31.882812 21.316406 32.007812 21.070312 32.113281 C 20.820312 32.214844 20.5625 32.292969 20.300781 32.34375 C 20.035156 32.398438 19.769531 32.425781 19.5 32.425781 Z M 19.5 25.542969 C 19.132812 25.542969 18.777344 25.613281 18.4375 25.753906 C 18.09375 25.894531 17.792969 26.097656 17.53125 26.359375 C 17.269531 26.621094 17.070312 26.921875 16.929688 27.261719 C 16.785156 27.601562 16.714844 27.957031 16.714844 28.328125 C 16.714844 28.699219 16.785156 29.054688 16.929688 29.394531 C 17.070312 29.734375 17.269531 30.035156 17.53125 30.296875 C 17.792969 30.558594 18.09375 30.761719 18.4375 30.902344 C 18.777344 31.042969 19.132812 31.113281 19.5 31.113281 C 19.871094 31.113281 20.226562 31.042969 20.566406 30.902344 C 20.910156 30.761719 21.210938 30.558594 21.472656 30.296875 C 21.734375 30.035156 21.933594 29.734375 22.074219 29.394531 C 22.21875 29.054688 22.289062 28.699219 22.289062 28.328125 C 22.289062 27.957031 22.21875 27.601562 22.074219 27.261719 C 21.933594 26.921875 21.734375 26.621094 21.472656 26.359375 C 21.210938 26.097656 20.910156 25.894531 20.566406 25.753906 C 20.226562 25.613281 19.871094 25.542969 19.5 25.542969 Z M 19.5 25.542969 " fill-opacity="1" fill-rule="nonzero"/><g clip-path="url(#29aa5e0306)"><path fill="#ffffff" d="M 34.277344 39 L 4.726562 39 C 4.34375 39 3.972656 38.925781 3.617188 38.777344 C 3.261719 38.632812 2.949219 38.421875 2.675781 38.148438 C 2.402344 37.878906 2.191406 37.5625 2.046875 37.207031 C 1.898438 36.851562 1.824219 36.484375 1.824219 36.097656 L 1.824219 6.546875 C 1.824219 6.164062 1.898438 5.792969 2.046875 5.4375 C 2.191406 5.082031 2.402344 4.769531 2.675781 4.496094 C 2.949219 4.222656 3.261719 4.015625 3.617188 3.867188 C 3.972656 3.71875 4.34375 3.644531 4.726562 3.644531 L 22.566406 3.644531 C 22.746094 3.644531 22.902344 3.710938 23.03125 3.835938 C 23.160156 3.964844 23.222656 4.121094 23.222656 4.300781 C 23.222656 4.480469 23.160156 4.636719 23.03125 4.765625 C 22.902344 4.890625 22.746094 4.957031 22.566406 4.957031 L 4.726562 4.957031 C 4.515625 4.957031 4.3125 4.996094 4.117188 5.078125 C 3.921875 5.160156 3.75 5.273438 3.601562 5.421875 C 3.453125 5.570312 3.335938 5.742188 3.257812 5.9375 C 3.175781 6.132812 3.136719 6.335938 3.136719 6.546875 L 3.136719 36.097656 C 3.136719 36.308594 3.175781 36.511719 3.257812 36.707031 C 3.335938 36.902344 3.453125 37.074219 3.601562 37.222656 C 3.75 37.371094 3.921875 37.488281 4.117188 37.566406 C 4.3125 37.648438 4.515625 37.6875 4.726562 37.6875 L 34.277344 37.6875 C 34.488281 37.6875 34.691406 37.648438 34.886719 37.566406 C 35.082031 37.488281 35.253906 37.371094 35.402344 37.222656 C 35.550781 37.074219 35.664062 36.902344 35.746094 36.707031 C 35.828125 36.511719 35.867188 36.308594 35.867188 36.097656 L 35.867188 6.546875 C 35.867188 6.335938 35.828125 6.132812 35.746094 5.9375 C 35.664062 5.742188 35.550781 5.570312 35.402344 5.421875 C 35.253906 5.273438 35.082031 5.160156 34.886719 5.078125 C 34.691406 4.996094 34.488281 4.957031 34.277344 4.957031 L 33.144531 4.957031 C 32.964844 4.957031 32.8125 4.890625 32.683594 4.765625 C 32.554688 4.636719 32.492188 4.480469 32.492188 4.300781 C 32.492188 4.121094 32.554688 3.964844 32.683594 3.835938 C 32.8125 3.710938 32.964844 3.644531 33.144531 3.644531 L 34.277344 3.644531 C 34.660156 3.644531 35.03125 3.71875 35.386719 3.867188 C 35.742188 4.015625 36.054688 4.222656 36.328125 4.496094 C 36.601562 4.769531 36.808594 5.082031 36.957031 5.4375 C 37.105469 5.792969 37.179688 6.164062 37.179688 6.546875 L 37.179688 36.097656 C 37.179688 36.484375 37.105469 36.851562 36.957031 37.207031 C 36.808594 37.5625 36.601562 37.878906 36.328125 38.148438 C 36.054688 38.421875 35.742188 38.632812 35.386719 38.777344 C 35.03125 38.925781 34.660156 39 34.277344 39 Z M 34.277344 39 " fill-opacity="1" fill-rule="nonzero"/></g><g clip-path="url(#36db1965a7)"><path fill="#ffffff" d="M 24.359375 11.953125 L 2.480469 11.953125 C 2.296875 11.953125 2.144531 11.890625 2.015625 11.761719 C 1.886719 11.632812 1.824219 11.480469 1.824219 11.296875 C 1.824219 11.117188 1.886719 10.960938 2.015625 10.835938 C 2.144531 10.707031 2.296875 10.640625 2.480469 10.640625 L 24.359375 10.640625 C 24.542969 10.640625 24.695312 10.707031 24.824219 10.835938 C 24.953125 10.960938 25.015625 11.117188 25.015625 11.296875 C 25.015625 11.480469 24.953125 11.632812 24.824219 11.761719 C 24.695312 11.890625 24.542969 11.953125 24.359375 11.953125 Z M 24.359375 11.953125 " fill-opacity="1" fill-rule="nonzero"/></g><g clip-path="url(#de3bd9aeb3)"><path fill="#ffffff" d="M 36.523438 11.953125 L 31.34375 11.953125 C 31.164062 11.953125 31.007812 11.890625 30.882812 11.761719 C 30.753906 11.632812 30.6875 11.480469 30.6875 11.296875 C 30.6875 11.117188 30.753906 10.960938 30.882812 10.835938 C 31.007812 10.707031 31.164062 10.640625 31.34375 10.640625 L 36.523438 10.640625 C 36.707031 10.640625 36.859375 10.707031 36.988281 10.835938 C 37.117188 10.960938 37.179688 11.117188 37.179688 11.296875 C 37.179688 11.480469 37.117188 11.632812 36.988281 11.761719 C 36.859375 11.890625 36.707031 11.953125 36.523438 11.953125 Z M 36.523438 11.953125 " fill-opacity="1" fill-rule="nonzero"/></g><path fill="#ffffff" d="M 7.246094 10.214844 C 6.925781 10.214844 6.617188 10.152344 6.324219 10.03125 C 6.027344 9.90625 5.765625 9.734375 5.539062 9.507812 C 5.3125 9.28125 5.136719 9.019531 5.015625 8.722656 C 4.890625 8.425781 4.832031 8.117188 4.832031 7.796875 C 4.832031 7.476562 4.890625 7.167969 5.015625 6.875 C 5.136719 6.578125 5.3125 6.316406 5.539062 6.089844 C 5.765625 5.863281 6.027344 5.6875 6.324219 5.566406 C 6.617188 5.441406 6.925781 5.382812 7.246094 5.382812 C 7.566406 5.382812 7.875 5.445312 8.171875 5.566406 C 8.46875 5.6875 8.730469 5.863281 8.957031 6.089844 C 9.183594 6.316406 9.355469 6.578125 9.480469 6.875 C 9.601562 7.171875 9.664062 7.480469 9.664062 7.800781 C 9.664062 8.121094 9.601562 8.425781 9.480469 8.722656 C 9.355469 9.019531 9.179688 9.28125 8.953125 9.507812 C 8.726562 9.734375 8.46875 9.90625 8.171875 10.03125 C 7.875 10.152344 7.566406 10.214844 7.246094 10.214844 Z M 7.246094 6.691406 C 7.101562 6.691406 6.960938 6.71875 6.824219 6.777344 C 6.6875 6.832031 6.570312 6.910156 6.464844 7.015625 C 6.363281 7.117188 6.28125 7.238281 6.226562 7.375 C 6.167969 7.507812 6.140625 7.648438 6.140625 7.796875 C 6.140625 7.941406 6.167969 8.085938 6.226562 8.21875 C 6.28125 8.355469 6.363281 8.476562 6.464844 8.578125 C 6.570312 8.683594 6.6875 8.761719 6.824219 8.816406 C 6.960938 8.875 7.101562 8.902344 7.246094 8.902344 C 7.394531 8.902344 7.535156 8.875 7.671875 8.816406 C 7.804688 8.761719 7.925781 8.683594 8.027344 8.578125 C 8.132812 8.476562 8.210938 8.355469 8.269531 8.21875 C 8.324219 8.085938 8.351562 7.941406 8.351562 7.796875 C 8.351562 7.652344 8.324219 7.507812 8.265625 7.375 C 8.210938 7.238281 8.132812 7.121094 8.027344 7.015625 C 7.925781 6.914062 7.804688 6.835938 7.667969 6.777344 C 7.535156 6.722656 7.394531 6.695312 7.246094 6.695312 Z M 7.246094 6.691406 " fill-opacity="1" fill-rule="nonzero"/><path fill="#ffffff" d="M 12.503906 10.214844 C 12.183594 10.214844 11.875 10.152344 11.578125 10.03125 C 11.28125 9.910156 11.019531 9.734375 10.792969 9.507812 C 10.566406 9.28125 10.390625 9.019531 10.269531 8.722656 C 10.148438 8.425781 10.085938 8.117188 10.085938 7.796875 C 10.085938 7.476562 10.148438 7.167969 10.269531 6.875 C 10.390625 6.578125 10.566406 6.316406 10.792969 6.089844 C 11.019531 5.863281 11.28125 5.6875 11.578125 5.566406 C 11.875 5.445312 12.179688 5.382812 12.5 5.382812 C 12.820312 5.382812 13.128906 5.445312 13.425781 5.566406 C 13.722656 5.6875 13.984375 5.863281 14.210938 6.089844 C 14.4375 6.316406 14.613281 6.578125 14.734375 6.875 C 14.855469 7.171875 14.917969 7.480469 14.917969 7.800781 C 14.917969 8.121094 14.855469 8.425781 14.734375 8.722656 C 14.609375 9.019531 14.4375 9.28125 14.210938 9.507812 C 13.984375 9.734375 13.722656 9.90625 13.425781 10.03125 C 13.128906 10.152344 12.824219 10.214844 12.503906 10.214844 Z M 12.503906 6.691406 C 12.355469 6.691406 12.214844 6.71875 12.078125 6.773438 C 11.945312 6.832031 11.824219 6.910156 11.71875 7.015625 C 11.617188 7.117188 11.535156 7.238281 11.480469 7.375 C 11.425781 7.507812 11.394531 7.648438 11.394531 7.796875 C 11.394531 7.941406 11.425781 8.082031 11.480469 8.21875 C 11.535156 8.355469 11.617188 8.472656 11.71875 8.578125 C 11.824219 8.683594 11.941406 8.761719 12.078125 8.816406 C 12.214844 8.875 12.355469 8.902344 12.5 8.902344 C 12.648438 8.902344 12.789062 8.875 12.925781 8.816406 C 13.058594 8.761719 13.179688 8.683594 13.28125 8.578125 C 13.386719 8.476562 13.464844 8.355469 13.523438 8.21875 C 13.578125 8.085938 13.605469 7.941406 13.605469 7.796875 C 13.605469 7.652344 13.578125 7.507812 13.523438 7.375 C 13.464844 7.238281 13.386719 7.121094 13.28125 7.015625 C 13.179688 6.914062 13.058594 6.835938 12.925781 6.777344 C 12.789062 6.722656 12.648438 6.695312 12.503906 6.695312 Z M 12.503906 6.691406 " fill-opacity="1" fill-rule="nonzero"/><path fill="#ffffff" d="M 17.757812 10.214844 C 17.4375 10.214844 17.128906 10.152344 16.832031 10.03125 C 16.535156 9.90625 16.273438 9.734375 16.046875 9.507812 C 15.820312 9.28125 15.648438 9.019531 15.523438 8.722656 C 15.402344 8.425781 15.339844 8.117188 15.339844 7.796875 C 15.339844 7.476562 15.402344 7.167969 15.523438 6.875 C 15.648438 6.578125 15.820312 6.316406 16.046875 6.089844 C 16.273438 5.863281 16.535156 5.6875 16.832031 5.566406 C 17.128906 5.441406 17.4375 5.382812 17.757812 5.382812 C 18.078125 5.382812 18.386719 5.445312 18.683594 5.566406 C 18.976562 5.6875 19.238281 5.863281 19.464844 6.089844 C 19.691406 6.316406 19.867188 6.578125 19.988281 6.875 C 20.113281 7.171875 20.171875 7.480469 20.171875 7.800781 C 20.171875 8.121094 20.109375 8.425781 19.988281 8.722656 C 19.867188 9.019531 19.691406 9.28125 19.464844 9.507812 C 19.238281 9.734375 18.976562 9.90625 18.679688 10.03125 C 18.386719 10.152344 18.078125 10.214844 17.757812 10.214844 Z M 17.757812 6.691406 C 17.609375 6.691406 17.46875 6.71875 17.332031 6.777344 C 17.199219 6.832031 17.078125 6.910156 16.976562 7.015625 C 16.871094 7.117188 16.792969 7.238281 16.734375 7.375 C 16.679688 7.507812 16.652344 7.648438 16.652344 7.796875 C 16.652344 7.941406 16.679688 8.085938 16.734375 8.21875 C 16.792969 8.355469 16.871094 8.476562 16.976562 8.578125 C 17.078125 8.683594 17.199219 8.761719 17.332031 8.816406 C 17.46875 8.875 17.609375 8.902344 17.757812 8.902344 C 17.902344 8.902344 18.042969 8.875 18.179688 8.816406 C 18.316406 8.761719 18.433594 8.683594 18.539062 8.578125 C 18.640625 8.476562 18.722656 8.355469 18.777344 8.21875 C 18.832031 8.085938 18.863281 7.941406 18.863281 7.796875 C 18.863281 7.652344 18.832031 7.507812 18.777344 7.375 C 18.71875 7.238281 18.640625 7.121094 18.535156 7.015625 C 18.433594 6.914062 18.3125 6.835938 18.179688 6.777344 C 18.042969 6.722656 17.902344 6.695312 17.757812 6.695312 Z M 17.757812 6.691406 " fill-opacity="1" fill-rule="nonzero"/><path fill="#ffffff" d="M 30.777344 16.347656 L 24.929688 16.347656 C 24.75 16.347656 24.59375 16.285156 24.46875 16.15625 C 24.339844 16.027344 24.273438 15.871094 24.273438 15.691406 L 24.273438 13.863281 C 24.269531 12.539062 23.839844 11.367188 22.992188 10.347656 C 22.613281 9.886719 22.304688 9.386719 22.066406 8.839844 C 21.832031 8.292969 21.675781 7.726562 21.597656 7.136719 C 21.519531 6.546875 21.527344 5.957031 21.617188 5.367188 C 21.707031 4.78125 21.878906 4.214844 22.125 3.675781 C 22.375 3.136719 22.695312 2.640625 23.082031 2.191406 C 23.472656 1.738281 23.914062 1.351562 24.414062 1.027344 C 24.910156 0.703125 25.445312 0.453125 26.015625 0.277344 C 26.582031 0.101562 27.164062 0.0117188 27.761719 0 L 27.859375 0 C 28.460938 0 29.046875 0.0859375 29.625 0.25 C 30.199219 0.417969 30.742188 0.664062 31.25 0.988281 C 31.753906 1.308594 32.207031 1.695312 32.601562 2.148438 C 33 2.597656 33.324219 3.09375 33.578125 3.636719 C 33.832031 4.183594 34.007812 4.75 34.101562 5.34375 C 34.191406 5.9375 34.199219 6.53125 34.125 7.125 C 34.046875 7.722656 33.886719 8.296875 33.648438 8.84375 C 33.40625 9.394531 33.09375 9.902344 32.710938 10.363281 C 31.863281 11.375 31.4375 12.542969 31.4375 13.863281 L 31.4375 15.691406 C 31.4375 15.875 31.371094 16.027344 31.242188 16.15625 C 31.113281 16.285156 30.960938 16.347656 30.777344 16.347656 Z M 25.585938 15.035156 L 30.121094 15.035156 L 30.121094 13.863281 C 30.125 12.226562 30.652344 10.777344 31.699219 9.519531 C 32.007812 9.152344 32.257812 8.75 32.445312 8.308594 C 32.636719 7.871094 32.761719 7.414062 32.824219 6.9375 C 32.882812 6.460938 32.875 5.988281 32.796875 5.515625 C 32.71875 5.042969 32.578125 4.589844 32.371094 4.15625 C 32.164062 3.726562 31.902344 3.332031 31.582031 2.972656 C 31.261719 2.617188 30.898438 2.3125 30.492188 2.0625 C 30.085938 1.808594 29.648438 1.617188 29.1875 1.492188 C 28.726562 1.363281 28.257812 1.304688 27.777344 1.3125 C 25.136719 1.347656 22.925781 3.527344 22.847656 6.164062 C 22.808594 7.425781 23.191406 8.539062 23.996094 9.511719 C 25.046875 10.769531 25.574219 12.222656 25.582031 13.863281 Z M 25.585938 15.035156 " fill-opacity="1" fill-rule="nonzero"/><path fill="#ffffff" d="M 29.851562 20.894531 L 25.859375 20.894531 C 25.703125 20.894531 25.566406 20.84375 25.445312 20.746094 C 25.324219 20.648438 25.246094 20.519531 25.214844 20.367188 L 24.289062 15.820312 C 24.269531 15.726562 24.269531 15.628906 24.292969 15.535156 C 24.316406 15.4375 24.359375 15.351562 24.421875 15.277344 C 24.484375 15.199219 24.5625 15.140625 24.648438 15.097656 C 24.738281 15.054688 24.832031 15.035156 24.929688 15.035156 L 30.777344 15.035156 C 30.875 15.035156 30.96875 15.054688 31.058594 15.097656 C 31.148438 15.140625 31.222656 15.199219 31.285156 15.277344 C 31.347656 15.351562 31.390625 15.4375 31.414062 15.535156 C 31.4375 15.628906 31.441406 15.726562 31.421875 15.820312 L 30.492188 20.367188 C 30.460938 20.519531 30.386719 20.648438 30.265625 20.746094 C 30.144531 20.84375 30.003906 20.894531 29.851562 20.894531 Z M 26.394531 19.582031 L 29.316406 19.582031 L 29.976562 16.34375 L 25.734375 16.34375 Z M 26.394531 19.582031 " fill-opacity="1" fill-rule="nonzero"/><path fill="#ffffff" d="M 9.894531 20.855469 C 9.777344 20.855469 9.671875 20.828125 9.570312 20.769531 C 9.472656 20.714844 9.394531 20.636719 9.332031 20.539062 C 9.273438 20.441406 9.242188 20.335938 9.238281 20.222656 C 9.234375 20.109375 9.257812 20 9.3125 19.898438 L 12.601562 13.527344 C 12.683594 13.363281 12.8125 13.257812 12.984375 13.203125 C 13.15625 13.148438 13.324219 13.160156 13.484375 13.242188 C 13.644531 13.328125 13.753906 13.453125 13.808594 13.625 C 13.863281 13.800781 13.847656 13.964844 13.765625 14.125 L 10.476562 20.5 C 10.355469 20.738281 10.160156 20.855469 9.894531 20.855469 Z M 9.894531 20.855469 " fill-opacity="1" fill-rule="nonzero"/><path fill="#ffffff" d="M 8.246094 19.453125 C 8.109375 19.453125 7.984375 19.414062 7.871094 19.335938 L 5.023438 17.347656 C 4.9375 17.285156 4.867188 17.207031 4.816406 17.113281 C 4.769531 17.015625 4.742188 16.914062 4.742188 16.808594 C 4.742188 16.703125 4.769531 16.601562 4.816406 16.503906 C 4.867188 16.410156 4.9375 16.332031 5.023438 16.269531 L 7.871094 14.28125 C 8.019531 14.179688 8.183594 14.144531 8.359375 14.179688 C 8.535156 14.210938 8.675781 14.300781 8.777344 14.449219 C 8.878906 14.59375 8.917969 14.757812 8.886719 14.933594 C 8.855469 15.109375 8.769531 15.25 8.621094 15.355469 L 6.542969 16.808594 L 8.621094 18.261719 C 8.738281 18.34375 8.820312 18.453125 8.867188 18.585938 C 8.914062 18.722656 8.914062 18.859375 8.871094 18.996094 C 8.828125 19.132812 8.75 19.242188 8.636719 19.328125 C 8.519531 19.410156 8.390625 19.453125 8.246094 19.453125 Z M 8.246094 19.453125 " fill-opacity="1" fill-rule="nonzero"/><path fill="#ffffff" d="M 14.832031 19.453125 C 14.6875 19.453125 14.558594 19.410156 14.445312 19.328125 C 14.328125 19.242188 14.25 19.132812 14.207031 18.996094 C 14.164062 18.859375 14.164062 18.722656 14.210938 18.585938 C 14.257812 18.453125 14.339844 18.34375 14.457031 18.261719 L 16.535156 16.808594 L 14.457031 15.355469 C 14.300781 15.253906 14.207031 15.113281 14.171875 14.933594 C 14.136719 14.75 14.171875 14.582031 14.277344 14.433594 C 14.382812 14.28125 14.527344 14.191406 14.710938 14.160156 C 14.894531 14.132812 15.058594 14.171875 15.207031 14.28125 L 18.054688 16.269531 C 18.144531 16.332031 18.210938 16.410156 18.261719 16.503906 C 18.308594 16.601562 18.335938 16.703125 18.335938 16.808594 C 18.335938 16.914062 18.308594 17.015625 18.261719 17.113281 C 18.210938 17.207031 18.144531 17.285156 18.054688 17.347656 L 15.207031 19.335938 C 15.09375 19.414062 14.96875 19.453125 14.832031 19.453125 Z M 14.832031 19.453125 " fill-opacity="1" fill-rule="nonzero"/><path fill="#ffffff" d="M 27.859375 16.347656 C 27.679688 16.347656 27.523438 16.285156 27.394531 16.15625 C 27.265625 16.027344 27.203125 15.871094 27.203125 15.691406 L 27.203125 8.445312 L 25.140625 6.386719 C 25.011719 6.257812 24.945312 6.101562 24.949219 5.921875 C 24.949219 5.742188 25.011719 5.585938 25.140625 5.457031 C 25.265625 5.332031 25.421875 5.265625 25.601562 5.265625 C 25.785156 5.265625 25.9375 5.328125 26.066406 5.457031 L 28.316406 7.710938 C 28.445312 7.835938 28.511719 7.992188 28.511719 8.171875 L 28.511719 15.691406 C 28.511719 15.871094 28.445312 16.027344 28.320312 16.152344 C 28.191406 16.28125 28.039062 16.347656 27.859375 16.347656 Z M 27.859375 16.347656 " fill-opacity="1" fill-rule="nonzero"/><path fill="#ffffff" d="M 27.859375 8.828125 C 27.566406 8.828125 27.363281 8.695312 27.253906 8.425781 C 27.140625 8.15625 27.1875 7.917969 27.394531 7.710938 L 29.648438 5.457031 C 29.777344 5.328125 29.929688 5.265625 30.109375 5.265625 C 30.292969 5.265625 30.445312 5.328125 30.574219 5.457031 C 30.703125 5.585938 30.765625 5.742188 30.765625 5.921875 C 30.765625 6.101562 30.703125 6.257812 30.574219 6.386719 L 28.316406 8.636719 C 28.191406 8.765625 28.039062 8.828125 27.859375 8.828125 Z M 27.859375 8.828125 " fill-opacity="1" fill-rule="nonzero"/></svg>