<svg xmlns="http://www.w3.org/2000/svg" xmlns:xlink="http://www.w3.org/1999/xlink" width="52" zoomAndPan="magnify" viewBox="0 0 39 38.999999" height="52" preserveAspectRatio="xMidYMid meet" version="1.0"><defs><clipPath id="deaca7c005"><path d="M 27 4 L 38.25 4 L 38.25 20 L 27 20 Z M 27 4 " clip-rule="nonzero"/></clipPath><clipPath id="9cc9aea52d"><path d="M 24 24 L 38.25 24 L 38.25 39 L 24 39 Z M 24 24 " clip-rule="nonzero"/></clipPath></defs><path fill="#ffffff" d="M 2.636719 0.0703125 L 7.832031 0.0703125 C 8.179688 0.0703125 8.515625 0.140625 8.839844 0.273438 C 9.164062 0.40625 9.449219 0.597656 9.695312 0.84375 C 9.945312 1.09375 10.132812 1.378906 10.269531 1.699219 C 10.402344 2.023438 10.46875 2.359375 10.46875 2.710938 L 10.46875 7.902344 C 10.46875 8.253906 10.402344 8.589844 10.269531 8.914062 C 10.132812 9.234375 9.945312 9.519531 9.695312 9.769531 C 9.449219 10.015625 9.164062 10.207031 8.839844 10.339844 C 8.515625 10.472656 8.179688 10.542969 7.832031 10.542969 L 2.636719 10.542969 C 2.289062 10.542969 1.953125 10.472656 1.628906 10.339844 C 1.304688 10.207031 1.019531 10.015625 0.773438 9.769531 C 0.527344 9.519531 0.335938 9.234375 0.199219 8.914062 C 0.0664062 8.589844 0 8.253906 0 7.902344 L 0 2.710938 C 0 2.359375 0.0664062 2.023438 0.199219 1.699219 C 0.335938 1.378906 0.527344 1.09375 0.773438 0.84375 C 1.019531 0.597656 1.304688 0.40625 1.628906 0.273438 C 1.953125 0.140625 2.289062 0.0703125 2.636719 0.0703125 Z M 2.636719 0.0703125 " fill-opacity="1" fill-rule="nonzero"/><path fill="#ffffff" d="M 31.566406 10.539062 L 16.558594 10.539062 C 16.210938 10.539062 15.871094 10.472656 15.550781 10.335938 C 15.226562 10.203125 14.941406 10.011719 14.695312 9.765625 C 14.445312 9.515625 14.257812 9.230469 14.121094 8.910156 C 13.988281 8.585938 13.921875 8.25 13.921875 7.898438 L 13.921875 2.710938 C 13.921875 2.359375 13.988281 2.023438 14.121094 1.703125 C 14.257812 1.378906 14.445312 1.09375 14.695312 0.84375 C 14.941406 0.597656 15.226562 0.40625 15.550781 0.273438 C 15.871094 0.140625 16.210938 0.0742188 16.558594 0.0703125 L 31.566406 0.0703125 C 31.914062 0.0742188 32.25 0.140625 32.574219 0.273438 C 32.898438 0.40625 33.183594 0.597656 33.429688 0.84375 C 33.679688 1.09375 33.867188 1.378906 34.003906 1.703125 C 34.136719 2.023438 34.203125 2.359375 34.203125 2.710938 L 34.203125 7.902344 C 34.203125 8.25 34.136719 8.585938 34 8.910156 C 33.867188 9.234375 33.675781 9.519531 33.429688 9.765625 C 33.183594 10.011719 32.898438 10.203125 32.574219 10.335938 C 32.25 10.472656 31.914062 10.539062 31.566406 10.539062 Z M 16.558594 1.441406 C 16.390625 1.441406 16.226562 1.472656 16.074219 1.539062 C 15.917969 1.601562 15.78125 1.695312 15.660156 1.8125 C 15.542969 1.933594 15.449219 2.070312 15.386719 2.226562 C 15.320312 2.378906 15.289062 2.542969 15.289062 2.710938 L 15.289062 7.902344 C 15.289062 8.070312 15.320312 8.230469 15.386719 8.386719 C 15.449219 8.542969 15.542969 8.679688 15.660156 8.796875 C 15.78125 8.917969 15.917969 9.007812 16.074219 9.074219 C 16.230469 9.136719 16.390625 9.171875 16.558594 9.171875 L 31.566406 9.171875 C 31.734375 9.171875 31.894531 9.136719 32.050781 9.074219 C 32.207031 9.007812 32.34375 8.917969 32.460938 8.796875 C 32.582031 8.679688 32.671875 8.542969 32.738281 8.386719 C 32.804688 8.230469 32.835938 8.070312 32.835938 7.902344 L 32.835938 2.710938 C 32.835938 2.542969 32.804688 2.378906 32.738281 2.226562 C 32.675781 2.070312 32.582031 1.933594 32.464844 1.8125 C 32.34375 1.695312 32.207031 1.601562 32.050781 1.539062 C 31.894531 1.472656 31.734375 1.441406 31.566406 1.441406 Z M 16.558594 1.441406 " fill-opacity="1" fill-rule="nonzero"/><path fill="#ffffff" d="M 22.128906 25.699219 C 21.6875 25.699219 21.25 25.65625 20.816406 25.570312 C 20.382812 25.484375 19.964844 25.355469 19.558594 25.1875 C 19.148438 25.019531 18.761719 24.8125 18.394531 24.566406 C 18.027344 24.320312 17.691406 24.042969 17.378906 23.730469 C 17.066406 23.417969 16.789062 23.082031 16.542969 22.714844 C 16.296875 22.347656 16.089844 21.960938 15.921875 21.550781 C 15.753906 21.144531 15.625 20.726562 15.539062 20.292969 C 15.453125 19.859375 15.410156 19.421875 15.410156 18.980469 C 15.410156 18.539062 15.453125 18.105469 15.539062 17.671875 C 15.625 17.238281 15.753906 16.820312 15.921875 16.410156 C 16.089844 16.003906 16.296875 15.617188 16.542969 15.25 C 16.789062 14.882812 17.066406 14.542969 17.378906 14.234375 C 17.691406 13.921875 18.03125 13.640625 18.394531 13.398438 C 18.761719 13.152344 19.148438 12.945312 19.558594 12.777344 C 19.964844 12.609375 20.386719 12.480469 20.816406 12.394531 C 21.25 12.308594 21.6875 12.265625 22.128906 12.265625 C 22.570312 12.265625 23.003906 12.308594 23.4375 12.394531 C 23.871094 12.480469 24.289062 12.609375 24.699219 12.777344 C 25.105469 12.945312 25.492188 13.152344 25.859375 13.398438 C 26.226562 13.644531 26.566406 13.921875 26.875 14.234375 C 27.1875 14.546875 27.46875 14.882812 27.710938 15.25 C 27.957031 15.617188 28.164062 16.003906 28.332031 16.414062 C 28.5 16.820312 28.628906 17.238281 28.714844 17.671875 C 28.800781 18.105469 28.84375 18.542969 28.84375 18.984375 C 28.84375 19.421875 28.800781 19.859375 28.714844 20.292969 C 28.628906 20.726562 28.5 21.144531 28.332031 21.550781 C 28.160156 21.957031 27.953125 22.347656 27.710938 22.710938 C 27.464844 23.078125 27.1875 23.417969 26.875 23.730469 C 26.5625 24.042969 26.222656 24.320312 25.855469 24.566406 C 25.492188 24.808594 25.105469 25.015625 24.695312 25.183594 C 24.289062 25.355469 23.871094 25.480469 23.4375 25.566406 C 23.003906 25.65625 22.566406 25.699219 22.128906 25.699219 Z M 22.128906 13.632812 C 21.777344 13.632812 21.429688 13.667969 21.082031 13.738281 C 20.738281 13.804688 20.40625 13.90625 20.082031 14.042969 C 19.757812 14.175781 19.449219 14.339844 19.15625 14.535156 C 18.863281 14.730469 18.59375 14.953125 18.34375 15.199219 C 18.097656 15.449219 17.875 15.71875 17.679688 16.011719 C 17.484375 16.304688 17.320312 16.613281 17.1875 16.9375 C 17.050781 17.261719 16.949219 17.59375 16.882812 17.941406 C 16.8125 18.285156 16.777344 18.632812 16.777344 18.984375 C 16.777344 19.335938 16.8125 19.683594 16.882812 20.027344 C 16.949219 20.371094 17.050781 20.703125 17.1875 21.03125 C 17.320312 21.355469 17.484375 21.664062 17.679688 21.953125 C 17.875 22.246094 18.097656 22.515625 18.34375 22.765625 C 18.59375 23.011719 18.863281 23.234375 19.15625 23.429688 C 19.449219 23.625 19.757812 23.789062 20.082031 23.925781 C 20.40625 24.058594 20.738281 24.160156 21.082031 24.226562 C 21.429688 24.296875 21.777344 24.332031 22.128906 24.332031 C 22.476562 24.332031 22.828125 24.296875 23.171875 24.226562 C 23.515625 24.160156 23.847656 24.058594 24.175781 23.925781 C 24.5 23.789062 24.804688 23.625 25.097656 23.429688 C 25.390625 23.234375 25.660156 23.011719 25.910156 22.765625 C 26.15625 22.515625 26.378906 22.246094 26.574219 21.953125 C 26.769531 21.664062 26.933594 21.355469 27.070312 21.03125 C 27.203125 20.703125 27.304688 20.371094 27.371094 20.027344 C 27.441406 19.683594 27.476562 19.335938 27.476562 18.984375 C 27.476562 18.632812 27.441406 18.285156 27.371094 17.941406 C 27.304688 17.59375 27.203125 17.261719 27.066406 16.9375 C 26.933594 16.613281 26.769531 16.304688 26.574219 16.011719 C 26.378906 15.722656 26.15625 15.449219 25.90625 15.203125 C 25.660156 14.953125 25.390625 14.734375 25.097656 14.539062 C 24.804688 14.34375 24.496094 14.179688 24.171875 14.042969 C 23.847656 13.910156 23.515625 13.808594 23.171875 13.738281 C 22.824219 13.667969 22.476562 13.636719 22.128906 13.632812 Z M 22.128906 13.632812 " fill-opacity="1" fill-rule="nonzero"/><path fill="#ffffff" d="M 22.128906 25.699219 C 21.6875 25.699219 21.25 25.65625 20.816406 25.570312 C 20.382812 25.484375 19.964844 25.355469 19.558594 25.1875 C 19.148438 25.019531 18.761719 24.8125 18.394531 24.566406 C 18.027344 24.320312 17.691406 24.042969 17.378906 23.730469 C 17.066406 23.417969 16.789062 23.082031 16.542969 22.714844 C 16.296875 22.347656 16.089844 21.960938 15.921875 21.550781 C 15.753906 21.144531 15.625 20.726562 15.539062 20.292969 C 15.453125 19.859375 15.410156 19.421875 15.410156 18.980469 C 15.410156 18.539062 15.453125 18.105469 15.539062 17.671875 C 15.625 17.238281 15.753906 16.820312 15.921875 16.410156 C 16.089844 16.003906 16.296875 15.617188 16.542969 15.25 C 16.789062 14.882812 17.066406 14.542969 17.378906 14.234375 C 17.691406 13.921875 18.03125 13.640625 18.394531 13.398438 C 18.761719 13.152344 19.148438 12.945312 19.558594 12.777344 C 19.964844 12.609375 20.386719 12.480469 20.816406 12.394531 C 21.25 12.308594 21.6875 12.265625 22.128906 12.265625 C 22.570312 12.265625 23.003906 12.308594 23.4375 12.394531 C 23.871094 12.480469 24.289062 12.609375 24.699219 12.777344 C 25.105469 12.945312 25.492188 13.152344 25.859375 13.398438 C 26.226562 13.644531 26.566406 13.921875 26.875 14.234375 C 27.1875 14.546875 27.46875 14.882812 27.710938 15.25 C 27.957031 15.617188 28.164062 16.003906 28.332031 16.414062 C 28.5 16.820312 28.628906 17.238281 28.714844 17.671875 C 28.800781 18.105469 28.84375 18.542969 28.84375 18.984375 C 28.84375 19.421875 28.800781 19.859375 28.714844 20.292969 C 28.628906 20.726562 28.5 21.144531 28.332031 21.550781 C 28.160156 21.957031 27.953125 22.347656 27.710938 22.710938 C 27.464844 23.078125 27.1875 23.417969 26.875 23.730469 C 26.5625 24.042969 26.222656 24.320312 25.855469 24.566406 C 25.492188 24.808594 25.105469 25.015625 24.695312 25.183594 C 24.289062 25.355469 23.871094 25.480469 23.4375 25.566406 C 23.003906 25.65625 22.566406 25.699219 22.128906 25.699219 Z M 22.128906 13.632812 C 21.777344 13.632812 21.429688 13.667969 21.082031 13.738281 C 20.738281 13.804688 20.40625 13.90625 20.082031 14.042969 C 19.757812 14.175781 19.449219 14.339844 19.15625 14.535156 C 18.863281 14.730469 18.59375 14.953125 18.34375 15.199219 C 18.097656 15.449219 17.875 15.71875 17.679688 16.011719 C 17.484375 16.304688 17.320312 16.613281 17.1875 16.9375 C 17.050781 17.261719 16.949219 17.59375 16.882812 17.941406 C 16.8125 18.285156 16.777344 18.632812 16.777344 18.984375 C 16.777344 19.335938 16.8125 19.683594 16.882812 20.027344 C 16.949219 20.371094 17.050781 20.703125 17.1875 21.03125 C 17.320312 21.355469 17.484375 21.664062 17.679688 21.953125 C 17.875 22.246094 18.097656 22.515625 18.34375 22.765625 C 18.59375 23.011719 18.863281 23.234375 19.15625 23.429688 C 19.449219 23.625 19.757812 23.789062 20.082031 23.925781 C 20.40625 24.058594 20.738281 24.160156 21.082031 24.226562 C 21.429688 24.296875 21.777344 24.332031 22.128906 24.332031 C 22.476562 24.332031 22.828125 24.296875 23.171875 24.226562 C 23.515625 24.160156 23.847656 24.058594 24.175781 23.925781 C 24.5 23.789062 24.804688 23.625 25.097656 23.429688 C 25.390625 23.234375 25.660156 23.011719 25.910156 22.765625 C 26.15625 22.515625 26.378906 22.246094 26.574219 21.953125 C 26.769531 21.664062 26.933594 21.355469 27.070312 21.03125 C 27.203125 20.703125 27.304688 20.371094 27.371094 20.027344 C 27.441406 19.683594 27.476562 19.335938 27.476562 18.984375 C 27.476562 18.632812 27.441406 18.285156 27.371094 17.941406 C 27.304688 17.59375 27.203125 17.261719 27.066406 16.9375 C 26.933594 16.613281 26.769531 16.304688 26.574219 16.011719 C 26.378906 15.722656 26.15625 15.449219 25.90625 15.203125 C 25.660156 14.953125 25.390625 14.734375 25.097656 14.539062 C 24.804688 14.34375 24.496094 14.179688 24.171875 14.042969 C 23.847656 13.910156 23.515625 13.808594 23.171875 13.738281 C 22.824219 13.667969 22.476562 13.636719 22.128906 13.632812 Z M 22.128906 13.632812 " fill-opacity="1" fill-rule="nonzero"/><path fill="#ffffff" d="M 7.730469 31.285156 L 2.710938 31.285156 C 2.351562 31.285156 2.003906 31.214844 1.671875 31.078125 C 1.339844 30.941406 1.046875 30.746094 0.792969 30.492188 C 0.539062 30.238281 0.34375 29.945312 0.207031 29.613281 C 0.0703125 29.28125 0 28.933594 0 28.574219 L 0 23.558594 C 0 23.199219 0.0703125 22.855469 0.207031 22.523438 C 0.34375 22.191406 0.539062 21.898438 0.792969 21.644531 C 1.046875 21.390625 1.339844 21.191406 1.671875 21.054688 C 2.003906 20.917969 2.351562 20.847656 2.710938 20.847656 L 7.730469 20.847656 C 8.089844 20.847656 8.433594 20.917969 8.765625 21.054688 C 9.097656 21.191406 9.390625 21.390625 9.644531 21.644531 C 9.898438 21.898438 10.097656 22.191406 10.234375 22.523438 C 10.371094 22.855469 10.441406 23.199219 10.441406 23.558594 L 10.441406 28.574219 C 10.441406 28.933594 10.371094 29.28125 10.234375 29.613281 C 10.097656 29.945312 9.898438 30.238281 9.644531 30.492188 C 9.390625 30.746094 9.097656 30.941406 8.765625 31.078125 C 8.433594 31.214844 8.089844 31.285156 7.730469 31.285156 Z M 2.710938 22.214844 C 2.53125 22.214844 2.359375 22.25 2.195312 22.320312 C 2.03125 22.386719 1.886719 22.484375 1.761719 22.609375 C 1.636719 22.734375 1.539062 22.882812 1.46875 23.046875 C 1.402344 23.210938 1.367188 23.378906 1.367188 23.558594 L 1.367188 28.574219 C 1.367188 28.753906 1.402344 28.925781 1.46875 29.089844 C 1.539062 29.253906 1.636719 29.398438 1.761719 29.523438 C 1.886719 29.648438 2.03125 29.746094 2.195312 29.816406 C 2.359375 29.882812 2.53125 29.917969 2.710938 29.917969 L 7.730469 29.917969 C 7.90625 29.917969 8.078125 29.882812 8.242188 29.816406 C 8.40625 29.746094 8.554688 29.648438 8.679688 29.523438 C 8.804688 29.398438 8.902344 29.253906 8.96875 29.089844 C 9.039062 28.925781 9.074219 28.753906 9.074219 28.574219 L 9.074219 23.558594 C 9.074219 23.378906 9.039062 23.210938 8.96875 23.046875 C 8.902344 22.878906 8.804688 22.734375 8.679688 22.609375 C 8.554688 22.484375 8.40625 22.386719 8.242188 22.320312 C 8.078125 22.25 7.90625 22.214844 7.730469 22.214844 Z M 2.710938 22.214844 " fill-opacity="1" fill-rule="nonzero"/><path fill="#ffffff" d="M 14.605469 5.992188 L 9.78125 5.992188 C 9.59375 5.992188 9.433594 5.925781 9.296875 5.789062 C 9.164062 5.65625 9.097656 5.496094 9.097656 5.308594 C 9.097656 5.117188 9.164062 4.957031 9.296875 4.824219 C 9.433594 4.6875 9.59375 4.621094 9.78125 4.621094 L 14.601562 4.621094 C 14.789062 4.621094 14.953125 4.6875 15.085938 4.824219 C 15.21875 4.957031 15.285156 5.117188 15.285156 5.308594 C 15.285156 5.496094 15.21875 5.65625 15.085938 5.789062 C 14.953125 5.925781 14.789062 5.992188 14.601562 5.992188 Z M 14.605469 5.992188 " fill-opacity="1" fill-rule="nonzero"/><g clip-path="url(#deaca7c005)"><path fill="#ffffff" d="M 35.90625 19.667969 L 28.160156 19.667969 C 27.96875 19.667969 27.808594 19.601562 27.675781 19.464844 C 27.542969 19.332031 27.476562 19.171875 27.476562 18.984375 C 27.476562 18.792969 27.542969 18.632812 27.675781 18.5 C 27.808594 18.367188 27.96875 18.296875 28.160156 18.296875 L 35.90625 18.296875 C 36.042969 18.296875 36.175781 18.273438 36.300781 18.21875 C 36.429688 18.167969 36.539062 18.09375 36.636719 17.996094 C 36.734375 17.898438 36.808594 17.785156 36.859375 17.660156 C 36.914062 17.53125 36.941406 17.398438 36.941406 17.261719 L 36.941406 7.027344 C 36.941406 6.886719 36.914062 6.757812 36.859375 6.628906 C 36.808594 6.503906 36.734375 6.390625 36.636719 6.292969 C 36.539062 6.199219 36.429688 6.121094 36.300781 6.070312 C 36.175781 6.015625 36.042969 5.992188 35.90625 5.992188 L 33.519531 5.992188 C 33.332031 5.992188 33.167969 5.925781 33.035156 5.789062 C 32.902344 5.65625 32.835938 5.496094 32.835938 5.308594 C 32.835938 5.117188 32.902344 4.957031 33.035156 4.824219 C 33.167969 4.6875 33.332031 4.621094 33.519531 4.621094 L 35.90625 4.621094 C 36.222656 4.621094 36.53125 4.683594 36.824219 4.804688 C 37.117188 4.929688 37.378906 5.101562 37.605469 5.328125 C 37.828125 5.550781 38.003906 5.8125 38.125 6.105469 C 38.246094 6.402344 38.308594 6.707031 38.308594 7.027344 L 38.308594 17.261719 C 38.308594 17.582031 38.246094 17.886719 38.125 18.183594 C 38.003906 18.476562 37.828125 18.738281 37.605469 18.960938 C 37.378906 19.1875 37.117188 19.359375 36.824219 19.484375 C 36.53125 19.605469 36.222656 19.667969 35.90625 19.667969 Z M 35.90625 19.667969 " fill-opacity="1" fill-rule="nonzero"/></g><path fill="#ffffff" d="M 5.234375 22.214844 C 5.046875 22.214844 4.882812 22.148438 4.75 22.015625 C 4.617188 21.882812 4.550781 21.722656 4.550781 21.53125 L 4.550781 20.765625 C 4.550781 20.441406 4.613281 20.125 4.738281 19.824219 C 4.863281 19.519531 5.042969 19.253906 5.273438 19.023438 C 5.507812 18.792969 5.773438 18.613281 6.074219 18.488281 C 6.378906 18.363281 6.691406 18.300781 7.019531 18.296875 L 16.097656 18.296875 C 16.285156 18.296875 16.445312 18.363281 16.582031 18.5 C 16.714844 18.632812 16.78125 18.792969 16.78125 18.984375 C 16.78125 19.171875 16.714844 19.332031 16.582031 19.46875 C 16.445312 19.601562 16.285156 19.667969 16.097656 19.667969 L 7.019531 19.667969 C 6.875 19.667969 6.734375 19.695312 6.597656 19.75 C 6.464844 19.808594 6.34375 19.886719 6.242188 19.988281 C 6.136719 20.09375 6.058594 20.210938 6.003906 20.347656 C 5.945312 20.480469 5.917969 20.621094 5.917969 20.765625 L 5.917969 21.53125 C 5.917969 21.722656 5.851562 21.882812 5.71875 22.015625 C 5.585938 22.148438 5.421875 22.214844 5.234375 22.214844 Z M 5.234375 22.214844 " fill-opacity="1" fill-rule="nonzero"/><path fill="#ffffff" d="M 22.574219 34.277344 L 7.175781 34.277344 C 6.828125 34.277344 6.492188 34.210938 6.171875 34.074219 C 5.847656 33.941406 5.566406 33.753906 5.320312 33.507812 C 5.074219 33.261719 4.882812 32.976562 4.75 32.65625 C 4.617188 32.335938 4.550781 32 4.550781 31.652344 L 4.550781 30.601562 C 4.550781 30.414062 4.617188 30.25 4.75 30.117188 C 4.882812 29.984375 5.046875 29.917969 5.234375 29.917969 C 5.421875 29.917969 5.585938 29.984375 5.71875 30.117188 C 5.851562 30.25 5.917969 30.414062 5.917969 30.601562 L 5.917969 31.652344 C 5.917969 31.820312 5.949219 31.980469 6.015625 32.132812 C 6.078125 32.285156 6.167969 32.421875 6.285156 32.539062 C 6.40625 32.65625 6.539062 32.75 6.695312 32.8125 C 6.847656 32.875 7.007812 32.90625 7.175781 32.90625 L 22.574219 32.90625 C 22.761719 32.90625 22.925781 32.976562 23.058594 33.109375 C 23.191406 33.242188 23.257812 33.402344 23.257812 33.59375 C 23.257812 33.78125 23.191406 33.941406 23.058594 34.074219 C 22.925781 34.210938 22.761719 34.277344 22.574219 34.277344 Z M 22.574219 34.277344 " fill-opacity="1" fill-rule="nonzero"/><path fill="#ffffff" d="M 29.449219 4.523438 L 18.675781 4.523438 C 18.488281 4.523438 18.324219 4.457031 18.191406 4.324219 C 18.058594 4.191406 17.992188 4.03125 17.992188 3.839844 C 17.992188 3.652344 18.058594 3.492188 18.191406 3.355469 C 18.324219 3.222656 18.488281 3.15625 18.675781 3.15625 L 29.449219 3.15625 C 29.636719 3.15625 29.800781 3.222656 29.933594 3.355469 C 30.066406 3.492188 30.132812 3.652344 30.132812 3.839844 C 30.132812 4.03125 30.066406 4.191406 29.933594 4.324219 C 29.800781 4.457031 29.636719 4.523438 29.449219 4.523438 Z M 29.449219 4.523438 " fill-opacity="1" fill-rule="nonzero"/><path fill="#ffffff" d="M 22.890625 7.457031 L 18.675781 7.457031 C 18.488281 7.457031 18.324219 7.390625 18.191406 7.253906 C 18.058594 7.121094 17.992188 6.960938 17.992188 6.773438 C 17.992188 6.582031 18.058594 6.421875 18.191406 6.289062 C 18.324219 6.15625 18.488281 6.085938 18.675781 6.085938 L 22.890625 6.085938 C 23.078125 6.085938 23.238281 6.15625 23.375 6.289062 C 23.507812 6.421875 23.574219 6.582031 23.574219 6.773438 C 23.574219 6.960938 23.507812 7.121094 23.375 7.253906 C 23.238281 7.390625 23.078125 7.457031 22.890625 7.457031 Z M 22.890625 7.457031 " fill-opacity="1" fill-rule="nonzero"/><g clip-path="url(#9cc9aea52d)"><path fill="#ffffff" d="M 31.59375 24.949219 C 31.152344 24.949219 30.714844 24.992188 30.28125 25.078125 C 29.851562 25.164062 29.429688 25.289062 29.023438 25.460938 C 28.613281 25.628906 28.226562 25.835938 27.863281 26.082031 C 27.496094 26.324219 27.15625 26.605469 26.84375 26.914062 C 26.53125 27.226562 26.253906 27.566406 26.007812 27.933594 C 25.761719 28.300781 25.554688 28.6875 25.386719 29.09375 C 25.21875 29.5 25.089844 29.921875 25.003906 30.355469 C 24.917969 30.785156 24.875 31.222656 24.875 31.664062 C 24.875 32.105469 24.917969 32.542969 25.003906 32.976562 C 25.089844 33.40625 25.21875 33.828125 25.386719 34.234375 C 25.554688 34.640625 25.761719 35.03125 26.007812 35.394531 C 26.253906 35.761719 26.53125 36.101562 26.84375 36.414062 C 27.15625 36.726562 27.492188 37.003906 27.859375 37.25 C 28.226562 37.496094 28.613281 37.703125 29.023438 37.871094 C 29.429688 38.039062 29.847656 38.167969 30.28125 38.253906 C 30.714844 38.339844 31.152344 38.382812 31.59375 38.382812 C 32.03125 38.382812 32.46875 38.339844 32.902344 38.253906 C 33.335938 38.167969 33.753906 38.039062 34.164062 37.871094 C 34.570312 37.703125 34.957031 37.496094 35.324219 37.25 C 35.691406 37.003906 36.03125 36.726562 36.339844 36.414062 C 36.652344 36.101562 36.929688 35.761719 37.175781 35.398438 C 37.421875 35.03125 37.628906 34.644531 37.796875 34.234375 C 37.964844 33.828125 38.09375 33.40625 38.179688 32.976562 C 38.265625 32.542969 38.308594 32.105469 38.308594 31.664062 C 38.308594 31.222656 38.265625 30.789062 38.179688 30.355469 C 38.09375 29.921875 37.964844 29.503906 37.796875 29.097656 C 37.625 28.6875 37.417969 28.300781 37.175781 27.9375 C 36.929688 27.570312 36.652344 27.230469 36.339844 26.917969 C 36.027344 26.605469 35.6875 26.328125 35.320312 26.082031 C 34.957031 25.839844 34.570312 25.632812 34.160156 25.460938 C 33.753906 25.292969 33.335938 25.164062 32.902344 25.078125 C 32.46875 24.992188 32.035156 24.949219 31.59375 24.949219 Z M 35.023438 30.132812 L 30.988281 34.164062 C 30.855469 34.296875 30.695312 34.363281 30.503906 34.363281 C 30.316406 34.363281 30.15625 34.296875 30.023438 34.164062 L 28.160156 32.300781 C 28.027344 32.167969 27.960938 32.007812 27.960938 31.816406 C 27.960938 31.628906 28.027344 31.46875 28.160156 31.332031 C 28.292969 31.199219 28.457031 31.132812 28.644531 31.132812 C 28.835938 31.132812 28.996094 31.199219 29.128906 31.335938 L 30.511719 32.714844 L 34.058594 29.164062 C 34.191406 29.039062 34.351562 28.976562 34.539062 28.980469 C 34.722656 28.984375 34.878906 29.050781 35.011719 29.179688 C 35.140625 29.3125 35.207031 29.46875 35.210938 29.652344 C 35.214844 29.839844 35.152344 30 35.023438 30.132812 Z M 35.023438 30.132812 " fill-opacity="1" fill-rule="nonzero"/></g><path fill="#ffffff" d="M 6.757812 25.523438 L 3.679688 25.523438 C 3.492188 25.523438 3.328125 25.457031 3.195312 25.324219 C 3.0625 25.191406 2.996094 25.027344 2.996094 24.839844 C 2.996094 24.652344 3.0625 24.488281 3.195312 24.355469 C 3.328125 24.222656 3.492188 24.15625 3.679688 24.15625 L 6.757812 24.15625 C 6.945312 24.15625 7.109375 24.222656 7.242188 24.355469 C 7.375 24.488281 7.441406 24.652344 7.441406 24.839844 C 7.441406 25.027344 7.375 25.191406 7.242188 25.324219 C 7.109375 25.457031 6.945312 25.523438 6.757812 25.523438 Z M 6.757812 25.523438 " fill-opacity="1" fill-rule="nonzero"/><path fill="#ffffff" d="M 6.757812 27.976562 L 3.679688 27.976562 C 3.492188 27.976562 3.328125 27.910156 3.195312 27.777344 C 3.0625 27.644531 2.996094 27.484375 2.996094 27.292969 C 2.996094 27.105469 3.0625 26.945312 3.195312 26.8125 C 3.328125 26.675781 3.492188 26.609375 3.679688 26.609375 L 6.757812 26.609375 C 6.945312 26.609375 7.109375 26.675781 7.242188 26.8125 C 7.375 26.945312 7.441406 27.105469 7.441406 27.292969 C 7.441406 27.484375 7.375 27.644531 7.242188 27.777344 C 7.109375 27.910156 6.945312 27.976562 6.757812 27.976562 Z M 6.757812 27.976562 " fill-opacity="1" fill-rule="nonzero"/><path fill="#ffffff" d="M 22.128906 22.003906 C 21.726562 22.003906 21.339844 21.925781 20.972656 21.773438 C 20.601562 21.621094 20.273438 21.402344 19.992188 21.117188 C 19.707031 20.835938 19.488281 20.507812 19.335938 20.140625 C 19.183594 19.769531 19.105469 19.382812 19.105469 18.984375 C 19.105469 18.582031 19.183594 18.195312 19.335938 17.828125 C 19.488281 17.457031 19.707031 17.128906 19.992188 16.847656 C 20.273438 16.5625 20.601562 16.34375 20.972656 16.191406 C 21.339844 16.039062 21.726562 15.960938 22.128906 15.960938 C 22.527344 15.960938 22.914062 16.039062 23.285156 16.191406 C 23.652344 16.34375 23.980469 16.5625 24.261719 16.847656 C 24.546875 17.128906 24.765625 17.457031 24.917969 17.828125 C 25.070312 18.195312 25.148438 18.582031 25.148438 18.984375 C 25.148438 19.382812 25.070312 19.769531 24.917969 20.136719 C 24.765625 20.507812 24.546875 20.835938 24.261719 21.117188 C 23.980469 21.402344 23.652344 21.621094 23.28125 21.773438 C 22.914062 21.925781 22.527344 22.003906 22.128906 22.003906 Z M 22.128906 17.332031 C 21.90625 17.332031 21.699219 17.371094 21.496094 17.457031 C 21.292969 17.539062 21.113281 17.660156 20.957031 17.8125 C 20.804688 17.96875 20.683594 18.148438 20.601562 18.351562 C 20.515625 18.554688 20.472656 18.761719 20.472656 18.984375 C 20.472656 19.203125 20.515625 19.414062 20.601562 19.617188 C 20.683594 19.816406 20.804688 19.996094 20.957031 20.152344 C 21.113281 20.304688 21.292969 20.425781 21.496094 20.507812 C 21.699219 20.59375 21.90625 20.636719 22.128906 20.636719 C 22.347656 20.636719 22.558594 20.59375 22.761719 20.511719 C 22.960938 20.425781 23.140625 20.304688 23.296875 20.152344 C 23.449219 19.996094 23.570312 19.816406 23.652344 19.617188 C 23.738281 19.414062 23.78125 19.203125 23.78125 18.984375 C 23.78125 18.765625 23.738281 18.554688 23.652344 18.351562 C 23.570312 18.148438 23.449219 17.96875 23.296875 17.816406 C 23.140625 17.660156 22.960938 17.539062 22.757812 17.457031 C 22.558594 17.371094 22.347656 17.332031 22.128906 17.332031 Z M 22.128906 17.332031 " fill-opacity="1" fill-rule="nonzero"/><path fill="#ffffff" d="M 22.128906 17.332031 C 21.9375 17.332031 21.777344 17.261719 21.644531 17.128906 C 21.511719 16.996094 21.441406 16.835938 21.441406 16.644531 L 21.441406 15.539062 C 21.441406 15.347656 21.511719 15.1875 21.644531 15.054688 C 21.777344 14.917969 21.9375 14.851562 22.128906 14.851562 C 22.316406 14.851562 22.476562 14.917969 22.609375 15.054688 C 22.746094 15.1875 22.8125 15.347656 22.8125 15.539062 L 22.8125 16.644531 C 22.8125 16.835938 22.746094 16.996094 22.609375 17.128906 C 22.476562 17.261719 22.316406 17.332031 22.128906 17.332031 Z M 22.128906 17.332031 " fill-opacity="1" fill-rule="nonzero"/><path fill="#ffffff" d="M 20.476562 18.015625 C 20.285156 18.015625 20.125 17.949219 19.992188 17.8125 L 19.207031 17.03125 C 19.070312 16.898438 19 16.734375 19 16.542969 C 18.996094 16.351562 19.0625 16.1875 19.199219 16.054688 C 19.335938 15.917969 19.496094 15.851562 19.6875 15.855469 C 19.878906 15.855469 20.042969 15.925781 20.175781 16.0625 L 20.957031 16.847656 C 21.175781 17.0625 21.222656 17.308594 21.105469 17.59375 C 20.992188 17.875 20.78125 18.015625 20.476562 18.015625 Z M 20.476562 18.015625 " fill-opacity="1" fill-rule="nonzero"/><path fill="#ffffff" d="M 19.789062 19.667969 L 18.683594 19.667969 C 18.492188 19.667969 18.332031 19.601562 18.199219 19.464844 C 18.066406 19.332031 18 19.171875 18 18.984375 C 18 18.792969 18.066406 18.632812 18.199219 18.5 C 18.332031 18.367188 18.492188 18.296875 18.683594 18.296875 L 19.789062 18.296875 C 19.980469 18.296875 20.140625 18.367188 20.273438 18.5 C 20.40625 18.632812 20.472656 18.792969 20.472656 18.984375 C 20.472656 19.171875 20.40625 19.332031 20.273438 19.464844 C 20.140625 19.601562 19.980469 19.667969 19.789062 19.667969 Z M 19.789062 19.667969 " fill-opacity="1" fill-rule="nonzero"/><path fill="#ffffff" d="M 19.691406 22.101562 C 19.386719 22.101562 19.175781 21.960938 19.058594 21.679688 C 18.941406 21.398438 18.992188 21.152344 19.207031 20.933594 L 19.992188 20.152344 C 20.125 20.023438 20.285156 19.957031 20.472656 19.960938 C 20.660156 19.960938 20.820312 20.027344 20.949219 20.160156 C 21.082031 20.292969 21.148438 20.449219 21.152344 20.636719 C 21.152344 20.824219 21.089844 20.984375 20.957031 21.117188 L 20.175781 21.902344 C 20.042969 22.035156 19.878906 22.101562 19.691406 22.101562 Z M 19.691406 22.101562 " fill-opacity="1" fill-rule="nonzero"/><path fill="#ffffff" d="M 22.128906 23.113281 C 21.9375 23.113281 21.777344 23.046875 21.644531 22.910156 C 21.511719 22.777344 21.441406 22.617188 21.441406 22.429688 L 21.441406 21.320312 C 21.441406 21.128906 21.511719 20.96875 21.644531 20.835938 C 21.777344 20.703125 21.9375 20.636719 22.128906 20.636719 C 22.316406 20.636719 22.476562 20.703125 22.609375 20.835938 C 22.746094 20.96875 22.8125 21.128906 22.8125 21.320312 L 22.8125 22.429688 C 22.8125 22.617188 22.746094 22.777344 22.609375 22.910156 C 22.476562 23.046875 22.316406 23.113281 22.128906 23.113281 Z M 22.128906 23.113281 " fill-opacity="1" fill-rule="nonzero"/><path fill="#ffffff" d="M 24.5625 22.101562 C 24.375 22.101562 24.214844 22.035156 24.078125 21.902344 L 23.296875 21.117188 C 23.167969 20.984375 23.101562 20.824219 23.105469 20.636719 C 23.105469 20.449219 23.171875 20.292969 23.304688 20.160156 C 23.4375 20.027344 23.597656 19.960938 23.78125 19.960938 C 23.96875 19.957031 24.128906 20.023438 24.265625 20.152344 L 25.046875 20.9375 C 25.261719 21.152344 25.3125 21.402344 25.195312 21.683594 C 25.078125 21.964844 24.867188 22.105469 24.5625 22.105469 Z M 24.5625 22.101562 " fill-opacity="1" fill-rule="nonzero"/><path fill="#ffffff" d="M 25.574219 19.667969 L 24.464844 19.667969 C 24.273438 19.667969 24.113281 19.601562 23.980469 19.464844 C 23.847656 19.332031 23.78125 19.171875 23.78125 18.984375 C 23.78125 18.792969 23.847656 18.632812 23.980469 18.5 C 24.113281 18.367188 24.273438 18.296875 24.464844 18.296875 L 25.574219 18.296875 C 25.761719 18.296875 25.921875 18.367188 26.054688 18.5 C 26.191406 18.632812 26.257812 18.792969 26.257812 18.984375 C 26.257812 19.171875 26.191406 19.332031 26.054688 19.464844 C 25.921875 19.601562 25.761719 19.667969 25.574219 19.667969 Z M 25.574219 19.667969 " fill-opacity="1" fill-rule="nonzero"/><path fill="#ffffff" d="M 23.78125 18.015625 C 23.476562 18.015625 23.265625 17.875 23.148438 17.59375 C 23.03125 17.308594 23.082031 17.0625 23.296875 16.847656 L 24.078125 16.0625 C 24.214844 15.933594 24.375 15.867188 24.5625 15.871094 C 24.746094 15.871094 24.90625 15.9375 25.039062 16.070312 C 25.171875 16.203125 25.238281 16.363281 25.238281 16.546875 C 25.242188 16.734375 25.175781 16.894531 25.046875 17.03125 L 24.265625 17.8125 C 24.128906 17.949219 23.96875 18.015625 23.78125 18.015625 Z M 23.78125 18.015625 " fill-opacity="1" fill-rule="nonzero"/></svg>