<svg xmlns="http://www.w3.org/2000/svg" xmlns:xlink="http://www.w3.org/1999/xlink" width="52" zoomAndPan="magnify" viewBox="0 0 39 38.999999" height="52" preserveAspectRatio="xMidYMid meet" version="1.0"><defs><clipPath id="55a17a1062"><path d="M 1.265625 0 L 38 0 L 38 39 L 1.265625 39 Z M 1.265625 0 " clip-rule="nonzero"/></clipPath></defs><g clip-path="url(#55a17a1062)"><path fill="#ffffff" d="M 34.234375 28.625 C 33.453125 29.082031 32.351562 29.800781 31.078125 30.628906 C 27.859375 32.726562 22.472656 36.234375 20.828125 36.140625 C 16.859375 35.921875 12.722656 35.21875 8.769531 35.816406 L 8.769531 28.769531 C 9.710938 28.722656 10.839844 28.628906 11.980469 28.394531 C 12.667969 28.25 13.960938 27.664062 15.277344 27.0625 C 17.898438 25.875 18.097656 25.917969 20.53125 26.417969 C 21.359375 26.589844 22.183594 26.742188 23.09375 27 C 24.632812 27.441406 25.480469 27.972656 25.480469 28.5 C 25.480469 28.808594 25.386719 29.160156 25.1875 29.378906 C 24.859375 29.726562 24.308594 30.054688 23.746094 29.949219 L 19.300781 29.105469 C 19.230469 29.09375 19.15625 29.09375 19.085938 29.105469 L 17.121094 29.464844 C 16.800781 29.519531 16.585938 29.828125 16.648438 30.148438 C 16.703125 30.472656 17.011719 30.683594 17.335938 30.625 L 19.191406 30.285156 L 23.523438 31.109375 C 23.671875 31.136719 23.816406 31.152344 23.96875 31.152344 C 24.613281 31.152344 25.265625 30.890625 25.8125 30.414062 C 25.867188 30.402344 25.917969 30.382812 25.972656 30.351562 L 33.957031 25.976562 C 34.945312 25.515625 35.816406 25.726562 36.0625 26.1875 C 36.324219 26.691406 35.867188 27.667969 34.234375 28.625 Z M 7.585938 37.160156 C 7.585938 37.519531 7.296875 37.8125 6.933594 37.8125 L 3.097656 37.8125 C 2.738281 37.8125 2.445312 37.519531 2.445312 37.160156 L 2.445312 28.078125 C 2.445312 27.71875 2.738281 27.425781 3.097656 27.425781 L 6.933594 27.425781 C 7.296875 27.425781 7.585938 27.71875 7.585938 28.078125 Z M 37.175781 25.597656 C 36.566406 24.4375 34.941406 24.113281 33.402344 24.84375 C 33.394531 24.847656 33.378906 24.855469 33.367188 24.859375 L 26.742188 28.496094 C 26.734375 26.914062 24.851562 26.195312 23.4375 25.789062 C 22.488281 25.519531 21.636719 25.359375 20.785156 25.183594 C 18.097656 24.628906 17.636719 24.609375 14.761719 25.914062 C 13.613281 26.433594 12.28125 27.042969 11.722656 27.160156 C 10.65625 27.382812 9.582031 27.46875 8.679688 27.511719 C 8.441406 26.777344 7.75 26.242188 6.933594 26.242188 L 3.097656 26.242188 C 2.085938 26.242188 1.265625 27.066406 1.265625 28.078125 L 1.265625 37.160156 C 1.265625 38.171875 2.085938 38.996094 3.097656 38.996094 L 6.933594 38.996094 C 7.945312 38.996094 8.769531 38.171875 8.769531 37.160156 L 8.769531 37.089844 C 11.5 36.640625 14.207031 36.871094 17.257812 37.136719 C 18.390625 37.234375 19.558594 37.335938 20.761719 37.402344 C 22.671875 37.511719 27.003906 34.789062 31.765625 31.6875 C 33.023438 30.867188 34.113281 30.15625 34.871094 29.714844 C 37.390625 28.238281 37.714844 26.621094 37.175781 25.597656 Z M 12.007812 19.011719 C 11.246094 19.011719 10.621094 18.390625 10.621094 17.628906 C 10.621094 16.871094 11.246094 16.25 12.007812 16.25 C 12.769531 16.25 13.386719 16.871094 13.386719 17.628906 C 13.386719 18.390625 12.769531 19.011719 12.007812 19.011719 Z M 12.007812 15.066406 C 10.59375 15.066406 9.441406 16.21875 9.441406 17.628906 C 9.441406 19.042969 10.59375 20.195312 12.007812 20.195312 C 13.421875 20.195312 14.566406 19.042969 14.566406 17.628906 C 14.566406 16.21875 13.421875 15.066406 12.007812 15.066406 Z M 10.667969 6.023438 C 11.089844 5.683594 11.539062 5.644531 12.109375 5.644531 C 12.613281 5.644531 13.027344 5.773438 13.347656 6.023438 C 13.710938 6.316406 13.667969 6.554688 13.65625 6.648438 L 12.597656 12.753906 C 12.585938 12.835938 12.367188 12.992188 11.992188 12.992188 C 11.632812 12.992188 11.417969 12.824219 11.410156 12.753906 L 10.359375 6.648438 C 10.34375 6.558594 10.296875 6.316406 10.667969 6.023438 Z M 10.242188 12.953125 C 10.371094 13.671875 11.105469 14.171875 12.019531 14.171875 C 12.90625 14.171875 13.644531 13.660156 13.765625 12.953125 L 14.820312 6.847656 C 14.929688 6.191406 14.671875 5.570312 14.082031 5.101562 C 13.558594 4.683594 12.878906 4.460938 12.109375 4.460938 L 11.898438 4.460938 C 11.136719 4.460938 10.453125 4.683594 9.929688 5.101562 C 9.34375 5.570312 9.078125 6.191406 9.191406 6.847656 Z M 2.9375 4.65625 C 2.863281 11.972656 3.609375 19.265625 12.007812 22.09375 C 20.402344 19.265625 21.144531 11.972656 21.070312 4.65625 C 15.402344 2.316406 8.605469 2.316406 2.9375 4.65625 Z M 11.824219 23.277344 C 11.941406 23.316406 12.0625 23.316406 12.1875 23.277344 C 16.449219 21.894531 19.261719 19.363281 20.785156 15.546875 C 22.160156 12.101562 22.300781 8.082031 22.25 4.253906 C 22.246094 4.019531 22.105469 3.8125 21.890625 3.71875 C 15.714844 1.050781 8.289062 1.050781 2.117188 3.71875 C 1.902344 3.8125 1.765625 4.019531 1.765625 4.253906 C 1.710938 8.082031 1.855469 12.101562 3.222656 15.546875 C 4.746094 19.363281 7.558594 21.894531 11.824219 23.277344 Z M 33.785156 1.179688 C 34.722656 1.179688 35.484375 1.941406 35.484375 2.878906 C 35.484375 3.816406 34.722656 4.578125 33.785156 4.578125 C 32.851562 4.578125 32.082031 3.816406 32.082031 2.878906 C 32.082031 1.941406 32.851562 1.179688 33.785156 1.179688 Z M 33.785156 9.867188 C 34.722656 9.867188 35.484375 10.628906 35.484375 11.566406 C 35.484375 12.503906 34.722656 13.265625 33.785156 13.265625 C 32.851562 13.265625 32.082031 12.503906 32.082031 11.566406 C 32.082031 10.628906 32.851562 9.867188 33.785156 9.867188 Z M 33.785156 18.554688 C 34.722656 18.554688 35.484375 19.316406 35.484375 20.253906 C 35.484375 21.191406 34.722656 21.953125 33.785156 21.953125 C 32.851562 21.953125 32.082031 21.191406 32.082031 20.253906 C 32.082031 19.316406 32.851562 18.554688 33.785156 18.554688 Z M 24.449219 12.15625 L 27.960938 12.15625 L 27.960938 20.253906 C 27.960938 20.578125 28.222656 20.84375 28.546875 20.84375 L 30.964844 20.84375 C 31.238281 22.148438 32.398438 23.132812 33.785156 23.132812 C 35.375 23.132812 36.664062 21.839844 36.664062 20.253906 C 36.664062 18.664062 35.375 17.371094 33.785156 17.371094 C 32.398438 17.371094 31.238281 18.355469 30.964844 19.660156 L 29.140625 19.660156 L 29.140625 12.15625 L 30.964844 12.15625 C 31.238281 13.460938 32.398438 14.445312 33.785156 14.445312 C 35.375 14.445312 36.664062 13.152344 36.664062 11.566406 C 36.664062 9.976562 35.375 8.683594 33.785156 8.683594 C 32.398438 8.683594 31.238281 9.667969 30.964844 10.972656 L 29.140625 10.972656 L 29.140625 3.46875 L 30.964844 3.46875 C 31.238281 4.773438 32.398438 5.757812 33.785156 5.757812 C 35.375 5.757812 36.664062 4.46875 36.664062 2.878906 C 36.664062 1.289062 35.375 -0.00390625 33.785156 -0.00390625 C 32.398438 -0.00390625 31.238281 0.980469 30.964844 2.285156 L 28.546875 2.285156 C 28.222656 2.285156 27.960938 2.550781 27.960938 2.878906 L 27.960938 10.972656 L 24.449219 10.972656 C 24.121094 10.972656 23.859375 11.238281 23.859375 11.566406 C 23.859375 11.890625 24.121094 12.15625 24.449219 12.15625 Z M 24.449219 12.15625 " fill-opacity="1" fill-rule="evenodd"/></g></svg>