<svg xmlns="http://www.w3.org/2000/svg" xmlns:xlink="http://www.w3.org/1999/xlink" width="52" zoomAndPan="magnify" viewBox="0 0 39 38.999999" height="52" preserveAspectRatio="xMidYMid meet" version="1.0"><defs><clipPath id="a30b71d81f"><path d="M 0.109375 1.949219 L 39 1.949219 L 39 37.199219 L 0.109375 37.199219 Z M 0.109375 1.949219 " clip-rule="nonzero"/></clipPath></defs><g clip-path="url(#a30b71d81f)"><path fill="#ffffff" d="M 37.675781 25.914062 L 25.988281 5.671875 C 25.660156 5.109375 25.269531 4.597656 24.808594 4.136719 C 24.351562 3.679688 23.839844 3.285156 23.273438 2.960938 C 22.710938 2.636719 22.117188 2.386719 21.488281 2.21875 C 20.859375 2.050781 20.222656 1.96875 19.570312 1.96875 C 18.921875 1.96875 18.28125 2.050781 17.652344 2.21875 C 17.023438 2.386719 16.429688 2.636719 15.867188 2.960938 C 15.304688 3.285156 14.792969 3.679688 14.332031 4.136719 C 13.871094 4.597656 13.480469 5.109375 13.15625 5.671875 L 1.46875 25.914062 C 1.132812 26.476562 0.878906 27.070312 0.707031 27.699219 C 0.535156 28.328125 0.449219 28.96875 0.449219 29.621094 C 0.449219 30.269531 0.535156 30.910156 0.707031 31.539062 C 0.878906 32.167969 1.132812 32.761719 1.46875 33.324219 C 1.785156 33.890625 2.171875 34.410156 2.632812 34.875 C 3.089844 35.335938 3.601562 35.730469 4.164062 36.058594 C 4.730469 36.382812 5.328125 36.628906 5.957031 36.792969 C 6.589844 36.957031 7.230469 37.035156 7.882812 37.027344 L 31.257812 37.027344 C 31.582031 37.027344 31.90625 37.007812 32.226562 36.964844 C 32.546875 36.921875 32.863281 36.859375 33.175781 36.773438 C 33.488281 36.691406 33.792969 36.585938 34.09375 36.464844 C 34.394531 36.339844 34.683594 36.195312 34.960938 36.035156 C 35.242188 35.871094 35.511719 35.695312 35.769531 35.496094 C 36.023438 35.300781 36.269531 35.085938 36.496094 34.859375 C 36.726562 34.628906 36.9375 34.386719 37.136719 34.128906 C 37.332031 33.871094 37.511719 33.605469 37.675781 33.324219 C 37.835938 33.042969 37.980469 32.753906 38.101562 32.453125 C 38.226562 32.15625 38.332031 31.847656 38.414062 31.535156 C 38.5 31.222656 38.5625 30.90625 38.601562 30.585938 C 38.644531 30.265625 38.667969 29.941406 38.667969 29.617188 C 38.667969 29.296875 38.644531 28.972656 38.601562 28.652344 C 38.5625 28.332031 38.5 28.015625 38.414062 27.703125 C 38.332031 27.390625 38.226562 27.082031 38.101562 26.785156 C 37.980469 26.484375 37.835938 26.195312 37.675781 25.914062 Z M 36.3125 32.539062 C 36.0625 32.984375 35.757812 33.390625 35.394531 33.757812 C 35.035156 34.121094 34.632812 34.433594 34.1875 34.691406 C 33.742188 34.945312 33.273438 35.140625 32.777344 35.269531 C 32.277344 35.398438 31.773438 35.460938 31.261719 35.453125 L 7.882812 35.453125 C 7.628906 35.453125 7.375 35.4375 7.121094 35.402344 C 6.867188 35.371094 6.621094 35.320312 6.375 35.253906 C 6.125 35.1875 5.886719 35.105469 5.652344 35.007812 C 5.414062 34.910156 5.1875 34.800781 4.964844 34.671875 C 4.746094 34.542969 4.535156 34.402344 4.332031 34.25 C 4.128906 34.09375 3.9375 33.925781 3.757812 33.746094 C 3.578125 33.566406 3.410156 33.375 3.253906 33.171875 C 3.101562 32.96875 2.957031 32.757812 2.832031 32.539062 C 2.703125 32.316406 2.589844 32.089844 2.492188 31.851562 C 2.398438 31.617188 2.316406 31.375 2.25 31.128906 C 2.183594 30.882812 2.132812 30.636719 2.101562 30.382812 C 2.066406 30.128906 2.050781 29.875 2.050781 29.621094 C 2.050781 29.367188 2.066406 29.113281 2.101562 28.859375 C 2.132812 28.605469 2.183594 28.355469 2.25 28.109375 C 2.316406 27.863281 2.394531 27.625 2.492188 27.390625 C 2.589844 27.152344 2.703125 26.925781 2.832031 26.703125 L 14.519531 6.460938 C 14.773438 6.015625 15.085938 5.613281 15.445312 5.253906 C 15.808594 4.890625 16.210938 4.582031 16.652344 4.324219 C 17.097656 4.070312 17.566406 3.875 18.0625 3.742188 C 18.554688 3.609375 19.058594 3.542969 19.570312 3.542969 C 20.082031 3.542969 20.585938 3.609375 21.082031 3.742188 C 21.574219 3.875 22.042969 4.070312 22.488281 4.324219 C 22.929688 4.582031 23.332031 4.890625 23.695312 5.253906 C 24.058594 5.613281 24.367188 6.015625 24.621094 6.460938 L 36.3125 26.703125 C 36.574219 27.144531 36.773438 27.613281 36.910156 28.109375 C 37.046875 28.601562 37.113281 29.109375 37.113281 29.621094 C 37.113281 30.132812 37.046875 30.636719 36.910156 31.132812 C 36.773438 31.628906 36.574219 32.097656 36.3125 32.539062 Z M 23.394531 7.171875 C 23.296875 7.003906 23.191406 6.84375 23.074219 6.691406 C 22.957031 6.535156 22.828125 6.390625 22.695312 6.257812 C 22.558594 6.121094 22.414062 5.992188 22.257812 5.875 C 22.105469 5.757812 21.945312 5.652344 21.78125 5.554688 C 21.613281 5.457031 21.441406 5.375 21.261719 5.300781 C 21.082031 5.226562 20.902344 5.164062 20.714844 5.113281 C 20.527344 5.0625 20.339844 5.027344 20.148438 5 C 19.957031 4.976562 19.765625 4.964844 19.574219 4.964844 C 19.378906 4.964844 19.1875 4.976562 18.996094 5 C 18.804688 5.027344 18.617188 5.0625 18.429688 5.113281 C 18.246094 5.164062 18.0625 5.226562 17.882812 5.300781 C 17.707031 5.375 17.53125 5.457031 17.367188 5.554688 C 17.199219 5.652344 17.039062 5.757812 16.886719 5.875 C 16.734375 5.992188 16.589844 6.121094 16.453125 6.257812 C 16.316406 6.390625 16.1875 6.535156 16.070312 6.691406 C 15.953125 6.84375 15.847656 7.003906 15.75 7.171875 L 4.0625 27.414062 C 3.964844 27.582031 3.878906 27.753906 3.804688 27.933594 C 3.730469 28.109375 3.671875 28.292969 3.621094 28.476562 C 3.570312 28.664062 3.53125 28.851562 3.507812 29.042969 C 3.484375 29.234375 3.46875 29.429688 3.46875 29.621094 C 3.46875 29.8125 3.484375 30.003906 3.507812 30.195312 C 3.53125 30.386719 3.570312 30.578125 3.621094 30.761719 C 3.671875 30.949219 3.730469 31.132812 3.804688 31.308594 C 3.878906 31.488281 3.964844 31.660156 4.0625 31.828125 C 4.15625 31.996094 4.265625 32.15625 4.382812 32.308594 C 4.5 32.460938 4.625 32.605469 4.761719 32.742188 C 4.898438 32.878906 5.042969 33.003906 5.195312 33.121094 C 5.351562 33.238281 5.511719 33.347656 5.675781 33.441406 C 5.84375 33.539062 6.015625 33.625 6.195312 33.699219 C 6.371094 33.773438 6.554688 33.832031 6.742188 33.882812 C 6.925781 33.933594 7.117188 33.972656 7.308594 33.996094 C 7.5 34.023438 7.691406 34.035156 7.882812 34.035156 L 31.257812 34.035156 C 31.453125 34.035156 31.644531 34.023438 31.835938 33.996094 C 32.027344 33.972656 32.214844 33.933594 32.402344 33.882812 C 32.585938 33.832031 32.769531 33.773438 32.949219 33.699219 C 33.125 33.625 33.296875 33.539062 33.464844 33.441406 C 33.632812 33.347656 33.792969 33.238281 33.945312 33.121094 C 34.097656 33.003906 34.242188 32.878906 34.378906 32.742188 C 34.515625 32.605469 34.640625 32.460938 34.757812 32.308594 C 34.875 32.152344 34.984375 31.992188 35.078125 31.828125 C 35.175781 31.660156 35.261719 31.488281 35.335938 31.308594 C 35.410156 31.132812 35.472656 30.949219 35.519531 30.761719 C 35.570312 30.578125 35.609375 30.386719 35.632812 30.195312 C 35.660156 30.003906 35.671875 29.8125 35.671875 29.621094 C 35.671875 29.425781 35.660156 29.234375 35.632812 29.042969 C 35.609375 28.851562 35.570312 28.664062 35.519531 28.476562 C 35.472656 28.292969 35.410156 28.109375 35.335938 27.933594 C 35.261719 27.753906 35.175781 27.582031 35.078125 27.414062 Z M 33.71875 31.039062 C 33.476562 31.488281 33.132812 31.84375 32.691406 32.097656 C 32.246094 32.355469 31.769531 32.472656 31.257812 32.457031 L 7.882812 32.457031 C 7.632812 32.457031 7.390625 32.425781 7.148438 32.363281 C 6.90625 32.296875 6.679688 32.203125 6.464844 32.078125 C 6.25 31.953125 6.050781 31.804688 5.875 31.628906 C 5.699219 31.453125 5.550781 31.253906 5.425781 31.039062 C 5.300781 30.824219 5.207031 30.597656 5.140625 30.355469 C 5.078125 30.113281 5.042969 29.871094 5.042969 29.621094 C 5.042969 29.371094 5.078125 29.125 5.140625 28.886719 C 5.207031 28.644531 5.300781 28.417969 5.425781 28.203125 L 17.113281 7.957031 C 17.238281 7.742188 17.386719 7.546875 17.5625 7.371094 C 17.738281 7.195312 17.9375 7.042969 18.152344 6.917969 C 18.367188 6.792969 18.59375 6.699219 18.835938 6.636719 C 19.078125 6.570312 19.320312 6.539062 19.570312 6.539062 C 19.820312 6.539062 20.066406 6.570312 20.304688 6.636719 C 20.546875 6.699219 20.773438 6.792969 20.988281 6.917969 C 21.207031 7.042969 21.402344 7.195312 21.578125 7.371094 C 21.753906 7.546875 21.902344 7.742188 22.027344 7.957031 L 33.714844 28.203125 C 33.984375 28.636719 34.117188 29.109375 34.117188 29.621094 C 34.117188 30.132812 33.984375 30.605469 33.714844 31.039062 Z M 20.363281 24.964844 L 20.363281 25.148438 C 20.363281 25.367188 20.285156 25.554688 20.132812 25.707031 C 19.976562 25.859375 19.792969 25.9375 19.574219 25.9375 C 19.355469 25.9375 19.171875 25.859375 19.015625 25.707031 C 18.863281 25.554688 18.785156 25.367188 18.785156 25.148438 L 18.785156 24.964844 C 18.785156 24.746094 18.863281 24.5625 19.015625 24.40625 C 19.171875 24.253906 19.355469 24.175781 19.574219 24.175781 C 19.792969 24.175781 19.976562 24.253906 20.132812 24.40625 C 20.285156 24.5625 20.363281 24.746094 20.363281 24.964844 Z M 20.363281 13.84375 L 20.363281 21.917969 C 20.363281 22.136719 20.285156 22.320312 20.132812 22.476562 C 19.976562 22.628906 19.792969 22.707031 19.574219 22.707031 C 19.355469 22.707031 19.171875 22.628906 19.015625 22.476562 C 18.863281 22.320312 18.785156 22.136719 18.785156 21.917969 L 18.785156 13.84375 C 18.785156 13.628906 18.863281 13.441406 19.015625 13.289062 C 19.171875 13.132812 19.355469 13.058594 19.574219 13.058594 C 19.792969 13.058594 19.976562 13.132812 20.132812 13.289062 C 20.285156 13.441406 20.363281 13.628906 20.363281 13.84375 Z M 20.363281 13.84375 " fill-opacity="1" fill-rule="nonzero"/></g></svg>