<svg xmlns="http://www.w3.org/2000/svg" xmlns:xlink="http://www.w3.org/1999/xlink" width="52" zoomAndPan="magnify" viewBox="0 0 39 38.999999" height="52" preserveAspectRatio="xMidYMid meet" version="1.0"><defs><clipPath id="ebe3e4387b"><path d="M 0 0.925781 L 30 0.925781 L 30 37 L 0 37 Z M 0 0.925781 " clip-rule="nonzero"/></clipPath></defs><g clip-path="url(#ebe3e4387b)"><path fill="#ffffff" d="M 28.742188 36.4375 L 0.449219 36.4375 C 0.207031 36.4375 0.0078125 36.238281 0.0078125 35.996094 L 0.0078125 1.371094 C 0.0078125 1.125 0.207031 0.925781 0.449219 0.925781 L 28.742188 0.925781 C 28.988281 0.925781 29.183594 1.125 29.183594 1.371094 L 29.1875 14.832031 C 29.1875 15.078125 28.988281 15.277344 28.742188 15.277344 C 28.496094 15.277344 28.296875 15.078125 28.296875 14.832031 L 28.296875 1.816406 L 0.894531 1.816406 L 0.894531 35.550781 L 28.296875 35.550781 L 28.296875 30.429688 C 28.296875 30.183594 28.496094 29.988281 28.742188 29.988281 C 28.988281 29.988281 29.183594 30.183594 29.183594 30.429688 L 29.1875 35.996094 C 29.1875 36.238281 28.988281 36.4375 28.742188 36.4375 Z M 28.742188 36.4375 " fill-opacity="1" fill-rule="evenodd"/></g><path fill="#ffffff" d="M 17.136719 17.332031 Z M 22.4375 15.582031 C 20.554688 15.582031 18.78125 16.3125 17.453125 17.644531 C 16.121094 18.976562 15.386719 20.746094 15.386719 22.628906 C 15.386719 24.515625 16.121094 26.285156 17.453125 27.617188 C 18.78125 28.949219 20.554688 29.683594 22.4375 29.683594 C 24.320312 29.683594 26.089844 28.949219 27.421875 27.617188 C 28.753906 26.285156 29.488281 24.515625 29.488281 22.628906 C 29.488281 20.746094 28.753906 18.976562 27.421875 17.644531 C 26.089844 16.3125 24.320312 15.582031 22.4375 15.582031 Z M 22.4375 30.570312 C 20.316406 30.570312 18.324219 29.742188 16.824219 28.246094 C 15.324219 26.746094 14.5 24.75 14.5 22.628906 C 14.5 20.511719 15.324219 18.515625 16.824219 17.019531 C 18.324219 15.519531 20.316406 14.691406 22.4375 14.691406 C 24.558594 14.691406 26.550781 15.519531 28.050781 17.019531 C 29.550781 18.515625 30.375 20.511719 30.375 22.628906 C 30.375 24.75 29.550781 26.746094 28.050781 28.246094 C 26.550781 29.746094 24.558594 30.570312 22.4375 30.570312 Z M 22.4375 30.570312 " fill-opacity="1" fill-rule="evenodd"/><path fill="#ffffff" d="M 15.660156 15.855469 C 11.921875 19.589844 11.921875 25.671875 15.660156 29.40625 C 17.527344 31.277344 19.984375 32.210938 22.4375 32.210938 C 24.890625 32.210938 27.347656 31.277344 29.214844 29.40625 C 32.953125 25.671875 32.949219 19.589844 29.214844 15.855469 C 25.476562 12.117188 19.398438 12.117188 15.660156 15.855469 Z M 22.4375 33.097656 C 19.753906 33.097656 17.074219 32.078125 15.03125 30.035156 C 10.949219 25.953125 10.949219 19.308594 15.03125 15.226562 C 19.113281 11.144531 25.757812 11.140625 29.84375 15.226562 C 33.925781 19.308594 33.925781 25.953125 29.84375 30.035156 C 27.800781 32.078125 25.117188 33.097656 22.4375 33.097656 Z M 22.4375 33.097656 " fill-opacity="1" fill-rule="evenodd"/><path fill="#ffffff" d="M 31.46875 32.105469 C 31.355469 32.105469 31.242188 32.0625 31.15625 31.976562 L 29.214844 30.035156 C 29.039062 29.863281 29.039062 29.582031 29.214844 29.40625 C 29.386719 29.234375 29.667969 29.234375 29.84375 29.40625 L 31.78125 31.347656 C 31.957031 31.523438 31.957031 31.804688 31.78125 31.976562 C 31.695312 32.0625 31.582031 32.105469 31.46875 32.105469 Z M 31.46875 32.105469 " fill-opacity="1" fill-rule="evenodd"/><path fill="#ffffff" d="M 32.589844 31.644531 C 32.28125 31.644531 31.996094 31.761719 31.78125 31.976562 C 31.339844 32.421875 31.339844 33.144531 31.78125 33.585938 L 35.964844 37.769531 C 36.175781 37.980469 36.464844 38.101562 36.769531 38.101562 C 37.074219 38.101562 37.359375 37.980469 37.574219 37.769531 C 38.019531 37.324219 38.019531 36.601562 37.574219 36.15625 L 33.394531 31.976562 C 33.179688 31.761719 32.894531 31.644531 32.589844 31.644531 Z M 36.769531 38.988281 C 36.25 38.988281 35.730469 38.792969 35.335938 38.398438 L 31.15625 34.214844 C 30.363281 33.425781 30.363281 32.140625 31.15625 31.347656 C 31.945312 30.558594 33.230469 30.558594 34.023438 31.347656 L 38.203125 35.527344 C 38.992188 36.320312 38.992188 37.605469 38.203125 38.398438 C 37.808594 38.792969 37.289062 38.988281 36.769531 38.988281 Z M 36.769531 38.988281 " fill-opacity="1" fill-rule="evenodd"/><path fill="#ffffff" d="M 21.695312 25.152344 C 21.582031 25.152344 21.46875 25.109375 21.378906 25.023438 L 18.707031 22.351562 C 18.535156 22.179688 18.535156 21.898438 18.707031 21.722656 C 18.882812 21.550781 19.164062 21.550781 19.335938 21.722656 L 21.695312 24.082031 L 25.539062 20.238281 C 25.710938 20.066406 25.992188 20.066406 26.164062 20.238281 C 26.339844 20.414062 26.339844 20.691406 26.164062 20.867188 L 22.007812 25.023438 C 21.921875 25.109375 21.808594 25.152344 21.695312 25.152344 Z M 21.695312 25.152344 " fill-opacity="1" fill-rule="evenodd"/><path fill="#ffffff" d="M 5.328125 9.003906 L 7.503906 9.003906 L 7.503906 5.667969 L 5.328125 5.667969 Z M 7.945312 9.890625 L 4.882812 9.890625 C 4.640625 9.890625 4.441406 9.691406 4.441406 9.445312 L 4.441406 5.222656 C 4.441406 4.976562 4.640625 4.777344 4.882812 4.777344 L 7.945312 4.777344 C 8.191406 4.777344 8.390625 4.976562 8.390625 5.222656 L 8.390625 9.445312 C 8.390625 9.691406 8.191406 9.890625 7.945312 9.890625 Z M 7.945312 9.890625 " fill-opacity="1" fill-rule="evenodd"/><path fill="#ffffff" d="M 24.308594 7.78125 L 10.585938 7.78125 C 10.339844 7.78125 10.140625 7.582031 10.140625 7.335938 C 10.140625 7.089844 10.339844 6.890625 10.585938 6.890625 L 24.308594 6.890625 C 24.554688 6.890625 24.753906 7.089844 24.753906 7.335938 C 24.753906 7.582031 24.554688 7.78125 24.308594 7.78125 Z M 24.308594 7.78125 " fill-opacity="1" fill-rule="evenodd"/><path fill="#ffffff" d="M 5.328125 16.566406 L 7.503906 16.566406 L 7.503906 13.234375 L 5.328125 13.234375 Z M 7.945312 17.457031 L 4.882812 17.457031 C 4.640625 17.457031 4.441406 17.257812 4.441406 17.011719 L 4.441406 12.789062 C 4.441406 12.542969 4.640625 12.34375 4.882812 12.34375 L 7.945312 12.34375 C 8.191406 12.34375 8.390625 12.542969 8.390625 12.789062 L 8.390625 17.011719 C 8.390625 17.257812 8.191406 17.457031 7.945312 17.457031 Z M 7.945312 17.457031 " fill-opacity="1" fill-rule="evenodd"/><path fill="#ffffff" d="M 16.050781 15.34375 L 10.585938 15.34375 C 10.339844 15.34375 10.140625 15.144531 10.140625 14.902344 C 10.140625 14.65625 10.339844 14.457031 10.585938 14.457031 L 16.050781 14.457031 C 16.292969 14.457031 16.492188 14.65625 16.492188 14.902344 C 16.492188 15.144531 16.292969 15.34375 16.050781 15.34375 Z M 16.050781 15.34375 " fill-opacity="1" fill-rule="evenodd"/><path fill="#ffffff" d="M 5.328125 24.132812 L 7.503906 24.132812 L 7.503906 20.796875 L 5.328125 20.796875 Z M 7.945312 25.019531 L 4.882812 25.019531 C 4.640625 25.019531 4.441406 24.820312 4.441406 24.578125 L 4.441406 20.355469 C 4.441406 20.109375 4.640625 19.910156 4.882812 19.910156 L 7.945312 19.910156 C 8.191406 19.910156 8.390625 20.109375 8.390625 20.355469 L 8.390625 24.578125 C 8.390625 24.820312 8.191406 25.019531 7.945312 25.019531 Z M 7.945312 25.019531 " fill-opacity="1" fill-rule="evenodd"/><path fill="#ffffff" d="M 12.410156 22.910156 L 10.585938 22.910156 C 10.339844 22.910156 10.140625 22.710938 10.140625 22.464844 C 10.140625 22.21875 10.339844 22.023438 10.585938 22.023438 L 12.410156 22.023438 C 12.65625 22.023438 12.855469 22.21875 12.855469 22.464844 C 12.855469 22.710938 12.65625 22.910156 12.410156 22.910156 Z M 12.410156 22.910156 " fill-opacity="1" fill-rule="evenodd"/><path fill="#ffffff" d="M 5.328125 31.699219 L 7.503906 31.699219 L 7.503906 28.363281 L 5.328125 28.363281 Z M 7.945312 32.585938 L 4.882812 32.585938 C 4.640625 32.585938 4.441406 32.386719 4.441406 32.140625 L 4.441406 27.917969 C 4.441406 27.675781 4.640625 27.476562 4.882812 27.476562 L 7.945312 27.476562 C 8.191406 27.476562 8.390625 27.675781 8.390625 27.917969 L 8.390625 32.140625 C 8.390625 32.386719 8.191406 32.585938 7.945312 32.585938 Z M 7.945312 32.585938 " fill-opacity="1" fill-rule="evenodd"/><path fill="#ffffff" d="M 15.667969 30.472656 L 10.585938 30.472656 C 10.339844 30.472656 10.140625 30.277344 10.140625 30.03125 C 10.140625 29.785156 10.339844 29.585938 10.585938 29.585938 L 15.667969 29.585938 C 15.914062 29.585938 16.113281 29.785156 16.113281 30.03125 C 16.113281 30.277344 15.914062 30.472656 15.667969 30.472656 Z M 15.667969 30.472656 " fill-opacity="1" fill-rule="evenodd"/></svg>