<svg xmlns="http://www.w3.org/2000/svg" xmlns:xlink="http://www.w3.org/1999/xlink" width="52" zoomAndPan="magnify" viewBox="0 0 39 38.999999" height="52" preserveAspectRatio="xMidYMid meet" version="1.0"><defs><clipPath id="8c36483ca0"><path d="M 0 0 L 38.25 0 L 38.25 39 L 0 39 Z M 0 0 " clip-rule="nonzero"/></clipPath></defs><g clip-path="url(#8c36483ca0)"><path fill="#ffffff" d="M 21.109375 29.113281 L 19.667969 29.113281 C 19.34375 29.113281 19.082031 29.375 19.082031 29.703125 L 19.082031 33.039062 C 18.125 32.988281 17.1875 32.808594 16.28125 32.511719 C 13.210938 31.5 10.707031 29.105469 9.554688 26.082031 C 9.609375 25.675781 9.71875 25.625 9.777344 25.601562 C 9.796875 25.589844 9.820312 25.582031 9.84375 25.566406 L 11.347656 26.433594 C 12.605469 27.160156 14.121094 26 13.746094 24.59375 C 13.632812 24.167969 13.363281 23.816406 12.988281 23.605469 L 8.902344 21.195312 C 9.03125 19.839844 9.40625 18.550781 10.019531 17.347656 L 12.402344 18.726562 L 11.976562 19.460938 C 11.332031 20.578125 11.71875 22.015625 12.835938 22.667969 C 13.957031 23.316406 15.398438 22.929688 16.042969 21.808594 L 16.46875 21.070312 L 19.082031 22.578125 L 19.082031 26.183594 C 19.082031 26.503906 19.34375 26.773438 19.667969 26.773438 L 21.109375 26.773438 C 21.757812 26.773438 22.277344 27.296875 22.277344 27.941406 C 22.277344 28.585938 21.753906 29.113281 21.109375 29.113281 Z M 13.796875 33.289062 C 14.023438 33.417969 14.691406 33.414062 15.0625 33.316406 C 12.003906 32.035156 9.550781 29.488281 8.402344 26.359375 C 8.375 26.277344 8.363281 26.191406 8.371094 26.101562 C 8.46875 25.042969 8.90625 24.710938 9.28125 24.535156 C 9.289062 24.53125 9.296875 24.527344 9.300781 24.527344 C 9.640625 24.328125 10.042969 24.328125 10.382812 24.519531 L 11.933594 25.417969 C 12.15625 25.546875 12.4375 25.46875 12.566406 25.25 C 12.691406 25.03125 12.621094 24.75 12.398438 24.621094 L 6.476562 21.128906 L 4.234375 25.011719 L 5.171875 25.550781 C 5.558594 25.773438 5.863281 26.050781 6.125 26.417969 C 8.710938 30.046875 10.085938 31.144531 13.796875 33.289062 Z M 2.773438 25.183594 L 1.367188 24.371094 L 4.472656 19 L 5.878906 19.8125 Z M 5.9375 19.707031 Z M 21.109375 25.589844 L 20.257812 25.589844 L 20.257812 22.242188 C 20.257812 22.027344 20.144531 21.835938 19.964844 21.730469 L 16.550781 19.757812 C 16.265625 19.597656 15.90625 19.691406 15.746094 19.976562 L 15.027344 21.21875 C 14.507812 22.121094 13.152344 21.949219 12.882812 20.9375 C 12.800781 20.632812 12.839844 20.316406 12.996094 20.050781 L 13.714844 18.800781 C 13.878906 18.523438 13.78125 18.160156 13.5 17.996094 L 10.085938 16.027344 C 9.804688 15.867188 9.445312 15.960938 9.28125 16.242188 C 8.507812 17.582031 8.011719 19.023438 7.796875 20.539062 L 7.042969 20.097656 C 7.199219 19.632812 7.007812 19.109375 6.566406 18.851562 L 4.957031 17.921875 C 4.453125 17.628906 3.804688 17.804688 3.511719 18.308594 L 0.292969 23.886719 C 0 24.398438 0.175781 25.042969 0.679688 25.332031 L 2.289062 26.261719 C 2.738281 26.519531 3.296875 26.417969 3.632812 26.023438 L 4.582031 26.566406 C 4.828125 26.710938 5.003906 26.871094 5.167969 27.105469 C 7.863281 30.886719 9.382812 32.101562 13.207031 34.308594 C 13.957031 34.738281 15.714844 34.667969 16.246094 33.886719 C 16.273438 33.84375 16.300781 33.800781 16.332031 33.761719 C 17.410156 34.074219 18.53125 34.230469 19.667969 34.230469 C 19.992188 34.230469 20.257812 33.96875 20.257812 33.640625 L 20.257812 30.285156 L 21.109375 30.285156 C 22.402344 30.285156 23.453125 29.234375 23.453125 27.941406 C 23.453125 26.644531 22.398438 25.589844 21.109375 25.589844 Z M 15.644531 10.230469 C 14.933594 10.863281 14.3125 11.585938 13.792969 12.390625 L 16.683594 14.0625 C 16.964844 14.222656 17.058594 14.585938 16.898438 14.863281 L 16.179688 16.109375 C 15.855469 16.667969 16.046875 17.386719 16.605469 17.710938 C 17.164062 18.03125 17.886719 17.839844 18.207031 17.277344 L 18.925781 16.035156 C 19.089844 15.75 19.449219 15.65625 19.730469 15.820312 L 22.851562 17.621094 L 25.460938 16.113281 L 25.035156 15.375 C 24.386719 14.253906 24.773438 12.816406 25.894531 12.167969 C 27.003906 11.527344 28.449219 11.902344 29.101562 13.03125 L 29.527344 13.761719 L 31.910156 12.390625 C 31.175781 11.253906 30.246094 10.289062 29.136719 9.5 L 25.007812 11.835938 C 24.21875 12.28125 23.230469 12.019531 22.777344 11.230469 C 22.324219 10.449219 22.597656 9.445312 23.375 8.996094 L 24.878906 8.125 C 24.882812 8.097656 24.882812 8.070312 24.886719 8.050781 C 24.890625 7.988281 24.902344 7.867188 24.578125 7.621094 C 21.503906 7.125 18.304688 8.007812 15.917969 9.996094 Z M 16.214844 7.691406 C 19.929688 5.542969 21.566406 4.90625 26 4.476562 C 26.449219 4.4375 26.839844 4.316406 27.230469 4.085938 L 28.167969 3.546875 L 30.410156 7.429688 L 24.425781 10.8125 C 24.207031 10.9375 23.921875 10.863281 23.796875 10.644531 C 23.667969 10.421875 23.746094 10.140625 23.964844 10.011719 L 25.515625 9.117188 C 25.855469 8.921875 26.054688 8.574219 26.054688 8.179688 C 26.054688 8.171875 26.054688 8.160156 26.054688 8.15625 C 26.09375 7.746094 26.023438 7.195312 25.152344 6.582031 C 25.082031 6.53125 25 6.5 24.914062 6.480469 C 21.628906 5.910156 18.199219 6.765625 15.5625 8.777344 C 15.660156 8.398438 15.992188 7.820312 16.214844 7.691406 Z M 30.152344 1.386719 L 33.253906 6.757812 L 31.851562 7.570312 L 28.746094 2.199219 Z M 12.679688 13.109375 L 15.585938 14.785156 L 15.160156 15.523438 C 14.246094 17.109375 15.425781 19.042969 17.1875 19.042969 C 18.023438 19.042969 18.804688 18.59375 19.226562 17.867188 L 19.652344 17.132812 L 22.558594 18.808594 C 22.738281 18.914062 22.960938 18.914062 23.144531 18.808594 L 26.558594 16.835938 C 26.839844 16.671875 26.9375 16.316406 26.773438 16.035156 L 26.054688 14.789062 C 25.730469 14.230469 25.921875 13.511719 26.484375 13.1875 C 27.042969 12.867188 27.761719 13.058594 28.082031 13.613281 L 28.804688 14.863281 C 28.964844 15.148438 29.324219 15.242188 29.605469 15.078125 L 33.023438 13.105469 C 33.300781 12.945312 33.398438 12.582031 33.238281 12.300781 C 32.464844 10.960938 31.464844 9.8125 30.257812 8.867188 L 31.019531 8.433594 C 31.355469 8.8125 31.894531 8.898438 32.335938 8.648438 L 33.945312 7.71875 C 34.449219 7.429688 34.625 6.777344 34.332031 6.273438 L 31.109375 0.695312 C 30.820312 0.191406 30.171875 0.015625 29.667969 0.304688 L 28.054688 1.234375 C 27.601562 1.5 27.417969 2.042969 27.59375 2.519531 L 26.644531 3.070312 C 26.398438 3.210938 26.171875 3.285156 25.890625 3.308594 C 21.265625 3.75 19.457031 4.464844 15.628906 6.667969 C 14.898438 7.089844 14.054688 8.652344 14.476562 9.515625 C 14.5 9.558594 14.519531 9.605469 14.542969 9.648438 C 13.730469 10.425781 13.035156 11.320312 12.464844 12.304688 C 12.300781 12.582031 12.398438 12.945312 12.679688 13.109375 Z M 35.667969 37.804688 L 29.464844 37.804688 L 29.464844 36.1875 L 35.667969 36.1875 Z M 25.257812 33.824219 L 25.257812 31.074219 L 26.109375 31.074219 C 27.402344 31.074219 28.457031 30.019531 28.457031 28.726562 C 28.457031 27.429688 27.402344 26.378906 26.109375 26.378906 L 25.257812 26.378906 L 25.257812 23.367188 L 28.378906 21.5625 C 28.664062 21.402344 28.753906 21.035156 28.59375 20.757812 L 27.875 19.515625 C 27.363281 18.632812 28.167969 17.523438 29.191406 17.796875 C 29.496094 17.878906 29.75 18.070312 29.902344 18.34375 L 30.625 19.589844 C 30.785156 19.871094 31.144531 19.964844 31.425781 19.800781 L 34.316406 18.136719 C 34.769531 19.023438 35.09375 19.960938 35.285156 20.9375 C 35.902344 24.066406 35.074219 27.386719 33.054688 29.859375 C 32.679688 30.015625 32.582031 29.949219 32.527344 29.910156 C 32.511719 29.898438 32.488281 29.882812 32.46875 29.871094 L 32.46875 28.132812 C 32.46875 27.226562 31.730469 26.492188 30.828125 26.492188 C 29.925781 26.492188 29.191406 27.226562 29.191406 28.128906 L 29.148438 32.867188 C 27.914062 33.433594 26.609375 33.757812 25.257812 33.824219 Z M 36.5625 21.476562 C 36.988281 24.765625 36.011719 28.164062 33.871094 30.71875 C 33.816406 30.785156 33.746094 30.839844 33.667969 30.875 C 32.699219 31.324219 32.191406 31.109375 31.855469 30.875 C 31.847656 30.867188 31.839844 30.863281 31.832031 30.863281 C 31.492188 30.664062 31.289062 30.316406 31.289062 29.925781 L 31.289062 28.136719 C 31.289062 27.878906 31.082031 27.671875 30.828125 27.671875 C 30.574219 27.671875 30.367188 27.878906 30.367188 28.136719 L 30.304688 35.003906 L 34.789062 35.003906 L 34.789062 33.925781 C 34.789062 33.472656 34.875 33.074219 35.0625 32.660156 C 36.914062 28.609375 37.175781 26.871094 37.175781 22.582031 C 37.175781 22.324219 36.835938 21.746094 36.5625 21.476562 Z M 35.964844 35.027344 C 36.464844 35.109375 36.847656 35.542969 36.847656 36.066406 L 36.847656 37.925781 C 36.847656 38.503906 36.371094 38.980469 35.789062 38.980469 L 29.34375 38.980469 C 28.761719 38.980469 28.289062 38.503906 28.289062 37.925781 L 28.289062 36.066406 C 28.289062 35.554688 28.648438 35.128906 29.128906 35.03125 L 29.136719 34.152344 C 27.71875 34.726562 26.226562 35.019531 24.683594 35.019531 C 24.351562 35.019531 24.082031 34.757812 24.082031 34.429688 L 24.082031 30.484375 C 24.082031 30.164062 24.347656 29.898438 24.671875 29.898438 L 26.109375 29.898438 C 26.753906 29.898438 27.28125 29.375 27.28125 28.726562 C 27.28125 28.082031 26.753906 27.554688 26.109375 27.554688 L 24.671875 27.554688 C 24.347656 27.554688 24.082031 27.292969 24.082031 26.964844 L 24.082031 23.023438 C 24.082031 22.816406 24.195312 22.621094 24.378906 22.511719 L 27.28125 20.835938 L 26.855469 20.097656 C 26.210938 18.980469 26.59375 17.542969 27.714844 16.894531 C 28.835938 16.25 30.273438 16.632812 30.921875 17.753906 L 31.347656 18.492188 L 34.253906 16.8125 C 34.535156 16.648438 34.894531 16.746094 35.054688 17.03125 C 35.625 18.011719 36.046875 19.0625 36.316406 20.152344 C 36.367188 20.15625 36.417969 20.164062 36.46875 20.164062 C 37.421875 20.234375 38.351562 21.746094 38.351562 22.582031 C 38.351562 27.003906 38.0625 28.925781 36.132812 33.152344 C 36.015625 33.410156 35.964844 33.640625 35.964844 33.925781 Z M 35.964844 35.027344 " fill-opacity="1" fill-rule="evenodd"/></g></svg>