<svg xmlns="http://www.w3.org/2000/svg" xmlns:xlink="http://www.w3.org/1999/xlink" width="52" zoomAndPan="magnify" viewBox="0 0 39 38.999999" height="52" preserveAspectRatio="xMidYMid meet" version="1.0"><defs><clipPath id="6db6802cee"><path d="M 1.335938 0 L 30 0 L 30 35 L 1.335938 35 Z M 1.335938 0 " clip-rule="nonzero"/></clipPath><clipPath id="8f225a611e"><path d="M 20 9 L 37.335938 9 L 37.335938 39 L 20 39 Z M 20 9 " clip-rule="nonzero"/></clipPath></defs><g clip-path="url(#6db6802cee)"><path fill="#ffffff" d="M 25.226562 33.023438 L 2.765625 33.023438 L 2.765625 1.4375 L 28.507812 1.4375 L 28.507812 8.742188 C 28.507812 9.140625 28.828125 9.457031 29.222656 9.457031 C 29.617188 9.457031 29.9375 9.140625 29.9375 8.742188 L 29.9375 0.722656 C 29.9375 0.324219 29.617188 0.00390625 29.222656 0.00390625 L 2.050781 0.00390625 C 1.65625 0.00390625 1.335938 0.324219 1.335938 0.722656 L 1.335938 33.738281 C 1.335938 34.132812 1.65625 34.453125 2.050781 34.453125 L 25.226562 34.453125 C 25.621094 34.453125 25.941406 34.132812 25.941406 33.738281 C 25.941406 33.34375 25.621094 33.023438 25.226562 33.023438 Z M 25.226562 33.023438 " fill-opacity="1" fill-rule="nonzero"/></g><path fill="#ffffff" d="M 12.050781 5.621094 C 12.050781 5.226562 11.730469 4.90625 11.335938 4.90625 L 6.941406 4.90625 C 6.542969 4.90625 6.222656 5.226562 6.222656 5.621094 L 6.222656 10.015625 C 6.222656 10.410156 6.542969 10.730469 6.941406 10.730469 L 11.335938 10.730469 C 11.730469 10.730469 12.050781 10.410156 12.050781 10.015625 Z M 10.621094 9.300781 L 7.65625 9.300781 L 7.65625 6.335938 L 10.621094 6.335938 Z M 10.621094 9.300781 " fill-opacity="1" fill-rule="nonzero"/><path fill="#ffffff" d="M 25.050781 6.613281 C 25.050781 6.21875 24.730469 5.898438 24.335938 5.898438 L 14.058594 5.898438 C 13.664062 5.898438 13.34375 6.21875 13.34375 6.613281 C 13.34375 7.007812 13.664062 7.328125 14.058594 7.328125 L 24.335938 7.328125 C 24.730469 7.328125 25.050781 7.007812 25.050781 6.613281 Z M 25.050781 6.613281 " fill-opacity="1" fill-rule="nonzero"/><path fill="#ffffff" d="M 14.058594 10.050781 L 19.195312 10.050781 C 19.589844 10.050781 19.910156 9.730469 19.910156 9.335938 C 19.910156 8.941406 19.589844 8.621094 19.195312 8.621094 L 14.058594 8.621094 C 13.664062 8.621094 13.34375 8.941406 13.34375 9.335938 C 13.34375 9.730469 13.664062 10.050781 14.058594 10.050781 Z M 14.058594 10.050781 " fill-opacity="1" fill-rule="nonzero"/><path fill="#ffffff" d="M 12.050781 15.03125 C 12.050781 14.636719 11.730469 14.316406 11.335938 14.316406 L 6.941406 14.316406 C 6.542969 14.316406 6.222656 14.636719 6.222656 15.03125 L 6.222656 19.425781 C 6.222656 19.820312 6.542969 20.140625 6.941406 20.140625 L 11.335938 20.140625 C 11.730469 20.140625 12.050781 19.820312 12.050781 19.425781 Z M 10.621094 18.710938 L 7.65625 18.710938 L 7.65625 15.746094 L 10.621094 15.746094 Z M 10.621094 18.710938 " fill-opacity="1" fill-rule="nonzero"/><path fill="#ffffff" d="M 19.734375 15.308594 L 14.058594 15.308594 C 13.664062 15.308594 13.34375 15.625 13.34375 16.023438 C 13.34375 16.417969 13.664062 16.738281 14.058594 16.738281 L 19.734375 16.738281 C 20.128906 16.738281 20.449219 16.417969 20.449219 16.023438 C 20.449219 15.625 20.128906 15.308594 19.734375 15.308594 Z M 19.734375 15.308594 " fill-opacity="1" fill-rule="nonzero"/><path fill="#ffffff" d="M 14.058594 19.460938 L 19.195312 19.460938 C 19.589844 19.460938 19.910156 19.140625 19.910156 18.746094 C 19.910156 18.351562 19.589844 18.03125 19.195312 18.03125 L 14.058594 18.03125 C 13.664062 18.03125 13.34375 18.351562 13.34375 18.746094 C 13.34375 19.140625 13.664062 19.460938 14.058594 19.460938 Z M 14.058594 19.460938 " fill-opacity="1" fill-rule="nonzero"/><path fill="#ffffff" d="M 11.335938 23.726562 L 6.941406 23.726562 C 6.542969 23.726562 6.222656 24.046875 6.222656 24.441406 L 6.222656 28.835938 C 6.222656 29.230469 6.542969 29.550781 6.941406 29.550781 L 11.335938 29.550781 C 11.730469 29.550781 12.050781 29.230469 12.050781 28.835938 L 12.050781 24.441406 C 12.050781 24.046875 11.730469 23.726562 11.335938 23.726562 Z M 10.621094 28.121094 L 7.65625 28.121094 L 7.65625 25.15625 L 10.621094 25.15625 Z M 10.621094 28.121094 " fill-opacity="1" fill-rule="nonzero"/><path fill="#ffffff" d="M 23.605469 25.429688 C 23.605469 25.035156 23.285156 24.714844 22.890625 24.714844 L 14.058594 24.714844 C 13.664062 24.714844 13.34375 25.035156 13.34375 25.429688 C 13.34375 25.824219 13.664062 26.144531 14.058594 26.144531 L 22.890625 26.144531 C 23.285156 26.144531 23.605469 25.824219 23.605469 25.429688 Z M 23.605469 25.429688 " fill-opacity="1" fill-rule="nonzero"/><path fill="#ffffff" d="M 13.722656 28.640625 C 13.328125 28.640625 13.007812 28.960938 13.007812 29.355469 C 13.007812 29.75 13.328125 30.070312 13.722656 30.070312 L 18.863281 30.070312 C 19.257812 30.070312 19.578125 29.75 19.578125 29.355469 C 19.578125 28.960938 19.257812 28.640625 18.863281 28.640625 Z M 13.722656 28.640625 " fill-opacity="1" fill-rule="nonzero"/><g clip-path="url(#8f225a611e)"><path fill="#ffffff" d="M 36.988281 15.035156 C 36.566406 14.03125 35.957031 13.128906 35.183594 12.355469 C 34.410156 11.582031 33.507812 10.976562 32.503906 10.550781 C 31.464844 10.109375 30.359375 9.886719 29.222656 9.886719 C 28.085938 9.886719 26.980469 10.109375 25.941406 10.550781 C 24.9375 10.976562 24.035156 11.582031 23.261719 12.355469 C 22.488281 13.128906 21.882812 14.03125 21.457031 15.035156 C 21.015625 16.074219 20.792969 17.179688 20.792969 18.316406 C 20.792969 19.453125 21.015625 20.558594 21.457031 21.597656 C 21.882812 22.601562 22.488281 23.503906 23.261719 24.277344 C 24.035156 25.050781 24.9375 25.660156 25.941406 26.082031 C 26.414062 26.285156 26.902344 26.4375 27.402344 26.550781 L 27.402344 27.8125 C 26.863281 27.976562 26.46875 28.476562 26.46875 29.066406 L 26.46875 36.238281 C 26.46875 37.757812 27.703125 38.992188 29.222656 38.992188 C 30.742188 38.992188 31.980469 37.757812 31.980469 36.238281 L 31.980469 29.066406 C 31.980469 28.476562 31.585938 27.976562 31.046875 27.8125 L 31.046875 26.550781 C 31.542969 26.4375 32.03125 26.285156 32.503906 26.082031 C 33.507812 25.660156 34.410156 25.050781 35.183594 24.277344 C 35.957031 23.503906 36.566406 22.601562 36.988281 21.597656 C 37.429688 20.558594 37.652344 19.453125 37.652344 18.316406 C 37.652344 17.179688 37.429688 16.074219 36.988281 15.035156 Z M 29.617188 27.757812 L 28.832031 27.757812 L 28.832031 26.773438 L 29.195312 26.789062 C 29.214844 26.789062 29.234375 26.789062 29.25 26.789062 L 29.617188 26.773438 Z M 30.546875 36.238281 C 30.546875 36.96875 29.953125 37.5625 29.222656 37.5625 C 28.492188 37.5625 27.898438 36.96875 27.898438 36.238281 L 27.898438 29.1875 L 30.546875 29.1875 Z M 34.171875 23.265625 C 32.851562 24.589844 31.09375 25.316406 29.222656 25.316406 C 27.355469 25.316406 25.597656 24.589844 24.273438 23.265625 C 22.953125 21.945312 22.222656 20.1875 22.222656 18.316406 C 22.222656 16.445312 22.953125 14.691406 24.273438 13.367188 C 25.597656 12.046875 27.355469 11.316406 29.222656 11.316406 C 31.09375 11.316406 32.851562 12.046875 34.171875 13.367188 C 35.496094 14.691406 36.222656 16.445312 36.222656 18.316406 C 36.222656 20.1875 35.496094 21.945312 34.171875 23.265625 Z M 34.171875 23.265625 " fill-opacity="1" fill-rule="nonzero"/></g><path fill="#ffffff" d="M 31.972656 15.753906 L 27.507812 20.21875 L 25.730469 18.441406 C 25.453125 18.160156 25 18.160156 24.722656 18.441406 C 24.441406 18.71875 24.441406 19.171875 24.722656 19.453125 L 27.003906 21.734375 C 27.144531 21.875 27.324219 21.941406 27.507812 21.941406 C 27.691406 21.941406 27.875 21.875 28.015625 21.734375 L 32.984375 16.765625 C 33.261719 16.484375 33.261719 16.03125 32.984375 15.753906 C 32.703125 15.472656 32.253906 15.472656 31.972656 15.753906 Z M 31.972656 15.753906 " fill-opacity="1" fill-rule="nonzero"/></svg>