<svg xmlns="http://www.w3.org/2000/svg" xmlns:xlink="http://www.w3.org/1999/xlink" width="52" zoomAndPan="magnify" viewBox="0 0 39 38.999999" height="52" preserveAspectRatio="xMidYMid meet" version="1.0"><path fill="#ffffff" d="M 38.523438 14.898438 L 31.949219 14.898438 C 31.816406 14.898438 31.703125 14.945312 31.609375 15.039062 C 31.519531 15.132812 31.472656 15.246094 31.472656 15.375 L 31.472656 23.625 C 31.472656 23.753906 31.519531 23.867188 31.609375 23.960938 C 31.703125 24.054688 31.816406 24.101562 31.949219 24.101562 L 38.523438 24.101562 C 38.65625 24.101562 38.769531 24.054688 38.859375 23.960938 C 38.953125 23.867188 39 23.753906 39 23.625 L 39 15.375 C 39 15.246094 38.953125 15.132812 38.859375 15.039062 C 38.769531 14.945312 38.65625 14.898438 38.523438 14.898438 Z M 38.046875 23.148438 L 32.421875 23.148438 L 32.421875 15.851562 L 38.046875 15.851562 Z M 38.523438 29.800781 L 31.949219 29.800781 C 31.816406 29.800781 31.703125 29.847656 31.609375 29.9375 C 31.519531 30.03125 31.472656 30.144531 31.472656 30.277344 L 31.472656 38.523438 C 31.472656 38.65625 31.519531 38.769531 31.609375 38.859375 C 31.703125 38.953125 31.816406 39 31.949219 39 L 38.523438 39 C 38.65625 39 38.769531 38.953125 38.859375 38.859375 C 38.953125 38.769531 39 38.65625 39 38.523438 L 39 30.277344 C 39 30.144531 38.953125 30.03125 38.859375 29.9375 C 38.769531 29.847656 38.65625 29.800781 38.523438 29.800781 Z M 38.046875 38.046875 L 32.421875 38.046875 L 32.421875 30.75 L 38.046875 30.75 Z M 33.085938 21.863281 C 33.085938 21.730469 33.132812 21.621094 33.222656 21.527344 C 33.316406 21.433594 33.429688 21.386719 33.558594 21.386719 L 36.910156 21.386719 C 37.042969 21.386719 37.152344 21.433594 37.246094 21.527344 C 37.339844 21.621094 37.386719 21.730469 37.386719 21.863281 C 37.386719 21.992188 37.339844 22.105469 37.246094 22.199219 C 37.152344 22.292969 37.042969 22.339844 36.910156 22.339844 L 33.558594 22.339844 C 33.429688 22.339844 33.316406 22.292969 33.222656 22.199219 C 33.132812 22.105469 33.085938 21.992188 33.085938 21.863281 Z M 33.085938 17.136719 C 33.085938 17.007812 33.132812 16.894531 33.222656 16.800781 C 33.316406 16.707031 33.429688 16.660156 33.558594 16.660156 L 36.910156 16.660156 C 37.042969 16.660156 37.152344 16.707031 37.246094 16.800781 C 37.339844 16.894531 37.386719 17.007812 37.386719 17.136719 C 37.386719 17.269531 37.339844 17.378906 37.246094 17.472656 C 37.152344 17.566406 37.042969 17.613281 36.910156 17.613281 L 33.558594 17.613281 C 33.429688 17.613281 33.316406 17.566406 33.222656 17.472656 C 33.132812 17.378906 33.085938 17.269531 33.085938 17.136719 Z M 33.085938 19.5 C 33.085938 19.367188 33.132812 19.253906 33.222656 19.164062 C 33.316406 19.070312 33.429688 19.023438 33.558594 19.023438 L 36.910156 19.023438 C 37.042969 19.023438 37.152344 19.070312 37.246094 19.164062 C 37.339844 19.253906 37.386719 19.367188 37.386719 19.5 C 37.386719 19.628906 37.339844 19.742188 37.246094 19.835938 C 37.152344 19.929688 37.042969 19.972656 36.910156 19.972656 L 33.558594 19.972656 C 33.429688 19.972656 33.316406 19.929688 33.222656 19.835938 C 33.132812 19.742188 33.085938 19.628906 33.085938 19.5 Z M 38.523438 0 L 31.949219 0 C 31.816406 0 31.703125 0.046875 31.609375 0.140625 C 31.519531 0.234375 31.472656 0.34375 31.472656 0.476562 L 31.472656 8.726562 C 31.472656 8.855469 31.519531 8.96875 31.609375 9.0625 C 31.703125 9.152344 31.816406 9.199219 31.949219 9.199219 L 38.523438 9.199219 C 38.65625 9.199219 38.769531 9.152344 38.859375 9.0625 C 38.953125 8.96875 39 8.855469 39 8.726562 L 39 0.476562 C 39 0.34375 38.953125 0.234375 38.859375 0.140625 C 38.769531 0.046875 38.65625 0 38.523438 0 Z M 38.046875 8.25 L 32.421875 8.25 L 32.421875 0.953125 L 38.046875 0.953125 Z M 22.351562 19.5 C 22.351562 19.367188 22.398438 19.253906 22.492188 19.164062 C 22.582031 19.070312 22.695312 19.023438 22.828125 19.023438 L 24.71875 19.023438 L 24.71875 4.601562 C 24.71875 4.46875 24.761719 4.359375 24.855469 4.265625 C 24.949219 4.171875 25.0625 4.125 25.191406 4.125 L 30.300781 4.125 C 30.433594 4.125 30.546875 4.171875 30.636719 4.265625 C 30.730469 4.359375 30.777344 4.46875 30.777344 4.601562 C 30.777344 4.734375 30.730469 4.84375 30.636719 4.9375 C 30.546875 5.03125 30.433594 5.078125 30.300781 5.078125 L 25.667969 5.078125 L 25.667969 19.023438 L 30.300781 19.023438 C 30.433594 19.023438 30.546875 19.070312 30.636719 19.164062 C 30.730469 19.253906 30.777344 19.367188 30.777344 19.5 C 30.777344 19.628906 30.730469 19.742188 30.636719 19.835938 C 30.546875 19.929688 30.433594 19.972656 30.300781 19.972656 L 25.667969 19.972656 L 25.667969 33.921875 L 30.300781 33.921875 C 30.433594 33.921875 30.546875 33.96875 30.636719 34.0625 C 30.730469 34.15625 30.777344 34.265625 30.777344 34.398438 C 30.777344 34.53125 30.730469 34.640625 30.636719 34.734375 C 30.546875 34.828125 30.433594 34.875 30.300781 34.875 L 25.191406 34.875 C 25.0625 34.875 24.949219 34.828125 24.855469 34.734375 C 24.761719 34.640625 24.71875 34.53125 24.71875 34.398438 L 24.71875 19.972656 L 22.828125 19.972656 C 22.695312 19.972656 22.582031 19.929688 22.492188 19.835938 C 22.398438 19.742188 22.351562 19.628906 22.351562 19.5 Z M 1.722656 30.75 L 20.183594 30.75 C 20.414062 30.75 20.632812 30.707031 20.84375 30.621094 C 21.054688 30.53125 21.242188 30.40625 21.402344 30.246094 C 21.5625 30.085938 21.6875 29.898438 21.773438 29.6875 C 21.863281 29.476562 21.90625 29.257812 21.90625 29.027344 L 21.90625 16.558594 C 21.90625 16.210938 21.8125 15.894531 21.617188 15.605469 C 21.425781 15.316406 21.167969 15.105469 20.847656 14.972656 C 20.726562 14.917969 20.605469 14.917969 20.480469 14.964844 C 20.359375 15.015625 20.273438 15.101562 20.222656 15.222656 C 20.167969 15.34375 20.167969 15.46875 20.21875 15.589844 C 20.269531 15.710938 20.359375 15.796875 20.480469 15.847656 C 20.796875 15.980469 20.957031 16.214844 20.957031 16.558594 L 20.957031 18.261719 C 20.714844 18.140625 20.457031 18.078125 20.183594 18.078125 L 19.398438 18.078125 L 19.398438 10.917969 C 19.398438 10.789062 19.351562 10.675781 19.257812 10.582031 C 19.164062 10.492188 19.050781 10.445312 18.921875 10.445312 L 17.425781 10.445312 L 17.425781 8.726562 C 17.425781 8.59375 17.378906 8.480469 17.285156 8.386719 C 17.191406 8.296875 17.078125 8.25 16.949219 8.25 L 3.375 8.25 C 3.242188 8.25 3.132812 8.296875 3.039062 8.386719 C 2.945312 8.480469 2.898438 8.59375 2.898438 8.726562 L 2.898438 18.078125 L 2.097656 18.078125 C 1.945312 18.078125 1.800781 18.050781 1.660156 17.992188 C 1.519531 17.933594 1.398438 17.851562 1.289062 17.746094 C 1.183594 17.636719 1.097656 17.515625 1.039062 17.375 C 0.980469 17.234375 0.953125 17.085938 0.953125 16.9375 L 0.953125 16.933594 C 0.953125 16.679688 1.03125 16.453125 1.179688 16.25 C 1.332031 16.046875 1.527344 15.910156 1.769531 15.835938 C 1.894531 15.796875 1.988281 15.71875 2.046875 15.605469 C 2.109375 15.488281 2.121094 15.367188 2.082031 15.242188 C 2.042969 15.117188 1.96875 15.023438 1.851562 14.960938 C 1.738281 14.898438 1.617188 14.886719 1.492188 14.925781 C 1.050781 15.0625 0.691406 15.3125 0.417969 15.683594 C 0.144531 16.054688 0.00390625 16.472656 0 16.933594 L 0 29.027344 C 0 29.257812 0.0429688 29.476562 0.132812 29.6875 C 0.21875 29.898438 0.34375 30.082031 0.503906 30.246094 C 0.664062 30.40625 0.851562 30.53125 1.0625 30.617188 C 1.273438 30.707031 1.492188 30.75 1.722656 30.75 Z M 18.445312 18.078125 L 5.824219 18.078125 L 5.824219 11.394531 L 18.445312 11.394531 Z M 3.851562 9.199219 L 16.472656 9.199219 L 16.472656 10.445312 L 5.347656 10.445312 C 5.214844 10.445312 5.105469 10.492188 5.011719 10.582031 C 4.917969 10.675781 4.871094 10.789062 4.871094 10.917969 L 4.871094 18.078125 L 3.851562 18.078125 Z M 0.953125 18.6875 C 1.300781 18.917969 1.683594 19.03125 2.097656 19.03125 L 20.183594 19.03125 C 20.398438 19.03125 20.578125 19.105469 20.730469 19.257812 C 20.878906 19.40625 20.953125 19.585938 20.957031 19.800781 L 20.957031 29.027344 C 20.957031 29.242188 20.878906 29.421875 20.730469 29.574219 C 20.578125 29.722656 20.398438 29.800781 20.183594 29.800781 L 1.722656 29.800781 C 1.507812 29.800781 1.328125 29.722656 1.175781 29.574219 C 1.027344 29.421875 0.953125 29.242188 0.953125 29.027344 Z M 33.085938 34.398438 C 33.085938 34.265625 33.132812 34.15625 33.222656 34.0625 C 33.316406 33.96875 33.429688 33.921875 33.558594 33.921875 L 36.910156 33.921875 C 37.042969 33.921875 37.152344 33.96875 37.246094 34.0625 C 37.339844 34.15625 37.386719 34.265625 37.386719 34.398438 C 37.386719 34.53125 37.339844 34.640625 37.246094 34.734375 C 37.152344 34.828125 37.042969 34.875 36.910156 34.875 L 33.558594 34.875 C 33.429688 34.875 33.316406 34.828125 33.222656 34.734375 C 33.132812 34.640625 33.085938 34.53125 33.085938 34.398438 Z M 33.085938 32.035156 C 33.085938 31.90625 33.132812 31.792969 33.222656 31.699219 C 33.316406 31.609375 33.429688 31.5625 33.558594 31.5625 L 36.910156 31.5625 C 37.042969 31.5625 37.152344 31.609375 37.246094 31.699219 C 37.339844 31.792969 37.386719 31.90625 37.386719 32.035156 C 37.386719 32.167969 37.339844 32.28125 37.246094 32.375 C 37.152344 32.464844 37.042969 32.511719 36.910156 32.511719 L 33.558594 32.511719 C 33.429688 32.511719 33.316406 32.464844 33.222656 32.375 C 33.132812 32.28125 33.085938 32.167969 33.085938 32.035156 Z M 33.085938 36.761719 C 33.085938 36.632812 33.132812 36.519531 33.222656 36.425781 C 33.316406 36.332031 33.429688 36.285156 33.558594 36.285156 L 36.910156 36.285156 C 37.042969 36.285156 37.152344 36.332031 37.246094 36.425781 C 37.339844 36.519531 37.386719 36.632812 37.386719 36.761719 C 37.386719 36.894531 37.339844 37.003906 37.246094 37.097656 C 37.152344 37.191406 37.042969 37.238281 36.910156 37.238281 L 33.558594 37.238281 C 33.429688 37.238281 33.316406 37.191406 33.222656 37.097656 C 33.132812 37.003906 33.085938 36.894531 33.085938 36.761719 Z M 33.085938 2.238281 C 33.085938 2.105469 33.132812 1.996094 33.222656 1.902344 C 33.316406 1.808594 33.429688 1.761719 33.558594 1.761719 L 36.910156 1.761719 C 37.042969 1.761719 37.152344 1.808594 37.246094 1.902344 C 37.339844 1.996094 37.386719 2.105469 37.386719 2.238281 C 37.386719 2.367188 37.339844 2.480469 37.246094 2.574219 C 37.152344 2.667969 37.042969 2.714844 36.910156 2.714844 L 33.558594 2.714844 C 33.429688 2.714844 33.316406 2.667969 33.222656 2.574219 C 33.132812 2.480469 33.085938 2.367188 33.085938 2.238281 Z M 33.085938 6.964844 C 33.085938 6.832031 33.132812 6.71875 33.222656 6.625 C 33.316406 6.535156 33.429688 6.488281 33.558594 6.488281 L 36.910156 6.488281 C 37.042969 6.488281 37.152344 6.535156 37.246094 6.625 C 37.339844 6.71875 37.386719 6.832031 37.386719 6.964844 C 37.386719 7.09375 37.339844 7.207031 37.246094 7.300781 C 37.152344 7.390625 37.042969 7.4375 36.910156 7.4375 L 33.558594 7.4375 C 33.429688 7.4375 33.316406 7.390625 33.222656 7.300781 C 33.132812 7.207031 33.085938 7.09375 33.085938 6.964844 Z M 33.085938 4.601562 C 33.085938 4.46875 33.132812 4.359375 33.222656 4.265625 C 33.316406 4.171875 33.429688 4.125 33.558594 4.125 L 36.910156 4.125 C 37.042969 4.125 37.152344 4.171875 37.246094 4.265625 C 37.339844 4.359375 37.386719 4.46875 37.386719 4.601562 C 37.386719 4.734375 37.339844 4.84375 37.246094 4.9375 C 37.152344 5.03125 37.042969 5.078125 36.910156 5.078125 L 33.558594 5.078125 C 33.429688 5.078125 33.316406 5.03125 33.222656 4.9375 C 33.132812 4.84375 33.085938 4.734375 33.085938 4.601562 Z M 33.085938 4.601562 " fill-opacity="1" fill-rule="nonzero"/></svg>