<svg xmlns="http://www.w3.org/2000/svg" xmlns:xlink="http://www.w3.org/1999/xlink" width="52" zoomAndPan="magnify" viewBox="0 0 39 38.999999" height="52" preserveAspectRatio="xMidYMid meet" version="1.0"><defs><clipPath id="4e376efbcf"><path d="M 1.488281 4 L 37.488281 4 L 37.488281 39 L 1.488281 39 Z M 1.488281 4 " clip-rule="nonzero"/></clipPath></defs><path fill="#ffffff" d="M 20.871094 27.4375 L 18.117188 27.4375 C 17.71875 27.4375 17.398438 27.761719 17.398438 28.15625 C 17.398438 28.554688 17.71875 28.878906 18.117188 28.878906 L 20.871094 28.878906 C 21.269531 28.878906 21.589844 28.554688 21.589844 28.15625 C 21.589844 27.761719 21.269531 27.4375 20.871094 27.4375 Z M 20.871094 27.4375 " fill-opacity="1" fill-rule="nonzero"/><g clip-path="url(#4e376efbcf)"><path fill="#ffffff" d="M 35.304688 4.144531 C 34.921875 4.039062 34.527344 4.269531 34.421875 4.652344 C 34.320312 5.035156 34.546875 5.429688 34.929688 5.535156 C 35.597656 5.710938 36.066406 6.320312 36.066406 7.015625 L 36.066406 24.441406 L 2.921875 24.441406 L 2.921875 7.015625 C 2.921875 6.328125 3.382812 5.722656 4.039062 5.539062 C 4.421875 5.429688 4.644531 5.035156 4.539062 4.652344 C 4.433594 4.269531 4.035156 4.046875 3.652344 4.152344 C 2.375 4.511719 1.484375 5.6875 1.484375 7.015625 L 1.484375 29.039062 C 1.484375 30.679688 2.816406 32.011719 4.457031 32.011719 L 14.398438 32.011719 L 11.898438 37.515625 L 9.277344 37.515625 C 8.882812 37.515625 8.558594 37.835938 8.558594 38.234375 C 8.558594 38.632812 8.882812 38.953125 9.277344 38.953125 L 12.359375 38.953125 C 12.359375 38.953125 12.359375 38.953125 12.363281 38.953125 L 26.621094 38.953125 C 26.625 38.953125 26.625 38.953125 26.625 38.953125 C 26.625 38.953125 26.628906 38.953125 26.628906 38.953125 L 29.707031 38.953125 C 30.105469 38.953125 30.429688 38.632812 30.429688 38.234375 C 30.429688 37.835938 30.105469 37.515625 29.707031 37.515625 L 27.089844 37.515625 L 24.585938 32.011719 L 34.53125 32.011719 C 36.171875 32.011719 37.503906 30.679688 37.503906 29.039062 L 37.503906 7.015625 C 37.503906 5.671875 36.597656 4.492188 35.304688 4.144531 Z M 25.507812 37.515625 L 13.480469 37.515625 L 15.980469 32.011719 L 23.007812 32.011719 Z M 34.53125 30.574219 L 4.457031 30.574219 C 3.609375 30.574219 2.921875 29.886719 2.921875 29.039062 L 2.921875 25.878906 L 36.066406 25.878906 L 36.066406 29.039062 C 36.066406 29.886719 35.378906 30.574219 34.53125 30.574219 Z M 34.53125 30.574219 " fill-opacity="1" fill-rule="nonzero"/></g><path fill="#ffffff" d="M 8.402344 21.554688 L 10.5625 21.554688 C 10.960938 21.554688 11.28125 21.230469 11.28125 20.835938 C 11.28125 20.4375 10.960938 20.113281 10.5625 20.113281 L 8.402344 20.113281 C 7.949219 20.113281 7.578125 19.746094 7.578125 19.289062 L 7.578125 7.296875 L 31.410156 7.296875 L 31.410156 19.289062 C 31.410156 19.746094 31.039062 20.113281 30.585938 20.113281 L 28.457031 20.113281 C 28.058594 20.113281 27.738281 20.4375 27.738281 20.835938 C 27.738281 21.230469 28.058594 21.554688 28.457031 21.554688 L 30.585938 21.554688 C 31.832031 21.554688 32.847656 20.539062 32.847656 19.289062 L 32.847656 2.3125 C 32.847656 1.0625 31.832031 0.046875 30.585938 0.046875 L 8.402344 0.046875 C 7.15625 0.046875 6.140625 1.0625 6.140625 2.3125 L 6.140625 19.289062 C 6.140625 20.539062 7.15625 21.554688 8.402344 21.554688 Z M 8.402344 1.484375 L 30.585938 1.484375 C 31.039062 1.484375 31.410156 1.855469 31.410156 2.3125 L 31.410156 5.859375 L 7.578125 5.859375 L 7.578125 2.3125 C 7.578125 1.855469 7.949219 1.484375 8.402344 1.484375 Z M 8.402344 1.484375 " fill-opacity="1" fill-rule="nonzero"/><path fill="#ffffff" d="M 9.515625 4.035156 C 9.535156 4.078125 9.558594 4.117188 9.582031 4.15625 C 9.609375 4.199219 9.636719 4.234375 9.671875 4.265625 C 9.703125 4.300781 9.742188 4.332031 9.78125 4.355469 C 9.820312 4.382812 9.863281 4.40625 9.90625 4.421875 C 9.949219 4.441406 9.996094 4.453125 10.039062 4.464844 C 10.085938 4.472656 10.132812 4.480469 10.179688 4.480469 C 10.371094 4.480469 10.554688 4.402344 10.6875 4.265625 C 10.722656 4.234375 10.753906 4.199219 10.777344 4.15625 C 10.804688 4.117188 10.828125 4.078125 10.84375 4.035156 C 10.863281 3.992188 10.875 3.945312 10.886719 3.898438 C 10.894531 3.851562 10.898438 3.804688 10.898438 3.757812 C 10.898438 3.710938 10.894531 3.664062 10.886719 3.617188 C 10.875 3.570312 10.863281 3.527344 10.84375 3.484375 C 10.828125 3.441406 10.804688 3.398438 10.777344 3.359375 C 10.753906 3.320312 10.722656 3.285156 10.6875 3.25 C 10.65625 3.214844 10.621094 3.1875 10.578125 3.160156 C 10.542969 3.132812 10.5 3.113281 10.457031 3.09375 C 10.414062 3.074219 10.367188 3.0625 10.320312 3.054688 C 10.226562 3.035156 10.132812 3.035156 10.039062 3.054688 C 9.996094 3.0625 9.949219 3.074219 9.90625 3.09375 C 9.863281 3.113281 9.820312 3.132812 9.78125 3.160156 C 9.742188 3.1875 9.703125 3.214844 9.671875 3.25 C 9.636719 3.285156 9.609375 3.320312 9.582031 3.359375 C 9.558594 3.398438 9.535156 3.441406 9.515625 3.484375 C 9.5 3.527344 9.484375 3.570312 9.476562 3.617188 C 9.464844 3.664062 9.460938 3.710938 9.460938 3.757812 C 9.460938 3.804688 9.464844 3.851562 9.476562 3.898438 C 9.484375 3.945312 9.5 3.992188 9.515625 4.035156 Z M 9.515625 4.035156 " fill-opacity="1" fill-rule="nonzero"/><path fill="#ffffff" d="M 12.375 4.035156 C 12.394531 4.078125 12.414062 4.117188 12.441406 4.15625 C 12.46875 4.199219 12.496094 4.234375 12.53125 4.265625 C 12.5625 4.300781 12.601562 4.332031 12.640625 4.355469 C 12.679688 4.382812 12.722656 4.40625 12.765625 4.421875 C 12.808594 4.441406 12.851562 4.453125 12.898438 4.464844 C 12.945312 4.472656 12.992188 4.476562 13.039062 4.476562 C 13.226562 4.476562 13.414062 4.402344 13.546875 4.265625 C 13.582031 4.234375 13.609375 4.199219 13.636719 4.15625 C 13.664062 4.117188 13.6875 4.078125 13.703125 4.035156 C 13.722656 3.992188 13.734375 3.945312 13.746094 3.898438 C 13.753906 3.851562 13.757812 3.804688 13.757812 3.757812 C 13.757812 3.710938 13.753906 3.664062 13.746094 3.617188 C 13.734375 3.570312 13.722656 3.527344 13.703125 3.484375 C 13.6875 3.441406 13.664062 3.398438 13.636719 3.359375 C 13.609375 3.320312 13.582031 3.285156 13.546875 3.25 C 13.515625 3.21875 13.476562 3.1875 13.4375 3.160156 C 13.398438 3.132812 13.359375 3.113281 13.316406 3.09375 C 13.269531 3.074219 13.226562 3.0625 13.179688 3.054688 C 13.085938 3.035156 12.992188 3.035156 12.898438 3.054688 C 12.851562 3.0625 12.808594 3.074219 12.765625 3.09375 C 12.722656 3.113281 12.679688 3.132812 12.640625 3.160156 C 12.601562 3.1875 12.5625 3.21875 12.53125 3.25 C 12.496094 3.285156 12.46875 3.320312 12.441406 3.359375 C 12.414062 3.398438 12.394531 3.441406 12.375 3.484375 C 12.355469 3.527344 12.34375 3.570312 12.335938 3.617188 C 12.324219 3.664062 12.320312 3.710938 12.320312 3.757812 C 12.320312 3.804688 12.324219 3.851562 12.335938 3.898438 C 12.34375 3.945312 12.355469 3.992188 12.375 4.035156 Z M 12.375 4.035156 " fill-opacity="1" fill-rule="nonzero"/><path fill="#ffffff" d="M 15.5 4.355469 C 15.539062 4.382812 15.578125 4.40625 15.621094 4.421875 C 15.664062 4.441406 15.710938 4.453125 15.757812 4.464844 C 15.804688 4.472656 15.851562 4.480469 15.898438 4.480469 C 16.085938 4.480469 16.273438 4.402344 16.40625 4.265625 C 16.441406 4.234375 16.46875 4.199219 16.496094 4.15625 C 16.523438 4.117188 16.542969 4.078125 16.5625 4.035156 C 16.582031 3.992188 16.59375 3.945312 16.601562 3.898438 C 16.613281 3.851562 16.617188 3.804688 16.617188 3.757812 C 16.617188 3.710938 16.613281 3.664062 16.601562 3.617188 C 16.59375 3.570312 16.582031 3.527344 16.5625 3.484375 C 16.542969 3.441406 16.523438 3.398438 16.496094 3.359375 C 16.46875 3.320312 16.441406 3.285156 16.40625 3.25 C 16.375 3.21875 16.335938 3.1875 16.296875 3.160156 C 16.257812 3.132812 16.214844 3.113281 16.171875 3.09375 C 16.128906 3.074219 16.085938 3.0625 16.039062 3.054688 C 15.945312 3.035156 15.851562 3.035156 15.757812 3.054688 C 15.710938 3.0625 15.664062 3.074219 15.621094 3.09375 C 15.578125 3.113281 15.539062 3.132812 15.5 3.160156 C 15.457031 3.1875 15.421875 3.21875 15.390625 3.25 C 15.355469 3.285156 15.324219 3.320312 15.300781 3.359375 C 15.273438 3.398438 15.25 3.441406 15.234375 3.484375 C 15.214844 3.527344 15.203125 3.570312 15.191406 3.617188 C 15.183594 3.664062 15.179688 3.710938 15.179688 3.757812 C 15.179688 3.949219 15.253906 4.132812 15.390625 4.265625 C 15.421875 4.300781 15.457031 4.332031 15.5 4.355469 Z M 15.5 4.355469 " fill-opacity="1" fill-rule="nonzero"/><path fill="#ffffff" d="M 19.9375 4.476562 L 27.675781 4.476562 C 28.074219 4.476562 28.394531 4.15625 28.394531 3.757812 C 28.394531 3.359375 28.074219 3.039062 27.675781 3.039062 L 19.9375 3.039062 C 19.539062 3.039062 19.21875 3.359375 19.21875 3.757812 C 19.21875 4.15625 19.539062 4.476562 19.9375 4.476562 Z M 19.9375 4.476562 " fill-opacity="1" fill-rule="nonzero"/><path fill="#ffffff" d="M 19.492188 9.617188 C 18.53125 9.617188 17.65625 10.058594 17.089844 10.8125 C 17.015625 10.914062 16.945312 11.015625 16.882812 11.125 L 13.472656 17.03125 C 13.199219 17.503906 13.0625 18.023438 13.0625 18.539062 C 13.0625 19.058594 13.199219 19.574219 13.472656 20.046875 C 14.019531 20.992188 14.992188 21.554688 16.082031 21.554688 L 22.90625 21.554688 C 23.996094 21.554688 24.96875 20.992188 25.515625 20.046875 C 25.785156 19.574219 25.921875 19.058594 25.921875 18.539062 C 25.921875 18.023438 25.785156 17.503906 25.515625 17.03125 L 22.105469 11.125 C 21.558594 10.179688 20.582031 9.617188 19.492188 9.617188 Z M 24.480469 18.539062 C 24.480469 18.808594 24.410156 19.082031 24.269531 19.328125 C 23.984375 19.820312 23.472656 20.113281 22.90625 20.113281 L 16.082031 20.113281 C 15.511719 20.113281 15.003906 19.820312 14.71875 19.328125 C 14.578125 19.082031 14.503906 18.808594 14.503906 18.539062 C 14.503906 18.269531 14.578125 18 14.71875 17.753906 L 18.128906 11.84375 C 18.414062 11.351562 18.925781 11.058594 19.492188 11.058594 C 20.0625 11.058594 20.574219 11.351562 20.859375 11.84375 L 24.269531 17.753906 C 24.410156 18 24.480469 18.269531 24.480469 18.539062 Z M 24.480469 18.539062 " fill-opacity="1" fill-rule="nonzero"/><path fill="#ffffff" d="M 19.492188 12.96875 C 19.097656 12.96875 18.773438 13.289062 18.773438 13.6875 L 18.773438 15.585938 C 18.773438 15.984375 19.097656 16.304688 19.492188 16.304688 C 19.890625 16.304688 20.214844 15.984375 20.214844 15.585938 L 20.214844 13.6875 C 20.214844 13.289062 19.890625 12.96875 19.492188 12.96875 Z M 19.492188 12.96875 " fill-opacity="1" fill-rule="nonzero"/><path fill="#ffffff" d="M 20.15625 18 C 20.140625 17.957031 20.117188 17.917969 20.09375 17.875 C 20.066406 17.835938 20.035156 17.800781 20.003906 17.765625 C 19.96875 17.734375 19.933594 17.703125 19.894531 17.679688 C 19.855469 17.652344 19.8125 17.628906 19.769531 17.613281 C 19.726562 17.59375 19.679688 17.582031 19.632812 17.570312 C 19.402344 17.523438 19.152344 17.601562 18.984375 17.765625 C 18.851562 17.902344 18.773438 18.085938 18.773438 18.277344 C 18.773438 18.324219 18.777344 18.371094 18.789062 18.417969 C 18.796875 18.464844 18.8125 18.507812 18.828125 18.550781 C 18.847656 18.59375 18.871094 18.636719 18.894531 18.675781 C 18.921875 18.714844 18.953125 18.753906 18.984375 18.785156 C 19.117188 18.917969 19.304688 18.996094 19.492188 18.996094 C 19.539062 18.996094 19.585938 18.992188 19.632812 18.980469 C 19.679688 18.972656 19.726562 18.957031 19.769531 18.941406 C 19.8125 18.921875 19.855469 18.902344 19.894531 18.875 C 19.933594 18.847656 19.96875 18.820312 20.003906 18.785156 C 20.035156 18.753906 20.066406 18.714844 20.09375 18.675781 C 20.117188 18.636719 20.140625 18.59375 20.15625 18.550781 C 20.175781 18.507812 20.191406 18.464844 20.199219 18.417969 C 20.207031 18.371094 20.214844 18.324219 20.214844 18.277344 C 20.214844 18.230469 20.207031 18.183594 20.199219 18.136719 C 20.191406 18.089844 20.175781 18.042969 20.15625 18 Z M 20.15625 18 " fill-opacity="1" fill-rule="nonzero"/></svg>