<svg xmlns="http://www.w3.org/2000/svg" xmlns:xlink="http://www.w3.org/1999/xlink" width="52" zoomAndPan="magnify" viewBox="0 0 39 38.999999" height="52" preserveAspectRatio="xMidYMid meet" version="1.0"><path fill="#ffffff" d="M 25.933594 5.65625 L 7.433594 5.65625 L 7.433594 23.09375 C 7.433594 23.398438 7.1875 23.648438 6.882812 23.648438 C 6.578125 23.648438 6.328125 23.398438 6.328125 23.09375 L 6.328125 5.59375 C 6.328125 5.015625 6.796875 4.550781 7.371094 4.550781 L 26.492188 4.550781 C 26.636719 4.550781 26.777344 4.609375 26.882812 4.710938 L 31.40625 9.238281 C 31.511719 9.339844 31.570312 9.480469 31.570312 9.628906 L 31.570312 33.4375 C 31.570312 33.714844 31.457031 33.980469 31.261719 34.175781 C 31.066406 34.375 30.800781 34.484375 30.527344 34.484375 L 13.320312 34.484375 C 13.015625 34.484375 12.765625 34.234375 12.765625 33.929688 C 12.765625 33.625 13.015625 33.375 13.320312 33.375 L 30.464844 33.375 L 30.464844 10.183594 L 26.871094 10.210938 C 26.621094 10.210938 26.375 10.113281 26.195312 9.933594 C 26.019531 9.753906 25.917969 9.511719 25.917969 9.257812 Z M 29.691406 9.085938 C 28.9375 8.328125 27.792969 7.1875 27.035156 6.429688 L 27.023438 9.105469 Z M 10.816406 14.308594 L 10.023438 14.308594 C 9.273438 14.308594 8.664062 13.699219 8.664062 12.949219 C 8.664062 12.199219 9.273438 11.589844 10.023438 11.589844 L 17.007812 11.589844 C 17.167969 11.363281 17.363281 11.167969 17.589844 11.007812 L 17.589844 9.902344 C 17.589844 9.152344 18.199219 8.542969 18.949219 8.542969 C 19.699219 8.542969 20.308594 9.152344 20.308594 9.902344 L 20.308594 11.007812 C 20.535156 11.167969 20.730469 11.363281 20.890625 11.589844 L 27.875 11.589844 C 28.625 11.589844 29.234375 12.199219 29.234375 12.949219 C 29.234375 13.699219 28.625 14.308594 27.875 14.308594 L 27.089844 14.308594 L 28.871094 19.007812 C 28.894531 19.070312 28.910156 19.140625 28.910156 19.214844 C 28.910156 20.835938 27.597656 22.148438 25.976562 22.148438 C 24.355469 22.148438 23.039062 20.835938 23.039062 19.214844 C 23.039062 19.140625 23.054688 19.070312 23.082031 19.007812 L 24.875 14.308594 L 20.890625 14.308594 C 20.730469 14.535156 20.535156 14.730469 20.308594 14.890625 L 20.308594 26.683594 L 21.664062 27.246094 L 24.167969 28.277344 C 24.375 28.363281 24.511719 28.566406 24.511719 28.789062 L 24.511719 29.9375 C 24.511719 30.242188 24.265625 30.488281 23.957031 30.488281 L 13.9375 30.488281 C 13.632812 30.488281 13.386719 30.242188 13.386719 29.9375 L 13.386719 28.789062 C 13.386719 28.566406 13.519531 28.363281 13.730469 28.277344 L 16.234375 27.246094 L 17.589844 26.683594 L 17.589844 14.890625 C 17.363281 14.730469 17.167969 14.535156 17.007812 14.308594 L 13.03125 14.308594 L 14.8125 19.007812 C 14.839844 19.070312 14.851562 19.140625 14.851562 19.214844 C 14.851562 20.835938 13.539062 22.148438 11.917969 22.148438 C 10.296875 22.148438 8.980469 20.835938 8.980469 19.214844 C 8.980469 19.140625 8.996094 19.070312 9.023438 19.007812 Z M 16.59375 12.695312 L 10.023438 12.695312 C 9.882812 12.695312 9.769531 12.808594 9.769531 12.949219 C 9.769531 13.089844 9.882812 13.203125 10.023438 13.203125 L 16.59375 13.203125 C 16.585938 13.121094 16.582031 13.035156 16.582031 12.949219 C 16.582031 12.863281 16.585938 12.78125 16.59375 12.695312 Z M 18.695312 10.59375 C 18.777344 10.585938 18.863281 10.582031 18.949219 10.582031 C 19.035156 10.582031 19.117188 10.585938 19.203125 10.59375 L 19.203125 9.902344 C 19.203125 9.761719 19.089844 9.648438 18.949219 9.648438 C 18.808594 9.648438 18.695312 9.761719 18.695312 9.902344 Z M 21.304688 12.695312 C 21.3125 12.78125 21.316406 12.863281 21.316406 12.949219 C 21.316406 13.035156 21.3125 13.121094 21.304688 13.203125 L 27.875 13.203125 C 28.015625 13.203125 28.128906 13.089844 28.128906 12.949219 C 28.128906 12.808594 28.015625 12.695312 27.875 12.695312 Z M 19.203125 15.304688 C 19.117188 15.3125 19.035156 15.316406 18.949219 15.316406 C 18.863281 15.316406 18.777344 15.3125 18.695312 15.304688 L 18.695312 26.230469 L 18.738281 26.210938 C 18.875 26.15625 19.023438 26.15625 19.160156 26.210938 L 19.203125 26.230469 Z M 27.558594 18.660156 L 25.980469 14.503906 L 24.394531 18.660156 Z M 13.5 18.660156 L 11.925781 14.503906 L 10.335938 18.660156 Z M 13.664062 19.765625 L 10.171875 19.765625 C 10.40625 20.507812 11.101562 21.042969 11.917969 21.042969 C 12.734375 21.042969 13.429688 20.507812 13.664062 19.765625 Z M 27.71875 19.765625 L 24.230469 19.765625 C 24.464844 20.507812 25.15625 21.042969 25.976562 21.042969 C 26.792969 21.042969 27.488281 20.507812 27.71875 19.765625 Z M 18.949219 27.320312 L 16.65625 28.265625 L 14.492188 29.160156 L 14.492188 29.382812 L 23.40625 29.382812 L 23.40625 29.160156 L 21.242188 28.265625 Z M 18.949219 11.6875 C 18.25 11.6875 17.6875 12.25 17.6875 12.949219 C 17.6875 13.648438 18.25 14.214844 18.949219 14.214844 C 19.648438 14.214844 20.210938 13.648438 20.210938 12.949219 C 20.210938 12.25 19.648438 11.6875 18.949219 11.6875 Z M 11.027344 29.402344 C 11.359375 29.40625 11.679688 29.539062 11.917969 29.777344 C 12.160156 30.019531 12.292969 30.34375 12.292969 30.683594 L 12.292969 37.714844 C 12.292969 38.054688 12.160156 38.382812 11.917969 38.621094 C 11.675781 38.863281 11.351562 38.996094 11.011719 38.996094 L 2.75 38.996094 C 2.410156 38.996094 2.085938 38.863281 1.84375 38.621094 C 1.605469 38.382812 1.46875 38.054688 1.46875 37.714844 L 1.46875 30.683594 C 1.46875 30.34375 1.605469 30.019531 1.84375 29.777344 C 2.082031 29.539062 2.402344 29.40625 2.738281 29.402344 L 2.738281 28.265625 C 2.738281 27.167969 3.171875 26.113281 3.949219 25.335938 C 4.726562 24.558594 5.78125 24.121094 6.882812 24.121094 C 7.980469 24.121094 9.035156 24.558594 9.8125 25.335938 C 10.589844 26.113281 11.027344 27.167969 11.027344 28.265625 Z M 3.84375 29.402344 L 4.992188 29.402344 L 4.992188 28.191406 C 4.992188 27.148438 5.839844 26.304688 6.882812 26.304688 C 7.925781 26.304688 8.769531 27.148438 8.769531 28.191406 L 8.769531 29.402344 L 9.921875 29.402344 L 9.921875 28.265625 C 9.921875 27.460938 9.601562 26.6875 9.03125 26.117188 C 8.460938 25.546875 7.6875 25.226562 6.882812 25.226562 C 6.074219 25.226562 5.300781 25.546875 4.730469 26.117188 C 4.164062 26.6875 3.84375 27.460938 3.84375 28.265625 Z M 6.097656 29.402344 L 7.664062 29.402344 L 7.664062 28.191406 C 7.664062 27.757812 7.3125 27.410156 6.882812 27.410156 C 6.449219 27.410156 6.097656 27.757812 6.097656 28.191406 Z M 11.011719 30.507812 L 2.75 30.507812 C 2.703125 30.507812 2.660156 30.523438 2.625 30.558594 C 2.59375 30.589844 2.574219 30.636719 2.574219 30.683594 L 2.574219 37.714844 C 2.574219 37.761719 2.59375 37.808594 2.625 37.839844 C 2.660156 37.875 2.703125 37.890625 2.75 37.890625 L 11.011719 37.890625 C 11.058594 37.890625 11.105469 37.875 11.136719 37.839844 C 11.171875 37.808594 11.1875 37.761719 11.1875 37.714844 L 11.1875 30.683594 C 11.1875 30.636719 11.171875 30.589844 11.136719 30.558594 C 11.105469 30.523438 11.058594 30.507812 11.011719 30.507812 Z M 5.558594 34.683594 C 5.121094 34.308594 4.84375 33.753906 4.84375 33.132812 C 4.84375 32.007812 5.757812 31.09375 6.882812 31.09375 C 8.007812 31.09375 8.917969 32.007812 8.917969 33.132812 C 8.917969 33.753906 8.640625 34.308594 8.203125 34.683594 L 8.203125 36.75 C 8.203125 37.054688 7.957031 37.304688 7.652344 37.304688 L 6.113281 37.304688 C 5.804688 37.304688 5.558594 37.054688 5.558594 36.75 Z M 6.664062 34.402344 L 6.664062 36.199219 L 7.101562 36.199219 L 7.101562 34.402344 C 7.101562 34.210938 7.199219 34.03125 7.363281 33.929688 C 7.632812 33.765625 7.816406 33.472656 7.816406 33.132812 C 7.816406 32.617188 7.398438 32.199219 6.882812 32.199219 C 6.367188 32.199219 5.949219 32.617188 5.949219 33.132812 C 5.949219 33.472656 6.128906 33.765625 6.398438 33.929688 C 6.5625 34.03125 6.664062 34.210938 6.664062 34.402344 Z M 12.613281 1.109375 L 1.148438 1.109375 L 1.148438 16.226562 L 5.304688 16.226562 C 5.609375 16.226562 5.855469 16.472656 5.855469 16.78125 C 5.855469 17.085938 5.609375 17.332031 5.304688 17.332031 L 0.992188 17.332031 C 0.742188 17.332031 0.5 17.230469 0.324219 17.054688 C 0.144531 16.878906 0.046875 16.636719 0.046875 16.382812 L 0.046875 0.949219 C 0.046875 0.699219 0.144531 0.457031 0.324219 0.28125 C 0.5 0.101562 0.742188 0.00390625 0.992188 0.00390625 L 12.769531 0.00390625 C 13.023438 0.00390625 13.261719 0.101562 13.441406 0.28125 C 13.617188 0.457031 13.71875 0.699219 13.71875 0.949219 L 13.71875 3.523438 C 13.71875 3.828125 13.472656 4.078125 13.164062 4.078125 C 12.859375 4.078125 12.613281 3.828125 12.613281 3.523438 Z M 4.25 3.695312 C 3.945312 3.695312 3.695312 3.449219 3.695312 3.144531 C 3.695312 2.839844 3.945312 2.589844 4.25 2.589844 L 9.515625 2.589844 C 9.820312 2.589844 10.066406 2.839844 10.066406 3.144531 C 10.066406 3.449219 9.820312 3.695312 9.515625 3.695312 Z M 2.933594 6.703125 C 2.628906 6.703125 2.378906 6.457031 2.378906 6.152344 C 2.378906 5.847656 2.628906 5.601562 2.933594 5.601562 L 5.304688 5.601562 C 5.609375 5.601562 5.855469 5.847656 5.855469 6.152344 C 5.855469 6.457031 5.609375 6.703125 5.304688 6.703125 Z M 2.933594 9.21875 C 2.628906 9.21875 2.378906 8.972656 2.378906 8.667969 C 2.378906 8.363281 2.628906 8.113281 2.933594 8.113281 L 5.304688 8.113281 C 5.609375 8.113281 5.855469 8.363281 5.855469 8.667969 C 5.855469 8.972656 5.609375 9.21875 5.304688 9.21875 Z M 2.933594 11.734375 C 2.628906 11.734375 2.378906 11.488281 2.378906 11.183594 C 2.378906 10.878906 2.628906 10.628906 2.933594 10.628906 L 5.304688 10.628906 C 5.609375 10.628906 5.855469 10.878906 5.855469 11.183594 C 5.855469 11.488281 5.609375 11.734375 5.304688 11.734375 Z M 2.933594 14.25 C 2.628906 14.25 2.378906 14.003906 2.378906 13.699219 C 2.378906 13.394531 2.628906 13.144531 2.933594 13.144531 L 5.304688 13.144531 C 5.609375 13.144531 5.855469 13.394531 5.855469 13.699219 C 5.855469 14.003906 5.609375 14.25 5.304688 14.25 Z M 26.09375 35.777344 L 37.558594 35.777344 L 37.558594 20.65625 L 32.59375 20.65625 C 32.289062 20.65625 32.042969 20.410156 32.042969 20.105469 C 32.042969 19.800781 32.289062 19.554688 32.59375 19.554688 L 37.714844 19.554688 C 37.964844 19.554688 38.207031 19.652344 38.382812 19.832031 C 38.5625 20.007812 38.660156 20.25 38.660156 20.5 L 38.660156 35.933594 C 38.660156 36.1875 38.5625 36.425781 38.382812 36.605469 C 38.207031 36.78125 37.964844 36.882812 37.714844 36.882812 L 25.9375 36.882812 C 25.683594 36.882812 25.445312 36.78125 25.265625 36.605469 C 25.089844 36.425781 24.988281 36.1875 24.988281 35.933594 L 24.988281 35.507812 C 24.988281 35.203125 25.234375 34.957031 25.542969 34.957031 C 25.847656 34.957031 26.09375 35.203125 26.09375 35.507812 Z M 32.59375 23.246094 C 32.289062 23.246094 32.042969 22.996094 32.042969 22.691406 C 32.042969 22.386719 32.289062 22.140625 32.59375 22.140625 L 34.457031 22.140625 C 34.761719 22.140625 35.011719 22.386719 35.011719 22.691406 C 35.011719 22.996094 34.761719 23.246094 34.457031 23.246094 Z M 32.59375 26.253906 C 32.289062 26.253906 32.042969 26.007812 32.042969 25.703125 C 32.042969 25.398438 32.289062 25.148438 32.59375 25.148438 L 35.773438 25.148438 C 36.078125 25.148438 36.328125 25.398438 36.328125 25.703125 C 36.328125 26.007812 36.078125 26.253906 35.773438 26.253906 Z M 32.59375 28.769531 C 32.289062 28.769531 32.042969 28.523438 32.042969 28.214844 C 32.042969 27.910156 32.289062 27.664062 32.59375 27.664062 L 35.773438 27.664062 C 36.078125 27.664062 36.328125 27.910156 36.328125 28.214844 C 36.328125 28.523438 36.078125 28.769531 35.773438 28.769531 Z M 32.59375 31.285156 C 32.289062 31.285156 32.042969 31.039062 32.042969 30.734375 C 32.042969 30.425781 32.289062 30.179688 32.59375 30.179688 L 35.773438 30.179688 C 36.078125 30.179688 36.328125 30.425781 36.328125 30.734375 C 36.328125 31.039062 36.078125 31.285156 35.773438 31.285156 Z M 32.59375 33.800781 C 32.289062 33.800781 32.042969 33.550781 32.042969 33.246094 C 32.042969 32.941406 32.289062 32.695312 32.59375 32.695312 L 35.773438 32.695312 C 36.078125 32.695312 36.328125 32.941406 36.328125 33.246094 C 36.328125 33.550781 36.078125 33.800781 35.773438 33.800781 Z M 32.59375 33.800781 " fill-opacity="1" fill-rule="evenodd"/></svg>