<svg xmlns="http://www.w3.org/2000/svg" xmlns:xlink="http://www.w3.org/1999/xlink" width="52" zoomAndPan="magnify" viewBox="0 0 39 38.999999" height="52" preserveAspectRatio="xMidYMid meet" version="1.0"><defs><clipPath id="87571fc1ef"><path d="M 14 11 L 36.527344 11 L 36.527344 34 L 14 34 Z M 14 11 " clip-rule="nonzero"/></clipPath><clipPath id="4e0726027b"><path d="M 2.777344 0 L 31 0 L 31 39 L 2.777344 39 Z M 2.777344 0 " clip-rule="nonzero"/></clipPath></defs><g clip-path="url(#87571fc1ef)"><path fill="#ffffff" d="M 35.710938 31 L 28.609375 23.898438 C 29.585938 22.542969 30.113281 20.921875 30.113281 19.222656 C 30.113281 17.085938 29.28125 15.074219 27.769531 13.5625 C 26.257812 12.050781 24.25 11.21875 22.109375 11.21875 C 19.972656 11.21875 17.960938 12.050781 16.449219 13.5625 C 14.9375 15.074219 14.105469 17.082031 14.105469 19.222656 C 14.105469 21.359375 14.9375 23.371094 16.449219 24.882812 C 17.960938 26.394531 19.972656 27.226562 22.109375 27.226562 C 23.8125 27.226562 25.433594 26.699219 26.785156 25.71875 L 33.890625 32.824219 C 34.390625 33.324219 35.207031 33.324219 35.710938 32.824219 C 36.210938 32.320312 36.210938 31.503906 35.710938 31 Z M 26.582031 23.695312 C 24.117188 26.160156 20.105469 26.160156 17.640625 23.695312 C 15.175781 21.226562 15.175781 17.21875 17.640625 14.75 C 20.105469 12.285156 24.117188 12.285156 26.582031 14.75 C 29.050781 17.21875 29.050781 21.226562 26.582031 23.695312 Z M 26.582031 23.695312 " fill-opacity="1" fill-rule="nonzero"/></g><path fill="#ffffff" d="M 6.292969 23.714844 L 8.789062 23.714844 L 8.789062 26.699219 L 6.292969 26.699219 Z M 6.292969 23.714844 " fill-opacity="1" fill-rule="nonzero"/><path fill="#ffffff" d="M 10.023438 21.851562 L 12.523438 21.851562 L 12.523438 26.699219 L 10.023438 26.699219 Z M 10.023438 21.851562 " fill-opacity="1" fill-rule="nonzero"/><path fill="#ffffff" d="M 21.210938 24.5 C 21.507812 24.546875 21.808594 24.574219 22.109375 24.574219 C 22.660156 24.574219 23.199219 24.492188 23.710938 24.335938 L 23.710938 17 L 21.210938 17 Z M 21.210938 24.5 " fill-opacity="1" fill-rule="nonzero"/><path fill="#ffffff" d="M 17.484375 21.910156 C 17.710938 22.304688 17.992188 22.671875 18.328125 23.007812 C 18.8125 23.492188 19.375 23.871094 19.980469 24.136719 L 19.980469 18.863281 L 17.484375 18.863281 Z M 17.484375 21.910156 " fill-opacity="1" fill-rule="nonzero"/><path fill="#ffffff" d="M 13.753906 22.492188 L 13.753906 26.699219 L 16.25 26.699219 L 16.25 26.015625 C 16.085938 25.875 15.921875 25.722656 15.765625 25.566406 C 14.875 24.679688 14.199219 23.632812 13.753906 22.492188 Z M 13.753906 22.492188 " fill-opacity="1" fill-rule="nonzero"/><path fill="#ffffff" d="M 8.453125 11.351562 L 15.804688 11.351562 L 15.804688 12.28125 L 8.453125 12.28125 Z M 8.453125 11.351562 " fill-opacity="1" fill-rule="nonzero"/><path fill="#ffffff" d="M 8.453125 13.550781 L 13.753906 13.550781 L 13.753906 14.484375 L 8.453125 14.484375 Z M 8.453125 13.550781 " fill-opacity="1" fill-rule="nonzero"/><path fill="#ffffff" d="M 8.453125 15.675781 L 12.523438 15.675781 L 12.523438 16.609375 L 8.453125 16.609375 Z M 8.453125 15.675781 " fill-opacity="1" fill-rule="nonzero"/><path fill="#ffffff" d="M 8.472656 8.976562 L 25.113281 8.976562 L 25.113281 9.910156 L 8.472656 9.910156 Z M 8.472656 8.976562 " fill-opacity="1" fill-rule="nonzero"/><g clip-path="url(#4e0726027b)"><path fill="#ffffff" d="M 30.074219 31.824219 C 29.691406 31.824219 29.378906 32.136719 29.378906 32.519531 L 29.378906 37.585938 L 4.171875 37.585938 L 4.171875 1.414062 L 29.378906 1.414062 L 29.378906 13.410156 C 29.378906 13.792969 29.691406 14.105469 30.074219 14.105469 C 30.457031 14.105469 30.769531 13.792969 30.769531 13.410156 L 30.769531 0.25 C 30.769531 0.121094 30.667969 0.0195312 30.539062 0.0195312 L 3.007812 0.0195312 C 2.882812 0.0195312 2.777344 0.121094 2.777344 0.25 L 2.777344 38.75 C 2.777344 38.878906 2.882812 38.980469 3.007812 38.980469 L 30.542969 38.980469 C 30.667969 38.980469 30.773438 38.878906 30.773438 38.75 L 30.773438 32.523438 C 30.773438 32.140625 30.457031 31.824219 30.074219 31.824219 Z M 30.074219 31.824219 " fill-opacity="1" fill-rule="nonzero"/></g><path fill="#ffffff" d="M 11.011719 6.625 L 11.363281 7.851562 L 12.179688 7.851562 L 10.890625 3.40625 L 9.921875 3.40625 L 8.625 7.851562 L 9.417969 7.851562 L 9.753906 6.625 Z M 10.175781 4.957031 C 10.246094 4.691406 10.3125 4.347656 10.371094 4.070312 L 10.386719 4.070312 C 10.449219 4.34375 10.519531 4.679688 10.59375 4.960938 L 10.894531 6.035156 L 9.875 6.035156 Z M 10.175781 4.957031 " fill-opacity="1" fill-rule="nonzero"/><path fill="#ffffff" d="M 12.582031 3.40625 L 12.582031 6.042969 C 12.582031 7.351562 13.171875 7.921875 14.128906 7.921875 C 15.113281 7.921875 15.742188 7.332031 15.742188 6.027344 L 15.742188 3.40625 L 14.964844 3.40625 L 14.964844 6.101562 C 14.964844 6.929688 14.65625 7.277344 14.15625 7.277344 C 13.6875 7.277344 13.367188 6.925781 13.367188 6.101562 L 13.367188 3.40625 Z M 12.582031 3.40625 " fill-opacity="1" fill-rule="nonzero"/><path fill="#ffffff" d="M 20.039062 5.53125 C 20.039062 4.734375 19.789062 4.1875 19.375 3.847656 C 19.011719 3.535156 18.503906 3.375 17.765625 3.375 C 17.335938 3.375 16.9375 3.410156 16.621094 3.46875 L 16.621094 7.835938 C 16.855469 7.867188 17.179688 7.886719 17.582031 7.886719 C 18.359375 7.886719 18.980469 7.703125 19.382812 7.328125 C 19.777344 6.964844 20.039062 6.375 20.039062 5.53125 Z M 17.765625 7.269531 C 17.636719 7.269531 17.496094 7.265625 17.398438 7.25 L 17.398438 4.03125 C 17.496094 4.007812 17.644531 3.988281 17.847656 3.988281 C 18.742188 3.988281 19.226562 4.558594 19.21875 5.546875 C 19.21875 6.742188 18.644531 7.273438 17.765625 7.269531 Z M 17.765625 7.269531 " fill-opacity="1" fill-rule="nonzero"/><path fill="#ffffff" d="M 20.699219 3.40625 L 21.476562 3.40625 L 21.476562 7.851562 L 20.699219 7.851562 Z M 20.699219 3.40625 " fill-opacity="1" fill-rule="nonzero"/><path fill="#ffffff" d="M 23.894531 7.851562 L 23.894531 4.078125 L 25.03125 4.078125 L 25.03125 3.40625 L 21.984375 3.40625 L 21.984375 4.078125 L 23.113281 4.078125 L 23.113281 7.851562 Z M 23.894531 7.851562 " fill-opacity="1" fill-rule="nonzero"/><path fill="#ffffff" d="M 16.660156 36.847656 C 19.050781 36.847656 20.988281 34.90625 20.988281 32.519531 C 20.988281 30.128906 19.050781 28.195312 16.660156 28.195312 C 14.269531 28.195312 12.335938 30.132812 12.335938 32.519531 C 12.335938 34.910156 14.273438 36.847656 16.660156 36.847656 Z M 13.789062 32.777344 C 14.007812 32.558594 14.359375 32.558594 14.578125 32.777344 L 15.507812 33.703125 L 18.449219 30.761719 C 18.667969 30.542969 19.023438 30.542969 19.242188 30.761719 C 19.460938 30.980469 19.460938 31.335938 19.242188 31.554688 L 15.507812 35.289062 L 13.789062 33.570312 C 13.566406 33.351562 13.566406 32.996094 13.789062 32.777344 Z M 13.789062 32.777344 " fill-opacity="1" fill-rule="nonzero"/></svg>