<svg xmlns="http://www.w3.org/2000/svg" xmlns:xlink="http://www.w3.org/1999/xlink" width="52" zoomAndPan="magnify" viewBox="0 0 39 38.999999" height="52" preserveAspectRatio="xMidYMid meet" version="1.0"><defs><clipPath id="3d25c82568"><path d="M 24 0 L 36.867188 0 L 36.867188 19 L 24 19 Z M 24 0 " clip-rule="nonzero"/></clipPath><clipPath id="f1002dde6d"><path d="M 2.367188 0 L 15 0 L 15 19 L 2.367188 19 Z M 2.367188 0 " clip-rule="nonzero"/></clipPath></defs><path fill="#ffffff" d="M 31.238281 24.613281 L 31.238281 23.363281 L 31.277344 23.363281 C 32.140625 23.363281 32.84375 22.660156 32.84375 21.792969 C 32.84375 20.929688 32.140625 20.226562 31.277344 20.226562 L 7.714844 20.226562 C 6.851562 20.226562 6.148438 20.929688 6.148438 21.792969 C 6.148438 22.660156 6.851562 23.363281 7.714844 23.363281 L 7.75 23.363281 L 7.75 24.613281 C 7.75 24.742188 7.808594 24.863281 7.910156 24.945312 L 17.292969 32.449219 L 17.292969 38.566406 C 17.292969 38.714844 17.371094 38.851562 17.496094 38.929688 C 17.566406 38.96875 17.644531 38.992188 17.71875 38.992188 C 17.785156 38.992188 17.851562 38.976562 17.910156 38.945312 L 21.449219 37.167969 C 21.589844 37.097656 21.683594 36.949219 21.683594 36.789062 L 21.683594 32.449219 L 24.726562 30.019531 L 24.796875 30.082031 L 24.738281 30.59375 L 23.957031 31.019531 C 23.796875 31.105469 23.71875 31.289062 23.769531 31.464844 L 24.066406 32.515625 C 24.117188 32.691406 24.277344 32.808594 24.460938 32.796875 L 25.347656 32.75 L 25.667969 33.15625 L 25.414062 34.007812 C 25.363281 34.179688 25.441406 34.367188 25.597656 34.453125 L 26.554688 34.988281 C 26.710938 35.078125 26.910156 35.042969 27.03125 34.910156 L 27.625 34.246094 L 28.136719 34.308594 L 28.5625 35.089844 C 28.628906 35.214844 28.761719 35.289062 28.902344 35.289062 C 28.9375 35.289062 28.972656 35.285156 29.007812 35.277344 L 30.058594 34.976562 C 30.234375 34.929688 30.351562 34.765625 30.339844 34.585938 L 30.292969 33.695312 L 30.695312 33.378906 L 31.550781 33.628906 C 31.722656 33.679688 31.910156 33.605469 31.996094 33.445312 L 32.53125 32.492188 C 32.617188 32.332031 32.585938 32.136719 32.449219 32.015625 L 31.789062 31.421875 L 31.847656 30.910156 L 32.628906 30.484375 C 32.789062 30.398438 32.867188 30.210938 32.816406 30.039062 L 32.519531 28.984375 C 32.46875 28.8125 32.308594 28.695312 32.125 28.703125 L 31.238281 28.753906 L 30.917969 28.347656 L 31.171875 27.496094 C 31.222656 27.320312 31.144531 27.136719 30.988281 27.046875 L 30.03125 26.515625 C 29.875 26.425781 29.675781 26.457031 29.554688 26.59375 L 28.960938 27.253906 L 28.449219 27.195312 L 28.390625 27.085938 L 31.019531 24.984375 C 31.152344 24.910156 31.238281 24.773438 31.238281 24.613281 Z M 6.996094 21.792969 C 6.996094 21.398438 7.320312 21.078125 7.714844 21.078125 L 31.277344 21.078125 C 31.671875 21.078125 31.992188 21.398438 31.992188 21.792969 C 31.992188 22.1875 31.671875 22.511719 31.277344 22.511719 L 7.714844 22.511719 C 7.320312 22.511719 6.996094 22.1875 6.996094 21.792969 Z M 29.070312 28.046875 C 29.195312 28.0625 29.320312 28.015625 29.40625 27.921875 L 29.925781 27.339844 L 30.339844 27.570312 L 30.121094 28.320312 C 30.085938 28.441406 30.109375 28.570312 30.1875 28.667969 L 30.757812 29.390625 C 30.835938 29.488281 30.957031 29.542969 31.082031 29.535156 L 31.859375 29.492188 L 31.988281 29.953125 L 31.304688 30.324219 C 31.195312 30.382812 31.121094 30.496094 31.105469 30.621094 L 31 31.53125 C 30.984375 31.65625 31.03125 31.777344 31.125 31.863281 L 31.703125 32.382812 L 31.472656 32.800781 L 30.722656 32.578125 C 30.605469 32.542969 30.472656 32.566406 30.375 32.644531 L 29.65625 33.214844 C 29.558594 33.292969 29.503906 33.414062 29.507812 33.539062 L 29.550781 34.316406 L 29.09375 34.449219 L 28.71875 33.761719 C 28.660156 33.652344 28.550781 33.578125 28.425781 33.5625 L 27.515625 33.457031 C 27.5 33.453125 27.484375 33.453125 27.46875 33.453125 C 27.359375 33.453125 27.257812 33.5 27.183594 33.582031 L 26.660156 34.164062 L 26.246094 33.929688 L 26.464844 33.183594 C 26.5 33.0625 26.476562 32.929688 26.398438 32.832031 L 25.832031 32.113281 C 25.753906 32.015625 25.632812 31.960938 25.507812 31.96875 L 24.726562 32.007812 L 24.597656 31.550781 L 25.28125 31.179688 C 25.394531 31.117188 25.46875 31.007812 25.480469 30.882812 L 25.589844 29.972656 C 25.601562 29.847656 25.554688 29.722656 25.464844 29.640625 L 24.882812 29.117188 L 25.113281 28.703125 L 25.863281 28.925781 C 25.984375 28.960938 26.113281 28.933594 26.210938 28.855469 L 26.929688 28.289062 C 27.03125 28.210938 27.085938 28.089844 27.078125 27.964844 L 27.035156 27.183594 L 27.492188 27.054688 L 27.867188 27.742188 C 27.925781 27.851562 28.035156 27.925781 28.160156 27.941406 Z M 30.390625 24.398438 L 27.96875 26.335938 C 27.871094 26.230469 27.722656 26.1875 27.582031 26.226562 L 26.527344 26.523438 C 26.351562 26.574219 26.238281 26.738281 26.246094 26.917969 L 26.292969 27.804688 L 25.890625 28.125 L 25.035156 27.875 C 24.863281 27.824219 24.679688 27.898438 24.589844 28.054688 L 24.054688 29.011719 C 23.980469 29.148438 23.996094 29.316406 24.089844 29.4375 L 20.992188 31.914062 C 20.890625 31.996094 20.832031 32.117188 20.832031 32.246094 L 20.832031 36.527344 L 18.144531 37.875 L 18.144531 32.242188 C 18.144531 32.113281 18.085938 31.992188 17.984375 31.910156 L 8.601562 24.40625 L 8.601562 23.363281 L 30.390625 23.363281 Z M 30.390625 24.398438 " fill-opacity="1" fill-rule="nonzero"/><path fill="#ffffff" d="M 4.261719 4.105469 L 9.074219 4.105469 L 9.074219 4.957031 L 4.261719 4.957031 Z M 4.261719 4.105469 " fill-opacity="1" fill-rule="nonzero"/><path fill="#ffffff" d="M 4.261719 5.992188 L 9.074219 5.992188 L 9.074219 6.84375 L 4.261719 6.84375 Z M 4.261719 5.992188 " fill-opacity="1" fill-rule="nonzero"/><path fill="#ffffff" d="M 5.835938 7.878906 L 9.074219 7.878906 L 9.074219 8.730469 L 5.835938 8.730469 Z M 5.835938 7.878906 " fill-opacity="1" fill-rule="nonzero"/><path fill="#ffffff" d="M 4.261719 7.878906 L 5.105469 7.878906 L 5.105469 8.730469 L 4.261719 8.730469 Z M 4.261719 7.878906 " fill-opacity="1" fill-rule="nonzero"/><path fill="#ffffff" d="M 4.261719 2.363281 L 6.878906 2.363281 L 6.878906 3.214844 L 4.261719 3.214844 Z M 4.261719 2.363281 " fill-opacity="1" fill-rule="nonzero"/><path fill="#ffffff" d="M 15.613281 10.855469 L 19.273438 10.855469 L 19.273438 15.929688 L 18.398438 15.929688 C 18.101562 15.929688 17.917969 16.25 18.066406 16.503906 L 19.367188 18.757812 C 19.515625 19.011719 19.882812 19.011719 20.027344 18.757812 L 21.332031 16.503906 C 21.476562 16.25 21.292969 15.929688 21 15.929688 L 20.125 15.929688 L 20.125 10.855469 L 23.375 10.855469 C 23.609375 10.855469 23.800781 10.664062 23.800781 10.429688 L 23.800781 2.789062 C 23.800781 2.78125 23.800781 2.773438 23.800781 2.769531 C 23.800781 2.757812 23.800781 2.75 23.796875 2.742188 C 23.796875 2.738281 23.796875 2.734375 23.796875 2.734375 C 23.796875 2.726562 23.792969 2.714844 23.792969 2.707031 C 23.792969 2.695312 23.789062 2.6875 23.785156 2.679688 C 23.785156 2.675781 23.785156 2.675781 23.785156 2.671875 C 23.78125 2.664062 23.78125 2.65625 23.777344 2.648438 C 23.777344 2.648438 23.777344 2.648438 23.777344 2.644531 C 23.773438 2.636719 23.769531 2.628906 23.765625 2.621094 C 23.765625 2.617188 23.765625 2.617188 23.761719 2.613281 C 23.761719 2.605469 23.757812 2.597656 23.753906 2.59375 C 23.753906 2.589844 23.75 2.589844 23.75 2.589844 C 23.746094 2.582031 23.742188 2.574219 23.738281 2.566406 C 23.738281 2.5625 23.734375 2.5625 23.734375 2.558594 C 23.730469 2.550781 23.722656 2.546875 23.71875 2.539062 C 23.71875 2.539062 23.71875 2.535156 23.71875 2.535156 C 23.710938 2.527344 23.707031 2.519531 23.699219 2.515625 C 23.699219 2.511719 23.699219 2.511719 23.695312 2.507812 C 23.691406 2.5 23.683594 2.496094 23.675781 2.488281 L 21.320312 0.132812 C 21.3125 0.125 21.308594 0.121094 21.300781 0.113281 C 21.296875 0.113281 21.296875 0.109375 21.292969 0.109375 C 21.289062 0.101562 21.28125 0.0976562 21.273438 0.0898438 C 21.273438 0.0898438 21.273438 0.0898438 21.269531 0.0898438 C 21.265625 0.0859375 21.257812 0.078125 21.25 0.0742188 C 21.246094 0.0742188 21.246094 0.0742188 21.242188 0.0703125 C 21.234375 0.0664062 21.226562 0.0625 21.21875 0.0585938 C 21.21875 0.0585938 21.21875 0.0585938 21.21875 0.0546875 C 21.210938 0.0507812 21.203125 0.0507812 21.195312 0.046875 C 21.191406 0.0429688 21.191406 0.0429688 21.1875 0.0429688 C 21.179688 0.0390625 21.171875 0.0351562 21.164062 0.03125 C 21.164062 0.03125 21.160156 0.03125 21.160156 0.03125 C 21.152344 0.0273438 21.144531 0.0273438 21.136719 0.0234375 C 21.132812 0.0234375 21.132812 0.0234375 21.128906 0.0234375 C 21.121094 0.0195312 21.113281 0.0195312 21.101562 0.015625 C 21.09375 0.015625 21.085938 0.0117188 21.078125 0.0117188 C 21.074219 0.0117188 21.070312 0.0117188 21.070312 0.0117188 C 21.0625 0.0117188 21.050781 0.0078125 21.042969 0.0078125 C 21.035156 0.0078125 21.027344 0.0078125 21.019531 0.0078125 L 15.613281 0.0078125 C 15.378906 0.0078125 15.191406 0.199219 15.191406 0.433594 L 15.191406 10.429688 C 15.191406 10.664062 15.378906 10.855469 15.613281 10.855469 Z M 22.34375 2.359375 L 21.445312 2.351562 L 21.445312 1.460938 Z M 16.039062 0.859375 L 20.59375 0.859375 L 20.59375 2.777344 C 20.59375 3.011719 20.785156 3.199219 21.019531 3.203125 L 22.949219 3.210938 L 22.949219 10.003906 L 16.039062 10.003906 Z M 16.039062 0.859375 " fill-opacity="1" fill-rule="nonzero"/><path fill="#ffffff" d="M 18.664062 4.105469 L 21.894531 4.105469 L 21.894531 4.957031 L 18.664062 4.957031 Z M 18.664062 4.105469 " fill-opacity="1" fill-rule="nonzero"/><path fill="#ffffff" d="M 17.082031 4.105469 L 17.933594 4.105469 L 17.933594 4.957031 L 17.082031 4.957031 Z M 17.082031 4.105469 " fill-opacity="1" fill-rule="nonzero"/><path fill="#ffffff" d="M 17.082031 5.992188 L 21.894531 5.992188 L 21.894531 6.84375 L 17.082031 6.84375 Z M 17.082031 5.992188 " fill-opacity="1" fill-rule="nonzero"/><path fill="#ffffff" d="M 17.082031 7.878906 L 21.894531 7.878906 L 21.894531 8.730469 L 17.082031 8.730469 Z M 17.082031 7.878906 " fill-opacity="1" fill-rule="nonzero"/><path fill="#ffffff" d="M 17.082031 2.363281 L 19.699219 2.363281 L 19.699219 3.214844 L 17.082031 3.214844 Z M 17.082031 2.363281 " fill-opacity="1" fill-rule="nonzero"/><g clip-path="url(#3d25c82568)"><path fill="#ffffff" d="M 36.621094 2.769531 C 36.621094 2.769531 36.621094 2.769531 36.621094 2.765625 C 36.621094 2.757812 36.621094 2.75 36.621094 2.738281 C 36.621094 2.738281 36.617188 2.734375 36.617188 2.734375 C 36.617188 2.722656 36.617188 2.714844 36.613281 2.707031 C 36.613281 2.695312 36.609375 2.6875 36.609375 2.679688 C 36.605469 2.675781 36.605469 2.675781 36.605469 2.671875 C 36.605469 2.664062 36.601562 2.65625 36.597656 2.648438 C 36.597656 2.648438 36.597656 2.648438 36.597656 2.644531 C 36.59375 2.636719 36.589844 2.628906 36.585938 2.621094 C 36.585938 2.617188 36.585938 2.617188 36.585938 2.613281 C 36.582031 2.605469 36.578125 2.597656 36.574219 2.59375 C 36.574219 2.589844 36.574219 2.589844 36.574219 2.589844 C 36.566406 2.582031 36.5625 2.574219 36.558594 2.566406 C 36.558594 2.5625 36.554688 2.5625 36.554688 2.558594 C 36.550781 2.550781 36.546875 2.542969 36.539062 2.539062 C 36.539062 2.539062 36.539062 2.535156 36.539062 2.535156 C 36.535156 2.527344 36.527344 2.519531 36.523438 2.515625 C 36.519531 2.511719 36.519531 2.511719 36.515625 2.507812 C 36.511719 2.5 36.503906 2.496094 36.496094 2.488281 L 34.140625 0.132812 C 34.136719 0.125 34.128906 0.121094 34.121094 0.113281 C 34.121094 0.113281 34.117188 0.109375 34.117188 0.109375 C 34.109375 0.101562 34.101562 0.0976562 34.09375 0.0898438 C 34.085938 0.0859375 34.078125 0.078125 34.070312 0.0742188 C 34.070312 0.0742188 34.066406 0.0742188 34.066406 0.0703125 C 34.058594 0.0664062 34.050781 0.0625 34.042969 0.0585938 C 34.039062 0.0585938 34.039062 0.0585938 34.039062 0.0546875 C 34.03125 0.0507812 34.023438 0.0507812 34.015625 0.046875 C 34.015625 0.0429688 34.011719 0.0429688 34.011719 0.0429688 C 34 0.0390625 33.992188 0.0351562 33.984375 0.03125 C 33.984375 0.03125 33.984375 0.03125 33.980469 0.03125 C 33.972656 0.0273438 33.964844 0.0273438 33.957031 0.0234375 C 33.957031 0.0234375 33.953125 0.0234375 33.953125 0.0234375 C 33.941406 0.0195312 33.933594 0.0195312 33.925781 0.015625 C 33.914062 0.015625 33.90625 0.0117188 33.898438 0.0117188 C 33.894531 0.0117188 33.894531 0.0117188 33.890625 0.0117188 C 33.882812 0.0117188 33.875 0.0078125 33.867188 0.0078125 C 33.863281 0.0078125 33.863281 0.0078125 33.863281 0.0078125 C 33.855469 0.0078125 33.847656 0.0078125 33.84375 0.0078125 L 28.4375 0.0078125 C 28.203125 0.0078125 28.011719 0.199219 28.011719 0.433594 L 28.011719 10.429688 C 28.011719 10.664062 28.203125 10.855469 28.4375 10.855469 L 32.304688 10.855469 L 32.304688 11.789062 C 32.304688 12.429688 31.78125 12.949219 31.140625 12.949219 L 28.199219 12.949219 C 27.085938 12.949219 26.183594 13.855469 26.183594 14.964844 L 26.183594 15.929688 L 25.308594 15.929688 C 25.015625 15.929688 24.832031 16.25 24.976562 16.503906 L 26.277344 18.757812 C 26.425781 19.011719 26.792969 19.011719 26.941406 18.757812 L 28.242188 16.503906 C 28.386719 16.25 28.203125 15.929688 27.910156 15.929688 L 27.035156 15.929688 L 27.035156 14.964844 C 27.035156 14.324219 27.558594 13.800781 28.199219 13.800781 L 31.140625 13.800781 C 32.25 13.800781 33.15625 12.898438 33.15625 11.789062 L 33.15625 10.855469 L 36.195312 10.855469 C 36.433594 10.855469 36.621094 10.664062 36.621094 10.429688 L 36.621094 2.789062 C 36.621094 2.78125 36.621094 2.773438 36.621094 2.769531 Z M 35.164062 2.359375 L 34.265625 2.351562 L 34.265625 1.460938 Z M 28.863281 10.003906 L 28.863281 0.859375 L 33.417969 0.859375 L 33.417969 2.777344 C 33.417969 3.011719 33.605469 3.199219 33.839844 3.203125 L 35.773438 3.210938 L 35.773438 10.003906 Z M 28.863281 10.003906 " fill-opacity="1" fill-rule="nonzero"/></g><path fill="#ffffff" d="M 29.902344 4.105469 L 34.714844 4.105469 L 34.714844 4.957031 L 29.902344 4.957031 Z M 29.902344 4.105469 " fill-opacity="1" fill-rule="nonzero"/><path fill="#ffffff" d="M 33.839844 5.992188 L 34.714844 5.992188 L 34.714844 6.84375 L 33.839844 6.84375 Z M 33.839844 5.992188 " fill-opacity="1" fill-rule="nonzero"/><path fill="#ffffff" d="M 29.902344 5.992188 L 33.222656 5.992188 L 33.222656 6.84375 L 29.902344 6.84375 Z M 29.902344 5.992188 " fill-opacity="1" fill-rule="nonzero"/><path fill="#ffffff" d="M 29.902344 7.878906 L 34.714844 7.878906 L 34.714844 8.730469 L 29.902344 8.730469 Z M 29.902344 7.878906 " fill-opacity="1" fill-rule="nonzero"/><path fill="#ffffff" d="M 29.902344 2.363281 L 32.519531 2.363281 L 32.519531 3.214844 L 29.902344 3.214844 Z M 29.902344 2.363281 " fill-opacity="1" fill-rule="nonzero"/><g clip-path="url(#f1002dde6d)"><path fill="#ffffff" d="M 6.242188 11.789062 C 6.242188 12.898438 7.144531 13.800781 8.257812 13.800781 L 11.199219 13.800781 C 11.839844 13.800781 12.363281 14.324219 12.363281 14.964844 L 12.363281 15.929688 L 11.488281 15.929688 C 11.191406 15.929688 11.007812 16.25 11.15625 16.503906 L 12.457031 18.757812 C 12.605469 19.011719 12.972656 19.011719 13.117188 18.757812 L 14.417969 16.503906 C 14.566406 16.25 14.382812 15.929688 14.089844 15.929688 L 13.210938 15.929688 L 13.210938 14.964844 C 13.210938 13.855469 12.308594 12.949219 11.199219 12.949219 L 8.257812 12.949219 C 7.613281 12.949219 7.09375 12.429688 7.09375 11.789062 L 7.09375 10.855469 L 10.554688 10.855469 C 10.789062 10.855469 10.980469 10.664062 10.980469 10.429688 L 10.980469 2.789062 C 10.980469 2.78125 10.980469 2.777344 10.980469 2.769531 C 10.980469 2.769531 10.980469 2.769531 10.980469 2.765625 C 10.980469 2.757812 10.976562 2.75 10.976562 2.742188 C 10.976562 2.738281 10.976562 2.734375 10.976562 2.734375 C 10.976562 2.726562 10.972656 2.714844 10.972656 2.707031 C 10.96875 2.695312 10.96875 2.6875 10.964844 2.679688 C 10.964844 2.675781 10.964844 2.675781 10.964844 2.671875 C 10.960938 2.664062 10.957031 2.65625 10.957031 2.648438 C 10.957031 2.648438 10.957031 2.648438 10.953125 2.644531 C 10.953125 2.636719 10.949219 2.628906 10.945312 2.621094 C 10.945312 2.617188 10.941406 2.617188 10.941406 2.613281 C 10.9375 2.605469 10.933594 2.597656 10.933594 2.59375 C 10.929688 2.589844 10.929688 2.589844 10.929688 2.589844 C 10.925781 2.582031 10.921875 2.574219 10.917969 2.566406 C 10.914062 2.5625 10.914062 2.5625 10.914062 2.558594 C 10.90625 2.550781 10.902344 2.546875 10.898438 2.539062 C 10.898438 2.539062 10.898438 2.535156 10.898438 2.535156 C 10.890625 2.527344 10.886719 2.519531 10.878906 2.515625 C 10.878906 2.511719 10.875 2.511719 10.875 2.507812 C 10.867188 2.5 10.863281 2.496094 10.855469 2.488281 L 8.5 0.132812 C 8.492188 0.125 8.484375 0.121094 8.480469 0.113281 C 8.476562 0.113281 8.476562 0.109375 8.472656 0.109375 C 8.464844 0.101562 8.460938 0.0976562 8.453125 0.0898438 C 8.449219 0.0898438 8.449219 0.0898438 8.449219 0.0898438 C 8.441406 0.0859375 8.4375 0.078125 8.429688 0.0742188 C 8.425781 0.0742188 8.425781 0.0742188 8.421875 0.0703125 C 8.414062 0.0664062 8.40625 0.0625 8.398438 0.0585938 C 8.398438 0.0585938 8.398438 0.0585938 8.394531 0.0546875 C 8.386719 0.0507812 8.382812 0.0507812 8.375 0.046875 C 8.371094 0.0429688 8.371094 0.0429688 8.367188 0.0429688 C 8.359375 0.0390625 8.351562 0.0351562 8.34375 0.03125 C 8.339844 0.03125 8.339844 0.03125 8.339844 0.03125 C 8.332031 0.0273438 8.324219 0.0273438 8.316406 0.0234375 C 8.3125 0.0234375 8.3125 0.0234375 8.308594 0.0234375 C 8.300781 0.0195312 8.292969 0.0195312 8.28125 0.015625 C 8.273438 0.015625 8.265625 0.0117188 8.253906 0.0117188 C 8.253906 0.0117188 8.25 0.0117188 8.246094 0.0117188 C 8.238281 0.0117188 8.230469 0.0078125 8.222656 0.0078125 C 8.222656 0.0078125 8.222656 0.0078125 8.21875 0.0078125 C 8.214844 0.0078125 8.207031 0.0078125 8.199219 0.0078125 L 2.792969 0.0078125 C 2.558594 0.0078125 2.367188 0.199219 2.367188 0.433594 L 2.367188 10.429688 C 2.367188 10.664062 2.558594 10.855469 2.792969 10.855469 L 6.242188 10.855469 Z M 9.523438 2.359375 L 8.625 2.351562 L 8.625 1.460938 Z M 3.21875 0.859375 L 7.773438 0.859375 L 7.773438 2.777344 C 7.773438 3.011719 7.960938 3.199219 8.195312 3.203125 L 10.128906 3.210938 L 10.128906 10.003906 L 3.21875 10.003906 Z M 3.21875 0.859375 " fill-opacity="1" fill-rule="nonzero"/></g><path fill="#ffffff" d="M 26.550781 29.777344 C 26.292969 30.242188 26.230469 30.78125 26.375 31.292969 C 26.625 32.171875 27.425781 32.746094 28.292969 32.746094 C 28.472656 32.746094 28.65625 32.722656 28.835938 32.667969 C 29.894531 32.371094 30.511719 31.265625 30.210938 30.207031 C 30.066406 29.695312 29.730469 29.269531 29.265625 29.011719 C 28.800781 28.75 28.261719 28.6875 27.75 28.832031 C 27.238281 28.976562 26.8125 29.3125 26.550781 29.777344 Z M 28.296875 29.53125 C 28.5 29.53125 28.703125 29.582031 28.886719 29.6875 C 29.171875 29.84375 29.378906 30.105469 29.46875 30.417969 C 29.652344 31.066406 29.273438 31.742188 28.625 31.925781 C 28.3125 32.015625 27.984375 31.976562 27.699219 31.816406 C 27.414062 31.65625 27.207031 31.398438 27.121094 31.085938 C 27.03125 30.769531 27.070312 30.441406 27.226562 30.15625 C 27.386719 29.871094 27.648438 29.667969 27.960938 29.578125 C 28.070312 29.546875 28.183594 29.53125 28.296875 29.53125 Z M 28.296875 29.53125 " fill-opacity="1" fill-rule="nonzero"/></svg>