<svg xmlns="http://www.w3.org/2000/svg" xmlns:xlink="http://www.w3.org/1999/xlink" width="52" zoomAndPan="magnify" viewBox="0 0 39 38.999999" height="52" preserveAspectRatio="xMidYMid meet" version="1.0"><path fill="#ffffff" d="M 37.945312 19.5 C 37.945312 18.730469 37.320312 18.101562 36.546875 18.101562 C 35.777344 18.101562 35.152344 18.730469 35.152344 19.5 C 35.152344 20.269531 35.777344 20.898438 36.546875 20.898438 C 37.320312 20.898438 37.945312 20.269531 37.945312 19.5 Z M 29.988281 25.046875 C 29.988281 25.816406 30.617188 26.441406 31.386719 26.441406 C 32.160156 26.441406 32.785156 25.816406 32.785156 25.046875 C 32.785156 24.273438 32.15625 23.648438 31.386719 23.648438 C 30.617188 23.648438 29.988281 24.273438 29.988281 25.046875 Z M 28.113281 33.027344 C 27.878906 33.027344 27.636719 33.085938 27.417969 33.214844 C 26.75 33.601562 26.519531 34.457031 26.90625 35.125 C 27.09375 35.445312 27.394531 35.679688 27.753906 35.777344 C 28.117188 35.871094 28.492188 35.824219 28.816406 35.636719 C 29.140625 35.449219 29.371094 35.148438 29.46875 34.785156 C 29.5625 34.425781 29.515625 34.050781 29.328125 33.726562 C 29.070312 33.277344 28.597656 33.027344 28.113281 33.027344 Z M 18.972656 8.828125 C 13.328125 9.105469 8.816406 13.785156 8.816406 19.5 C 8.816406 25.214844 13.328125 29.894531 18.972656 30.171875 Z M 27.417969 5.785156 C 27.742188 5.972656 28.117188 6.023438 28.476562 5.925781 C 28.839844 5.828125 29.140625 5.597656 29.328125 5.273438 C 29.515625 4.949219 29.5625 4.574219 29.46875 4.214844 C 29.371094 3.851562 29.136719 3.550781 28.816406 3.363281 C 28.601562 3.238281 28.359375 3.175781 28.117188 3.175781 C 27.996094 3.175781 27.875 3.191406 27.753906 3.226562 C 27.394531 3.320312 27.09375 3.554688 26.90625 3.875 C 26.523438 4.542969 26.75 5.398438 27.417969 5.785156 Z M 29.988281 13.601562 C 29.988281 14.371094 30.617188 15 31.386719 15 C 32.160156 15 32.785156 14.371094 32.785156 13.601562 C 32.785156 12.832031 32.15625 12.207031 31.386719 12.207031 C 30.617188 12.207031 29.988281 12.832031 29.988281 13.601562 Z M 39 19.5 C 39 20.851562 37.898438 21.953125 36.546875 21.953125 C 35.378906 21.953125 34.398438 21.125 34.15625 20.027344 L 20.027344 20.027344 L 20.027344 22.421875 L 25.371094 22.421875 C 25.511719 22.421875 25.644531 22.476562 25.742188 22.574219 L 27.683594 24.519531 L 28.996094 24.519531 C 29.234375 23.417969 30.21875 22.59375 31.386719 22.59375 C 32.742188 22.59375 33.839844 23.691406 33.839844 25.046875 C 33.839844 26.398438 32.742188 27.496094 31.386719 27.496094 C 30.21875 27.496094 29.234375 26.671875 28.996094 25.574219 L 27.46875 25.574219 C 27.328125 25.574219 27.191406 25.515625 27.09375 25.417969 L 25.152344 23.476562 L 20.027344 23.476562 L 20.027344 25.871094 L 24.359375 25.871094 C 24.5 25.871094 24.632812 25.925781 24.734375 26.023438 L 28.488281 29.78125 C 28.589844 29.878906 28.644531 30.015625 28.644531 30.152344 L 28.644531 32.035156 C 29.292969 32.179688 29.882812 32.582031 30.238281 33.199219 C 30.566406 33.765625 30.65625 34.425781 30.484375 35.058594 C 30.316406 35.691406 29.910156 36.222656 29.34375 36.550781 C 28.964844 36.765625 28.546875 36.878906 28.121094 36.878906 C 27.90625 36.878906 27.695312 36.851562 27.484375 36.792969 C 26.847656 36.625 26.320312 36.21875 25.992188 35.652344 C 25.316406 34.480469 25.71875 32.980469 26.890625 32.300781 C 27.113281 32.171875 27.351562 32.085938 27.589844 32.03125 L 27.589844 30.371094 L 24.144531 26.925781 L 20.027344 26.925781 L 20.027344 30.710938 C 20.027344 31 19.789062 31.238281 19.5 31.238281 C 13.027344 31.238281 7.761719 25.972656 7.761719 19.5 C 7.761719 13.027344 13.027344 7.761719 19.5 7.761719 C 19.792969 7.761719 20.027344 8 20.027344 8.289062 L 20.027344 12.074219 L 24.144531 12.074219 L 27.589844 8.628906 L 27.589844 6.964844 C 27.347656 6.914062 27.113281 6.824219 26.890625 6.699219 C 25.71875 6.023438 25.316406 4.519531 25.992188 3.347656 C 26.320312 2.78125 26.847656 2.375 27.484375 2.207031 C 28.113281 2.035156 28.773438 2.125 29.34375 2.453125 C 29.910156 2.777344 30.316406 3.308594 30.484375 3.941406 C 30.65625 4.574219 30.566406 5.234375 30.238281 5.800781 C 29.914062 6.367188 29.382812 6.773438 28.75 6.941406 C 28.714844 6.953125 28.679688 6.957031 28.644531 6.964844 L 28.644531 8.847656 C 28.644531 8.984375 28.589844 9.121094 28.488281 9.21875 L 24.734375 12.976562 C 24.632812 13.074219 24.5 13.128906 24.359375 13.128906 L 20.027344 13.128906 L 20.027344 15.523438 L 25.019531 15.523438 L 27.316406 13.230469 C 27.414062 13.132812 27.546875 13.074219 27.6875 13.074219 L 28.996094 13.074219 C 29.234375 11.976562 30.21875 11.152344 31.386719 11.152344 C 32.742188 11.152344 33.839844 12.25 33.839844 13.601562 C 33.839844 14.953125 32.742188 16.054688 31.386719 16.054688 C 30.21875 16.054688 29.234375 15.230469 28.996094 14.128906 L 27.90625 14.128906 L 25.613281 16.425781 C 25.515625 16.523438 25.378906 16.578125 25.238281 16.578125 L 20.027344 16.578125 L 20.027344 18.972656 L 34.15625 18.972656 C 34.398438 17.875 35.378906 17.046875 36.546875 17.046875 C 37.898438 17.046875 39 18.148438 39 19.5 Z M 15.40625 26.28125 C 13.011719 24.832031 11.582031 22.296875 11.582031 19.5 C 11.582031 16.703125 13.011719 14.167969 15.40625 12.722656 C 15.65625 12.570312 15.980469 12.648438 16.132812 12.898438 C 16.28125 13.148438 16.203125 13.472656 15.953125 13.621094 C 13.878906 14.878906 12.636719 17.074219 12.636719 19.5 C 12.636719 21.925781 13.878906 24.121094 15.953125 25.378906 C 16.203125 25.527344 16.28125 25.851562 16.128906 26.101562 C 16.03125 26.265625 15.859375 26.355469 15.679688 26.355469 C 15.585938 26.355469 15.492188 26.332031 15.40625 26.28125 Z M 23.113281 35.484375 L 21.886719 38.664062 C 21.808594 38.867188 21.613281 39 21.394531 39 L 17.605469 39 C 17.386719 39 17.191406 38.867188 17.113281 38.664062 L 15.992188 35.753906 C 14.03125 35.332031 12.183594 34.566406 10.488281 33.472656 L 7.636719 34.738281 C 7.4375 34.828125 7.207031 34.785156 7.050781 34.628906 L 4.371094 31.949219 C 4.214844 31.792969 4.171875 31.558594 4.261719 31.363281 L 5.527344 28.511719 C 4.433594 26.820312 3.667969 24.972656 3.246094 23.007812 L 0.335938 21.886719 C 0.132812 21.808594 0 21.613281 0 21.394531 L 0 17.605469 C 0 17.386719 0.132812 17.191406 0.335938 17.113281 L 3.246094 15.992188 C 3.667969 14.027344 4.433594 12.179688 5.527344 10.488281 L 4.261719 7.636719 C 4.171875 7.441406 4.214844 7.207031 4.371094 7.050781 L 7.050781 4.371094 C 7.207031 4.214844 7.4375 4.171875 7.636719 4.261719 L 10.488281 5.527344 C 12.179688 4.433594 14.027344 3.667969 15.992188 3.246094 L 17.113281 0.335938 C 17.191406 0.132812 17.386719 0 17.605469 0 L 21.394531 0 C 21.613281 0 21.808594 0.132812 21.886719 0.335938 L 23.113281 3.515625 C 23.214844 3.789062 23.082031 4.09375 22.808594 4.195312 C 22.539062 4.300781 22.234375 4.167969 22.128906 3.894531 L 21.035156 1.054688 L 17.964844 1.054688 L 16.871094 3.894531 C 16.808594 4.066406 16.660156 4.1875 16.480469 4.222656 C 14.453125 4.621094 12.554688 5.410156 10.832031 6.566406 C 10.683594 6.664062 10.492188 6.683594 10.324219 6.609375 L 7.539062 5.371094 L 5.371094 7.542969 L 6.609375 10.324219 C 6.683594 10.492188 6.664062 10.683594 6.5625 10.832031 C 5.40625 12.554688 4.621094 14.457031 4.222656 16.484375 C 4.1875 16.660156 4.0625 16.808594 3.894531 16.871094 L 1.054688 17.964844 L 1.054688 21.035156 L 3.894531 22.128906 C 4.0625 22.191406 4.1875 22.339844 4.222656 22.519531 C 4.621094 24.546875 5.410156 26.445312 6.5625 28.167969 C 6.664062 28.316406 6.683594 28.511719 6.609375 28.675781 L 5.371094 31.460938 L 7.542969 33.628906 L 10.328125 32.390625 C 10.492188 32.320312 10.683594 32.335938 10.832031 32.4375 C 12.554688 33.59375 14.457031 34.378906 16.484375 34.777344 C 16.660156 34.8125 16.808594 34.9375 16.871094 35.105469 L 17.96875 37.945312 L 21.035156 37.945312 L 22.128906 35.105469 C 22.234375 34.835938 22.539062 34.699219 22.808594 34.804688 C 23.078125 34.90625 23.214844 35.214844 23.113281 35.484375 Z M 23.113281 35.484375 " fill-opacity="1" fill-rule="evenodd"/></svg>