<svg xmlns="http://www.w3.org/2000/svg" xmlns:xlink="http://www.w3.org/1999/xlink" width="52" zoomAndPan="magnify" viewBox="0 0 39 38.999999" height="52" preserveAspectRatio="xMidYMid meet" version="1.0"><defs><clipPath id="c8d0bd4c22"><path d="M 1.949219 0 L 9 0 L 9 7 L 1.949219 7 Z M 1.949219 0 " clip-rule="nonzero"/></clipPath><clipPath id="caf65efc44"><path d="M 30 32 L 37.199219 32 L 37.199219 39 L 30 39 Z M 30 32 " clip-rule="nonzero"/></clipPath></defs><path fill="#ffffff" d="M 30.710938 36.363281 L 16.832031 36.363281 C 16.496094 36.363281 16.21875 36.085938 16.21875 35.75 C 16.21875 35.410156 16.496094 35.136719 16.832031 35.136719 L 30.710938 35.136719 C 31.050781 35.136719 31.324219 35.410156 31.324219 35.75 C 31.324219 36.085938 31.050781 36.363281 30.710938 36.363281 Z M 30.710938 36.363281 " fill-opacity="1" fill-rule="nonzero"/><path fill="#ffffff" d="M 11.15625 36.011719 C 11.097656 36.011719 11.039062 36.003906 10.976562 35.984375 C 9.234375 35.457031 7.667969 34.359375 6.566406 32.894531 C 5.425781 31.382812 4.824219 29.578125 4.824219 27.675781 C 4.824219 25.359375 5.726562 23.175781 7.367188 21.535156 C 8.132812 20.769531 9.023438 20.160156 10.011719 19.726562 C 10.320312 19.589844 10.683594 19.730469 10.820312 20.039062 C 10.957031 20.351562 10.816406 20.710938 10.503906 20.847656 C 9.65625 21.222656 8.890625 21.746094 8.234375 22.402344 C 6.824219 23.8125 6.050781 25.683594 6.050781 27.675781 C 6.050781 30.984375 8.171875 33.855469 11.335938 34.8125 C 11.65625 34.914062 11.839844 35.253906 11.742188 35.578125 C 11.660156 35.84375 11.417969 36.011719 11.15625 36.011719 Z M 11.15625 36.011719 " fill-opacity="1" fill-rule="nonzero"/><path fill="#ffffff" d="M 28.738281 19.535156 C 28.503906 19.535156 28.28125 19.398438 28.179688 19.171875 C 28.042969 18.859375 28.183594 18.5 28.492188 18.363281 C 29.339844 17.988281 30.105469 17.464844 30.765625 16.808594 C 32.171875 15.398438 32.949219 13.527344 32.949219 11.535156 C 32.949219 8.226562 30.824219 5.359375 27.664062 4.398438 C 27.339844 4.296875 27.15625 3.957031 27.253906 3.632812 C 27.355469 3.308594 27.695312 3.125 28.019531 3.222656 C 29.765625 3.753906 31.332031 4.851562 32.433594 6.316406 C 33.570312 7.828125 34.171875 9.632812 34.171875 11.535156 C 34.171875 13.851562 33.269531 16.035156 31.628906 17.675781 C 30.863281 18.441406 29.976562 19.050781 28.984375 19.484375 C 28.90625 19.519531 28.820312 19.535156 28.738281 19.535156 Z M 28.738281 19.535156 " fill-opacity="1" fill-rule="nonzero"/><path fill="#ffffff" d="M 22.164062 4.074219 L 8.285156 4.074219 C 7.949219 4.074219 7.671875 3.800781 7.671875 3.460938 C 7.671875 3.125 7.949219 2.847656 8.285156 2.847656 L 22.164062 2.847656 C 22.503906 2.847656 22.777344 3.125 22.777344 3.460938 C 22.777344 3.800781 22.503906 4.074219 22.164062 4.074219 Z M 22.164062 4.074219 " fill-opacity="1" fill-rule="nonzero"/><g clip-path="url(#c8d0bd4c22)"><path fill="#ffffff" d="M 5.4375 6.921875 C 3.527344 6.921875 1.976562 5.371094 1.976562 3.460938 C 1.976562 1.554688 3.527344 0 5.4375 0 C 7.34375 0 8.898438 1.554688 8.898438 3.460938 C 8.898438 5.371094 7.34375 6.921875 5.4375 6.921875 Z M 5.4375 1.226562 C 4.203125 1.226562 3.199219 2.226562 3.199219 3.460938 C 3.199219 4.695312 4.203125 5.699219 5.4375 5.699219 C 6.671875 5.699219 7.671875 4.695312 7.671875 3.460938 C 7.671875 2.226562 6.667969 1.226562 5.4375 1.226562 Z M 5.4375 1.226562 " fill-opacity="1" fill-rule="nonzero"/></g><path fill="#ffffff" d="M 25.015625 6.921875 C 23.105469 6.921875 21.550781 5.371094 21.550781 3.460938 C 21.550781 1.554688 23.105469 0 25.015625 0 C 26.921875 0 28.476562 1.554688 28.476562 3.460938 C 28.476562 5.371094 26.921875 6.921875 25.015625 6.921875 Z M 25.015625 1.226562 C 23.78125 1.226562 22.777344 2.226562 22.777344 3.460938 C 22.777344 4.695312 23.78125 5.699219 25.015625 5.699219 C 26.246094 5.699219 27.25 4.695312 27.25 3.460938 C 27.25 2.226562 26.246094 1.226562 25.015625 1.226562 Z M 25.015625 1.226562 " fill-opacity="1" fill-rule="nonzero"/><path fill="#ffffff" d="M 13.984375 39.210938 C 12.074219 39.210938 10.523438 37.65625 10.523438 35.75 C 10.523438 33.839844 12.074219 32.289062 13.984375 32.289062 C 15.890625 32.289062 17.445312 33.839844 17.445312 35.75 C 17.445312 37.65625 15.890625 39.210938 13.984375 39.210938 Z M 13.984375 33.511719 C 12.75 33.511719 11.746094 34.515625 11.746094 35.75 C 11.746094 36.980469 12.75 37.984375 13.984375 37.984375 C 15.214844 37.984375 16.21875 36.980469 16.21875 35.75 C 16.21875 34.515625 15.214844 33.511719 13.984375 33.511719 Z M 13.984375 33.511719 " fill-opacity="1" fill-rule="nonzero"/><g clip-path="url(#caf65efc44)"><path fill="#ffffff" d="M 33.5625 39.210938 C 31.652344 39.210938 30.097656 37.65625 30.097656 35.75 C 30.097656 33.839844 31.652344 32.289062 33.5625 32.289062 C 35.46875 32.289062 37.023438 33.839844 37.023438 35.75 C 37.023438 37.65625 35.46875 39.210938 33.5625 39.210938 Z M 33.5625 33.511719 C 32.328125 33.511719 31.324219 34.515625 31.324219 35.75 C 31.324219 36.980469 32.328125 37.984375 33.5625 37.984375 C 34.792969 37.984375 35.796875 36.980469 35.796875 35.75 C 35.796875 34.515625 34.792969 33.511719 33.5625 33.511719 Z M 33.5625 33.511719 " fill-opacity="1" fill-rule="nonzero"/></g><path fill="#ffffff" d="M 21.089844 29.457031 L 17.910156 29.457031 C 17.570312 29.457031 17.296875 29.183594 17.296875 28.847656 L 17.296875 27.570312 C 16.640625 27.390625 16.015625 27.132812 15.421875 26.796875 L 14.523438 27.695312 C 14.28125 27.9375 13.894531 27.9375 13.65625 27.695312 L 11.40625 25.449219 C 11.292969 25.332031 11.226562 25.179688 11.226562 25.015625 C 11.226562 24.851562 11.292969 24.695312 11.40625 24.582031 L 12.308594 23.679688 C 11.972656 23.089844 11.710938 22.460938 11.53125 21.808594 L 10.257812 21.808594 C 9.917969 21.808594 9.644531 21.535156 9.644531 21.195312 L 9.644531 18.015625 C 9.644531 17.675781 9.917969 17.402344 10.257812 17.402344 L 11.53125 17.402344 C 11.710938 16.75 11.972656 16.121094 12.308594 15.53125 L 11.40625 14.628906 C 11.292969 14.515625 11.226562 14.359375 11.226562 14.195312 C 11.226562 14.03125 11.292969 13.878906 11.40625 13.761719 L 13.65625 11.515625 C 13.769531 11.398438 13.925781 11.335938 14.089844 11.335938 C 14.25 11.335938 14.40625 11.398438 14.523438 11.515625 L 15.421875 12.414062 C 16.015625 12.078125 16.640625 11.820312 17.296875 11.640625 L 17.296875 10.363281 C 17.296875 10.027344 17.570312 9.753906 17.910156 9.753906 L 21.089844 9.753906 C 21.425781 9.753906 21.703125 10.027344 21.703125 10.363281 L 21.703125 11.640625 C 22.355469 11.820312 22.984375 12.078125 23.574219 12.414062 L 24.476562 11.515625 C 24.589844 11.398438 24.746094 11.335938 24.910156 11.335938 C 25.070312 11.335938 25.226562 11.398438 25.34375 11.515625 L 27.589844 13.761719 C 27.828125 14 27.828125 14.390625 27.589844 14.628906 L 26.6875 15.53125 C 27.023438 16.121094 27.285156 16.75 27.464844 17.402344 L 28.738281 17.402344 C 29.078125 17.402344 29.351562 17.675781 29.351562 18.015625 L 29.351562 21.195312 C 29.351562 21.535156 29.078125 21.808594 28.738281 21.808594 L 27.464844 21.808594 C 27.285156 22.460938 27.023438 23.089844 26.6875 23.679688 L 27.589844 24.582031 C 27.828125 24.820312 27.828125 25.210938 27.589844 25.449219 L 25.34375 27.695312 C 25.101562 27.9375 24.714844 27.9375 24.476562 27.695312 L 23.574219 26.796875 C 22.984375 27.132812 22.355469 27.390625 21.703125 27.570312 L 21.703125 28.847656 C 21.703125 29.183594 21.425781 29.457031 21.089844 29.457031 Z M 18.523438 28.234375 L 20.476562 28.234375 L 20.476562 27.089844 C 20.476562 26.800781 20.679688 26.550781 20.960938 26.492188 C 21.808594 26.3125 22.605469 25.980469 23.332031 25.507812 C 23.574219 25.351562 23.894531 25.382812 24.101562 25.589844 L 24.910156 26.398438 L 26.289062 25.015625 L 25.480469 24.207031 C 25.277344 24.003906 25.242188 23.683594 25.402344 23.4375 C 25.875 22.710938 26.207031 21.914062 26.382812 21.070312 C 26.445312 20.785156 26.695312 20.582031 26.984375 20.582031 L 28.125 20.582031 L 28.125 18.628906 L 26.984375 18.628906 C 26.695312 18.628906 26.445312 18.425781 26.382812 18.140625 C 26.207031 17.296875 25.875 16.5 25.402344 15.773438 C 25.242188 15.527344 25.277344 15.207031 25.480469 15.003906 L 26.289062 14.195312 L 24.910156 12.8125 L 24.101562 13.621094 C 23.894531 13.828125 23.574219 13.859375 23.332031 13.703125 C 22.605469 13.230469 21.808594 12.898438 20.960938 12.71875 C 20.679688 12.660156 20.476562 12.410156 20.476562 12.121094 L 20.476562 10.976562 L 18.523438 10.976562 L 18.523438 12.121094 C 18.523438 12.410156 18.320312 12.660156 18.035156 12.71875 C 17.191406 12.898438 16.390625 13.230469 15.664062 13.703125 C 15.421875 13.859375 15.101562 13.828125 14.898438 13.621094 L 14.089844 12.8125 L 12.707031 14.195312 L 13.515625 15.003906 C 13.71875 15.207031 13.753906 15.527344 13.597656 15.773438 C 13.121094 16.5 12.792969 17.296875 12.613281 18.140625 C 12.554688 18.425781 12.304688 18.628906 12.015625 18.628906 L 10.871094 18.628906 L 10.871094 20.582031 L 12.015625 20.582031 C 12.304688 20.582031 12.554688 20.785156 12.613281 21.070312 C 12.792969 21.914062 13.121094 22.710938 13.597656 23.4375 C 13.753906 23.683594 13.71875 24.003906 13.515625 24.207031 L 12.707031 25.015625 L 14.089844 26.398438 L 14.898438 25.589844 C 15.101562 25.382812 15.421875 25.351562 15.664062 25.507812 C 16.390625 25.980469 17.191406 26.3125 18.035156 26.492188 C 18.320312 26.550781 18.523438 26.800781 18.523438 27.089844 Z M 18.523438 28.234375 " fill-opacity="1" fill-rule="nonzero"/><path fill="#ffffff" d="M 29.257812 31.070312 C 28.820312 31.070312 28.382812 30.90625 28.050781 30.574219 L 24.824219 27.347656 C 24.585938 27.109375 24.585938 26.722656 24.824219 26.480469 C 25.0625 26.242188 25.453125 26.242188 25.691406 26.480469 L 28.914062 29.707031 C 29.105469 29.894531 29.410156 29.894531 29.597656 29.707031 C 29.789062 29.515625 29.789062 29.210938 29.597656 29.023438 L 26.375 25.796875 C 26.136719 25.558594 26.136719 25.171875 26.375 24.929688 C 26.613281 24.691406 27.003906 24.691406 27.242188 24.929688 L 30.464844 28.15625 C 31.132812 28.820312 31.132812 29.90625 30.464844 30.574219 C 30.132812 30.90625 29.695312 31.070312 29.257812 31.070312 Z M 29.257812 31.070312 " fill-opacity="1" fill-rule="nonzero"/><path fill="#ffffff" d="M 19.5 25.515625 C 16.242188 25.515625 13.589844 22.863281 13.589844 19.605469 C 13.589844 16.347656 16.242188 13.695312 19.5 13.695312 C 22.757812 13.695312 25.40625 16.347656 25.40625 19.605469 C 25.40625 22.863281 22.757812 25.515625 19.5 25.515625 Z M 19.5 14.921875 C 16.917969 14.921875 14.816406 17.023438 14.816406 19.605469 C 14.816406 22.1875 16.917969 24.289062 19.5 24.289062 C 22.082031 24.289062 24.183594 22.1875 24.183594 19.605469 C 24.183594 17.023438 22.082031 14.921875 19.5 14.921875 Z M 19.5 14.921875 " fill-opacity="1" fill-rule="nonzero"/><path fill="#ffffff" d="M 18.53125 21.699219 C 18.375 21.699219 18.21875 21.636719 18.097656 21.519531 L 17.074219 20.496094 C 16.835938 20.257812 16.835938 19.867188 17.074219 19.628906 C 17.3125 19.390625 17.703125 19.390625 17.941406 19.628906 L 18.53125 20.21875 L 21.054688 17.691406 C 21.296875 17.453125 21.683594 17.453125 21.921875 17.691406 C 22.160156 17.933594 22.160156 18.320312 21.921875 18.558594 L 18.964844 21.519531 C 18.84375 21.636719 18.6875 21.699219 18.53125 21.699219 Z M 18.53125 21.699219 " fill-opacity="1" fill-rule="nonzero"/></svg>