<svg xmlns="http://www.w3.org/2000/svg" xmlns:xlink="http://www.w3.org/1999/xlink" width="52" zoomAndPan="magnify" viewBox="0 0 39 38.999999" height="52" preserveAspectRatio="xMidYMid meet" version="1.0"><defs><clipPath id="2cf446a910"><path d="M 0 4.664062 L 28.34375 4.664062 L 28.34375 38.996094 L 0 38.996094 Z M 0 4.664062 " clip-rule="nonzero"/></clipPath><clipPath id="fbbd954c01"><path d="M 14.382812 10 L 38.171875 10 L 38.171875 33.746094 L 14.382812 33.746094 Z M 14.382812 10 " clip-rule="nonzero"/></clipPath></defs><path fill="#ffffff" d="M 24.457031 36.328125 L 3.816406 36.328125 C 3.179688 36.328125 2.664062 35.8125 2.664062 35.179688 L 2.664062 8.539062 C 2.664062 7.90625 3.179688 7.390625 3.816406 7.390625 L 7.433594 7.390625 C 7.773438 7.390625 8.042969 7.660156 8.042969 7.996094 C 8.042969 8.335938 7.773438 8.605469 7.433594 8.605469 L 3.882812 8.605469 L 3.882812 35.113281 L 24.386719 35.113281 L 24.386719 33.019531 C 24.386719 32.683594 24.660156 32.410156 24.996094 32.410156 C 25.332031 32.410156 25.605469 32.683594 25.605469 33.019531 L 25.605469 35.179688 C 25.605469 35.8125 25.089844 36.328125 24.457031 36.328125 " fill-opacity="1" fill-rule="evenodd"/><path fill="#ffffff" d="M 24.996094 11.308594 C 24.660156 11.308594 24.386719 11.035156 24.386719 10.699219 L 24.386719 8.605469 L 20.835938 8.605469 C 20.5 8.605469 20.226562 8.335938 20.226562 7.996094 C 20.226562 7.660156 20.5 7.390625 20.835938 7.390625 L 24.457031 7.390625 C 25.089844 7.390625 25.605469 7.90625 25.605469 8.539062 L 25.605469 10.699219 C 25.605469 11.035156 25.332031 11.308594 24.996094 11.308594 Z M 24.457031 8.605469 L 24.457031 8.605469 " fill-opacity="1" fill-rule="evenodd"/><path fill="#ffffff" d="M 20.835938 9.808594 L 7.433594 9.808594 C 7.097656 9.808594 6.828125 9.535156 6.828125 9.199219 L 6.828125 4.355469 C 6.828125 3.367188 7.628906 2.5625 8.621094 2.5625 L 10.566406 2.5625 C 10.902344 2.5625 11.175781 2.835938 11.175781 3.171875 C 11.175781 3.507812 10.902344 3.78125 10.566406 3.78125 L 8.621094 3.78125 C 8.304688 3.78125 8.042969 4.039062 8.042969 4.355469 L 8.042969 8.589844 L 20.226562 8.589844 L 20.226562 4.355469 C 20.226562 4.039062 19.96875 3.78125 19.652344 3.78125 L 17.703125 3.78125 C 17.367188 3.78125 17.09375 3.507812 17.09375 3.171875 C 17.09375 2.835938 17.367188 2.5625 17.703125 2.5625 L 19.652344 2.5625 C 20.640625 2.5625 21.445312 3.367188 21.445312 4.355469 L 21.445312 9.199219 C 21.445312 9.535156 21.171875 9.808594 20.835938 9.808594 " fill-opacity="1" fill-rule="evenodd"/><g clip-path="url(#2cf446a910)"><path fill="#ffffff" d="M 26.578125 38.996094 L 1.691406 38.996094 C 0.757812 38.996094 0 38.238281 0 37.304688 L 0 6.414062 C 0 5.480469 0.757812 4.722656 1.691406 4.722656 L 7.433594 4.722656 C 7.773438 4.722656 8.042969 4.996094 8.042969 5.332031 C 8.042969 5.667969 7.773438 5.941406 7.433594 5.941406 L 1.691406 5.941406 C 1.429688 5.941406 1.21875 6.152344 1.21875 6.414062 L 1.21875 37.304688 C 1.21875 37.566406 1.429688 37.777344 1.691406 37.777344 L 26.578125 37.777344 C 26.839844 37.777344 27.050781 37.566406 27.050781 37.304688 L 27.050781 33.019531 C 27.050781 32.683594 27.324219 32.410156 27.660156 32.410156 C 28 32.410156 28.269531 32.683594 28.269531 33.019531 L 28.269531 37.304688 C 28.269531 38.238281 27.511719 38.996094 26.578125 38.996094 " fill-opacity="1" fill-rule="evenodd"/></g><path fill="#ffffff" d="M 27.660156 11.308594 C 27.324219 11.308594 27.050781 11.035156 27.050781 10.699219 L 27.050781 6.414062 C 27.050781 6.152344 26.839844 5.941406 26.578125 5.941406 L 20.835938 5.941406 C 20.5 5.941406 20.226562 5.667969 20.226562 5.332031 C 20.226562 4.996094 20.5 4.722656 20.835938 4.722656 L 26.578125 4.722656 C 27.511719 4.722656 28.269531 5.480469 28.269531 6.414062 L 28.269531 10.699219 C 28.269531 11.035156 28 11.308594 27.660156 11.308594 " fill-opacity="1" fill-rule="evenodd"/><path fill="#ffffff" d="M 17.703125 5.195312 L 10.566406 5.195312 C 10.230469 5.195312 9.957031 4.921875 9.957031 4.585938 L 9.957031 1.125 C 9.957031 0.511719 10.457031 0.0078125 11.074219 0.0078125 L 17.195312 0.0078125 C 17.8125 0.0078125 18.3125 0.511719 18.3125 1.125 L 18.3125 4.585938 C 18.3125 4.921875 18.039062 5.195312 17.703125 5.195312 Z M 11.175781 3.976562 L 17.09375 3.976562 L 17.09375 1.226562 L 11.175781 1.226562 L 11.175781 3.976562 " fill-opacity="1" fill-rule="evenodd"/><path fill="#ffffff" d="M 17.59375 15.390625 L 11.988281 15.390625 C 11.648438 15.390625 11.378906 15.117188 11.378906 14.78125 C 11.378906 14.445312 11.648438 14.171875 11.988281 14.171875 L 17.59375 14.171875 C 17.929688 14.171875 18.203125 14.445312 18.203125 14.78125 C 18.203125 15.117188 17.929688 15.390625 17.59375 15.390625 " fill-opacity="1" fill-rule="evenodd"/><path fill="#ffffff" d="M 7.589844 15.878906 C 7.433594 15.878906 7.277344 15.820312 7.160156 15.699219 L 6.316406 14.855469 C 6.078125 14.617188 6.078125 14.234375 6.316406 13.996094 C 6.550781 13.757812 6.9375 13.757812 7.175781 13.996094 L 7.589844 14.410156 L 9.113281 12.886719 C 9.351562 12.648438 9.738281 12.648438 9.976562 12.886719 C 10.210938 13.121094 10.210938 13.507812 9.976562 13.746094 L 8.019531 15.699219 C 7.902344 15.820312 7.746094 15.878906 7.589844 15.878906 " fill-opacity="1" fill-rule="evenodd"/><path fill="#ffffff" d="M 15.234375 20.632812 L 11.988281 20.632812 C 11.648438 20.632812 11.378906 20.359375 11.378906 20.023438 C 11.378906 19.6875 11.648438 19.414062 11.988281 19.414062 L 15.234375 19.414062 C 15.570312 19.414062 15.84375 19.6875 15.84375 20.023438 C 15.84375 20.359375 15.570312 20.632812 15.234375 20.632812 " fill-opacity="1" fill-rule="evenodd"/><path fill="#ffffff" d="M 7.589844 21.121094 C 7.433594 21.121094 7.277344 21.0625 7.160156 20.941406 L 6.316406 20.097656 C 6.078125 19.859375 6.078125 19.476562 6.316406 19.238281 C 6.550781 19 6.9375 19 7.175781 19.238281 L 7.589844 19.652344 L 9.113281 18.125 C 9.351562 17.890625 9.738281 17.890625 9.976562 18.125 C 10.210938 18.363281 10.210938 18.75 9.976562 18.988281 L 8.019531 20.941406 C 7.902344 21.0625 7.746094 21.121094 7.589844 21.121094 " fill-opacity="1" fill-rule="evenodd"/><path fill="#ffffff" d="M 15.609375 25.875 L 11.988281 25.875 C 11.648438 25.875 11.378906 25.601562 11.378906 25.265625 C 11.378906 24.929688 11.648438 24.65625 11.988281 24.65625 L 15.609375 24.65625 C 15.945312 24.65625 16.21875 24.929688 16.21875 25.265625 C 16.21875 25.601562 15.945312 25.875 15.609375 25.875 " fill-opacity="1" fill-rule="evenodd"/><path fill="#ffffff" d="M 7.589844 26.363281 C 7.429688 26.363281 7.273438 26.296875 7.160156 26.183594 L 6.316406 25.339844 C 6.078125 25.101562 6.078125 24.714844 6.316406 24.480469 C 6.550781 24.242188 6.9375 24.242188 7.175781 24.480469 L 7.589844 24.890625 L 9.113281 23.367188 C 9.351562 23.128906 9.738281 23.128906 9.976562 23.367188 C 10.210938 23.605469 10.210938 23.992188 9.976562 24.230469 L 8.019531 26.183594 C 7.90625 26.296875 7.75 26.363281 7.589844 26.363281 " fill-opacity="1" fill-rule="evenodd"/><path fill="#ffffff" d="M 19.144531 31.117188 L 11.988281 31.117188 C 11.648438 31.117188 11.378906 30.84375 11.378906 30.507812 C 11.378906 30.171875 11.648438 29.898438 11.988281 29.898438 L 19.144531 29.898438 C 19.480469 29.898438 19.753906 30.171875 19.753906 30.507812 C 19.753906 30.84375 19.480469 31.117188 19.144531 31.117188 " fill-opacity="1" fill-rule="evenodd"/><path fill="#ffffff" d="M 7.589844 31.605469 C 7.433594 31.605469 7.277344 31.542969 7.160156 31.425781 L 6.316406 30.582031 C 6.078125 30.34375 6.078125 29.957031 6.316406 29.71875 C 6.550781 29.484375 6.9375 29.484375 7.175781 29.71875 L 7.589844 30.132812 L 9.113281 28.609375 C 9.351562 28.371094 9.738281 28.371094 9.976562 28.609375 C 10.210938 28.847656 10.210938 29.234375 9.976562 29.472656 L 8.019531 31.425781 C 7.902344 31.542969 7.746094 31.605469 7.589844 31.605469 " fill-opacity="1" fill-rule="evenodd"/><g clip-path="url(#fbbd954c01)"><path fill="#ffffff" d="M 26.324219 33.707031 C 24.722656 33.707031 23.171875 33.394531 21.710938 32.773438 C 20.300781 32.179688 19.03125 31.324219 17.945312 30.238281 C 16.859375 29.148438 16.003906 27.882812 15.40625 26.472656 C 14.789062 25.007812 14.476562 23.457031 14.476562 21.859375 C 14.476562 20.261719 14.789062 18.710938 15.40625 17.246094 C 16.003906 15.835938 16.859375 14.570312 17.945312 13.480469 C 19.03125 12.394531 20.300781 11.542969 21.710938 10.945312 C 23.171875 10.324219 24.726562 10.011719 26.324219 10.011719 C 27.921875 10.011719 29.472656 10.324219 30.933594 10.945312 C 32.347656 11.542969 33.613281 12.394531 34.699219 13.480469 C 35.785156 14.570312 36.640625 15.835938 37.238281 17.246094 C 37.855469 18.710938 38.167969 20.261719 38.167969 21.859375 C 38.167969 23.457031 37.855469 25.007812 37.238281 26.472656 C 36.640625 27.882812 35.785156 29.148438 34.699219 30.238281 C 33.613281 31.324219 32.347656 32.179688 30.933594 32.773438 C 29.472656 33.394531 27.921875 33.707031 26.324219 33.707031 Z M 26.324219 11.230469 C 24.890625 11.230469 23.496094 11.511719 22.183594 12.066406 C 20.917969 12.601562 19.78125 13.367188 18.808594 14.34375 C 17.832031 15.320312 17.066406 16.457031 16.53125 17.722656 C 15.976562 19.035156 15.695312 20.425781 15.695312 21.859375 C 15.695312 23.292969 15.976562 24.683594 16.53125 25.996094 C 17.066406 27.261719 17.832031 28.398438 18.808594 29.375 C 19.78125 30.351562 20.917969 31.117188 22.183594 31.652344 C 23.496094 32.207031 24.886719 32.488281 26.324219 32.488281 C 27.757812 32.488281 29.148438 32.207031 30.460938 31.652344 C 31.726562 31.117188 32.863281 30.351562 33.839844 29.375 C 34.8125 28.398438 35.578125 27.261719 36.117188 25.996094 C 36.671875 24.6875 36.953125 23.292969 36.953125 21.859375 C 36.953125 20.425781 36.671875 19.035156 36.117188 17.722656 C 35.578125 16.457031 34.8125 15.320312 33.839844 14.34375 C 32.863281 13.367188 31.726562 12.601562 30.460938 12.066406 C 29.148438 11.511719 27.757812 11.230469 26.324219 11.230469 " fill-opacity="1" fill-rule="evenodd"/></g><path fill="#ffffff" d="M 26.324219 31.242188 C 25.054688 31.242188 23.828125 30.992188 22.671875 30.503906 C 21.554688 30.03125 20.550781 29.355469 19.6875 28.492188 C 18.828125 27.632812 18.148438 26.628906 17.675781 25.511719 C 17.1875 24.355469 16.941406 23.125 16.941406 21.859375 C 16.941406 20.59375 17.1875 19.363281 17.675781 18.207031 C 18.148438 17.089844 18.828125 16.085938 19.6875 15.226562 C 20.550781 14.363281 21.554688 13.6875 22.671875 13.214844 C 23.828125 12.722656 25.054688 12.476562 26.324219 12.476562 C 27.589844 12.476562 28.816406 12.722656 29.976562 13.214844 C 31.09375 13.6875 32.097656 14.363281 32.957031 15.226562 C 33.820312 16.085938 34.496094 17.089844 34.96875 18.207031 C 35.457031 19.363281 35.707031 20.59375 35.707031 21.859375 C 35.707031 23.125 35.457031 24.355469 34.96875 25.511719 C 34.496094 26.628906 33.820312 27.632812 32.957031 28.492188 C 32.097656 29.355469 31.09375 30.03125 29.976562 30.503906 C 28.816406 30.992188 27.589844 31.242188 26.324219 31.242188 Z M 26.324219 13.695312 C 21.820312 13.695312 18.160156 17.359375 18.160156 21.859375 C 18.160156 26.359375 21.820312 30.023438 26.324219 30.023438 C 30.824219 30.023438 34.488281 26.359375 34.488281 21.859375 C 34.488281 17.359375 30.824219 13.695312 26.324219 13.695312 " fill-opacity="1" fill-rule="evenodd"/><path fill="#ffffff" d="M 26.324219 14.925781 C 25.984375 14.925781 25.714844 14.65625 25.714844 14.316406 L 25.714844 13.085938 C 25.714844 12.75 25.984375 12.476562 26.324219 12.476562 C 26.660156 12.476562 26.933594 12.75 26.933594 13.085938 L 26.933594 14.316406 C 26.933594 14.65625 26.660156 14.925781 26.324219 14.925781 " fill-opacity="1" fill-rule="evenodd"/><path fill="#ffffff" d="M 22.550781 15.9375 C 22.34375 15.9375 22.136719 15.828125 22.023438 15.632812 L 21.40625 14.566406 C 21.238281 14.273438 21.339844 13.902344 21.632812 13.734375 C 21.921875 13.566406 22.296875 13.664062 22.464844 13.957031 L 23.078125 15.023438 C 23.246094 15.3125 23.148438 15.6875 22.855469 15.855469 C 22.761719 15.910156 22.65625 15.9375 22.550781 15.9375 " fill-opacity="1" fill-rule="evenodd"/><path fill="#ffffff" d="M 19.789062 18.695312 C 19.6875 18.695312 19.582031 18.671875 19.488281 18.613281 L 18.417969 18 C 18.128906 17.832031 18.027344 17.457031 18.195312 17.167969 C 18.363281 16.875 18.738281 16.773438 19.027344 16.945312 L 20.097656 17.558594 C 20.386719 17.726562 20.488281 18.101562 20.320312 18.390625 C 20.207031 18.585938 20 18.695312 19.789062 18.695312 " fill-opacity="1" fill-rule="evenodd"/><path fill="#ffffff" d="M 18.78125 22.46875 L 17.546875 22.46875 C 17.210938 22.46875 16.9375 22.195312 16.9375 21.859375 C 16.9375 21.519531 17.210938 21.25 17.546875 21.25 L 18.78125 21.25 C 19.117188 21.25 19.390625 21.519531 19.390625 21.859375 C 19.390625 22.195312 19.117188 22.46875 18.78125 22.46875 " fill-opacity="1" fill-rule="evenodd"/><path fill="#ffffff" d="M 18.722656 26.855469 C 18.511719 26.855469 18.308594 26.746094 18.195312 26.550781 C 18.027344 26.257812 18.125 25.886719 18.417969 25.71875 L 19.484375 25.101562 C 19.777344 24.933594 20.148438 25.03125 20.316406 25.324219 C 20.484375 25.617188 20.386719 25.988281 20.09375 26.15625 L 19.027344 26.773438 C 18.929688 26.828125 18.828125 26.855469 18.722656 26.855469 " fill-opacity="1" fill-rule="evenodd"/><path fill="#ffffff" d="M 21.933594 30.066406 C 21.828125 30.066406 21.722656 30.039062 21.628906 29.984375 C 21.335938 29.816406 21.238281 29.445312 21.40625 29.152344 L 22.023438 28.085938 C 22.191406 27.792969 22.5625 27.695312 22.855469 27.863281 C 23.144531 28.03125 23.246094 28.402344 23.078125 28.695312 L 22.460938 29.761719 C 22.347656 29.957031 22.144531 30.066406 21.933594 30.066406 " fill-opacity="1" fill-rule="evenodd"/><path fill="#ffffff" d="M 26.320312 31.242188 C 25.984375 31.242188 25.710938 30.96875 25.710938 30.632812 L 25.710938 29.402344 C 25.710938 29.0625 25.984375 28.792969 26.320312 28.792969 C 26.65625 28.792969 26.929688 29.0625 26.929688 29.402344 L 26.929688 30.632812 C 26.929688 30.96875 26.65625 31.242188 26.320312 31.242188 " fill-opacity="1" fill-rule="evenodd"/><path fill="#ffffff" d="M 30.707031 30.066406 C 30.496094 30.066406 30.292969 29.957031 30.179688 29.761719 L 29.5625 28.695312 C 29.394531 28.402344 29.496094 28.03125 29.785156 27.863281 C 30.078125 27.695312 30.449219 27.796875 30.617188 28.085938 L 31.234375 29.152344 C 31.402344 29.445312 31.300781 29.816406 31.011719 29.984375 C 30.914062 30.042969 30.808594 30.066406 30.707031 30.066406 " fill-opacity="1" fill-rule="evenodd"/><path fill="#ffffff" d="M 33.917969 26.855469 C 33.8125 26.855469 33.710938 26.832031 33.613281 26.773438 L 32.546875 26.160156 C 32.253906 25.992188 32.15625 25.617188 32.324219 25.328125 C 32.492188 25.035156 32.863281 24.933594 33.15625 25.105469 L 34.222656 25.71875 C 34.515625 25.886719 34.613281 26.261719 34.445312 26.550781 C 34.332031 26.746094 34.128906 26.855469 33.917969 26.855469 " fill-opacity="1" fill-rule="evenodd"/><path fill="#ffffff" d="M 35.09375 22.46875 L 33.863281 22.46875 C 33.527344 22.46875 33.253906 22.199219 33.253906 21.859375 C 33.253906 21.523438 33.527344 21.25 33.863281 21.25 L 35.09375 21.25 C 35.429688 21.25 35.703125 21.523438 35.703125 21.859375 C 35.703125 22.199219 35.429688 22.46875 35.09375 22.46875 " fill-opacity="1" fill-rule="evenodd"/><path fill="#ffffff" d="M 32.851562 18.699219 C 32.644531 18.699219 32.4375 18.589844 32.324219 18.394531 C 32.15625 18.101562 32.257812 17.730469 32.546875 17.5625 L 33.617188 16.945312 C 33.90625 16.777344 34.277344 16.878906 34.449219 17.167969 C 34.617188 17.460938 34.515625 17.832031 34.226562 18 L 33.15625 18.617188 C 33.0625 18.671875 32.957031 18.699219 32.851562 18.699219 " fill-opacity="1" fill-rule="evenodd"/><path fill="#ffffff" d="M 30.09375 15.9375 C 29.988281 15.9375 29.886719 15.914062 29.789062 15.855469 C 29.496094 15.6875 29.398438 15.316406 29.566406 15.023438 L 30.183594 13.957031 C 30.351562 13.667969 30.722656 13.566406 31.015625 13.734375 C 31.304688 13.902344 31.40625 14.273438 31.238281 14.566406 L 30.621094 15.632812 C 30.507812 15.828125 30.304688 15.9375 30.09375 15.9375 " fill-opacity="1" fill-rule="evenodd"/><path fill="#ffffff" d="M 26.324219 23.546875 C 25.398438 23.546875 24.648438 22.792969 24.648438 21.871094 C 24.648438 20.945312 25.398438 20.191406 26.324219 20.191406 C 27.246094 20.191406 28 20.945312 28 21.871094 C 28 22.792969 27.246094 23.546875 26.324219 23.546875 Z M 26.324219 21.410156 C 26.070312 21.410156 25.863281 21.617188 25.863281 21.871094 C 25.863281 22.121094 26.070312 22.328125 26.324219 22.328125 C 26.574219 22.328125 26.78125 22.121094 26.78125 21.871094 C 26.78125 21.617188 26.574219 21.410156 26.324219 21.410156 " fill-opacity="1" fill-rule="evenodd"/><path fill="#ffffff" d="M 27.078125 21.726562 C 26.921875 21.726562 26.765625 21.664062 26.644531 21.546875 C 26.40625 21.308594 26.40625 20.921875 26.644531 20.683594 L 28.921875 18.40625 C 29.160156 18.167969 29.546875 18.167969 29.78125 18.40625 C 30.019531 18.644531 30.023438 19.03125 29.785156 19.265625 L 27.507812 21.546875 C 27.386719 21.664062 27.230469 21.726562 27.078125 21.726562 " fill-opacity="1" fill-rule="evenodd"/><path fill="#ffffff" d="M 29.355469 25.507812 C 29.199219 25.507812 29.042969 25.449219 28.921875 25.332031 L 26.644531 23.054688 C 26.40625 22.816406 26.40625 22.433594 26.644531 22.195312 C 26.882812 21.957031 27.265625 21.957031 27.503906 22.191406 L 29.785156 24.46875 C 30.023438 24.707031 30.023438 25.09375 29.785156 25.332031 C 29.664062 25.449219 29.507812 25.507812 29.355469 25.507812 " fill-opacity="1" fill-rule="evenodd"/></svg>