<svg xmlns="http://www.w3.org/2000/svg" xmlns:xlink="http://www.w3.org/1999/xlink" width="52" zoomAndPan="magnify" viewBox="0 0 39 38.999999" height="52" preserveAspectRatio="xMidYMid meet" version="1.0"><path fill="#ffffff" d="M 38.390625 14.382812 L 35.988281 14.382812 C 35.613281 12.769531 34.980469 11.242188 34.101562 9.828125 L 35.800781 8.128906 C 36.039062 7.894531 36.039062 7.507812 35.800781 7.273438 L 31.726562 3.199219 C 31.488281 2.960938 31.105469 2.960938 30.867188 3.199219 L 29.167969 4.894531 C 27.757812 4.019531 26.230469 3.386719 24.613281 3.007812 L 24.613281 0.605469 C 24.613281 0.273438 24.34375 0 24.007812 0 L 18.246094 0 C 17.910156 0 17.636719 0.273438 17.636719 0.605469 L 17.636719 3.007812 C 16.023438 3.386719 14.496094 4.019531 13.082031 4.894531 L 11.382812 3.199219 C 11.148438 2.960938 10.761719 2.960938 10.527344 3.199219 L 6.453125 7.273438 C 6.335938 7.386719 6.273438 7.539062 6.273438 7.703125 C 6.273438 7.863281 6.335938 8.015625 6.453125 8.128906 L 8.152344 9.828125 C 7.273438 11.242188 6.640625 12.769531 6.261719 14.382812 L 3.859375 14.382812 C 3.527344 14.382812 3.253906 14.65625 3.253906 14.992188 L 3.253906 20.753906 C 3.253906 21.089844 3.527344 21.359375 3.859375 21.359375 L 6.265625 21.359375 C 6.671875 23.058594 7.46875 24.992188 8.355469 26.453125 L 1.15625 33.652344 C 0 34.808594 0 36.6875 1.15625 37.84375 C 1.734375 38.417969 2.492188 38.707031 3.25 38.707031 C 4.011719 38.707031 4.769531 38.417969 5.347656 37.84375 L 12.511719 30.675781 C 13.941406 31.539062 15.886719 32.324219 17.636719 32.734375 L 17.636719 35.136719 C 17.636719 35.472656 17.910156 35.746094 18.246094 35.746094 L 24.007812 35.746094 C 24.34375 35.746094 24.613281 35.472656 24.613281 35.136719 L 24.613281 32.734375 C 26.230469 32.359375 27.757812 31.726562 29.167969 30.847656 L 30.867188 32.546875 C 30.980469 32.660156 31.136719 32.726562 31.296875 32.726562 C 31.457031 32.726562 31.613281 32.660156 31.726562 32.546875 L 35.800781 28.472656 C 35.914062 28.359375 35.980469 28.203125 35.980469 28.042969 C 35.980469 27.882812 35.914062 27.726562 35.800781 27.613281 L 34.101562 25.914062 C 34.980469 24.503906 35.613281 22.976562 35.988281 21.359375 L 38.390625 21.359375 C 38.726562 21.359375 39 21.089844 39 20.753906 L 39 14.992188 C 39 14.65625 38.726562 14.382812 38.390625 14.382812 Z M 4.488281 36.984375 C 3.808594 37.664062 2.695312 37.664062 2.015625 36.984375 C 1.332031 36.300781 1.332031 35.191406 2.015625 34.511719 L 7.273438 29.25 L 9.75 31.722656 Z M 10.605469 30.863281 L 8.132812 28.390625 L 9.421875 27.105469 L 11.894531 29.578125 Z M 10.578125 17.871094 C 10.578125 12.054688 15.308594 7.324219 21.125 7.324219 C 26.945312 7.324219 31.675781 12.054688 31.675781 17.871094 C 31.675781 23.6875 26.945312 28.421875 21.125 28.421875 C 15.308594 28.421875 10.578125 23.6875 10.578125 17.871094 Z M 13.339844 26.683594 L 12.027344 27.996094 L 11.003906 26.96875 L 12.316406 25.65625 C 12.636719 26.019531 12.976562 26.363281 13.339844 26.683594 Z M 37.785156 20.144531 L 35.5 20.144531 C 35.210938 20.144531 34.960938 20.351562 34.90625 20.632812 C 34.546875 22.4375 33.84375 24.128906 32.820312 25.660156 C 32.660156 25.902344 32.691406 26.222656 32.898438 26.425781 L 34.511719 28.042969 L 31.296875 31.257812 L 29.679688 29.644531 C 29.476562 29.4375 29.15625 29.40625 28.914062 29.566406 C 27.382812 30.589844 25.691406 31.289062 23.886719 31.648438 C 23.605469 31.707031 23.398438 31.957031 23.398438 32.246094 L 23.398438 34.53125 L 18.851562 34.53125 L 18.851562 32.246094 C 18.851562 31.957031 18.648438 31.707031 18.363281 31.648438 C 16.671875 31.3125 14.699219 30.558594 13.265625 29.710938 C 13.273438 29.667969 13.277344 29.625 13.277344 29.578125 C 13.277344 29.363281 13.191406 29.160156 13.039062 29.007812 L 12.886719 28.855469 L 14.296875 27.445312 C 16.222656 28.824219 18.582031 29.636719 21.125 29.636719 C 27.613281 29.636719 32.890625 24.359375 32.890625 17.871094 C 32.890625 11.386719 27.613281 6.109375 21.125 6.109375 C 14.640625 6.109375 9.363281 11.386719 9.363281 17.871094 C 9.363281 20.417969 10.175781 22.777344 11.554688 24.703125 L 10.144531 26.109375 L 9.992188 25.957031 C 9.839844 25.804688 9.636719 25.722656 9.421875 25.722656 C 9.390625 25.722656 9.363281 25.722656 9.335938 25.726562 C 8.453125 24.25 7.675781 22.277344 7.347656 20.632812 C 7.292969 20.351562 7.042969 20.144531 6.753906 20.144531 L 4.46875 20.144531 L 4.46875 15.597656 L 6.753906 15.597656 C 7.042969 15.597656 7.292969 15.394531 7.347656 15.109375 C 7.707031 13.308594 8.40625 11.617188 9.429688 10.082031 C 9.59375 9.84375 9.558594 9.523438 9.355469 9.316406 L 7.738281 7.703125 L 10.957031 4.484375 L 12.570312 6.101562 C 12.777344 6.304688 13.097656 6.335938 13.335938 6.175781 C 14.871094 5.152344 16.5625 4.453125 18.363281 4.09375 C 18.648438 4.035156 18.851562 3.789062 18.851562 3.5 L 18.851562 1.214844 L 23.398438 1.214844 L 23.398438 3.5 C 23.398438 3.789062 23.605469 4.035156 23.890625 4.09375 C 25.691406 4.453125 27.382812 5.152344 28.914062 6.175781 C 29.15625 6.335938 29.476562 6.304688 29.679688 6.101562 L 31.296875 4.484375 L 34.511719 7.699219 L 32.898438 9.316406 C 32.691406 9.523438 32.660156 9.84375 32.820312 10.082031 C 33.84375 11.617188 34.546875 13.308594 34.90625 15.109375 C 34.960938 15.394531 35.210938 15.597656 35.5 15.597656 L 37.785156 15.597656 Z M 29.957031 17.871094 C 29.957031 13.003906 25.996094 9.042969 21.125 9.042969 C 16.257812 9.042969 12.296875 13.003906 12.296875 17.871094 C 12.296875 22.742188 16.257812 26.703125 21.125 26.703125 C 25.996094 26.703125 29.957031 22.742188 29.957031 17.871094 Z M 21.125 25.488281 C 16.925781 25.488281 13.511719 22.070312 13.511719 17.871094 C 13.511719 13.671875 16.925781 10.253906 21.125 10.253906 C 25.324219 10.253906 28.742188 13.671875 28.742188 17.871094 C 28.742188 22.070312 25.324219 25.488281 21.125 25.488281 Z M 26.117188 14.054688 C 25.335938 13.277344 24.066406 13.28125 23.285156 14.0625 C 23.285156 14.0625 23.285156 14.066406 23.285156 14.066406 L 19.933594 17.449219 L 18.941406 16.480469 C 18.558594 16.109375 18.054688 15.90625 17.519531 15.914062 C 16.984375 15.921875 16.484375 16.136719 16.109375 16.519531 C 15.339844 17.3125 15.359375 18.582031 16.148438 19.351562 L 18.5625 21.703125 C 18.949219 22.078125 19.453125 22.269531 19.957031 22.269531 C 20.472656 22.269531 20.988281 22.070312 21.378906 21.679688 L 26.125 16.886719 C 26.503906 16.507812 26.710938 16.003906 26.710938 15.46875 C 26.707031 14.933594 26.496094 14.433594 26.117188 14.054688 Z M 25.265625 16.03125 L 20.519531 20.824219 C 20.214844 21.128906 19.71875 21.132812 19.410156 20.832031 L 16.996094 18.480469 C 16.683594 18.179688 16.679688 17.679688 16.980469 17.367188 C 17.128906 17.214844 17.324219 17.128906 17.535156 17.128906 C 17.539062 17.128906 17.542969 17.128906 17.546875 17.128906 C 17.753906 17.128906 17.949219 17.207031 18.09375 17.351562 L 19.519531 18.738281 C 19.757812 18.96875 20.136719 18.96875 20.375 18.730469 L 24.148438 14.917969 C 24.453125 14.613281 24.953125 14.609375 25.261719 14.917969 C 25.410156 15.066406 25.492188 15.261719 25.496094 15.472656 C 25.496094 15.683594 25.414062 15.882812 25.265625 16.03125 Z M 25.265625 16.03125 " fill-opacity="1" fill-rule="nonzero"/></svg>