<svg xmlns="http://www.w3.org/2000/svg" xmlns:xlink="http://www.w3.org/1999/xlink" width="52" zoomAndPan="magnify" viewBox="0 0 39 38.999999" height="52" preserveAspectRatio="xMidYMid meet" version="1.0"><defs><clipPath id="cd633dd13e"><path d="M 0.78125 0 L 39 0 L 39 39 L 0.78125 39 Z M 0.78125 0 " clip-rule="nonzero"/></clipPath></defs><g clip-path="url(#cd633dd13e)"><path fill="#ffffff" d="M 6.550781 29.433594 C 6.550781 29.769531 6.277344 30.039062 5.941406 30.039062 L 3.863281 30.039062 C 3.527344 30.039062 3.253906 29.769531 3.253906 29.433594 C 3.253906 29.097656 3.527344 28.824219 3.863281 28.824219 L 5.941406 28.824219 C 6.277344 28.824219 6.550781 29.097656 6.550781 29.433594 Z M 23.617188 35.636719 L 8.941406 35.636719 C 8.605469 35.636719 8.332031 35.90625 8.332031 36.242188 C 8.332031 36.578125 8.605469 36.851562 8.941406 36.851562 L 23.617188 36.851562 C 23.953125 36.851562 24.226562 36.578125 24.226562 36.242188 C 24.226562 35.90625 23.953125 35.636719 23.617188 35.636719 Z M 5.941406 32.230469 L 3.863281 32.230469 C 3.527344 32.230469 3.253906 32.503906 3.253906 32.839844 C 3.253906 33.171875 3.527344 33.445312 3.863281 33.445312 L 5.941406 33.445312 C 6.277344 33.445312 6.550781 33.171875 6.550781 32.839844 C 6.550781 32.503906 6.277344 32.230469 5.941406 32.230469 Z M 5.941406 35.636719 L 3.863281 35.636719 C 3.527344 35.636719 3.253906 35.90625 3.253906 36.242188 C 3.253906 36.578125 3.527344 36.851562 3.863281 36.851562 L 5.941406 36.851562 C 6.277344 36.851562 6.550781 36.578125 6.550781 36.242188 C 6.550781 35.90625 6.277344 35.636719 5.941406 35.636719 Z M 5.941406 25.421875 L 3.863281 25.421875 C 3.527344 25.421875 3.253906 25.695312 3.253906 26.03125 C 3.253906 26.367188 3.527344 26.636719 3.863281 26.636719 L 5.941406 26.636719 C 6.277344 26.636719 6.550781 26.367188 6.550781 26.03125 C 6.550781 25.695312 6.277344 25.421875 5.941406 25.421875 Z M 13.746094 20.046875 L 13.734375 20.046875 C 13.398438 20.046875 13.128906 20.316406 13.128906 20.652344 C 13.128906 20.988281 13.398438 21.261719 13.734375 21.261719 L 13.746094 21.261719 C 14.082031 21.261719 14.351562 20.988281 14.351562 20.652344 C 14.351562 20.316406 14.082031 20.046875 13.746094 20.046875 Z M 13.742188 19.269531 C 14.078125 19.269531 14.347656 18.996094 14.347656 18.660156 L 14.347656 14.90625 C 14.347656 14.570312 14.078125 14.300781 13.742188 14.300781 C 13.40625 14.300781 13.132812 14.570312 13.132812 14.90625 L 13.132812 18.660156 C 13.132812 18.996094 13.40625 19.269531 13.742188 19.269531 Z M 8.941406 28.824219 C 8.605469 28.824219 8.332031 29.097656 8.332031 29.433594 C 8.332031 29.769531 8.605469 30.039062 8.941406 30.039062 L 23.617188 30.039062 C 23.953125 30.039062 24.226562 29.769531 24.226562 29.433594 C 24.226562 29.097656 23.953125 28.824219 23.617188 28.824219 Z M 23.617188 32.230469 L 8.941406 32.230469 C 8.605469 32.230469 8.332031 32.503906 8.332031 32.839844 C 8.332031 33.171875 8.605469 33.445312 8.941406 33.445312 L 23.617188 33.445312 C 23.953125 33.445312 24.226562 33.171875 24.226562 32.839844 C 24.226562 32.503906 23.953125 32.230469 23.617188 32.230469 Z M 37.015625 37.640625 C 36.542969 37.914062 36.015625 38.054688 35.484375 38.054688 C 35.214844 38.054688 34.941406 38.019531 34.675781 37.945312 C 33.878906 37.734375 33.210938 37.222656 32.800781 36.511719 L 29.832031 31.371094 C 29.753906 31.230469 29.730469 31.066406 29.773438 30.910156 C 29.8125 30.753906 29.917969 30.621094 30.054688 30.539062 L 30.300781 30.398438 L 28.519531 27.3125 C 27.917969 27.488281 27.308594 27.601562 26.699219 27.65625 L 26.699219 36.890625 C 26.699219 38.039062 25.765625 38.976562 24.613281 38.976562 L 2.867188 38.976562 C 1.714844 38.976562 0.78125 38.039062 0.78125 36.890625 L 0.78125 7.269531 C 0.78125 6.121094 1.714844 5.1875 2.867188 5.1875 L 8.109375 5.1875 L 8.109375 3.894531 C 8.109375 3.558594 8.382812 3.285156 8.71875 3.285156 L 10.152344 3.285156 C 10.324219 1.457031 11.867188 0.0234375 13.742188 0.0234375 C 15.613281 0.0234375 17.15625 1.457031 17.328125 3.285156 L 18.761719 3.285156 C 19.097656 3.285156 19.371094 3.558594 19.371094 3.894531 L 19.371094 5.1875 L 24.613281 5.1875 C 25.765625 5.1875 26.699219 6.121094 26.699219 7.269531 L 26.699219 9 C 27.230469 9.050781 27.765625 9.144531 28.292969 9.285156 C 30.707031 9.933594 32.726562 11.484375 33.976562 13.648438 C 35.226562 15.816406 35.558594 18.339844 34.914062 20.753906 C 34.457031 22.449219 33.5625 23.945312 32.320312 25.121094 L 34.101562 28.203125 L 34.347656 28.0625 C 34.488281 27.984375 34.652344 27.960938 34.808594 28.003906 C 34.964844 28.042969 35.097656 28.144531 35.179688 28.285156 L 38.144531 33.429688 C 38.996094 34.898438 38.492188 36.789062 37.015625 37.640625 Z M 9.328125 7.453125 L 18.152344 7.453125 L 18.152344 4.503906 L 16.726562 4.503906 C 16.558594 4.503906 16.394531 4.433594 16.28125 4.308594 C 16.167969 4.183594 16.109375 4.019531 16.121094 3.851562 C 16.125 3.765625 16.128906 3.695312 16.128906 3.628906 C 16.128906 2.3125 15.058594 1.238281 13.742188 1.238281 C 12.425781 1.238281 11.351562 2.3125 11.351562 3.628906 C 11.351562 3.699219 11.355469 3.765625 11.363281 3.835938 C 11.378906 4.007812 11.324219 4.175781 11.207031 4.304688 C 11.089844 4.429688 10.925781 4.503906 10.757812 4.503906 L 9.328125 4.503906 Z M 25.484375 27.683594 C 24.113281 27.625 22.773438 27.265625 21.554688 26.636719 L 8.941406 26.636719 C 8.605469 26.636719 8.332031 26.367188 8.332031 26.03125 C 8.332031 25.695312 8.605469 25.421875 8.941406 25.421875 L 19.753906 25.421875 C 19.222656 24.964844 18.738281 24.445312 18.316406 23.863281 L 6.863281 23.863281 C 6.363281 23.863281 5.914062 23.605469 5.667969 23.167969 C 5.421875 22.734375 5.425781 22.21875 5.679688 21.789062 L 12.5625 10.246094 C 12.8125 9.824219 13.253906 9.574219 13.742188 9.574219 C 14.226562 9.574219 14.667969 9.824219 14.921875 10.242188 L 17.378906 14.371094 C 18.183594 12.636719 19.496094 11.195312 21.1875 10.222656 C 22.519531 9.453125 23.988281 9.03125 25.484375 8.96875 L 25.484375 7.269531 C 25.484375 6.792969 25.09375 6.402344 24.613281 6.402344 L 19.371094 6.402344 L 19.371094 8.058594 C 19.371094 8.394531 19.097656 8.667969 18.761719 8.667969 L 8.71875 8.667969 C 8.382812 8.667969 8.109375 8.394531 8.109375 8.058594 L 8.109375 6.402344 L 2.867188 6.402344 C 2.386719 6.402344 1.996094 6.792969 1.996094 7.269531 L 1.996094 36.890625 C 1.996094 37.371094 2.386719 37.761719 2.867188 37.761719 L 24.613281 37.761719 C 25.09375 37.761719 25.484375 37.371094 25.484375 36.890625 Z M 16.820312 15.90625 C 16.828125 15.886719 16.835938 15.863281 16.839844 15.839844 L 13.875 10.867188 C 13.84375 10.816406 13.804688 10.792969 13.742188 10.792969 C 13.675781 10.792969 13.636719 10.816406 13.605469 10.871094 L 6.726562 22.410156 C 6.695312 22.464844 6.691406 22.511719 6.722656 22.566406 C 6.753906 22.625 6.796875 22.648438 6.859375 22.648438 L 17.558594 22.648438 C 16.472656 20.566406 16.210938 18.1875 16.820312 15.90625 Z M 28.621094 26 C 29.074219 25.835938 29.515625 25.632812 29.941406 25.386719 C 30.367188 25.140625 30.765625 24.859375 31.132812 24.550781 C 31.144531 24.539062 31.15625 24.53125 31.167969 24.519531 C 32.414062 23.460938 33.304688 22.050781 33.738281 20.441406 C 34.300781 18.335938 34.011719 16.140625 32.921875 14.257812 C 31.835938 12.371094 30.078125 11.023438 27.976562 10.460938 C 27.355469 10.292969 26.726562 10.199219 26.097656 10.183594 C 26.097656 10.183594 26.09375 10.183594 26.09375 10.183594 C 26.089844 10.183594 26.085938 10.183594 26.082031 10.183594 C 26.003906 10.179688 25.929688 10.179688 25.855469 10.179688 C 24.441406 10.179688 23.050781 10.546875 21.792969 11.273438 C 19.910156 12.363281 18.5625 14.117188 17.996094 16.21875 C 17.433594 18.324219 17.722656 20.519531 18.8125 22.402344 C 19.574219 23.726562 20.667969 24.78125 21.980469 25.492188 C 21.980469 25.492188 21.984375 25.492188 21.984375 25.496094 C 22.539062 25.792969 23.132812 26.03125 23.757812 26.199219 C 24.507812 26.398438 25.269531 26.492188 26.027344 26.476562 C 26.046875 26.476562 26.070312 26.472656 26.089844 26.472656 C 26.101562 26.472656 26.113281 26.472656 26.125 26.476562 C 26.957031 26.449219 27.785156 26.292969 28.574219 26.015625 C 28.589844 26.011719 28.605469 26.003906 28.621094 26 Z M 31.355469 29.792969 L 33.050781 28.8125 L 31.375 25.90625 C 31.109375 26.097656 30.835938 26.277344 30.550781 26.441406 C 30.265625 26.605469 29.972656 26.753906 29.675781 26.886719 Z M 37.09375 34.035156 L 34.429688 29.421875 L 31.191406 31.289062 L 33.855469 35.902344 C 34.105469 36.335938 34.507812 36.644531 34.992188 36.773438 C 35.476562 36.902344 35.980469 36.835938 36.410156 36.589844 C 36.839844 36.339844 37.148438 35.9375 37.277344 35.453125 C 37.40625 34.96875 37.339844 34.464844 37.09375 34.035156 Z M 29.234375 24.164062 C 28.195312 24.761719 27.042969 25.066406 25.878906 25.066406 C 25.292969 25.066406 24.703125 24.992188 24.125 24.835938 C 22.386719 24.371094 20.933594 23.253906 20.035156 21.695312 C 19.136719 20.140625 18.898438 18.324219 19.363281 16.585938 C 19.828125 14.851562 20.941406 13.398438 22.5 12.5 C 25.714844 10.640625 29.839844 11.746094 31.699219 14.960938 C 33.554688 18.179688 32.449219 22.304688 29.234375 24.164062 Z M 30.648438 15.570312 C 29.910156 14.292969 28.71875 13.382812 27.296875 13 C 26.820312 12.875 26.339844 12.808594 25.859375 12.808594 C 24.902344 12.808594 23.960938 13.0625 23.109375 13.550781 C 21.832031 14.289062 20.917969 15.476562 20.539062 16.902344 C 20.15625 18.324219 20.351562 19.8125 21.089844 21.089844 C 21.824219 22.367188 23.015625 23.277344 24.4375 23.660156 C 25.863281 24.042969 27.351562 23.847656 28.625 23.109375 C 31.261719 21.585938 32.167969 18.207031 30.648438 15.570312 Z M 30.648438 15.570312 " fill-opacity="1" fill-rule="nonzero"/></g></svg>