<svg xmlns="http://www.w3.org/2000/svg" xmlns:xlink="http://www.w3.org/1999/xlink" width="52" zoomAndPan="magnify" viewBox="0 0 39 38.999999" height="52" preserveAspectRatio="xMidYMid meet" version="1.0"><defs><clipPath id="dd823ba8c6"><path d="M 0 2 L 39 2 L 39 37.199219 L 0 37.199219 Z M 0 2 " clip-rule="nonzero"/></clipPath></defs><g clip-path="url(#dd823ba8c6)"><path fill="#ffffff" d="M 23.253906 29.800781 L 17.636719 31.332031 C 17.507812 31.367188 17.378906 31.390625 17.25 31.40625 C 17.292969 31.351562 17.328125 31.289062 17.367188 31.230469 C 17.910156 30.285156 17.59375 29.066406 16.644531 28.453125 C 16.621094 28.4375 16.597656 28.425781 16.570312 28.410156 C 15.253906 27.792969 14.015625 26.929688 13.023438 26.234375 C 12.671875 25.992188 12.34375 25.761719 12.058594 25.578125 C 10.863281 24.804688 9.558594 25.007812 8.441406 25.308594 L 4.433594 26.386719 L 4.300781 25.863281 C 4.113281 25.136719 3.367188 24.699219 2.640625 24.886719 L 1.070312 25.292969 C 0.714844 25.382812 0.421875 25.605469 0.234375 25.921875 C 0.0507812 26.234375 0 26.601562 0.0898438 26.953125 L 2.203125 35.113281 C 2.359375 35.726562 2.914062 36.132812 3.519531 36.132812 C 3.632812 36.132812 3.75 36.121094 3.863281 36.089844 L 5.433594 35.683594 C 6.160156 35.496094 6.597656 34.75 6.410156 34.023438 L 6.238281 33.351562 L 6.949219 33.160156 L 12.664062 36.460938 C 13.3125 36.832031 14.003906 37.023438 14.707031 37.023438 C 15.09375 37.023438 15.484375 36.964844 15.871094 36.847656 L 26.148438 33.78125 C 27.171875 33.476562 27.820312 32.191406 27.503906 31.089844 C 27.351562 30.558594 26.597656 28.894531 23.253906 29.800781 Z M 5.121094 34.480469 L 3.550781 34.886719 C 3.488281 34.902344 3.421875 34.863281 3.40625 34.800781 L 1.292969 26.640625 C 1.285156 26.605469 1.296875 26.574219 1.308594 26.550781 C 1.320312 26.53125 1.339844 26.507812 1.378906 26.496094 L 2.949219 26.089844 C 2.960938 26.089844 2.96875 26.085938 2.980469 26.085938 C 3.03125 26.085938 3.082031 26.125 3.09375 26.175781 L 5.207031 34.335938 C 5.222656 34.398438 5.183594 34.464844 5.121094 34.480469 Z M 25.792969 32.589844 L 15.515625 35.65625 C 14.75 35.886719 14 35.792969 13.289062 35.382812 L 7.347656 31.953125 C 7.207031 31.871094 7.035156 31.847656 6.878906 31.890625 L 5.925781 32.144531 L 4.746094 27.589844 L 8.765625 26.507812 C 9.992188 26.179688 10.75 26.210938 11.382812 26.621094 C 11.648438 26.796875 11.953125 27.007812 12.308594 27.257812 C 13.332031 27.96875 14.605469 28.855469 15.996094 29.515625 C 16.371094 29.78125 16.496094 30.242188 16.289062 30.605469 C 16.0625 30.992188 15.703125 31.089844 15.210938 30.898438 C 14.542969 30.5625 13.917969 30.191406 13.257812 29.796875 C 12.941406 29.605469 12.617188 29.410156 12.277344 29.214844 C 11.980469 29.042969 11.601562 29.144531 11.429688 29.441406 C 11.257812 29.742188 11.359375 30.121094 11.65625 30.292969 C 11.984375 30.484375 12.308594 30.675781 12.621094 30.863281 C 13.308594 31.277344 13.957031 31.664062 14.675781 32.023438 C 14.679688 32.027344 14.695312 32.035156 14.699219 32.035156 L 15.277344 32.296875 C 16.179688 32.699219 17.058594 32.777344 17.960938 32.53125 L 23.582031 31.003906 C 25.070312 30.597656 26.117188 30.761719 26.308594 31.433594 C 26.4375 31.882812 26.171875 32.476562 25.792969 32.589844 Z M 2.9375 27.394531 C 2.902344 27.671875 2.652344 27.871094 2.375 27.835938 C 2.101562 27.804688 1.902344 27.554688 1.933594 27.277344 C 1.964844 27 2.21875 26.804688 2.492188 26.835938 C 2.769531 26.867188 2.96875 27.117188 2.9375 27.394531 Z M 38.582031 12.191406 L 36.46875 4.03125 C 36.28125 3.304688 35.535156 2.867188 34.808594 3.054688 L 33.238281 3.460938 C 32.511719 3.648438 32.074219 4.394531 32.261719 5.121094 L 32.433594 5.792969 L 31.722656 5.984375 L 26.007812 2.6875 C 25 2.105469 23.890625 1.96875 22.800781 2.296875 L 12.523438 5.363281 C 11.5 5.667969 10.851562 6.953125 11.167969 8.054688 C 11.289062 8.476562 11.785156 9.609375 13.652344 9.609375 C 14.140625 9.609375 14.722656 9.53125 15.417969 9.34375 L 21.035156 7.816406 C 21.164062 7.78125 21.292969 7.753906 21.421875 7.738281 C 21.378906 7.796875 21.34375 7.855469 21.304688 7.917969 C 20.761719 8.859375 21.078125 10.078125 22.027344 10.691406 C 22.050781 10.707031 22.074219 10.722656 22.101562 10.734375 C 23.417969 11.351562 24.65625 12.214844 25.648438 12.910156 C 26 13.152344 26.328125 13.382812 26.613281 13.566406 C 27.230469 13.96875 27.875 14.105469 28.507812 14.105469 C 29.101562 14.105469 29.6875 13.984375 30.230469 13.835938 L 34.238281 12.757812 L 34.371094 13.28125 C 34.53125 13.894531 35.085938 14.300781 35.691406 14.300781 C 35.804688 14.300781 35.917969 14.289062 36.03125 14.257812 L 37.601562 13.851562 C 37.957031 13.761719 38.25 13.539062 38.4375 13.222656 C 38.621094 12.910156 38.671875 12.542969 38.582031 12.191406 Z M 29.90625 12.636719 C 28.679688 12.964844 27.921875 12.933594 27.289062 12.523438 C 27.023438 12.351562 26.714844 12.136719 26.363281 11.890625 C 25.339844 11.175781 24.066406 10.289062 22.675781 9.628906 C 22.300781 9.367188 22.175781 8.902344 22.382812 8.539062 C 22.609375 8.152344 22.96875 8.054688 23.460938 8.246094 C 24.128906 8.582031 24.753906 8.953125 25.414062 9.347656 C 25.726562 9.539062 26.054688 9.734375 26.394531 9.929688 C 26.492188 9.988281 26.597656 10.011719 26.703125 10.011719 C 26.917969 10.011719 27.128906 9.902344 27.242188 9.703125 C 27.414062 9.40625 27.3125 9.023438 27.015625 8.851562 C 26.6875 8.660156 26.363281 8.46875 26.050781 8.28125 C 25.363281 7.871094 24.714844 7.480469 23.996094 7.121094 C 23.992188 7.117188 23.976562 7.113281 23.972656 7.109375 L 23.394531 6.847656 C 22.488281 6.445312 21.613281 6.367188 20.707031 6.613281 L 15.089844 8.144531 C 13.601562 8.546875 12.554688 8.382812 12.363281 7.714844 C 12.234375 7.265625 12.5 6.667969 12.878906 6.554688 L 23.15625 3.488281 C 23.921875 3.261719 24.671875 3.351562 25.382812 3.765625 L 31.324219 7.191406 C 31.464844 7.273438 31.636719 7.296875 31.792969 7.253906 L 32.746094 7 L 33.925781 11.554688 Z M 37.363281 12.59375 C 37.351562 12.613281 37.332031 12.636719 37.292969 12.648438 L 35.722656 13.054688 C 35.660156 13.070312 35.59375 13.03125 35.578125 12.96875 L 33.464844 4.808594 C 33.449219 4.75 33.488281 4.683594 33.550781 4.664062 L 35.121094 4.257812 C 35.183594 4.242188 35.25 4.28125 35.265625 4.34375 L 37.378906 12.503906 C 37.386719 12.542969 37.375 12.574219 37.363281 12.59375 Z M 36.738281 11.867188 C 36.707031 12.144531 36.453125 12.34375 36.179688 12.308594 C 35.902344 12.277344 35.703125 12.027344 35.734375 11.75 C 35.769531 11.472656 36.019531 11.277344 36.296875 11.308594 C 36.570312 11.339844 36.769531 11.589844 36.738281 11.867188 Z M 11.335938 17.9375 C 11.09375 18.03125 10.933594 18.261719 10.933594 18.519531 L 10.933594 20.625 C 10.933594 20.882812 11.09375 21.113281 11.335938 21.207031 L 12.324219 21.585938 C 12.476562 22.117188 12.6875 22.625 12.953125 23.105469 L 12.523438 24.074219 C 12.417969 24.3125 12.46875 24.585938 12.652344 24.769531 L 14.140625 26.257812 C 14.324219 26.4375 14.597656 26.492188 14.832031 26.386719 L 15.804688 25.953125 C 16.285156 26.222656 16.792969 26.429688 17.320312 26.582031 L 17.703125 27.574219 C 17.796875 27.816406 18.027344 27.972656 18.285156 27.972656 L 20.390625 27.972656 C 20.644531 27.972656 20.878906 27.816406 20.96875 27.574219 L 21.351562 26.582031 C 21.878906 26.429688 22.386719 26.222656 22.867188 25.953125 L 23.839844 26.386719 C 24.074219 26.492188 24.351562 26.4375 24.53125 26.257812 L 26.019531 24.769531 C 26.203125 24.585938 26.253906 24.3125 26.148438 24.074219 L 25.71875 23.105469 C 25.984375 22.625 26.195312 22.117188 26.347656 21.585938 L 27.335938 21.207031 C 27.578125 21.113281 27.738281 20.882812 27.738281 20.625 L 27.738281 18.519531 C 27.738281 18.261719 27.578125 18.03125 27.335938 17.9375 L 26.347656 17.558594 C 26.195312 17.03125 25.984375 16.523438 25.71875 16.039062 L 26.148438 15.070312 C 26.253906 14.835938 26.203125 14.558594 26.019531 14.375 L 24.53125 12.886719 C 24.351562 12.707031 24.074219 12.65625 23.839844 12.757812 L 22.867188 13.191406 C 22.386719 12.925781 21.878906 12.714844 21.351562 12.5625 L 20.96875 11.570312 C 20.875 11.332031 20.644531 11.171875 20.386719 11.171875 L 18.285156 11.171875 C 18.027344 11.171875 17.796875 11.332031 17.703125 11.570312 L 17.320312 12.5625 C 16.792969 12.714844 16.285156 12.925781 15.804688 13.191406 L 14.832031 12.757812 C 14.597656 12.65625 14.324219 12.707031 14.140625 12.886719 L 12.652344 14.378906 C 12.46875 14.558594 12.417969 14.835938 12.523438 15.070312 L 12.953125 16.042969 C 12.6875 16.523438 12.476562 17.03125 12.324219 17.558594 Z M 13.070312 18.605469 C 13.261719 18.53125 13.40625 18.367188 13.453125 18.167969 C 13.601562 17.546875 13.847656 16.953125 14.183594 16.40625 C 14.289062 16.230469 14.304688 16.015625 14.222656 15.828125 L 13.832031 14.953125 L 14.71875 14.070312 L 15.589844 14.457031 C 15.777344 14.542969 15.996094 14.527344 16.167969 14.417969 C 16.714844 14.082031 17.308594 13.835938 17.929688 13.6875 C 18.128906 13.640625 18.292969 13.5 18.367188 13.308594 L 18.710938 12.417969 L 19.960938 12.417969 L 20.304688 13.308594 C 20.378906 13.5 20.542969 13.640625 20.742188 13.6875 C 21.363281 13.835938 21.957031 14.082031 22.503906 14.417969 C 22.675781 14.527344 22.894531 14.542969 23.082031 14.457031 L 23.953125 14.070312 L 24.839844 14.953125 L 24.449219 15.828125 C 24.367188 16.015625 24.382812 16.230469 24.488281 16.40625 C 24.828125 16.953125 25.070312 17.546875 25.21875 18.167969 C 25.269531 18.367188 25.410156 18.53125 25.601562 18.605469 L 26.492188 18.945312 L 26.492188 20.199219 L 25.601562 20.539062 C 25.410156 20.613281 25.265625 20.777344 25.21875 20.976562 C 25.070312 21.601562 24.824219 22.191406 24.488281 22.738281 C 24.382812 22.914062 24.367188 23.128906 24.449219 23.316406 L 24.839844 24.191406 L 23.953125 25.074219 L 23.082031 24.6875 C 22.894531 24.605469 22.675781 24.617188 22.503906 24.726562 C 21.957031 25.0625 21.363281 25.308594 20.742188 25.457031 C 20.542969 25.503906 20.378906 25.648438 20.304688 25.839844 L 19.960938 26.730469 L 18.710938 26.730469 L 18.367188 25.839844 C 18.292969 25.648438 18.132812 25.503906 17.929688 25.457031 C 17.308594 25.308594 16.714844 25.0625 16.167969 24.726562 C 15.996094 24.617188 15.777344 24.605469 15.589844 24.6875 L 14.71875 25.074219 L 13.832031 24.191406 L 14.222656 23.316406 C 14.304688 23.128906 14.289062 22.914062 14.183594 22.738281 C 13.847656 22.191406 13.601562 21.601562 13.453125 20.976562 C 13.40625 20.777344 13.261719 20.613281 13.070312 20.539062 L 12.179688 20.199219 L 12.179688 18.945312 Z M 19.335938 23.867188 C 21.703125 23.867188 23.628906 21.941406 23.628906 19.574219 C 23.628906 17.207031 21.703125 15.277344 19.335938 15.277344 C 16.96875 15.277344 15.042969 17.207031 15.042969 19.574219 C 15.042969 21.941406 16.96875 23.867188 19.335938 23.867188 Z M 19.335938 16.523438 C 21.015625 16.523438 22.386719 17.890625 22.386719 19.574219 C 22.386719 21.253906 21.015625 22.621094 19.335938 22.621094 C 17.65625 22.621094 16.285156 21.253906 16.285156 19.574219 C 16.285156 17.890625 17.65625 16.523438 19.335938 16.523438 Z M 29.210938 26.523438 L 29.9375 26.394531 C 30.277344 26.335938 30.597656 26.5625 30.660156 26.898438 C 30.71875 27.238281 30.492188 27.5625 30.152344 27.621094 L 27.1875 28.144531 C 27.152344 28.148438 27.117188 28.152344 27.082031 28.152344 C 26.914062 28.152344 26.75 28.085938 26.632812 27.960938 C 26.488281 27.8125 26.429688 27.601562 26.472656 27.398438 L 27.046875 24.738281 C 27.117188 24.402344 27.449219 24.1875 27.785156 24.257812 C 28.121094 24.332031 28.335938 24.664062 28.261719 25 L 28.066406 25.910156 C 30.421875 23.652344 31.425781 20.25 30.578125 17.019531 C 30.492188 16.6875 30.6875 16.347656 31.023438 16.261719 C 31.355469 16.171875 31.695312 16.371094 31.78125 16.707031 C 32.707031 20.246094 31.683594 23.960938 29.210938 26.523438 Z M 9.460938 12.621094 L 8.734375 12.75 C 8.394531 12.808594 8.074219 12.585938 8.011719 12.246094 C 7.953125 11.90625 8.179688 11.585938 8.519531 11.523438 L 11.484375 11 C 11.6875 10.964844 11.894531 11.035156 12.039062 11.183594 C 12.183594 11.332031 12.242188 11.542969 12.199219 11.746094 L 11.625 14.410156 C 11.5625 14.699219 11.304688 14.898438 11.019531 14.898438 C 10.976562 14.898438 10.929688 14.894531 10.886719 14.886719 C 10.550781 14.8125 10.335938 14.484375 10.410156 14.148438 L 10.605469 13.238281 C 8.25 15.492188 7.246094 18.894531 8.09375 22.125 C 8.179688 22.457031 7.984375 22.796875 7.648438 22.882812 C 7.597656 22.898438 7.542969 22.90625 7.492188 22.90625 C 7.214844 22.90625 6.964844 22.71875 6.890625 22.441406 C 5.964844 18.902344 6.988281 15.183594 9.460938 12.621094 Z M 9.460938 12.621094 " fill-opacity="1" fill-rule="nonzero"/></g></svg>