<svg xmlns="http://www.w3.org/2000/svg" xmlns:xlink="http://www.w3.org/1999/xlink" width="1200" zoomAndPan="magnify" viewBox="0 0 900 899.99999" height="1200" preserveAspectRatio="xMidYMid meet" version="1.0"><defs><clipPath id="7a1366f71d"><path d="M 378 321 L 780.75 321 L 780.75 810 L 378 810 Z M 378 321 " clip-rule="nonzero"/></clipPath><clipPath id="b59d9810c9"><path d="M 119.25 90 L 571 90 L 571 697 L 119.25 697 Z M 119.25 90 " clip-rule="nonzero"/></clipPath></defs><path fill="#ffffff" d="M 475.328125 102.765625 L 475.328125 185.488281 L 557.902344 185.488281 Z M 475.328125 102.765625 " fill-opacity="1" fill-rule="nonzero"/><g clip-path="url(#7a1366f71d)"><path fill="#ffffff" d="M 780.601562 409.6875 C 780.601562 408.636719 779.851562 407.738281 778.800781 407.289062 C 738.1875 390.652344 716.757812 362.628906 715.109375 324.113281 C 715.109375 322.617188 713.910156 321.417969 712.410156 321.417969 L 446.253906 321.417969 C 444.753906 321.417969 443.707031 322.617188 443.554688 324.113281 C 443.257812 330.410156 442.507812 336.402344 441.15625 342.097656 C 441.007812 342.546875 441.007812 342.847656 440.859375 343.296875 C 437.261719 357.984375 430.066406 370.871094 419.425781 381.8125 C 418.976562 382.261719 418.527344 382.710938 418.078125 383.160156 C 408.1875 392.902344 395.449219 400.996094 379.863281 407.4375 C 378.816406 407.886719 378.214844 408.789062 378.214844 409.835938 C 378.066406 421.375 378.066406 445.503906 380.914062 476.375 C 382.410156 492.859375 384.507812 509.195312 387.058594 525.230469 C 398.597656 596.117188 427.070312 694.277344 496.609375 758.71875 C 511.144531 772.207031 527.328125 784.046875 544.414062 793.636719 C 555.503906 799.933594 567.34375 805.328125 579.484375 809.824219 C 707.917969 761.867188 754.972656 628.789062 771.90625 525.230469 C 774.457031 509.347656 776.554688 492.859375 778.050781 476.375 C 780.300781 451.5 780.75 431.117188 780.75 418.078125 C 780.75 414.632812 780.75 411.933594 780.601562 409.6875 Z M 760.667969 492.710938 C 759.46875 506.796875 757.671875 520.886719 755.421875 534.523438 C 740.585938 625.640625 698.476562 742.984375 582.480469 784.644531 C 581.582031 784.945312 580.53125 785.246094 579.484375 785.246094 C 578.433594 785.246094 577.535156 785.097656 576.484375 784.644531 C 564.644531 780.449219 553.105469 775.203125 542.464844 769.0625 C 527.179688 760.519531 512.644531 749.878906 499.605469 737.890625 C 438.3125 681.089844 413.582031 595.96875 403.542969 534.523438 C 401.292969 520.886719 399.496094 506.796875 398.296875 492.710938 C 395.898438 466.335938 395.898438 445.652344 396.050781 435.761719 C 396.199219 428.417969 400.695312 421.824219 407.4375 418.976562 C 435.613281 407.4375 449.25 389.90625 450.449219 364.128906 C 450.898438 354.238281 458.992188 346.445312 468.882812 346.445312 L 690.230469 346.445312 C 700.125 346.445312 708.214844 354.238281 708.664062 364.128906 C 709.863281 389.90625 723.5 407.4375 751.675781 418.976562 C 758.570312 421.824219 763.066406 428.417969 763.066406 435.761719 C 763.066406 445.503906 763.066406 466.183594 760.667969 492.710938 Z M 760.667969 492.710938 " fill-opacity="1" fill-rule="nonzero"/></g><g clip-path="url(#b59d9810c9)"><path fill="#ffffff" d="M 295.488281 648.121094 C 290.542969 648.121094 286.648438 644.222656 286.648438 639.277344 C 286.648438 634.332031 290.542969 630.4375 295.488281 630.4375 L 395.75 630.4375 C 393.652344 624.441406 391.554688 618.445312 389.605469 612.453125 L 295.488281 612.453125 C 290.542969 612.453125 286.648438 608.554688 286.648438 603.609375 C 286.648438 598.664062 290.542969 594.769531 295.488281 594.769531 L 384.359375 594.769531 C 377.617188 571.089844 372.96875 548.3125 369.523438 527.78125 C 368.921875 524.03125 368.324219 520.285156 367.726562 516.539062 L 295.488281 516.539062 C 290.542969 516.539062 286.648438 512.644531 286.648438 507.699219 C 286.648438 502.753906 290.542969 498.855469 295.488281 498.855469 L 365.476562 498.855469 C 364.726562 492.859375 364.128906 486.867188 363.527344 480.871094 L 295.488281 480.871094 C 290.542969 480.871094 286.648438 476.976562 286.648438 472.03125 C 286.648438 467.085938 290.542969 463.1875 295.488281 463.1875 L 362.03125 463.1875 C 360.382812 438.460938 360.230469 419.277344 360.382812 409.386719 C 360.53125 401.292969 365.476562 394.101562 373.121094 390.953125 C 377.617188 389.15625 381.660156 387.207031 385.558594 385.109375 L 295.488281 385.109375 C 290.542969 385.109375 286.648438 381.210938 286.648438 376.265625 C 286.648438 371.320312 290.542969 367.425781 295.488281 367.425781 L 408.789062 367.425781 C 413.734375 362.03125 417.480469 356.035156 420.328125 349.589844 L 295.640625 349.589844 C 290.695312 349.589844 286.796875 345.695312 286.796875 340.75 C 286.796875 335.804688 290.695312 331.90625 295.640625 331.90625 L 425.273438 331.90625 C 425.722656 329.210938 425.871094 326.363281 426.023438 323.515625 C 426.472656 312.574219 435.464844 303.882812 446.402344 303.882812 L 570.640625 303.882812 L 570.640625 203.175781 L 466.484375 203.175781 C 461.539062 203.175781 457.644531 199.277344 457.644531 194.332031 L 457.644531 90.175781 L 119.25 90.175781 L 119.25 696.976562 L 426.171875 696.976562 C 417.03125 681.089844 409.238281 664.605469 402.492188 648.121094 Z M 295.488281 200.027344 L 367.574219 200.027344 C 372.519531 200.027344 376.417969 203.921875 376.417969 208.867188 C 376.417969 213.8125 372.519531 217.710938 367.574219 217.710938 L 295.488281 217.710938 C 290.542969 217.710938 286.648438 213.8125 286.648438 208.867188 C 286.5 203.921875 290.542969 200.027344 295.488281 200.027344 Z M 295.488281 235.695312 L 432.015625 235.695312 C 436.960938 235.695312 440.859375 239.589844 440.859375 244.535156 C 440.859375 249.480469 436.960938 253.378906 432.015625 253.378906 L 295.339844 253.378906 C 290.394531 253.378906 286.5 249.480469 286.5 244.535156 C 286.5 239.589844 290.542969 235.695312 295.488281 235.695312 Z M 238.691406 582.03125 L 216.210938 604.511719 C 213.664062 607.058594 210.066406 608.554688 206.472656 608.554688 C 206.320312 608.554688 206.171875 608.554688 205.871094 608.554688 C 202.125 608.40625 198.527344 606.609375 195.980469 603.761719 L 188.9375 595.519531 C 185.789062 591.769531 186.238281 586.226562 189.835938 583.078125 C 193.582031 579.933594 199.128906 580.382812 202.273438 583.980469 L 206.621094 588.925781 L 226.101562 569.441406 C 229.550781 565.996094 235.246094 565.996094 238.691406 569.441406 C 242.136719 572.886719 242.136719 578.582031 238.691406 582.03125 Z M 238.691406 450.449219 L 216.210938 472.929688 C 213.664062 475.476562 210.066406 476.976562 206.472656 476.976562 C 206.320312 476.976562 206.171875 476.976562 205.871094 476.976562 C 202.125 476.824219 198.527344 475.027344 195.980469 472.179688 L 188.9375 463.9375 C 185.789062 460.191406 186.238281 454.644531 189.835938 451.5 C 193.582031 448.351562 199.128906 448.800781 202.273438 452.398438 L 206.621094 457.34375 L 226.101562 437.859375 C 229.550781 434.414062 235.246094 434.414062 238.691406 437.859375 C 242.136719 441.308594 242.136719 447.003906 238.691406 450.449219 Z M 238.691406 318.867188 L 216.210938 341.347656 C 213.664062 343.894531 210.066406 345.394531 206.472656 345.394531 C 206.320312 345.394531 206.171875 345.394531 205.871094 345.394531 C 202.125 345.246094 198.527344 343.445312 195.980469 340.597656 L 188.9375 332.355469 C 185.789062 328.609375 186.238281 323.066406 189.835938 319.917969 C 193.582031 316.769531 199.128906 317.21875 202.273438 320.816406 L 206.621094 325.761719 L 226.101562 306.28125 C 229.550781 302.832031 235.246094 302.832031 238.691406 306.28125 C 242.136719 309.726562 242.136719 315.421875 238.691406 318.867188 Z M 238.691406 187.289062 L 216.210938 209.769531 C 213.664062 212.316406 210.066406 213.8125 206.472656 213.8125 L 205.871094 213.8125 C 202.125 213.664062 198.527344 211.867188 195.980469 209.019531 L 188.9375 200.777344 C 185.789062 197.03125 186.238281 191.484375 189.835938 188.335938 C 193.582031 185.191406 199.128906 185.640625 202.273438 189.238281 L 206.621094 194.183594 L 226.101562 174.699219 C 229.550781 171.253906 235.246094 171.253906 238.691406 174.699219 C 242.136719 178.148438 242.136719 183.691406 238.691406 187.289062 Z M 238.691406 187.289062 " fill-opacity="1" fill-rule="nonzero"/></g><path fill="#ffffff" d="M 744.78125 435.3125 C 710.464844 421.226562 692.332031 397.546875 690.832031 364.878906 C 690.832031 364.425781 690.53125 364.128906 690.082031 364.128906 L 468.734375 364.128906 C 468.285156 364.128906 467.984375 364.578125 467.984375 364.878906 C 466.484375 397.398438 448.351562 421.226562 414.03125 435.3125 C 413.734375 435.464844 413.582031 435.613281 413.582031 435.914062 C 413.433594 445.503906 413.433594 465.4375 415.832031 491.0625 C 417.03125 504.699219 418.828125 518.339844 420.925781 531.527344 C 430.519531 590.273438 454.046875 671.5 511.59375 724.851562 C 523.582031 736.089844 536.921875 745.683594 551.007812 753.625 C 560 758.71875 569.589844 763.066406 579.484375 766.8125 C 685.136719 726.949219 724.101562 617.097656 738.039062 531.527344 C 740.136719 518.339844 741.933594 504.699219 743.132812 491.0625 C 745.082031 470.382812 745.382812 453.445312 745.382812 442.65625 C 745.382812 440.109375 745.382812 437.859375 745.382812 435.914062 C 745.230469 435.613281 745.082031 435.464844 744.78125 435.3125 Z M 664.007812 520.886719 L 567.792969 617.097656 C 562.25 622.644531 554.605469 625.789062 546.8125 625.789062 C 546.363281 625.789062 546.0625 625.789062 545.613281 625.789062 C 537.371094 625.492188 529.578125 621.746094 524.183594 615.449219 L 494.058594 580.230469 C 490.914062 576.484375 491.363281 570.941406 494.960938 567.792969 C 498.707031 564.644531 504.25 565.09375 507.398438 568.691406 L 537.519531 603.910156 C 539.769531 606.457031 542.765625 607.957031 546.0625 608.105469 C 549.359375 608.257812 552.65625 607.058594 554.90625 604.660156 L 651.117188 508.445312 C 654.566406 505 660.257812 505 663.707031 508.445312 C 667.453125 511.742188 667.453125 517.4375 664.007812 520.886719 Z M 664.007812 520.886719 " fill-opacity="1" fill-rule="nonzero"/></svg>