<svg xmlns="http://www.w3.org/2000/svg" xmlns:xlink="http://www.w3.org/1999/xlink" width="1200" zoomAndPan="magnify" viewBox="0 0 900 899.99999" height="1200" preserveAspectRatio="xMidYMid meet" version="1.0"><path fill="#ffffff" d="M 154.828125 514.84375 L 90 450.015625 L 135.523438 450.015625 C 135.523438 363.191406 170.707031 284.539062 227.632812 227.632812 C 252.753906 202.507812 282.101562 181.628906 314.582031 166.128906 L 345.890625 197.4375 C 312.339844 211.300781 282.144531 231.617188 256.867188 256.910156 C 207.46875 306.308594 176.863281 374.574219 176.863281 450.015625 L 219.640625 450.015625 Z M 449.984375 723.136719 C 401.613281 723.136719 356.203125 710.550781 316.820312 688.5 L 296.136719 724.332031 C 341.632812 749.890625 394.105469 764.476562 449.984375 764.476562 L 449.984375 810 L 514.8125 745.171875 L 449.984375 680.34375 Z M 449.984375 176.90625 C 498.992188 176.90625 544.964844 189.8125 584.742188 212.414062 C 590.253906 199.507812 597.917969 187.769531 607.273438 177.625 C 561.015625 150.867188 507.304688 135.523438 449.984375 135.523438 L 449.984375 90 L 385.15625 154.828125 L 449.984375 219.683594 Z M 745.171875 385.199219 L 680.34375 450.027344 L 723.078125 450.027344 C 723.078125 525.4375 692.515625 593.730469 643.117188 643.144531 C 617.839844 668.421875 587.644531 688.753906 554.097656 702.578125 L 585.40625 733.929688 C 617.839844 718.429688 647.191406 697.503906 672.355469 672.382812 C 729.265625 615.472656 764.460938 536.863281 764.460938 450.027344 L 809.984375 450.027344 Z M 325.882812 393.542969 C 325.882812 325.007812 381.4375 269.449219 449.972656 269.449219 C 518.546875 269.449219 574.105469 325.007812 574.105469 393.542969 C 574.105469 445.828125 549.855469 464.640625 525.339844 493.355469 C 519.394531 500.34375 514.828125 507.769531 511.714844 515.714844 C 510.601562 515.589844 509.433594 515.5625 508.320312 515.5625 L 391.652344 515.5625 C 390.496094 515.5625 389.371094 515.601562 388.214844 515.714844 C 385.101562 507.769531 380.59375 500.34375 374.632812 493.355469 C 350.128906 464.640625 325.882812 445.828125 325.882812 393.542969 Z M 395.175781 393.542969 C 395.175781 425.414062 412.226562 453.605469 438.433594 470.953125 L 438.433594 371.941406 C 438.433594 365.542969 443.589844 360.402344 449.972656 360.402344 C 456.355469 360.402344 461.554688 365.558594 461.554688 371.941406 L 461.554688 470.953125 C 487.761719 453.621094 504.769531 425.414062 504.769531 393.542969 C 504.769531 357.1875 482.605469 325.597656 449.972656 309.507812 C 417.394531 325.613281 395.175781 357.203125 395.175781 393.542969 Z M 480.25 630.589844 C 493.945312 630.589844 505.132812 619.40625 505.132812 605.707031 L 505.132812 605.355469 L 394.867188 605.355469 L 394.867188 605.707031 C 394.867188 619.40625 406.054688 630.589844 419.707031 630.589844 Z M 508.332031 538.808594 L 391.667969 538.808594 C 379.761719 538.808594 370.023438 548.558594 370.023438 560.453125 C 370.023438 572.398438 379.773438 582.136719 391.667969 582.136719 L 508.332031 582.136719 C 520.238281 582.136719 529.976562 572.386719 529.976562 560.453125 C 529.976562 548.558594 520.238281 538.808594 508.332031 538.808594 Z M 598.070312 260.585938 C 598.070312 205.945312 642.640625 161.421875 697.28125 161.421875 C 751.921875 161.421875 796.445312 205.960938 796.445312 260.585938 C 796.445312 315.230469 751.90625 359.796875 697.28125 359.796875 C 642.652344 359.796875 598.070312 315.214844 598.070312 260.585938 Z M 635.988281 260.585938 C 635.988281 294.375 663.507812 321.9375 697.292969 321.9375 C 731.082031 321.9375 758.597656 294.375 758.597656 260.585938 C 758.597656 226.84375 731.082031 199.28125 697.292969 199.28125 C 663.507812 199.269531 635.988281 226.828125 635.988281 260.585938 Z M 304.082031 664.140625 L 275.324219 713.949219 L 248.613281 698.492188 C 243.695312 702.449219 238.3125 705.804688 232.546875 708.4375 L 232.546875 738.632812 L 175.035156 738.632812 L 175.035156 710.636719 C 168.128906 708.113281 161.691406 704.605469 155.898438 700.296875 L 132.257812 713.949219 L 103.5 664.140625 L 126.183594 651.035156 C 125.578125 647.246094 125.265625 643.371094 125.265625 639.414062 C 125.265625 635.496094 125.589844 631.578125 126.183594 627.832031 L 103.5 614.726562 L 132.257812 564.917969 L 155.898438 578.570312 C 161.691406 574.261719 168.113281 570.738281 175.035156 568.230469 L 175.035156 540.234375 L 232.546875 540.234375 L 232.546875 570.425781 C 238.296875 573.0625 243.695312 576.414062 248.613281 580.332031 L 275.324219 564.917969 L 304.082031 614.726562 L 276.410156 630.703125 C 276.734375 633.578125 276.890625 636.496094 276.890625 639.414062 C 276.890625 642.371094 276.734375 645.289062 276.410156 648.160156 Z M 231.660156 639.410156 C 231.660156 622.558594 217.964844 608.851562 201.070312 608.851562 C 184.175781 608.851562 170.511719 622.546875 170.511719 639.410156 C 170.511719 656.304688 184.164062 670 201.070312 670 C 217.964844 670.015625 231.660156 656.304688 231.660156 639.410156 Z M 697.292969 272.210938 L 727.050781 272.210938 C 733.476562 272.210938 738.675781 267.011719 738.675781 260.585938 C 738.675781 254.191406 733.476562 248.964844 727.050781 248.964844 L 708.917969 248.964844 L 708.917969 230.828125 C 708.917969 224.40625 703.691406 219.207031 697.292969 219.207031 C 690.867188 219.207031 685.667969 224.40625 685.667969 230.828125 L 685.667969 260.585938 C 685.667969 267.011719 690.855469 272.210938 697.292969 272.210938 Z M 697.292969 272.210938 " fill-opacity="1" fill-rule="nonzero"/></svg>