<svg xmlns="http://www.w3.org/2000/svg" xmlns:xlink="http://www.w3.org/1999/xlink" width="1200" zoomAndPan="magnify" viewBox="0 0 900 899.99999" height="1200" preserveAspectRatio="xMidYMid meet" version="1.0"><defs><clipPath id="30d35b1d2e"><path d="M 154 90 L 746 90 L 746 810 L 154 810 Z M 154 90 " clip-rule="nonzero"/></clipPath></defs><path fill="#ffffff" d="M 307.34375 194.75 L 459.28125 194.75 C 459.972656 194.75 460.660156 194.683594 461.335938 194.546875 C 462.015625 194.414062 462.675781 194.210938 463.316406 193.945312 C 463.957031 193.683594 464.566406 193.355469 465.140625 192.972656 C 465.71875 192.585938 466.25 192.148438 466.738281 191.660156 C 467.230469 191.171875 467.667969 190.636719 468.050781 190.0625 C 468.4375 189.484375 468.761719 188.878906 469.027344 188.238281 C 469.292969 187.597656 469.492188 186.9375 469.628906 186.257812 C 469.761719 185.578125 469.832031 184.890625 469.832031 184.199219 C 469.832031 183.507812 469.761719 182.820312 469.628906 182.140625 C 469.492188 181.460938 469.292969 180.800781 469.027344 180.160156 C 468.761719 179.523438 468.4375 178.914062 468.050781 178.335938 C 467.667969 177.761719 467.230469 177.226562 466.738281 176.738281 C 466.25 176.25 465.71875 175.8125 465.140625 175.425781 C 464.566406 175.042969 463.957031 174.714844 463.316406 174.453125 C 462.675781 174.1875 462.015625 173.984375 461.335938 173.851562 C 460.660156 173.714844 459.972656 173.648438 459.28125 173.648438 L 307.34375 173.648438 C 306.652344 173.648438 305.964844 173.714844 305.285156 173.851562 C 304.605469 173.984375 303.949219 174.1875 303.308594 174.453125 C 302.667969 174.714844 302.058594 175.042969 301.484375 175.425781 C 300.90625 175.8125 300.375 176.25 299.882812 176.738281 C 299.394531 177.226562 298.957031 177.761719 298.570312 178.335938 C 298.1875 178.914062 297.863281 179.523438 297.597656 180.160156 C 297.332031 180.800781 297.132812 181.460938 296.996094 182.140625 C 296.863281 182.820312 296.792969 183.507812 296.792969 184.199219 C 296.792969 184.890625 296.863281 185.578125 296.996094 186.257812 C 297.132812 186.9375 297.332031 187.597656 297.597656 188.238281 C 297.863281 188.878906 298.1875 189.484375 298.570312 190.0625 C 298.957031 190.636719 299.394531 191.171875 299.882812 191.660156 C 300.375 192.148438 300.90625 192.585938 301.484375 192.972656 C 302.058594 193.355469 302.667969 193.683594 303.308594 193.945312 C 303.949219 194.210938 304.605469 194.414062 305.285156 194.546875 C 305.964844 194.683594 306.652344 194.75 307.34375 194.75 Z M 307.34375 194.75 " fill-opacity="1" fill-rule="nonzero"/><path fill="#ffffff" d="M 361.113281 366.859375 L 307.34375 366.859375 C 306.652344 366.859375 305.964844 366.925781 305.285156 367.0625 C 304.605469 367.195312 303.949219 367.394531 303.308594 367.660156 C 302.667969 367.925781 302.058594 368.25 301.484375 368.636719 C 300.90625 369.019531 300.375 369.457031 299.882812 369.949219 C 299.394531 370.4375 298.957031 370.972656 298.570312 371.546875 C 298.1875 372.125 297.863281 372.730469 297.597656 373.371094 C 297.332031 374.011719 297.132812 374.671875 296.996094 375.351562 C 296.863281 376.03125 296.792969 376.714844 296.792969 377.410156 C 296.792969 378.101562 296.863281 378.789062 296.996094 379.46875 C 297.132812 380.148438 297.332031 380.808594 297.597656 381.445312 C 297.863281 382.085938 298.1875 382.695312 298.570312 383.269531 C 298.957031 383.847656 299.394531 384.378906 299.882812 384.871094 C 300.375 385.359375 300.90625 385.796875 301.484375 386.183594 C 302.058594 386.566406 302.667969 386.890625 303.308594 387.15625 C 303.949219 387.421875 304.605469 387.621094 305.285156 387.757812 C 305.964844 387.890625 306.652344 387.960938 307.34375 387.960938 L 361.113281 387.960938 C 361.804688 387.960938 362.492188 387.890625 363.171875 387.757812 C 363.851562 387.621094 364.511719 387.421875 365.152344 387.15625 C 365.789062 386.890625 366.398438 386.566406 366.976562 386.183594 C 367.550781 385.796875 368.082031 385.359375 368.574219 384.871094 C 369.0625 384.378906 369.5 383.847656 369.886719 383.269531 C 370.269531 382.695312 370.59375 382.085938 370.859375 381.445312 C 371.125 380.808594 371.324219 380.148438 371.460938 379.46875 C 371.597656 378.789062 371.664062 378.101562 371.664062 377.410156 C 371.664062 376.714844 371.597656 376.03125 371.460938 375.351562 C 371.324219 374.671875 371.125 374.011719 370.859375 373.371094 C 370.59375 372.730469 370.269531 372.125 369.886719 371.546875 C 369.5 370.972656 369.0625 370.4375 368.574219 369.949219 C 368.082031 369.457031 367.550781 369.019531 366.976562 368.636719 C 366.398438 368.25 365.789062 367.925781 365.152344 367.660156 C 364.511719 367.394531 363.851562 367.195312 363.171875 367.0625 C 362.492188 366.925781 361.804688 366.859375 361.113281 366.859375 Z M 361.113281 366.859375 " fill-opacity="1" fill-rule="nonzero"/><path fill="#ffffff" d="M 479.789062 366.859375 L 408.804688 366.859375 C 408.109375 366.859375 407.425781 366.925781 406.746094 367.0625 C 406.066406 367.195312 405.40625 367.394531 404.765625 367.660156 C 404.125 367.925781 403.519531 368.25 402.941406 368.636719 C 402.367188 369.019531 401.832031 369.457031 401.34375 369.949219 C 400.851562 370.4375 400.414062 370.972656 400.03125 371.546875 C 399.644531 372.125 399.320312 372.730469 399.054688 373.371094 C 398.789062 374.011719 398.589844 374.671875 398.457031 375.351562 C 398.320312 376.03125 398.253906 376.714844 398.253906 377.410156 C 398.253906 378.101562 398.320312 378.789062 398.457031 379.46875 C 398.589844 380.148438 398.789062 380.808594 399.054688 381.445312 C 399.320312 382.085938 399.644531 382.695312 400.03125 383.269531 C 400.414062 383.847656 400.851562 384.378906 401.34375 384.871094 C 401.832031 385.359375 402.367188 385.796875 402.941406 386.183594 C 403.519531 386.566406 404.125 386.890625 404.765625 387.15625 C 405.40625 387.421875 406.066406 387.621094 406.746094 387.757812 C 407.425781 387.890625 408.109375 387.960938 408.804688 387.960938 L 479.789062 387.960938 C 480.484375 387.960938 481.167969 387.890625 481.847656 387.757812 C 482.527344 387.621094 483.1875 387.421875 483.828125 387.15625 C 484.46875 386.890625 485.078125 386.566406 485.652344 386.183594 C 486.226562 385.796875 486.761719 385.359375 487.25 384.871094 C 487.742188 384.378906 488.179688 383.847656 488.5625 383.269531 C 488.949219 382.695312 489.273438 382.085938 489.539062 381.445312 C 489.804688 380.808594 490.003906 380.148438 490.140625 379.46875 C 490.273438 378.789062 490.339844 378.101562 490.339844 377.410156 C 490.339844 376.714844 490.273438 376.03125 490.140625 375.351562 C 490.003906 374.671875 489.804688 374.011719 489.539062 373.371094 C 489.273438 372.730469 488.949219 372.125 488.5625 371.546875 C 488.179688 370.972656 487.742188 370.4375 487.25 369.949219 C 486.761719 369.457031 486.226562 369.019531 485.652344 368.636719 C 485.078125 368.25 484.46875 367.925781 483.828125 367.660156 C 483.1875 367.394531 482.527344 367.195312 481.847656 367.0625 C 481.167969 366.925781 480.484375 366.859375 479.789062 366.859375 Z M 479.789062 366.859375 " fill-opacity="1" fill-rule="nonzero"/><path fill="#ffffff" d="M 307.34375 238.472656 L 479.285156 238.472656 C 479.976562 238.472656 480.664062 238.40625 481.34375 238.269531 C 482.023438 238.136719 482.683594 237.9375 483.320312 237.671875 C 483.960938 237.40625 484.570312 237.082031 485.144531 236.695312 C 485.722656 236.3125 486.253906 235.875 486.746094 235.382812 C 487.234375 234.894531 487.671875 234.359375 488.058594 233.785156 C 488.441406 233.207031 488.765625 232.601562 489.03125 231.960938 C 489.296875 231.320312 489.496094 230.660156 489.632812 229.980469 C 489.765625 229.300781 489.835938 228.617188 489.835938 227.921875 C 489.835938 227.230469 489.765625 226.542969 489.632812 225.863281 C 489.496094 225.183594 489.296875 224.523438 489.03125 223.886719 C 488.765625 223.246094 488.441406 222.636719 488.058594 222.0625 C 487.671875 221.484375 487.234375 220.953125 486.746094 220.460938 C 486.253906 219.972656 485.722656 219.535156 485.144531 219.148438 C 484.570312 218.765625 483.960938 218.441406 483.320312 218.175781 C 482.683594 217.910156 482.023438 217.710938 481.34375 217.574219 C 480.664062 217.4375 479.976562 217.371094 479.285156 217.371094 L 307.34375 217.371094 C 306.652344 217.371094 305.964844 217.4375 305.285156 217.574219 C 304.605469 217.710938 303.949219 217.910156 303.308594 218.175781 C 302.667969 218.441406 302.058594 218.765625 301.484375 219.148438 C 300.90625 219.535156 300.375 219.972656 299.882812 220.460938 C 299.394531 220.953125 298.957031 221.484375 298.570312 222.0625 C 298.1875 222.636719 297.863281 223.246094 297.597656 223.886719 C 297.332031 224.523438 297.132812 225.183594 296.996094 225.863281 C 296.863281 226.542969 296.792969 227.230469 296.792969 227.921875 C 296.792969 228.617188 296.863281 229.300781 296.996094 229.980469 C 297.132812 230.660156 297.332031 231.320312 297.597656 231.960938 C 297.863281 232.601562 298.1875 233.207031 298.570312 233.785156 C 298.957031 234.359375 299.394531 234.894531 299.882812 235.382812 C 300.375 235.875 300.90625 236.3125 301.484375 236.695312 C 302.058594 237.082031 302.667969 237.40625 303.308594 237.671875 C 303.949219 237.9375 304.605469 238.136719 305.285156 238.269531 C 305.964844 238.40625 306.652344 238.472656 307.34375 238.472656 Z M 307.34375 238.472656 " fill-opacity="1" fill-rule="nonzero"/><path fill="#ffffff" d="M 542.421875 318.15625 L 307.34375 318.15625 C 306.652344 318.15625 305.964844 318.222656 305.285156 318.359375 C 304.605469 318.492188 303.949219 318.691406 303.308594 318.957031 C 302.667969 319.222656 302.058594 319.546875 301.484375 319.933594 C 300.90625 320.316406 300.375 320.753906 299.882812 321.246094 C 299.394531 321.734375 298.957031 322.269531 298.570312 322.84375 C 298.1875 323.421875 297.863281 324.027344 297.597656 324.667969 C 297.332031 325.308594 297.132812 325.96875 296.996094 326.648438 C 296.863281 327.328125 296.792969 328.011719 296.792969 328.707031 C 296.792969 329.398438 296.863281 330.085938 296.996094 330.765625 C 297.132812 331.445312 297.332031 332.101562 297.597656 332.742188 C 297.863281 333.382812 298.1875 333.992188 298.570312 334.566406 C 298.957031 335.144531 299.394531 335.675781 299.882812 336.167969 C 300.375 336.65625 300.90625 337.09375 301.484375 337.480469 C 302.058594 337.863281 302.667969 338.1875 303.308594 338.453125 C 303.949219 338.71875 304.605469 338.917969 305.285156 339.054688 C 305.964844 339.1875 306.652344 339.257812 307.34375 339.257812 L 542.421875 339.257812 C 543.113281 339.257812 543.800781 339.1875 544.480469 339.054688 C 545.160156 338.917969 545.820312 338.71875 546.457031 338.453125 C 547.097656 338.1875 547.707031 337.863281 548.28125 337.480469 C 548.859375 337.09375 549.390625 336.65625 549.882812 336.167969 C 550.371094 335.675781 550.808594 335.144531 551.195312 334.566406 C 551.578125 333.992188 551.902344 333.382812 552.167969 332.742188 C 552.433594 332.101562 552.632812 331.445312 552.769531 330.765625 C 552.90625 330.085938 552.972656 329.398438 552.972656 328.707031 C 552.972656 328.011719 552.90625 327.328125 552.769531 326.648438 C 552.632812 325.96875 552.433594 325.308594 552.167969 324.667969 C 551.902344 324.027344 551.578125 323.421875 551.195312 322.84375 C 550.808594 322.269531 550.371094 321.734375 549.882812 321.246094 C 549.390625 320.753906 548.859375 320.316406 548.28125 319.933594 C 547.707031 319.546875 547.097656 319.222656 546.457031 318.957031 C 545.820312 318.691406 545.160156 318.492188 544.480469 318.359375 C 543.800781 318.222656 543.113281 318.15625 542.421875 318.15625 Z M 542.421875 318.15625 " fill-opacity="1" fill-rule="nonzero"/><path fill="#ffffff" d="M 594.585938 267.59375 L 307.597656 267.59375 C 306.90625 267.59375 306.21875 267.660156 305.539062 267.796875 C 304.859375 267.933594 304.199219 268.132812 303.5625 268.398438 C 302.921875 268.664062 302.3125 268.988281 301.738281 269.371094 C 301.160156 269.757812 300.628906 270.195312 300.136719 270.683594 C 299.648438 271.175781 299.210938 271.707031 298.824219 272.285156 C 298.441406 272.859375 298.117188 273.46875 297.851562 274.109375 C 297.585938 274.746094 297.386719 275.40625 297.25 276.085938 C 297.113281 276.765625 297.046875 277.453125 297.046875 278.144531 C 297.046875 278.839844 297.113281 279.523438 297.25 280.203125 C 297.386719 280.882812 297.585938 281.542969 297.851562 282.183594 C 298.117188 282.824219 298.441406 283.429688 298.824219 284.007812 C 299.210938 284.582031 299.648438 285.117188 300.136719 285.605469 C 300.628906 286.097656 301.160156 286.535156 301.738281 286.917969 C 302.3125 287.304688 302.921875 287.628906 303.5625 287.894531 C 304.199219 288.160156 304.859375 288.359375 305.539062 288.492188 C 306.21875 288.628906 306.90625 288.695312 307.597656 288.695312 L 594.585938 288.695312 C 595.277344 288.695312 595.964844 288.628906 596.644531 288.492188 C 597.324219 288.359375 597.984375 288.160156 598.621094 287.894531 C 599.261719 287.628906 599.871094 287.304688 600.445312 286.917969 C 601.023438 286.535156 601.554688 286.097656 602.046875 285.605469 C 602.535156 285.117188 602.972656 284.582031 603.359375 284.007812 C 603.742188 283.429688 604.066406 282.824219 604.332031 282.183594 C 604.597656 281.542969 604.796875 280.882812 604.933594 280.203125 C 605.070312 279.523438 605.136719 278.839844 605.136719 278.144531 C 605.136719 277.453125 605.070312 276.765625 604.933594 276.085938 C 604.796875 275.40625 604.597656 274.746094 604.332031 274.109375 C 604.066406 273.46875 603.742188 272.859375 603.359375 272.285156 C 602.972656 271.707031 602.535156 271.175781 602.046875 270.683594 C 601.554688 270.195312 601.023438 269.757812 600.445312 269.371094 C 599.871094 268.988281 599.261719 268.664062 598.621094 268.398438 C 597.984375 268.132812 597.324219 267.933594 596.644531 267.796875 C 595.964844 267.660156 595.277344 267.59375 594.585938 267.59375 Z M 594.585938 267.59375 " fill-opacity="1" fill-rule="nonzero"/><g clip-path="url(#30d35b1d2e)"><path fill="#ffffff" d="M 728.117188 573.574219 C 731.832031 545.464844 745.84375 437.761719 745.84375 437.339844 C 745.84375 436.554688 745.804688 435.769531 745.730469 434.988281 C 745.652344 434.207031 745.535156 433.433594 745.382812 432.660156 C 745.230469 431.890625 745.039062 431.132812 744.8125 430.378906 C 744.585938 429.628906 744.320312 428.890625 744.019531 428.164062 C 743.71875 427.441406 743.382812 426.730469 743.015625 426.039062 C 742.644531 425.347656 742.242188 424.671875 741.804688 424.019531 C 741.367188 423.367188 740.902344 422.738281 740.402344 422.132812 C 739.90625 421.523438 739.378906 420.941406 738.824219 420.386719 C 738.269531 419.832031 737.6875 419.304688 737.082031 418.808594 C 736.472656 418.308594 735.84375 417.84375 735.191406 417.40625 C 734.539062 416.96875 733.863281 416.566406 733.171875 416.199219 C 732.480469 415.828125 731.769531 415.492188 731.046875 415.191406 C 730.320312 414.890625 729.582031 414.628906 728.832031 414.398438 C 728.078125 414.171875 727.320312 413.980469 726.550781 413.828125 C 725.777344 413.675781 725.003906 413.558594 724.222656 413.480469 C 723.441406 413.40625 722.65625 413.367188 721.871094 413.367188 L 712.25 413.367188 L 712.25 338.582031 C 712.25 337.796875 712.210938 337.011719 712.132812 336.230469 C 712.058594 335.445312 711.941406 334.667969 711.789062 333.898438 C 711.636719 333.128906 711.445312 332.367188 711.21875 331.613281 C 710.992188 330.859375 710.726562 330.121094 710.425781 329.394531 C 710.125 328.667969 709.792969 327.957031 709.421875 327.265625 C 709.050781 326.570312 708.648438 325.898438 708.214844 325.242188 C 707.777344 324.589844 707.3125 323.957031 706.8125 323.347656 C 706.316406 322.742188 705.789062 322.15625 705.234375 321.601562 C 704.679688 321.042969 704.097656 320.515625 703.492188 320.015625 C 702.886719 319.515625 702.253906 319.046875 701.601562 318.609375 C 700.949219 318.171875 700.277344 317.765625 699.585938 317.394531 C 698.890625 317.019531 698.183594 316.683594 697.457031 316.378906 C 696.734375 316.078125 695.992188 315.8125 695.242188 315.582031 C 694.492188 315.351562 693.730469 315.15625 692.960938 315 C 692.1875 314.847656 691.414062 314.726562 690.628906 314.648438 C 689.847656 314.570312 689.0625 314.527344 688.277344 314.523438 L 668.019531 314.523438 L 668.019531 226.742188 C 668.03125 225.382812 667.777344 224.074219 667.265625 222.816406 C 666.753906 221.558594 666.023438 220.445312 665.066406 219.480469 L 542.925781 92.871094 C 541.960938 91.828125 540.820312 91.027344 539.511719 90.46875 C 538.203125 89.910156 536.839844 89.640625 535.414062 89.664062 L 235.683594 89.664062 C 234.992188 89.664062 234.3125 89.730469 233.632812 89.863281 C 232.957031 89.996094 232.300781 90.195312 231.664062 90.457031 C 231.027344 90.71875 230.421875 91.042969 229.847656 91.421875 C 229.273438 91.804688 228.742188 92.238281 228.25 92.722656 C 227.761719 93.207031 227.324219 93.738281 226.9375 94.308594 C 226.554688 94.878906 226.226562 95.480469 225.957031 96.117188 C 225.691406 96.753906 225.488281 97.40625 225.347656 98.082031 C 225.210938 98.757812 225.136719 99.441406 225.132812 100.128906 L 225.132812 314.523438 L 204.789062 314.523438 C 204.003906 314.527344 203.21875 314.570312 202.433594 314.648438 C 201.652344 314.726562 200.875 314.847656 200.101562 315 C 199.332031 315.15625 198.566406 315.351562 197.816406 315.578125 C 197.0625 315.808594 196.324219 316.078125 195.597656 316.378906 C 194.871094 316.679688 194.160156 317.019531 193.464844 317.390625 C 192.773438 317.761719 192.097656 318.167969 191.445312 318.605469 C 190.789062 319.042969 190.160156 319.511719 189.550781 320.011719 C 188.941406 320.511719 188.359375 321.039062 187.804688 321.59375 C 187.246094 322.152344 186.71875 322.734375 186.21875 323.34375 C 185.71875 323.949219 185.25 324.582031 184.8125 325.238281 C 184.375 325.890625 183.96875 326.5625 183.597656 327.257812 C 183.226562 327.953125 182.890625 328.660156 182.585938 329.386719 C 182.285156 330.117188 182.019531 330.855469 181.789062 331.609375 C 181.558594 332.359375 181.363281 333.121094 181.210938 333.894531 C 181.054688 334.664062 180.9375 335.441406 180.855469 336.226562 C 180.777344 337.007812 180.734375 337.792969 180.734375 338.582031 L 180.734375 444.851562 L 177.863281 444.851562 C 177.085938 444.863281 176.308594 444.910156 175.535156 444.996094 C 174.757812 445.082031 173.992188 445.207031 173.226562 445.367188 C 172.464844 445.53125 171.714844 445.726562 170.96875 445.960938 C 170.226562 446.195312 169.496094 446.464844 168.78125 446.769531 C 168.0625 447.074219 167.363281 447.414062 166.679688 447.789062 C 165.996094 448.160156 165.332031 448.566406 164.6875 449.003906 C 164.042969 449.441406 163.421875 449.910156 162.820312 450.40625 C 162.222656 450.90625 161.648438 451.429688 161.101562 451.984375 C 160.550781 452.539062 160.03125 453.117188 159.539062 453.722656 C 159.050781 454.328125 158.585938 454.953125 158.15625 455.601562 C 157.726562 456.25 157.328125 456.921875 156.960938 457.609375 C 156.597656 458.296875 156.265625 459 155.96875 459.71875 C 155.667969 460.441406 155.40625 461.171875 155.179688 461.917969 C 154.953125 462.664062 154.765625 463.417969 154.613281 464.183594 C 154.460938 464.945312 154.34375 465.714844 154.265625 466.492188 C 154.1875 467.265625 154.148438 468.042969 154.144531 468.824219 C 154.105469 469.300781 154.105469 469.78125 154.144531 470.257812 L 180.988281 670.21875 C 181.011719 670.984375 181.078125 671.746094 181.175781 672.503906 C 181.273438 673.265625 181.410156 674.015625 181.582031 674.761719 C 181.753906 675.507812 181.960938 676.246094 182.203125 676.972656 C 182.441406 677.695312 182.71875 678.410156 183.027344 679.109375 C 183.335938 679.808594 183.679688 680.492188 184.054688 681.160156 C 184.429688 681.828125 184.835938 682.476562 185.273438 683.105469 C 185.707031 683.730469 186.175781 684.339844 186.667969 684.921875 C 187.164062 685.507812 187.683594 686.066406 188.234375 686.601562 C 188.78125 687.132812 189.351562 687.640625 189.949219 688.121094 C 190.546875 688.601562 191.164062 689.050781 191.800781 689.472656 C 192.441406 689.894531 193.097656 690.28125 193.777344 690.640625 C 194.453125 690.996094 195.144531 691.324219 195.851562 691.613281 C 196.558594 691.90625 197.277344 692.164062 198.011719 692.386719 C 198.742188 692.609375 199.484375 692.796875 200.234375 692.953125 C 200.984375 693.105469 201.738281 693.21875 202.5 693.300781 C 203.261719 693.382812 204.023438 693.425781 204.789062 693.433594 L 490.933594 693.433594 L 490.933594 776.238281 C 490.933594 777.34375 490.988281 778.445312 491.09375 779.546875 C 491.203125 780.648438 491.367188 781.738281 491.582031 782.824219 C 491.796875 783.90625 492.066406 784.980469 492.386719 786.039062 C 492.707031 787.097656 493.078125 788.136719 493.503906 789.15625 C 493.925781 790.179688 494.398438 791.175781 494.917969 792.152344 C 495.441406 793.128906 496.007812 794.074219 496.621094 794.996094 C 497.238281 795.914062 497.894531 796.800781 498.597656 797.65625 C 499.296875 798.511719 500.039062 799.328125 500.820312 800.109375 C 501.601562 800.894531 502.421875 801.632812 503.277344 802.335938 C 504.132812 803.039062 505.019531 803.695312 505.9375 804.308594 C 506.855469 804.925781 507.804688 805.492188 508.78125 806.011719 C 509.753906 806.535156 510.753906 807.007812 511.773438 807.429688 C 512.796875 807.851562 513.835938 808.226562 514.894531 808.546875 C 515.953125 808.867188 517.023438 809.136719 518.109375 809.351562 C 519.191406 809.566406 520.285156 809.730469 521.386719 809.835938 C 522.488281 809.945312 523.589844 810 524.695312 810 L 710.394531 810 C 711.5 810 712.601562 809.945312 713.703125 809.835938 C 714.804688 809.730469 715.894531 809.566406 716.980469 809.351562 C 718.0625 809.136719 719.136719 808.867188 720.195312 808.546875 C 721.253906 808.226562 722.292969 807.851562 723.3125 807.429688 C 724.335938 807.007812 725.332031 806.535156 726.308594 806.011719 C 727.285156 805.492188 728.230469 804.925781 729.152344 804.308594 C 730.070312 803.695312 730.957031 803.039062 731.8125 802.335938 C 732.667969 801.632812 733.484375 800.894531 734.265625 800.109375 C 735.050781 799.328125 735.789062 798.511719 736.492188 797.65625 C 737.195312 796.800781 737.851562 795.914062 738.464844 794.996094 C 739.082031 794.074219 739.648438 793.128906 740.167969 792.152344 C 740.691406 791.175781 741.164062 790.179688 741.585938 789.15625 C 742.007812 788.136719 742.382812 787.097656 742.703125 786.039062 C 743.023438 784.980469 743.292969 783.90625 743.507812 782.824219 C 743.722656 781.738281 743.886719 780.648438 743.992188 779.546875 C 744.101562 778.445312 744.15625 777.34375 744.15625 776.238281 L 744.15625 601.851562 C 744.148438 600.433594 744.050781 599.023438 743.863281 597.617188 C 743.675781 596.210938 743.398438 594.824219 743.035156 593.457031 C 742.667969 592.085938 742.21875 590.746094 741.679688 589.433594 C 741.144531 588.125 740.527344 586.851562 739.828125 585.617188 C 739.128906 584.386719 738.355469 583.203125 737.503906 582.070312 C 736.652344 580.933594 735.734375 579.859375 734.746094 578.84375 C 733.757812 577.828125 732.710938 576.878906 731.601562 575.996094 C 730.492188 575.113281 729.332031 574.308594 728.117188 573.574219 Z M 688.277344 335.628906 C 688.664062 335.636719 689.03125 335.722656 689.382812 335.875 C 689.734375 336.03125 690.042969 336.246094 690.3125 336.523438 C 690.582031 336.796875 690.785156 337.113281 690.929688 337.46875 C 691.074219 337.828125 691.148438 338.195312 691.148438 338.582031 L 691.148438 413.367188 L 668.019531 413.367188 L 668.019531 335.628906 Z M 202.003906 444.851562 L 202.003906 338.582031 C 202.003906 338.203125 202.074219 337.839844 202.210938 337.488281 C 202.351562 337.136719 202.550781 336.824219 202.808594 336.550781 C 203.066406 336.273438 203.367188 336.058594 203.710938 335.898438 C 204.054688 335.738281 204.414062 335.648438 204.789062 335.628906 L 224.964844 335.628906 L 224.964844 444.851562 Z M 494.140625 413.367188 C 493.246094 413.375 492.367188 413.496094 491.5 413.722656 C 490.636719 413.953125 489.816406 414.285156 489.03125 414.71875 C 488.25 415.15625 487.535156 415.679688 486.886719 416.292969 C 486.234375 416.90625 485.671875 417.589844 485.191406 418.347656 L 468.902344 444.851562 L 246.234375 444.851562 L 246.234375 110.765625 L 524.78125 110.765625 L 524.78125 226.742188 C 524.773438 227.433594 524.835938 228.125 524.96875 228.804688 C 525.101562 229.488281 525.296875 230.148438 525.558594 230.792969 C 525.824219 231.433594 526.148438 232.042969 526.53125 232.621094 C 526.917969 233.199219 527.355469 233.734375 527.84375 234.226562 C 528.335938 234.71875 528.871094 235.15625 529.449219 235.539062 C 530.027344 235.925781 530.636719 236.25 531.28125 236.511719 C 531.921875 236.773438 532.585938 236.972656 533.265625 237.101562 C 533.949219 237.234375 534.636719 237.296875 535.332031 237.292969 L 646.917969 237.292969 L 646.917969 413.367188 Z M 722.800781 776.320312 C 722.800781 777.136719 722.722656 777.945312 722.5625 778.746094 C 722.40625 779.550781 722.167969 780.328125 721.859375 781.082031 C 721.546875 781.835938 721.164062 782.554688 720.714844 783.234375 C 720.261719 783.914062 719.746094 784.546875 719.171875 785.125 C 718.597656 785.703125 717.96875 786.222656 717.292969 786.679688 C 716.617188 787.136719 715.902344 787.523438 715.148438 787.839844 C 714.394531 788.15625 713.617188 788.394531 712.816406 788.558594 C 712.019531 788.722656 711.210938 788.808594 710.394531 788.8125 L 524.695312 788.8125 C 523.878906 788.808594 523.070312 788.722656 522.269531 788.558594 C 521.46875 788.394531 520.695312 788.15625 519.941406 787.839844 C 519.1875 787.523438 518.472656 787.136719 517.796875 786.679688 C 517.117188 786.222656 516.492188 785.703125 515.917969 785.125 C 515.339844 784.546875 514.828125 783.914062 514.375 783.234375 C 513.921875 782.554688 513.542969 781.835938 513.230469 781.082031 C 512.917969 780.328125 512.683594 779.550781 512.527344 778.746094 C 512.367188 777.945312 512.289062 777.136719 512.289062 776.320312 L 512.289062 601.851562 C 512.304688 601.050781 512.398438 600.257812 512.566406 599.476562 C 512.734375 598.691406 512.980469 597.933594 513.296875 597.199219 C 513.613281 596.464844 513.996094 595.765625 514.449219 595.105469 C 514.898438 594.441406 515.410156 593.832031 515.980469 593.269531 C 516.550781 592.707031 517.167969 592.203125 517.835938 591.761719 C 518.503906 591.320312 519.207031 590.945312 519.945312 590.636719 C 520.6875 590.332031 521.449219 590.101562 522.234375 589.941406 C 523.019531 589.78125 523.8125 589.699219 524.609375 589.695312 L 545.039062 589.695312 L 545.039062 535.925781 C 545.039062 534.742188 545.066406 533.558594 545.125 532.375 C 545.183594 531.191406 545.269531 530.007812 545.386719 528.828125 C 545.503906 527.648438 545.648438 526.472656 545.820312 525.300781 C 545.996094 524.128906 546.199219 522.960938 546.429688 521.796875 C 546.660156 520.636719 546.921875 519.480469 547.207031 518.332031 C 547.496094 517.179688 547.8125 516.039062 548.15625 514.902344 C 548.5 513.769531 548.871094 512.644531 549.269531 511.527344 C 549.671875 510.414062 550.097656 509.308594 550.550781 508.210938 C 551.003906 507.117188 551.484375 506.035156 551.992188 504.960938 C 552.496094 503.890625 553.03125 502.832031 553.589844 501.789062 C 554.148438 500.742188 554.730469 499.710938 555.339844 498.695312 C 555.949219 497.679688 556.585938 496.675781 557.242188 495.691406 C 557.902344 494.707031 558.582031 493.738281 559.289062 492.785156 C 559.996094 491.832031 560.726562 490.898438 561.476562 489.984375 C 562.230469 489.066406 563.003906 488.167969 563.796875 487.292969 C 564.59375 486.414062 565.410156 485.554688 566.25 484.71875 C 567.089844 483.878906 567.945312 483.0625 568.824219 482.265625 C 569.703125 481.46875 570.601562 480.695312 571.515625 479.945312 C 572.433594 479.191406 573.367188 478.464844 574.316406 477.757812 C 575.269531 477.050781 576.238281 476.367188 577.222656 475.710938 C 578.210938 475.050781 579.210938 474.417969 580.226562 473.808594 C 581.246094 473.199219 582.273438 472.617188 583.320312 472.058594 C 584.367188 471.5 585.425781 470.964844 586.496094 470.457031 C 587.566406 469.953125 588.648438 469.472656 589.746094 469.019531 C 590.839844 468.566406 591.945312 468.136719 593.0625 467.738281 C 594.175781 467.339844 595.300781 466.96875 596.4375 466.625 C 597.570312 466.28125 598.714844 465.964844 599.863281 465.675781 C 601.011719 465.386719 602.167969 465.128906 603.332031 464.898438 C 604.492188 464.664062 605.660156 464.464844 606.832031 464.289062 C 608.003906 464.113281 609.183594 463.96875 610.363281 463.855469 C 611.539062 463.738281 612.722656 463.652344 613.90625 463.59375 C 615.089844 463.535156 616.273438 463.503906 617.460938 463.503906 C 618.644531 463.503906 619.828125 463.535156 621.011719 463.59375 C 622.199219 463.652344 623.378906 463.738281 624.558594 463.855469 C 625.738281 463.96875 626.914062 464.113281 628.085938 464.289062 C 629.257812 464.464844 630.425781 464.664062 631.589844 464.898438 C 632.75 465.128906 633.90625 465.386719 635.058594 465.675781 C 636.207031 465.964844 637.347656 466.28125 638.484375 466.625 C 639.617188 466.96875 640.742188 467.339844 641.859375 467.738281 C 642.972656 468.136719 644.078125 468.5625 645.175781 469.019531 C 646.269531 469.472656 647.351562 469.953125 648.425781 470.457031 C 649.496094 470.964844 650.554688 471.496094 651.597656 472.058594 C 652.644531 472.617188 653.675781 473.199219 654.691406 473.808594 C 655.707031 474.417969 656.710938 475.050781 657.695312 475.710938 C 658.679688 476.367188 659.648438 477.050781 660.601562 477.757812 C 661.554688 478.464844 662.488281 479.191406 663.402344 479.945312 C 664.320312 480.695312 665.21875 481.46875 666.09375 482.265625 C 666.972656 483.0625 667.832031 483.878906 668.671875 484.71875 C 669.507812 485.554688 670.324219 486.414062 671.121094 487.292969 C 671.917969 488.167969 672.691406 489.066406 673.441406 489.984375 C 674.195312 490.898438 674.925781 491.832031 675.628906 492.785156 C 676.335938 493.738281 677.019531 494.707031 677.675781 495.691406 C 678.335938 496.675781 678.96875 497.679688 679.578125 498.695312 C 680.1875 499.710938 680.773438 500.742188 681.332031 501.789062 C 681.890625 502.832031 682.421875 503.890625 682.929688 504.960938 C 683.433594 506.035156 683.914062 507.117188 684.367188 508.210938 C 684.824219 509.308594 685.25 510.414062 685.648438 511.527344 C 686.046875 512.644531 686.417969 513.769531 686.761719 514.902344 C 687.109375 516.039062 687.421875 517.179688 687.710938 518.332031 C 688 519.480469 688.257812 520.636719 688.492188 521.796875 C 688.722656 522.960938 688.925781 524.128906 689.097656 525.300781 C 689.273438 526.472656 689.417969 527.648438 689.535156 528.828125 C 689.648438 530.007812 689.738281 531.191406 689.792969 532.375 C 689.851562 533.558594 689.882812 534.742188 689.882812 535.925781 L 689.882812 589.695312 L 710.394531 589.695312 C 711.210938 589.695312 712.023438 589.773438 712.824219 589.933594 C 713.625 590.097656 714.40625 590.332031 715.160156 590.648438 C 715.917969 590.960938 716.632812 591.347656 717.3125 591.804688 C 717.992188 592.261719 718.621094 592.777344 719.195312 593.359375 C 719.773438 593.941406 720.289062 594.570312 720.738281 595.253906 C 721.191406 595.9375 721.570312 596.65625 721.882812 597.414062 C 722.191406 598.171875 722.421875 598.953125 722.578125 599.753906 C 722.730469 600.558594 722.804688 601.371094 722.800781 602.1875 Z M 722.800781 776.320312 " fill-opacity="1" fill-rule="nonzero"/></g><path fill="#ffffff" d="M 617.460938 484.605469 C 615.78125 484.609375 614.105469 484.695312 612.433594 484.863281 C 610.761719 485.027344 609.101562 485.277344 607.453125 485.605469 C 605.804688 485.9375 604.179688 486.347656 602.570312 486.835938 C 600.964844 487.324219 599.386719 487.890625 597.832031 488.535156 C 596.28125 489.179688 594.765625 489.898438 593.285156 490.691406 C 591.804688 491.484375 590.363281 492.347656 588.96875 493.28125 C 587.570312 494.214844 586.222656 495.214844 584.925781 496.28125 C 583.628906 497.347656 582.382812 498.476562 581.195312 499.664062 C 580.007812 500.851562 578.878906 502.09375 577.816406 503.394531 C 576.75 504.691406 575.75 506.039062 574.816406 507.433594 C 573.878906 508.832031 573.015625 510.269531 572.222656 511.75 C 571.429688 513.234375 570.714844 514.75 570.070312 516.300781 C 569.425781 517.851562 568.859375 519.433594 568.367188 521.039062 C 567.878906 522.644531 567.46875 524.273438 567.140625 525.921875 C 566.808594 527.566406 566.5625 529.226562 566.394531 530.898438 C 566.226562 532.570312 566.144531 534.246094 566.140625 535.925781 L 566.140625 589.695312 L 669.035156 589.695312 L 669.035156 535.925781 C 669.035156 534.242188 668.949219 532.558594 668.785156 530.882812 C 668.617188 529.203125 668.371094 527.539062 668.042969 525.882812 C 667.710938 524.230469 667.300781 522.597656 666.808594 520.984375 C 666.320312 519.371094 665.75 517.785156 665.101562 516.230469 C 664.457031 514.671875 663.734375 513.152344 662.9375 511.664062 C 662.140625 510.179688 661.269531 508.738281 660.332031 507.335938 C 659.390625 505.9375 658.386719 504.585938 657.3125 503.285156 C 656.242188 501.984375 655.109375 500.738281 653.914062 499.546875 C 652.71875 498.359375 651.464844 497.230469 650.160156 496.164062 C 648.855469 495.097656 647.5 494.101562 646.09375 493.167969 C 644.6875 492.234375 643.242188 491.375 641.75 490.585938 C 640.261719 489.792969 638.738281 489.082031 637.175781 488.441406 C 635.617188 487.800781 634.027344 487.238281 632.414062 486.757812 C 630.796875 486.273438 629.164062 485.871094 627.507812 485.550781 C 625.851562 485.226562 624.1875 484.988281 622.507812 484.832031 C 620.828125 484.671875 619.144531 484.597656 617.460938 484.605469 Z M 617.460938 484.605469 " fill-opacity="1" fill-rule="nonzero"/><path fill="#ffffff" d="M 617.460938 619.746094 C 615.996094 619.746094 614.535156 619.8125 613.078125 619.949219 C 611.621094 620.082031 610.171875 620.285156 608.734375 620.550781 C 607.292969 620.816406 605.871094 621.148438 604.460938 621.546875 C 603.050781 621.945312 601.664062 622.402344 600.296875 622.925781 C 598.929688 623.449219 597.589844 624.035156 596.277344 624.679688 C 594.964844 625.328125 593.683594 626.03125 592.433594 626.792969 C 591.183594 627.558594 589.972656 628.375 588.796875 629.25 C 587.621094 630.121094 586.488281 631.046875 585.398438 632.023438 C 584.308594 633 583.265625 634.023438 582.269531 635.097656 C 581.273438 636.167969 580.328125 637.285156 579.433594 638.441406 C 578.539062 639.601562 577.699219 640.796875 576.910156 642.03125 C 576.125 643.265625 575.398438 644.535156 574.730469 645.835938 C 574.058594 647.136719 573.449219 648.46875 572.902344 649.824219 C 572.351562 651.179688 571.867188 652.5625 571.445312 653.960938 C 571.019531 655.363281 570.664062 656.78125 570.371094 658.214844 C 570.078125 659.648438 569.847656 661.09375 569.6875 662.546875 C 569.527344 664.003906 569.429688 665.460938 569.402344 666.925781 C 569.375 668.390625 569.414062 669.851562 569.519531 671.3125 C 569.625 672.769531 569.792969 674.222656 570.03125 675.667969 C 570.269531 677.113281 570.574219 678.542969 570.941406 679.957031 C 571.308594 681.375 571.742188 682.773438 572.238281 684.148438 C 572.730469 685.527344 573.289062 686.878906 573.910156 688.203125 C 574.527344 689.53125 575.207031 690.828125 575.941406 692.089844 C 576.679688 693.355469 577.472656 694.582031 578.324219 695.777344 C 579.171875 696.96875 580.074219 698.117188 581.027344 699.226562 C 581.984375 700.339844 582.984375 701.402344 584.039062 702.421875 C 585.089844 703.4375 586.183594 704.40625 587.324219 705.324219 C 588.464844 706.242188 589.644531 707.109375 590.863281 707.917969 C 592.082031 708.730469 593.335938 709.480469 594.621094 710.179688 C 595.910156 710.875 597.226562 711.511719 598.570312 712.085938 C 599.917969 712.664062 601.285156 713.175781 602.679688 713.628906 C 604.070312 714.078125 605.480469 714.464844 606.910156 714.789062 L 606.910156 746.355469 C 606.910156 747.050781 606.976562 747.734375 607.113281 748.414062 C 607.246094 749.09375 607.445312 749.753906 607.710938 750.394531 C 607.976562 751.035156 608.300781 751.640625 608.6875 752.21875 C 609.070312 752.792969 609.507812 753.328125 610 753.816406 C 610.488281 754.308594 611.023438 754.742188 611.597656 755.128906 C 612.175781 755.515625 612.78125 755.839844 613.421875 756.105469 C 614.0625 756.371094 614.722656 756.570312 615.402344 756.703125 C 616.082031 756.839844 616.765625 756.90625 617.460938 756.90625 C 618.152344 756.90625 618.839844 756.839844 619.519531 756.703125 C 620.199219 756.570312 620.859375 756.371094 621.496094 756.105469 C 622.136719 755.839844 622.746094 755.515625 623.320312 755.128906 C 623.898438 754.742188 624.429688 754.308594 624.921875 753.816406 C 625.410156 753.328125 625.847656 752.792969 626.234375 752.21875 C 626.617188 751.640625 626.941406 751.035156 627.207031 750.394531 C 627.472656 749.753906 627.671875 749.09375 627.808594 748.414062 C 627.941406 747.734375 628.011719 747.050781 628.011719 746.355469 L 628.011719 714.871094 C 629.449219 714.558594 630.871094 714.183594 632.273438 713.738281 C 633.675781 713.296875 635.058594 712.789062 636.414062 712.222656 C 637.773438 711.652344 639.101562 711.019531 640.398438 710.328125 C 641.699219 709.636719 642.964844 708.890625 644.195312 708.082031 C 645.425781 707.273438 646.617188 706.410156 647.769531 705.496094 C 648.917969 704.578125 650.027344 703.609375 651.089844 702.59375 C 652.152344 701.574219 653.164062 700.507812 654.128906 699.398438 C 655.097656 698.285156 656.007812 697.132812 656.867188 695.9375 C 657.726562 694.742188 658.527344 693.511719 659.273438 692.242188 C 660.019531 690.972656 660.707031 689.671875 661.332031 688.339844 C 661.960938 687.007812 662.523438 685.652344 663.027344 684.265625 C 663.527344 682.882812 663.964844 681.480469 664.339844 680.054688 C 664.710938 678.632812 665.019531 677.195312 665.261719 675.742188 C 665.503906 674.289062 665.675781 672.832031 665.785156 671.363281 C 665.890625 669.894531 665.929688 668.425781 665.902344 666.953125 C 665.875 665.480469 665.78125 664.015625 665.617188 662.550781 C 665.457031 661.089844 665.226562 659.636719 664.933594 658.195312 C 664.636719 656.753906 664.277344 655.328125 663.847656 653.917969 C 663.421875 652.511719 662.933594 651.125 662.378906 649.761719 C 661.824219 648.394531 661.210938 647.058594 660.535156 645.753906 C 659.859375 644.445312 659.125 643.171875 658.332031 641.933594 C 657.539062 640.691406 656.691406 639.492188 655.785156 638.328125 C 654.882812 637.167969 653.929688 636.046875 652.921875 634.972656 C 651.917969 633.898438 650.863281 632.875 649.765625 631.894531 C 648.664062 630.917969 647.519531 629.992188 646.335938 629.121094 C 645.152344 628.246094 643.929688 627.429688 642.667969 626.667969 C 641.410156 625.90625 640.117188 625.207031 638.792969 624.5625 C 637.46875 623.921875 636.117188 623.34375 634.738281 622.824219 C 633.363281 622.304688 631.960938 621.851562 630.542969 621.460938 C 629.125 621.070312 627.691406 620.746094 626.242188 620.488281 C 624.792969 620.230469 623.335938 620.039062 621.867188 619.914062 C 620.402344 619.789062 618.933594 619.734375 617.460938 619.746094 Z M 617.460938 694.953125 C 616.574219 694.953125 615.6875 694.910156 614.804688 694.820312 C 613.921875 694.734375 613.042969 694.605469 612.175781 694.429688 C 611.304688 694.257812 610.445312 694.042969 609.59375 693.785156 C 608.746094 693.527344 607.910156 693.230469 607.089844 692.890625 C 606.269531 692.550781 605.46875 692.171875 604.6875 691.753906 C 603.90625 691.335938 603.144531 690.878906 602.40625 690.386719 C 601.667969 689.894531 600.957031 689.363281 600.269531 688.800781 C 599.585938 688.238281 598.929688 687.644531 598.300781 687.015625 C 597.671875 686.386719 597.078125 685.730469 596.515625 685.046875 C 595.953125 684.359375 595.425781 683.648438 594.929688 682.910156 C 594.4375 682.171875 593.984375 681.410156 593.5625 680.628906 C 593.144531 679.847656 592.765625 679.046875 592.425781 678.226562 C 592.085938 677.40625 591.789062 676.570312 591.53125 675.722656 C 591.273438 674.871094 591.058594 674.011719 590.886719 673.144531 C 590.710938 672.273438 590.582031 671.394531 590.496094 670.511719 C 590.410156 669.628906 590.363281 668.746094 590.363281 667.855469 C 590.363281 666.96875 590.410156 666.085938 590.496094 665.203125 C 590.582031 664.316406 590.710938 663.441406 590.886719 662.570312 C 591.058594 661.699219 591.273438 660.839844 591.53125 659.992188 C 591.789062 659.140625 592.085938 658.308594 592.425781 657.488281 C 592.765625 656.667969 593.144531 655.867188 593.5625 655.085938 C 593.984375 654.300781 594.4375 653.542969 594.929688 652.804688 C 595.425781 652.066406 595.953125 651.355469 596.515625 650.667969 C 597.078125 649.980469 597.671875 649.324219 598.300781 648.699219 C 598.929688 648.070312 599.585938 647.476562 600.269531 646.914062 C 600.957031 646.347656 601.667969 645.820312 602.40625 645.328125 C 603.144531 644.835938 603.90625 644.378906 604.6875 643.960938 C 605.46875 643.542969 606.269531 643.164062 607.089844 642.824219 C 607.910156 642.484375 608.746094 642.1875 609.59375 641.929688 C 610.445312 641.671875 611.304688 641.457031 612.175781 641.28125 C 613.042969 641.109375 613.921875 640.980469 614.804688 640.890625 C 615.6875 640.804688 616.574219 640.761719 617.460938 640.761719 C 618.347656 640.761719 619.234375 640.804688 620.117188 640.890625 C 621 640.980469 621.875 641.109375 622.746094 641.28125 C 623.617188 641.457031 624.476562 641.671875 625.324219 641.929688 C 626.175781 642.1875 627.007812 642.484375 627.828125 642.824219 C 628.648438 643.164062 629.449219 643.542969 630.234375 643.960938 C 631.015625 644.378906 631.773438 644.835938 632.511719 645.328125 C 633.25 645.820312 633.960938 646.347656 634.648438 646.914062 C 635.335938 647.476562 635.992188 648.070312 636.617188 648.699219 C 637.246094 649.324219 637.839844 649.980469 638.40625 650.667969 C 638.96875 651.355469 639.496094 652.066406 639.988281 652.804688 C 640.480469 653.542969 640.9375 654.300781 641.355469 655.085938 C 641.773438 655.867188 642.152344 656.667969 642.492188 657.488281 C 642.832031 658.308594 643.128906 659.140625 643.386719 659.992188 C 643.644531 660.839844 643.859375 661.699219 644.035156 662.570312 C 644.207031 663.441406 644.335938 664.316406 644.425781 665.203125 C 644.511719 666.085938 644.554688 666.96875 644.554688 667.855469 C 644.554688 668.746094 644.511719 669.628906 644.425781 670.511719 C 644.335938 671.394531 644.207031 672.273438 644.035156 673.144531 C 643.859375 674.011719 643.644531 674.871094 643.386719 675.722656 C 643.128906 676.570312 642.832031 677.40625 642.492188 678.226562 C 642.152344 679.046875 641.773438 679.847656 641.355469 680.628906 C 640.9375 681.410156 640.480469 682.171875 639.988281 682.910156 C 639.496094 683.648438 638.96875 684.359375 638.40625 685.046875 C 637.839844 685.730469 637.246094 686.386719 636.617188 687.015625 C 635.992188 687.644531 635.335938 688.238281 634.648438 688.800781 C 633.960938 689.363281 633.25 689.894531 632.511719 690.386719 C 631.773438 690.878906 631.015625 691.335938 630.230469 691.753906 C 629.449219 692.171875 628.648438 692.550781 627.828125 692.890625 C 627.007812 693.230469 626.175781 693.527344 625.324219 693.785156 C 624.476562 694.042969 623.617188 694.257812 622.746094 694.429688 C 621.875 694.605469 621 694.734375 620.117188 694.820312 C 619.234375 694.910156 618.347656 694.953125 617.460938 694.953125 Z M 617.460938 694.953125 " fill-opacity="1" fill-rule="nonzero"/></svg>