<svg xmlns="http://www.w3.org/2000/svg" xmlns:xlink="http://www.w3.org/1999/xlink" width="1200" zoomAndPan="magnify" viewBox="0 0 900 899.99999" height="1200" preserveAspectRatio="xMidYMid meet" version="1.0"><path fill="#ffffff" d="M 488.585938 288.425781 C 505.6875 292.492188 522 299.25 536.988281 308.484375 L 568.449219 294.496094 L 605.503906 331.550781 L 591.566406 363.011719 C 600.804688 378 607.5625 394.3125 611.625 411.46875 L 643.71875 423.820312 L 643.71875 476.234375 L 611.625 488.585938 C 607.5625 505.6875 600.75 522 591.566406 536.988281 L 605.503906 568.449219 L 568.449219 605.503906 L 536.988281 591.566406 C 522.050781 600.804688 505.6875 607.5625 488.585938 611.625 L 476.234375 643.71875 L 423.820312 643.71875 L 411.46875 611.625 C 394.3125 607.5625 378 600.75 363.011719 591.566406 L 331.550781 605.503906 L 294.496094 568.449219 L 308.484375 536.988281 C 299.25 522.050781 292.492188 505.6875 288.375 488.585938 L 256.28125 476.234375 L 256.28125 423.820312 L 288.375 411.46875 C 292.492188 394.3125 299.25 378 308.484375 363.011719 L 294.496094 331.550781 L 331.550781 294.496094 L 363.011719 308.484375 C 378 299.25 394.3125 292.492188 411.414062 288.425781 L 423.820312 256.28125 L 476.234375 256.28125 Z M 524.820312 528.246094 C 545.425781 508.535156 558.257812 480.769531 558.257812 450 C 558.257812 390.207031 509.792969 341.742188 450 341.742188 C 390.207031 341.742188 341.742188 390.207031 341.742188 450 C 341.742188 480.769531 354.574219 508.535156 375.179688 528.246094 C 380.378906 491.566406 411.90625 463.351562 450 463.351562 C 488.09375 463.351562 519.621094 491.566406 524.820312 528.246094 Z M 450 460.449219 C 428.964844 460.449219 411.769531 443.253906 411.769531 422.21875 C 411.769531 401.183594 428.964844 383.988281 450 383.988281 C 471.035156 383.988281 488.230469 401.183594 488.230469 422.21875 C 488.230469 443.253906 471.035156 460.449219 450 460.449219 Z M 617.675781 266.46875 C 602.550781 247.855469 593.488281 224.113281 593.488281 198.257812 C 593.488281 138.460938 641.949219 90 701.742188 90 C 761.539062 90 810 138.460938 810 198.257812 C 810 224.113281 800.9375 247.855469 785.8125 266.46875 C 778.164062 240.285156 758.621094 219.171875 733.433594 209.378906 C 744.734375 200.152344 751.976562 186.121094 751.976562 170.476562 C 751.976562 142.839844 729.378906 120.246094 701.742188 120.246094 C 674.109375 120.246094 651.511719 142.839844 651.511719 170.476562 C 651.511719 186.121094 658.753906 200.152344 670.054688 209.378906 C 644.867188 219.171875 625.324219 240.285156 617.675781 266.46875 Z M 765.261719 285.929688 C 747.421875 298.878906 725.476562 306.511719 701.742188 306.511719 C 678.011719 306.511719 656.066406 298.878906 638.222656 285.929688 C 638.367188 285.375 638.472656 284.800781 638.535156 284.210938 C 641.949219 252.308594 668.953125 227.464844 701.742188 227.464844 C 734.53125 227.464844 761.539062 252.308594 764.953125 284.210938 C 765.015625 284.800781 765.121094 285.375 765.261719 285.929688 Z M 701.742188 196.707031 C 687.3125 196.707031 675.511719 184.90625 675.511719 170.476562 C 675.511719 156.042969 687.3125 144.246094 701.742188 144.246094 C 716.175781 144.246094 727.976562 156.042969 727.976562 170.476562 C 727.976562 184.90625 716.175781 196.707031 701.742188 196.707031 Z M 113.988281 769.714844 C 98.984375 751.136719 90 727.488281 90 701.742188 C 90 641.949219 138.460938 593.488281 198.257812 593.488281 C 258.050781 593.488281 306.511719 641.949219 306.511719 701.742188 C 306.511719 727.488281 297.527344 751.136719 282.523438 769.714844 C 275.089844 743.476562 255.742188 722.242188 230.703125 712.238281 C 241.566406 703.007812 248.488281 689.257812 248.488281 673.964844 C 248.488281 646.328125 225.890625 623.730469 198.257812 623.730469 C 170.621094 623.730469 148.023438 646.328125 148.023438 673.964844 C 148.023438 689.257812 154.945312 703.007812 165.808594 712.238281 C 140.769531 722.242188 121.421875 743.476562 113.988281 769.714844 Z M 262 789.257812 C 244.117188 802.300781 222.085938 810 198.257812 810 C 174.425781 810 152.390625 802.300781 134.511719 789.257812 C 134.773438 788.464844 134.957031 787.628906 135.046875 786.769531 C 138.460938 754.867188 165.46875 730.023438 198.257812 730.023438 C 231.046875 730.023438 258.050781 754.867188 261.464844 786.769531 C 261.554688 787.628906 261.738281 788.464844 262 789.257812 Z M 198.257812 700.195312 C 183.824219 700.195312 172.023438 688.394531 172.023438 673.964844 C 172.023438 659.53125 183.824219 647.730469 198.257812 647.730469 C 212.6875 647.730469 224.488281 659.53125 224.488281 673.964844 C 224.488281 688.394531 212.6875 700.195312 198.257812 700.195312 Z M 494.035156 120.09375 L 489.992188 113.886719 C 486.378906 108.335938 487.949219 100.894531 493.5 97.28125 C 499.050781 93.667969 506.488281 95.238281 510.105469 100.789062 L 529.214844 130.136719 C 532.425781 135.066406 531.589844 141.597656 527.242188 145.558594 L 501.347656 169.140625 C 496.453125 173.601562 488.855469 173.246094 484.394531 168.351562 C 479.9375 163.453125 480.289062 155.859375 485.1875 151.398438 L 493.105469 144.1875 C 479.015625 142.21875 464.625 141.199219 450 141.199219 C 279.570312 141.199219 141.199219 279.570312 141.199219 450 C 141.199219 472.855469 143.6875 495.136719 148.40625 516.582031 C 149.828125 523.050781 145.734375 529.457031 139.265625 530.878906 C 132.796875 532.304688 126.390625 528.207031 124.964844 521.738281 C 119.882812 498.632812 117.199219 474.628906 117.199219 450 C 117.199219 266.320312 266.320312 117.199219 450 117.199219 C 464.925781 117.199219 479.625 118.183594 494.035156 120.09375 Z M 406.894531 755.8125 C 420.984375 757.78125 435.375 758.800781 450 758.800781 C 620.429688 758.800781 758.800781 620.429688 758.800781 450 C 758.800781 427.144531 756.3125 404.863281 751.59375 383.417969 C 750.171875 376.949219 754.265625 370.542969 760.734375 369.121094 C 767.203125 367.695312 773.609375 371.792969 775.035156 378.261719 C 780.117188 401.367188 782.800781 425.371094 782.800781 450 C 782.800781 633.679688 633.679688 782.800781 450 782.800781 C 435.074219 782.800781 420.375 781.816406 405.964844 779.90625 L 410.007812 786.113281 C 413.621094 791.664062 412.050781 799.105469 406.5 802.71875 C 400.949219 806.332031 393.511719 804.761719 389.894531 799.210938 L 370.785156 769.863281 C 367.574219 764.933594 368.410156 758.402344 372.757812 754.441406 L 398.652344 730.859375 C 403.546875 726.398438 411.144531 726.753906 415.601562 731.648438 C 420.0625 736.546875 419.707031 744.140625 414.8125 748.601562 Z M 406.894531 755.8125 " fill-opacity="1" fill-rule="evenodd"/></svg>