<svg xmlns="http://www.w3.org/2000/svg" xmlns:xlink="http://www.w3.org/1999/xlink" width="1200" zoomAndPan="magnify" viewBox="0 0 900 899.99999" height="1200" preserveAspectRatio="xMidYMid meet" version="1.0"><defs><clipPath id="55a6822a7d"><path d="M 90 130.949219 L 809 130.949219 L 809 766 L 90 766 Z M 90 130.949219 " clip-rule="nonzero"/></clipPath></defs><g clip-path="url(#55a6822a7d)"><path fill="#ffffff" d="M 124.023438 130.996094 C 105.167969 130.996094 90 146.160156 90 165.019531 L 90 556.660156 C 90 591.453125 118 619.417969 152.792969 619.417969 L 479.484375 619.417969 C 486.507812 613.167969 494.050781 607.597656 502.03125 602.261719 C 502.667969 601.851562 503.175781 600.953125 503.207031 600.054688 L 503.207031 599.925781 C 503.175781 599.910156 503.027344 600.074219 503.042969 598.113281 C 503.042969 597.199219 502.585938 596.398438 501.902344 595.910156 C 494.816406 591.078125 488.15625 586.015625 481.871094 580.546875 L 152.792969 580.546875 C 138.867188 580.546875 128.875 570.585938 128.875 556.660156 L 128.875 230.261719 L 666.375 230.261719 L 666.375 434.015625 C 666.765625 433.625 667.078125 433.167969 667.484375 432.773438 C 667.828125 432.21875 668.21875 431.714844 668.628906 431.207031 L 668.792969 431.078125 C 668.890625 430.996094 668.957031 430.898438 669.054688 430.816406 C 669.085938 430.734375 669.152344 430.652344 669.183594 430.554688 L 669.347656 430.421875 C 669.476562 430.292969 669.609375 430.160156 669.722656 430.046875 C 669.722656 430.046875 669.851562 430.046875 669.851562 430.046875 C 669.871094 430.046875 669.949219 429.949219 669.984375 429.917969 C 670.34375 429.640625 671.796875 428.496094 671.796875 428.480469 C 671.796875 428.480469 672.9375 427.8125 672.9375 427.8125 C 681.902344 421.199219 693.691406 419.222656 704.316406 423.320312 C 704.367188 423.335938 704.417969 423.304688 704.449219 423.320312 C 704.628906 423.386719 704.792969 423.484375 705.085938 423.613281 C 705.117188 423.632812 705.183594 423.632812 705.214844 423.648438 L 705.214844 165.019531 C 705.214844 146.160156 690.066406 130.996094 671.222656 130.996094 Z M 145.101562 163.695312 L 389.101562 163.695312 C 393.96875 163.714844 398.652344 167.042969 400.269531 171.632812 L 404.253906 182.800781 L 404.253906 182.832031 C 405.492188 186.390625 404.90625 190.539062 402.71875 193.605469 C 400.546875 196.691406 396.808594 198.636719 393.019531 198.652344 L 148.988281 198.652344 C 144.121094 198.636719 139.46875 195.289062 137.871094 190.683594 L 133.886719 179.515625 C 132.644531 175.957031 133.234375 171.8125 135.421875 168.742188 C 137.59375 165.65625 141.332031 163.714844 145.101562 163.695312 Z M 531.582031 163.695312 L 549.917969 163.695312 C 554.800781 163.714844 559.4375 167.042969 561.054688 171.632812 L 565.035156 182.800781 L 565.035156 182.832031 C 566.277344 186.390625 565.671875 190.539062 563.503906 193.605469 C 561.332031 196.691406 557.59375 198.636719 553.804688 198.652344 L 527.683594 198.652344 C 523.910156 198.652344 520.121094 196.691406 517.949219 193.605469 C 515.78125 190.539062 515.207031 186.390625 516.449219 182.832031 L 516.449219 182.800781 L 520.433594 171.632812 C 522.066406 167.058594 526.71875 163.730469 531.582031 163.695312 Z M 615.519531 163.695312 L 649.214844 163.695312 C 654.097656 163.714844 658.765625 167.042969 660.382812 171.632812 L 664.300781 182.800781 L 664.300781 182.832031 C 665.542969 186.390625 664.972656 190.539062 662.800781 193.605469 C 660.628906 196.691406 656.921875 198.636719 653.132812 198.652344 L 611.566406 198.652344 C 607.796875 198.652344 604.074219 196.691406 601.902344 193.605469 C 599.730469 190.539062 599.160156 186.390625 600.398438 182.832031 L 600.398438 182.800781 L 604.316406 171.632812 C 605.933594 167.042969 610.636719 163.714844 615.519531 163.695312 Z M 384.140625 264.824219 C 379.09375 264.824219 374.210938 268.105469 372.300781 272.757812 L 321.117188 398.488281 C 319.550781 402.339844 320.007812 406.996094 322.328125 410.441406 C 324.644531 413.882812 328.757812 416.089844 332.90625 416.089844 L 375.257812 416.089844 C 377.789062 416.089844 379.84375 418.144531 379.84375 420.675781 C 379.84375 421.019531 379.8125 421.363281 379.730469 421.703125 L 351.601562 543.109375 C 350.246094 548.96875 353.671875 555.582031 359.257812 557.835938 C 364.839844 560.089844 371.910156 557.738281 375.011719 552.578125 L 486.882812 366 C 489.199219 362.144531 489.265625 357.050781 487.046875 353.148438 C 484.824219 349.246094 480.449219 346.683594 475.941406 346.683594 L 444.824219 346.683594 C 442.292969 346.683594 440.238281 344.628906 440.238281 342.097656 C 440.238281 341.410156 440.398438 340.710938 440.710938 340.089844 L 468.875 283.273438 C 470.785156 279.402344 470.554688 274.539062 468.269531 270.863281 C 465.984375 267.191406 461.753906 264.839844 457.429688 264.839844 L 384.140625 264.839844 Z M 594.457031 433.507812 C 591.632812 433.328125 588.777344 433.753906 586.03125 434.78125 C 585.871094 434.847656 585.738281 434.914062 585.59375 434.976562 C 583.484375 435.695312 581.851562 436.203125 580.105469 436.886719 L 576.121094 438.488281 L 572.808594 439.859375 L 572.546875 439.957031 C 570.785156 440.710938 569.003906 441.558594 567.191406 442.40625 C 567.0625 442.472656 566.929688 442.503906 566.816406 442.570312 C 559.648438 445.722656 554.980469 452.726562 554.734375 460.5625 C 554.703125 460.9375 554.667969 461.328125 554.605469 461.703125 C 554.195312 472.089844 556.007812 483.238281 558.308594 495.355469 C 559.289062 500.429688 557.671875 505.640625 553.96875 509.265625 C 553.445312 509.769531 552.9375 510.226562 552.628906 510.539062 C 548.988281 514.179688 543.796875 515.730469 538.75 514.75 C 526.652344 512.351562 515.503906 510.441406 505.054688 510.796875 C 505.019531 510.796875 504.988281 510.832031 504.957031 510.832031 C 504.921875 510.832031 504.890625 510.863281 504.855469 510.863281 L 504.824219 510.832031 C 504.53125 510.863281 504.21875 510.929688 503.925781 510.960938 C 496.15625 511.140625 489.085938 515.777344 485.886719 522.914062 C 485.820312 523.078125 485.738281 523.222656 485.65625 523.355469 C 484.808594 525.066406 484.039062 526.667969 483.273438 528.429688 L 483.242188 528.464844 C 483.207031 528.546875 483.175781 528.609375 483.144531 528.691406 C 482.652344 529.835938 482.179688 530.960938 481.707031 532.136719 C 481.671875 532.234375 481.609375 532.332031 481.574219 532.429688 C 481.070312 533.574219 480.613281 534.699219 480.140625 535.875 C 480.121094 535.925781 480.105469 535.957031 480.074219 536.007812 L 480.039062 536.070312 C 480.023438 536.121094 480.039062 536.152344 480.007812 536.203125 L 480.007812 536.234375 C 479.304688 538.015625 478.667969 539.761719 478.03125 541.589844 C 477.984375 541.753906 477.96875 541.917969 477.902344 542.0625 C 475.0625 549.363281 476.695312 557.671875 482.015625 563.335938 C 482.066406 563.402344 482.097656 563.433594 482.148438 563.5 C 482.148438 563.5 482.179688 563.46875 482.277344 563.597656 C 482.277344 563.597656 482.292969 563.664062 482.308594 563.664062 C 482.390625 563.761719 482.472656 563.792969 482.6875 564.039062 C 482.734375 564.105469 482.785156 564.136719 482.816406 564.203125 C 489.902344 571.875 498.980469 578.503906 509.152344 585.445312 C 513.394531 588.351562 515.925781 593.199219 515.878906 598.324219 C 515.878906 598.570312 515.941406 599.125 515.941406 599.992188 C 515.941406 605.148438 513.394531 609.964844 509.085938 612.839844 C 498.832031 619.695312 489.542969 626.292969 482.390625 633.917969 C 482.164062 634.210938 481.949219 634.457031 481.691406 634.71875 C 476.351562 640.332031 474.636719 648.59375 477.378906 655.859375 C 477.445312 656.023438 477.511719 656.152344 477.574219 656.300781 C 478.277344 658.339844 478.785156 659.972656 479.453125 661.6875 C 479.453125 661.753906 479.453125 661.785156 479.453125 661.851562 L 479.519531 661.949219 C 479.535156 661.984375 479.535156 662.015625 479.550781 662.046875 C 479.992188 663.191406 480.480469 664.285156 480.957031 665.425781 C 480.972656 665.476562 480.972656 665.507812 480.988281 665.558594 L 481.019531 665.625 L 481.054688 665.722656 C 481.070312 665.753906 481.070312 665.820312 481.085938 665.851562 C 481.527344 666.996094 481.984375 668.039062 482.457031 669.167969 C 482.488281 669.214844 482.507812 669.28125 482.523438 669.328125 L 482.523438 669.363281 L 482.554688 669.460938 L 482.621094 669.523438 C 483.386719 671.304688 484.21875 673.035156 485.035156 674.78125 C 485.101562 674.914062 485.167969 675.042969 485.234375 675.15625 C 488.351562 682.292969 495.386719 686.960938 503.160156 687.207031 C 503.566406 687.238281 503.976562 687.304688 504.367188 687.371094 C 514.765625 687.777344 525.902344 685.964844 538.015625 683.664062 C 543.125 682.667969 548.351562 684.300781 551.976562 688.007812 C 552.660156 688.707031 553.019531 689.214844 553.152344 689.34375 C 556.777344 692.988281 558.34375 698.144531 557.363281 703.191406 C 554.980469 715.238281 553.167969 726.339844 553.511719 736.773438 C 553.511719 736.871094 553.511719 736.96875 553.511719 737.066406 C 553.527344 737.394531 553.511719 737.410156 553.511719 737.542969 L 553.511719 738.015625 C 553.707031 745.785156 558.359375 752.855469 565.492188 756.054688 C 565.640625 756.136719 565.769531 756.203125 565.902344 756.285156 C 567.648438 757.132812 569.347656 757.949219 571.09375 758.734375 C 571.125 758.75 571.160156 758.78125 571.191406 758.796875 L 571.257812 758.796875 C 571.304688 758.816406 571.339844 758.847656 571.386719 758.863281 C 572.496094 759.335938 573.558594 759.792969 574.667969 760.234375 C 574.71875 760.25 574.785156 760.285156 574.832031 760.300781 L 574.867188 760.300781 L 574.929688 760.332031 L 574.964844 760.367188 L 575.027344 760.367188 C 575.078125 760.382812 575.109375 760.414062 575.160156 760.429688 C 576.269531 760.90625 577.332031 761.363281 578.441406 761.804688 C 578.488281 761.820312 578.523438 761.851562 578.570312 761.867188 L 578.636719 761.867188 C 578.6875 761.882812 578.71875 761.917969 578.765625 761.933594 C 580.5625 762.636719 582.277344 763.273438 584.121094 763.910156 C 584.285156 763.957031 584.449219 764.007812 584.597656 764.070312 C 591.894531 766.914062 600.203125 765.246094 605.871094 759.925781 L 606.210938 759.597656 C 606.308594 759.5 606.34375 759.5 606.554688 759.273438 C 606.621094 759.207031 606.652344 759.140625 606.71875 759.078125 C 614.375 752.007812 621.035156 742.929688 627.960938 732.773438 C 630.867188 728.53125 635.648438 726.015625 640.777344 726.046875 C 640.972656 726.046875 641.574219 725.980469 642.554688 725.980469 C 647.746094 725.964844 652.597656 728.53125 655.46875 732.871094 C 662.328125 743.109375 668.792969 752.316406 676.382812 759.433594 C 676.726562 759.679688 677.019531 759.941406 677.347656 760.203125 C 682.980469 765.558594 691.257812 767.289062 698.523438 764.511719 C 698.6875 764.464844 698.816406 764.414062 698.964844 764.382812 C 700.792969 763.746094 702.570312 763.109375 704.382812 762.40625 L 704.480469 762.40625 L 704.578125 762.375 L 704.613281 762.375 C 704.660156 762.359375 704.710938 762.324219 704.742188 762.308594 C 705.886719 761.867188 706.929688 761.410156 708.058594 760.9375 C 708.089844 760.921875 708.15625 760.886719 708.1875 760.871094 L 708.285156 760.839844 L 708.351562 760.808594 C 708.398438 760.789062 708.449219 760.757812 708.480469 760.742188 C 709.625 760.300781 710.71875 759.84375 711.859375 759.371094 C 711.910156 759.355469 711.960938 759.320312 711.992188 759.304688 L 712.058594 759.304688 C 712.105469 759.273438 712.140625 759.207031 712.1875 759.175781 C 713.886719 758.441406 715.402344 757.640625 717.347656 756.726562 C 717.511719 756.660156 717.640625 756.628906 717.789062 756.5625 C 724.90625 753.410156 729.558594 746.421875 729.804688 738.667969 C 729.804688 738.324219 729.871094 737.933594 729.902344 737.589844 C 730.328125 727.140625 728.515625 715.941406 726.195312 703.828125 C 725.214844 698.75 726.867188 693.507812 730.570312 689.882812 C 731.207031 689.28125 731.617188 688.921875 731.78125 688.773438 C 735.421875 685.132812 740.644531 683.550781 745.691406 684.53125 C 757.753906 686.914062 768.875 688.757812 779.304688 688.414062 C 779.371094 688.414062 779.46875 688.382812 779.535156 688.382812 C 779.878906 688.367188 779.910156 688.382812 780.039062 688.382812 C 780.058594 688.382812 780.089844 688.351562 780.105469 688.351562 C 780.269531 688.351562 780.285156 688.398438 780.285156 688.398438 C 780.367188 688.382812 780.433594 688.351562 780.5 688.351562 C 788.269531 688.171875 795.339844 683.535156 798.539062 676.398438 C 798.621094 676.269531 798.71875 676.105469 798.800781 675.992188 C 799.664062 674.242188 800.449219 672.5625 801.214844 670.796875 C 801.234375 670.75 801.25 670.71875 801.28125 670.667969 L 801.3125 670.636719 C 801.332031 670.585938 801.347656 670.519531 801.378906 670.472656 C 801.886719 669.296875 802.34375 668.171875 802.816406 666.996094 C 802.847656 666.898438 802.914062 666.832031 802.945312 666.734375 C 803.453125 665.574219 803.910156 664.429688 804.382812 663.289062 C 804.417969 663.222656 804.449219 663.125 804.480469 663.058594 L 804.480469 663.027344 C 805.183594 661.246094 805.789062 659.550781 806.425781 657.738281 C 806.457031 657.574219 806.523438 657.445312 806.554688 657.296875 C 809.394531 650 807.761719 641.6875 802.441406 636.023438 C 802.246094 635.792969 802.082031 635.566406 801.902344 635.320312 C 801.871094 635.289062 801.871094 635.320312 801.835938 635.289062 C 801.835938 635.257812 801.804688 635.257812 801.804688 635.222656 C 801.773438 635.191406 801.773438 635.15625 801.738281 635.125 C 794.652344 627.402344 785.511719 620.839844 775.304688 613.882812 C 771.046875 610.976562 768.515625 606.144531 768.578125 601.003906 C 768.578125 600.546875 768.546875 599.925781 768.546875 599.191406 C 768.546875 594.03125 771.109375 589.214844 775.402344 586.339844 C 785.640625 579.484375 794.847656 572.988281 801.96875 565.394531 C 802.210938 565.066406 802.472656 564.757812 802.734375 564.464844 C 808.140625 558.78125 809.871094 550.585938 807.078125 543.257812 C 807.011719 543.125 806.945312 542.960938 806.882812 542.847656 C 806.210938 540.96875 805.574219 539.109375 804.875 537.328125 L 804.777344 537.066406 L 803.402344 533.722656 L 801.738281 529.605469 L 801.773438 529.769531 C 801.019531 528.039062 800.238281 526.519531 799.289062 524.511719 C 799.222656 524.351562 799.160156 524.21875 799.09375 524.070312 C 795.941406 516.921875 788.921875 512.25 781.167969 512.023438 C 780.839844 512.023438 780.5625 511.992188 780.238281 511.957031 C 780.203125 511.957031 780.140625 511.957031 780.105469 511.957031 C 769.640625 511.535156 758.410156 513.296875 746.308594 515.597656 C 741.25 516.578125 736.058594 514.929688 732.433594 511.257812 C 732.089844 510.914062 731.648438 510.519531 731.257812 510.113281 C 727.601562 506.457031 726.03125 501.246094 727.046875 496.171875 C 729.429688 484.105469 731.289062 472.988281 730.929688 462.554688 C 730.929688 462.488281 730.898438 462.390625 730.898438 462.324219 C 730.882812 461.980469 730.898438 461.933594 730.898438 461.820312 L 730.898438 461.753906 C 730.898438 461.589844 730.898438 461.589844 730.898438 461.558594 C 730.898438 461.492188 730.898438 461.425781 730.898438 461.363281 C 730.71875 453.589844 726.050781 446.519531 718.914062 443.320312 C 718.75 443.238281 718.605469 443.140625 718.472656 443.058594 C 716.695312 442.160156 714.996094 441.378906 713.183594 440.578125 L 713.152344 440.546875 C 711.960938 440.039062 710.816406 439.535156 709.609375 439.042969 C 709.574219 439.042969 709.511719 439.042969 709.476562 439.042969 C 709.445312 439.027344 709.414062 438.996094 709.378906 438.976562 C 708.1875 438.457031 707.046875 437.964844 705.835938 437.476562 L 705.804688 437.476562 C 703.976562 436.742188 702.179688 436.121094 700.285156 435.46875 C 700.121094 435.417969 699.960938 435.371094 699.8125 435.304688 C 692.515625 432.464844 684.203125 434.097656 678.539062 439.417969 C 678.472656 439.46875 678.441406 439.535156 678.375 439.582031 C 678.375 439.582031 678.410156 439.582031 678.277344 439.714844 L 678.210938 439.746094 C 678.113281 439.8125 678.082031 439.859375 677.835938 440.089844 C 677.773438 440.136719 677.738281 440.203125 677.671875 440.25 C 669.984375 447.320312 663.339844 456.429688 656.398438 466.585938 C 653.511719 470.863281 648.675781 473.378906 643.519531 473.347656 C 642.964844 473.3125 642.390625 473.3125 641.886719 473.3125 C 636.757812 473.296875 631.960938 470.734375 629.101562 466.457031 C 622.246094 456.234375 615.617188 446.996094 607.960938 439.828125 C 607.925781 439.8125 607.910156 439.792969 607.894531 439.761719 C 607.648438 439.566406 607.421875 439.335938 607.191406 439.125 C 603.714844 435.746094 599.160156 433.804688 594.457031 433.507812 Z M 641.429688 501.425781 C 641.789062 501.425781 642.148438 501.425781 642.507812 501.425781 C 655.421875 501.460938 668.21875 504.054688 680.140625 509.050781 C 730.148438 530 753.691406 587.535156 732.757812 637.523438 C 711.8125 687.535156 654.308594 711.078125 604.320312 690.144531 C 554.308594 669.199219 530.734375 611.695312 551.664062 561.703125 C 566.847656 525.476562 602.164062 501.753906 641.429688 501.425781 Z M 644.839844 514.667969 L 644.839844 530.097656 C 655.0625 530.503906 665.054688 533.167969 674.148438 537.882812 L 681.804688 524.464844 C 670.390625 518.421875 657.738281 515.078125 644.839844 514.667969 Z M 602.570312 525.542969 C 601.65625 525.507812 600.597656 525.785156 599.566406 526.375 C 597.527344 527.550781 596.480469 529.558594 597.199219 530.832031 L 605.363281 544.921875 C 606.097656 546.195312 608.367188 546.292969 610.40625 545.117188 C 612.449219 543.941406 613.492188 541.933594 612.777344 540.660156 L 604.613281 526.570312 C 604.21875 525.917969 603.46875 525.574219 602.570312 525.542969 Z M 686.585938 527.191406 L 678.929688 540.609375 C 687.796875 546.128906 695.304688 553.574219 700.90625 562.390625 L 714.261719 554.601562 C 707.289062 543.453125 697.820312 534.082031 686.585938 527.191406 Z M 572.808594 555.417969 C 571.519531 554.683594 569.558594 555.761719 568.382812 557.804688 C 567.207031 559.84375 567.289062 562.113281 568.578125 562.847656 L 582.734375 570.914062 C 584.023438 571.648438 586.015625 570.570312 587.191406 568.53125 C 588.367188 566.488281 588.253906 564.21875 586.964844 563.484375 Z M 717.035156 559.402344 L 703.679688 567.15625 C 708.5625 576.367188 711.304688 586.570312 711.714844 597.003906 L 727.175781 597.003906 C 726.75 583.859375 723.289062 570.976562 717.035156 559.402344 Z M 638.980469 592.691406 C 637.199219 592.691406 635.566406 593.6875 634.734375 595.238281 C 633.820312 596.953125 634.03125 599.027344 635.273438 600.53125 L 643.0625 609.589844 C 643.09375 609.625 643.09375 609.65625 643.125 609.6875 L 643.160156 609.6875 C 643.535156 610.144531 644.007812 610.554688 644.53125 610.832031 C 644.824219 610.996094 645.132812 611.09375 645.460938 611.175781 L 645.492188 611.207031 L 695.976562 628.234375 C 696.203125 628.300781 696.417969 628.203125 696.546875 628.007812 C 696.710938 627.777344 696.644531 627.5 696.449219 627.335938 L 653.933594 595.09375 C 653.871094 595.027344 653.804688 594.976562 653.738281 594.929688 C 653.542969 594.78125 653.363281 594.652344 653.167969 594.554688 C 652.597656 594.242188 651.960938 594.082031 651.324219 594.015625 L 651.289062 594.015625 L 639.648438 592.710938 C 639.582031 592.710938 639.484375 592.710938 639.421875 592.710938 C 639.273438 592.710938 639.144531 592.691406 638.980469 592.691406 Z M 559.960938 595.46875 C 558.472656 595.46875 557.28125 597.378906 557.28125 599.746094 C 557.28125 602.113281 558.472656 604.023438 559.960938 604.023438 L 576.21875 604.023438 C 577.707031 604.023438 578.898438 602.113281 578.898438 599.746094 C 578.898438 597.378906 577.707031 595.46875 576.21875 595.46875 Z M 711.714844 602.503906 C 711.324219 612.742188 708.660156 622.75 703.960938 631.84375 L 717.378906 639.5 C 723.402344 628.074219 726.75 615.417969 727.175781 602.503906 Z M 583.242188 629.589844 L 569.214844 637.882812 C 567.941406 638.652344 567.878906 640.886719 569.085938 642.929688 C 570.292969 644.96875 572.300781 646.015625 573.574219 645.265625 L 587.566406 636.96875 C 588.839844 636.203125 588.90625 633.964844 587.699219 631.925781 C 586.488281 629.882812 584.515625 628.824219 583.242188 629.589844 Z M 476.089844 634.976562 L 476.628906 635.320312 L 476.628906 635.257812 C 476.382812 635.125 476.1875 635.042969 476.089844 634.976562 Z M 676.742188 653.558594 C 675.828125 653.527344 674.765625 653.804688 673.738281 654.390625 C 671.699219 655.566406 670.652344 657.574219 671.371094 658.847656 L 679.535156 672.9375 C 680.269531 674.210938 682.539062 674.308594 684.578125 673.132812 C 686.621094 671.957031 687.664062 669.949219 686.945312 668.675781 L 678.785156 654.585938 C 678.390625 653.949219 677.640625 653.589844 676.742188 653.558594 Z M 607.796875 653.820312 C 606.882812 653.851562 606.148438 654.195312 605.789062 654.847656 L 597.722656 669.003906 C 596.988281 670.292969 598.066406 672.25 600.105469 673.425781 C 602.148438 674.601562 604.417969 674.519531 605.152344 673.230469 L 613.214844 659.078125 C 613.949219 657.785156 612.875 655.792969 610.832031 654.621094 C 609.804688 654.03125 608.710938 653.785156 607.796875 653.820312 Z M 641.691406 662.914062 C 639.324219 662.898438 637.378906 664.070312 637.378906 665.558594 L 637.28125 681.851562 C 637.28125 683.335938 639.160156 684.546875 641.527344 684.5625 C 643.894531 684.578125 645.835938 683.402344 645.835938 681.917969 L 645.933594 665.625 C 645.933594 664.136719 644.058594 662.929688 641.691406 662.914062 Z M 641.691406 662.914062 " fill-opacity="1" fill-rule="nonzero"/></g></svg>