<svg xmlns="http://www.w3.org/2000/svg" xmlns:xlink="http://www.w3.org/1999/xlink" width="1200" zoomAndPan="magnify" viewBox="0 0 900 899.99999" height="1200" preserveAspectRatio="xMidYMid meet" version="1.0"><defs><clipPath id="10cd45b70e"><path d="M 54 121.949219 L 846 121.949219 L 846 777 L 54 777 Z M 54 121.949219 " clip-rule="nonzero"/></clipPath></defs><g clip-path="url(#10cd45b70e)"><path fill="#ffffff" d="M 350.03125 590.359375 L 135.742188 590.359375 C 106.621094 590.359375 80.269531 575.167969 65.710938 549.929688 C 51.148438 524.726562 51.148438 494.273438 65.710938 469.070312 L 242.800781 162.335938 C 257.363281 137.097656 283.710938 121.871094 312.832031 121.871094 C 341.953125 121.871094 368.300781 137.097656 382.863281 162.335938 L 559.992188 469.070312 C 574.554688 494.273438 574.554688 524.726562 559.992188 549.929688 C 545.589844 574.894531 519.613281 590.027344 490.867188 590.355469 L 490.867188 545.96875 C 502.851562 541.039062 512.980469 532.238281 519.84375 520.417969 C 519.859375 520.390625 519.875 520.363281 519.890625 520.335938 C 530.800781 501.382812 530.800781 479.101562 519.890625 460.148438 L 519.875 460.121094 L 364.984375 191.894531 L 364.964844 191.867188 C 354.03125 172.902344 334.71875 161.75 312.816406 161.75 C 290.957031 161.75 271.578125 172.914062 260.648438 191.894531 C 260.667969 191.867188 105.789062 460.121094 105.789062 460.121094 L 105.773438 460.148438 C 94.863281 479.101562 94.863281 501.382812 105.773438 520.335938 L 105.792969 520.363281 C 116.714844 539.28125 136.09375 550.480469 157.941406 550.480469 L 350.03125 550.480469 Z M 350.03125 524.113281 L 157.941406 524.113281 C 145.660156 524.113281 134.765625 517.808594 128.625 507.175781 C 122.484375 496.511719 122.484375 483.972656 128.625 473.308594 L 283.5 205.050781 C 289.644531 194.386719 300.535156 188.117188 312.816406 188.117188 C 325.128906 188.117188 335.988281 194.386719 342.128906 205.050781 L 497.039062 473.308594 C 503.179688 483.972656 503.179688 496.511719 497.039062 507.175781 C 495.320312 510.136719 493.242188 512.757812 490.867188 515.003906 L 490.867188 489.972656 C 490.867188 470.855469 475.375 455.363281 456.257812 455.363281 L 384.640625 455.363281 C 365.527344 455.363281 350.03125 470.855469 350.03125 489.972656 Z M 312.832031 416.371094 C 322.144531 416.371094 329.792969 409.019531 330.128906 399.703125 L 334.488281 278.710938 C 334.671875 273.832031 333.046875 269.585938 329.644531 266.074219 C 326.285156 262.5625 322.070312 260.789062 317.195312 260.789062 L 308.472656 260.789062 C 303.59375 260.789062 299.417969 262.5625 296.015625 266.074219 C 292.652344 269.585938 291.027344 273.832031 291.175781 278.710938 L 295.574219 399.703125 C 295.90625 409.019531 303.519531 416.371094 312.832031 416.371094 Z M 312.832031 483.816406 C 325.027344 483.816406 334.96875 473.875 334.96875 461.679688 C 334.96875 449.484375 325.027344 439.542969 312.832031 439.542969 C 300.636719 439.542969 290.695312 449.484375 290.695312 461.679688 C 290.695312 473.875 300.636719 483.816406 312.832031 483.816406 Z M 345.15625 661.492188 L 376.402344 661.492188 L 376.402344 489.972656 C 376.402344 485.417969 380.09375 481.730469 384.640625 481.730469 L 456.257812 481.730469 C 460.808594 481.730469 464.5 485.417969 464.5 489.972656 L 464.5 661.492188 L 495.746094 661.492188 C 503.9375 661.492188 508.46875 670.875 503.457031 677.234375 L 428.085938 772.886719 C 424.1875 777.894531 416.714844 777.894531 412.816406 772.886719 L 337.441406 677.234375 C 332.433594 670.875 336.964844 661.492188 345.15625 661.492188 Z M 564.027344 337.058594 L 595.273438 337.058594 L 595.273438 165.535156 C 595.273438 160.984375 598.964844 157.296875 603.515625 157.296875 L 675.128906 157.296875 C 679.683594 157.296875 683.371094 160.984375 683.371094 165.535156 L 683.371094 337.058594 L 714.617188 337.058594 C 722.808594 337.058594 727.339844 346.441406 722.332031 352.800781 L 646.957031 448.453125 C 643.058594 453.460938 635.585938 453.460938 631.691406 448.453125 L 556.316406 352.800781 C 551.304688 346.441406 555.835938 337.058594 564.027344 337.058594 Z M 685.464844 661.492188 L 716.710938 661.492188 L 716.710938 489.972656 C 716.710938 485.417969 720.402344 481.730469 724.953125 481.730469 L 796.570312 481.730469 C 801.121094 481.730469 804.808594 485.417969 804.808594 489.972656 L 804.808594 661.492188 L 836.058594 661.492188 C 844.246094 661.492188 848.777344 670.875 843.769531 677.234375 L 768.394531 772.886719 C 764.5 777.894531 757.023438 777.894531 753.128906 772.886719 L 677.753906 677.234375 C 672.746094 670.875 677.277344 661.492188 685.464844 661.492188 Z M 685.464844 661.492188 " fill-opacity="1" fill-rule="evenodd"/></g></svg>