<svg xmlns="http://www.w3.org/2000/svg" xmlns:xlink="http://www.w3.org/1999/xlink" width="1200" zoomAndPan="magnify" viewBox="0 0 900 899.99999" height="1200" preserveAspectRatio="xMidYMid meet" version="1.0"><defs><clipPath id="f4150e3eec"><path d="M 90 133.199219 L 834 133.199219 L 834 787.949219 L 90 787.949219 Z M 90 133.199219 " clip-rule="nonzero"/></clipPath></defs><g clip-path="url(#f4150e3eec)"><path fill="#ffffff" d="M 299.695312 133.261719 L 299.695312 297.910156 L 624.46875 297.910156 L 624.46875 133.261719 Z M 755.101562 696.574219 L 644.269531 696.574219 L 644.269531 715.050781 L 755.101562 715.050781 L 724.351562 745.800781 C 720.75 749.402344 720.734375 755.253906 724.351562 758.859375 C 726.152344 760.660156 728.523438 761.566406 730.882812 761.566406 C 733.253906 761.566406 735.609375 760.660156 737.410156 758.859375 L 783.925781 712.339844 C 784.140625 712.125 784.355469 711.894531 784.542969 711.664062 C 784.589844 711.617188 784.617188 711.570312 784.648438 711.523438 C 784.804688 711.324219 784.957031 711.140625 785.082031 710.941406 C 785.113281 710.894531 785.144531 710.832031 785.171875 710.785156 C 785.3125 710.585938 785.433594 710.371094 785.542969 710.171875 C 785.574219 710.125 785.589844 710.078125 785.605469 710.046875 C 785.726562 709.816406 785.835938 709.585938 785.941406 709.355469 C 785.941406 709.324219 785.957031 709.292969 785.972656 709.261719 C 786.066406 709.015625 786.160156 708.753906 786.234375 708.492188 C 786.25 708.460938 786.25 708.429688 786.265625 708.398438 C 786.34375 708.152344 786.40625 707.890625 786.464844 707.628906 C 786.480469 707.550781 786.480469 707.476562 786.496094 707.398438 C 786.527344 707.183594 786.574219 706.953125 786.589844 706.738281 C 786.621094 706.429688 786.636719 706.121094 786.636719 705.8125 C 786.636719 705.488281 786.621094 705.195312 786.589844 704.886719 C 786.574219 704.640625 786.527344 704.410156 786.496094 704.179688 C 786.480469 704.117188 786.480469 704.058594 786.464844 703.996094 C 786.40625 703.71875 786.34375 703.441406 786.265625 703.179688 C 786.25 703.164062 786.25 703.132812 786.234375 703.117188 C 786.160156 702.839844 786.066406 702.578125 785.957031 702.316406 C 785.957031 702.300781 785.941406 702.285156 785.941406 702.269531 C 785.835938 702.023438 785.726562 701.777344 785.605469 701.546875 C 785.574219 701.515625 785.574219 701.484375 785.558594 701.453125 C 785.433594 701.222656 785.3125 701.023438 785.171875 700.808594 C 785.144531 700.761719 785.113281 700.714844 785.082031 700.667969 C 784.941406 700.46875 784.804688 700.285156 784.648438 700.085938 C 784.617188 700.039062 784.589844 699.992188 784.542969 699.945312 C 784.355469 699.714844 784.140625 699.484375 783.925781 699.269531 L 737.410156 652.75 C 733.804688 649.148438 727.957031 649.148438 724.351562 652.75 C 720.734375 656.355469 720.734375 662.207031 724.351562 665.808594 Z M 279.894531 451.457031 L 209.160156 451.457031 C 169.664062 451.457031 137.511719 483.589844 137.511719 523.101562 L 137.511719 560.949219 L 106.761719 530.199219 C 103.160156 526.582031 97.308594 526.582031 93.707031 530.199219 C 90.085938 533.804688 90.085938 539.65625 93.707031 543.257812 L 137.511719 587.082031 L 137.511719 643.40625 C 137.511719 682.902344 169.664062 715.050781 209.160156 715.050781 L 279.894531 715.050781 L 279.894531 696.574219 L 209.160156 696.574219 C 179.839844 696.574219 155.988281 672.722656 155.988281 643.40625 L 155.988281 587.082031 L 199.8125 543.257812 C 203.414062 539.65625 203.414062 533.804688 199.8125 530.199219 C 196.191406 526.582031 190.359375 526.582031 186.738281 530.199219 L 155.988281 560.949219 L 155.988281 523.101562 C 155.988281 493.785156 179.839844 469.933594 209.160156 469.933594 L 279.894531 469.933594 Z M 644.269531 206.339844 L 644.269531 224.816406 L 714.992188 224.816406 C 744.308594 224.816406 768.160156 248.667969 768.160156 277.984375 L 768.160156 315.832031 L 737.410156 285.082031 C 733.804688 281.480469 727.957031 281.480469 724.351562 285.082031 C 720.734375 288.6875 720.734375 294.539062 724.351562 298.15625 L 768.160156 341.964844 L 768.160156 398.289062 C 768.160156 427.605469 744.308594 451.457031 714.992188 451.457031 L 644.269531 451.457031 L 644.269531 469.933594 L 714.992188 469.933594 C 754.5 469.933594 786.636719 437.796875 786.636719 398.289062 L 786.636719 341.964844 L 830.457031 298.15625 C 834.0625 294.539062 834.0625 288.6875 830.457031 285.082031 C 826.855469 281.480469 821.003906 281.480469 817.402344 285.082031 L 786.636719 315.832031 L 786.636719 277.984375 C 786.636719 238.488281 754.5 206.339844 714.992188 206.339844 Z M 146.75 224.816406 L 279.894531 224.816406 L 279.894531 206.339844 L 146.75 206.339844 C 141.65625 206.339844 137.511719 210.480469 137.511719 215.578125 C 137.511719 220.691406 141.65625 224.816406 146.75 224.816406 Z M 624.46875 623.480469 L 299.695312 623.480469 L 299.695312 788.128906 L 624.46875 788.128906 Z M 415.671875 696.574219 L 508.492188 696.574219 C 513.585938 696.574219 517.730469 700.699219 517.730469 705.8125 C 517.730469 710.910156 513.585938 715.050781 508.492188 715.050781 L 415.671875 715.050781 C 410.578125 715.050781 406.433594 710.910156 406.433594 705.8125 C 406.433594 700.699219 410.578125 696.574219 415.671875 696.574219 Z M 624.46875 372.636719 L 299.695312 372.636719 L 299.695312 537.269531 L 624.46875 537.269531 Z M 377.269531 477.988281 L 438.554688 416.6875 C 442.171875 413.085938 448.007812 413.085938 451.625 416.6875 C 455.230469 420.292969 455.230469 426.144531 451.625 429.761719 L 383.800781 497.589844 C 382 499.390625 379.625 500.28125 377.269531 500.28125 C 374.898438 500.28125 372.542969 499.390625 370.726562 497.589844 L 339.070312 465.929688 C 335.464844 462.3125 335.464844 456.460938 339.070312 452.859375 C 342.6875 449.253906 348.539062 449.253906 352.140625 452.859375 Z M 460.925781 473.492188 L 580.011719 473.492188 C 585.125 473.492188 589.253906 477.632812 589.253906 482.730469 C 589.253906 487.824219 585.125 491.96875 580.011719 491.96875 L 460.925781 491.96875 C 455.832031 491.96875 451.6875 487.824219 451.6875 482.730469 C 451.6875 477.632812 455.832031 473.492188 460.925781 473.492188 Z M 498.21875 424.21875 L 580.011719 424.21875 C 585.125 424.21875 589.253906 428.359375 589.253906 433.457031 C 589.253906 438.570312 585.125 442.695312 580.011719 442.695312 L 498.21875 442.695312 C 493.125 442.695312 488.980469 438.570312 488.980469 433.457031 C 488.980469 428.359375 493.125 424.21875 498.21875 424.21875 Z M 451.625 182.65625 L 383.800781 250.484375 C 382 252.285156 379.625 253.195312 377.269531 253.195312 C 374.898438 253.195312 372.542969 252.285156 370.726562 250.484375 L 339.070312 218.828125 C 335.464844 215.222656 335.464844 209.371094 339.070312 205.753906 C 342.6875 202.152344 348.539062 202.152344 352.140625 205.753906 L 377.269531 230.882812 L 438.554688 169.585938 C 442.171875 165.980469 448.007812 165.980469 451.625 169.585938 C 455.230469 173.203125 455.230469 179.039062 451.625 182.65625 Z M 580.011719 244.863281 L 460.925781 244.863281 C 455.832031 244.863281 451.6875 240.738281 451.6875 235.625 C 451.6875 230.53125 455.832031 226.386719 460.925781 226.386719 L 580.011719 226.386719 C 585.125 226.386719 589.253906 230.53125 589.253906 235.625 C 589.253906 240.738281 585.125 244.863281 580.011719 244.863281 Z M 498.21875 195.59375 C 493.125 195.59375 488.980469 191.464844 488.980469 186.351562 C 488.980469 181.257812 493.125 177.113281 498.21875 177.113281 L 580.011719 177.113281 C 585.125 177.113281 589.253906 181.257812 589.253906 186.351562 C 589.253906 191.464844 585.125 195.59375 580.011719 195.59375 Z M 498.21875 195.59375 " fill-opacity="1" fill-rule="evenodd"/></g></svg>