<svg xmlns="http://www.w3.org/2000/svg" xmlns:xlink="http://www.w3.org/1999/xlink" width="1200" zoomAndPan="magnify" viewBox="0 0 900 899.99999" height="1200" preserveAspectRatio="xMidYMid meet" version="1.0"><defs><clipPath id="476c75c74a"><path d="M 84 90 L 808 90 L 808 804 L 84 804 Z M 84 90 " clip-rule="nonzero"/></clipPath></defs><g clip-path="url(#476c75c74a)"><path fill="#ffffff" d="M 108.664062 362.382812 C 105.957031 371.890625 91.511719 367.765625 94.226562 358.273438 C 139.25 200.800781 284.453125 89.933594 450.777344 89.933594 C 617.101562 89.933594 762.308594 200.800781 807.332031 358.273438 C 810.042969 367.761719 795.613281 371.898438 792.894531 362.382812 C 749.679688 211.226562 610.464844 104.960938 450.777344 104.960938 C 291.035156 104.960938 152.136719 211.046875 108.664062 362.382812 Z M 149.777344 307.972656 L 107.0625 345.441406 L 99.761719 289.128906 C 98.507812 279.335938 83.664062 281.253906 84.910156 291.003906 L 93.996094 361.070312 C 94.707031 367.324219 101.925781 369.859375 106.375 365.960938 L 159.632812 319.238281 C 162.746094 316.515625 163.058594 311.785156 160.339844 308.675781 C 157.617188 305.5625 152.886719 305.25 149.777344 307.972656 Z M 691.6875 601.382812 C 694.390625 591.875 708.839844 596 706.125 605.492188 C 672.894531 721.734375 565.667969 803.609375 442.886719 803.609375 C 320.109375 803.609375 212.890625 721.742188 179.652344 605.492188 C 176.941406 596.007812 191.371094 591.867188 194.089844 601.382812 C 225.519531 711.316406 326.746094 788.582031 442.886719 788.582031 C 559.074219 788.582031 660.066406 711.449219 691.6875 601.382812 Z M 664.804688 643.3125 L 693.289062 618.324219 L 698.15625 655.871094 C 699.40625 665.660156 714.25 663.746094 713.003906 653.992188 L 706.355469 602.695312 C 705.640625 596.445312 698.425781 593.90625 693.976562 597.804688 L 654.945312 632.046875 C 651.832031 634.765625 651.519531 639.496094 654.238281 642.609375 C 656.960938 645.71875 661.691406 646.035156 664.804688 643.3125 Z M 154.425781 422.445312 C 153.808594 423.679688 152.886719 424.683594 151.78125 425.398438 C 139.25 439.820312 129.699219 456.863281 124.078125 475.574219 L 250.519531 475.574219 C 259.453125 440.960938 277.632812 410.03125 302.28125 385.535156 C 249.894531 367.269531 191.707031 381.9375 154.425781 422.445312 Z M 295.648438 263.289062 C 273.976562 241.621094 238.832031 241.621094 217.164062 263.289062 C 195.492188 284.960938 195.492188 320.101562 217.164062 341.773438 C 238.832031 363.445312 273.976562 363.445312 295.648438 341.773438 C 317.320312 320.101562 317.320312 284.960938 295.648438 263.289062 Z M 266.03125 475.574219 L 618.890625 475.574219 C 596.921875 397.515625 524.960938 342.867188 442.460938 342.867188 C 399.183594 342.867188 359.429688 357.738281 328.109375 382.609375 C 320.53125 388.625 313.453125 395.222656 306.929688 402.335938 C 306.277344 403.804688 305.191406 404.972656 303.882812 405.738281 C 286.480469 425.699219 273.382812 449.449219 266.03125 475.574219 Z M 256.371094 490.601562 L 125.777344 490.601562 L 135.058594 512.121094 L 135.050781 512.125 L 143.34375 532.066406 L 228.65625 522.40625 C 231.320312 522.117188 234.054688 523.265625 235.667969 525.636719 C 244.59375 538.734375 254.628906 550.78125 265.578125 561.695312 C 276.648438 572.730469 288.636719 582.617188 301.34375 591.269531 C 303.839844 592.714844 305.386719 595.539062 305.050781 598.589844 L 295.585938 683.941406 L 335.339844 700.347656 L 388.824219 633.167969 C 390.5 631.070312 393.25 629.941406 396.074219 630.46875 C 427.042969 636.300781 458.273438 636.378906 489.46875 630.382812 L 489.472656 630.40625 C 492.105469 629.90625 494.925781 630.839844 496.714844 633.082031 L 550.355469 700.078125 L 590.097656 683.558594 L 580.4375 598.246094 C 580.144531 595.582031 581.296875 592.847656 583.664062 591.230469 C 596.761719 582.308594 608.808594 572.277344 619.722656 561.328125 C 630.761719 550.253906 640.648438 538.265625 649.300781 525.558594 C 650.742188 523.058594 653.566406 521.515625 656.617188 521.851562 L 741.96875 531.316406 L 759.144531 490.601562 L 580.199219 490.601562 C 507.292969 571.351562 377.640625 571.351562 304.734375 490.601562 Z M 667.761719 263.289062 C 646.085938 241.617188 610.949219 241.621094 589.277344 263.289062 C 567.605469 284.960938 567.605469 320.101562 589.277344 341.773438 C 610.949219 363.445312 646.085938 363.445312 667.761719 341.773438 C 689.433594 320.101562 689.433594 284.960938 667.761719 263.289062 Z M 760.847656 475.574219 C 738.261719 400.386719 656.65625 359.726562 582.640625 385.539062 C 607.292969 410.035156 625.46875 440.960938 634.40625 475.574219 Z M 325.742188 490.601562 L 559.183594 490.601562 C 494.507812 551.339844 390.417969 551.339844 325.742188 490.601562 Z M 495.511719 188.878906 C 466.214844 159.582031 418.710938 159.582031 389.414062 188.878906 C 360.117188 218.175781 360.117188 265.675781 389.414062 294.972656 C 418.710938 324.269531 466.214844 324.269531 495.511719 294.972656 C 524.804688 265.679688 524.808594 218.171875 495.511719 188.878906 Z M 495.511719 188.878906 " fill-opacity="1" fill-rule="evenodd"/></g></svg>