<svg xmlns="http://www.w3.org/2000/svg" xmlns:xlink="http://www.w3.org/1999/xlink" width="1200" zoomAndPan="magnify" viewBox="0 0 900 899.99999" height="1200" preserveAspectRatio="xMidYMid meet" version="1.0"><defs><clipPath id="26a219c91e"><path d="M 71.59375 74 L 808 74 L 808 810 L 71.59375 810 Z M 71.59375 74 " clip-rule="nonzero"/></clipPath></defs><g clip-path="url(#26a219c91e)"><path fill="#ffffff" d="M 746.648438 518.820312 C 677.921875 518.820312 643.4375 602.082031 692.03125 650.675781 C 700.984375 659.625 700.984375 674.144531 692.03125 683.097656 L 642.675781 732.453125 C 633.726562 741.402344 619.207031 741.402344 610.253906 732.453125 C 561.664062 683.859375 478.402344 718.339844 478.402344 787.066406 C 478.402344 799.730469 468.136719 809.992188 455.480469 809.992188 L 385.683594 809.992188 C 373.027344 809.992188 362.761719 799.730469 362.761719 787.066406 C 362.761719 718.257812 279.5625 683.796875 230.90625 732.453125 C 221.957031 741.402344 207.4375 741.402344 198.488281 732.453125 L 149.132812 683.097656 C 140.183594 674.148438 140.183594 659.628906 149.132812 650.675781 C 197.726562 602.082031 163.246094 518.820312 94.519531 518.820312 C 81.851562 518.820312 71.59375 508.554688 71.59375 495.898438 L 71.59375 426.105469 C 71.59375 413.445312 81.851562 403.179688 94.515625 403.179688 C 163.242188 403.179688 197.722656 319.921875 149.132812 271.328125 C 140.179688 262.375 140.179688 247.855469 149.132812 238.90625 L 198.484375 189.550781 C 207.4375 180.601562 221.957031 180.601562 230.90625 189.550781 C 279.5 238.144531 362.757812 203.664062 362.757812 134.9375 C 362.757812 122.273438 373.023438 112.011719 385.683594 112.011719 L 455.476562 112.011719 C 468.136719 112.011719 478.402344 122.273438 478.402344 134.9375 C 478.402344 145.988281 480.5625 156.152344 484.382812 165.230469 L 261.910156 224.839844 C 249.230469 228.238281 242.058594 241.632812 246.304688 254.0625 C 254.882812 279.167969 265.765625 290.679688 278.703125 295.117188 C 286.472656 297.78125 294.191406 297.675781 302.21875 296.335938 L 291.617188 353.835938 C 267.441406 382.894531 252.898438 420.25 252.898438 461 C 252.898438 550.3125 322.726562 623.304688 410.765625 628.386719 C 410.261719 630.726562 409.996094 633.148438 409.996094 635.636719 L 409.996094 659.425781 C 409.996094 665.351562 414.800781 670.15625 420.726562 670.15625 L 555.234375 670.15625 C 561.160156 670.15625 565.964844 665.351562 565.964844 659.425781 L 565.964844 635.636719 C 565.964844 619.890625 555.199219 606.101562 540.015625 602.195312 C 538.367188 595.609375 536.9375 589.203125 535.699219 582.90625 C 568.0625 552.335938 588.261719 509.03125 588.261719 461 C 588.261719 453.570312 587.773438 446.257812 586.835938 439.082031 L 636.054688 413.277344 C 655.460938 403.101562 668.148438 386.175781 672.464844 364.6875 L 674.664062 353.75 C 685.398438 381.464844 711.550781 403.179688 746.644531 403.179688 C 759.3125 403.179688 769.566406 413.445312 769.566406 426.101562 L 769.566406 495.898438 C 769.570312 508.554688 759.3125 518.820312 746.648438 518.820312 Z M 548.351562 309.082031 L 510.257812 319.289062 C 527.15625 330.003906 542.003906 343.660156 554.089844 359.535156 L 556.917969 357.878906 C 563.507812 354.023438 566.925781 347.425781 566.367188 339.824219 L 564.964844 320.839844 C 564.34375 312.449219 556.5625 306.886719 548.351562 309.082031 Z M 702 84.082031 C 689.574219 87.410156 682.15625 100.261719 685.484375 112.6875 L 727.558594 269.703125 C 730.886719 282.132812 743.738281 289.550781 756.164062 286.222656 L 790.074219 277.136719 C 802.5 273.804688 809.921875 260.953125 806.589844 248.527344 L 764.515625 91.511719 C 761.1875 79.082031 748.335938 71.664062 735.910156 74.996094 Z M 409.871094 275.800781 C 412.8125 270.683594 419.34375 268.917969 424.460938 271.859375 C 429.574219 274.800781 431.339844 281.328125 428.398438 286.445312 L 395.386719 343.625 C 390.199219 352.609375 389.011719 361.84375 391.695312 371.859375 L 420.78125 480.414062 C 422.882812 488.25 431.128906 492.308594 438.617188 489.203125 C 458.71875 480.859375 462.210938 470.691406 456.636719 449.890625 L 438.988281 384.03125 C 436.527344 374.84375 437.792969 365.703125 442.621094 357.511719 L 462.496094 323.777344 C 468.851562 312.984375 478.488281 305.617188 490.589844 302.375 L 542.820312 288.378906 C 563.855469 282.746094 584.738281 297.628906 586.339844 319.332031 L 587.742188 338.316406 C 588.902344 354.039062 581.328125 368.367188 567.730469 376.320312 L 535.230469 395.335938 C 521.445312 403.292969 504.992188 414.871094 509.882812 433.113281 C 511.867188 440.519531 514.113281 446.375 517.042969 448.671875 C 519.820312 450.851562 525.253906 447.054688 527.867188 445.875 L 626.164062 394.332031 C 639.8125 387.179688 648.472656 375.609375 651.507812 360.5 L 668.628906 275.273438 C 671.398438 261.5 681.675781 251.5625 695.191406 248.242188 L 699.316406 247.230469 L 669.964844 137.691406 L 505.277344 181.820312 C 501.066406 182.949219 497.660156 184.652344 494.238281 187.351562 L 367.171875 287.46875 C 358.71875 294.128906 354.089844 302.707031 353.167969 313.429688 L 343.46875 426.359375 C 342.738281 434.871094 349.695312 441.65625 358.183594 440.652344 C 368.433594 439.4375 379.585938 435.121094 383.710938 424.875 L 370.992188 377.390625 C 366.851562 361.949219 368.871094 346.816406 376.863281 332.976562 Z M 431.460938 648.695312 L 544.507812 648.695312 L 544.507812 635.636719 C 544.507812 628.472656 538.605469 622.574219 531.445312 622.574219 L 444.519531 622.574219 C 437.359375 622.574219 431.460938 628.472656 431.460938 635.636719 Z M 488.128906 433.863281 C 483.628906 433.863281 479.363281 434.585938 475.171875 436.246094 L 477.34375 444.359375 C 482.449219 463.410156 482.253906 482.578125 467.082031 496.707031 C 473.027344 501.15625 480.484375 503.625 487.980469 503.625 C 506.546875 503.625 521.878906 489.066406 522.816406 470.539062 C 501.507812 473.828125 491.125 451.429688 488.128906 433.863281 Z M 507.324219 521.675781 C 494.925781 526.210938 481.035156 526.199219 468.640625 521.648438 C 467.546875 548.71875 464.449219 574.6875 458.261719 601.113281 L 517.699219 601.113281 C 511.511719 574.683594 508.417969 548.757812 507.324219 521.675781 Z M 446.710938 197.511719 L 267.445312 245.546875 C 266.660156 245.753906 266.335938 246.425781 266.59375 247.1875 C 272.640625 264.878906 278.886719 272.503906 285.664062 274.828125 C 291.53125 276.839844 299.390625 275.351562 308.296875 273.070312 C 310.398438 267.859375 312.960938 263.011719 315.960938 258.542969 C 319.246094 253.632812 325.890625 252.320312 330.796875 255.609375 C 335.703125 258.894531 337.019531 265.539062 333.730469 270.445312 C 328.90625 277.636719 325.949219 285.617188 324.386719 294.109375 L 307 388.386719 C 306.863281 389.132812 307.347656 389.824219 308.113281 389.898438 C 313.238281 390.386719 318.511719 390.554688 322.125 389.265625 C 323.757812 388.683594 325.027344 387.421875 325.496094 384.984375 L 331.792969 311.671875 C 333.21875 295.046875 340.820312 280.945312 353.925781 270.621094 Z M 446.710938 197.511719 " fill-opacity="1" fill-rule="evenodd"/></g></svg>