<svg xmlns="http://www.w3.org/2000/svg" xmlns:xlink="http://www.w3.org/1999/xlink" width="1200" zoomAndPan="magnify" viewBox="0 0 900 899.99999" height="1200" preserveAspectRatio="xMidYMid meet" version="1.0"><defs><clipPath id="f0da383b05"><path d="M 90 222 L 431 222 L 431 810 L 90 810 Z M 90 222 " clip-rule="nonzero"/></clipPath></defs><path fill="#ffffff" d="M 582.632812 260.527344 C 582.632812 250.105469 574.105469 241.578125 563.683594 241.578125 C 557.808594 241.578125 551.367188 240.820312 544.738281 240.0625 L 544.738281 184.738281 C 544.738281 132.441406 502.292969 90 450 90 C 397.707031 90 355.261719 132.441406 355.261719 184.738281 L 355.261719 240.0625 C 348.632812 241.011719 342.191406 241.578125 336.316406 241.578125 C 325.894531 241.578125 317.367188 250.105469 317.367188 260.527344 C 317.367188 354.316406 317.367188 442.800781 441.472656 504.757812 C 444.125 506.085938 446.96875 506.84375 450 506.84375 C 453.03125 506.84375 455.875 506.085938 458.527344 504.757812 C 582.632812 442.609375 582.632812 354.125 582.632812 260.527344 Z M 504.757812 325.894531 L 466.863281 401.683594 C 464.210938 407.179688 458.90625 410.96875 453.03125 411.914062 C 452.085938 411.914062 450.949219 412.105469 450 412.105469 C 445.074219 412.105469 440.148438 410.210938 436.546875 406.609375 L 398.652344 368.714844 C 391.261719 361.328125 391.261719 349.390625 398.652344 342 C 406.042969 334.609375 417.980469 334.609375 425.367188 342 L 444.695312 361.328125 L 470.84375 309.03125 C 475.578125 299.746094 486.949219 295.957031 496.230469 300.503906 C 505.515625 305.050781 509.304688 316.609375 504.757812 325.894531 Z M 506.84375 230.96875 C 487.515625 224.527344 470.652344 216.378906 463.453125 209.179688 C 456.253906 201.980469 444.125 201.789062 436.738281 209.179688 C 429.347656 216.570312 412.671875 224.527344 393.347656 230.96875 L 393.347656 184.738281 C 393.347656 153.472656 418.925781 127.894531 450.1875 127.894531 C 481.453125 127.894531 507.03125 153.472656 507.03125 184.738281 L 507.03125 230.96875 Z M 506.84375 230.96875 " fill-opacity="1" fill-rule="nonzero"/><g clip-path="url(#f0da383b05)"><path fill="#ffffff" d="M 295.199219 427.832031 C 285.15625 417.789062 271.515625 412.105469 257.304688 412.105469 C 227.746094 412.105469 203.683594 436.167969 203.683594 465.726562 C 203.683594 479.9375 209.367188 493.578125 219.410156 503.621094 L 303.914062 588.125 C 315.851562 600.0625 307.328125 620.527344 290.464844 620.527344 C 285.347656 620.527344 280.609375 618.441406 277.011719 615.03125 L 194.019531 532.042969 C 182.652344 520.671875 173.746094 507.03125 169.390625 491.683594 C 160.671875 460.800781 168.253906 432.1875 184.546875 410.777344 L 184.546875 272.84375 C 184.546875 248.019531 166.738281 225.472656 142.105469 223.011719 C 113.683594 220.167969 89.808594 242.335938 89.808594 270.1875 L 89.808594 551.367188 C 89.808594 571.453125 97.769531 590.777344 111.980469 604.988281 L 192.316406 685.324219 C 199.515625 692.527344 203.496094 702 203.496094 712.042969 L 203.496094 810 L 430.863281 810 L 430.863281 595.136719 C 430.863281 575.050781 422.90625 555.726562 408.695312 541.515625 L 295.011719 427.832031 Z M 295.199219 427.832031 " fill-opacity="1" fill-rule="nonzero"/></g><path fill="#ffffff" d="M 757.707031 222.820312 C 733.074219 225.285156 715.261719 247.832031 715.261719 272.652344 L 715.261719 410.589844 C 731.746094 432.191406 739.328125 460.800781 730.421875 491.496094 C 726.0625 506.84375 717.15625 520.484375 705.789062 531.851562 L 622.800781 614.84375 C 619.199219 618.441406 614.464844 620.335938 609.347656 620.335938 C 592.484375 620.335938 583.957031 599.875 595.894531 587.9375 L 680.398438 503.433594 C 690.441406 493.390625 696.125 479.746094 696.125 465.535156 C 696.125 435.980469 672.0625 411.914062 642.503906 411.914062 C 628.292969 411.914062 614.652344 417.601562 604.609375 427.640625 L 490.925781 541.328125 C 476.714844 555.535156 468.757812 574.863281 468.757812 594.949219 L 468.757812 809.8125 L 696.125 809.8125 L 696.125 711.851562 C 696.125 701.8125 700.105469 692.148438 707.304688 685.136719 L 787.640625 604.800781 C 801.851562 590.589844 809.8125 571.261719 809.8125 551.179688 L 809.8125 270 C 809.8125 242.148438 785.9375 219.980469 757.515625 222.820312 Z M 757.707031 222.820312 " fill-opacity="1" fill-rule="nonzero"/></svg>