<svg xmlns="http://www.w3.org/2000/svg" xmlns:xlink="http://www.w3.org/1999/xlink" width="1200" zoomAndPan="magnify" viewBox="0 0 900 899.99999" height="1200" preserveAspectRatio="xMidYMid meet" version="1.0"><defs><clipPath id="65c8ae515f"><path d="M 90 139.277344 L 451 139.277344 L 451 500 L 90 500 Z M 90 139.277344 " clip-rule="nonzero"/></clipPath><clipPath id="2490408299"><path d="M 472 139.277344 L 810 139.277344 L 810 477 L 472 477 Z M 472 139.277344 " clip-rule="nonzero"/></clipPath></defs><g clip-path="url(#65c8ae515f)"><path fill="#ffffff" d="M 311.058594 443.910156 C 308.714844 441.566406 305.761719 440.058594 302.589844 439.480469 C 292.257812 442.261719 281.394531 443.75 270.183594 443.75 C 201.523438 443.75 145.863281 388.089844 145.863281 319.429688 C 145.863281 298.105469 151.234375 278.039062 160.691406 260.5 L 162.855469 253.707031 L 163.957031 254.808594 C 174.273438 237.886719 188.519531 223.625 205.429688 213.285156 L 204.367188 212.21875 L 210.804688 210.179688 C 228.445312 200.570312 248.679688 195.109375 270.183594 195.109375 C 338.84375 195.109375 394.503906 250.769531 394.503906 319.429688 C 394.503906 329.269531 393.359375 338.839844 391.199219 348.015625 C 391.882812 350.894531 393.359375 353.585938 395.480469 355.707031 L 437.109375 397.335938 C 441.15625 387.574219 443.3125 382.359375 450.328125 365.425781 L 422.449219 340.257812 C 422.449219 323.628906 422.449219 315.226562 422.449219 298.597656 L 450.328125 273.429688 C 440.21875 249.035156 440.195312 248.96875 430.089844 224.570312 L 392.582031 226.488281 C 380.824219 214.730469 374.882812 208.789062 363.121094 197.027344 L 365.039062 159.519531 C 340.640625 149.414062 340.578125 149.390625 316.179688 139.28125 L 291.011719 167.160156 C 274.378906 167.160156 265.980469 167.160156 249.351562 167.160156 L 224.183594 139.285156 C 199.789062 149.390625 199.726562 149.417969 175.328125 159.523438 L 177.246094 197.03125 C 165.484375 208.789062 159.546875 214.730469 147.785156 226.488281 L 110.277344 224.574219 C 100.171875 248.96875 100.144531 249.035156 90.039062 273.433594 L 117.914062 298.601562 C 117.914062 315.230469 117.914062 323.632812 117.914062 340.261719 L 90.039062 365.429688 C 100.144531 389.824219 100.171875 389.886719 110.277344 414.285156 L 147.785156 412.371094 C 159.542969 424.128906 165.484375 430.070312 177.246094 441.832031 L 175.328125 479.335938 C 199.726562 489.445312 199.789062 489.46875 224.1875 499.574219 L 249.355469 471.699219 C 265.984375 471.699219 274.386719 471.699219 291.015625 471.699219 L 316.183594 499.574219 C 335.363281 491.632812 339.507812 489.914062 352.25 484.636719 L 317.894531 450.746094 Z M 311.058594 443.910156 " fill-opacity="1" fill-rule="nonzero"/></g><path fill="#ffffff" d="M 245.242188 362.113281 L 171.210938 288.078125 C 159.761719 324.003906 168.285156 364.917969 196.789062 393.421875 C 222.734375 419.367188 258.96875 428.761719 292.359375 421.597656 C 303.832031 419.136719 315.769531 422.605469 324.066406 430.902344 L 330.898438 437.738281 L 486.769531 591.503906 C 499.636719 604.371094 507.558594 621.285156 509.554688 639.367188 C 511.277344 654.960938 518.019531 670.109375 529.792969 682.183594 C 557.722656 710.824219 604.070312 711.46875 632.75 683.578125 C 661.941406 655.1875 662.1875 608.507812 633.492188 579.8125 C 622.433594 568.753906 608.703125 561.996094 594.378906 559.53125 C 578.015625 556.722656 562.859375 549.101562 551.121094 537.363281 L 391.199219 377.4375 L 382.472656 368.710938 C 374.507812 360.75 370.914062 349.394531 372.910156 338.3125 C 378.773438 305.722656 369.039062 270.875 343.699219 245.777344 C 315.304688 217.65625 274.539062 209.292969 238.777344 220.617188 L 312.757812 294.597656 C 304.699219 327.988281 278.632812 354.054688 245.242188 362.113281 Z M 557.722656 605.933594 C 571.949219 591.707031 595.015625 591.707031 609.242188 605.933594 C 623.46875 620.160156 623.46875 643.226562 609.242188 657.453125 C 595.015625 671.679688 571.949219 671.679688 557.722656 657.453125 C 543.496094 643.226562 543.496094 620.160156 557.722656 605.933594 Z M 557.722656 605.933594 " fill-opacity="1" fill-rule="nonzero"/><path fill="#ffffff" d="M 710.210938 598.199219 C 702.949219 580.667969 702.929688 580.621094 695.667969 563.089844 L 668.710938 564.464844 C 660.261719 556.015625 655.992188 551.746094 647.539062 543.292969 L 648.917969 516.339844 C 631.382812 509.078125 631.335938 509.054688 613.804688 501.792969 L 595.71875 521.828125 C 583.765625 521.828125 577.726562 521.828125 565.777344 521.828125 L 564.699219 520.632812 L 562.554688 522.777344 L 564.132812 524.355469 C 573.066406 533.292969 584.605469 539.1875 597.496094 541.402344 C 616.140625 544.605469 633.089844 553.390625 646.503906 566.804688 C 663.738281 584.039062 673.230469 606.953125 673.230469 631.324219 C 673.230469 631.328125 673.230469 631.328125 673.230469 631.332031 C 673.230469 643.386719 670.902344 655.125 666.316406 666.226562 C 661.554688 677.738281 654.578125 688.015625 645.582031 696.765625 C 636.789062 705.3125 626.550781 711.890625 615.140625 716.308594 C 604.160156 720.558594 592.585938 722.636719 580.746094 722.472656 C 568.902344 722.3125 557.390625 719.921875 546.527344 715.371094 C 535.246094 710.648438 525.1875 703.800781 516.628906 695.023438 C 509.417969 687.628906 503.566406 679.164062 499.234375 669.859375 C 495.046875 660.867188 492.371094 651.285156 491.277344 641.386719 C 489.914062 629.046875 484.941406 617.4375 477.140625 608.1875 L 470.121094 615.210938 L 471.316406 616.289062 C 471.316406 628.242188 471.316406 634.28125 471.316406 646.230469 L 451.28125 664.316406 C 458.542969 681.851562 458.5625 681.898438 465.824219 699.429688 L 492.78125 698.054688 C 501.230469 706.503906 505.5 710.773438 513.949219 719.222656 L 512.574219 746.179688 C 530.109375 753.441406 530.152344 753.460938 547.6875 760.722656 L 565.773438 740.691406 C 577.726562 740.691406 583.765625 740.691406 595.714844 740.691406 L 613.800781 760.722656 C 631.335938 753.460938 631.382812 753.441406 648.914062 746.179688 L 647.539062 719.222656 C 655.988281 710.773438 660.257812 706.503906 668.710938 698.054688 L 695.667969 699.429688 C 702.929688 681.898438 702.949219 681.851562 710.210938 664.316406 L 690.175781 646.230469 C 690.175781 634.28125 690.175781 628.242188 690.175781 616.289062 Z M 710.210938 598.199219 " fill-opacity="1" fill-rule="nonzero"/><g clip-path="url(#2490408299)"><path fill="#ffffff" d="M 641.339844 139.285156 C 548.222656 139.285156 472.738281 214.769531 472.738281 307.886719 C 472.738281 401 548.222656 476.488281 641.339844 476.488281 C 734.457031 476.488281 809.941406 401 809.941406 307.886719 C 809.941406 214.769531 734.457031 139.285156 641.339844 139.285156 Z M 727.230469 295.179688 L 649.421875 429.949219 C 647.753906 432.835938 644.671875 434.613281 641.339844 434.613281 C 638.003906 434.613281 634.921875 432.835938 633.257812 429.949219 L 555.449219 295.179688 C 553.78125 292.292969 553.78125 288.734375 555.449219 285.847656 C 557.117188 282.960938 560.195312 281.183594 563.53125 281.183594 L 593.265625 281.183594 L 593.265625 210.464844 C 593.265625 205.308594 597.441406 201.132812 602.597656 201.132812 L 680.078125 201.132812 C 685.234375 201.132812 689.414062 205.308594 689.414062 210.464844 L 689.414062 281.179688 L 719.144531 281.179688 C 722.480469 281.179688 725.5625 282.957031 727.230469 285.84375 C 728.898438 288.734375 728.898438 292.292969 727.230469 295.179688 Z M 727.230469 295.179688 " fill-opacity="1" fill-rule="nonzero"/></g></svg>