<svg xmlns="http://www.w3.org/2000/svg" xmlns:xlink="http://www.w3.org/1999/xlink" width="1200" zoomAndPan="magnify" viewBox="0 0 900 899.99999" height="1200" preserveAspectRatio="xMidYMid meet" version="1.0"><defs><clipPath id="adee86132c"><path d="M 94 90 L 806 90 L 806 752.25 L 94 752.25 Z M 94 90 " clip-rule="nonzero"/></clipPath></defs><g clip-path="url(#adee86132c)"><path fill="#ffffff" d="M 450.03125 114.074219 C 439.855469 114.074219 439.855469 98.597656 450.03125 98.597656 C 618.117188 98.597656 757.183594 227.457031 771.46875 393.179688 L 791.152344 357.058594 C 796.023438 348.121094 809.566406 355.527344 804.699219 364.417969 L 771.996094 424.289062 C 769.195312 430.070312 761.960938 430.550781 758.359375 425.292969 L 717.289062 369.847656 C 714.753906 366.429688 715.496094 361.605469 718.914062 359.070312 C 722.332031 356.535156 727.15625 357.230469 729.691406 360.644531 L 756.207031 396.503906 C 743.605469 237.800781 610.757812 114.074219 450.03125 114.074219 Z M 108.910156 485.394531 C 104.039062 494.285156 90.539062 486.925781 95.363281 478.035156 L 128.066406 418.117188 C 130.910156 412.335938 138.148438 411.855469 141.734375 417.113281 L 182.800781 472.605469 C 185.304688 476.023438 184.59375 480.847656 181.179688 483.382812 C 177.761719 485.886719 172.9375 485.175781 170.402344 481.761719 L 143.882812 445.949219 C 156.5 604.605469 289.304688 728.378906 450.03125 728.378906 C 460.234375 728.378906 460.234375 743.855469 450.03125 743.855469 C 281.992188 743.855469 142.925781 614.949219 128.636719 449.242188 Z M 357.507812 388.308594 C 353.917969 390.582031 349.140625 389.5 346.898438 385.847656 C 344.65625 382.214844 345.753906 377.484375 349.359375 375.195312 L 439.5625 319.175781 L 415.582031 316.640625 C 405.5 315.542969 407.125 300.207031 417.207031 301.304688 L 463.265625 306.203125 C 468.429688 306.683594 471.601562 311.632812 469.976562 316.410156 L 456.570312 357.691406 C 453.417969 367.339844 438.726562 362.5625 441.882812 352.914062 L 448.808594 331.609375 Z M 411.640625 501.691406 L 334.855469 501.691406 C 330.601562 501.691406 327.140625 498.226562 327.140625 493.929688 L 327.140625 425.523438 C 327.140625 421.226562 330.601562 417.761719 334.855469 417.761719 L 403.921875 417.761719 L 403.921875 400.183594 C 403.921875 395.929688 407.386719 392.46875 411.640625 392.46875 L 480.707031 392.46875 L 480.707031 357.058594 C 480.707031 352.761719 484.171875 349.296875 488.421875 349.296875 L 565.253906 349.296875 C 569.503906 349.296875 572.96875 352.761719 572.96875 357.058594 L 572.96875 493.945312 C 572.96875 498.242188 569.503906 501.707031 565.253906 501.707031 L 411.640625 501.707031 Z M 403.921875 433.238281 L 342.554688 433.238281 L 342.554688 486.226562 L 403.921875 486.226562 Z M 480.707031 407.898438 L 419.386719 407.898438 L 419.386719 486.226562 L 480.707031 486.226562 Z M 557.507812 364.773438 L 496.183594 364.773438 L 496.183594 486.226562 L 557.507812 486.226562 Z M 655.289062 471.414062 L 618.953125 471.414062 C 615.441406 483.214844 610.804688 494.375 604.976562 505.121094 L 624.78125 524.929688 C 669.484375 521.03125 708.058594 556.347656 708.058594 601.328125 C 708.058594 643.660156 673.734375 677.988281 631.398438 677.988281 C 587.535156 677.988281 552.511719 641.296875 554.878906 597.027344 L 533.972656 576.125 C 523.195312 581.953125 512.019531 586.59375 500.265625 590.101562 L 500.265625 625.167969 L 510.039062 625.167969 L 510.039062 625.214844 C 513.503906 625.214844 516.609375 627.535156 517.539062 631 C 519.78125 639.625 524.851562 652.953125 529.597656 660.316406 C 531.699219 663.296875 531.4375 667.503906 528.714844 670.226562 L 507.671875 691.269531 L 541.425781 725.070312 L 562.5 703.996094 L 562.5 704.039062 C 564.914062 701.628906 568.761719 701.011719 571.839844 702.851562 C 579.554688 707.367188 592.4375 713.148438 601.125 715.082031 C 604.757812 715.699219 607.527344 718.855469 607.527344 722.65625 L 607.527344 752.421875 L 655.304688 752.421875 L 655.304688 722.65625 C 655.304688 719.238281 657.625 716.132812 661.085938 715.203125 C 669.714844 712.960938 683.042969 707.890625 690.402344 703.144531 C 693.433594 700.996094 697.640625 701.304688 700.3125 703.980469 L 721.355469 725.054688 L 755.15625 691.253906 L 734.113281 670.210938 C 731.703125 667.796875 731.082031 663.949219 732.921875 660.871094 C 737.4375 653.109375 743.21875 640.230469 745.152344 631.554688 C 745.773438 627.921875 748.972656 625.152344 752.777344 625.152344 L 782.492188 625.152344 L 782.492188 577.421875 L 752.777344 577.421875 C 749.3125 577.421875 746.203125 575.105469 745.277344 571.640625 C 743.035156 563.011719 737.964844 549.636719 733.21875 542.324219 C 731.113281 539.292969 731.375 535.089844 734.097656 532.382812 L 755.125 511.339844 L 721.328125 477.585938 L 700.28125 498.628906 C 697.871094 501.039062 694.019531 501.613281 690.945312 499.820312 C 683.226562 495.304688 670.347656 489.476562 661.628906 487.589844 C 658.039062 486.925781 655.273438 483.769531 655.273438 479.964844 L 655.273438 471.414062 Z M 638.542969 540.53125 C 639.023438 542.988281 638.328125 545.664062 636.441406 547.550781 L 576.402344 607.589844 C 574.871094 609.121094 572.8125 609.910156 570.789062 609.863281 C 574.996094 639.796875 600.675781 662.496094 631.398438 662.496094 C 665.199219 662.496094 692.582031 635.097656 692.582031 601.3125 C 692.582031 570.0625 669.140625 544.085938 638.542969 540.53125 Z M 244.820312 371.003906 L 281.15625 371.003906 C 284.664062 359.207031 289.257812 348.074219 295.132812 337.296875 L 275.324219 317.492188 C 230.53125 321.433594 192 286.027344 192 241.140625 C 192 198.804688 226.359375 164.433594 268.707031 164.433594 C 312.574219 164.433594 347.59375 201.203125 345.230469 245.421875 L 366.132812 266.328125 C 376.863281 260.453125 388.042969 255.8125 399.839844 252.304688 L 399.839844 217.253906 L 390.023438 217.253906 L 390.023438 217.207031 C 386.605469 217.253906 383.5 214.933594 382.570312 211.46875 C 380.328125 202.839844 375.210938 189.46875 370.511719 182.152344 C 368.359375 179.121094 368.671875 174.917969 371.34375 172.210938 L 392.390625 151.167969 L 358.636719 117.414062 L 337.589844 138.457031 L 337.546875 138.457031 C 335.132812 140.871094 331.3125 141.441406 328.207031 139.648438 C 320.492188 135.132812 307.609375 129.304688 298.921875 127.417969 C 295.289062 126.753906 292.519531 123.597656 292.519531 119.796875 L 292.519531 90.015625 L 244.820312 90.015625 L 244.820312 119.78125 L 244.773438 119.78125 C 244.773438 123.195312 242.5 126.351562 239.035156 127.234375 C 230.363281 129.472656 217.035156 134.59375 209.722656 139.292969 C 206.691406 141.441406 202.484375 141.179688 199.777344 138.457031 L 178.734375 117.398438 L 144.980469 151.152344 L 166.027344 172.195312 L 165.980469 172.242188 C 168.4375 174.652344 169.007812 178.472656 167.199219 181.582031 C 162.640625 189.296875 156.855469 202.175781 154.96875 210.867188 C 154.304688 214.5 151.152344 217.265625 147.347656 217.265625 L 117.582031 217.265625 L 117.582031 265 L 147.347656 265 L 147.347656 265.042969 C 150.765625 265.042969 153.917969 267.316406 154.800781 270.828125 C 157.042969 279.457031 162.160156 292.785156 166.859375 300.144531 C 169.007812 303.128906 168.746094 307.332031 166.027344 310.054688 L 144.980469 331.097656 L 178.734375 364.898438 L 199.777344 343.824219 L 199.824219 343.871094 C 202.238281 341.457031 206.054688 340.839844 209.164062 342.648438 C 216.878906 347.210938 229.757812 352.992188 238.449219 354.925781 C 242.082031 355.542969 244.851562 358.699219 244.851562 362.5 L 244.851562 371.003906 Z M 261.566406 301.921875 C 261.039062 299.464844 261.734375 296.789062 263.667969 294.871094 L 323.707031 234.832031 C 325.238281 233.300781 327.261719 232.558594 329.273438 232.589844 C 325.113281 202.609375 299.386719 179.910156 268.707031 179.910156 C 234.878906 179.910156 207.480469 207.308594 207.480469 241.140625 C 207.480469 272.34375 230.933594 298.382812 261.566406 301.921875 Z M 511.523438 272.683594 C 504.90625 269.914062 498.117188 267.597656 491.191406 265.800781 C 487.558594 265.136719 484.789062 261.984375 484.789062 258.179688 L 484.789062 215.535156 L 415.320312 215.535156 L 415.320312 258.179688 L 415.273438 258.179688 C 415.273438 261.597656 413 264.703125 409.535156 265.632812 C 402.394531 267.472656 395.371094 269.839844 388.539062 272.683594 C 381.828125 275.449219 375.394531 278.636719 369.257812 282.238281 C 366.226562 284.339844 362.019531 284.078125 359.347656 281.355469 L 329.195312 251.207031 L 280.058594 300.34375 L 310.207031 330.496094 L 310.160156 330.496094 C 312.621094 332.953125 313.191406 336.757812 311.382812 339.878906 C 307.65625 346.144531 304.363281 352.808594 301.472656 359.734375 C 298.703125 366.351562 296.433594 373.140625 294.589844 380.066406 C 293.972656 383.699219 290.773438 386.46875 286.96875 386.46875 L 244.371094 386.46875 L 244.371094 455.9375 L 286.96875 455.9375 L 286.96875 455.984375 C 290.433594 455.984375 293.539062 458.257812 294.46875 461.722656 C 296.308594 468.863281 298.671875 475.882812 301.488281 482.71875 C 304.285156 489.429688 307.488281 495.859375 311.042969 502 C 313.191406 505.03125 312.929688 509.234375 310.207031 511.910156 L 280.058594 542.0625 L 329.195312 591.199219 L 359.347656 561.046875 L 359.347656 561.09375 C 361.757812 558.636719 365.609375 558.066406 368.683594 559.875 C 374.992188 563.601562 381.613281 566.894531 388.539062 569.785156 C 395.203125 572.507812 401.992188 574.824219 408.917969 576.664062 C 412.550781 577.285156 415.320312 580.484375 415.320312 584.289062 L 415.320312 626.886719 L 484.789062 626.886719 L 484.789062 584.289062 C 484.789062 580.824219 487.109375 577.714844 490.570312 576.789062 C 497.714844 574.949219 504.734375 572.582031 511.523438 569.769531 C 518.28125 566.96875 524.710938 563.769531 530.804688 560.214844 C 533.835938 558.066406 538.039062 558.328125 540.746094 561.046875 L 570.898438 591.199219 L 620.035156 542.0625 L 589.882812 511.910156 C 587.472656 509.5 586.898438 505.648438 588.695312 502.570312 C 592.375 496.261719 595.714844 489.644531 598.558594 482.71875 C 601.328125 476.054688 603.644531 469.265625 605.484375 462.339844 C 606.105469 458.707031 609.257812 455.9375 613.0625 455.9375 L 655.707031 455.9375 L 655.707031 386.46875 L 613.0625 386.46875 C 609.644531 386.46875 606.535156 384.148438 605.609375 380.683594 C 603.769531 373.542969 601.402344 366.523438 598.558594 359.734375 C 595.789062 352.976562 592.589844 346.542969 589.003906 340.453125 C 586.898438 337.421875 587.164062 333.214844 589.882812 330.511719 L 620.035156 300.359375 L 570.898438 251.222656 L 540.746094 281.371094 C 538.289062 283.785156 534.484375 284.402344 531.359375 282.5625 C 525.113281 278.867188 518.449219 275.542969 511.523438 272.683594 Z M 511.523438 272.683594 " fill-opacity="1" fill-rule="nonzero"/></g></svg>