<svg xmlns="http://www.w3.org/2000/svg" xmlns:xlink="http://www.w3.org/1999/xlink" width="1200" zoomAndPan="magnify" viewBox="0 0 900 899.99999" height="1200" preserveAspectRatio="xMidYMid meet" version="1.0"><defs><clipPath id="7c821ac530"><path d="M 161.609375 689 L 687 689 L 687 710 L 161.609375 710 Z M 161.609375 689 " clip-rule="nonzero"/></clipPath><clipPath id="4df1ed0c03"><path d="M 669 253 L 738.359375 253 L 738.359375 337 L 669 337 Z M 669 253 " clip-rule="nonzero"/></clipPath></defs><path fill="#ffffff" d="M 216.6875 563.863281 C 212.96875 563.863281 209.589844 561.835938 207.5625 558.457031 C 205.199219 553.730469 206.886719 547.308594 211.957031 544.945312 L 527.203125 378.703125 C 532.273438 376 538.355469 378.027344 541.058594 383.09375 C 543.421875 387.824219 541.734375 393.90625 536.664062 396.609375 L 221.417969 562.851562 C 219.726562 563.527344 218.375 563.863281 216.6875 563.863281 Z M 216.6875 563.863281 " fill-opacity="1" fill-rule="evenodd"/><path fill="#ffffff" d="M 520.109375 442.5625 C 519.09375 442.5625 518.417969 442.226562 517.40625 442.226562 C 512 440.535156 508.621094 435.128906 510.308594 429.722656 L 519.433594 394.921875 L 484.628906 385.460938 C 479.222656 384.109375 476.183594 378.363281 477.535156 372.957031 C 478.886719 367.550781 484.628906 364.511719 490.035156 365.863281 L 534.636719 378.027344 C 537.339844 378.703125 539.367188 380.390625 540.71875 382.757812 C 542.070312 384.785156 542.410156 387.824219 541.734375 390.191406 L 529.90625 434.792969 C 528.554688 439.523438 524.5 442.5625 520.109375 442.5625 Z M 520.109375 442.5625 " fill-opacity="1" fill-rule="evenodd"/><path fill="#ffffff" d="M 658.640625 709.496094 L 599.851562 709.496094 C 594.105469 709.496094 589.714844 705.101562 589.714844 699.359375 L 589.714844 392.894531 C 589.714844 387.488281 594.105469 382.757812 599.851562 382.757812 L 658.640625 382.757812 C 664.046875 382.757812 668.777344 387.488281 668.777344 392.894531 L 668.777344 699.359375 C 668.777344 705.101562 664.046875 709.496094 658.640625 709.496094 Z M 658.640625 709.496094 " fill-opacity="1" fill-rule="evenodd"/><path fill="#ffffff" d="M 555.925781 709.496094 L 497.132812 709.496094 C 491.726562 709.496094 486.996094 705.101562 486.996094 699.359375 L 486.996094 464.527344 C 486.996094 458.78125 491.726562 454.390625 497.132812 454.390625 L 555.925781 454.390625 C 561.667969 454.390625 566.0625 458.78125 566.0625 464.527344 L 566.0625 699.359375 C 566.0625 705.101562 561.667969 709.496094 555.925781 709.496094 Z M 555.925781 709.496094 " fill-opacity="1" fill-rule="evenodd"/><path fill="#ffffff" d="M 453.546875 709.496094 L 394.753906 709.496094 C 389.007812 709.496094 384.617188 705.101562 384.617188 699.359375 L 384.617188 523.320312 C 384.617188 517.574219 389.007812 513.183594 394.753906 513.183594 L 453.546875 513.183594 C 458.953125 513.183594 463.683594 517.574219 463.683594 523.320312 L 463.683594 699.359375 C 463.683594 705.101562 458.953125 709.496094 453.546875 709.496094 Z M 453.546875 709.496094 " fill-opacity="1" fill-rule="evenodd"/><path fill="#ffffff" d="M 350.828125 709.496094 L 292.035156 709.496094 C 286.628906 709.496094 281.898438 705.101562 281.898438 699.359375 L 281.898438 569.269531 C 281.898438 563.527344 286.628906 559.132812 292.035156 559.132812 L 350.828125 559.132812 C 356.570312 559.132812 360.964844 563.527344 360.964844 569.269531 L 360.964844 699.359375 C 360.964844 705.101562 356.570312 709.496094 350.828125 709.496094 Z M 350.828125 709.496094 " fill-opacity="1" fill-rule="evenodd"/><path fill="#ffffff" d="M 248.449219 709.496094 L 189.65625 709.496094 C 183.910156 709.496094 179.519531 705.101562 179.519531 699.359375 L 179.519531 615.222656 C 179.519531 609.816406 183.910156 605.085938 189.65625 605.085938 L 248.449219 605.085938 C 253.855469 605.085938 258.585938 609.816406 258.585938 615.222656 L 258.585938 699.359375 C 258.585938 705.101562 253.855469 709.496094 248.449219 709.496094 Z M 248.449219 709.496094 " fill-opacity="1" fill-rule="evenodd"/><g clip-path="url(#7c821ac530)"><path fill="#ffffff" d="M 676.550781 709.496094 L 171.746094 709.496094 C 166.339844 709.496094 161.609375 705.101562 161.609375 699.359375 C 161.609375 693.953125 166.339844 689.222656 171.746094 689.222656 L 676.550781 689.222656 C 681.957031 689.222656 686.6875 693.953125 686.6875 699.359375 C 686.6875 705.101562 681.957031 709.496094 676.550781 709.496094 Z M 676.550781 709.496094 " fill-opacity="1" fill-rule="evenodd"/></g><path fill="#ffffff" d="M 629.246094 403.03125 C 623.503906 403.03125 619.109375 398.636719 619.109375 392.894531 L 619.109375 339.847656 C 619.109375 334.441406 623.503906 329.710938 629.246094 329.710938 C 634.652344 329.710938 639.382812 334.441406 639.382812 339.847656 L 639.382812 392.894531 C 639.382812 398.636719 634.652344 403.03125 629.246094 403.03125 Z M 629.246094 403.03125 " fill-opacity="1" fill-rule="evenodd"/><path fill="#ffffff" d="M 678.578125 362.148438 L 629.246094 362.148438 C 623.503906 362.148438 619.109375 357.753906 619.109375 352.011719 L 619.109375 289.5 C 619.109375 283.757812 623.503906 279.363281 629.246094 279.363281 L 678.578125 279.363281 C 684.320312 279.363281 688.714844 283.757812 688.714844 289.5 L 688.714844 352.011719 C 688.714844 357.753906 684.320312 362.148438 678.578125 362.148438 Z M 678.578125 362.148438 " fill-opacity="1" fill-rule="evenodd"/><g clip-path="url(#4df1ed0c03)"><path fill="#ffffff" d="M 728.246094 336.46875 L 708.988281 336.46875 L 708.988281 289.5 C 708.988281 272.605469 695.472656 259.089844 678.578125 259.089844 L 669.453125 259.089844 C 671.144531 255.710938 674.523438 253.347656 678.578125 253.347656 L 728.246094 253.347656 C 733.652344 253.347656 738.382812 257.738281 738.382812 263.484375 L 738.382812 326.332031 C 738.382812 331.738281 733.652344 336.46875 728.246094 336.46875 Z M 728.246094 336.46875 " fill-opacity="1" fill-rule="evenodd"/></g><path fill="#ffffff" d="M 322.105469 462.5 L 280.546875 462.5 C 277.84375 462.5 275.140625 461.148438 273.113281 459.121094 C 271.085938 457.09375 270.074219 454.050781 270.410156 451.347656 L 272.777344 422.964844 C 266.019531 420.9375 259.261719 418.234375 253.179688 414.855469 L 234.933594 436.480469 C 232.90625 438.847656 230.203125 440.199219 227.5 440.199219 C 224.457031 440.199219 221.753906 439.183594 219.726562 437.15625 L 190.667969 407.761719 C 188.640625 405.734375 187.628906 403.03125 187.628906 400.328125 C 187.628906 397.625 188.980469 394.921875 191.34375 392.894531 L 212.96875 374.648438 C 209.589844 368.226562 206.886719 361.808594 204.859375 354.714844 L 176.476562 357.417969 C 173.4375 357.417969 170.734375 356.742188 168.707031 354.714844 C 166.679688 352.6875 165.328125 349.984375 165.328125 347.28125 L 165.328125 305.71875 C 165.328125 303.015625 166.679688 300.3125 168.707031 298.285156 C 170.734375 296.257812 173.4375 295.582031 176.476562 295.582031 L 204.859375 298.285156 C 206.886719 291.191406 209.589844 284.769531 212.96875 278.351562 L 191.34375 260.105469 C 188.980469 258.078125 187.628906 255.375 187.628906 252.671875 C 187.628906 249.96875 188.640625 246.925781 190.667969 245.238281 L 219.726562 215.839844 C 221.753906 213.8125 224.457031 212.800781 227.5 212.800781 C 230.203125 212.800781 232.90625 214.152344 234.933594 216.515625 L 253.179688 238.140625 C 259.261719 234.761719 266.019531 232.058594 272.777344 230.03125 L 270.410156 201.648438 C 270.074219 198.945312 271.085938 195.90625 273.113281 193.878906 C 275.140625 191.851562 277.84375 190.5 280.546875 190.5 L 322.105469 190.5 C 324.808594 190.5 327.511719 191.851562 329.539062 193.878906 C 331.230469 195.90625 332.242188 198.945312 331.90625 201.648438 L 329.539062 230.03125 C 336.636719 232.058594 343.054688 234.761719 349.476562 238.140625 L 367.722656 216.515625 C 369.75 214.152344 372.113281 212.800781 375.15625 212.800781 C 377.859375 212.800781 380.5625 213.8125 382.589844 215.839844 L 411.984375 244.898438 C 414.011719 246.925781 415.027344 249.96875 415.027344 252.671875 C 414.6875 255.375 413.335938 258.078125 411.308594 260.105469 L 389.683594 278.351562 C 393.0625 284.769531 395.765625 291.191406 397.792969 298.285156 L 426.175781 295.582031 C 428.878906 295.582031 431.582031 296.257812 433.949219 298.285156 C 435.976562 300.3125 436.988281 303.015625 436.988281 305.71875 L 436.988281 347.28125 C 436.988281 349.984375 435.976562 352.6875 433.949219 354.714844 C 431.582031 356.742188 428.878906 357.417969 426.175781 357.417969 L 397.792969 354.714844 C 395.765625 361.808594 393.0625 368.226562 389.683594 374.648438 L 411.308594 392.894531 C 413.335938 394.921875 414.6875 397.625 415.027344 400.328125 C 415.027344 403.03125 414.011719 405.734375 411.984375 407.761719 L 382.589844 437.15625 C 380.5625 439.183594 377.859375 440.199219 375.15625 440.199219 C 372.113281 440.199219 369.75 438.847656 367.722656 436.480469 L 349.476562 414.855469 C 343.054688 418.234375 336.636719 420.9375 329.539062 422.964844 L 331.90625 451.347656 C 332.242188 454.050781 331.230469 457.09375 329.539062 459.121094 C 327.511719 461.148438 324.808594 462.5 322.105469 462.5 Z M 301.15625 388.5 C 267.03125 388.5 239.324219 360.796875 239.324219 326.332031 C 239.324219 292.203125 267.03125 264.496094 301.15625 264.496094 C 335.621094 264.496094 363.328125 292.203125 363.328125 326.332031 C 363.328125 360.796875 335.621094 388.5 301.15625 388.5 Z M 301.15625 388.5 " fill-opacity="1" fill-rule="evenodd"/></svg>