<svg xmlns="http://www.w3.org/2000/svg" xmlns:xlink="http://www.w3.org/1999/xlink" width="1200" zoomAndPan="magnify" viewBox="0 0 900 899.99999" height="1200" preserveAspectRatio="xMidYMid meet" version="1.0"><path fill="#ffffff" d="M 734.109375 774.695312 L 165.890625 774.695312 C 167.21875 656.261719 162.5625 593.71875 239.078125 565.773438 C 308.941406 539.15625 350.195312 511.878906 350.195312 511.878906 L 404.089844 681.546875 L 411.410156 704.832031 L 435.363281 636.300781 C 380.136719 559.117188 439.355469 555.792969 450 555.792969 C 459.980469 555.792969 519.863281 559.785156 464.636719 636.300781 L 488.589844 704.167969 L 495.910156 680.878906 L 549.804688 511.878906 C 549.804688 511.878906 591.722656 539.15625 660.921875 565.773438 C 737.4375 593.71875 732.78125 656.925781 734.109375 774.695312 Z M 370.820312 189.839844 C 383.464844 181.855469 396.769531 176.535156 410.742188 173.207031 L 416.730469 136.613281 C 418.0625 129.957031 423.386719 125.300781 430.703125 125.300781 L 466.632812 125.300781 C 473.289062 125.300781 479.277344 129.957031 480.605469 136.613281 L 486.59375 173.207031 C 500.566406 176.535156 513.210938 181.855469 525.851562 189.175781 L 556.457031 167.882812 C 561.78125 163.890625 569.765625 164.558594 574.421875 169.214844 L 587.066406 181.855469 L 599.707031 194.5 C 604.363281 199.15625 605.03125 207.140625 601.039062 212.464844 L 579.746094 242.40625 C 587.066406 255.046875 592.386719 267.6875 596.378906 281.660156 L 632.976562 287.648438 C 639.628906 288.980469 644.285156 294.304688 644.953125 301.621094 L 644.953125 337.550781 C 644.953125 344.207031 640.292969 350.195312 633.640625 351.523438 L 597.046875 357.511719 C 593.71875 371.484375 588.394531 384.128906 581.078125 396.769531 L 602.367188 426.710938 C 606.359375 432.035156 605.695312 440.019531 601.039062 444.675781 L 588.394531 457.316406 L 575.753906 469.960938 C 569.765625 476.613281 562.445312 477.277344 556.457031 473.285156 L 526.515625 451.996094 C 514.539062 459.3125 501.234375 464.636719 487.925781 467.964844 L 481.9375 504.558594 C 480.605469 511.210938 475.285156 515.871094 467.964844 515.871094 L 432.035156 515.871094 C 425.382812 515.871094 419.394531 511.210938 418.0625 504.558594 L 412.074219 468.628906 C 398.765625 465.300781 385.460938 459.980469 372.816406 452.660156 L 342.210938 473.953125 C 336.886719 477.945312 328.902344 477.277344 324.246094 472.621094 L 298.960938 447.335938 C 294.304688 442.679688 293.640625 434.695312 297.632812 429.371094 L 318.921875 399.429688 C 311.605469 386.789062 306.28125 374.148438 302.289062 360.175781 L 265.695312 354.1875 C 259.039062 352.855469 254.382812 347.53125 253.71875 340.214844 L 253.71875 304.285156 C 253.71875 297.628906 258.375 291.640625 265.027344 290.3125 L 300.957031 284.324219 C 304.285156 271.015625 309.609375 257.707031 316.925781 245.066406 L 295.636719 214.460938 C 291.644531 209.136719 292.308594 201.152344 296.964844 196.496094 L 322.914062 170.546875 C 327.574219 165.886719 335.558594 165.222656 340.878906 169.214844 Z M 541.820312 372.152344 L 513.875 372.152344 C 507.886719 390.78125 499.902344 406.085938 491.253906 418.0625 C 512.542969 408.746094 530.507812 392.113281 541.820312 372.152344 Z M 550.46875 290.3125 L 518.53125 290.3125 C 519.863281 299.625 521.195312 309.605469 521.195312 320.253906 C 521.195312 330.898438 520.527344 340.878906 518.53125 350.195312 L 550.46875 350.195312 C 553.132812 340.878906 555.128906 330.898438 555.128906 320.253906 C 555.128906 309.605469 553.796875 300.292969 550.46875 290.3125 Z M 491.253906 223.109375 C 499.902344 235.085938 508.550781 250.390625 513.875 269.019531 L 541.820312 269.019531 C 530.507812 249.058594 512.542969 232.425781 491.253906 223.109375 Z M 459.980469 269.019531 L 491.253906 269.019531 C 482.601562 245.730469 469.960938 229.761719 459.980469 219.117188 Z M 459.980469 350.859375 L 497.242188 350.859375 C 499.238281 341.542969 499.902344 331.5625 499.902344 320.917969 C 499.902344 310.273438 498.570312 300.292969 497.242188 290.976562 L 459.980469 290.976562 Z M 459.980469 422.054688 C 469.960938 411.40625 483.269531 395.4375 491.253906 372.152344 L 459.980469 372.152344 Z M 347.535156 350.859375 L 379.472656 350.859375 C 378.140625 341.542969 376.808594 331.5625 376.808594 320.917969 C 376.808594 310.273438 377.476562 300.292969 379.472656 290.976562 L 347.535156 290.976562 C 344.871094 300.292969 343.542969 310.273438 343.542969 320.917969 C 343.542969 331.5625 344.871094 340.878906 347.535156 350.859375 Z M 407.417969 418.0625 C 398.765625 406.085938 390.117188 390.78125 384.792969 372.152344 L 356.847656 372.152344 C 368.160156 392.113281 386.125 408.746094 407.417969 418.0625 Z M 438.6875 372.152344 L 407.417969 372.152344 C 416.066406 395.4375 428.707031 411.40625 438.6875 422.054688 Z M 438.6875 290.3125 L 401.429688 290.3125 C 399.433594 299.625 398.765625 309.605469 398.765625 320.253906 C 398.765625 330.898438 400.097656 340.878906 401.429688 350.195312 L 438.6875 350.195312 Z M 406.75 269.019531 L 438.023438 269.019531 L 438.023438 219.117188 C 428.042969 229.761719 415.402344 245.730469 406.75 269.019531 Z M 356.847656 269.019531 L 384.792969 269.019531 C 390.78125 250.390625 398.765625 235.085938 407.417969 223.109375 C 386.125 232.425781 368.160156 249.058594 356.847656 269.019531 Z M 356.847656 269.019531 " fill-opacity="1" fill-rule="nonzero"/></svg>