<svg xmlns="http://www.w3.org/2000/svg" xmlns:xlink="http://www.w3.org/1999/xlink" width="1200" zoomAndPan="magnify" viewBox="0 0 900 899.99999" height="1200" preserveAspectRatio="xMidYMid meet" version="1.0"><defs><clipPath id="e4fabada3b"><path d="M 132.726562 140 L 808 140 L 808 810 L 132.726562 810 Z M 132.726562 140 " clip-rule="nonzero"/></clipPath></defs><g clip-path="url(#e4fabada3b)"><path fill="#ffffff" d="M 637.207031 549.363281 C 709 549.363281 767.203125 607.5625 767.203125 679.355469 C 767.203125 751.152344 709 809.351562 637.207031 809.351562 C 565.414062 809.351562 507.210938 751.152344 507.210938 679.355469 C 507.210938 607.5625 565.414062 549.363281 637.207031 549.363281 Z M 454.417969 271.949219 C 349.46875 271.949219 264.390625 357.027344 264.390625 461.976562 C 264.390625 515.675781 286.671875 564.164062 322.480469 598.722656 C 342.574219 563.851562 375.925781 537.832031 415.144531 527.277344 C 362.296875 500.589844 350.570312 429.78125 392.71875 387.636719 C 426.796875 353.558594 482.042969 353.558594 516.121094 387.636719 C 558.265625 429.78125 546.542969 500.589844 493.695312 527.277344 C 514.234375 532.804688 533.09375 542.550781 549.28125 555.523438 C 572.980469 538.667969 601.730469 528.445312 632.816406 527.5625 C 640.335938 507.121094 644.445312 485.03125 644.445312 461.976562 C 644.449219 357.027344 559.371094 271.949219 454.417969 271.949219 Z M 728.238281 453.039062 L 703.191406 453.039062 C 697.828125 453.035156 694.542969 459.21875 697.972656 463.660156 L 747.039062 527.152344 C 749.679688 530.570312 754.828125 530.570312 757.46875 527.152344 L 806.535156 463.65625 C 809.964844 459.214844 806.679688 453.035156 801.316406 453.035156 L 775.980469 453.035156 C 771.246094 279.507812 629.089844 140.28125 454.417969 140.28125 C 276.757812 140.285156 132.726562 284.316406 132.726562 461.976562 C 132.726562 639.636719 276.757812 783.671875 454.417969 783.671875 L 454.417969 735.957031 C 303.101562 735.957031 180.441406 613.296875 180.441406 461.976562 C 180.441406 310.660156 303.097656 188 454.417969 188 C 602.746094 188 723.519531 305.859375 728.238281 453.039062 Z M 488.386719 648.976562 C 494.644531 618.167969 510.230469 590.746094 532.0625 569.789062 C 467.738281 521.78125 376.824219 543.1875 339.394531 613.238281 C 381.125 645.023438 434.917969 658.628906 488.386719 648.976562 Z M 454.421875 383.945312 C 490.539062 383.945312 519.8125 413.222656 519.8125 449.335938 C 519.8125 485.453125 490.539062 514.726562 454.421875 514.726562 C 418.304688 514.726562 389.03125 485.453125 389.03125 449.335938 C 389.027344 413.222656 418.304688 383.945312 454.421875 383.945312 Z M 675.257812 628.453125 L 618.980469 685.261719 L 598.90625 665.691406 C 590.476562 657.492188 576.996094 657.675781 568.796875 666.105469 C 560.597656 674.535156 560.785156 688.015625 569.214844 696.214844 L 604.398438 730.511719 C 612.746094 738.632812 626.101562 738.542969 634.339844 730.261719 L 705.453125 658.480469 C 713.742188 650.144531 713.707031 636.664062 705.371094 628.371094 C 697.03125 620.078125 683.550781 620.117188 675.257812 628.453125 Z M 675.257812 628.453125 " fill-opacity="1" fill-rule="evenodd"/></g></svg>