<svg xmlns="http://www.w3.org/2000/svg" xmlns:xlink="http://www.w3.org/1999/xlink" width="1200" zoomAndPan="magnify" viewBox="0 0 900 899.99999" height="1200" preserveAspectRatio="xMidYMid meet" version="1.0"><defs><clipPath id="288176848e"><path d="M 90 90.101562 L 810 90.101562 L 810 809.898438 L 90 809.898438 Z M 90 90.101562 " clip-rule="nonzero"/></clipPath><clipPath id="bcc8202f50"><path d="M 165 90.101562 L 735 90.101562 C 776.421875 90.101562 810 123.679688 810 165.101562 L 810 734.898438 C 810 776.320312 776.421875 809.898438 735 809.898438 L 165 809.898438 C 123.578125 809.898438 90 776.320312 90 734.898438 L 90 165.101562 C 90 123.679688 123.578125 90.101562 165 90.101562 Z M 165 90.101562 " clip-rule="nonzero"/></clipPath><clipPath id="345353da7b"><path d="M 572 524 L 733 524 L 733 726.039062 L 572 726.039062 Z M 572 524 " clip-rule="nonzero"/></clipPath><clipPath id="e2150b7820"><path d="M 215 154.539062 L 440 154.539062 L 440 378 L 215 378 Z M 215 154.539062 " clip-rule="nonzero"/></clipPath><clipPath id="e669f41cee"><path d="M 185.539062 352 L 261 352 L 261 492 L 185.539062 492 Z M 185.539062 352 " clip-rule="nonzero"/></clipPath></defs><g clip-path="url(#288176848e)"><g clip-path="url(#bcc8202f50)"><path fill="#3294cd" d="M 90 90.101562 L 809.796875 90.101562 L 809.796875 809.898438 L 90 809.898438 Z M 90 90.101562 " fill-opacity="1" fill-rule="nonzero"/></g></g><path fill="#000002" d="M 393.398438 682.503906 C 352.078125 682.503906 316.339844 673.574219 288.417969 655.714844 C 251.566406 632.277344 228.113281 617.765625 214.710938 609.953125 C 193.492188 598.789062 187.90625 580.929688 190.140625 568.652344 C 193.492188 557.488281 203.542969 550.792969 215.828125 550.792969 C 221.410156 550.792969 228.113281 551.910156 234.8125 555.257812 L 328.625 592.09375 C 329.742188 592.09375 348.726562 598.789062 373.296875 598.789062 C 395.632812 598.789062 414.617188 593.207031 431.367188 583.164062 C 448.121094 573.117188 457.054688 555.257812 454.820312 551.910156 C 454.820312 551.910156 454.820312 551.910156 451.472656 551.910156 C 449.238281 551.910156 444.769531 551.910156 438.070312 554.140625 C 414.617188 561.953125 394.515625 565.304688 379.996094 565.304688 C 350.960938 565.304688 347.609375 553.023438 346.492188 547.445312 C 345.375 536.28125 356.542969 525.121094 374.414062 521.769531 C 381.113281 520.65625 421.316406 505.027344 447.003906 494.980469 C 447.003906 493.867188 471.574219 482.703125 509.542969 482.703125 C 546.398438 482.703125 581.019531 493.867188 614.523438 516.191406 L 644.675781 534.050781 L 567.617188 667.996094 C 555.332031 663.53125 539.699219 660.179688 524.0625 660.179688 C 515.128906 660.179688 507.3125 661.296875 500.609375 663.53125 C 477.15625 672.460938 435.835938 682.503906 393.398438 682.503906 Z M 393.398438 682.503906 " fill-opacity="1" fill-rule="evenodd"/><g clip-path="url(#345353da7b)"><path fill="#000002" d="M 635.742188 726.039062 C 634.625 726.039062 633.507812 726.039062 632.390625 724.921875 L 576.550781 692.550781 C 573.203125 691.433594 572.085938 686.96875 573.203125 683.621094 L 663.664062 527.351562 C 664.777344 526.234375 665.894531 525.121094 668.128906 524.003906 C 669.246094 524.003906 671.480469 524.003906 672.597656 525.121094 L 728.4375 557.488281 C 731.785156 559.722656 732.902344 563.070312 731.785156 566.417969 L 641.328125 722.6875 C 640.210938 723.804688 639.09375 724.921875 636.859375 726.039062 C 636.859375 726.039062 635.742188 726.039062 635.742188 726.039062 Z M 635.742188 726.039062 " fill-opacity="1" fill-rule="evenodd"/></g><path fill="#000002" d="M 327.507812 461.496094 C 325.273438 461.496094 323.039062 460.378906 321.921875 458.148438 L 290.652344 409.035156 C 289.535156 406.800781 289.535156 404.570312 290.652344 402.335938 C 291.769531 400.105469 294.003906 398.988281 296.238281 398.988281 L 302.9375 398.988281 L 302.9375 388.941406 C 310.753906 390.058594 319.691406 391.175781 327.507812 391.175781 C 335.324219 391.175781 343.140625 390.058594 350.960938 388.941406 L 350.960938 398.988281 L 357.660156 398.988281 C 359.894531 398.988281 362.128906 400.105469 363.246094 402.335938 C 364.359375 404.570312 364.359375 406.800781 363.246094 409.035156 L 333.089844 458.148438 C 331.972656 460.378906 329.742188 461.496094 327.507812 461.496094 Z M 327.507812 461.496094 " fill-opacity="1" fill-rule="evenodd"/><path fill="#000002" d="M 327.507812 308.574219 C 314.105469 308.574219 302.9375 297.414062 302.9375 284.019531 C 302.9375 280.667969 305.171875 277.320312 309.636719 277.320312 C 312.988281 277.320312 316.339844 280.667969 316.339844 284.019531 C 316.339844 290.714844 320.804688 295.179688 327.507812 295.179688 C 333.089844 295.179688 338.675781 290.714844 338.675781 284.019531 C 338.675781 276.203125 335.324219 275.089844 325.273438 272.855469 C 316.339844 270.625 302.9375 267.273438 302.9375 248.300781 C 302.9375 233.789062 314.105469 222.625 327.507812 222.625 C 340.910156 222.625 352.078125 233.789062 352.078125 248.300781 C 352.078125 251.648438 348.726562 254.996094 345.375 254.996094 C 342.023438 254.996094 338.675781 251.648438 338.675781 248.300781 C 338.675781 241.601562 333.089844 236.019531 327.507812 236.019531 C 320.804688 236.019531 316.339844 241.601562 316.339844 248.300781 C 316.339844 256.113281 319.691406 257.230469 328.625 259.460938 C 338.675781 261.695312 352.078125 265.042969 352.078125 284.019531 C 352.078125 297.414062 340.910156 308.574219 327.507812 308.574219 Z M 327.507812 308.574219 " fill-opacity="1" fill-rule="evenodd"/><path fill="#000002" d="M 327.507812 236.019531 C 324.15625 236.019531 320.804688 233.789062 320.804688 229.324219 L 320.804688 220.394531 C 320.804688 215.929688 324.15625 213.695312 327.507812 213.695312 C 330.855469 213.695312 334.207031 215.929688 334.207031 220.394531 L 334.207031 229.324219 C 334.207031 233.789062 330.855469 236.019531 327.507812 236.019531 Z M 327.507812 236.019531 " fill-opacity="1" fill-rule="evenodd"/><path fill="#000002" d="M 327.507812 318.621094 C 324.15625 318.621094 320.804688 315.273438 320.804688 311.921875 L 320.804688 301.878906 C 320.804688 298.527344 324.15625 295.179688 327.507812 295.179688 C 330.855469 295.179688 334.207031 298.527344 334.207031 301.878906 L 334.207031 311.921875 C 334.207031 315.273438 330.855469 318.621094 327.507812 318.621094 Z M 327.507812 318.621094 " fill-opacity="1" fill-rule="evenodd"/><g clip-path="url(#e2150b7820)"><path fill="#000002" d="M 327.507812 377.78125 C 266.082031 377.78125 215.828125 327.550781 215.828125 266.160156 C 215.828125 204.765625 266.082031 154.539062 327.507812 154.539062 C 388.929688 154.539062 439.1875 204.765625 439.1875 266.160156 C 439.1875 327.550781 388.929688 377.78125 327.507812 377.78125 Z M 327.507812 338.710938 C 287.300781 338.710938 254.914062 306.34375 254.914062 266.160156 C 254.914062 225.976562 287.300781 193.605469 327.507812 193.605469 C 367.710938 193.605469 400.097656 225.976562 400.097656 266.160156 C 400.097656 306.34375 367.710938 338.710938 327.507812 338.710938 Z M 327.507812 338.710938 " fill-opacity="1" fill-rule="evenodd"/></g><g clip-path="url(#e669f41cee)"><path fill="#000002" d="M 223.644531 491.632812 C 221.410156 491.632812 219.179688 490.515625 218.0625 489.402344 L 186.789062 439.171875 C 185.675781 438.054688 185.675781 434.707031 186.789062 432.472656 C 187.90625 430.242188 190.140625 429.125 193.492188 429.125 L 200.191406 429.125 L 200.191406 358.804688 C 200.191406 355.457031 202.425781 352.105469 206.894531 352.105469 L 240.398438 352.105469 C 243.746094 352.105469 247.097656 355.457031 247.097656 358.804688 L 247.097656 429.125 L 253.796875 429.125 C 256.03125 429.125 258.265625 430.242188 259.382812 432.472656 C 260.5 434.707031 260.5 438.054688 259.382812 439.171875 L 229.230469 489.402344 C 228.113281 490.515625 225.878906 491.632812 223.644531 491.632812 Z M 223.644531 491.632812 " fill-opacity="1" fill-rule="evenodd"/></g><path fill="#000002" d="M 431.367188 491.632812 C 429.136719 491.632812 426.902344 490.515625 425.785156 489.402344 L 394.515625 439.171875 C 393.398438 438.054688 393.398438 434.707031 394.515625 432.472656 C 395.632812 430.242188 397.863281 429.125 400.097656 429.125 L 406.800781 429.125 L 406.800781 358.804688 C 406.800781 355.457031 410.148438 352.105469 413.5 352.105469 L 448.121094 352.105469 C 451.472656 352.105469 454.820312 355.457031 454.820312 358.804688 L 454.820312 429.125 L 461.523438 429.125 C 463.757812 429.125 465.988281 430.242188 467.105469 432.472656 C 468.222656 434.707031 468.222656 438.054688 467.105469 439.171875 L 436.953125 489.402344 C 435.835938 490.515625 433.601562 491.632812 431.367188 491.632812 Z M 431.367188 491.632812 " fill-opacity="1" fill-rule="evenodd"/></svg>