<svg xmlns="http://www.w3.org/2000/svg" xmlns:xlink="http://www.w3.org/1999/xlink" width="1200" zoomAndPan="magnify" viewBox="0 0 900 899.99999" height="1200" preserveAspectRatio="xMidYMid meet" version="1.0"><defs><clipPath id="6d46ce97c5"><path d="M 90 90.101562 L 810 90.101562 L 810 809.898438 L 90 809.898438 Z M 90 90.101562 " clip-rule="nonzero"/></clipPath><clipPath id="e377548882"><path d="M 165 90.101562 L 735 90.101562 C 776.421875 90.101562 810 123.679688 810 165.101562 L 810 734.898438 C 810 776.320312 776.421875 809.898438 735 809.898438 L 165 809.898438 C 123.578125 809.898438 90 776.320312 90 734.898438 L 90 165.101562 C 90 123.679688 123.578125 90.101562 165 90.101562 Z M 165 90.101562 " clip-rule="nonzero"/></clipPath><clipPath id="0654dcd6b6"><path d="M 170.664062 170.664062 L 694 170.664062 L 694 695 L 170.664062 695 Z M 170.664062 170.664062 " clip-rule="nonzero"/></clipPath></defs><g clip-path="url(#6d46ce97c5)"><g clip-path="url(#e377548882)"><path fill="#3294cd" d="M 90 90.101562 L 809.796875 90.101562 L 809.796875 809.898438 L 90 809.898438 Z M 90 90.101562 " fill-opacity="1" fill-rule="nonzero"/></g></g><g clip-path="url(#0654dcd6b6)"><path fill="#000000" d="M 468.480469 630.503906 C 456.8125 632.734375 444.734375 633.90625 432.304688 633.90625 C 321.375 633.90625 230.90625 543.496094 230.90625 432.507812 C 230.90625 321.34375 321.316406 230.9375 432.304688 230.9375 C 543.46875 230.9375 633.875 321.34375 633.875 432.507812 C 633.875 444.761719 632.761719 456.78125 630.476562 468.507812 L 670.402344 481.875 C 676.617188 483.929688 682.246094 486.976562 687.171875 491.082031 C 691.6875 472.261719 693.972656 452.679688 693.972656 432.507812 C 693.972656 288.21875 576.652344 170.664062 432.304688 170.664062 C 287.953125 170.664062 170.695312 288.21875 170.695312 432.507812 C 170.695312 576.800781 288.074219 694.175781 432.363281 694.175781 C 452.53125 694.175781 472.289062 691.890625 491.109375 687.375 C 486.949219 682.453125 483.957031 676.648438 481.90625 670.433594 Z M 468.480469 630.503906 " fill-opacity="1" fill-rule="nonzero"/></g><path fill="#000000" d="M 585.269531 453.441406 C 586.035156 446.464844 586.621094 439.660156 586.621094 432.507812 C 586.621094 347.378906 517.316406 278.25 432.363281 278.25 C 347.40625 278.25 278.222656 347.378906 278.222656 432.507812 C 278.222656 517.464844 347.347656 586.589844 432.304688 586.589844 C 439.457031 586.589844 446.433594 586.003906 453.410156 585.242188 L 433.828125 526.257812 L 432.304688 526.257812 C 380.472656 526.257812 338.496094 484.046875 338.496094 432.449219 C 338.496094 380.621094 380.472656 338.464844 432.304688 338.464844 C 484.132812 338.464844 526.289062 380.679688 526.289062 432.449219 L 526.289062 433.742188 Z M 585.269531 453.441406 " fill-opacity="1" fill-rule="nonzero"/><path fill="#000000" d="M 385.632812 432.507812 C 385.632812 454.144531 400.527344 472.4375 420.871094 477.539062 C 421.046875 465.871094 424.859375 454.730469 431.777344 444.9375 C 442.328125 430.046875 459.273438 421.195312 477.566406 421.015625 C 472.464844 400.671875 454.230469 385.78125 432.363281 385.78125 C 406.507812 385.78125 385.632812 406.710938 385.632812 432.507812 Z M 385.632812 432.507812 " fill-opacity="1" fill-rule="nonzero"/><path fill="#000000" d="M 722.289062 666.328125 L 634.636719 578.675781 L 665.652344 547.660156 C 675.210938 538.101562 671.339844 521.921875 658.558594 517.640625 L 484.542969 459.65625 C 469.125 454.496094 454.40625 469.210938 459.566406 484.632812 L 517.554688 658.589844 C 521.832031 671.371094 538.015625 675.179688 547.570312 665.683594 L 578.585938 634.667969 L 666.238281 722.320312 C 673.335938 729.414062 684.824219 729.414062 691.863281 722.320312 L 722.230469 691.949219 C 729.386719 684.914062 729.386719 673.421875 722.289062 666.328125 Z M 722.289062 666.328125 " fill-opacity="1" fill-rule="nonzero"/></svg>