<svg xmlns="http://www.w3.org/2000/svg" xmlns:xlink="http://www.w3.org/1999/xlink" width="1200" zoomAndPan="magnify" viewBox="0 0 900 899.99999" height="1200" preserveAspectRatio="xMidYMid meet" version="1.0"><defs><clipPath id="337825b7b2"><path d="M 90 90.101562 L 810 90.101562 L 810 809.898438 L 90 809.898438 Z M 90 90.101562 " clip-rule="nonzero"/></clipPath><clipPath id="fb13513ddf"><path d="M 165 90.101562 L 735 90.101562 C 776.421875 90.101562 810 123.679688 810 165.101562 L 810 734.898438 C 810 776.320312 776.421875 809.898438 735 809.898438 L 165 809.898438 C 123.578125 809.898438 90 776.320312 90 734.898438 L 90 165.101562 C 90 123.679688 123.578125 90.101562 165 90.101562 Z M 165 90.101562 " clip-rule="nonzero"/></clipPath><clipPath id="f6dd3aea15"><path d="M 219 150.449219 L 680.96875 150.449219 L 680.96875 749.699219 L 219 749.699219 Z M 219 150.449219 " clip-rule="nonzero"/></clipPath></defs><g clip-path="url(#337825b7b2)"><g clip-path="url(#fb13513ddf)"><path fill="#3294cd" d="M 90 90.101562 L 809.796875 90.101562 L 809.796875 809.898438 L 90 809.898438 Z M 90 90.101562 " fill-opacity="1" fill-rule="nonzero"/></g></g><g clip-path="url(#f6dd3aea15)"><path fill="#000000" d="M 501.859375 482.5 C 490.554688 487.738281 482.085938 497.90625 479.089844 510.785156 C 479.078125 510.824219 475.292969 526.945312 475.292969 526.945312 C 475.289062 526.957031 475.285156 526.972656 475.28125 526.984375 C 475.171875 527.460938 474.957031 527.839844 474.597656 528.175781 C 474.585938 528.1875 474.574219 528.199219 474.5625 528.210938 L 462.445312 539.578125 C 448.765625 552.425781 445.316406 572.042969 453.808594 588.769531 C 453.828125 588.800781 461.261719 603.515625 461.261719 603.515625 C 461.492188 603.980469 461.59375 604.433594 461.53125 604.953125 C 461.527344 604.972656 461.527344 604.996094 461.523438 605.015625 L 459.550781 621.519531 L 459.546875 621.542969 C 458.765625 628.175781 459.523438 634.632812 461.609375 640.535156 C 380.769531 640.53125 296.9375 640.527344 272.726562 640.519531 C 270.960938 640.519531 269.285156 639.757812 268.128906 638.425781 C 266.96875 637.097656 266.441406 635.328125 266.6875 633.582031 C 279.742188 543.972656 356.84375 475.144531 450.007812 475.144531 C 468.007812 475.144531 485.40625 477.714844 501.859375 482.5 Z M 450.007812 462.917969 C 398.421875 462.917969 356.375 420.804688 356.375 369.199219 C 356.375 317.59375 398.421875 275.480469 450.007812 275.480469 C 501.640625 275.480469 543.6875 317.59375 543.6875 369.199219 C 543.6875 420.804688 501.640625 462.917969 450.007812 462.917969 Z M 643.179688 676.726562 L 665.632812 724.992188 C 665.96875 725.6875 665.886719 726.4375 665.410156 727.023438 C 664.96875 727.632812 664.273438 727.910156 663.523438 727.773438 L 633.746094 722.574219 L 618.523438 748.726562 C 618.164062 749.363281 617.496094 749.726562 616.746094 749.695312 C 615.996094 749.667969 615.386719 749.25 615.050781 748.558594 L 594.441406 704.269531 C 611.027344 707.488281 627.585938 700.59375 637.039062 686.117188 Z M 552.582031 704.269531 L 531.96875 748.558594 C 531.664062 749.25 531.027344 749.667969 530.277344 749.695312 C 529.527344 749.726562 528.859375 749.363281 528.5 748.726562 L 513.304688 722.574219 L 483.5 727.773438 C 482.75 727.910156 482.054688 727.632812 481.609375 727.023438 C 481.140625 726.4375 481.054688 725.6875 481.390625 724.992188 L 503.84375 676.726562 C 506.496094 680.78125 509.988281 686.128906 509.988281 686.128906 C 519.4375 700.59375 535.992188 707.488281 552.582031 704.269531 Z M 586.75 482.960938 L 600.050781 492.933594 C 603.691406 495.660156 607.496094 497.046875 612.050781 497.296875 L 628.636719 498.214844 C 638.550781 498.769531 646.632812 505.550781 648.886719 515.222656 L 652.691406 531.421875 C 653.71875 535.839844 655.746094 539.367188 659.078125 542.480469 L 671.1875 553.847656 C 678.441406 560.652344 680.273438 571.046875 675.773438 579.910156 L 668.273438 594.75 C 666.246094 598.804688 665.523438 602.808594 666.078125 607.335938 L 668.050781 623.84375 C 669.21875 633.707031 663.96875 642.847656 654.800781 646.769531 L 639.550781 653.296875 C 635.355469 655.078125 632.246094 657.714844 629.746094 661.523438 L 620.664062 675.417969 C 615.21875 683.753906 605.328125 687.339844 595.804688 684.476562 L 579.886719 679.667969 C 575.554688 678.335938 571.46875 678.335938 567.136719 679.667969 L 551.21875 684.476562 C 541.691406 687.339844 531.804688 683.753906 526.359375 675.417969 L 517.277344 661.523438 C 514.777344 657.714844 511.667969 655.078125 507.472656 653.296875 L 492.222656 646.769531 C 483.082031 642.847656 477.804688 633.707031 478.972656 623.84375 L 480.945312 607.335938 C 481.5 602.808594 480.777344 598.804688 478.75 594.75 L 471.25 579.910156 C 466.75 571.046875 468.582031 560.652344 475.832031 553.847656 L 487.945312 542.480469 C 491.277344 539.367188 493.304688 535.839844 494.332031 531.421875 L 498.136719 515.222656 C 500.390625 505.550781 508.472656 498.769531 518.386719 498.214844 L 534.96875 497.296875 C 539.527344 497.046875 543.359375 495.660156 546.96875 492.933594 L 560.277344 482.960938 C 568.25 477.011719 578.773438 477.011719 586.75 482.960938 Z M 573.527344 642.703125 C 606.929688 642.703125 634.207031 615.414062 634.207031 581.964844 C 634.207031 548.519531 606.929688 521.234375 573.527344 521.234375 C 540.089844 521.234375 512.816406 548.519531 512.816406 581.964844 C 512.816406 615.414062 540.089844 642.703125 573.527344 642.703125 Z M 445.507812 153.71875 C 446.140625 151.769531 447.957031 150.449219 450.007812 150.449219 C 452.054688 150.449219 453.871094 151.769531 454.503906 153.71875 L 463.113281 180.21875 C 463.746094 182.167969 465.5625 183.488281 467.609375 183.488281 L 495.464844 183.488281 C 497.511719 183.488281 499.328125 184.808594 499.960938 186.757812 C 500.59375 188.707031 499.902344 190.839844 498.246094 192.046875 L 475.710938 208.425781 C 474.050781 209.628906 473.359375 211.765625 473.992188 213.714844 L 482.597656 240.214844 C 483.230469 242.164062 482.539062 244.300781 480.882812 245.503906 C 479.222656 246.710938 476.976562 246.710938 475.320312 245.503906 L 452.789062 229.128906 C 451.128906 227.921875 448.886719 227.921875 447.226562 229.128906 L 424.691406 245.503906 C 423.035156 246.710938 420.789062 246.710938 419.132812 245.503906 C 417.476562 244.300781 416.78125 242.164062 417.414062 240.214844 L 426.023438 213.714844 C 426.65625 211.765625 425.960938 209.628906 424.304688 208.425781 L 401.769531 192.046875 C 400.113281 190.839844 399.417969 188.707031 400.050781 186.757812 C 400.683594 184.808594 402.5 183.488281 404.550781 183.488281 L 432.402344 183.488281 C 434.453125 183.488281 436.269531 182.167969 436.902344 180.21875 Z M 285.878906 223.613281 C 284.949219 221.785156 285.300781 219.566406 286.75 218.117188 C 288.199219 216.667969 290.414062 216.316406 292.242188 217.25 L 317.058594 229.898438 C 318.882812 230.828125 321.101562 230.476562 322.550781 229.027344 L 342.246094 209.324219 C 343.691406 207.875 345.910156 207.523438 347.734375 208.457031 C 349.5625 209.386719 350.582031 211.386719 350.261719 213.410156 L 345.902344 240.929688 C 345.582031 242.957031 346.601562 244.957031 348.429688 245.886719 L 373.246094 258.539062 C 375.070312 259.46875 376.089844 261.46875 375.769531 263.492188 C 375.449219 265.519531 373.863281 267.105469 371.835938 267.425781 L 344.328125 271.785156 C 342.304688 272.105469 340.714844 273.695312 340.394531 275.71875 L 336.039062 303.238281 C 335.71875 305.265625 334.128906 306.851562 332.105469 307.171875 C 330.082031 307.492188 328.082031 306.472656 327.152344 304.648438 L 314.507812 279.820312 C 313.578125 277.996094 311.578125 276.972656 309.554688 277.296875 L 282.042969 281.65625 C 280.019531 281.976562 278.019531 280.953125 277.089844 279.128906 C 276.160156 277.304688 276.511719 275.085938 277.957031 273.636719 L 297.652344 253.933594 C 299.101562 252.484375 299.453125 250.265625 298.523438 248.4375 Z M 222.40625 385.953125 C 220.457031 385.320312 219.140625 383.503906 219.140625 381.453125 C 219.140625 379.402344 220.457031 377.585938 222.40625 376.953125 L 248.898438 368.34375 C 250.847656 367.710938 252.164062 365.894531 252.164062 363.84375 L 252.164062 335.980469 C 252.164062 333.929688 253.484375 332.113281 255.433594 331.480469 C 257.382812 330.84375 259.515625 331.539062 260.722656 333.199219 L 277.09375 355.738281 C 278.296875 357.398438 280.433594 358.09375 282.382812 357.460938 L 308.871094 348.847656 C 310.820312 348.214844 312.953125 348.910156 314.160156 350.566406 C 315.363281 352.226562 315.363281 354.472656 314.160156 356.128906 L 297.789062 378.671875 C 296.582031 380.332031 296.582031 382.574219 297.789062 384.234375 L 314.160156 406.777344 C 315.363281 408.433594 315.363281 410.679688 314.160156 412.339844 C 312.953125 413.996094 310.820312 414.691406 308.871094 414.058594 L 282.382812 405.449219 C 280.433594 404.8125 278.296875 405.507812 277.09375 407.167969 L 260.722656 429.707031 C 259.515625 431.367188 257.382812 432.0625 255.433594 431.429688 C 253.484375 430.792969 252.164062 428.976562 252.164062 426.925781 L 252.164062 399.0625 C 252.164062 397.015625 250.847656 395.199219 248.898438 394.5625 Z M 607.789062 217.214844 C 609.613281 216.28125 611.832031 216.632812 613.28125 218.082031 C 614.726562 219.53125 615.082031 221.75 614.148438 223.578125 L 601.503906 248.402344 C 600.574219 250.230469 600.925781 252.449219 602.375 253.898438 L 622.070312 273.601562 C 623.519531 275.050781 623.871094 277.269531 622.941406 279.09375 C 622.007812 280.921875 620.007812 281.941406 617.984375 281.617188 L 590.476562 277.261719 C 588.449219 276.941406 586.449219 277.960938 585.519531 279.785156 L 572.875 304.613281 C 571.945312 306.4375 569.945312 307.457031 567.921875 307.136719 C 565.898438 306.816406 564.308594 305.230469 563.988281 303.203125 L 559.632812 275.683594 C 559.3125 273.660156 557.726562 272.070312 555.703125 271.75 L 528.191406 267.390625 C 526.167969 267.070312 524.578125 265.484375 524.257812 263.460938 C 523.9375 261.433594 524.957031 259.433594 526.785156 258.503906 L 551.601562 245.851562 C 553.425781 244.921875 554.445312 242.921875 554.125 240.898438 L 549.769531 213.375 C 549.449219 211.351562 550.46875 209.351562 552.292969 208.421875 C 554.117188 207.488281 556.335938 207.839844 557.785156 209.289062 L 577.480469 228.992188 C 578.929688 230.441406 581.144531 230.792969 582.96875 229.863281 Z M 677.65625 376.902344 C 679.605469 377.535156 680.925781 379.355469 680.925781 381.402344 C 680.925781 383.453125 679.605469 385.269531 677.65625 385.90625 L 651.167969 394.515625 C 649.21875 395.148438 647.898438 396.964844 647.898438 399.015625 L 647.898438 426.878906 C 647.898438 428.929688 646.578125 430.746094 644.628906 431.378906 C 642.679688 432.011719 640.546875 431.316406 639.34375 429.660156 L 622.96875 407.117188 C 621.765625 405.457031 619.628906 404.765625 617.683594 405.398438 L 591.191406 414.007812 C 589.242188 414.640625 587.109375 413.949219 585.90625 412.289062 C 584.699219 410.632812 584.699219 408.386719 585.90625 406.726562 L 602.277344 384.183594 C 603.480469 382.527344 603.480469 380.28125 602.277344 378.621094 L 585.90625 356.082031 C 584.699219 354.421875 584.699219 352.175781 585.90625 350.519531 C 587.109375 348.859375 589.242188 348.167969 591.191406 348.800781 L 617.683594 357.410156 C 619.628906 358.042969 621.765625 357.347656 622.96875 355.691406 L 639.34375 333.148438 C 640.546875 331.488281 642.679688 330.796875 644.628906 331.429688 C 646.578125 332.0625 647.898438 333.878906 647.898438 335.929688 L 647.898438 363.792969 C 647.898438 365.84375 649.21875 367.660156 651.167969 368.292969 Z M 677.65625 376.902344 " fill-opacity="1" fill-rule="evenodd"/></g></svg>