<svg xmlns="http://www.w3.org/2000/svg" xmlns:xlink="http://www.w3.org/1999/xlink" width="1200" zoomAndPan="magnify" viewBox="0 0 900 899.99999" height="1200" preserveAspectRatio="xMidYMid meet" version="1.0"><defs><clipPath id="281f22c499"><path d="M 90 90.101562 L 810 90.101562 L 810 809.898438 L 90 809.898438 Z M 90 90.101562 " clip-rule="nonzero"/></clipPath><clipPath id="ae06178545"><path d="M 165 90.101562 L 735 90.101562 C 776.421875 90.101562 810 123.679688 810 165.101562 L 810 734.898438 C 810 776.320312 776.421875 809.898438 735 809.898438 L 165 809.898438 C 123.578125 809.898438 90 776.320312 90 734.898438 L 90 165.101562 C 90 123.679688 123.578125 90.101562 165 90.101562 Z M 165 90.101562 " clip-rule="nonzero"/></clipPath><clipPath id="d233e170a9"><path d="M 176 578 L 326 578 L 326 739.53125 L 176 739.53125 Z M 176 578 " clip-rule="nonzero"/></clipPath><clipPath id="e09f6b7a45"><path d="M 310 605 L 498 605 L 498 739.53125 L 310 739.53125 Z M 310 605 " clip-rule="nonzero"/></clipPath></defs><g clip-path="url(#281f22c499)"><g clip-path="url(#ae06178545)"><path fill="#3294cd" d="M 90 90.101562 L 809.796875 90.101562 L 809.796875 809.898438 L 90 809.898438 Z M 90 90.101562 " fill-opacity="1" fill-rule="nonzero"/></g></g><path fill="#000000" d="M 509.296875 438.644531 C 509.296875 438.644531 508.101562 438.644531 509.296875 438.644531 L 508.101562 439.84375 L 498.511719 459.023438 C 496.113281 465.015625 488.921875 468.613281 481.734375 468.613281 C 466.152344 468.613281 449.371094 457.824219 449.371094 432.648438 C 449.371094 419.464844 455.367188 406.277344 463.753906 395.488281 C 455.367188 391.890625 444.578125 393.089844 437.386719 400.28125 L 434.992188 402.679688 L 394.242188 443.4375 L 376.265625 461.417969 C 366.675781 471.011719 366.675781 485.394531 376.265625 494.984375 L 388.25 506.972656 C 399.035156 496.183594 414.617188 496.183594 425.402344 506.972656 C 436.1875 517.761719 436.1875 533.34375 425.402344 544.132812 L 437.386719 556.121094 C 446.976562 565.710938 462.554688 565.710938 470.945312 556.121094 L 482.929688 544.132812 C 492.519531 554.921875 509.296875 554.921875 520.085938 544.132812 C 529.671875 534.542969 530.871094 517.761719 520.085938 506.972656 L 532.070312 494.984375 C 541.660156 485.394531 541.660156 469.8125 532.070312 461.417969 Z M 509.296875 438.644531 " fill-opacity="1" fill-rule="nonzero"/><path fill="#000000" d="M 715.441406 258.828125 L 666.304688 176.117188 C 659.113281 164.128906 643.53125 160.53125 631.546875 166.527344 L 615.964844 176.117188 C 602.78125 183.308594 597.988281 200.089844 606.378906 212.078125 L 656.714844 294.792969 C 663.90625 306.78125 679.488281 310.375 691.472656 304.382812 L 707.054688 295.992188 C 719.039062 288.796875 723.832031 272.015625 715.441406 258.828125 Z M 715.441406 258.828125 " fill-opacity="1" fill-rule="nonzero"/><g clip-path="url(#d233e170a9)"><path fill="#000000" d="M 299.558594 672.402344 C 299.558594 655.617188 310.34375 641.234375 325.925781 636.4375 L 325.925781 605.269531 L 297.160156 605.269531 C 297.160156 590.886719 285.175781 578.898438 270.792969 578.898438 C 256.414062 578.898438 244.425781 590.886719 244.425781 605.269531 L 202.480469 605.269531 L 202.480469 646.027344 C 188.097656 646.027344 176.113281 658.015625 176.113281 672.402344 C 176.113281 686.785156 188.097656 698.773438 202.480469 698.773438 L 202.480469 715.554688 C 202.480469 728.742188 213.265625 739.53125 226.449219 739.53125 L 324.726562 739.53125 L 324.726562 708.363281 C 310.34375 703.570312 299.558594 689.183594 299.558594 672.402344 Z M 299.558594 672.402344 " fill-opacity="1" fill-rule="nonzero"/></g><g clip-path="url(#e09f6b7a45)"><path fill="#000000" d="M 470.945312 646.027344 L 470.945312 629.246094 C 470.945312 616.058594 460.160156 605.269531 446.976562 605.269531 L 430.195312 605.269531 C 430.195312 619.65625 418.210938 631.644531 403.828125 631.644531 C 389.449219 631.644531 377.460938 619.65625 377.460938 605.269531 L 336.710938 605.269531 L 336.710938 646.027344 C 322.332031 646.027344 310.34375 658.015625 310.34375 672.402344 C 310.34375 686.785156 322.332031 698.773438 336.710938 698.773438 L 336.710938 739.53125 L 446.976562 739.53125 C 460.160156 739.53125 470.945312 728.742188 470.945312 715.554688 L 470.945312 698.773438 C 485.328125 698.773438 497.3125 686.785156 497.3125 672.402344 C 497.3125 658.015625 486.527344 646.027344 470.945312 646.027344 Z M 470.945312 646.027344 " fill-opacity="1" fill-rule="nonzero"/></g><path fill="#000000" d="M 203.679688 564.511719 L 203.679688 593.285156 L 234.839844 593.285156 C 239.632812 577.699219 254.015625 566.910156 270.792969 566.910156 C 287.574219 566.910156 301.957031 577.699219 306.75 593.285156 L 337.910156 593.285156 L 337.910156 564.511719 C 352.292969 564.511719 364.277344 552.527344 364.277344 538.140625 C 364.277344 523.753906 352.292969 511.769531 337.910156 511.769531 L 337.910156 494.984375 C 337.910156 481.796875 327.125 471.011719 313.941406 471.011719 L 297.160156 471.011719 C 297.160156 456.625 285.175781 444.636719 270.792969 444.636719 C 256.414062 444.636719 244.425781 456.625 244.425781 471.011719 L 227.648438 471.011719 C 214.464844 471.011719 203.679688 481.796875 203.679688 494.984375 L 203.679688 511.769531 C 196.488281 511.769531 189.296875 515.363281 184.503906 520.160156 C 179.707031 524.953125 177.3125 530.949219 177.3125 538.140625 C 177.3125 552.527344 188.097656 564.511719 203.679688 564.511719 Z M 203.679688 564.511719 " fill-opacity="1" fill-rule="nonzero"/><path fill="#000000" d="M 593.195312 213.277344 L 458.960938 261.226562 L 306.75 234.855469 C 300.757812 257.632812 321.132812 260.027344 321.132812 260.027344 L 371.46875 275.613281 L 252.816406 288.796875 C 258.808594 315.171875 281.582031 310.375 281.582031 310.375 L 369.074219 305.582031 L 249.222656 358.328125 C 255.214844 377.507812 280.382812 375.109375 280.382812 375.109375 L 395.441406 331.953125 L 376.265625 364.320312 C 372.667969 370.3125 372.667969 377.507812 376.265625 384.699219 L 396.636719 421.859375 L 420.609375 397.886719 L 415.816406 379.90625 C 414.617188 373.910156 415.816406 367.917969 420.609375 364.320312 L 450.570312 339.148438 C 467.351562 324.761719 484.128906 341.542969 490.121094 342.742188 C 502.105469 349.933594 505.703125 365.519531 496.113281 376.308594 C 481.734375 394.289062 461.359375 407.476562 461.359375 432.648438 C 461.359375 454.226562 474.542969 456.625 481.734375 456.625 C 484.128906 456.625 486.527344 455.425781 487.726562 453.027344 L 498.511719 431.449219 C 515.289062 419.464844 597.988281 349.933594 623.15625 313.972656 C 627.949219 306.78125 636.339844 300.785156 644.730469 299.585938 L 595.589844 218.070312 C 594.394531 216.875 594.394531 215.675781 593.195312 213.277344 Z M 593.195312 213.277344 " fill-opacity="1" fill-rule="nonzero"/></svg>