<svg xmlns="http://www.w3.org/2000/svg" xmlns:xlink="http://www.w3.org/1999/xlink" width="1200" zoomAndPan="magnify" viewBox="0 0 900 899.99999" height="1200" preserveAspectRatio="xMidYMid meet" version="1.0"><defs><clipPath id="46b2e0a3f0"><path d="M 90 90.101562 L 810 90.101562 L 810 809.898438 L 90 809.898438 Z M 90 90.101562 " clip-rule="nonzero"/></clipPath><clipPath id="32daea0546"><path d="M 165 90.101562 L 735 90.101562 C 776.421875 90.101562 810 123.679688 810 165.101562 L 810 734.898438 C 810 776.320312 776.421875 809.898438 735 809.898438 L 165 809.898438 C 123.578125 809.898438 90 776.320312 90 734.898438 L 90 165.101562 C 90 123.679688 123.578125 90.101562 165 90.101562 Z M 165 90.101562 " clip-rule="nonzero"/></clipPath><clipPath id="6ccb7137ce"><path d="M 183 184.660156 L 715 184.660156 L 715 715.660156 L 183 715.660156 Z M 183 184.660156 " clip-rule="nonzero"/></clipPath></defs><g clip-path="url(#46b2e0a3f0)"><g clip-path="url(#32daea0546)"><path fill="#3294cd" d="M 90 90.101562 L 809.796875 90.101562 L 809.796875 809.898438 L 90 809.898438 Z M 90 90.101562 " fill-opacity="1" fill-rule="nonzero"/></g></g><g clip-path="url(#6ccb7137ce)"><path fill="#000000" d="M 305.488281 465.34375 L 307.019531 466.921875 C 311.785156 471.804688 311.667969 479.71875 306.746094 484.445312 L 231.933594 557.117188 C 227.011719 561.847656 219.140625 561.730469 214.410156 556.84375 L 187.394531 529.003906 C 182.625 524.078125 182.742188 516.207031 187.625 511.476562 L 262.476562 438.808594 C 267.363281 434.078125 275.269531 434.191406 280 439.078125 L 281.542969 440.667969 L 324.265625 399.179688 C 308.753906 377.046875 299.652344 350.089844 299.652344 321.003906 C 299.652344 245.695312 360.667969 184.660156 435.945312 184.660156 C 511.222656 184.660156 572.238281 245.695312 572.238281 321.003906 C 572.238281 396.308594 511.222656 457.34375 435.945312 457.34375 C 402.144531 457.34375 371.21875 445.035156 347.402344 424.660156 Z M 435.945312 216.457031 C 378.226562 216.457031 331.4375 263.261719 331.4375 321.003906 C 331.4375 378.742188 378.226562 425.546875 435.945312 425.546875 C 493.664062 425.546875 540.449219 378.742188 540.449219 321.003906 C 540.449219 263.261719 493.664062 216.457031 435.945312 216.457031 Z M 571.972656 393.269531 C 573.230469 395 574.40625 396.808594 575.492188 398.695312 L 706.617188 625.84375 C 717.394531 644.507812 717.394531 667.058594 706.617188 685.722656 C 695.839844 704.414062 676.304688 715.660156 654.746094 715.660156 L 392.554688 715.660156 C 370.996094 715.660156 351.488281 704.414062 340.710938 685.722656 C 329.933594 667.058594 329.933594 644.507812 340.710938 625.84375 L 427.863281 474.832031 C 430.539062 474.972656 433.234375 475.042969 435.945312 475.042969 C 442.113281 475.042969 448.199219 474.679688 454.175781 473.972656 L 360.074219 637.019531 C 353.273438 648.839844 353.273438 662.726562 360.074219 674.539062 L 360.074219 674.542969 C 366.882812 686.332031 378.949219 693.3125 392.554688 693.3125 L 654.746094 693.3125 C 668.378906 693.3125 680.40625 686.339844 687.238281 674.566406 L 687.246094 674.550781 C 694.054688 662.726562 694.054688 648.839844 687.253906 637.027344 L 687.25 637.019531 L 558.597656 414.15625 C 563.59375 407.585938 568.070312 400.601562 571.972656 393.269531 Z M 546.371094 428.367188 L 671.921875 645.859375 C 675.515625 652.105469 675.519531 659.445312 671.929688 665.691406 C 668.308594 671.917969 661.957031 675.613281 654.746094 675.613281 L 392.554688 675.613281 C 385.367188 675.613281 378.996094 671.921875 375.402344 665.703125 C 371.808594 659.453125 371.808594 652.105469 375.40625 645.859375 L 477.222656 469.449219 C 503.878906 462.046875 527.628906 447.652344 546.371094 428.367188 Z M 523.648438 586.816406 C 530.542969 586.816406 536.207031 581.371094 536.453125 574.472656 L 539.679688 484.875 C 539.816406 481.261719 538.613281 478.113281 536.097656 475.515625 C 533.609375 472.914062 530.488281 471.601562 526.878906 471.601562 L 520.421875 471.601562 C 516.8125 471.601562 513.71875 472.914062 511.203125 475.515625 C 508.710938 478.113281 507.507812 481.261719 507.617188 484.875 L 510.875 574.472656 C 511.121094 581.371094 516.753906 586.816406 523.648438 586.816406 Z M 523.648438 639.277344 C 532.675781 639.277344 540.039062 631.917969 540.039062 622.886719 C 540.039062 613.855469 532.675781 606.492188 523.648438 606.492188 C 514.621094 606.492188 507.261719 613.855469 507.261719 622.886719 C 507.261719 631.917969 514.621094 639.277344 523.648438 639.277344 Z M 523.648438 639.277344 " fill-opacity="1" fill-rule="evenodd"/></g></svg>