<svg xmlns="http://www.w3.org/2000/svg" xmlns:xlink="http://www.w3.org/1999/xlink" width="1200" zoomAndPan="magnify" viewBox="0 0 900 899.99999" height="1200" preserveAspectRatio="xMidYMid meet" version="1.0"><defs><clipPath id="11d0227da8"><path d="M 90 90.101562 L 810 90.101562 L 810 809.898438 L 90 809.898438 Z M 90 90.101562 " clip-rule="nonzero"/></clipPath><clipPath id="148fd87047"><path d="M 165 90.101562 L 735 90.101562 C 776.421875 90.101562 810 123.679688 810 165.101562 L 810 734.898438 C 810 776.320312 776.421875 809.898438 735 809.898438 L 165 809.898438 C 123.578125 809.898438 90 776.320312 90 734.898438 L 90 165.101562 C 90 123.679688 123.578125 90.101562 165 90.101562 Z M 165 90.101562 " clip-rule="nonzero"/></clipPath><clipPath id="3cbf216a66"><path d="M 178.253906 183.351562 L 722.003906 183.351562 L 722.003906 716.601562 L 178.253906 716.601562 Z M 178.253906 183.351562 " clip-rule="nonzero"/></clipPath></defs><g clip-path="url(#11d0227da8)"><g clip-path="url(#148fd87047)"><path fill="#3294cd" d="M 90 90.101562 L 809.796875 90.101562 L 809.796875 809.898438 L 90 809.898438 Z M 90 90.101562 " fill-opacity="1" fill-rule="nonzero"/></g></g><g clip-path="url(#3cbf216a66)"><path fill="#000000" d="M 722.003906 476.121094 C 722.003906 448.898438 722.003906 450.984375 722.003906 423.726562 L 659.957031 405.476562 C 654.039062 387.226562 651.953125 380.875 646.035156 362.625 L 685.484375 311.402344 C 669.476562 289.386719 670.6875 291.035156 654.679688 269.019531 L 593.742188 290.699219 C 578.207031 279.40625 572.792969 275.507812 557.289062 264.214844 L 559.070312 199.582031 C 533.175781 191.179688 535.128906 191.820312 509.234375 183.382812 L 472.644531 236.753906 C 453.441406 236.753906 446.785156 236.753906 427.582031 236.753906 L 391.027344 183.417969 C 365.132812 191.820312 367.082031 191.179688 341.1875 199.617188 L 342.96875 264.25 C 327.433594 275.542969 322.019531 279.441406 306.515625 290.734375 L 245.582031 269.054688 C 229.574219 291.070312 230.785156 289.421875 214.777344 311.4375 L 254.222656 362.65625 C 248.304688 380.90625 246.21875 387.257812 240.300781 405.507812 L 178.253906 423.792969 C 178.253906 451.015625 178.253906 448.933594 178.253906 476.191406 L 240.300781 494.472656 C 246.21875 512.722656 248.304688 519.074219 254.222656 537.324219 L 214.777344 588.546875 C 230.785156 610.5625 229.574219 608.914062 245.582031 630.929688 L 306.515625 609.25 C 322.054688 620.542969 327.46875 624.441406 342.96875 635.734375 L 341.1875 700.367188 C 367.082031 708.769531 365.132812 708.128906 391.027344 716.566406 L 427.582031 663.125 C 446.785156 663.125 453.441406 663.125 472.644531 663.125 L 509.199219 716.464844 C 535.09375 708.0625 533.144531 708.699219 559.039062 700.265625 L 557.253906 635.632812 C 572.792969 624.339844 578.207031 620.441406 593.710938 609.148438 L 654.644531 630.828125 C 670.652344 608.8125 669.441406 610.460938 685.449219 588.445312 L 646.003906 537.226562 C 651.921875 518.976562 654.007812 512.621094 659.925781 494.371094 Z M 444.664062 616.34375 C 352.855469 616.34375 278.402344 541.964844 278.402344 450.175781 C 278.402344 358.386719 352.824219 284.011719 444.664062 284.011719 C 536.507812 284.011719 610.925781 358.386719 610.925781 450.175781 C 610.925781 541.964844 536.472656 616.34375 444.664062 616.34375 Z M 444.664062 616.34375 " fill-opacity="1" fill-rule="nonzero"/></g><path fill="#000000" d="M 330.257812 493.027344 L 365.300781 493.027344 L 365.300781 550.300781 L 330.257812 550.300781 Z M 330.257812 493.027344 " fill-opacity="1" fill-rule="nonzero"/><path fill="#000000" d="M 388.539062 460.832031 L 423.578125 460.832031 L 423.578125 550.300781 L 388.539062 550.300781 Z M 388.539062 460.832031 " fill-opacity="1" fill-rule="nonzero"/><path fill="#000000" d="M 505.0625 347.699219 L 540.105469 347.699219 L 540.105469 550.300781 L 505.0625 550.300781 Z M 505.0625 347.699219 " fill-opacity="1" fill-rule="nonzero"/><path fill="#000000" d="M 450.113281 414.917969 L 485.152344 414.917969 L 485.152344 550.300781 L 450.113281 550.300781 Z M 450.113281 414.917969 " fill-opacity="1" fill-rule="nonzero"/><path fill="#000000" d="M 467.128906 379.527344 L 453.308594 337.886719 L 417.996094 363.933594 L 432.1875 368.4375 C 429.398438 378.117188 425.429688 387.460938 420.148438 396.164062 L 417.796875 399.761719 L 417.191406 400.667969 L 416.886719 401.140625 L 416.550781 401.578125 L 415.273438 403.324219 L 413.996094 405.074219 L 413.355469 405.945312 C 413.121094 406.214844 412.886719 406.484375 412.648438 406.785156 L 409.859375 410.113281 C 405.992188 414.449219 401.753906 418.515625 397.179688 422.28125 C 387.964844 429.675781 377.40625 435.722656 366.074219 440.226562 C 360.390625 442.480469 354.539062 444.363281 348.550781 445.839844 C 347.074219 446.242188 345.558594 446.546875 344.046875 446.882812 C 342.53125 447.183594 341.019531 447.519531 339.472656 447.757812 C 336.414062 448.292969 333.351562 448.730469 330.226562 448.964844 C 333.320312 449.234375 336.480469 449.269531 339.605469 449.203125 C 341.1875 449.203125 342.734375 449.101562 344.316406 449.035156 C 345.894531 448.933594 347.441406 448.867188 349.023438 448.699219 C 355.3125 448.160156 361.566406 447.183594 367.789062 445.808594 C 380.230469 443.015625 392.40625 438.445312 403.839844 431.992188 C 409.523438 428.699219 414.9375 424.9375 420.117188 420.734375 L 423.882812 417.472656 C 424.183594 417.207031 424.519531 416.9375 424.824219 416.632812 L 425.730469 415.761719 L 427.515625 414.011719 L 429.328125 412.265625 L 429.765625 411.828125 L 430.203125 411.355469 L 431.046875 410.417969 L 434.441406 406.6875 C 442.445312 397.308594 449.035156 386.65625 454.214844 375.394531 Z M 467.128906 379.527344 " fill-opacity="1" fill-rule="nonzero"/></svg>