<svg xmlns="http://www.w3.org/2000/svg" xmlns:xlink="http://www.w3.org/1999/xlink" width="1200" zoomAndPan="magnify" viewBox="0 0 900 899.99999" height="1200" preserveAspectRatio="xMidYMid meet" version="1.0"><defs><clipPath id="7e2bb35a79"><path d="M 90 90.101562 L 810 90.101562 L 810 809.898438 L 90 809.898438 Z M 90 90.101562 " clip-rule="nonzero"/></clipPath><clipPath id="8eaf89f30a"><path d="M 165 90.101562 L 735 90.101562 C 776.421875 90.101562 810 123.679688 810 165.101562 L 810 734.898438 C 810 776.320312 776.421875 809.898438 735 809.898438 L 165 809.898438 C 123.578125 809.898438 90 776.320312 90 734.898438 L 90 165.101562 C 90 123.679688 123.578125 90.101562 165 90.101562 Z M 165 90.101562 " clip-rule="nonzero"/></clipPath><clipPath id="a7478dfa96"><path d="M 222 690 L 678 690 L 678 713.660156 L 222 713.660156 Z M 222 690 " clip-rule="nonzero"/></clipPath><clipPath id="38daa63967"><path d="M 422 186.410156 L 478 186.410156 L 478 259 L 422 259 Z M 422 186.410156 " clip-rule="nonzero"/></clipPath><clipPath id="fea440e4ed"><path d="M 186.410156 265 L 428 265 L 428 566 L 186.410156 566 Z M 186.410156 265 " clip-rule="nonzero"/></clipPath><clipPath id="c67fa4a28f"><path d="M 472 265 L 713.660156 265 L 713.660156 566 L 472 566 Z M 472 265 " clip-rule="nonzero"/></clipPath></defs><g clip-path="url(#7e2bb35a79)"><g clip-path="url(#8eaf89f30a)"><path fill="#3294cd" d="M 90 90.101562 L 809.796875 90.101562 L 809.796875 809.898438 L 90 809.898438 Z M 90 90.101562 " fill-opacity="1" fill-rule="nonzero"/></g></g><g clip-path="url(#a7478dfa96)"><path fill="#000000" d="M 656.921875 690.261719 L 243.121094 690.261719 C 234.976562 690.261719 227.695312 695.730469 225.417969 703.558594 L 222.484375 713.660156 L 677.558594 713.660156 L 674.625 703.558594 C 672.347656 695.730469 665.066406 690.261719 656.921875 690.261719 Z M 656.921875 690.261719 " fill-opacity="1" fill-rule="nonzero"/></g><path fill="#000000" d="M 436.144531 266.855469 L 463.894531 266.855469 L 463.894531 281.386719 L 436.144531 281.386719 Z M 436.144531 266.855469 " fill-opacity="1" fill-rule="nonzero"/><g clip-path="url(#38daa63967)"><path fill="#000000" d="M 466.292969 258.210938 C 473.1875 250.632812 477.300781 238.902344 477.300781 226.347656 C 477.300781 204.328125 465.0625 186.410156 450.019531 186.410156 C 434.976562 186.410156 422.734375 204.328125 422.734375 226.347656 C 422.734375 238.898438 426.847656 250.628906 433.742188 258.210938 Z M 466.292969 258.210938 " fill-opacity="1" fill-rule="nonzero"/></g><path fill="#000000" d="M 436.144531 290.027344 L 463.894531 290.027344 L 463.894531 624.332031 L 436.144531 624.332031 Z M 436.144531 290.027344 " fill-opacity="1" fill-rule="nonzero"/><path fill="#000000" d="M 335.351562 658.347656 C 327.335938 658.347656 320.164062 663.722656 317.921875 671.417969 L 314.949219 681.621094 L 585.09375 681.621094 L 582.121094 671.417969 C 579.878906 663.71875 572.707031 658.347656 564.691406 658.347656 Z M 335.351562 658.347656 " fill-opacity="1" fill-rule="nonzero"/><path fill="#000000" d="M 431.824219 632.976562 L 383.226562 632.976562 L 383.226562 649.703125 L 516.8125 649.703125 L 516.8125 632.976562 Z M 431.824219 632.976562 " fill-opacity="1" fill-rule="nonzero"/><g clip-path="url(#fea440e4ed)"><path fill="#000000" d="M 370.957031 509.554688 L 349.898438 509.554688 L 303.988281 329.828125 C 307.773438 330.496094 311.5625 330.886719 315.289062 330.886719 C 332.84375 330.886719 346.363281 325.652344 359.441406 320.585938 C 369.828125 316.5625 379.644531 312.761719 390.097656 312.417969 C 405.496094 311.90625 419.472656 318.730469 427.5 323.65625 L 427.5 288.675781 C 421.089844 286.503906 401.804688 280.757812 384.554688 283.710938 C 375.558594 285.25 366.847656 289.925781 357.621094 294.882812 C 344.746094 301.792969 331.441406 308.9375 315.285156 308.9375 C 296.632812 308.9375 286.296875 302.417969 281.21875 297.667969 C 279.460938 299.648438 277.417969 301.394531 275.058594 302.746094 C 272.988281 303.933594 270.347656 303.214844 269.160156 301.144531 C 267.972656 299.074219 268.691406 296.433594 270.761719 295.246094 C 275.746094 292.386719 278.84375 287.050781 278.84375 281.320312 C 278.84375 272.476562 271.652344 265.285156 262.8125 265.285156 C 253.972656 265.285156 246.78125 272.476562 246.78125 281.320312 C 246.78125 289.8125 251.722656 298.738281 259.519531 306.640625 L 207.6875 509.554688 L 186.628906 509.554688 C 190.011719 541.015625 230.054688 565.933594 278.792969 565.933594 C 327.527344 565.933594 367.578125 541.015625 370.957031 509.554688 Z M 340.925781 509.554688 L 283.113281 509.554688 L 283.113281 323.039062 C 286.773438 324.769531 290.550781 326.25 294.410156 327.449219 Z M 274.472656 318.40625 L 274.472656 509.554688 L 216.660156 509.554688 L 266.847656 313.085938 C 269.257812 314.957031 271.78125 316.753906 274.472656 318.40625 Z M 274.472656 318.40625 " fill-opacity="1" fill-rule="nonzero"/></g><g clip-path="url(#c67fa4a28f)"><path fill="#000000" d="M 692.355469 509.554688 L 640.519531 306.644531 C 648.316406 298.742188 653.257812 289.820312 653.257812 281.324219 C 653.257812 272.484375 646.066406 265.292969 637.226562 265.292969 C 628.386719 265.292969 621.195312 272.484375 621.195312 281.324219 C 621.195312 287.058594 624.289062 292.398438 629.277344 295.25 C 631.34375 296.433594 632.0625 299.078125 630.878906 301.148438 C 629.695312 303.21875 627.050781 303.9375 624.980469 302.753906 C 622.621094 301.398438 620.574219 299.652344 618.820312 297.675781 C 613.742188 302.421875 603.402344 308.941406 584.753906 308.941406 C 568.597656 308.941406 555.292969 301.796875 542.417969 294.886719 C 533.191406 289.933594 524.476562 285.253906 515.484375 283.714844 C 498.230469 280.757812 478.953125 286.507812 472.539062 288.679688 L 472.539062 323.671875 C 480.566406 318.757812 494.542969 311.953125 509.941406 312.417969 C 520.394531 312.765625 530.207031 316.5625 540.597656 320.585938 C 553.671875 325.648438 567.195312 330.886719 584.75 330.886719 C 588.476562 330.886719 592.265625 330.496094 596.050781 329.828125 L 550.140625 509.554688 L 529.082031 509.554688 C 532.464844 541.015625 572.507812 565.933594 621.246094 565.933594 C 669.980469 565.933594 710.027344 541.015625 713.410156 509.554688 Z M 633.195312 313.085938 L 683.382812 509.554688 L 625.570312 509.554688 L 625.570312 318.40625 C 628.253906 316.753906 630.785156 314.957031 633.195312 313.085938 Z M 616.925781 323.039062 L 616.925781 509.554688 L 559.113281 509.554688 L 605.628906 327.453125 C 609.488281 326.25 613.269531 324.769531 616.925781 323.039062 Z M 616.925781 323.039062 " fill-opacity="1" fill-rule="nonzero"/></g></svg>