<svg xmlns="http://www.w3.org/2000/svg" xmlns:xlink="http://www.w3.org/1999/xlink" width="1200" zoomAndPan="magnify" viewBox="0 0 900 899.99999" height="1200" preserveAspectRatio="xMidYMid meet" version="1.0"><defs><clipPath id="06e07594ac"><path d="M 90 90.101562 L 810 90.101562 L 810 809.898438 L 90 809.898438 Z M 90 90.101562 " clip-rule="nonzero"/></clipPath><clipPath id="e5f3f6208a"><path d="M 165 90.101562 L 735 90.101562 C 776.421875 90.101562 810 123.679688 810 165.101562 L 810 734.898438 C 810 776.320312 776.421875 809.898438 735 809.898438 L 165 809.898438 C 123.578125 809.898438 90 776.320312 90 734.898438 L 90 165.101562 C 90 123.679688 123.578125 90.101562 165 90.101562 Z M 165 90.101562 " clip-rule="nonzero"/></clipPath><clipPath id="9d35dffb57"><path d="M 357 668 L 400 668 L 400 710.441406 L 357 710.441406 Z M 357 668 " clip-rule="nonzero"/></clipPath><clipPath id="ace638118a"><path d="M 609 366 L 721.675781 366 L 721.675781 556 L 609 556 Z M 609 366 " clip-rule="nonzero"/></clipPath><clipPath id="8f959f8370"><path d="M 178.675781 366 L 292 366 L 292 556 L 178.675781 556 Z M 178.675781 366 " clip-rule="nonzero"/></clipPath><clipPath id="66ab5d3a7f"><path d="M 345 189.191406 L 555 189.191406 L 555 399 L 345 399 Z M 345 189.191406 " clip-rule="nonzero"/></clipPath></defs><g clip-path="url(#06e07594ac)"><g clip-path="url(#e5f3f6208a)"><path fill="#3294cd" d="M 90 90.101562 L 809.796875 90.101562 L 809.796875 809.898438 L 90 809.898438 Z M 90 90.101562 " fill-opacity="1" fill-rule="nonzero"/></g></g><g clip-path="url(#9d35dffb57)"><path fill="#000000" d="M 398.398438 686.28125 L 374.640625 708.84375 C 374.167969 709.382812 373.597656 709.78125 372.929688 710.035156 C 372.261719 710.292969 371.570312 710.378906 370.859375 710.296875 C 370.132812 710.292969 369.4375 710.140625 368.78125 709.835938 C 368.121094 709.53125 367.550781 709.105469 367.078125 708.554688 L 359.320312 699.644531 C 359.09375 699.402344 358.890625 699.136719 358.710938 698.855469 C 358.53125 698.574219 358.382812 698.277344 358.257812 697.964844 C 358.136719 697.65625 358.042969 697.335938 357.980469 697.007812 C 357.917969 696.679688 357.886719 696.347656 357.886719 696.015625 C 357.886719 695.679688 357.917969 695.351562 357.980469 695.023438 C 358.042969 694.695312 358.136719 694.375 358.257812 694.0625 C 358.382812 693.753906 358.53125 693.457031 358.710938 693.171875 C 358.890625 692.890625 359.09375 692.628906 359.320312 692.382812 L 383.367188 670.304688 C 384.351562 669.390625 385.511719 668.9375 386.859375 668.949219 C 388.296875 669.027344 389.527344 669.574219 390.542969 670.597656 L 398.203125 678.921875 C 398.4375 679.164062 398.652344 679.429688 398.839844 679.710938 C 399.027344 679.992188 399.183594 680.289062 399.316406 680.601562 C 399.449219 680.910156 399.550781 681.230469 399.621094 681.5625 C 399.691406 681.894531 399.734375 682.226562 399.742188 682.566406 C 399.75 682.902344 399.726562 683.238281 399.675781 683.574219 C 399.621094 683.90625 399.535156 684.234375 399.421875 684.550781 C 399.304688 684.871094 399.160156 685.171875 398.988281 685.464844 C 398.816406 685.757812 398.621094 686.027344 398.398438 686.28125 Z M 398.398438 686.28125 " fill-opacity="1" fill-rule="nonzero"/></g><path fill="#000000" d="M 361.164062 638.351562 C 361.015625 638.183594 360.839844 638.054688 360.636719 637.964844 C 360.433594 637.871094 360.222656 637.824219 360 637.824219 C 359.777344 637.824219 359.5625 637.871094 359.359375 637.964844 C 359.15625 638.054688 358.984375 638.183594 358.835938 638.351562 L 350.980469 645.515625 L 332.65625 662.847656 L 330.035156 665.269531 C 329.871094 665.417969 329.742188 665.59375 329.648438 665.792969 C 329.558594 665.996094 329.511719 666.210938 329.511719 666.433594 C 329.511719 666.65625 329.558594 666.867188 329.648438 667.070312 C 329.742188 667.273438 329.871094 667.445312 330.035156 667.59375 L 341.480469 680.085938 C 341.632812 680.238281 341.8125 680.359375 342.011719 680.441406 C 342.214844 680.523438 342.425781 680.566406 342.640625 680.566406 C 342.859375 680.566406 343.070312 680.523438 343.273438 680.441406 C 343.472656 680.359375 343.652344 680.238281 343.804688 680.085938 L 367.851562 657.910156 L 370.082031 655.878906 L 372.605469 653.164062 C 372.769531 653.019531 372.902344 652.84375 372.992188 652.640625 C 373.082031 652.4375 373.128906 652.226562 373.128906 652.003906 C 373.128906 651.78125 373.082031 651.570312 372.992188 651.367188 C 372.902344 651.164062 372.769531 650.988281 372.605469 650.84375 Z M 361.164062 638.351562 " fill-opacity="1" fill-rule="nonzero"/><path fill="#000000" d="M 342.738281 625.761719 C 342.96875 625.511719 343.171875 625.246094 343.351562 624.960938 C 343.53125 624.671875 343.683594 624.371094 343.808594 624.058594 C 343.929688 623.742188 344.023438 623.417969 344.085938 623.085938 C 344.148438 622.753906 344.179688 622.421875 344.179688 622.082031 C 344.179688 621.742188 344.148438 621.410156 344.085938 621.078125 C 344.023438 620.746094 343.929688 620.421875 343.808594 620.105469 C 343.683594 619.792969 343.53125 619.492188 343.351562 619.203125 C 343.171875 618.917969 342.96875 618.652344 342.738281 618.402344 L 335.371094 610.074219 C 334.890625 609.566406 334.332031 609.167969 333.691406 608.882812 C 333.054688 608.597656 332.386719 608.445312 331.683594 608.429688 C 330.371094 608.433594 329.207031 608.855469 328.195312 609.6875 L 304.730469 631.570312 C 304.175781 632.023438 303.746094 632.570312 303.441406 633.214844 C 303.136719 633.859375 302.984375 634.539062 302.984375 635.25 C 302.9375 635.949219 303.035156 636.625 303.269531 637.28125 C 303.503906 637.9375 303.863281 638.519531 304.339844 639.027344 L 311.808594 647.257812 C 312.839844 648.332031 314.101562 648.914062 315.589844 649.003906 C 316.277344 649.019531 316.941406 648.90625 317.582031 648.652344 C 318.21875 648.398438 318.785156 648.03125 319.273438 647.550781 L 337.210938 631.085938 Z M 342.738281 625.761719 " fill-opacity="1" fill-rule="nonzero"/><g clip-path="url(#ace638118a)"><path fill="#000000" d="M 669.800781 367.117188 C 669.636719 366.617188 669.316406 366.261719 668.832031 366.054688 L 667.570312 366.054688 L 609.972656 390.84375 C 609.601562 391.035156 609.335938 391.320312 609.171875 391.703125 C 609.007812 392.085938 608.984375 392.476562 609.101562 392.875 L 659.617188 554.007812 C 659.71875 554.519531 660.007812 554.875 660.492188 555.074219 C 660.945312 555.332031 661.394531 555.332031 661.847656 555.074219 L 720.707031 528.539062 C 720.886719 528.464844 721.050781 528.359375 721.191406 528.222656 C 721.335938 528.082031 721.445312 527.925781 721.527344 527.746094 C 721.609375 527.566406 721.652344 527.375 721.660156 527.179688 C 721.671875 526.980469 721.644531 526.789062 721.578125 526.605469 Z M 669.800781 367.117188 " fill-opacity="1" fill-rule="nonzero"/></g><path fill="#000000" d="M 484.890625 441.679688 C 479.292969 442.894531 473.636719 443.636719 467.921875 443.90625 C 462.292969 444.402344 456.777344 445.46875 451.375 447.097656 C 445.96875 448.730469 440.785156 450.894531 435.824219 453.589844 C 428.707031 457.40625 422.242188 462.121094 416.433594 467.730469 L 397.71875 486.515625 C 396.945312 487.375 396.261719 488.300781 395.667969 489.289062 C 395.070312 490.28125 394.574219 491.316406 394.175781 492.402344 C 393.78125 493.484375 393.488281 494.597656 393.300781 495.738281 C 393.117188 496.878906 393.039062 498.023438 393.070312 499.179688 C 393.105469 500.332031 393.246094 501.472656 393.496094 502.601562 C 393.746094 503.730469 394.101562 504.824219 394.558594 505.882812 C 395.019531 506.945312 395.574219 507.949219 396.222656 508.90625 C 396.875 509.859375 397.609375 510.746094 398.429688 511.558594 C 399.246094 512.375 400.136719 513.105469 401.09375 513.753906 C 402.054688 514.398438 403.0625 514.949219 404.128906 515.402344 C 405.191406 515.855469 406.289062 516.207031 407.417969 516.453125 C 408.546875 516.699219 409.691406 516.835938 410.847656 516.863281 C 412.003906 516.890625 413.152344 516.808594 414.292969 516.621094 C 415.433594 516.429688 416.546875 516.136719 417.628906 515.734375 C 418.714844 515.332031 419.75 514.832031 420.738281 514.234375 C 421.730469 513.636719 422.652344 512.949219 423.511719 512.175781 L 436.601562 499.007812 C 438.964844 496.664062 441.53125 494.570312 444.300781 492.730469 C 447.074219 490.890625 450 489.332031 453.074219 488.0625 C 456.152344 486.792969 459.324219 485.832031 462.585938 485.179688 C 465.851562 484.527344 469.148438 484.199219 472.476562 484.191406 L 498.949219 484.191406 L 498.949219 496.488281 L 579.332031 576.28125 L 636.929688 549.84375 L 594.167969 412.726562 Z M 484.890625 441.679688 " fill-opacity="1" fill-rule="nonzero"/><path fill="#000000" d="M 569.441406 595.066406 L 478.488281 504.71875 L 472.671875 504.71875 C 470.667969 504.722656 468.6875 504.917969 466.722656 505.304688 C 464.757812 505.691406 462.851562 506.261719 461 507.015625 C 459.144531 507.769531 457.382812 508.695312 455.707031 509.792969 C 454.035156 510.890625 452.480469 512.136719 451.046875 513.53125 L 437.859375 526.699219 C 436.980469 527.5625 436.0625 528.378906 435.101562 529.148438 C 434.144531 529.921875 433.152344 530.648438 432.125 531.324219 C 431.097656 532.003906 430.039062 532.632812 428.949219 533.207031 C 427.863281 533.785156 426.75 534.308594 425.613281 534.78125 C 424.476562 535.253906 423.316406 535.671875 422.140625 536.03125 C 420.964844 536.394531 419.773438 536.699219 418.566406 536.945312 C 417.359375 537.195312 416.144531 537.382812 414.917969 537.515625 C 413.695312 537.648438 412.464844 537.722656 411.234375 537.738281 C 410.003906 537.753906 408.773438 537.710938 407.546875 537.609375 C 406.320312 537.507812 405.097656 537.347656 403.886719 537.132812 C 402.675781 536.914062 401.476562 536.640625 400.289062 536.308594 C 399.101562 535.976562 397.933594 535.589844 396.785156 535.148438 C 395.636719 534.703125 394.511719 534.207031 393.410156 533.660156 C 392.308594 533.109375 391.234375 532.507812 390.191406 531.855469 C 389.144531 531.203125 388.132812 530.503906 387.15625 529.757812 C 386.179688 529.007812 385.238281 528.214844 384.335938 527.378906 C 383.414062 526.503906 382.535156 525.582031 381.703125 524.621094 C 380.871094 523.65625 380.085938 522.65625 379.355469 521.613281 C 378.625 520.574219 377.945312 519.5 377.320312 518.390625 C 376.699219 517.28125 376.128906 516.144531 375.621094 514.976562 C 375.109375 513.8125 374.660156 512.625 374.265625 511.414062 C 373.875 510.203125 373.546875 508.976562 373.277344 507.730469 C 373.007812 506.488281 372.804688 505.234375 372.660156 503.96875 C 372.519531 502.707031 372.4375 501.4375 372.421875 500.167969 C 372.40625 498.894531 372.457031 497.625 372.566406 496.355469 C 372.679688 495.089844 372.851562 493.832031 373.089844 492.582031 C 373.328125 491.332031 373.625 490.097656 373.988281 488.875 C 374.347656 487.65625 374.769531 486.457031 375.25 485.28125 C 375.734375 484.101562 376.269531 482.953125 376.867188 481.828125 C 377.464844 480.703125 378.117188 479.613281 378.820312 478.550781 C 379.527344 477.492188 380.285156 476.472656 381.09375 475.488281 C 381.902344 474.503906 382.753906 473.566406 383.65625 472.667969 L 402.371094 453.976562 C 403.039062 453.3125 403.75 452.699219 404.503906 452.136719 L 403.921875 452.136719 C 391.070312 445.59375 377.65625 440.523438 363.683594 436.933594 L 304.921875 417.570312 L 263.230469 550.714844 L 314.910156 595.066406 C 315.53125 594.515625 316.175781 594 316.847656 593.515625 C 317.515625 593.027344 318.210938 592.578125 318.925781 592.160156 C 319.640625 591.738281 320.371094 591.359375 321.125 591.011719 C 321.875 590.664062 322.644531 590.355469 323.425781 590.082031 C 324.207031 589.808594 325 589.574219 325.808594 589.382812 C 326.613281 589.1875 327.425781 589.03125 328.246094 588.914062 C 329.066406 588.796875 329.890625 588.722656 330.714844 588.6875 C 331.542969 588.652344 332.371094 588.65625 333.199219 588.699219 C 334.027344 588.746094 334.847656 588.832031 335.667969 588.953125 C 336.488281 589.078125 337.296875 589.246094 338.101562 589.449219 C 338.902344 589.652344 339.695312 589.894531 340.472656 590.175781 C 341.253906 590.457031 342.015625 590.773438 342.765625 591.128906 C 343.511719 591.484375 344.242188 591.875 344.953125 592.300781 C 345.660156 592.726562 346.347656 593.1875 347.015625 593.679688 C 347.679688 594.171875 348.320312 594.695312 348.933594 595.25 C 349.546875 595.804688 350.132812 596.390625 350.691406 597.003906 L 358.058594 605.234375 C 359.699219 607.101562 361.039062 609.164062 362.078125 611.421875 C 363.117188 613.679688 363.816406 616.039062 364.167969 618.5 C 366.433594 618.929688 368.578125 619.699219 370.597656 620.808594 C 372.621094 621.914062 374.417969 623.308594 375.996094 624.988281 L 387.441406 637.480469 C 389.03125 639.1875 390.316406 641.101562 391.292969 643.21875 C 392.269531 645.339844 392.894531 647.554688 393.160156 649.875 C 395.605469 650.449219 397.910156 651.371094 400.078125 652.644531 C 402.242188 653.914062 404.171875 655.476562 405.863281 657.328125 L 413.523438 665.5625 C 414.035156 666.128906 414.519531 666.71875 414.976562 667.332031 C 415.4375 667.945312 415.867188 668.574219 416.269531 669.226562 C 416.667969 669.878906 417.039062 670.546875 417.382812 671.230469 C 417.722656 671.914062 418.035156 672.609375 418.3125 673.324219 C 418.59375 674.035156 418.839844 674.757812 419.054688 675.492188 C 419.265625 676.226562 419.449219 676.96875 419.59375 677.71875 C 419.742188 678.46875 419.855469 679.222656 419.933594 679.984375 C 420.015625 680.742188 420.058594 681.507812 420.070312 682.269531 C 420.082031 683.035156 420.058594 683.796875 420 684.5625 C 419.945312 685.324219 419.851562 686.082031 419.726562 686.835938 C 419.601562 687.589844 419.441406 688.335938 419.25 689.074219 C 419.054688 689.816406 418.832031 690.546875 418.570312 691.265625 C 418.3125 691.984375 418.023438 692.691406 417.703125 693.386719 C 417.378906 694.078125 417.027344 694.757812 416.644531 695.417969 C 416.261719 696.082031 415.851562 696.722656 415.410156 697.347656 C 414.96875 697.972656 414.503906 698.578125 414.007812 699.160156 C 414.546875 699.691406 415.109375 700.195312 415.695312 700.667969 C 416.28125 701.144531 416.890625 701.589844 417.519531 702.003906 C 418.152344 702.421875 418.800781 702.804688 419.46875 703.15625 C 420.136719 703.507812 420.816406 703.828125 421.515625 704.117188 C 422.214844 704.402344 422.925781 704.652344 423.648438 704.871094 C 424.375 705.085938 425.105469 705.269531 425.847656 705.414062 C 426.585938 705.558594 427.335938 705.667969 428.085938 705.742188 C 428.835938 705.816406 429.589844 705.851562 430.347656 705.851562 C 431.101562 705.851562 431.855469 705.816406 432.605469 705.742188 C 433.359375 705.667969 434.105469 705.558594 434.847656 705.414062 C 435.585938 705.269531 436.320312 705.085938 437.042969 704.871094 C 437.765625 704.652344 438.476562 704.402344 439.175781 704.117188 C 439.875 703.828125 440.558594 703.507812 441.226562 703.15625 C 441.894531 702.804688 442.542969 702.421875 443.171875 702.003906 C 443.800781 701.589844 444.410156 701.144531 444.996094 700.667969 C 445.585938 700.195312 446.148438 699.691406 446.683594 699.160156 L 447.460938 698.289062 C 447.964844 697.792969 448.445312 697.269531 448.902344 696.726562 C 449.359375 696.1875 449.792969 695.625 450.195312 695.039062 C 450.601562 694.457031 450.980469 693.859375 451.332031 693.242188 C 451.679688 692.625 452 691.992188 452.292969 691.347656 C 452.585938 690.699219 452.847656 690.042969 453.078125 689.371094 C 453.308594 688.699219 453.507812 688.019531 453.679688 687.332031 C 453.847656 686.644531 453.984375 685.949219 454.089844 685.246094 C 454.191406 684.546875 454.265625 683.839844 454.304688 683.132812 C 454.34375 682.425781 454.351562 681.714844 454.328125 681.007812 C 454.300781 680.296875 454.242188 679.59375 454.152344 678.890625 C 454.0625 678.1875 453.941406 677.488281 453.785156 676.796875 C 453.632812 676.105469 453.445312 675.421875 453.226562 674.746094 C 453.011719 674.070312 452.761719 673.40625 452.484375 672.753906 C 452.207031 672.101562 451.898438 671.464844 451.558594 670.839844 C 451.222656 670.214844 450.859375 669.609375 450.464844 669.015625 C 450.070312 668.425781 449.652344 667.855469 449.207031 667.304688 L 386.953125 605.234375 L 401.695312 591 L 442.417969 631.667969 L 475.96875 665.171875 C 476.515625 665.691406 477.085938 666.179688 477.679688 666.644531 C 478.273438 667.105469 478.886719 667.539062 479.523438 667.945312 C 480.160156 668.347656 480.8125 668.722656 481.480469 669.066406 C 482.152344 669.410156 482.835938 669.71875 483.535156 669.996094 C 484.238281 670.273438 484.949219 670.519531 485.671875 670.730469 C 486.394531 670.941406 487.125 671.117188 487.867188 671.257812 C 488.605469 671.402344 489.351562 671.507812 490.101562 671.578125 C 490.851562 671.648438 491.601562 671.683594 492.355469 671.683594 C 493.109375 671.683594 493.859375 671.648438 494.609375 671.578125 C 495.359375 671.507812 496.105469 671.402344 496.84375 671.257812 C 497.585938 671.117188 498.316406 670.941406 499.039062 670.730469 C 499.761719 670.519531 500.472656 670.273438 501.171875 669.996094 C 501.875 669.71875 502.558594 669.410156 503.230469 669.066406 C 503.898438 668.722656 504.550781 668.347656 505.1875 667.945312 C 505.820312 667.539062 506.4375 667.105469 507.03125 666.644531 C 507.625 666.179688 508.195312 665.691406 508.742188 665.171875 C 509.28125 664.636719 509.789062 664.074219 510.273438 663.484375 C 510.753906 662.894531 511.207031 662.285156 511.628906 661.652344 C 512.050781 661.023438 512.441406 660.371094 512.796875 659.699219 C 513.15625 659.03125 513.480469 658.34375 513.773438 657.640625 C 514.0625 656.9375 514.320312 656.222656 514.539062 655.496094 C 514.761719 654.769531 514.945312 654.03125 515.09375 653.285156 C 515.242188 652.542969 515.351562 651.789062 515.425781 651.035156 C 515.5 650.277344 515.539062 649.519531 515.539062 648.761719 C 515.539062 648 515.5 647.242188 515.425781 646.484375 C 515.351562 645.730469 515.242188 644.976562 515.09375 644.234375 C 514.945312 643.488281 514.761719 642.75 514.539062 642.023438 C 514.320312 641.296875 514.0625 640.582031 513.773438 639.878906 C 513.480469 639.175781 513.15625 638.492188 512.796875 637.820312 C 512.441406 637.148438 512.050781 636.5 511.628906 635.867188 C 511.207031 635.234375 510.753906 634.625 510.273438 634.035156 C 509.789062 633.449219 509.28125 632.882812 508.742188 632.347656 L 429.425781 553.425781 L 443.679688 539.09375 L 532.011719 627.3125 C 532.632812 627.910156 533.277344 628.476562 533.953125 629.011719 C 534.625 629.546875 535.324219 630.046875 536.042969 630.515625 C 536.765625 630.984375 537.507812 631.417969 538.269531 631.8125 C 539.035156 632.210938 539.816406 632.570312 540.613281 632.890625 C 541.410156 633.214844 542.222656 633.496094 543.046875 633.742188 C 543.871094 633.984375 544.707031 634.1875 545.550781 634.351562 C 546.394531 634.515625 547.246094 634.640625 548.101562 634.722656 C 548.960938 634.804688 549.820312 634.847656 550.679688 634.847656 C 551.539062 634.847656 552.398438 634.804688 553.253906 634.722656 C 554.113281 634.640625 554.960938 634.515625 555.808594 634.351562 C 556.652344 634.1875 557.488281 633.984375 558.3125 633.742188 C 559.136719 633.496094 559.949219 633.214844 560.746094 632.890625 C 561.542969 632.570312 562.324219 632.210938 563.085938 631.8125 C 563.851562 631.417969 564.59375 630.984375 565.3125 630.515625 C 566.035156 630.046875 566.734375 629.546875 567.40625 629.011719 C 568.078125 628.476562 568.726562 627.910156 569.34375 627.3125 C 569.882812 626.792969 570.390625 626.246094 570.875 625.679688 C 571.359375 625.109375 571.8125 624.515625 572.238281 623.902344 C 572.664062 623.289062 573.058594 622.65625 573.421875 622.003906 C 573.785156 621.351562 574.117188 620.683594 574.414062 620 C 574.710938 619.3125 574.972656 618.617188 575.203125 617.90625 C 575.433594 617.195312 575.628906 616.476562 575.785156 615.746094 C 575.945312 615.015625 576.066406 614.28125 576.152344 613.539062 C 576.238281 612.796875 576.289062 612.054688 576.304688 611.308594 C 576.316406 610.5625 576.292969 609.816406 576.234375 609.074219 C 576.175781 608.328125 576.078125 607.589844 575.945312 606.855469 C 575.8125 606.121094 575.644531 605.394531 575.441406 604.675781 C 575.238281 603.957031 575 603.25 574.726562 602.554688 C 574.457031 601.859375 574.148438 601.179688 573.808594 600.515625 C 573.46875 599.851562 573.097656 599.203125 572.695312 598.574219 C 572.292969 597.945312 571.859375 597.339844 571.398438 596.753906 C 570.933594 596.167969 570.445312 595.605469 569.925781 595.066406 Z M 569.441406 595.066406 " fill-opacity="1" fill-rule="nonzero"/><g clip-path="url(#8f959f8370)"><path fill="#000000" d="M 290.378906 390.84375 L 232.78125 366.054688 L 231.519531 366.054688 C 231.035156 366.261719 230.714844 366.617188 230.550781 367.117188 L 178.675781 526.605469 C 178.609375 526.789062 178.582031 526.980469 178.59375 527.179688 C 178.601562 527.375 178.644531 527.566406 178.726562 527.746094 C 178.808594 527.925781 178.921875 528.082031 179.0625 528.222656 C 179.203125 528.359375 179.367188 528.464844 179.546875 528.539062 L 238.40625 555.074219 C 238.859375 555.332031 239.3125 555.332031 239.761719 555.074219 C 240.246094 554.875 240.535156 554.519531 240.636719 554.007812 L 291.152344 392.875 C 291.277344 392.488281 291.269531 392.105469 291.125 391.722656 C 290.976562 391.34375 290.730469 391.050781 290.378906 390.84375 Z M 290.378906 390.84375 " fill-opacity="1" fill-rule="nonzero"/></g><g clip-path="url(#66ab5d3a7f)"><path fill="#000000" d="M 450.175781 189.234375 C 448.460938 189.234375 446.75 189.273438 445.035156 189.355469 C 443.324219 189.4375 441.613281 189.5625 439.910156 189.726562 C 438.203125 189.894531 436.5 190.101562 434.804688 190.351562 C 433.109375 190.601562 431.421875 190.894531 429.738281 191.226562 C 428.058594 191.558594 426.386719 191.929688 424.722656 192.347656 C 423.058594 192.761719 421.40625 193.214844 419.765625 193.710938 C 418.125 194.207031 416.5 194.742188 414.882812 195.316406 C 413.269531 195.894531 411.671875 196.507812 410.085938 197.160156 C 408.5 197.816406 406.933594 198.507812 405.382812 199.238281 C 403.832031 199.96875 402.300781 200.734375 400.789062 201.542969 C 399.277344 202.347656 397.785156 203.191406 396.316406 204.070312 C 394.84375 204.949219 393.394531 205.863281 391.96875 206.8125 C 390.542969 207.761719 389.140625 208.746094 387.761719 209.765625 C 386.386719 210.785156 385.035156 211.835938 383.707031 212.921875 C 382.382812 214.003906 381.082031 215.121094 379.8125 216.269531 C 378.542969 217.417969 377.300781 218.597656 376.085938 219.808594 C 374.875 221.019531 373.691406 222.257812 372.539062 223.523438 C 371.386719 224.792969 370.265625 226.085938 369.179688 227.410156 C 368.089844 228.730469 367.035156 230.078125 366.011719 231.453125 C 364.988281 232.828125 364.003906 234.226562 363.046875 235.648438 C 362.09375 237.070312 361.175781 238.515625 360.296875 239.984375 C 359.414062 241.453125 358.566406 242.941406 357.757812 244.449219 C 356.949219 245.960938 356.175781 247.488281 355.441406 249.035156 C 354.710938 250.582031 354.015625 252.144531 353.355469 253.726562 C 352.699219 255.308594 352.082031 256.902344 351.503906 258.515625 C 350.925781 260.125 350.386719 261.75 349.886719 263.390625 C 349.386719 265.027344 348.929688 266.675781 348.511719 268.335938 C 348.09375 269.996094 347.71875 271.667969 347.382812 273.34375 C 347.046875 275.023438 346.753906 276.710938 346.5 278.402344 C 346.25 280.097656 346.039062 281.792969 345.867188 283.496094 C 345.699219 285.203125 345.570312 286.90625 345.488281 288.617188 C 345.402344 290.328125 345.359375 292.039062 345.355469 293.75 C 345.355469 295.460938 345.398438 297.171875 345.480469 298.882812 C 345.5625 300.59375 345.6875 302.300781 345.855469 304.003906 C 346.023438 305.707031 346.230469 307.40625 346.480469 309.097656 C 346.730469 310.792969 347.023438 312.480469 347.359375 314.15625 C 347.691406 315.835938 348.066406 317.507812 348.480469 319.167969 C 348.898438 320.828125 349.351562 322.480469 349.847656 324.117188 C 350.347656 325.753906 350.882812 327.378906 351.460938 328.992188 C 352.035156 330.605469 352.652344 332.203125 353.308594 333.785156 C 353.960938 335.367188 354.65625 336.929688 355.386719 338.480469 C 356.121094 340.027344 356.890625 341.554688 357.695312 343.066406 C 358.503906 344.574219 359.347656 346.066406 360.230469 347.535156 C 361.109375 349.003906 362.023438 350.449219 362.976562 351.875 C 363.929688 353.296875 364.914062 354.695312 365.933594 356.070312 C 366.957031 357.449219 368.007812 358.796875 369.097656 360.121094 C 370.183594 361.445312 371.300781 362.742188 372.453125 364.011719 C 373.601562 365.277344 374.785156 366.519531 375.996094 367.730469 C 377.207031 368.941406 378.449219 370.121094 379.71875 371.273438 C 380.988281 372.421875 382.285156 373.539062 383.609375 374.628906 C 384.933594 375.714844 386.285156 376.765625 387.660156 377.789062 C 389.035156 378.808594 390.4375 379.792969 391.863281 380.746094 C 393.285156 381.699219 394.734375 382.613281 396.203125 383.496094 C 397.671875 384.375 399.164062 385.21875 400.675781 386.027344 C 402.1875 386.835938 403.71875 387.605469 405.265625 388.335938 C 406.816406 389.070312 408.382812 389.761719 409.964844 390.417969 C 411.550781 391.074219 413.148438 391.691406 414.761719 392.269531 C 416.375 392.847656 418.003906 393.382812 419.644531 393.882812 C 421.28125 394.378906 422.933594 394.835938 424.597656 395.253906 C 426.261719 395.667969 427.933594 396.042969 429.613281 396.378906 C 431.292969 396.714844 432.980469 397.007812 434.679688 397.257812 C 436.375 397.511719 438.074219 397.71875 439.78125 397.886719 C 441.484375 398.058594 443.195312 398.183594 444.90625 398.269531 C 446.617188 398.351562 448.332031 398.394531 450.046875 398.394531 C 451.761719 398.394531 453.472656 398.355469 455.1875 398.269531 C 456.898438 398.1875 458.605469 398.0625 460.3125 397.894531 C 462.019531 397.726562 463.71875 397.519531 465.414062 397.269531 C 467.109375 397.015625 468.800781 396.726562 470.480469 396.390625 C 472.164062 396.058594 473.835938 395.683594 475.496094 395.269531 C 477.160156 394.851562 478.8125 394.398438 480.453125 393.898438 C 482.09375 393.402344 483.71875 392.867188 485.335938 392.289062 C 486.949219 391.714844 488.546875 391.097656 490.132812 390.445312 C 491.714844 389.789062 493.28125 389.097656 494.832031 388.363281 C 496.382812 387.632812 497.914062 386.863281 499.425781 386.058594 C 500.9375 385.25 502.425781 384.40625 503.898438 383.527344 C 505.367188 382.648438 506.816406 381.734375 508.242188 380.78125 C 509.667969 379.832031 511.070312 378.847656 512.445312 377.828125 C 513.824219 376.808594 515.175781 375.753906 516.5 374.667969 C 517.824219 373.582031 519.121094 372.464844 520.394531 371.316406 C 521.664062 370.167969 522.902344 368.988281 524.117188 367.777344 C 525.328125 366.566406 526.511719 365.328125 527.660156 364.058594 C 528.8125 362.789062 529.933594 361.496094 531.019531 360.171875 C 532.109375 358.847656 533.164062 357.5 534.183594 356.125 C 535.207031 354.75 536.191406 353.351562 537.144531 351.925781 C 538.097656 350.503906 539.015625 349.058594 539.894531 347.589844 C 540.777344 346.121094 541.621094 344.632812 542.429688 343.121094 C 543.238281 341.613281 544.007812 340.085938 544.742188 338.539062 C 545.476562 336.988281 546.167969 335.425781 546.824219 333.84375 C 547.480469 332.261719 548.097656 330.664062 548.675781 329.054688 C 549.253906 327.441406 549.792969 325.816406 550.289062 324.179688 C 550.785156 322.539062 551.242188 320.890625 551.660156 319.230469 C 552.078125 317.570312 552.453125 315.902344 552.789062 314.222656 C 553.121094 312.542969 553.414062 310.855469 553.667969 309.164062 C 553.917969 307.46875 554.128906 305.769531 554.296875 304.066406 C 554.464844 302.363281 554.589844 300.65625 554.675781 298.949219 C 554.757812 297.238281 554.800781 295.527344 554.800781 293.816406 C 554.800781 292.105469 554.757812 290.394531 554.675781 288.6875 C 554.589844 286.976562 554.464844 285.273438 554.296875 283.570312 C 554.128906 281.867188 553.917969 280.171875 553.667969 278.480469 C 553.417969 276.785156 553.125 275.101562 552.789062 273.425781 C 552.457031 271.746094 552.082031 270.078125 551.664062 268.417969 C 551.25 266.757812 550.792969 265.109375 550.296875 263.472656 C 549.800781 261.835938 549.261719 260.214844 548.6875 258.601562 C 548.109375 256.992188 547.492188 255.394531 546.839844 253.816406 C 546.183594 252.234375 545.488281 250.671875 544.757812 249.125 C 544.027344 247.578125 543.257812 246.050781 542.449219 244.542969 C 541.640625 243.035156 540.796875 241.546875 539.917969 240.078125 C 539.039062 238.609375 538.121094 237.164062 537.171875 235.742188 C 536.21875 234.320312 535.234375 232.921875 534.214844 231.546875 C 533.195312 230.171875 532.140625 228.824219 531.054688 227.503906 C 529.96875 226.179688 528.851562 224.882812 527.703125 223.617188 C 526.554688 222.347656 525.371094 221.109375 524.164062 219.898438 C 522.953125 218.6875 521.710938 217.507812 520.445312 216.359375 C 519.175781 215.210938 517.878906 214.09375 516.554688 213.007812 C 515.230469 211.921875 513.882812 210.867188 512.507812 209.847656 C 511.132812 208.828125 509.734375 207.84375 508.308594 206.894531 C 506.886719 205.941406 505.441406 205.027344 503.972656 204.144531 C 502.503906 203.265625 501.011719 202.421875 499.503906 201.613281 C 497.992188 200.808594 496.464844 200.039062 494.914062 199.304688 C 493.367188 198.574219 491.804688 197.878906 490.222656 197.222656 C 488.640625 196.566406 487.042969 195.949219 485.429688 195.371094 C 483.816406 194.796875 482.191406 194.257812 480.554688 193.761719 C 478.914062 193.261719 477.265625 192.804688 475.601562 192.386719 C 473.941406 191.972656 472.273438 191.59375 470.59375 191.261719 C 468.914062 190.925781 467.226562 190.632812 465.53125 190.378906 C 463.835938 190.125 462.136719 189.914062 460.433594 189.746094 C 458.730469 189.578125 457.023438 189.449219 455.3125 189.363281 C 453.601562 189.277344 451.886719 189.234375 450.175781 189.234375 Z M 502.632812 275.511719 L 436.601562 340.972656 L 397.816406 302.238281 C 397.351562 301.769531 396.941406 301.257812 396.578125 300.707031 C 396.214844 300.15625 395.910156 299.578125 395.660156 298.964844 C 395.410156 298.355469 395.222656 297.726562 395.09375 297.082031 C 394.96875 296.433594 394.90625 295.78125 394.90625 295.121094 C 394.90625 294.464844 394.96875 293.808594 395.09375 293.164062 C 395.222656 292.515625 395.410156 291.886719 395.660156 291.277344 C 395.910156 290.667969 396.214844 290.085938 396.578125 289.535156 C 396.941406 288.984375 397.351562 288.476562 397.816406 288.003906 C 398.792969 287.101562 399.902344 286.398438 401.136719 285.898438 C 402.371094 285.398438 403.65625 285.132812 404.992188 285.101562 C 406.324219 285.121094 407.613281 285.382812 408.847656 285.886719 C 410.085938 286.386719 411.191406 287.09375 412.164062 288.003906 L 436.699219 312.503906 L 488.378906 260.890625 C 488.835938 260.390625 489.335938 259.945312 489.882812 259.550781 C 490.429688 259.15625 491.015625 258.820312 491.632812 258.550781 C 492.25 258.277344 492.890625 258.070312 493.550781 257.929688 C 494.210938 257.789062 494.878906 257.722656 495.554688 257.722656 C 496.230469 257.722656 496.898438 257.789062 497.558594 257.929688 C 498.222656 258.070312 498.859375 258.277344 499.476562 258.550781 C 500.097656 258.820312 500.679688 259.15625 501.226562 259.550781 C 501.773438 259.945312 502.277344 260.390625 502.730469 260.890625 C 503.679688 261.820312 504.40625 262.898438 504.914062 264.128906 C 505.417969 265.355469 505.660156 266.632812 505.640625 267.960938 C 505.679688 269.371094 505.4375 270.734375 504.917969 272.046875 C 504.394531 273.359375 503.632812 274.515625 502.632812 275.511719 Z M 502.632812 275.511719 " fill-opacity="1" fill-rule="nonzero"/></g></svg>