<svg xmlns="http://www.w3.org/2000/svg" xmlns:xlink="http://www.w3.org/1999/xlink" width="1200" zoomAndPan="magnify" viewBox="0 0 900 899.99999" height="1200" preserveAspectRatio="xMidYMid meet" version="1.0"><defs><clipPath id="5bdf4856e1"><path d="M 90 90.101562 L 810 90.101562 L 810 809.898438 L 90 809.898438 Z M 90 90.101562 " clip-rule="nonzero"/></clipPath><clipPath id="04a1959892"><path d="M 165 90.101562 L 735 90.101562 C 776.421875 90.101562 810 123.679688 810 165.101562 L 810 734.898438 C 810 776.320312 776.421875 809.898438 735 809.898438 L 165 809.898438 C 123.578125 809.898438 90 776.320312 90 734.898438 L 90 165.101562 C 90 123.679688 123.578125 90.101562 165 90.101562 Z M 165 90.101562 " clip-rule="nonzero"/></clipPath><clipPath id="1fdffb4a09"><path d="M 186.410156 537 L 363 537 L 363 713.660156 L 186.410156 713.660156 Z M 186.410156 537 " clip-rule="nonzero"/></clipPath><clipPath id="0a7b55e94b"><path d="M 608 186.410156 L 713.660156 186.410156 L 713.660156 292 L 608 292 Z M 608 186.410156 " clip-rule="nonzero"/></clipPath><clipPath id="c346217121"><path d="M 362 406 L 713.660156 406 L 713.660156 697 L 362 697 Z M 362 406 " clip-rule="nonzero"/></clipPath><clipPath id="e88c0a6f90"><path d="M 203 186.410156 L 222 186.410156 L 222 204 L 203 204 Z M 203 186.410156 " clip-rule="nonzero"/></clipPath><clipPath id="d84023ba51"><path d="M 186.410156 203 L 204 203 L 204 222 L 186.410156 222 Z M 186.410156 203 " clip-rule="nonzero"/></clipPath><clipPath id="ec586fff16"><path d="M 696 678 L 713.660156 678 L 713.660156 697 L 696 697 Z M 696 678 " clip-rule="nonzero"/></clipPath><clipPath id="07c37419cf"><path d="M 678 696 L 697 696 L 697 713.660156 L 678 713.660156 Z M 678 696 " clip-rule="nonzero"/></clipPath></defs><g clip-path="url(#5bdf4856e1)"><g clip-path="url(#04a1959892)"><path fill="#3294cd" d="M 90 90.101562 L 809.796875 90.101562 L 809.796875 809.898438 L 90 809.898438 Z M 90 90.101562 " fill-opacity="1" fill-rule="nonzero"/></g></g><g clip-path="url(#1fdffb4a09)"><path fill="#000000" d="M 213.730469 661.4375 L 199.699219 675.472656 L 224.601562 700.375 L 238.644531 686.332031 C 244.207031 689.609375 250.261719 692.132812 256.675781 693.785156 L 256.675781 713.660156 L 291.898438 713.660156 L 291.898438 693.765625 C 298.300781 692.105469 304.339844 689.582031 309.902344 686.304688 L 323.972656 700.375 L 348.875 675.472656 L 334.796875 661.394531 C 338.074219 655.839844 340.589844 649.800781 342.238281 643.394531 L 362.160156 643.394531 L 362.160156 608.175781 L 342.238281 608.175781 C 340.589844 601.777344 338.074219 595.742188 334.796875 590.179688 L 348.875 576.101562 L 323.972656 551.199219 L 309.894531 565.277344 C 304.332031 561.996094 298.292969 559.476562 291.898438 557.816406 L 291.898438 537.910156 L 256.675781 537.910156 L 256.675781 557.789062 C 250.261719 559.441406 244.214844 561.960938 238.644531 565.242188 L 224.601562 551.199219 L 199.699219 576.101562 L 213.730469 590.136719 C 210.445312 595.707031 207.921875 601.753906 206.261719 608.175781 L 186.410156 608.175781 L 186.410156 643.394531 L 206.261719 643.394531 C 207.921875 649.8125 210.445312 655.867188 213.730469 661.4375 Z M 274.285156 590.636719 C 293.699219 590.636719 309.4375 606.375 309.4375 625.785156 C 309.4375 645.199219 293.699219 660.9375 274.285156 660.9375 C 254.875 660.9375 239.136719 645.199219 239.136719 625.785156 C 239.136719 606.375 254.875 590.636719 274.285156 590.636719 Z M 274.285156 590.636719 " fill-opacity="1" fill-rule="nonzero"/></g><g clip-path="url(#0a7b55e94b)"><path fill="#000000" d="M 677.226562 221.121094 L 660.9375 186.410156 L 644.644531 221.121094 L 608.210938 226.691406 L 634.574219 253.707031 L 628.351562 291.859375 L 660.9375 273.847656 L 693.519531 291.859375 L 687.300781 253.707031 L 713.660156 226.691406 Z M 677.226562 221.121094 " fill-opacity="1" fill-rule="nonzero"/></g><g clip-path="url(#c346217121)"><path fill="#000000" d="M 696.085938 406.097656 L 617 450.035156 L 652.148438 458.824219 C 631.402344 487.789062 573.140625 560.933594 467.613281 599.421875 C 439.824219 609.554688 413.15625 615.691406 388.523438 619.132812 L 362.160156 696.085938 C 553.472656 685.578125 664.230469 511.410156 687.300781 476.398438 L 713.660156 485.1875 Z M 696.085938 406.097656 " fill-opacity="1" fill-rule="nonzero"/></g><g clip-path="url(#e88c0a6f90)"><path fill="#000000" d="M 203.988281 186.410156 L 221.5625 186.410156 L 221.5625 203.988281 L 203.988281 203.988281 Z M 203.988281 186.410156 " fill-opacity="1" fill-rule="nonzero"/></g><path fill="#000000" d="M 221.5625 203.988281 L 239.136719 203.988281 L 239.136719 221.5625 L 221.5625 221.5625 Z M 221.5625 203.988281 " fill-opacity="1" fill-rule="nonzero"/><g clip-path="url(#d84023ba51)"><path fill="#000000" d="M 186.410156 203.988281 L 203.988281 203.988281 L 203.988281 221.5625 L 186.410156 221.5625 Z M 186.410156 203.988281 " fill-opacity="1" fill-rule="nonzero"/></g><path fill="#000000" d="M 203.988281 221.5625 L 221.5625 221.5625 L 221.5625 239.136719 L 203.988281 239.136719 Z M 203.988281 221.5625 " fill-opacity="1" fill-rule="nonzero"/><path fill="#000000" d="M 274.285156 212.773438 L 291.863281 212.773438 L 291.863281 230.347656 L 274.285156 230.347656 Z M 274.285156 212.773438 " fill-opacity="1" fill-rule="nonzero"/><path fill="#000000" d="M 291.863281 230.347656 L 309.4375 230.347656 L 309.4375 247.921875 L 291.863281 247.921875 Z M 291.863281 230.347656 " fill-opacity="1" fill-rule="nonzero"/><path fill="#000000" d="M 256.710938 230.347656 L 274.285156 230.347656 L 274.285156 247.921875 L 256.710938 247.921875 Z M 256.710938 230.347656 " fill-opacity="1" fill-rule="nonzero"/><path fill="#000000" d="M 274.285156 247.921875 L 291.863281 247.921875 L 291.863281 265.5 L 274.285156 265.5 Z M 274.285156 247.921875 " fill-opacity="1" fill-rule="nonzero"/><path fill="#000000" d="M 678.511719 660.9375 L 696.085938 660.9375 L 696.085938 678.511719 L 678.511719 678.511719 Z M 678.511719 660.9375 " fill-opacity="1" fill-rule="nonzero"/><g clip-path="url(#ec586fff16)"><path fill="#000000" d="M 696.085938 678.511719 L 713.660156 678.511719 L 713.660156 696.085938 L 696.085938 696.085938 Z M 696.085938 678.511719 " fill-opacity="1" fill-rule="nonzero"/></g><path fill="#000000" d="M 660.9375 678.511719 L 678.511719 678.511719 L 678.511719 696.085938 L 660.9375 696.085938 Z M 660.9375 678.511719 " fill-opacity="1" fill-rule="nonzero"/><g clip-path="url(#07c37419cf)"><path fill="#000000" d="M 678.511719 696.085938 L 696.085938 696.085938 L 696.085938 713.660156 L 678.511719 713.660156 Z M 678.511719 696.085938 " fill-opacity="1" fill-rule="nonzero"/></g><path fill="#000000" d="M 368.207031 482.453125 L 368.269531 482.472656 C 375.167969 484.105469 382.363281 481.300781 386.328125 475.421875 L 435.363281 402.820312 L 440.539062 464.113281 L 420.105469 604.238281 C 434.957031 600.8125 449.605469 596.585938 463.886719 591.410156 L 485.0625 469.175781 L 528.007812 490.246094 C 529.976562 491.214844 531.503906 492.875 532.3125 494.914062 L 550.671875 546.433594 C 561.972656 538.578125 572.316406 530.46875 581.789062 522.339844 L 565.011719 466.074219 C 564.28125 463.804688 562.65625 461.925781 560.511719 460.871094 L 520.335938 439.941406 L 513.429688 387.398438 L 591.320312 328.058594 C 598.757812 322.398438 600.453125 311.90625 595.1875 304.191406 L 595.003906 303.917969 C 589.28125 295.515625 577.648438 293.714844 569.644531 299.972656 L 501.714844 353.109375 L 466.6875 356.070312 C 486.03125 354.4375 500.390625 337.433594 498.753906 318.082031 C 497.121094 298.742188 480.117188 284.382812 460.765625 286.019531 C 441.414062 287.652344 427.066406 304.65625 428.699219 324.007812 C 430.335938 343.347656 447.339844 357.707031 466.679688 356.070312 L 439.308594 358.382812 C 428.910156 359.261719 419.445312 364.710938 413.464844 373.261719 L 357.953125 456.390625 C 351.371094 466.277344 356.644531 479.710938 368.207031 482.453125 Z M 368.207031 482.453125 " fill-opacity="1" fill-rule="nonzero"/></svg>