<svg xmlns="http://www.w3.org/2000/svg" xmlns:xlink="http://www.w3.org/1999/xlink" width="1200" zoomAndPan="magnify" viewBox="0 0 900 899.99999" height="1200" preserveAspectRatio="xMidYMid meet" version="1.0"><defs><clipPath id="fd47ac2615"><path d="M 90 90.101562 L 810 90.101562 L 810 809.898438 L 90 809.898438 Z M 90 90.101562 " clip-rule="nonzero"/></clipPath><clipPath id="ee13fc58c3"><path d="M 165 90.101562 L 735 90.101562 C 776.421875 90.101562 810 123.679688 810 165.101562 L 810 734.898438 C 810 776.320312 776.421875 809.898438 735 809.898438 L 165 809.898438 C 123.578125 809.898438 90 776.320312 90 734.898438 L 90 165.101562 C 90 123.679688 123.578125 90.101562 165 90.101562 Z M 165 90.101562 " clip-rule="nonzero"/></clipPath><clipPath id="fe8cd42307"><path d="M 191.921875 193 L 707.921875 193 L 707.921875 707.921875 L 191.921875 707.921875 Z M 191.921875 193 " clip-rule="nonzero"/></clipPath></defs><g clip-path="url(#fd47ac2615)"><g clip-path="url(#ee13fc58c3)"><path fill="#3294cd" d="M 90 90.101562 L 809.796875 90.101562 L 809.796875 809.898438 L 90 809.898438 Z M 90 90.101562 " fill-opacity="1" fill-rule="nonzero"/></g></g><g clip-path="url(#fe8cd42307)"><path fill="#000000" d="M 695.121094 658.199219 L 471.066406 658.199219 L 471.066406 617.074219 L 572.003906 617.074219 C 572.152344 617.082031 572.292969 617.117188 572.429688 617.179688 C 572.566406 617.242188 572.683594 617.328125 572.785156 617.4375 C 572.886719 617.542969 572.964844 617.667969 573.019531 617.804688 C 573.074219 617.945312 573.101562 618.089844 573.101562 618.238281 L 573.101562 627.289062 C 573.066406 628.625 573.21875 629.9375 573.558594 631.230469 C 573.898438 632.523438 574.410156 633.742188 575.097656 634.886719 C 575.785156 636.03125 576.617188 637.058594 577.597656 637.964844 C 578.578125 638.875 579.667969 639.625 580.863281 640.222656 C 582.902344 641.21875 585.058594 641.714844 587.328125 641.710938 C 588.839844 641.699219 590.316406 641.453125 591.75 640.980469 C 593.1875 640.503906 594.515625 639.820312 595.734375 638.929688 L 663.304688 587.976562 C 663.738281 587.644531 664.152344 587.292969 664.546875 586.917969 C 664.941406 586.539062 665.308594 586.140625 665.65625 585.722656 C 666.003906 585.300781 666.328125 584.863281 666.625 584.40625 C 666.921875 583.949219 667.191406 583.480469 667.433594 582.992188 C 667.675781 582.503906 667.886719 582.003906 668.074219 581.492188 C 668.257812 580.980469 668.410156 580.457031 668.535156 579.925781 C 668.660156 579.398438 668.753906 578.859375 668.816406 578.320312 C 668.878906 577.777344 668.910156 577.238281 668.910156 576.691406 C 668.910156 576.148438 668.878906 575.605469 668.816406 575.0625 C 668.753906 574.523438 668.660156 573.988281 668.535156 573.457031 C 668.410156 572.925781 668.257812 572.40625 668.074219 571.894531 C 667.886719 571.378906 667.675781 570.878906 667.433594 570.390625 C 667.191406 569.90625 666.921875 569.433594 666.625 568.976562 C 666.328125 568.519531 666.003906 568.082031 665.65625 567.660156 C 665.308594 567.242188 664.941406 566.84375 664.546875 566.46875 C 664.152344 566.089844 663.738281 565.738281 663.304688 565.410156 L 595.605469 514.90625 C 594.5625 514.117188 593.429688 513.484375 592.210938 513.011719 C 590.992188 512.539062 589.730469 512.242188 588.425781 512.121094 C 587.125 512 585.828125 512.0625 584.542969 512.304688 C 583.257812 512.546875 582.03125 512.957031 580.859375 513.542969 C 579.6875 514.128906 578.621094 514.863281 577.65625 515.746094 C 576.691406 516.628906 575.867188 517.628906 575.179688 518.746094 C 574.496094 519.859375 573.976562 521.046875 573.625 522.304688 C 573.269531 523.566406 573.097656 524.851562 573.101562 526.160156 L 573.101562 535.210938 C 573.101562 535.359375 573.074219 535.503906 573.019531 535.640625 C 572.964844 535.78125 572.886719 535.902344 572.785156 536.011719 C 572.683594 536.121094 572.566406 536.207031 572.429688 536.269531 C 572.292969 536.332031 572.152344 536.367188 572.003906 536.375 L 471.066406 536.375 L 471.066406 487.492188 L 481.542969 487.492188 C 482.128906 487.492188 482.71875 487.460938 483.304688 487.40625 C 483.890625 487.347656 484.46875 487.265625 485.046875 487.148438 C 485.625 487.035156 486.195312 486.894531 486.757812 486.726562 C 487.324219 486.558594 487.878906 486.363281 488.421875 486.140625 C 488.964844 485.917969 489.5 485.667969 490.019531 485.394531 C 490.539062 485.121094 491.046875 484.820312 491.539062 484.496094 C 492.027344 484.171875 492.503906 483.828125 492.960938 483.457031 C 493.417969 483.085938 493.859375 482.695312 494.277344 482.285156 C 494.695312 481.871094 495.097656 481.441406 495.472656 480.988281 C 495.851562 480.539062 496.207031 480.070312 496.539062 479.585938 C 496.871094 479.097656 497.179688 478.597656 497.464844 478.082031 C 497.746094 477.566406 498.003906 477.039062 498.238281 476.5 C 498.46875 475.957031 498.675781 475.40625 498.855469 474.847656 C 499.035156 474.285156 499.183594 473.71875 499.308594 473.144531 C 499.433594 472.566406 499.527344 471.988281 499.59375 471.402344 C 499.664062 470.820312 499.703125 470.234375 499.710938 469.644531 L 499.710938 411.449219 C 499.773438 408 500.207031 404.597656 501.003906 401.242188 C 501.800781 397.886719 502.945312 394.65625 504.441406 391.546875 C 505.9375 388.441406 507.746094 385.527344 509.871094 382.808594 C 511.996094 380.09375 514.386719 377.632812 517.042969 375.433594 C 518.375 374.296875 519.679688 373.128906 520.953125 371.929688 C 522.230469 370.730469 523.472656 369.496094 524.683594 368.234375 C 525.898438 366.96875 527.078125 365.675781 528.222656 364.351562 C 529.371094 363.027344 530.480469 361.675781 531.558594 360.296875 C 532.636719 358.914062 533.679688 357.507812 534.6875 356.074219 C 535.691406 354.644531 536.660156 353.183594 537.59375 351.703125 C 538.527344 350.21875 539.421875 348.714844 540.277344 347.1875 C 541.132812 345.660156 541.949219 344.113281 542.726562 342.542969 C 543.503906 340.972656 544.242188 339.386719 544.9375 337.777344 C 545.632812 336.171875 546.289062 334.546875 546.90625 332.910156 C 547.519531 331.269531 548.089844 329.613281 548.621094 327.945312 C 549.152344 326.277344 549.640625 324.59375 550.085938 322.902344 C 550.527344 321.207031 550.929688 319.503906 551.289062 317.789062 C 551.648438 316.074219 551.960938 314.351562 552.234375 312.625 C 552.503906 310.894531 552.730469 309.15625 552.914062 307.414062 C 553.097656 305.675781 553.234375 303.929688 553.328125 302.179688 C 553.421875 300.429688 553.472656 298.683594 553.476562 296.929688 C 553.484375 295.179688 553.445312 293.429688 553.359375 291.679688 C 553.277344 289.929688 553.148438 288.183594 552.976562 286.441406 C 552.804688 284.699219 552.589844 282.960938 552.328125 281.230469 C 552.066406 279.5 551.761719 277.773438 551.414062 276.058594 C 551.066406 274.34375 550.675781 272.636719 550.242188 270.941406 C 549.804688 269.242188 549.328125 267.558594 548.808594 265.886719 C 548.289062 264.214844 547.726562 262.558594 547.121094 260.914062 C 546.519531 259.269531 545.871094 257.640625 545.183594 256.03125 C 544.5 254.421875 543.769531 252.828125 543.003906 251.253906 C 542.234375 249.679688 541.429688 248.128906 540.582031 246.59375 C 539.734375 245.0625 538.847656 243.550781 537.925781 242.0625 C 537.003906 240.574219 536.042969 239.113281 535.042969 237.671875 C 534.046875 236.234375 533.011719 234.820312 531.945312 233.433594 C 530.875 232.046875 529.769531 230.6875 528.632812 229.359375 C 527.492188 228.027344 526.320312 226.726562 525.117188 225.457031 C 523.914062 224.183594 522.675781 222.945312 521.410156 221.734375 C 520.140625 220.527344 518.84375 219.351562 517.515625 218.210938 C 516.191406 217.066406 514.835938 215.960938 513.449219 214.886719 C 512.066406 213.8125 510.65625 212.773438 509.222656 211.773438 C 507.785156 210.769531 506.324219 209.804688 504.839844 208.875 C 503.355469 207.949219 501.847656 207.058594 500.316406 206.207031 C 498.785156 205.355469 497.234375 204.542969 495.664062 203.773438 C 494.09375 203 492.503906 202.265625 490.894531 201.574219 C 489.285156 200.882812 487.660156 200.234375 486.019531 199.625 C 484.375 199.015625 482.71875 198.445312 481.050781 197.921875 C 479.378906 197.398438 477.695312 196.914062 476 196.472656 C 474.304688 196.035156 472.601562 195.636719 470.886719 195.285156 C 469.171875 194.933594 467.445312 194.621094 465.714844 194.355469 C 463.984375 194.089844 462.25 193.871094 460.507812 193.691406 C 458.765625 193.515625 457.019531 193.382812 455.269531 193.292969 C 453.519531 193.203125 451.769531 193.160156 450.019531 193.160156 C 448.269531 193.160156 446.519531 193.203125 444.769531 193.292969 C 443.019531 193.382812 441.273438 193.515625 439.53125 193.691406 C 437.789062 193.871094 436.054688 194.089844 434.324219 194.355469 C 432.59375 194.621094 430.871094 194.933594 429.152344 195.285156 C 427.4375 195.636719 425.734375 196.035156 424.039062 196.472656 C 422.34375 196.914062 420.660156 197.398438 418.992188 197.921875 C 417.320312 198.445312 415.664062 199.015625 414.023438 199.625 C 412.378906 200.234375 410.753906 200.882812 409.144531 201.574219 C 407.539062 202.265625 405.945312 203 404.375 203.773438 C 402.804688 204.542969 401.253906 205.355469 399.722656 206.207031 C 398.191406 207.058594 396.683594 207.949219 395.199219 208.875 C 393.714844 209.804688 392.253906 210.769531 390.816406 211.773438 C 389.382812 212.773438 387.972656 213.8125 386.589844 214.886719 C 385.203125 215.960938 383.851562 217.066406 382.523438 218.210938 C 381.195312 219.351562 379.898438 220.527344 378.628906 221.734375 C 377.363281 222.945312 376.128906 224.183594 374.921875 225.457031 C 373.71875 226.726562 372.546875 228.027344 371.40625 229.359375 C 370.269531 230.6875 369.164062 232.046875 368.097656 233.433594 C 367.027344 234.820312 365.992188 236.234375 364.996094 237.671875 C 363.996094 239.113281 363.035156 240.574219 362.113281 242.0625 C 361.191406 243.550781 360.304688 245.0625 359.457031 246.59375 C 358.613281 248.128906 357.804688 249.679688 357.035156 251.253906 C 356.269531 252.828125 355.542969 254.421875 354.855469 256.03125 C 354.167969 257.640625 353.523438 259.269531 352.917969 260.914062 C 352.3125 262.558594 351.75 264.214844 351.230469 265.886719 C 350.710938 267.558594 350.234375 269.242188 349.796875 270.941406 C 349.363281 272.636719 348.972656 274.34375 348.625 276.058594 C 348.277344 277.773438 347.972656 279.5 347.710938 281.230469 C 347.453125 282.960938 347.234375 284.699219 347.0625 286.441406 C 346.890625 288.183594 346.761719 289.929688 346.679688 291.679688 C 346.59375 293.429688 346.554688 295.179688 346.5625 296.929688 C 346.566406 298.683594 346.617188 300.433594 346.710938 302.179688 C 346.804688 303.929688 346.945312 305.675781 347.125 307.414062 C 347.308594 309.15625 347.535156 310.894531 347.808594 312.625 C 348.078125 314.351562 348.390625 316.074219 348.75 317.789062 C 349.109375 319.503906 349.511719 321.207031 349.957031 322.902344 C 350.402344 324.59375 350.886719 326.277344 351.417969 327.945312 C 351.949219 329.613281 352.519531 331.269531 353.136719 332.910156 C 353.75 334.546875 354.40625 336.171875 355.101562 337.777344 C 355.796875 339.386719 356.535156 340.972656 357.3125 342.542969 C 358.089844 344.113281 358.90625 345.660156 359.761719 347.1875 C 360.617188 348.714844 361.511719 350.21875 362.445312 351.703125 C 363.378906 353.183594 364.347656 354.644531 365.351562 356.074219 C 366.359375 357.507812 367.402344 358.914062 368.480469 360.296875 C 369.558594 361.675781 370.667969 363.027344 371.816406 364.351562 C 372.960938 365.675781 374.140625 366.96875 375.355469 368.234375 C 376.566406 369.496094 377.808594 370.730469 379.085938 371.929688 C 380.359375 373.128906 381.664062 374.296875 382.996094 375.433594 C 385.652344 377.628906 388.035156 380.085938 390.152344 382.804688 C 392.265625 385.523438 394.066406 388.4375 395.542969 391.546875 C 397.023438 394.65625 398.152344 397.890625 398.925781 401.246094 C 399.699219 404.605469 400.101562 408.003906 400.132812 411.449219 L 400.132812 469.644531 C 400.136719 470.238281 400.167969 470.832031 400.226562 471.421875 C 400.285156 472.011719 400.375 472.597656 400.492188 473.179688 C 400.609375 473.761719 400.757812 474.335938 400.929688 474.90625 C 401.105469 475.472656 401.304688 476.03125 401.535156 476.578125 C 401.761719 477.125 402.019531 477.660156 402.300781 478.183594 C 402.582031 478.707031 402.886719 479.214844 403.21875 479.707031 C 403.546875 480.199219 403.902344 480.675781 404.28125 481.132812 C 404.660156 481.59375 405.058594 482.03125 405.476562 482.449219 C 405.898438 482.871094 406.339844 483.265625 406.796875 483.644531 C 407.257812 484.019531 407.734375 484.371094 408.230469 484.699219 C 408.722656 485.03125 409.230469 485.335938 409.753906 485.613281 C 410.28125 485.894531 410.816406 486.144531 411.363281 486.371094 C 411.914062 486.597656 412.472656 486.800781 413.039062 486.972656 C 413.609375 487.144531 414.183594 487.285156 414.765625 487.402344 C 415.347656 487.519531 415.933594 487.605469 416.527344 487.664062 C 417.117188 487.71875 417.710938 487.75 418.304688 487.75 L 428.777344 487.75 L 428.777344 507.148438 L 329.523438 507.148438 C 329.378906 507.148438 329.238281 507.121094 329.101562 507.066406 C 328.96875 507.007812 328.847656 506.929688 328.746094 506.828125 C 328.640625 506.722656 328.5625 506.605469 328.507812 506.46875 C 328.453125 506.335938 328.421875 506.195312 328.421875 506.050781 L 328.421875 496.738281 C 328.425781 495.429688 328.25 494.148438 327.890625 492.890625 C 327.535156 491.632812 327.007812 490.449219 326.316406 489.339844 C 325.625 488.230469 324.792969 487.238281 323.820312 486.363281 C 322.847656 485.488281 321.777344 484.765625 320.597656 484.191406 C 319.429688 483.609375 318.203125 483.199219 316.921875 482.953125 C 315.636719 482.710938 314.347656 482.648438 313.046875 482.761719 C 311.746094 482.875 310.484375 483.164062 309.261719 483.625 C 308.042969 484.089844 306.90625 484.710938 305.855469 485.488281 L 238.15625 536.117188 C 237.71875 536.441406 237.304688 536.792969 236.90625 537.164062 C 236.511719 537.539062 236.136719 537.933594 235.789062 538.351562 C 235.4375 538.769531 235.113281 539.207031 234.816406 539.660156 C 234.515625 540.117188 234.242188 540.585938 234 541.074219 C 233.753906 541.558594 233.539062 542.058594 233.355469 542.570312 C 233.167969 543.082031 233.011719 543.605469 232.886719 544.132812 C 232.761719 544.664062 232.667969 545.199219 232.601562 545.738281 C 232.539062 546.28125 232.507812 546.824219 232.507812 547.367188 C 232.507812 547.914062 232.539062 548.453125 232.601562 548.996094 C 232.667969 549.535156 232.761719 550.070312 232.886719 550.601562 C 233.011719 551.132812 233.167969 551.652344 233.355469 552.164062 C 233.539062 552.675781 233.753906 553.175781 234 553.664062 C 234.242188 554.148438 234.515625 554.621094 234.816406 555.074219 C 235.113281 555.53125 235.4375 555.964844 235.789062 556.382812 C 236.136719 556.800781 236.511719 557.195312 236.90625 557.570312 C 237.304688 557.945312 237.71875 558.292969 238.15625 558.617188 L 305.921875 609.25 C 306.96875 610.027344 308.101562 610.648438 309.316406 611.109375 C 310.535156 611.574219 311.796875 611.863281 313.09375 611.976562 C 314.390625 612.089844 315.679688 612.023438 316.960938 611.78125 C 318.242188 611.539062 319.464844 611.125 320.632812 610.542969 C 321.796875 609.957031 322.863281 609.226562 323.824219 608.351562 C 324.789062 607.472656 325.613281 606.480469 326.300781 605.371094 C 326.988281 604.265625 327.511719 603.085938 327.875 601.832031 C 328.234375 600.578125 328.417969 599.300781 328.421875 597.996094 L 328.421875 588.878906 C 328.441406 588.582031 328.550781 588.332031 328.761719 588.121094 C 328.972656 587.910156 329.226562 587.796875 329.523438 587.78125 L 428.777344 587.78125 L 428.777344 658.199219 L 204.726562 658.199219 C 203.875 658.199219 203.035156 658.28125 202.203125 658.445312 C 201.371094 658.613281 200.5625 658.855469 199.777344 659.183594 C 198.992188 659.507812 198.246094 659.90625 197.542969 660.378906 C 196.835938 660.847656 196.183594 661.386719 195.582031 661.984375 C 194.980469 662.585938 194.445312 663.238281 193.972656 663.945312 C 193.5 664.652344 193.101562 665.398438 192.777344 666.179688 C 192.453125 666.964844 192.207031 667.773438 192.042969 668.605469 C 191.875 669.441406 191.792969 670.28125 191.792969 671.128906 L 191.792969 694.472656 C 191.792969 695.320312 191.875 696.164062 192.042969 696.996094 C 192.207031 697.828125 192.453125 698.636719 192.777344 699.421875 C 193.101562 700.207031 193.5 700.953125 193.972656 701.65625 C 194.445312 702.363281 194.980469 703.015625 195.582031 703.617188 C 196.183594 704.21875 196.835938 704.753906 197.542969 705.226562 C 198.246094 705.699219 198.992188 706.097656 199.777344 706.421875 C 200.5625 706.746094 201.371094 706.992188 202.203125 707.15625 C 203.035156 707.324219 203.875 707.40625 204.726562 707.40625 L 695.121094 707.40625 C 695.96875 707.40625 696.808594 707.324219 697.644531 707.15625 C 698.476562 706.992188 699.285156 706.746094 700.070312 706.421875 C 700.851562 706.097656 701.597656 705.699219 702.304688 705.226562 C 703.011719 704.753906 703.664062 704.21875 704.265625 703.617188 C 704.863281 703.015625 705.402344 702.363281 705.871094 701.65625 C 706.34375 700.953125 706.742188 700.207031 707.066406 699.421875 C 707.390625 698.636719 707.636719 697.828125 707.804688 696.996094 C 707.96875 696.164062 708.050781 695.320312 708.050781 694.472656 L 708.050781 671.128906 C 708.050781 670.28125 707.96875 669.441406 707.804688 668.605469 C 707.636719 667.773438 707.390625 666.964844 707.066406 666.179688 C 706.742188 665.398438 706.34375 664.652344 705.871094 663.945312 C 705.402344 663.238281 704.863281 662.585938 704.265625 661.984375 C 703.664062 661.386719 703.011719 660.847656 702.304688 660.378906 C 701.597656 659.90625 700.851562 659.507812 700.070312 659.183594 C 699.285156 658.855469 698.476562 658.613281 697.644531 658.445312 C 696.808594 658.28125 695.96875 658.199219 695.121094 658.199219 Z M 577.175781 570.582031 C 577.476562 570.28125 577.804688 570.015625 578.15625 569.78125 C 578.507812 569.546875 578.878906 569.351562 579.269531 569.191406 C 579.660156 569.027344 580.0625 568.90625 580.480469 568.824219 C 580.894531 568.742188 581.3125 568.699219 581.734375 568.699219 C 582.160156 568.699219 582.578125 568.742188 582.992188 568.824219 C 583.40625 568.90625 583.808594 569.027344 584.199219 569.191406 C 584.59375 569.351562 584.964844 569.546875 585.316406 569.78125 C 585.667969 570.015625 585.996094 570.28125 586.292969 570.582031 L 592.761719 577.046875 C 592.902344 577.160156 593.0625 577.21875 593.246094 577.21875 C 593.425781 577.21875 593.589844 577.160156 593.730469 577.046875 L 608.859375 561.917969 C 609.160156 561.617188 609.488281 561.351562 609.839844 561.117188 C 610.191406 560.882812 610.5625 560.6875 610.953125 560.523438 C 611.34375 560.363281 611.75 560.242188 612.164062 560.160156 C 612.578125 560.078125 612.996094 560.035156 613.417969 560.035156 C 613.84375 560.035156 614.261719 560.078125 614.675781 560.160156 C 615.089844 560.242188 615.496094 560.363281 615.886719 560.523438 C 616.277344 560.6875 616.648438 560.882812 617 561.117188 C 617.351562 561.351562 617.679688 561.617188 617.976562 561.917969 C 618.28125 562.21875 618.550781 562.542969 618.789062 562.898438 C 619.027344 563.253906 619.230469 563.625 619.394531 564.019531 C 619.558594 564.414062 619.683594 564.820312 619.765625 565.238281 C 619.847656 565.65625 619.890625 566.082031 619.890625 566.507812 C 619.890625 566.933594 619.847656 567.355469 619.765625 567.777344 C 619.683594 568.195312 619.558594 568.601562 619.394531 568.996094 C 619.230469 569.386719 619.027344 569.761719 618.789062 570.117188 C 618.550781 570.46875 618.28125 570.796875 617.976562 571.097656 L 602.847656 586.035156 C 601.589844 587.324219 600.128906 588.3125 598.46875 589.011719 C 596.808594 589.707031 595.078125 590.050781 593.277344 590.042969 C 591.46875 590.050781 589.726562 589.707031 588.054688 589.011719 C 586.382812 588.316406 584.914062 587.324219 583.644531 586.035156 L 577.175781 579.570312 C 576.886719 579.269531 576.628906 578.945312 576.40625 578.597656 C 576.179688 578.25 575.988281 577.882812 575.832031 577.5 C 575.675781 577.113281 575.558594 576.71875 575.480469 576.308594 C 575.398438 575.902344 575.359375 575.492188 575.359375 575.074219 C 575.359375 574.660156 575.398438 574.25 575.480469 573.839844 C 575.558594 573.433594 575.675781 573.035156 575.832031 572.652344 C 575.988281 572.265625 576.179688 571.898438 576.40625 571.550781 C 576.628906 571.203125 576.886719 570.878906 577.175781 570.582031 Z M 556.742188 572.003906 C 557.167969 572.003906 557.589844 572.046875 558.003906 572.128906 C 558.421875 572.210938 558.824219 572.332031 559.21875 572.496094 C 559.609375 572.660156 559.984375 572.859375 560.335938 573.09375 C 560.6875 573.328125 561.015625 573.597656 561.316406 573.898438 C 561.617188 574.199219 561.882812 574.523438 562.121094 574.878906 C 562.355469 575.230469 562.554688 575.601562 562.71875 575.996094 C 562.878906 576.386719 563.003906 576.792969 563.085938 577.207031 C 563.167969 577.625 563.210938 578.046875 563.210938 578.46875 C 563.210938 578.894531 563.167969 579.316406 563.085938 579.730469 C 563.003906 580.148438 562.878906 580.550781 562.71875 580.945312 C 562.554688 581.335938 562.355469 581.710938 562.121094 582.0625 C 561.882812 582.414062 561.617188 582.742188 561.316406 583.042969 C 561.015625 583.34375 560.6875 583.609375 560.335938 583.847656 C 559.984375 584.082031 559.609375 584.28125 559.21875 584.445312 C 558.824219 584.605469 558.421875 584.730469 558.003906 584.8125 C 557.589844 584.894531 557.167969 584.9375 556.742188 584.9375 C 556.320312 584.9375 555.898438 584.894531 555.480469 584.8125 C 555.066406 584.730469 554.660156 584.605469 554.269531 584.445312 C 553.878906 584.28125 553.503906 584.082031 553.152344 583.847656 C 552.796875 583.609375 552.472656 583.34375 552.171875 583.042969 C 551.871094 582.742188 551.601562 582.414062 551.367188 582.0625 C 551.132812 581.710938 550.933594 581.335938 550.769531 580.945312 C 550.605469 580.550781 550.484375 580.148438 550.402344 579.730469 C 550.320312 579.316406 550.277344 578.894531 550.277344 578.46875 C 550.277344 578.046875 550.320312 577.625 550.402344 577.207031 C 550.484375 576.792969 550.605469 576.386719 550.769531 575.996094 C 550.933594 575.601562 551.132812 575.230469 551.367188 574.878906 C 551.601562 574.523438 551.871094 574.199219 552.171875 573.898438 C 552.472656 573.597656 552.796875 573.328125 553.152344 573.09375 C 553.503906 572.859375 553.878906 572.660156 554.269531 572.496094 C 554.660156 572.332031 555.066406 572.210938 555.480469 572.128906 C 555.898438 572.046875 556.320312 572.003906 556.742188 572.003906 Z M 527.453125 572.003906 C 527.875 572.003906 528.296875 572.046875 528.714844 572.128906 C 529.128906 572.210938 529.535156 572.332031 529.925781 572.496094 C 530.320312 572.660156 530.691406 572.859375 531.042969 573.09375 C 531.398438 573.328125 531.722656 573.597656 532.023438 573.898438 C 532.324219 574.199219 532.59375 574.523438 532.828125 574.878906 C 533.0625 575.230469 533.261719 575.601562 533.425781 575.996094 C 533.589844 576.386719 533.710938 576.792969 533.792969 577.207031 C 533.875 577.625 533.917969 578.046875 533.917969 578.46875 C 533.917969 578.894531 533.875 579.316406 533.792969 579.730469 C 533.710938 580.148438 533.589844 580.550781 533.425781 580.945312 C 533.261719 581.335938 533.0625 581.710938 532.828125 582.0625 C 532.59375 582.414062 532.324219 582.742188 532.023438 583.042969 C 531.722656 583.34375 531.398438 583.609375 531.042969 583.847656 C 530.691406 584.082031 530.320312 584.28125 529.925781 584.445312 C 529.535156 584.605469 529.128906 584.730469 528.714844 584.8125 C 528.296875 584.894531 527.875 584.9375 527.453125 584.9375 C 527.027344 584.9375 526.605469 584.894531 526.191406 584.8125 C 525.773438 584.730469 525.371094 584.605469 524.976562 584.445312 C 524.585938 584.28125 524.210938 584.082031 523.859375 583.847656 C 523.507812 583.609375 523.179688 583.34375 522.878906 583.042969 C 522.578125 582.742188 522.3125 582.414062 522.074219 582.0625 C 521.839844 581.710938 521.640625 581.335938 521.476562 580.945312 C 521.316406 580.550781 521.191406 580.148438 521.109375 579.730469 C 521.027344 579.316406 520.984375 578.894531 520.984375 578.46875 C 520.984375 578.042969 521.027344 577.621094 521.113281 577.199219 C 521.195312 576.78125 521.320312 576.375 521.484375 575.980469 C 521.648438 575.585938 521.851562 575.210938 522.089844 574.855469 C 522.328125 574.503906 522.597656 574.175781 522.902344 573.875 C 523.207031 573.574219 523.535156 573.304688 523.894531 573.070312 C 524.25 572.835938 524.625 572.636719 525.023438 572.476562 C 525.417969 572.316406 525.828125 572.195312 526.246094 572.117188 C 526.664062 572.039062 527.089844 572 527.515625 572.003906 Z M 498.160156 572.003906 C 498.585938 572.003906 499.003906 572.046875 499.421875 572.128906 C 499.839844 572.210938 500.242188 572.332031 500.636719 572.496094 C 501.027344 572.660156 501.398438 572.859375 501.753906 573.09375 C 502.105469 573.328125 502.433594 573.597656 502.734375 573.898438 C 503.03125 574.199219 503.300781 574.523438 503.535156 574.878906 C 503.773438 575.230469 503.972656 575.601562 504.132812 575.996094 C 504.296875 576.386719 504.417969 576.792969 504.503906 577.207031 C 504.585938 577.625 504.625 578.046875 504.625 578.46875 C 504.625 578.894531 504.585938 579.316406 504.503906 579.730469 C 504.417969 580.148438 504.296875 580.550781 504.132812 580.945312 C 503.972656 581.335938 503.773438 581.710938 503.535156 582.0625 C 503.300781 582.414062 503.03125 582.742188 502.734375 583.042969 C 502.433594 583.34375 502.105469 583.609375 501.753906 583.847656 C 501.398438 584.082031 501.027344 584.28125 500.636719 584.445312 C 500.242188 584.605469 499.839844 584.730469 499.421875 584.8125 C 499.003906 584.894531 498.585938 584.9375 498.160156 584.9375 C 497.734375 584.9375 497.316406 584.894531 496.898438 584.8125 C 496.484375 584.730469 496.078125 584.605469 495.6875 584.445312 C 495.292969 584.28125 494.921875 584.082031 494.566406 583.847656 C 494.214844 583.609375 493.886719 583.34375 493.589844 583.042969 C 493.289062 582.742188 493.019531 582.414062 492.785156 582.0625 C 492.546875 581.710938 492.347656 581.335938 492.1875 580.945312 C 492.023438 580.550781 491.902344 580.148438 491.820312 579.730469 C 491.734375 579.316406 491.695312 578.894531 491.695312 578.46875 C 491.695312 578.046875 491.734375 577.625 491.820312 577.207031 C 491.902344 576.792969 492.023438 576.386719 492.1875 575.996094 C 492.347656 575.601562 492.546875 575.230469 492.785156 574.878906 C 493.019531 574.523438 493.289062 574.199219 493.589844 573.898438 C 493.886719 573.597656 494.214844 573.328125 494.566406 573.09375 C 494.921875 572.859375 495.292969 572.660156 495.6875 572.496094 C 496.078125 572.332031 496.484375 572.210938 496.898438 572.128906 C 497.316406 572.046875 497.734375 572.003906 498.160156 572.003906 Z M 324.351562 541.742188 L 309.285156 556.871094 C 308.648438 557.511719 307.953125 558.078125 307.207031 558.582031 C 306.457031 559.082031 305.667969 559.503906 304.835938 559.847656 C 304.003906 560.195312 303.144531 560.453125 302.261719 560.628906 C 301.378906 560.804688 300.484375 560.894531 299.585938 560.894531 C 298.683594 560.894531 297.792969 560.804688 296.90625 560.628906 C 296.023438 560.453125 295.167969 560.195312 294.335938 559.847656 C 293.503906 559.503906 292.710938 559.082031 291.964844 558.582031 C 291.214844 558.078125 290.523438 557.511719 289.886719 556.871094 L 283.417969 550.40625 C 283.15625 550.101562 282.925781 549.773438 282.722656 549.421875 C 282.523438 549.070312 282.355469 548.707031 282.222656 548.324219 C 282.089844 547.945312 281.996094 547.554688 281.933594 547.15625 C 281.875 546.753906 281.851562 546.355469 281.867188 545.953125 C 281.882812 545.546875 281.9375 545.148438 282.027344 544.757812 C 282.117188 544.363281 282.242188 543.980469 282.40625 543.613281 C 282.566406 543.242188 282.761719 542.890625 282.988281 542.558594 C 283.214844 542.222656 283.472656 541.914062 283.757812 541.628906 C 284.042969 541.34375 284.351562 541.085938 284.6875 540.859375 C 285.019531 540.632812 285.371094 540.4375 285.742188 540.277344 C 286.109375 540.113281 286.492188 539.988281 286.886719 539.898438 C 287.277344 539.808594 287.675781 539.753906 288.082031 539.738281 C 288.484375 539.722656 288.886719 539.746094 289.285156 539.804688 C 289.683594 539.863281 290.074219 539.960938 290.453125 540.09375 C 290.835938 540.226562 291.203125 540.394531 291.550781 540.59375 C 291.902344 540.796875 292.230469 541.027344 292.535156 541.289062 L 299.003906 547.753906 C 299.058594 547.824219 299.125 547.878906 299.203125 547.914062 C 299.285156 547.953125 299.367188 547.972656 299.457031 547.972656 C 299.542969 547.972656 299.625 547.953125 299.707031 547.914062 C 299.785156 547.878906 299.851562 547.824219 299.90625 547.753906 L 315.039062 532.691406 C 315.34375 532.425781 315.671875 532.195312 316.023438 531.996094 C 316.375 531.792969 316.738281 531.625 317.121094 531.492188 C 317.5 531.359375 317.890625 531.265625 318.289062 531.207031 C 318.691406 531.144531 319.089844 531.125 319.492188 531.140625 C 319.898438 531.15625 320.296875 531.207031 320.6875 531.296875 C 321.082031 531.386719 321.464844 531.515625 321.832031 531.675781 C 322.203125 531.835938 322.554688 532.03125 322.890625 532.257812 C 323.222656 532.488281 323.53125 532.742188 323.816406 533.027344 C 324.101562 533.3125 324.359375 533.625 324.585938 533.957031 C 324.8125 534.289062 325.007812 534.640625 325.167969 535.011719 C 325.332031 535.382812 325.457031 535.761719 325.546875 536.15625 C 325.636719 536.550781 325.691406 536.949219 325.707031 537.351562 C 325.722656 537.753906 325.699219 538.15625 325.640625 538.554688 C 325.582031 538.953125 325.484375 539.34375 325.351562 539.726562 C 325.21875 540.105469 325.050781 540.472656 324.851562 540.820312 C 324.648438 541.171875 324.417969 541.5 324.15625 541.808594 Z M 344.78125 555.449219 C 344.359375 555.449219 343.9375 555.410156 343.519531 555.328125 C 343.105469 555.242188 342.699219 555.121094 342.308594 554.957031 C 341.917969 554.796875 341.542969 554.597656 341.191406 554.359375 C 340.835938 554.125 340.511719 553.855469 340.210938 553.554688 C 339.910156 553.257812 339.640625 552.929688 339.40625 552.578125 C 339.171875 552.222656 338.972656 551.851562 338.808594 551.457031 C 338.648438 551.066406 338.523438 550.664062 338.441406 550.246094 C 338.359375 549.828125 338.316406 549.410156 338.316406 548.984375 C 338.316406 548.558594 338.359375 548.140625 338.441406 547.722656 C 338.523438 547.304688 338.648438 546.902344 338.808594 546.511719 C 338.972656 546.117188 339.171875 545.746094 339.40625 545.390625 C 339.640625 545.039062 339.910156 544.710938 340.210938 544.410156 C 340.511719 544.113281 340.835938 543.84375 341.191406 543.609375 C 341.542969 543.371094 341.917969 543.171875 342.308594 543.011719 C 342.699219 542.847656 343.105469 542.726562 343.519531 542.640625 C 343.9375 542.558594 344.359375 542.519531 344.78125 542.519531 C 345.207031 542.519531 345.628906 542.558594 346.042969 542.640625 C 346.460938 542.726562 346.863281 542.847656 347.257812 543.011719 C 347.648438 543.171875 348.023438 543.371094 348.375 543.609375 C 348.726562 543.84375 349.054688 544.113281 349.355469 544.410156 C 349.65625 544.710938 349.921875 545.039062 350.160156 545.390625 C 350.394531 545.746094 350.59375 546.117188 350.757812 546.511719 C 350.917969 546.902344 351.042969 547.304688 351.125 547.722656 C 351.207031 548.140625 351.25 548.558594 351.25 548.984375 C 351.25 549.410156 351.207031 549.828125 351.125 550.246094 C 351.042969 550.664062 350.917969 551.066406 350.757812 551.457031 C 350.59375 551.851562 350.394531 552.222656 350.160156 552.578125 C 349.921875 552.929688 349.65625 553.257812 349.355469 553.554688 C 349.054688 553.855469 348.726562 554.125 348.375 554.359375 C 348.023438 554.597656 347.648438 554.796875 347.257812 554.957031 C 346.863281 555.121094 346.460938 555.242188 346.042969 555.324219 C 345.628906 555.410156 345.207031 555.449219 344.78125 555.449219 Z M 374.074219 555.449219 C 373.648438 555.449219 373.230469 555.410156 372.8125 555.328125 C 372.398438 555.242188 371.992188 555.121094 371.601562 554.957031 C 371.207031 554.796875 370.835938 554.597656 370.480469 554.359375 C 370.128906 554.125 369.800781 553.855469 369.503906 553.554688 C 369.203125 553.257812 368.933594 552.929688 368.699219 552.578125 C 368.460938 552.222656 368.261719 551.851562 368.101562 551.457031 C 367.9375 551.066406 367.816406 550.664062 367.734375 550.246094 C 367.648438 549.828125 367.609375 549.410156 367.609375 548.984375 C 367.609375 548.558594 367.648438 548.140625 367.734375 547.722656 C 367.816406 547.304688 367.9375 546.902344 368.101562 546.511719 C 368.261719 546.117188 368.460938 545.746094 368.699219 545.390625 C 368.933594 545.039062 369.203125 544.710938 369.503906 544.410156 C 369.800781 544.113281 370.128906 543.84375 370.480469 543.609375 C 370.835938 543.371094 371.207031 543.171875 371.601562 543.011719 C 371.992188 542.847656 372.398438 542.726562 372.8125 542.640625 C 373.230469 542.558594 373.648438 542.519531 374.074219 542.519531 C 374.5 542.519531 374.917969 542.558594 375.335938 542.640625 C 375.753906 542.726562 376.15625 542.847656 376.550781 543.011719 C 376.941406 543.171875 377.3125 543.371094 377.667969 543.609375 C 378.019531 543.84375 378.347656 544.113281 378.648438 544.410156 C 378.945312 544.710938 379.214844 545.039062 379.449219 545.390625 C 379.6875 545.746094 379.886719 546.117188 380.046875 546.511719 C 380.210938 546.902344 380.332031 547.304688 380.417969 547.722656 C 380.5 548.140625 380.539062 548.558594 380.539062 548.984375 C 380.539062 549.410156 380.5 549.828125 380.417969 550.246094 C 380.332031 550.664062 380.210938 551.066406 380.046875 551.457031 C 379.886719 551.851562 379.6875 552.222656 379.449219 552.578125 C 379.214844 552.929688 378.945312 553.257812 378.648438 553.554688 C 378.347656 553.855469 378.019531 554.125 377.667969 554.359375 C 377.3125 554.597656 376.941406 554.796875 376.550781 554.957031 C 376.15625 555.121094 375.753906 555.242188 375.335938 555.328125 C 374.917969 555.410156 374.5 555.449219 374.074219 555.449219 Z M 403.367188 555.449219 C 402.941406 555.449219 402.519531 555.410156 402.105469 555.328125 C 401.6875 555.242188 401.285156 555.121094 400.890625 554.957031 C 400.5 554.796875 400.128906 554.597656 399.773438 554.359375 C 399.421875 554.125 399.09375 553.855469 398.792969 553.554688 C 398.492188 553.257812 398.226562 552.929688 397.988281 552.578125 C 397.753906 552.222656 397.554688 551.851562 397.390625 551.457031 C 397.230469 551.066406 397.105469 550.664062 397.023438 550.246094 C 396.941406 549.828125 396.898438 549.410156 396.898438 548.984375 C 396.898438 548.558594 396.941406 548.140625 397.023438 547.722656 C 397.105469 547.304688 397.230469 546.902344 397.390625 546.511719 C 397.554688 546.117188 397.753906 545.746094 397.988281 545.390625 C 398.226562 545.039062 398.492188 544.710938 398.792969 544.410156 C 399.09375 544.113281 399.421875 543.84375 399.773438 543.609375 C 400.128906 543.371094 400.5 543.171875 400.890625 543.011719 C 401.285156 542.847656 401.6875 542.726562 402.105469 542.640625 C 402.519531 542.558594 402.941406 542.519531 403.367188 542.519531 C 403.789062 542.519531 404.210938 542.558594 404.628906 542.640625 C 405.042969 542.726562 405.449219 542.847656 405.839844 543.011719 C 406.234375 543.171875 406.605469 543.371094 406.957031 543.609375 C 407.3125 543.84375 407.636719 544.113281 407.9375 544.410156 C 408.238281 544.710938 408.507812 545.039062 408.742188 545.390625 C 408.980469 545.746094 409.179688 546.117188 409.339844 546.511719 C 409.503906 546.902344 409.625 547.304688 409.707031 547.722656 C 409.792969 548.140625 409.832031 548.558594 409.832031 548.984375 C 409.832031 549.410156 409.792969 549.828125 409.707031 550.246094 C 409.625 550.664062 409.503906 551.066406 409.339844 551.457031 C 409.179688 551.851562 408.980469 552.222656 408.742188 552.578125 C 408.507812 552.929688 408.238281 553.257812 407.9375 553.554688 C 407.636719 553.855469 407.3125 554.125 406.957031 554.359375 C 406.605469 554.597656 406.234375 554.796875 405.839844 554.957031 C 405.449219 555.121094 405.042969 555.242188 404.628906 555.324219 C 404.210938 555.410156 403.789062 555.449219 403.367188 555.449219 Z M 486.78125 439.511719 L 413.066406 439.511719 L 413.066406 417.914062 L 486.78125 417.914062 Z M 501.652344 345.429688 C 501.351562 345.734375 501.023438 346.003906 500.671875 346.242188 C 500.316406 346.480469 499.941406 346.679688 499.546875 346.84375 C 499.152344 347.007812 498.746094 347.132812 498.328125 347.214844 C 497.910156 347.300781 497.488281 347.34375 497.0625 347.34375 C 496.632812 347.34375 496.210938 347.300781 495.792969 347.214844 C 495.375 347.132812 494.96875 347.007812 494.574219 346.84375 C 494.179688 346.679688 493.804688 346.480469 493.453125 346.242188 C 493.097656 346.003906 492.769531 345.734375 492.46875 345.429688 L 478.179688 331.074219 C 477.839844 330.785156 477.535156 330.464844 477.265625 330.109375 C 476.992188 329.757812 476.757812 329.378906 476.566406 328.980469 C 476.371094 328.578125 476.21875 328.160156 476.113281 327.730469 C 476.003906 327.296875 475.941406 326.859375 475.925781 326.414062 C 475.90625 325.96875 475.9375 325.523438 476.011719 325.085938 C 476.085938 324.648438 476.203125 324.21875 476.367188 323.804688 C 476.527344 323.390625 476.730469 322.996094 476.976562 322.621094 C 477.21875 322.25 477.5 321.90625 477.8125 321.589844 C 478.128906 321.277344 478.472656 320.996094 478.84375 320.753906 C 479.21875 320.507812 479.613281 320.304688 480.027344 320.144531 C 480.441406 319.980469 480.871094 319.863281 481.308594 319.789062 C 481.746094 319.714844 482.191406 319.683594 482.636719 319.703125 C 483.082031 319.71875 483.519531 319.78125 483.953125 319.890625 C 484.382812 319.996094 484.800781 320.148438 485.203125 320.34375 C 485.601562 320.535156 485.980469 320.769531 486.332031 321.042969 C 486.6875 321.3125 487.007812 321.617188 487.296875 321.957031 L 501.652344 336.3125 C 501.949219 336.613281 502.214844 336.9375 502.449219 337.289062 C 502.683594 337.640625 502.882812 338.015625 503.042969 338.40625 C 503.207031 338.796875 503.328125 339.199219 503.410156 339.613281 C 503.492188 340.027344 503.53125 340.449219 503.53125 340.871094 C 503.53125 341.292969 503.492188 341.710938 503.410156 342.128906 C 503.328125 342.542969 503.207031 342.945312 503.042969 343.335938 C 502.882812 343.726562 502.683594 344.097656 502.449219 344.453125 C 502.214844 344.804688 501.949219 345.128906 501.652344 345.429688 Z M 522.992188 293.699219 C 522.992188 294.125 522.949219 294.546875 522.867188 294.960938 C 522.785156 295.378906 522.660156 295.78125 522.5 296.175781 C 522.335938 296.566406 522.136719 296.941406 521.902344 297.292969 C 521.664062 297.644531 521.398438 297.972656 521.097656 298.273438 C 520.796875 298.574219 520.46875 298.839844 520.117188 299.078125 C 519.761719 299.3125 519.390625 299.511719 519 299.675781 C 518.605469 299.835938 518.203125 299.960938 517.785156 300.042969 C 517.371094 300.125 516.949219 300.167969 516.523438 300.167969 L 496.21875 300.167969 C 495.796875 300.167969 495.375 300.125 494.960938 300.042969 C 494.542969 299.960938 494.136719 299.835938 493.746094 299.675781 C 493.355469 299.511719 492.980469 299.3125 492.628906 299.078125 C 492.273438 298.839844 491.949219 298.574219 491.648438 298.273438 C 491.347656 297.972656 491.078125 297.644531 490.84375 297.292969 C 490.609375 296.941406 490.410156 296.566406 490.246094 296.175781 C 490.085938 295.78125 489.960938 295.378906 489.878906 294.960938 C 489.796875 294.546875 489.753906 294.125 489.753906 293.699219 C 489.753906 293.277344 489.796875 292.855469 489.878906 292.4375 C 489.960938 292.023438 490.085938 291.617188 490.246094 291.226562 C 490.410156 290.832031 490.609375 290.460938 490.84375 290.109375 C 491.078125 289.753906 491.347656 289.429688 491.648438 289.128906 C 491.949219 288.828125 492.273438 288.558594 492.628906 288.324219 C 492.980469 288.085938 493.355469 287.886719 493.746094 287.726562 C 494.136719 287.5625 494.542969 287.441406 494.960938 287.359375 C 495.375 287.273438 495.796875 287.234375 496.21875 287.234375 L 516.460938 287.234375 C 516.886719 287.234375 517.308594 287.277344 517.730469 287.359375 C 518.148438 287.445312 518.554688 287.566406 518.949219 287.730469 C 519.34375 287.898438 519.71875 288.097656 520.074219 288.335938 C 520.425781 288.574219 520.753906 288.847656 521.054688 289.152344 C 521.355469 289.453125 521.625 289.785156 521.859375 290.140625 C 522.09375 290.5 522.292969 290.875 522.453125 291.269531 C 522.613281 291.667969 522.734375 292.074219 522.8125 292.496094 C 522.890625 292.914062 522.929688 293.335938 522.925781 293.765625 Z M 478.117188 256.261719 L 492.40625 241.972656 C 492.707031 241.667969 493.035156 241.398438 493.386719 241.160156 C 493.742188 240.921875 494.117188 240.71875 494.507812 240.554688 C 494.902344 240.390625 495.308594 240.265625 495.726562 240.183594 C 496.148438 240.101562 496.570312 240.058594 496.996094 240.058594 C 497.421875 240.058594 497.847656 240.101562 498.265625 240.183594 C 498.683594 240.265625 499.089844 240.390625 499.484375 240.554688 C 499.878906 240.71875 500.25 240.921875 500.605469 241.160156 C 500.960938 241.398438 501.285156 241.667969 501.585938 241.972656 C 501.886719 242.269531 502.152344 242.597656 502.386719 242.949219 C 502.621094 243.300781 502.816406 243.671875 502.980469 244.0625 C 503.140625 244.453125 503.261719 244.859375 503.34375 245.273438 C 503.425781 245.6875 503.46875 246.105469 503.46875 246.53125 C 503.46875 246.953125 503.425781 247.371094 503.34375 247.785156 C 503.261719 248.199219 503.140625 248.605469 502.980469 248.996094 C 502.816406 249.386719 502.621094 249.757812 502.386719 250.109375 C 502.152344 250.460938 501.886719 250.789062 501.585938 251.089844 L 487.234375 265.441406 C 486.621094 266.046875 485.917969 266.511719 485.125 266.839844 C 484.328125 267.164062 483.5 267.324219 482.640625 267.316406 C 482.003906 267.316406 481.375 267.21875 480.765625 267.03125 C 480.15625 266.84375 479.585938 266.570312 479.054688 266.214844 C 478.523438 265.855469 478.058594 265.429688 477.652344 264.933594 C 477.25 264.4375 476.925781 263.894531 476.683594 263.300781 C 476.441406 262.710938 476.292969 262.097656 476.230469 261.460938 C 476.171875 260.824219 476.203125 260.191406 476.332031 259.5625 C 476.460938 258.9375 476.675781 258.34375 476.980469 257.78125 C 477.28125 257.21875 477.660156 256.710938 478.117188 256.261719 Z M 444.167969 228.457031 C 444.167969 228.03125 444.210938 227.613281 444.292969 227.195312 C 444.375 226.777344 444.496094 226.375 444.660156 225.980469 C 444.824219 225.589844 445.023438 225.21875 445.257812 224.863281 C 445.492188 224.511719 445.761719 224.183594 446.0625 223.882812 C 446.363281 223.585938 446.6875 223.316406 447.042969 223.082031 C 447.394531 222.84375 447.765625 222.644531 448.160156 222.484375 C 448.550781 222.320312 448.957031 222.199219 449.371094 222.113281 C 449.789062 222.03125 450.210938 221.992188 450.632812 221.992188 C 451.058594 221.992188 451.480469 222.03125 451.894531 222.113281 C 452.3125 222.199219 452.714844 222.320312 453.109375 222.484375 C 453.5 222.644531 453.875 222.84375 454.226562 223.082031 C 454.578125 223.316406 454.90625 223.585938 455.207031 223.882812 C 455.507812 224.183594 455.773438 224.511719 456.011719 224.863281 C 456.246094 225.21875 456.445312 225.589844 456.609375 225.980469 C 456.769531 226.375 456.894531 226.777344 456.976562 227.195312 C 457.058594 227.613281 457.101562 228.03125 457.101562 228.457031 L 457.101562 248.695312 C 457.101562 249.121094 457.058594 249.539062 456.976562 249.957031 C 456.894531 250.375 456.769531 250.777344 456.609375 251.171875 C 456.445312 251.5625 456.246094 251.933594 456.011719 252.289062 C 455.773438 252.640625 455.507812 252.96875 455.207031 253.269531 C 454.90625 253.566406 454.578125 253.835938 454.226562 254.070312 C 453.875 254.308594 453.5 254.507812 453.109375 254.667969 C 452.714844 254.832031 452.3125 254.953125 451.894531 255.039062 C 451.480469 255.121094 451.058594 255.160156 450.632812 255.160156 C 450.210938 255.160156 449.789062 255.121094 449.371094 255.039062 C 448.957031 254.953125 448.550781 254.832031 448.160156 254.667969 C 447.765625 254.507812 447.394531 254.308594 447.042969 254.070312 C 446.6875 253.835938 446.363281 253.566406 446.0625 253.269531 C 445.761719 252.96875 445.492188 252.640625 445.257812 252.289062 C 445.023438 251.933594 444.824219 251.5625 444.660156 251.171875 C 444.496094 250.777344 444.375 250.375 444.292969 249.957031 C 444.210938 249.539062 444.167969 249.121094 444.167969 248.695312 Z M 449.921875 263.890625 C 450.839844 263.882812 451.753906 263.914062 452.667969 263.992188 C 453.582031 264.066406 454.488281 264.183594 455.390625 264.34375 C 456.292969 264.5 457.1875 264.699219 458.070312 264.941406 C 458.957031 265.183594 459.828125 265.464844 460.6875 265.785156 C 461.542969 266.105469 462.386719 266.464844 463.210938 266.867188 C 464.035156 267.265625 464.839844 267.699219 465.625 268.171875 C 466.410156 268.644531 467.171875 269.152344 467.910156 269.695312 C 468.648438 270.238281 469.363281 270.816406 470.046875 271.421875 C 470.734375 272.03125 471.386719 272.671875 472.015625 273.339844 C 472.640625 274.007812 473.238281 274.703125 473.800781 275.429688 C 474.363281 276.152344 474.890625 276.898438 475.382812 277.671875 C 475.875 278.445312 476.335938 279.238281 476.753906 280.050781 C 477.175781 280.867188 477.558594 281.699219 477.902344 282.546875 C 478.246094 283.394531 478.550781 284.261719 478.816406 285.136719 C 479.078125 286.015625 479.304688 286.902344 479.484375 287.800781 C 479.667969 288.699219 479.8125 289.601562 479.910156 290.515625 C 480.011719 291.425781 480.066406 292.339844 480.082031 293.253906 C 480.097656 294.171875 480.070312 295.085938 480.003906 296 C 479.933594 296.914062 479.824219 297.824219 479.671875 298.726562 C 479.519531 299.632812 479.328125 300.527344 479.089844 301.410156 C 478.855469 302.296875 478.582031 303.171875 478.265625 304.03125 C 477.953125 304.890625 477.597656 305.738281 477.207031 306.566406 C 476.8125 307.394531 476.382812 308.203125 475.914062 308.988281 C 475.449219 309.777344 474.945312 310.542969 474.410156 311.285156 C 473.871094 312.027344 473.300781 312.746094 472.695312 313.433594 C 472.09375 314.125 471.460938 314.785156 470.796875 315.414062 C 470.132812 316.046875 469.4375 316.648438 468.71875 317.214844 C 468 317.78125 467.257812 318.316406 466.488281 318.816406 C 465.71875 319.316406 464.929688 319.777344 464.117188 320.203125 C 463.308594 320.628906 462.476562 321.019531 461.632812 321.371094 C 460.785156 321.71875 459.921875 322.03125 459.046875 322.300781 C 458.171875 322.570312 457.285156 322.800781 456.390625 322.992188 L 456.390625 404.984375 L 443.457031 404.984375 L 443.457031 322.992188 C 442.558594 322.800781 441.671875 322.570312 440.796875 322.300781 C 439.921875 322.03125 439.0625 321.71875 438.214844 321.371094 C 437.367188 321.019531 436.539062 320.628906 435.726562 320.203125 C 434.917969 319.777344 434.125 319.316406 433.359375 318.816406 C 432.589844 318.316406 431.84375 317.78125 431.125 317.214844 C 430.40625 316.648438 429.714844 316.046875 429.050781 315.414062 C 428.386719 314.785156 427.753906 314.125 427.148438 313.433594 C 426.546875 312.746094 425.972656 312.027344 425.4375 311.285156 C 424.898438 310.542969 424.398438 309.777344 423.929688 308.988281 C 423.460938 308.203125 423.03125 307.394531 422.640625 306.566406 C 422.246094 305.738281 421.894531 304.890625 421.578125 304.03125 C 421.261719 303.171875 420.988281 302.296875 420.753906 301.410156 C 420.519531 300.527344 420.324219 299.632812 420.171875 298.726562 C 420.019531 297.824219 419.910156 296.914062 419.84375 296 C 419.773438 295.085938 419.746094 294.171875 419.761719 293.253906 C 419.777344 292.339844 419.835938 291.425781 419.933594 290.515625 C 420.035156 289.601562 420.175781 288.699219 420.359375 287.800781 C 420.542969 286.902344 420.765625 286.015625 421.03125 285.136719 C 421.296875 284.261719 421.601562 283.394531 421.945312 282.546875 C 422.289062 281.699219 422.671875 280.867188 423.089844 280.050781 C 423.511719 279.238281 423.96875 278.445312 424.460938 277.671875 C 424.957031 276.898438 425.484375 276.152344 426.046875 275.429688 C 426.609375 274.703125 427.203125 274.007812 427.832031 273.339844 C 428.457031 272.671875 429.113281 272.03125 429.796875 271.421875 C 430.484375 270.816406 431.195312 270.238281 431.933594 269.695312 C 432.671875 269.152344 433.433594 268.644531 434.21875 268.171875 C 435.003906 267.699219 435.808594 267.265625 436.632812 266.867188 C 437.460938 266.464844 438.300781 266.105469 439.160156 265.785156 C 440.019531 265.464844 440.890625 265.183594 441.773438 264.941406 C 442.65625 264.699219 443.550781 264.5 444.453125 264.34375 C 445.355469 264.183594 446.265625 264.066406 447.179688 263.992188 C 448.089844 263.914062 449.007812 263.882812 449.921875 263.890625 Z M 398.195312 242.164062 C 398.492188 241.863281 398.820312 241.589844 399.175781 241.351562 C 399.53125 241.113281 399.902344 240.914062 400.296875 240.75 C 400.691406 240.585938 401.097656 240.460938 401.515625 240.378906 C 401.933594 240.292969 402.359375 240.253906 402.785156 240.253906 C 403.210938 240.253906 403.632812 240.292969 404.050781 240.378906 C 404.472656 240.460938 404.878906 240.585938 405.269531 240.75 C 405.664062 240.914062 406.039062 241.113281 406.394531 241.351562 C 406.746094 241.589844 407.074219 241.863281 407.375 242.164062 L 421.730469 256.261719 C 422.183594 256.710938 422.5625 257.21875 422.867188 257.78125 C 423.171875 258.34375 423.386719 258.9375 423.511719 259.5625 C 423.640625 260.191406 423.675781 260.824219 423.613281 261.460938 C 423.554688 262.097656 423.402344 262.710938 423.160156 263.300781 C 422.917969 263.894531 422.597656 264.4375 422.191406 264.933594 C 421.789062 265.429688 421.320312 265.855469 420.792969 266.214844 C 420.261719 266.570312 419.691406 266.84375 419.078125 267.03125 C 418.46875 267.21875 417.84375 267.316406 417.203125 267.316406 C 416.34375 267.324219 415.515625 267.164062 414.722656 266.839844 C 413.925781 266.511719 413.222656 266.046875 412.613281 265.441406 L 398.195312 251.28125 C 397.894531 250.980469 397.628906 250.65625 397.394531 250.304688 C 397.160156 249.953125 396.964844 249.578125 396.800781 249.1875 C 396.640625 248.796875 396.519531 248.394531 396.4375 247.980469 C 396.355469 247.566406 396.3125 247.144531 396.3125 246.722656 C 396.3125 246.300781 396.355469 245.882812 396.4375 245.464844 C 396.519531 245.050781 396.640625 244.648438 396.800781 244.257812 C 396.964844 243.867188 397.160156 243.496094 397.394531 243.144531 C 397.628906 242.789062 397.894531 242.464844 398.195312 242.164062 Z M 383.320312 300.359375 C 382.898438 300.359375 382.476562 300.320312 382.058594 300.234375 C 381.644531 300.152344 381.238281 300.03125 380.847656 299.867188 C 380.453125 299.707031 380.082031 299.507812 379.730469 299.269531 C 379.375 299.035156 379.050781 298.765625 378.75 298.464844 C 378.449219 298.167969 378.179688 297.839844 377.945312 297.488281 C 377.707031 297.132812 377.511719 296.761719 377.347656 296.367188 C 377.183594 295.976562 377.0625 295.570312 376.980469 295.15625 C 376.898438 294.738281 376.855469 294.320312 376.855469 293.894531 C 376.855469 293.46875 376.898438 293.050781 376.980469 292.632812 C 377.0625 292.214844 377.183594 291.8125 377.347656 291.417969 C 377.511719 291.027344 377.707031 290.65625 377.945312 290.300781 C 378.179688 289.949219 378.449219 289.621094 378.75 289.320312 C 379.050781 289.023438 379.375 288.753906 379.730469 288.519531 C 380.082031 288.28125 380.453125 288.082031 380.847656 287.921875 C 381.238281 287.757812 381.644531 287.636719 382.058594 287.550781 C 382.476562 287.46875 382.898438 287.429688 383.320312 287.429688 L 403.558594 287.429688 C 403.984375 287.429688 404.40625 287.46875 404.820312 287.550781 C 405.238281 287.636719 405.644531 287.757812 406.035156 287.921875 C 406.425781 288.082031 406.800781 288.28125 407.152344 288.519531 C 407.503906 288.753906 407.832031 289.023438 408.132812 289.320312 C 408.433594 289.621094 408.699219 289.949219 408.9375 290.300781 C 409.171875 290.65625 409.371094 291.027344 409.535156 291.417969 C 409.695312 291.8125 409.820312 292.214844 409.902344 292.632812 C 409.984375 293.050781 410.027344 293.46875 410.027344 293.894531 C 410.027344 294.320312 409.984375 294.738281 409.902344 295.15625 C 409.820312 295.570312 409.695312 295.976562 409.535156 296.367188 C 409.371094 296.761719 409.171875 297.132812 408.9375 297.488281 C 408.699219 297.839844 408.433594 298.167969 408.132812 298.464844 C 407.832031 298.765625 407.503906 299.035156 407.152344 299.269531 C 406.800781 299.507812 406.425781 299.707031 406.035156 299.867188 C 405.644531 300.03125 405.238281 300.152344 404.820312 300.234375 C 404.40625 300.320312 403.984375 300.359375 403.558594 300.359375 Z M 402.71875 347.433594 C 401.859375 347.4375 401.03125 347.277344 400.238281 346.953125 C 399.441406 346.628906 398.738281 346.164062 398.128906 345.558594 C 397.832031 345.257812 397.5625 344.933594 397.332031 344.582031 C 397.097656 344.226562 396.898438 343.855469 396.738281 343.464844 C 396.574219 343.074219 396.453125 342.671875 396.371094 342.257812 C 396.289062 341.84375 396.25 341.421875 396.25 341 C 396.25 340.578125 396.289062 340.160156 396.371094 339.742188 C 396.453125 339.328125 396.574219 338.925781 396.738281 338.535156 C 396.898438 338.144531 397.097656 337.773438 397.332031 337.417969 C 397.5625 337.066406 397.832031 336.742188 398.128906 336.441406 L 412.484375 322.085938 C 412.773438 321.75 413.09375 321.441406 413.449219 321.171875 C 413.800781 320.898438 414.179688 320.664062 414.578125 320.472656 C 414.980469 320.277344 415.398438 320.125 415.828125 320.019531 C 416.261719 319.910156 416.699219 319.847656 417.144531 319.832031 C 417.589844 319.8125 418.03125 319.84375 418.472656 319.917969 C 418.910156 319.992188 419.339844 320.109375 419.753906 320.273438 C 420.167969 320.433594 420.5625 320.636719 420.933594 320.882812 C 421.308594 321.125 421.652344 321.40625 421.96875 321.71875 C 422.28125 322.035156 422.5625 322.378906 422.804688 322.753906 C 423.050781 323.125 423.253906 323.519531 423.414062 323.933594 C 423.578125 324.347656 423.695312 324.777344 423.769531 325.214844 C 423.84375 325.65625 423.875 326.097656 423.855469 326.542969 C 423.839844 326.988281 423.777344 327.425781 423.667969 327.859375 C 423.5625 328.289062 423.410156 328.707031 423.214844 329.109375 C 423.023438 329.507812 422.789062 329.886719 422.515625 330.238281 C 422.246094 330.59375 421.941406 330.914062 421.601562 331.203125 L 407.3125 345.558594 C 406.707031 346.125 406.019531 346.558594 405.246094 346.859375 C 404.476562 347.160156 403.675781 347.308594 402.847656 347.304688 Z M 418.175781 474.6875 C 417.832031 474.691406 417.492188 474.664062 417.15625 474.601562 C 416.820312 474.535156 416.492188 474.441406 416.175781 474.3125 C 415.855469 474.183594 415.554688 474.027344 415.269531 473.839844 C 414.984375 473.652344 414.71875 473.4375 414.472656 473.195312 C 414.230469 472.957031 414.011719 472.691406 413.820312 472.410156 C 413.628906 472.125 413.46875 471.824219 413.335938 471.511719 C 413.203125 471.195312 413.105469 470.867188 413.039062 470.53125 C 412.96875 470.195312 412.9375 469.859375 412.9375 469.515625 L 412.9375 452.445312 L 486.78125 452.445312 L 486.78125 469.644531 C 486.78125 469.988281 486.746094 470.324219 486.679688 470.660156 C 486.613281 470.996094 486.511719 471.324219 486.378906 471.640625 C 486.25 471.953125 486.085938 472.253906 485.894531 472.539062 C 485.703125 472.824219 485.484375 473.085938 485.242188 473.324219 C 485 473.566406 484.734375 473.78125 484.449219 473.96875 C 484.160156 474.15625 483.859375 474.3125 483.542969 474.441406 C 483.222656 474.570312 482.898438 474.667969 482.5625 474.730469 C 482.222656 474.792969 481.882812 474.820312 481.542969 474.816406 Z M 458.003906 658.328125 L 441.710938 658.328125 L 441.710938 487.492188 L 458.136719 487.492188 Z M 458.003906 658.328125 " fill-opacity="1" fill-rule="nonzero"/></g><path fill="#000000" d="M 449.921875 310.769531 C 450.480469 310.769531 451.035156 310.742188 451.589844 310.6875 C 452.144531 310.632812 452.695312 310.550781 453.242188 310.445312 C 453.785156 310.335938 454.328125 310.199219 454.859375 310.039062 C 455.390625 309.875 455.917969 309.6875 456.429688 309.476562 C 456.945312 309.261719 457.449219 309.023438 457.9375 308.761719 C 458.429688 308.5 458.90625 308.214844 459.371094 307.90625 C 459.832031 307.59375 460.28125 307.265625 460.710938 306.910156 C 461.140625 306.558594 461.554688 306.183594 461.949219 305.789062 C 462.339844 305.394531 462.714844 304.984375 463.070312 304.554688 C 463.421875 304.121094 463.753906 303.675781 464.0625 303.210938 C 464.371094 302.75 464.660156 302.273438 464.921875 301.78125 C 465.183594 301.289062 465.421875 300.789062 465.632812 300.273438 C 465.847656 299.757812 466.035156 299.234375 466.195312 298.703125 C 466.359375 298.167969 466.492188 297.628906 466.601562 297.082031 C 466.710938 296.535156 466.792969 295.984375 466.847656 295.433594 C 466.902344 294.878906 466.929688 294.320312 466.929688 293.765625 C 466.929688 293.207031 466.902344 292.652344 466.847656 292.097656 C 466.792969 291.542969 466.710938 290.992188 466.601562 290.445312 C 466.492188 289.902344 466.359375 289.359375 466.195312 288.828125 C 466.035156 288.296875 465.847656 287.769531 465.632812 287.257812 C 465.421875 286.742188 465.183594 286.238281 464.921875 285.75 C 464.65625 285.257812 464.371094 284.78125 464.0625 284.316406 C 463.753906 283.855469 463.421875 283.40625 463.070312 282.976562 C 462.714844 282.546875 462.339844 282.132812 461.949219 281.738281 C 461.554688 281.347656 461.140625 280.972656 460.710938 280.617188 C 460.28125 280.265625 459.832031 279.933594 459.371094 279.625 C 458.90625 279.316406 458.429688 279.03125 457.9375 278.765625 C 457.449219 278.503906 456.945312 278.265625 456.429688 278.054688 C 455.917969 277.839844 455.390625 277.652344 454.859375 277.492188 C 454.328125 277.328125 453.785156 277.195312 453.242188 277.085938 C 452.695312 276.976562 452.144531 276.894531 451.589844 276.839844 C 451.035156 276.785156 450.480469 276.757812 449.921875 276.757812 C 449.367188 276.757812 448.808594 276.785156 448.257812 276.839844 C 447.703125 276.894531 447.152344 276.976562 446.605469 277.085938 C 446.058594 277.195312 445.519531 277.328125 444.984375 277.492188 C 444.453125 277.652344 443.929688 277.839844 443.414062 278.054688 C 442.898438 278.265625 442.398438 278.503906 441.90625 278.765625 C 441.414062 279.03125 440.9375 279.316406 440.476562 279.625 C 440.011719 279.933594 439.566406 280.265625 439.132812 280.617188 C 438.703125 280.972656 438.292969 281.347656 437.898438 281.738281 C 437.503906 282.132812 437.128906 282.546875 436.777344 282.976562 C 436.421875 283.40625 436.09375 283.855469 435.78125 284.316406 C 435.472656 284.78125 435.1875 285.257812 434.925781 285.75 C 434.664062 286.238281 434.425781 286.742188 434.210938 287.257812 C 434 287.769531 433.8125 288.296875 433.648438 288.828125 C 433.488281 289.359375 433.351562 289.902344 433.242188 290.445312 C 433.136719 290.992188 433.054688 291.542969 433 292.097656 C 432.945312 292.652344 432.917969 293.207031 432.917969 293.765625 C 432.917969 294.320312 432.945312 294.878906 433 295.433594 C 433.054688 295.984375 433.136719 296.535156 433.242188 297.082031 C 433.351562 297.628906 433.488281 298.167969 433.648438 298.703125 C 433.8125 299.234375 434 299.757812 434.210938 300.273438 C 434.425781 300.789062 434.664062 301.289062 434.925781 301.78125 C 435.1875 302.273438 435.472656 302.75 435.78125 303.210938 C 436.09375 303.675781 436.421875 304.121094 436.777344 304.554688 C 437.128906 304.984375 437.503906 305.394531 437.898438 305.789062 C 438.292969 306.183594 438.703125 306.558594 439.132812 306.910156 C 439.566406 307.265625 440.011719 307.59375 440.476562 307.90625 C 440.9375 308.214844 441.414062 308.5 441.90625 308.761719 C 442.398438 309.023438 442.898438 309.261719 443.414062 309.476562 C 443.929688 309.6875 444.453125 309.875 444.984375 310.039062 C 445.519531 310.199219 446.058594 310.335938 446.605469 310.445312 C 447.152344 310.550781 447.703125 310.632812 448.257812 310.6875 C 448.808594 310.742188 449.367188 310.769531 449.921875 310.769531 Z M 449.921875 310.769531 " fill-opacity="1" fill-rule="nonzero"/></svg>