<svg xmlns="http://www.w3.org/2000/svg" xmlns:xlink="http://www.w3.org/1999/xlink" width="1200" zoomAndPan="magnify" viewBox="0 0 900 899.99999" height="1200" preserveAspectRatio="xMidYMid meet" version="1.0"><defs><clipPath id="ed597e84d5"><path d="M 90 90.101562 L 810 90.101562 L 810 809.898438 L 90 809.898438 Z M 90 90.101562 " clip-rule="nonzero"/></clipPath><clipPath id="a5ca7bdda4"><path d="M 165 90.101562 L 735 90.101562 C 776.421875 90.101562 810 123.679688 810 165.101562 L 810 734.898438 C 810 776.320312 776.421875 809.898438 735 809.898438 L 165 809.898438 C 123.578125 809.898438 90 776.320312 90 734.898438 L 90 165.101562 C 90 123.679688 123.578125 90.101562 165 90.101562 Z M 165 90.101562 " clip-rule="nonzero"/></clipPath><clipPath id="a9cd143173"><path d="M 145.003906 202.191406 L 420 202.191406 L 420 697.941406 L 145.003906 697.941406 Z M 145.003906 202.191406 " clip-rule="nonzero"/></clipPath></defs><g clip-path="url(#ed597e84d5)"><g clip-path="url(#a5ca7bdda4)"><path fill="#3294cd" d="M 90 90.101562 L 809.796875 90.101562 L 809.796875 809.898438 L 90 809.898438 Z M 90 90.101562 " fill-opacity="1" fill-rule="nonzero"/></g></g><g clip-path="url(#a9cd143173)"><path fill="#000000" d="M 411.234375 202.191406 L 366.886719 202.191406 C 356.75 202.191406 348.515625 209.796875 347.882812 219.308594 L 341.546875 280.800781 C 341.546875 282.703125 339.644531 284.605469 337.746094 285.238281 C 330.777344 287.773438 323.808594 290.308594 317.472656 294.113281 C 315.570312 295.382812 313.035156 294.746094 311.136719 293.480469 L 262.988281 254.808594 C 255.386719 248.46875 243.984375 249.101562 237.015625 256.078125 L 199.636719 293.480469 C 192.667969 300.453125 192.03125 311.863281 198.367188 319.472656 L 237.648438 367.652344 C 238.914062 369.554688 239.546875 372.089844 238.28125 373.992188 C 235.113281 380.332031 231.945312 387.304688 229.410156 394.277344 C 228.777344 396.179688 226.878906 398.082031 224.34375 398.082031 L 162.890625 404.421875 C 152.753906 405.6875 145.785156 413.929688 145.785156 423.441406 L 145.785156 476.691406 C 145.785156 486.835938 153.386719 495.078125 162.890625 495.710938 L 224.34375 502.050781 C 226.878906 502.050781 228.144531 503.953125 229.410156 505.855469 C 231.945312 512.828125 234.480469 519.800781 238.28125 526.140625 C 239.546875 528.042969 238.914062 530.578125 237.648438 532.480469 L 198.367188 580.660156 C 192.03125 588.265625 192.667969 599.679688 199.636719 606.652344 L 237.015625 644.054688 C 243.984375 651.027344 255.386719 651.664062 262.988281 645.324219 L 311.136719 606.019531 C 313.035156 604.75 314.9375 604.117188 317.472656 605.382812 C 323.808594 608.554688 330.777344 611.722656 337.746094 613.625 C 339.644531 614.257812 341.546875 616.160156 341.546875 618.695312 L 347.882812 680.191406 C 349.148438 690.332031 357.382812 697.941406 366.886719 697.941406 L 411.234375 697.941406 C 415.667969 697.941406 419.46875 694.136719 419.46875 689.699219 L 419.46875 553.398438 C 419.46875 548.328125 415.035156 544.523438 409.96875 545.160156 C 404.898438 545.792969 399.195312 546.425781 393.496094 546.425781 C 340.914062 546.425781 298.464844 504.585938 296.566406 452.601562 C 295.933594 417.734375 314.304688 386.671875 344.078125 367.652344 C 366.253906 353.707031 389.058594 351.167969 409.96875 354.339844 C 415.035156 354.972656 419.46875 351.167969 419.46875 346.097656 L 419.46875 210.433594 C 419.46875 205.996094 415.667969 202.191406 411.234375 202.191406 Z M 411.234375 202.191406 " fill-opacity="1" fill-rule="nonzero"/></g><path fill="#000000" d="M 413.769531 381.597656 C 407.433594 379.699219 400.464844 378.429688 392.863281 378.429688 C 349.148438 378.429688 314.9375 417.101562 322.539062 462.109375 C 327.609375 490.640625 350.414062 514.730469 378.925781 519.800781 C 390.960938 521.703125 402.363281 521.070312 413.132812 517.898438 C 416.300781 516.628906 418.835938 513.460938 418.835938 510.292969 L 418.835938 389.839844 C 419.46875 386.035156 417.570312 382.867188 413.769531 381.597656 Z M 413.769531 381.597656 " fill-opacity="1" fill-rule="nonzero"/><path fill="#000000" d="M 661.476562 595.242188 C 642.472656 595.242188 627.265625 607.285156 621.566406 624.402344 L 591.789062 624.402344 L 557.578125 568.613281 C 555.042969 564.8125 550.609375 562.273438 545.542969 562.273438 L 518.300781 562.273438 L 518.300781 495.078125 C 518.300781 491.273438 515.132812 488.738281 511.964844 488.738281 L 497.394531 488.738281 C 493.59375 488.738281 491.058594 491.90625 491.058594 495.078125 L 491.058594 561.640625 L 451.78125 561.640625 C 447.980469 561.640625 445.445312 564.8125 445.445312 567.980469 L 445.445312 583.195312 C 445.445312 587 448.613281 589.535156 451.78125 589.535156 L 538.574219 589.535156 L 572.785156 645.324219 C 575.316406 649.125 579.753906 651.664062 584.820312 651.664062 L 622.199219 651.664062 C 629.167969 671.316406 649.441406 684.628906 672.882812 679.554688 C 688.085938 675.753906 700.121094 663.707031 703.925781 648.492188 C 709.625 620.597656 688.71875 595.242188 661.476562 595.242188 Z M 661.476562 652.929688 C 653.242188 652.929688 646.273438 645.957031 646.273438 637.714844 C 646.273438 629.472656 653.242188 622.5 661.476562 622.5 C 669.714844 622.5 676.683594 629.472656 676.683594 637.714844 C 676.683594 646.589844 669.714844 652.929688 661.476562 652.929688 Z M 661.476562 652.929688 " fill-opacity="1" fill-rule="nonzero"/><path fill="#000000" d="M 450.511719 337.855469 L 489.792969 337.855469 L 489.792969 405.054688 C 489.792969 408.859375 492.960938 411.394531 496.125 411.394531 L 510.699219 411.394531 C 514.5 411.394531 517.03125 408.226562 517.03125 405.054688 L 517.03125 337.855469 L 544.273438 337.855469 C 549.34375 337.855469 553.777344 335.320312 556.3125 331.515625 L 590.523438 275.730469 L 620.296875 275.730469 C 627.265625 295.382812 647.539062 308.695312 670.980469 303.625 C 686.183594 299.820312 698.222656 287.773438 702.023438 272.558594 C 708.992188 244.03125 687.453125 219.308594 660.210938 219.308594 C 641.203125 219.308594 626 231.351562 620.296875 248.46875 L 582.921875 248.46875 C 577.851562 248.46875 573.417969 251.003906 570.882812 254.808594 L 536.671875 310.597656 L 450.511719 310.597656 C 446.710938 310.597656 444.175781 313.765625 444.175781 316.9375 L 444.175781 331.515625 C 444.175781 335.320312 447.34375 337.855469 450.511719 337.855469 Z M 661.476562 247.203125 C 669.714844 247.203125 676.683594 254.175781 676.683594 262.417969 C 676.683594 270.65625 669.714844 277.632812 661.476562 277.632812 C 653.242188 277.632812 646.273438 270.65625 646.273438 262.417969 C 646.273438 253.539062 653.242188 247.203125 661.476562 247.203125 Z M 661.476562 247.203125 " fill-opacity="1" fill-rule="nonzero"/><path fill="#000000" d="M 704.558594 469.085938 C 685.550781 469.085938 670.347656 481.128906 664.644531 498.246094 L 591.789062 498.246094 L 562.011719 450.066406 L 592.421875 399.984375 L 665.277344 399.984375 C 672.246094 419.636719 692.519531 432.949219 715.960938 427.878906 C 731.164062 424.074219 743.203125 412.027344 747.003906 396.8125 C 753.972656 368.285156 732.433594 342.929688 705.191406 342.929688 C 686.183594 342.929688 670.980469 354.972656 665.277344 372.089844 L 584.1875 372.089844 C 579.117188 372.089844 574.683594 374.625 572.148438 379.0625 L 537.304688 436.117188 L 450.511719 436.117188 C 446.710938 436.117188 444.175781 439.289062 444.175781 442.457031 L 444.175781 457.039062 C 444.175781 460.84375 447.34375 463.378906 450.511719 463.378906 L 537.304688 463.378906 L 571.515625 519.167969 C 574.050781 522.96875 578.484375 525.507812 583.554688 525.507812 L 664.644531 525.507812 C 671.613281 545.160156 691.886719 558.472656 715.328125 553.398438 C 730.53125 549.597656 742.570312 537.550781 746.371094 522.335938 C 753.339844 494.441406 731.800781 469.085938 704.558594 469.085938 Z M 704.558594 371.457031 C 712.792969 371.457031 719.761719 378.429688 719.761719 386.671875 C 719.761719 394.910156 712.792969 401.886719 704.558594 401.886719 C 696.320312 401.886719 689.351562 394.914062 689.351562 386.671875 C 689.984375 377.796875 696.320312 371.457031 704.558594 371.457031 Z M 704.558594 526.773438 C 696.320312 526.773438 689.351562 519.800781 689.351562 511.558594 C 689.351562 503.316406 696.320312 496.34375 704.558594 496.34375 C 712.792969 496.34375 719.761719 503.316406 719.761719 511.558594 C 719.761719 520.433594 712.792969 526.773438 704.558594 526.773438 Z M 704.558594 526.773438 " fill-opacity="1" fill-rule="nonzero"/></svg>