<svg xmlns="http://www.w3.org/2000/svg" xmlns:xlink="http://www.w3.org/1999/xlink" width="1200" zoomAndPan="magnify" viewBox="0 0 900 899.99999" height="1200" preserveAspectRatio="xMidYMid meet" version="1.0"><defs><clipPath id="a2cf8bbc12"><path d="M 90 90.101562 L 810 90.101562 L 810 809.898438 L 90 809.898438 Z M 90 90.101562 " clip-rule="nonzero"/></clipPath><clipPath id="22a91d2c81"><path d="M 165 90.101562 L 735 90.101562 C 776.421875 90.101562 810 123.679688 810 165.101562 L 810 734.898438 C 810 776.320312 776.421875 809.898438 735 809.898438 L 165 809.898438 C 123.578125 809.898438 90 776.320312 90 734.898438 L 90 165.101562 C 90 123.679688 123.578125 90.101562 165 90.101562 Z M 165 90.101562 " clip-rule="nonzero"/></clipPath><clipPath id="8bf02298b2"><path d="M 281 192.019531 L 645 192.019531 L 645 708.019531 L 281 708.019531 Z M 281 192.019531 " clip-rule="nonzero"/></clipPath><clipPath id="b333389679"><path d="M 660 239 L 701.71875 239 L 701.71875 600 L 660 600 Z M 660 239 " clip-rule="nonzero"/></clipPath></defs><g clip-path="url(#a2cf8bbc12)"><g clip-path="url(#22a91d2c81)"><path fill="#3294cd" d="M 90 90.101562 L 809.796875 90.101562 L 809.796875 809.898438 L 90 809.898438 Z M 90 90.101562 " fill-opacity="1" fill-rule="nonzero"/></g></g><path fill="#000000" d="M 438.800781 308.925781 L 588 308.925781 C 592.4375 308.925781 596.066406 305.296875 596.066406 300.863281 C 596.066406 296.429688 592.4375 292.800781 588 292.800781 L 438.800781 292.800781 C 434.367188 292.800781 430.738281 296.429688 430.738281 300.863281 C 430.738281 305.296875 434.367188 308.925781 438.800781 308.925781 Z M 438.800781 308.925781 " fill-opacity="1" fill-rule="nonzero"/><path fill="#000000" d="M 438.800781 389.550781 L 588 389.550781 C 592.4375 389.550781 596.066406 385.921875 596.066406 381.488281 C 596.066406 377.054688 592.4375 373.425781 588 373.425781 L 438.800781 373.425781 C 434.367188 373.425781 430.738281 377.054688 430.738281 381.488281 C 430.738281 385.921875 434.367188 389.550781 438.800781 389.550781 Z M 438.800781 389.550781 " fill-opacity="1" fill-rule="nonzero"/><path fill="#000000" d="M 438.800781 341.175781 L 523.480469 341.175781 C 527.917969 341.175781 531.546875 337.546875 531.546875 333.113281 C 531.546875 328.679688 527.917969 325.050781 523.480469 325.050781 L 438.800781 325.050781 C 434.367188 325.050781 430.738281 328.679688 430.738281 333.113281 C 430.738281 337.546875 434.367188 341.175781 438.800781 341.175781 Z M 438.800781 341.175781 " fill-opacity="1" fill-rule="nonzero"/><path fill="#000000" d="M 224.683594 268.210938 L 254.925781 517.339844 C 254.925781 517.339844 262.585938 510.085938 265.007812 508.472656 L 265.007812 239.585938 C 265.007812 239.585938 246.457031 241.601562 246.457031 241.601562 C 233.152344 242.8125 223.070312 255.308594 224.683594 268.210938 Z M 224.683594 268.210938 " fill-opacity="1" fill-rule="nonzero"/><path fill="#000000" d="M 414.609375 601.996094 C 413.800781 599.175781 410.980469 597.160156 408.15625 596.757812 L 392.832031 594.335938 L 385.976562 579.824219 C 384.769531 577.003906 381.945312 574.988281 378.71875 574.988281 C 375.492188 574.988281 372.671875 576.601562 371.460938 579.824219 L 364.605469 594.335938 L 349.285156 596.757812 C 346.460938 597.160156 343.636719 599.175781 342.832031 601.996094 C 342.023438 604.820312 342.429688 608.042969 344.847656 610.058594 L 356.136719 621.75 L 353.316406 638.277344 C 352.914062 641.503906 354.121094 644.324219 356.542969 646.339844 C 358.960938 647.953125 362.589844 648.355469 365.007812 646.742188 L 378.71875 639.085938 C 378.71875 639.085938 392.429688 646.742188 392.429688 646.742188 C 394.847656 648.355469 398.476562 647.953125 400.898438 646.339844 C 403.316406 644.726562 404.527344 641.503906 404.125 638.277344 L 401.300781 621.75 L 412.59375 610.058594 C 415.011719 608.042969 415.414062 604.820312 414.609375 601.996094 Z M 414.609375 601.996094 " fill-opacity="1" fill-rule="nonzero"/><path fill="#000000" d="M 587.597656 421.800781 L 454.527344 421.800781 C 456.949219 427.039062 458.964844 432.28125 460.175781 437.925781 L 587.597656 437.925781 C 592.03125 437.925781 595.664062 434.296875 595.664062 429.863281 C 595.664062 425.429688 592.03125 421.800781 587.597656 421.800781 Z M 587.597656 421.800781 " fill-opacity="1" fill-rule="nonzero"/><g clip-path="url(#8bf02298b2)"><path fill="#000000" d="M 644.453125 683.832031 L 644.453125 216.207031 C 644.453125 202.902344 633.566406 192.019531 620.257812 192.019531 L 305.332031 192.019531 C 292.023438 192.019531 281.136719 202.902344 281.136719 216.207031 L 281.136719 417.367188 C 285.167969 409.304688 290.8125 402.046875 297.265625 395.195312 L 297.265625 216.207031 C 297.265625 211.773438 300.894531 208.144531 305.332031 208.144531 L 620.257812 208.144531 C 624.695312 208.144531 628.324219 211.773438 628.324219 216.207031 L 628.324219 683.832031 C 628.324219 688.265625 624.695312 691.894531 620.257812 691.894531 L 305.332031 691.894531 C 300.894531 691.894531 297.265625 688.265625 297.265625 683.832031 L 297.265625 595.144531 L 281.136719 611.269531 L 281.136719 683.832031 C 281.136719 697.132812 292.023438 708.019531 305.332031 708.019531 L 620.257812 708.019531 C 633.566406 708.019531 644.453125 697.132812 644.453125 683.832031 Z M 644.453125 683.832031 " fill-opacity="1" fill-rule="nonzero"/></g><path fill="#000000" d="M 595.664062 462.113281 C 595.664062 457.679688 592.03125 454.050781 587.597656 454.050781 L 462.996094 454.050781 C 463.398438 459.289062 463.398438 464.933594 462.996094 470.175781 L 587.597656 470.175781 C 592.03125 470.175781 595.664062 466.546875 595.664062 462.113281 Z M 595.664062 462.113281 " fill-opacity="1" fill-rule="nonzero"/><path fill="#000000" d="M 531.144531 494.363281 C 531.144531 489.929688 527.515625 486.300781 523.078125 486.300781 L 460.175781 486.300781 C 458.5625 491.945312 456.949219 497.183594 454.527344 502.425781 L 523.078125 502.425781 C 527.515625 502.425781 531.144531 498.796875 531.144531 494.363281 Z M 531.144531 494.363281 " fill-opacity="1" fill-rule="nonzero"/><g clip-path="url(#b333389679)"><path fill="#000000" d="M 679.132812 241.601562 L 660.582031 239.585938 L 660.582031 599.175781 C 660.582031 599.175781 700.90625 268.210938 700.90625 268.210938 C 701.714844 261.757812 698.890625 244.828125 679.132812 241.601562 Z M 679.132812 241.601562 " fill-opacity="1" fill-rule="nonzero"/></g><path fill="#000000" d="M 575.097656 619.332031 C 582.355469 619.332031 588 613.285156 588 606.027344 L 588 600.789062 C 588 593.53125 582.355469 587.484375 575.097656 587.484375 L 574.289062 587.484375 C 573.886719 586.679688 573.484375 585.871094 573.082031 584.664062 L 573.886719 583.855469 C 578.726562 579.019531 578.726562 570.554688 573.484375 565.3125 L 569.855469 561.683594 C 567.433594 559.265625 563.804688 557.652344 560.175781 557.652344 C 556.953125 557.652344 553.726562 558.863281 551.304688 561.28125 L 550.5 561.683594 C 549.691406 561.28125 548.886719 560.878906 547.675781 560.476562 L 547.675781 559.667969 C 547.675781 552.414062 541.628906 546.769531 534.371094 546.769531 L 529.128906 546.769531 C 521.871094 546.769531 515.820312 552.414062 515.820312 559.667969 L 515.820312 560.476562 C 515.015625 560.878906 514.207031 561.28125 513 561.683594 L 512.191406 560.878906 C 509.773438 558.460938 506.546875 557.25 503.320312 557.25 C 499.691406 557.25 496.0625 558.863281 493.644531 561.28125 L 490.011719 564.910156 C 484.773438 570.148438 484.367188 578.617188 489.609375 583.453125 L 490.011719 583.855469 C 489.609375 584.664062 489.207031 585.46875 488.804688 586.679688 L 487.996094 586.679688 C 480.738281 586.679688 475.09375 592.726562 475.09375 599.980469 L 475.09375 605.222656 C 475.09375 612.476562 480.738281 618.523438 487.996094 618.523438 L 488.804688 618.523438 C 489.207031 619.332031 489.609375 620.136719 490.011719 621.347656 L 489.207031 622.152344 C 484.367188 626.992188 484.367188 635.457031 489.609375 640.695312 L 493.238281 644.324219 C 495.660156 646.742188 499.289062 648.355469 502.917969 648.355469 C 506.144531 648.355469 509.367188 647.148438 511.789062 644.726562 L 512.191406 644.324219 C 513 644.726562 513.804688 645.132812 515.015625 645.535156 L 515.015625 646.339844 C 515.015625 653.597656 521.0625 659.242188 528.320312 659.242188 L 533.5625 659.242188 C 540.820312 659.242188 546.871094 653.597656 546.871094 646.339844 L 546.871094 645.535156 C 547.675781 645.132812 548.484375 644.726562 549.691406 644.324219 L 550.5 645.132812 C 552.917969 647.550781 556.144531 648.757812 559.371094 648.757812 C 563 648.757812 566.628906 647.148438 569.046875 644.726562 L 572.675781 641.101562 C 577.917969 635.859375 577.917969 627.394531 573.082031 622.554688 L 572.675781 622.152344 C 573.082031 621.347656 573.484375 620.539062 573.886719 619.332031 Z M 531.546875 619.332031 C 522.675781 619.332031 515.417969 612.074219 515.417969 603.207031 C 515.417969 594.335938 522.675781 587.082031 531.546875 587.082031 C 540.417969 587.082031 547.675781 594.335938 547.675781 603.207031 C 547.675781 612.074219 540.417969 619.332031 531.546875 619.332031 Z M 531.546875 619.332031 " fill-opacity="1" fill-rule="nonzero"/><path fill="#000000" d="M 244.84375 624.570312 L 307.347656 562.085938 C 315.007812 554.429688 315.816406 541.929688 310.167969 533.0625 L 317.425781 525.804688 C 331.539062 536.691406 348.878906 542.738281 366.621094 542.738281 C 387.996094 542.738281 408.558594 534.273438 423.882812 518.953125 C 455.335938 487.507812 455.335938 436.3125 423.882812 404.867188 C 392.429688 373.425781 341.21875 373.425781 309.765625 404.867188 C 279.523438 434.699219 278.3125 482.671875 305.734375 514.519531 L 298.476562 521.773438 C 294.847656 519.757812 290.8125 518.550781 286.78125 518.148438 C 280.328125 518.148438 274.683594 520.164062 270.25 524.597656 L 207.34375 587.484375 C 198.472656 596.351562 198.472656 611.269531 207.746094 620.539062 L 211.375 624.167969 C 220.648438 633.039062 235.570312 633.84375 244.84375 624.570312 Z M 337.992188 437.925781 C 337.992188 435.507812 339.605469 433.894531 342.023438 433.894531 L 390.414062 433.894531 C 392.832031 433.894531 394.445312 435.507812 394.445312 437.925781 L 394.445312 448.40625 L 373.074219 458.082031 L 370.65625 453.242188 C 368.640625 449.210938 363.800781 447.601562 359.765625 449.617188 C 355.734375 451.632812 354.121094 456.46875 356.136719 460.5 L 362.1875 472.59375 C 363.398438 475.414062 366.621094 477.027344 369.445312 477.027344 C 370.65625 477.027344 371.863281 476.625 372.671875 476.222656 L 394.445312 466.144531 L 394.445312 486.300781 C 394.445312 488.71875 392.832031 490.332031 390.414062 490.332031 L 342.023438 490.332031 C 339.605469 490.332031 337.992188 488.71875 337.992188 486.300781 Z M 337.992188 437.925781 " fill-opacity="1" fill-rule="nonzero"/><path fill="#000000" d="M 359.765625 304.492188 C 363.800781 302.476562 368.640625 304.085938 370.65625 308.117188 L 373.074219 312.957031 L 402.109375 299.652344 L 402.109375 292.800781 C 402.109375 285.945312 396.867188 280.707031 390.011719 280.707031 L 341.621094 280.707031 C 334.765625 280.707031 329.523438 285.945312 329.523438 292.800781 L 329.523438 341.175781 C 329.523438 348.027344 334.765625 353.269531 341.621094 353.269531 L 390.011719 353.269531 C 396.867188 353.269531 402.109375 348.027344 402.109375 341.175781 L 402.109375 317.792969 L 372.671875 331.097656 C 371.460938 331.5 370.25 331.902344 369.445312 331.902344 C 366.621094 331.902344 363.398438 330.289062 362.1875 327.46875 L 356.136719 315.375 C 354.121094 311.34375 355.734375 306.507812 359.765625 304.492188 Z M 359.765625 304.492188 " fill-opacity="1" fill-rule="nonzero"/></svg>