<svg xmlns="http://www.w3.org/2000/svg" xmlns:xlink="http://www.w3.org/1999/xlink" width="1200" zoomAndPan="magnify" viewBox="0 0 900 899.99999" height="1200" preserveAspectRatio="xMidYMid meet" version="1.0"><defs><clipPath id="ec5af5ef84"><path d="M 90 90.101562 L 810 90.101562 L 810 809.898438 L 90 809.898438 Z M 90 90.101562 " clip-rule="nonzero"/></clipPath><clipPath id="62af2f90df"><path d="M 165 90.101562 L 735 90.101562 C 776.421875 90.101562 810 123.679688 810 165.101562 L 810 734.898438 C 810 776.320312 776.421875 809.898438 735 809.898438 L 165 809.898438 C 123.578125 809.898438 90 776.320312 90 734.898438 L 90 165.101562 C 90 123.679688 123.578125 90.101562 165 90.101562 Z M 165 90.101562 " clip-rule="nonzero"/></clipPath></defs><g clip-path="url(#ec5af5ef84)"><g clip-path="url(#62af2f90df)"><path fill="#3294cd" d="M 90 90.101562 L 809.796875 90.101562 L 809.796875 809.898438 L 90 809.898438 Z M 90 90.101562 " fill-opacity="1" fill-rule="nonzero"/></g></g><path fill="#000000" d="M 647.988281 359.226562 L 647.988281 596.617188 C 647.988281 599.699219 645.523438 602.214844 642.503906 602.214844 L 255.136719 602.214844 C 252.117188 602.214844 249.65625 599.699219 249.65625 596.617188 L 249.65625 359.226562 C 249.65625 356.144531 252.117188 353.628906 255.136719 353.628906 L 270.5625 353.628906 L 270.5625 569.640625 C 270.5625 582.613281 281.105469 593.15625 294.074219 593.15625 L 421.847656 593.15625 C 424.046875 593.15625 426.109375 593.953125 427.765625 595.394531 C 433.625 600.511719 441.46875 602.339844 448.824219 600.523438 C 456.179688 602.339844 464.019531 600.511719 469.878906 595.394531 C 471.535156 593.949219 473.597656 593.15625 475.796875 593.15625 L 603.566406 593.15625 C 616.539062 593.15625 627.082031 582.613281 627.082031 569.640625 L 627.082031 353.628906 L 642.503906 353.628906 C 645.523438 353.628906 647.988281 356.144531 647.988281 359.226562 Z M 555.511719 302.988281 L 446.703125 274.085938 C 445.71875 273.824219 444.816406 273.824219 443.828125 274.085938 L 335.023438 302.988281 C 329.5 304.457031 329.5 312.34375 335.023438 313.8125 L 443.828125 342.714844 C 444.816406 342.976562 445.71875 342.976562 446.703125 342.714844 L 540.792969 317.722656 L 540.792969 370.613281 L 539.515625 371.351562 C 537.738281 372.378906 536.71875 374.140625 536.71875 376.199219 L 536.71875 407.542969 C 536.71875 412.171875 541.984375 414.800781 545.679688 412.019531 L 548.367188 410 C 550.390625 408.476562 553.074219 408.476562 555.097656 410 L 557.78125 412.019531 C 561.480469 414.800781 566.746094 412.171875 566.746094 407.542969 L 566.746094 376.199219 C 566.746094 374.140625 565.726562 372.378906 563.945312 371.351562 L 558.707031 368.324219 L 558.707031 311.570312 C 560.863281 308.40625 559.269531 303.988281 555.511719 302.988281 Z M 529.992188 391.5625 C 532.671875 391.066406 534.578125 388.78125 534.578125 386.054688 L 534.578125 337.90625 L 451.300781 360.027344 C 447.308594 361.089844 443.226562 361.089844 439.230469 360.027344 L 355.953125 337.910156 L 355.953125 386.058594 C 355.953125 388.785156 357.859375 391.070312 360.539062 391.5625 C 460.082031 409.933594 430.449219 409.933594 529.992188 391.5625 Z M 596.265625 663.074219 C 553.285156 692.765625 503.007812 708.019531 452.53125 708.738281 C 410.164062 709.34375 367.664062 699.71875 329.210938 679.8125 L 341.691406 679.988281 C 346.621094 680.046875 350.664062 676.097656 350.722656 671.167969 C 350.78125 666.242188 346.832031 662.199219 341.902344 662.140625 L 296.726562 661.503906 C 289.839844 661.164062 285.058594 668.585938 288.492188 674.761719 L 310.6875 714.488281 C 313.082031 718.800781 318.519531 720.351562 322.828125 717.953125 C 327.140625 715.558594 328.691406 710.121094 326.292969 705.8125 L 320.472656 695.394531 C 361.707031 716.855469 407.304688 727.230469 452.742188 726.582031 C 506.714844 725.816406 560.46875 709.507812 606.414062 677.769531 C 610.472656 674.96875 611.492188 669.40625 608.691406 665.347656 C 605.886719 661.289062 600.324219 660.273438 596.265625 663.074219 Z M 189.238281 452.707031 C 188.664062 410.679688 198.15625 368.519531 217.769531 330.324219 L 217.472656 341.921875 C 217.359375 346.851562 221.257812 350.941406 226.1875 351.054688 C 231.113281 351.171875 235.203125 347.269531 235.320312 342.34375 L 236.472656 296.96875 C 236.734375 290.15625 229.414062 285.460938 223.285156 288.800781 L 183.304688 310.542969 C 178.976562 312.898438 177.378906 318.320312 179.738281 322.648438 C 182.09375 326.976562 187.515625 328.574219 191.84375 326.21875 L 202.894531 320.207031 C 181.246094 361.539062 170.769531 407.304688 171.390625 452.914062 C 172.128906 506.941406 188.433594 560.761719 220.207031 606.757812 C 223.007812 610.8125 228.570312 611.832031 232.628906 609.03125 C 236.6875 606.226562 237.703125 600.664062 234.902344 596.609375 C 205.179688 553.585938 189.925781 503.242188 189.238281 452.707031 Z M 301.367188 235.246094 C 344.003906 205.800781 393.84375 190.539062 443.945312 189.597656 C 487.257812 188.785156 530.753906 198.65625 569.957031 219.292969 L 555.761719 219.4375 C 550.835938 219.476562 546.871094 223.503906 546.910156 228.429688 C 546.949219 233.359375 550.976562 237.324219 555.902344 237.285156 L 600.851562 236.828125 C 607.863281 237.214844 612.699219 229.546875 609.039062 223.351562 L 585.886719 184.171875 C 583.375 179.917969 577.890625 178.511719 573.640625 181.023438 C 569.390625 183.535156 567.976562 189.015625 570.488281 193.269531 L 575.773438 202.210938 C 534.519531 181.027344 488.984375 170.902344 443.664062 171.753906 C 390.089844 172.757812 336.800781 189.074219 291.21875 220.550781 C 287.164062 223.351562 286.144531 228.914062 288.945312 232.972656 C 291.746094 237.03125 297.308594 238.050781 301.367188 235.246094 Z M 704.921875 571.039062 L 695.617188 576.464844 C 717.121094 534.722656 727.28125 488.5625 726.199219 442.65625 C 724.949219 389.53125 708.636719 336.753906 677.425781 291.5625 C 674.625 287.507812 669.0625 286.488281 665.003906 289.289062 C 660.945312 292.09375 659.929688 297.65625 662.730469 301.710938 C 691.925781 343.980469 707.1875 393.363281 708.355469 443.074219 C 709.382812 486.609375 699.589844 530.398438 678.875 569.894531 L 678.820312 556.140625 C 678.800781 551.214844 674.792969 547.234375 669.863281 547.253906 C 664.9375 547.273438 660.957031 551.28125 660.976562 556.210938 L 661.152344 601.21875 C 660.785156 608.183594 668.375 613 674.558594 609.417969 L 713.878906 586.507812 C 718.148438 584.035156 719.605469 578.566406 717.132812 574.296875 C 714.660156 570.023438 709.191406 568.566406 704.921875 571.039062 Z M 294.074219 322.5 L 338.039062 322.5 L 338.039062 342.75 L 315.554688 342.75 C 310.609375 342.75 306.597656 346.761719 306.597656 351.707031 C 306.597656 356.65625 310.609375 360.667969 315.554688 360.667969 L 338.039062 360.667969 L 338.039062 382.042969 L 315.554688 382.042969 C 310.609375 382.042969 306.597656 386.054688 306.597656 391 C 306.597656 395.949219 310.609375 399.957031 315.554688 399.957031 L 342.578125 399.957031 C 346.019531 404.660156 351.195312 408.054688 357.289062 409.179688 C 375.488281 412.539062 393.640625 416.257812 411.84375 419.527344 C 421.136719 421.199219 430.445312 422.691406 439.867188 423.125 L 439.867188 582.160156 C 433.992188 577.703125 429.503906 575.242188 421.847656 575.242188 L 294.078125 575.242188 C 290.992188 575.242188 288.476562 572.726562 288.476562 569.644531 L 288.476562 328.097656 C 288.476562 325.015625 290.992188 322.5 294.074219 322.5 Z M 306.597656 430.289062 C 306.597656 435.238281 310.609375 439.25 315.554688 439.25 L 421.742188 439.25 C 426.691406 439.25 430.703125 435.238281 430.703125 430.289062 C 430.703125 425.34375 426.691406 421.332031 421.742188 421.332031 L 315.554688 421.332031 C 310.609375 421.332031 306.597656 425.34375 306.597656 430.289062 Z M 306.597656 469.582031 C 306.597656 474.527344 310.609375 478.539062 315.554688 478.539062 L 421.742188 478.539062 C 426.691406 478.539062 430.703125 474.527344 430.703125 469.582031 C 430.703125 464.636719 426.691406 460.625 421.742188 460.625 L 315.554688 460.625 C 310.609375 460.625 306.597656 464.636719 306.597656 469.582031 Z M 306.597656 508.871094 C 306.597656 513.820312 310.609375 517.832031 315.554688 517.832031 L 421.742188 517.832031 C 426.691406 517.832031 430.703125 513.820312 430.703125 508.871094 C 430.703125 503.925781 426.691406 499.914062 421.742188 499.914062 L 315.554688 499.914062 C 310.609375 499.914062 306.597656 503.925781 306.597656 508.871094 Z M 306.597656 548.164062 C 306.597656 553.113281 310.609375 557.121094 315.554688 557.121094 L 421.742188 557.121094 C 426.691406 557.121094 430.703125 553.113281 430.703125 548.164062 C 430.703125 543.21875 426.691406 539.207031 421.742188 539.207031 L 315.554688 539.207031 C 310.609375 539.207031 306.597656 543.21875 306.597656 548.164062 Z M 475.796875 575.242188 C 468.140625 575.242188 463.65625 577.703125 457.78125 582.160156 L 457.78125 422.609375 C 464.785156 421.925781 471.742188 420.777344 478.6875 419.527344 C 492.203125 417.097656 505.691406 414.421875 519.191406 411.832031 C 519.824219 415.296875 521.21875 418.535156 523.246094 421.332031 L 475.898438 421.332031 C 470.953125 421.332031 466.941406 425.34375 466.941406 430.289062 C 466.941406 435.238281 470.953125 439.25 475.898438 439.25 L 582.085938 439.25 C 587.035156 439.25 591.046875 435.238281 591.046875 430.289062 C 591.046875 425.34375 587.035156 421.332031 582.085938 421.332031 L 580.214844 421.332031 C 583.058594 417.40625 584.660156 412.621094 584.660156 407.542969 L 584.660156 399.582031 C 588.351562 398.476562 591.046875 395.050781 591.046875 391 C 591.046875 386.945312 588.351562 383.519531 584.660156 382.417969 L 584.660156 376.195312 C 584.660156 370.355469 582.542969 364.882812 578.820312 360.664062 L 582.085938 360.664062 C 587.035156 360.664062 591.046875 356.652344 591.046875 351.707031 C 591.046875 346.761719 587.035156 342.75 582.085938 342.75 L 576.621094 342.75 L 576.621094 322.496094 L 603.566406 322.496094 C 606.652344 322.496094 609.164062 325.011719 609.164062 328.097656 L 609.164062 569.640625 C 609.164062 572.722656 606.652344 575.238281 603.566406 575.238281 L 475.796875 575.238281 Z M 466.941406 469.582031 C 466.941406 474.527344 470.953125 478.539062 475.898438 478.539062 L 582.085938 478.539062 C 587.035156 478.539062 591.042969 474.527344 591.042969 469.582031 C 591.042969 464.636719 587.035156 460.625 582.085938 460.625 L 475.898438 460.625 C 470.953125 460.625 466.941406 464.636719 466.941406 469.582031 Z M 466.941406 508.871094 C 466.941406 513.820312 470.953125 517.832031 475.898438 517.832031 L 582.085938 517.832031 C 587.035156 517.832031 591.042969 513.820312 591.042969 508.871094 C 591.042969 503.925781 587.035156 499.914062 582.085938 499.914062 L 475.898438 499.914062 C 470.953125 499.914062 466.941406 503.925781 466.941406 508.871094 Z M 475.898438 557.121094 L 582.085938 557.121094 C 587.035156 557.121094 591.042969 553.113281 591.042969 548.164062 C 591.042969 543.21875 587.035156 539.207031 582.085938 539.207031 L 475.898438 539.207031 C 470.953125 539.207031 466.941406 543.21875 466.941406 548.164062 C 466.941406 553.113281 470.953125 557.121094 475.898438 557.121094 Z M 475.898438 557.121094 " fill-opacity="1" fill-rule="evenodd"/></svg>