<svg xmlns="http://www.w3.org/2000/svg" xmlns:xlink="http://www.w3.org/1999/xlink" width="1200" zoomAndPan="magnify" viewBox="0 0 900 899.99999" height="1200" preserveAspectRatio="xMidYMid meet" version="1.0"><defs><clipPath id="72f431eef1"><path d="M 90 96.75 L 810 96.75 L 810 803.25 L 90 803.25 Z M 90 96.75 " clip-rule="nonzero"/></clipPath></defs><g clip-path="url(#72f431eef1)"><path fill="#ffffff" d="M 590.882812 432.0625 C 587.398438 420.019531 582.414062 408.609375 576.140625 398.058594 C 595.03125 386.316406 617.324219 379.539062 641.199219 379.539062 C 682.992188 379.539062 719.933594 400.296875 742.265625 432.0625 Z M 641.199219 365.019531 C 606.820312 365.019531 578.800781 336.964844 578.800781 302.589844 C 578.800781 268.214844 606.820312 240.160156 641.199219 240.160156 C 675.605469 240.160156 703.628906 268.214844 703.628906 302.589844 C 703.628906 336.964844 675.605469 365.019531 641.199219 365.019531 Z M 157.667969 432.0625 C 180.011719 400.296875 216.9375 379.539062 258.714844 379.539062 C 282.601562 379.539062 304.898438 386.316406 323.792969 398.054688 C 317.515625 408.609375 312.527344 420.015625 309.039062 432.0625 Z M 258.714844 365.019531 C 224.339844 365.019531 196.316406 336.964844 196.316406 302.589844 C 196.316406 268.214844 224.339844 240.160156 258.714844 240.160156 C 293.125 240.160156 321.144531 268.214844 321.144531 302.589844 C 321.144531 336.964844 293.125 365.019531 258.714844 365.019531 Z M 566.507812 432.0625 L 333.414062 432.0625 C 350.285156 383.941406 396.089844 349.429688 449.957031 349.429688 C 503.847656 349.429688 549.660156 383.941406 566.507812 432.0625 Z M 449.957031 334.914062 C 415.578125 334.914062 387.558594 306.859375 387.558594 272.480469 C 387.558594 238.105469 415.578125 210.054688 449.957031 210.054688 C 484.367188 210.054688 512.386719 238.105469 512.386719 272.480469 C 512.386719 306.859375 484.367188 334.914062 449.957031 334.914062 Z M 771.792969 501.738281 L 771.792969 524.996094 L 718.480469 545.511719 C 711.730469 573.921875 700.417969 601.015625 685.164062 625.917969 L 708.308594 678.175781 L 646.757812 739.726562 L 594.5 716.578125 C 569.683594 731.921875 542.503906 743.148438 514.097656 749.898438 L 493.578125 803.210938 L 406.507812 803.210938 L 385.992188 749.898438 C 357.496094 743.148438 330.402344 731.835938 305.5 716.578125 L 253.242188 739.726562 L 191.691406 678.175781 L 214.925781 625.917969 C 199.582031 601.101562 188.359375 573.921875 181.519531 545.511719 L 128.207031 524.996094 L 128.207031 501.738281 L 299.480469 501.738281 C 309.402344 576.046875 372.980469 633.371094 450 633.371094 C 527.019531 633.371094 590.671875 576.046875 600.605469 501.738281 Z M 116.746094 432.0625 C 116.648438 431.453125 116.59375 430.832031 116.59375 430.195312 C 116.59375 246.183594 265.988281 96.789062 450 96.789062 C 634.011719 96.789062 783.40625 246.183594 783.40625 430.195312 C 783.40625 430.832031 783.351562 431.453125 783.253906 432.0625 L 760.328125 432.0625 C 760.230469 431.453125 760.179688 430.832031 760.179688 430.195312 C 760.179688 259.003906 621.191406 120.015625 450 120.015625 C 278.808594 120.015625 139.820312 259.003906 139.820312 430.195312 C 139.820312 430.832031 139.769531 431.453125 139.671875 432.0625 Z M 101.613281 478.515625 C 95.203125 478.515625 90 473.3125 90 466.902344 C 90 460.492188 95.203125 455.289062 101.613281 455.289062 L 798.386719 455.289062 C 804.796875 455.289062 810 460.492188 810 466.902344 C 810 473.3125 804.796875 478.515625 798.386719 478.515625 Z M 101.613281 478.515625 " fill-opacity="1" fill-rule="evenodd"/></g></svg>