<svg xmlns="http://www.w3.org/2000/svg" xmlns:xlink="http://www.w3.org/1999/xlink" width="1200" zoomAndPan="magnify" viewBox="0 0 900 899.99999" height="1200" preserveAspectRatio="xMidYMid meet" version="1.0"><defs><clipPath id="fbd197946e"><path d="M 172.351562 90 L 727.351562 90 L 727.351562 810 L 172.351562 810 Z M 172.351562 90 " clip-rule="nonzero"/></clipPath></defs><g clip-path="url(#fbd197946e)"><path fill="#ffffff" d="M 512.367188 488.960938 C 498.777344 495.253906 488.597656 507.472656 484.996094 522.945312 C 484.984375 522.992188 480.433594 542.359375 480.433594 542.359375 C 480.425781 542.378906 480.421875 542.394531 480.421875 542.410156 C 480.285156 542.980469 480.027344 543.4375 479.597656 543.839844 C 479.582031 543.855469 479.570312 543.867188 479.554688 543.878906 L 464.992188 557.542969 C 448.546875 572.980469 444.402344 596.546875 454.613281 616.644531 C 454.632812 616.683594 463.570312 634.359375 463.570312 634.359375 C 463.84375 634.917969 463.96875 635.464844 463.890625 636.089844 C 463.886719 636.113281 463.886719 636.140625 463.882812 636.164062 L 461.511719 655.996094 L 461.507812 656.023438 C 460.566406 663.988281 461.480469 671.75 463.984375 678.839844 C 366.820312 678.835938 266.058594 678.832031 236.957031 678.824219 C 234.835938 678.824219 232.820312 677.90625 231.429688 676.308594 C 230.035156 674.710938 229.402344 672.585938 229.695312 670.488281 C 245.386719 562.824219 338.0625 480.125 450.039062 480.125 C 471.675781 480.125 492.589844 483.210938 512.367188 488.960938 Z M 450.039062 465.429688 C 388.039062 465.429688 337.5 414.832031 337.5 352.828125 C 337.5 290.828125 388.039062 240.230469 450.039062 240.230469 C 512.101562 240.230469 562.640625 290.828125 562.640625 352.828125 C 562.640625 414.832031 512.101562 465.429688 450.039062 465.429688 Z M 682.226562 722.324219 L 709.214844 780.316406 C 709.617188 781.152344 709.515625 782.054688 708.949219 782.753906 C 708.414062 783.488281 707.582031 783.824219 706.679688 783.65625 L 670.886719 777.410156 L 652.589844 808.832031 C 652.15625 809.597656 651.355469 810.03125 650.453125 810 C 649.550781 809.964844 648.820312 809.464844 648.417969 808.628906 L 623.644531 755.417969 C 643.582031 759.28125 663.480469 751.003906 674.84375 733.609375 Z M 573.332031 755.417969 L 548.558594 808.628906 C 548.191406 809.464844 547.421875 809.964844 546.519531 810 C 545.621094 810.03125 544.816406 809.597656 544.382812 808.832031 L 526.121094 777.410156 L 490.296875 783.65625 C 489.394531 783.824219 488.5625 783.488281 488.027344 782.753906 C 487.460938 782.054688 487.359375 781.152344 487.757812 780.316406 L 514.75 722.324219 C 517.9375 727.199219 522.136719 733.621094 522.136719 733.621094 C 533.496094 751.003906 553.394531 759.28125 573.332031 755.417969 Z M 614.398438 489.511719 L 630.390625 501.5 C 634.761719 504.769531 639.335938 506.441406 644.8125 506.742188 L 664.746094 507.84375 C 676.664062 508.507812 686.378906 516.65625 689.082031 528.277344 L 693.65625 547.738281 C 694.894531 553.046875 697.328125 557.289062 701.335938 561.027344 L 715.890625 574.683594 C 724.605469 582.863281 726.808594 595.351562 721.402344 606 L 712.386719 623.828125 C 709.949219 628.703125 709.082031 633.511719 709.75 638.953125 L 712.121094 658.785156 C 713.523438 670.636719 707.210938 681.621094 696.195312 686.328125 L 677.863281 694.175781 C 672.824219 696.3125 669.085938 699.484375 666.082031 704.058594 L 655.164062 720.75 C 648.617188 730.769531 636.730469 735.074219 625.28125 731.632812 L 606.148438 725.859375 C 600.941406 724.257812 596.035156 724.257812 590.824219 725.859375 L 571.695312 731.632812 C 560.242188 735.074219 548.355469 730.769531 541.8125 720.75 L 530.898438 704.058594 C 527.890625 699.484375 524.152344 696.3125 519.109375 694.175781 L 500.78125 686.328125 C 489.796875 681.621094 483.453125 670.636719 484.855469 658.785156 L 487.226562 638.953125 C 487.894531 633.511719 487.023438 628.703125 484.589844 623.828125 L 475.574219 606 C 470.164062 595.351562 472.367188 582.863281 481.082031 574.683594 L 495.636719 561.027344 C 499.644531 557.289062 502.082031 553.046875 503.316406 547.738281 L 507.890625 528.277344 C 510.597656 516.65625 520.3125 508.507812 532.230469 507.84375 L 552.164062 506.742188 C 557.640625 506.441406 562.246094 504.769531 566.585938 501.5 L 582.578125 489.511719 C 592.160156 482.367188 604.8125 482.367188 614.398438 489.511719 Z M 598.503906 681.441406 C 638.65625 681.441406 671.441406 648.660156 671.441406 608.46875 C 671.441406 568.285156 638.65625 535.5 598.503906 535.5 C 558.316406 535.5 525.535156 568.285156 525.535156 608.46875 C 525.535156 648.660156 558.316406 681.441406 598.503906 681.441406 Z M 444.632812 93.925781 C 445.394531 91.585938 447.578125 90 450.039062 90 C 452.503906 90 454.683594 91.585938 455.445312 93.925781 L 465.792969 125.769531 C 466.554688 128.109375 468.734375 129.695312 471.199219 129.695312 L 504.675781 129.695312 C 507.140625 129.695312 509.324219 131.28125 510.085938 133.625 C 510.84375 135.96875 510.011719 138.53125 508.019531 139.980469 L 480.933594 159.660156 C 478.941406 161.105469 478.109375 163.671875 478.871094 166.015625 L 489.214844 197.855469 C 489.976562 200.195312 489.140625 202.761719 487.148438 204.210938 C 485.15625 205.660156 482.457031 205.660156 480.464844 204.210938 L 453.382812 184.53125 C 451.390625 183.085938 448.691406 183.085938 446.699219 184.53125 L 419.613281 204.210938 C 417.621094 205.660156 414.921875 205.660156 412.929688 204.210938 C 410.9375 202.761719 410.105469 200.195312 410.863281 197.855469 L 421.210938 166.015625 C 421.972656 163.671875 421.140625 161.105469 419.144531 159.660156 L 392.0625 139.980469 C 390.070312 138.53125 389.234375 135.96875 389.996094 133.625 C 390.757812 131.28125 392.941406 129.695312 395.402344 129.695312 L 428.882812 129.695312 C 431.34375 129.695312 433.527344 128.109375 434.289062 125.769531 Z M 252.765625 177.90625 C 251.648438 175.710938 252.070312 173.046875 253.808594 171.304688 C 255.550781 169.5625 258.214844 169.144531 260.410156 170.261719 L 290.242188 185.457031 C 292.433594 186.578125 295.097656 186.15625 296.839844 184.414062 L 320.515625 160.742188 C 322.253906 159 324.921875 158.578125 327.113281 159.695312 C 329.308594 160.8125 330.535156 163.21875 330.148438 165.648438 L 324.910156 198.714844 C 324.527344 201.148438 325.75 203.554688 327.945312 204.671875 L 357.773438 219.871094 C 359.96875 220.988281 361.195312 223.390625 360.808594 225.824219 C 360.425781 228.257812 358.515625 230.164062 356.082031 230.550781 L 323.019531 235.785156 C 320.585938 236.171875 318.675781 238.082031 318.292969 240.515625 L 313.054688 273.578125 C 312.667969 276.011719 310.761719 277.921875 308.328125 278.304688 C 305.898438 278.691406 303.492188 277.464844 302.375 275.269531 L 287.175781 245.441406 C 286.058594 243.246094 283.652344 242.019531 281.222656 242.40625 L 248.152344 247.644531 C 245.722656 248.03125 243.316406 246.804688 242.199219 244.609375 C 241.082031 242.417969 241.503906 239.75 243.246094 238.011719 L 266.917969 214.335938 C 268.660156 212.59375 269.082031 209.929688 267.960938 207.734375 Z M 176.472656 372.960938 C 174.132812 372.199219 172.546875 370.015625 172.546875 367.550781 C 172.546875 365.089844 174.132812 362.90625 176.472656 362.148438 L 208.316406 351.800781 C 210.65625 351.039062 212.242188 348.859375 212.242188 346.394531 L 212.242188 312.917969 C 212.242188 310.453125 213.828125 308.269531 216.171875 307.507812 C 218.511719 306.746094 221.078125 307.582031 222.527344 309.574219 L 242.203125 336.660156 C 243.652344 338.652344 246.21875 339.484375 248.5625 338.726562 L 280.402344 328.378906 C 282.742188 327.617188 285.308594 328.449219 286.757812 330.445312 C 288.207031 332.4375 288.207031 335.136719 286.757812 337.128906 L 267.078125 364.210938 C 265.632812 366.203125 265.632812 368.902344 267.078125 370.894531 L 286.757812 397.980469 C 288.207031 399.972656 288.207031 402.667969 286.757812 404.660156 C 285.308594 406.65625 282.742188 407.488281 280.402344 406.726562 L 248.5625 396.382812 C 246.21875 395.621094 243.652344 396.457031 242.203125 398.449219 L 222.527344 425.53125 C 221.078125 427.523438 218.511719 428.359375 216.171875 427.597656 C 213.828125 426.835938 212.242188 424.652344 212.242188 422.191406 L 212.242188 388.710938 C 212.242188 386.25 210.65625 384.066406 208.316406 383.304688 Z M 639.6875 170.21875 C 641.878906 169.101562 644.546875 169.523438 646.289062 171.265625 C 648.027344 173.003906 648.453125 175.667969 647.332031 177.863281 L 632.132812 207.695312 C 631.015625 209.890625 631.4375 212.554688 633.179688 214.296875 L 656.851562 237.96875 C 658.59375 239.707031 659.015625 242.375 657.898438 244.566406 C 656.78125 246.761719 654.375 247.988281 651.941406 247.601562 L 618.878906 242.363281 C 616.445312 241.980469 614.039062 243.207031 612.921875 245.398438 L 597.722656 275.226562 C 596.605469 277.421875 594.203125 278.648438 591.769531 278.261719 C 589.335938 277.878906 587.429688 275.96875 587.042969 273.535156 L 581.804688 240.472656 C 581.421875 238.039062 579.511719 236.128906 577.082031 235.746094 L 544.015625 230.507812 C 541.582031 230.121094 539.671875 228.214844 539.289062 225.78125 C 538.902344 223.351562 540.128906 220.945312 542.324219 219.828125 L 572.152344 204.628906 C 574.347656 203.511719 575.570312 201.105469 575.183594 198.675781 L 569.949219 165.609375 C 569.5625 163.175781 570.789062 160.773438 572.984375 159.652344 C 575.179688 158.535156 577.84375 158.957031 579.582031 160.699219 L 603.257812 184.371094 C 604.996094 186.113281 607.664062 186.535156 609.855469 185.417969 Z M 723.664062 362.085938 C 726.007812 362.847656 727.59375 365.03125 727.59375 367.492188 C 727.59375 369.957031 726.007812 372.140625 723.664062 372.902344 L 691.824219 383.246094 C 689.484375 384.007812 687.898438 386.191406 687.898438 388.652344 L 687.898438 422.132812 C 687.898438 424.59375 686.3125 426.777344 683.96875 427.539062 C 681.625 428.296875 679.0625 427.464844 677.613281 425.472656 L 657.933594 398.386719 C 656.488281 396.394531 653.921875 395.5625 651.578125 396.324219 L 619.738281 406.667969 C 617.394531 407.429688 614.832031 406.597656 613.382812 404.601562 C 611.933594 402.609375 611.933594 399.914062 613.382812 397.921875 L 633.0625 370.835938 C 634.507812 368.84375 634.507812 366.144531 633.0625 364.152344 L 613.382812 337.066406 C 611.933594 335.074219 611.933594 332.378906 613.382812 330.382812 C 614.832031 328.390625 617.394531 327.558594 619.738281 328.320312 L 651.578125 338.664062 C 653.921875 339.425781 656.488281 338.59375 657.933594 336.601562 L 677.613281 309.515625 C 679.0625 307.523438 681.625 306.6875 683.96875 307.449219 C 686.3125 308.210938 687.898438 310.394531 687.898438 312.855469 L 687.898438 346.335938 C 687.898438 348.796875 689.484375 350.980469 691.824219 351.742188 Z M 723.664062 362.085938 " fill-opacity="1" fill-rule="evenodd"/></g></svg>