<svg xmlns="http://www.w3.org/2000/svg" xmlns:xlink="http://www.w3.org/1999/xlink" width="1200" zoomAndPan="magnify" viewBox="0 0 900 899.99999" height="1200" preserveAspectRatio="xMidYMid meet" version="1.0"><defs><clipPath id="f651621e4d"><path d="M 90 90 L 810 90 L 810 810 L 90 810 Z M 90 90 " clip-rule="nonzero"/></clipPath></defs><g clip-path="url(#f651621e4d)"><path fill="#ffffff" d="M 480.136719 298.3125 C 503.023438 298.3125 521.628906 316.917969 521.628906 339.804688 L 521.628906 361.914062 L 577.898438 361.914062 C 597.746094 361.914062 613.847656 378.03125 613.847656 397.832031 L 613.847656 565.785156 C 613.847656 585.585938 597.761719 601.703125 577.898438 601.703125 L 322.101562 601.703125 C 302.316406 601.703125 286.152344 585.585938 286.152344 565.785156 L 286.152344 397.847656 C 286.152344 378.046875 302.316406 361.929688 322.101562 361.929688 L 378.371094 361.929688 L 378.371094 339.820312 C 378.371094 316.933594 396.976562 298.328125 419.863281 298.328125 L 480.136719 298.328125 Z M 397.753906 361.929688 L 502.230469 361.929688 L 502.230469 339.820312 C 502.230469 327.625 492.332031 317.710938 480.136719 317.710938 L 419.847656 317.710938 C 407.71875 317.710938 397.753906 327.625 397.753906 339.820312 Z M 463.519531 500.359375 L 463.519531 463.308594 L 436.546875 463.308594 L 436.546875 500.359375 Z M 594.4375 441.988281 L 482.835938 490.039062 L 482.835938 510.046875 C 482.835938 515.394531 478.554688 519.738281 473.144531 519.738281 L 426.839844 519.738281 C 421.492188 519.738281 417.148438 515.394531 417.148438 510.046875 L 417.148438 490.039062 L 305.546875 441.988281 L 305.546875 565.800781 C 305.546875 574.925781 312.992188 582.339844 322.101562 582.339844 L 577.882812 582.339844 C 587.054688 582.339844 594.4375 574.925781 594.4375 565.800781 Z M 305.546875 420.894531 L 417.148438 468.929688 L 417.148438 453.617188 C 417.148438 448.253906 421.511719 443.925781 426.839844 443.925781 L 473.144531 443.925781 C 478.554688 443.925781 482.835938 448.273438 482.835938 453.617188 L 482.835938 468.929688 L 594.4375 420.894531 L 594.4375 397.847656 C 594.4375 388.722656 587.054688 381.3125 577.882812 381.3125 L 322.101562 381.3125 C 312.992188 381.3125 305.546875 388.722656 305.546875 397.847656 Z M 172.707031 480.394531 L 131.347656 425.984375 L 90 480.394531 L 109.65625 480.394531 C 114.597656 480.394531 118.765625 484.078125 119.28125 488.972656 C 137.09375 641.691406 259.179688 762 409.492188 780.507812 L 404.082031 776.421875 C 401.710938 774.582031 400.253906 771.738281 400.253906 768.703125 C 400.253906 765.683594 401.710938 762.824219 404.082031 760.984375 L 415.355469 752.4375 C 352.5625 745.25 293.207031 718.601562 245.984375 675.949219 C 192.6875 627.789062 158.058594 562.246094 148.433594 491.410156 C 148.046875 488.632812 148.902344 485.839844 150.742188 483.722656 C 152.585938 481.625 155.234375 480.410156 157.996094 480.410156 L 172.707031 480.410156 Z M 752.40625 484.691406 C 745.21875 547.46875 718.570312 606.824219 675.902344 654.015625 C 627.753906 707.328125 562.183594 741.988281 491.347656 751.613281 C 488.566406 751.988281 485.804688 751.148438 483.691406 749.304688 C 481.574219 747.464844 480.394531 744.800781 480.394531 742.003906 L 480.394531 727.324219 L 425.984375 768.671875 L 480.394531 810.015625 L 480.394531 790.328125 C 480.394531 785.402344 484.09375 781.269531 488.90625 780.703125 C 641.660156 762.921875 761.96875 640.820312 780.507812 490.539062 L 776.421875 495.917969 C 774.582031 498.324219 771.738281 499.746094 768.703125 499.746094 C 765.667969 499.746094 762.757812 498.324219 760.984375 495.917969 Z M 419.652344 172.707031 L 474.066406 131.363281 L 419.652344 90.015625 L 419.652344 109.703125 C 419.652344 114.628906 415.953125 118.765625 411.078125 119.328125 C 258.386719 137.113281 138.015625 259.210938 119.539062 409.476562 L 123.625 404.101562 C 125.46875 401.691406 128.308594 400.273438 131.347656 400.273438 C 134.382812 400.273438 137.207031 401.691406 139.066406 404.101562 L 147.640625 415.355469 C 154.828125 352.578125 181.476562 293.226562 224.082031 246.03125 C 272.292969 192.71875 337.800781 158.058594 408.636719 148.449219 C 411.398438 148.0625 414.242188 148.917969 416.359375 150.757812 C 418.472656 152.601562 419.652344 155.265625 419.652344 158.058594 Z M 484.675781 147.625 C 547.46875 154.8125 606.824219 181.460938 653.984375 224.117188 C 707.28125 272.277344 741.972656 337.816406 751.597656 408.652344 C 752.003906 411.433594 751.128906 414.226562 749.289062 416.34375 C 747.449219 418.441406 744.800781 419.652344 741.972656 419.652344 L 727.324219 419.652344 L 768.6875 474.046875 L 809.96875 419.652344 L 790.3125 419.652344 C 785.371094 419.652344 781.269531 415.96875 780.6875 411.09375 C 762.9375 258.371094 640.789062 138.066406 490.539062 119.554688 L 495.882812 123.640625 C 498.324219 125.484375 499.777344 128.324219 499.777344 131.363281 C 499.777344 134.382812 498.324219 137.242188 495.882812 139.082031 Z M 400.253906 169.347656 C 268.207031 192.460938 170.59375 303.722656 165.246094 438.582031 L 199.9375 484.222656 C 202.183594 487.148438 202.507812 491.105469 200.921875 494.398438 C 199.277344 497.691406 195.917969 499.777344 192.21875 499.777344 L 169.347656 499.777344 C 192.429688 631.839844 303.707031 729.472656 438.582031 734.785156 L 484.222656 700.09375 C 487.128906 697.867188 491.085938 697.492188 494.382812 699.125 C 497.675781 700.757812 499.792969 704.132812 499.792969 707.8125 L 499.792969 730.699219 C 631.839844 707.589844 729.457031 596.324219 734.800781 461.46875 L 700.109375 415.824219 C 697.867188 412.902344 697.476562 408.960938 699.125 405.667969 C 700.773438 402.371094 704.132812 400.273438 707.832031 400.273438 L 730.714844 400.273438 C 707.570312 268.207031 596.292969 170.574219 461.484375 165.261719 L 415.839844 199.953125 C 412.933594 202.183594 408.976562 202.554688 405.683594 200.921875 C 402.386719 199.292969 400.273438 195.933594 400.273438 192.25 L 400.273438 169.347656 Z M 400.253906 169.347656 " fill-opacity="1" fill-rule="evenodd"/></g></svg>