<svg xmlns="http://www.w3.org/2000/svg" xmlns:xlink="http://www.w3.org/1999/xlink" width="1200" zoomAndPan="magnify" viewBox="0 0 900 899.99999" height="1200" preserveAspectRatio="xMidYMid meet" version="1.0"><defs><clipPath id="6073a655d4"><path d="M 152.101562 121 L 747.601562 121 L 747.601562 809 L 152.101562 809 Z M 152.101562 121 " clip-rule="nonzero"/></clipPath></defs><g clip-path="url(#6073a655d4)"><path fill="#ffffff" d="M 549.429688 396.917969 L 636.171875 396.917969 C 636.558594 396.917969 636.941406 396.894531 637.324219 396.847656 C 637.710938 396.804688 638.089844 396.738281 638.464844 396.648438 C 638.839844 396.558594 639.207031 396.445312 639.570312 396.3125 C 639.933594 396.179688 640.285156 396.027344 640.632812 395.855469 C 640.976562 395.679688 641.308594 395.484375 641.628906 395.273438 C 641.953125 395.058594 642.261719 394.828125 642.554688 394.578125 C 642.847656 394.328125 643.128906 394.0625 643.390625 393.78125 C 643.65625 393.5 643.902344 393.203125 644.128906 392.894531 C 644.359375 392.582031 644.570312 392.257812 644.761719 391.921875 C 644.949219 391.589844 645.121094 391.242188 645.273438 390.886719 C 645.421875 390.53125 645.550781 390.167969 645.660156 389.796875 C 645.765625 389.425781 645.851562 389.050781 645.917969 388.671875 C 645.980469 388.289062 646.023438 387.90625 646.042969 387.523438 C 646.058594 387.136719 646.058594 386.75 646.03125 386.367188 C 646.003906 385.980469 645.957031 385.597656 645.886719 385.21875 C 645.8125 384.839844 645.722656 384.464844 645.605469 384.097656 C 644.722656 381.265625 643.65625 378.503906 642.410156 375.8125 C 641.160156 373.125 639.742188 370.527344 638.152344 368.023438 C 636.5625 365.519531 634.8125 363.132812 632.90625 360.859375 C 631 358.585938 628.953125 356.449219 626.765625 354.445312 C 624.578125 352.441406 622.265625 350.59375 619.835938 348.894531 C 617.402344 347.199219 614.871094 345.667969 612.234375 344.304688 C 609.601562 342.941406 606.890625 341.757812 604.097656 340.75 C 601.308594 339.746094 598.464844 338.929688 595.566406 338.296875 C 592.667969 337.667969 589.738281 337.230469 586.785156 336.988281 C 583.828125 336.746094 580.867188 336.695312 577.90625 336.84375 C 574.945312 336.992188 572.003906 337.332031 569.085938 337.867188 C 566.167969 338.402344 563.300781 339.125 560.476562 340.039062 C 557.65625 340.953125 554.90625 342.050781 552.230469 343.328125 C 549.550781 344.601562 546.96875 346.050781 544.484375 347.667969 C 541.996094 349.285156 539.628906 351.058594 537.375 352.988281 C 535.125 354.917969 533.007812 356.988281 531.03125 359.199219 C 535.371094 364.777344 539.09375 370.746094 542.191406 377.101562 C 545.292969 383.453125 547.703125 390.058594 549.429688 396.917969 Z M 363.449219 572.050781 C 389.773438 598.878906 420.265625 586.542969 449.265625 574.804688 C 472.480469 565.40625 494.917969 556.324219 516.671875 562.292969 C 521.011719 563.492188 525.132812 565.214844 529.039062 567.457031 L 626.292969 622.886719 C 630.160156 625.085938 633.570312 627.851562 636.519531 631.1875 L 645.152344 627.585938 L 596.726562 502.679688 C 577.335938 511.371094 560.0625 504.308594 540.609375 496.359375 C 520.132812 487.988281 496.585938 478.363281 466.085938 493.21875 C 452.1875 499.996094 439.3125 510.664062 428.527344 521.5625 C 417.941406 532.179688 406.632812 541.96875 394.609375 550.929688 C 384.679688 558.386719 374.292969 565.425781 363.449219 572.050781 Z M 236.765625 424.097656 L 158.523438 601.101562 C 158.300781 601.609375 158.101562 602.128906 157.929688 602.660156 C 157.757812 603.1875 157.609375 603.726562 157.488281 604.269531 C 157.371094 604.8125 157.277344 605.359375 157.210938 605.914062 C 157.144531 606.464844 157.101562 607.019531 157.089844 607.578125 C 157.078125 608.132812 157.09375 608.691406 157.136719 609.246094 C 157.175781 609.800781 157.246094 610.351562 157.34375 610.902344 C 157.4375 611.449219 157.5625 611.992188 157.710938 612.527344 C 157.859375 613.066406 158.035156 613.59375 158.234375 614.113281 C 158.4375 614.632812 158.664062 615.140625 158.914062 615.636719 C 159.164062 616.132812 159.4375 616.617188 159.738281 617.089844 C 160.035156 617.558594 160.355469 618.015625 160.699219 618.453125 C 161.039062 618.890625 161.402344 619.3125 161.789062 619.714844 C 162.171875 620.121094 162.574219 620.503906 162.996094 620.867188 C 163.417969 621.230469 163.855469 621.574219 164.308594 621.894531 C 164.765625 622.214844 165.234375 622.515625 165.71875 622.789062 C 166.203125 623.066406 166.699219 623.316406 167.207031 623.542969 L 201.292969 638.601562 C 201.800781 638.828125 202.320312 639.023438 202.851562 639.199219 C 203.378906 639.371094 203.917969 639.515625 204.460938 639.636719 C 205.003906 639.757812 205.554688 639.851562 206.105469 639.917969 C 206.660156 639.984375 207.214844 640.023438 207.769531 640.035156 C 208.328125 640.046875 208.882812 640.035156 209.4375 639.992188 C 209.992188 639.949219 210.546875 639.878906 211.09375 639.785156 C 211.640625 639.6875 212.183594 639.566406 212.722656 639.417969 C 213.257812 639.265625 213.785156 639.09375 214.304688 638.890625 C 214.824219 638.691406 215.332031 638.464844 215.828125 638.214844 C 216.328125 637.960938 216.8125 637.6875 217.28125 637.390625 C 217.75 637.09375 218.207031 636.773438 218.644531 636.429688 C 219.085938 636.085938 219.503906 635.722656 219.910156 635.339844 C 220.3125 634.957031 220.695312 634.554688 221.058594 634.132812 C 221.425781 633.710938 221.765625 633.273438 222.089844 632.816406 C 222.410156 632.363281 222.707031 631.894531 222.980469 631.410156 C 223.257812 630.925781 223.507812 630.429688 223.734375 629.917969 L 301.972656 452.910156 C 302.195312 452.398438 302.394531 451.878906 302.566406 451.351562 C 302.738281 450.820312 302.886719 450.285156 303.003906 449.742188 C 303.125 449.195312 303.21875 448.648438 303.285156 448.097656 C 303.351562 447.542969 303.390625 446.988281 303.40625 446.429688 C 303.417969 445.875 303.402344 445.320312 303.359375 444.761719 C 303.316406 444.207031 303.25 443.65625 303.152344 443.109375 C 303.054688 442.558594 302.933594 442.015625 302.785156 441.480469 C 302.636719 440.945312 302.460938 440.414062 302.257812 439.894531 C 302.058594 439.378906 301.832031 438.867188 301.582031 438.371094 C 301.332031 437.875 301.054688 437.390625 300.757812 436.921875 C 300.460938 436.449219 300.140625 435.996094 299.796875 435.554688 C 299.453125 435.117188 299.089844 434.695312 298.707031 434.292969 C 298.324219 433.890625 297.921875 433.503906 297.5 433.140625 C 297.078125 432.777344 296.640625 432.433594 296.183594 432.113281 C 295.730469 431.792969 295.261719 431.496094 294.777344 431.21875 C 294.292969 430.945312 293.796875 430.691406 293.289062 430.464844 L 259.210938 415.40625 C 258.703125 415.183594 258.183594 414.984375 257.652344 414.8125 C 257.125 414.636719 256.589844 414.492188 256.042969 414.371094 C 255.5 414.25 254.953125 414.15625 254.398438 414.089844 C 253.847656 414.023438 253.292969 413.984375 252.734375 413.972656 C 252.179688 413.960938 251.621094 413.976562 251.066406 414.015625 C 250.511719 414.058594 249.960938 414.128906 249.410156 414.222656 C 248.863281 414.320312 248.320312 414.441406 247.785156 414.59375 C 247.246094 414.742188 246.71875 414.917969 246.199219 415.117188 C 245.679688 415.316406 245.171875 415.542969 244.675781 415.792969 C 244.179688 416.046875 243.695312 416.320312 243.222656 416.617188 C 242.753906 416.914062 242.300781 417.234375 241.859375 417.578125 C 241.421875 417.921875 241 418.285156 240.597656 418.667969 C 240.191406 419.050781 239.808594 419.453125 239.445312 419.875 C 239.082031 420.296875 238.738281 420.734375 238.417969 421.191406 C 238.097656 421.644531 237.796875 422.113281 237.523438 422.597656 C 237.246094 423.082031 236.996094 423.578125 236.769531 424.089844 Z M 671.808594 436.660156 L 741.761719 617.105469 C 741.960938 617.625 742.136719 618.152344 742.285156 618.691406 C 742.433594 619.226562 742.554688 619.769531 742.648438 620.316406 C 742.746094 620.867188 742.8125 621.417969 742.851562 621.972656 C 742.894531 622.53125 742.90625 623.085938 742.894531 623.640625 C 742.882812 624.199219 742.839844 624.753906 742.773438 625.308594 C 742.707031 625.859375 742.609375 626.40625 742.488281 626.953125 C 742.367188 627.496094 742.21875 628.03125 742.046875 628.558594 C 741.871094 629.089844 741.671875 629.609375 741.449219 630.117188 C 741.222656 630.628906 740.972656 631.125 740.699219 631.609375 C 740.425781 632.09375 740.128906 632.566406 739.8125 633.023438 C 739.492188 633.476562 739.148438 633.917969 738.789062 634.339844 C 738.425781 634.761719 738.042969 635.167969 737.640625 635.550781 C 737.238281 635.9375 736.820312 636.300781 736.378906 636.648438 C 735.941406 636.992188 735.488281 637.3125 735.019531 637.613281 C 734.550781 637.914062 734.066406 638.1875 733.570312 638.441406 C 733.074219 638.691406 732.566406 638.921875 732.046875 639.125 L 697.3125 652.589844 C 696.792969 652.789062 696.265625 652.964844 695.726562 653.113281 C 695.191406 653.261719 694.648438 653.382812 694.101562 653.476562 C 693.550781 653.570312 693 653.640625 692.445312 653.679688 C 691.886719 653.722656 691.332031 653.738281 690.773438 653.722656 C 690.21875 653.710938 689.664062 653.667969 689.109375 653.601562 C 688.558594 653.535156 688.011719 653.4375 687.464844 653.316406 C 686.921875 653.195312 686.386719 653.046875 685.859375 652.875 C 685.328125 652.699219 684.808594 652.5 684.300781 652.277344 C 683.789062 652.050781 683.292969 651.804688 682.808594 651.53125 C 682.320312 651.253906 681.851562 650.960938 681.394531 650.640625 C 680.9375 650.320312 680.5 649.980469 680.078125 649.617188 C 679.65625 649.253906 679.25 648.871094 678.863281 648.46875 C 678.480469 648.066406 678.113281 647.648438 677.769531 647.210938 C 677.425781 646.773438 677.105469 646.316406 676.804688 645.847656 C 676.503906 645.378906 676.230469 644.894531 675.976562 644.398438 C 675.722656 643.902344 675.496094 643.394531 675.292969 642.878906 L 605.339844 462.433594 C 605.140625 461.914062 604.964844 461.386719 604.820312 460.847656 C 604.671875 460.3125 604.546875 459.769531 604.453125 459.21875 C 604.359375 458.671875 604.289062 458.121094 604.25 457.5625 C 604.207031 457.007812 604.195312 456.453125 604.207031 455.894531 C 604.222656 455.339844 604.261719 454.785156 604.328125 454.230469 C 604.398438 453.679688 604.492188 453.128906 604.613281 452.585938 C 604.734375 452.042969 604.882812 451.507812 605.058594 450.976562 C 605.230469 450.449219 605.429688 449.929688 605.65625 449.421875 C 605.878906 448.910156 606.128906 448.414062 606.402344 447.929688 C 606.675781 447.441406 606.972656 446.972656 607.292969 446.515625 C 607.613281 446.058594 607.953125 445.621094 608.316406 445.199219 C 608.679688 444.773438 609.058594 444.371094 609.460938 443.984375 C 609.863281 443.601562 610.285156 443.234375 610.722656 442.890625 C 611.160156 442.546875 611.613281 442.226562 612.082031 441.925781 C 612.550781 441.625 613.035156 441.351562 613.53125 441.097656 C 614.027344 440.84375 614.535156 440.617188 615.054688 440.414062 L 649.792969 426.949219 C 650.3125 426.746094 650.839844 426.574219 651.375 426.425781 C 651.914062 426.277344 652.457031 426.15625 653.003906 426.058594 C 653.554688 425.964844 654.105469 425.898438 654.660156 425.855469 C 655.214844 425.816406 655.773438 425.800781 656.328125 425.816406 C 656.886719 425.828125 657.441406 425.867188 657.992188 425.9375 C 658.546875 426.003906 659.09375 426.097656 659.636719 426.21875 C 660.179688 426.339844 660.71875 426.488281 661.246094 426.664062 C 661.777344 426.835938 662.296875 427.035156 662.804688 427.261719 C 663.316406 427.484375 663.8125 427.734375 664.296875 428.007812 C 664.78125 428.28125 665.253906 428.578125 665.707031 428.898438 C 666.164062 429.21875 666.605469 429.558594 667.027344 429.921875 C 667.449219 430.285156 667.855469 430.667969 668.238281 431.070312 C 668.625 431.472656 668.988281 431.890625 669.332031 432.328125 C 669.675781 432.765625 670 433.21875 670.300781 433.691406 C 670.597656 434.160156 670.875 434.640625 671.128906 435.136719 C 671.378906 435.636719 671.609375 436.144531 671.808594 436.660156 Z M 645.132812 454.871094 C 644.371094 454.871094 643.621094 454.945312 642.875 455.09375 C 642.128906 455.242188 641.40625 455.460938 640.703125 455.75 C 640 456.042969 639.332031 456.398438 638.703125 456.820312 C 638.070312 457.242188 637.484375 457.722656 636.949219 458.257812 C 636.410156 458.796875 635.929688 459.382812 635.507812 460.011719 C 635.085938 460.644531 634.730469 461.3125 634.4375 462.015625 C 634.148438 462.714844 633.929688 463.441406 633.78125 464.1875 C 633.632812 464.929688 633.558594 465.683594 633.558594 466.445312 C 633.558594 467.203125 633.632812 467.957031 633.78125 468.703125 C 633.929688 469.445312 634.148438 470.171875 634.4375 470.875 C 634.730469 471.574219 635.085938 472.242188 635.507812 472.875 C 635.929688 473.507812 636.410156 474.089844 636.949219 474.628906 C 637.484375 475.164062 638.070312 475.644531 638.703125 476.066406 C 639.332031 476.488281 640 476.847656 640.703125 477.136719 C 641.40625 477.429688 642.128906 477.648438 642.875 477.796875 C 643.621094 477.945312 644.371094 478.019531 645.132812 478.019531 C 645.890625 478.019531 646.644531 477.945312 647.390625 477.796875 C 648.136719 477.648438 648.859375 477.429688 649.5625 477.136719 C 650.261719 476.847656 650.929688 476.488281 651.5625 476.066406 C 652.195312 475.644531 652.777344 475.164062 653.316406 474.628906 C 653.851562 474.089844 654.332031 473.507812 654.753906 472.875 C 655.175781 472.242188 655.535156 471.574219 655.824219 470.875 C 656.117188 470.171875 656.335938 469.445312 656.484375 468.703125 C 656.632812 467.957031 656.707031 467.203125 656.707031 466.445312 C 656.707031 465.683594 656.632812 464.929688 656.484375 464.1875 C 656.335938 463.441406 656.117188 462.714844 655.824219 462.015625 C 655.535156 461.3125 655.175781 460.644531 654.753906 460.011719 C 654.332031 459.382812 653.851562 458.796875 653.316406 458.257812 C 652.777344 457.722656 652.195312 457.242188 651.5625 456.820312 C 650.929688 456.398438 650.261719 456.042969 649.5625 455.75 C 648.859375 455.460938 648.136719 455.242188 647.390625 455.09375 C 646.644531 454.945312 645.890625 454.871094 645.132812 454.871094 Z M 262.570312 443.519531 C 263.328125 443.554688 264.078125 443.664062 264.816406 443.847656 C 265.554688 444.03125 266.265625 444.285156 266.953125 444.605469 C 267.640625 444.929688 268.292969 445.316406 268.902344 445.769531 C 269.515625 446.21875 270.078125 446.726562 270.589844 447.289062 C 271.101562 447.847656 271.550781 448.457031 271.945312 449.105469 C 272.335938 449.757812 272.664062 450.441406 272.921875 451.15625 C 273.179688 451.871094 273.363281 452.601562 273.476562 453.355469 C 273.589844 454.105469 273.628906 454.859375 273.59375 455.621094 C 273.558594 456.378906 273.449219 457.128906 273.269531 457.863281 C 273.085938 458.601562 272.832031 459.316406 272.507812 460.003906 C 272.1875 460.691406 271.800781 461.339844 271.347656 461.953125 C 270.898438 462.5625 270.390625 463.125 269.828125 463.636719 C 269.269531 464.148438 268.660156 464.601562 268.011719 464.992188 C 267.359375 465.386719 266.675781 465.710938 265.960938 465.96875 C 265.246094 466.226562 264.515625 466.414062 263.761719 466.527344 C 263.011719 466.640625 262.257812 466.679688 261.496094 466.644531 C 260.738281 466.609375 259.988281 466.5 259.253906 466.316406 C 258.515625 466.136719 257.800781 465.882812 257.113281 465.558594 C 256.425781 465.238281 255.777344 464.851562 255.164062 464.398438 C 254.554688 463.949219 253.992188 463.441406 253.480469 462.878906 C 252.96875 462.316406 252.515625 461.710938 252.121094 461.0625 C 251.730469 460.410156 251.40625 459.726562 251.148438 459.011719 C 250.886719 458.296875 250.703125 457.566406 250.589844 456.8125 C 250.476562 456.0625 250.4375 455.308594 250.472656 454.546875 C 250.507812 453.789062 250.617188 453.039062 250.796875 452.300781 C 250.980469 451.5625 251.234375 450.851562 251.554688 450.164062 C 251.878906 449.476562 252.265625 448.824219 252.71875 448.214844 C 253.167969 447.601562 253.675781 447.039062 254.238281 446.527344 C 254.796875 446.015625 255.40625 445.5625 256.054688 445.171875 C 256.707031 444.777344 257.390625 444.453125 258.105469 444.195312 C 258.820312 443.9375 259.554688 443.753906 260.304688 443.636719 C 261.054688 443.523438 261.8125 443.484375 262.570312 443.519531 Z M 486.535156 763.777344 C 485.902344 768.609375 484.433594 773.171875 482.132812 777.46875 L 472.785156 794.945312 C 476.007812 796.78125 479.421875 798.789062 482.570312 800.527344 C 483.523438 801.023438 484.515625 801.421875 485.546875 801.726562 C 486.578125 802.03125 487.625 802.234375 488.695312 802.335938 C 489.765625 802.4375 490.832031 802.4375 491.902344 802.335938 C 492.972656 802.234375 494.019531 802.03125 495.050781 801.726562 C 496.082031 801.421875 497.074219 801.023438 498.027344 800.53125 C 498.980469 800.035156 499.878906 799.457031 500.722656 798.789062 C 501.5625 798.125 502.335938 797.382812 503.035156 796.570312 C 503.734375 795.753906 504.351562 794.882812 504.886719 793.949219 C 505.160156 793.460938 505.414062 792.960938 505.640625 792.449219 C 505.867188 791.933594 506.070312 791.410156 506.246094 790.878906 C 506.421875 790.347656 506.570312 789.804688 506.691406 789.257812 C 506.8125 788.710938 506.910156 788.160156 506.976562 787.601562 C 507.042969 787.046875 507.082031 786.488281 507.097656 785.925781 C 507.109375 785.363281 507.09375 784.804688 507.050781 784.246094 C 507.007812 783.6875 506.9375 783.128906 506.839844 782.578125 C 506.742188 782.027344 506.617188 781.480469 506.464844 780.941406 C 506.3125 780.398438 506.136719 779.867188 505.929688 779.347656 C 505.726562 778.824219 505.496094 778.3125 505.242188 777.8125 C 504.988281 777.3125 504.707031 776.828125 504.40625 776.355469 C 504.101562 775.882812 503.777344 775.425781 503.429688 774.988281 C 503.082031 774.546875 502.714844 774.125 502.324219 773.722656 C 501.933594 773.316406 501.527344 772.933594 501.097656 772.570312 C 500.671875 772.207031 500.226562 771.867188 499.765625 771.546875 C 499.304688 771.226562 498.828125 770.929688 498.339844 770.660156 L 486.535156 763.765625 Z M 360.058594 765.914062 C 359.910156 766.886719 359.84375 767.867188 359.855469 768.851562 C 359.871094 769.835938 359.96875 770.816406 360.144531 771.785156 C 360.324219 772.753906 360.582031 773.703125 360.917969 774.628906 C 361.253906 775.554688 361.664062 776.445312 362.152344 777.304688 C 362.636719 778.160156 363.191406 778.972656 363.8125 779.738281 C 364.433594 780.5 365.117188 781.207031 365.855469 781.859375 C 366.597656 782.511719 367.386719 783.09375 368.226562 783.613281 C 369.0625 784.132812 369.9375 784.578125 370.851562 784.949219 C 371.765625 785.320312 372.703125 785.613281 373.664062 785.828125 C 374.625 786.042969 375.597656 786.175781 376.582031 786.230469 C 377.566406 786.28125 378.546875 786.25 379.527344 786.140625 C 380.507812 786.027344 381.46875 785.835938 382.417969 785.558594 C 383.363281 785.285156 384.28125 784.9375 385.167969 784.507812 C 386.058594 784.082031 386.902344 783.585938 387.710938 783.015625 C 388.515625 782.445312 389.265625 781.8125 389.964844 781.121094 C 390.664062 780.425781 391.300781 779.675781 391.875 778.875 L 414.183594 736.402344 C 414.429688 735.449219 414.59375 734.484375 414.675781 733.507812 C 414.761719 732.527344 414.765625 731.550781 414.683594 730.570312 C 414.605469 729.589844 414.445312 728.625 414.207031 727.671875 C 413.964844 726.71875 413.648438 725.792969 413.253906 724.894531 C 412.859375 723.996094 412.390625 723.136719 411.855469 722.3125 C 411.316406 721.492188 410.714844 720.71875 410.046875 720 C 409.378906 719.277344 408.65625 718.617188 407.878906 718.015625 C 407.101562 717.414062 406.28125 716.882812 405.414062 716.421875 C 404.546875 715.957031 403.648438 715.566406 402.71875 715.253906 C 401.789062 714.941406 400.835938 714.707031 399.867188 714.550781 C 398.898438 714.398438 397.921875 714.324219 396.9375 714.332031 C 395.957031 714.339844 394.980469 714.429688 394.015625 714.601562 C 393.046875 714.769531 392.101562 715.019531 391.175781 715.347656 C 390.25 715.675781 389.355469 716.082031 388.496094 716.558594 C 387.640625 717.035156 386.828125 717.582031 386.058594 718.195312 C 385.292969 718.804688 384.578125 719.480469 383.925781 720.210938 L 360.058594 765.910156 Z M 364.042969 712.03125 L 338.9375 758.917969 C 338.671875 759.441406 338.382812 759.949219 338.070312 760.441406 C 337.753906 760.9375 337.414062 761.414062 337.050781 761.871094 C 336.691406 762.332031 336.304688 762.773438 335.898438 763.195312 C 335.492188 763.617188 335.066406 764.015625 334.621094 764.394531 C 334.175781 764.773438 333.710938 765.128906 333.230469 765.464844 C 332.75 765.796875 332.253906 766.105469 331.742188 766.390625 C 331.226562 766.671875 330.703125 766.929688 330.164062 767.160156 C 329.628906 767.394531 329.082031 767.597656 328.523438 767.773438 C 327.964844 767.953125 327.398438 768.101562 326.828125 768.222656 C 326.253906 768.34375 325.675781 768.433594 325.09375 768.5 C 324.511719 768.5625 323.929688 768.597656 323.34375 768.601562 C 322.757812 768.605469 322.175781 768.582031 321.589844 768.53125 C 321.007812 768.480469 320.429688 768.398438 319.855469 768.289062 C 319.28125 768.175781 318.710938 768.039062 318.148438 767.871094 C 317.589844 767.707031 317.039062 767.511719 316.496094 767.289062 C 315.953125 767.070312 315.425781 766.820312 314.90625 766.546875 C 314.390625 766.273438 313.886719 765.972656 313.398438 765.648438 C 312.914062 765.328125 312.441406 764.980469 311.988281 764.609375 C 311.535156 764.238281 311.101562 763.84375 310.6875 763.429688 C 310.273438 763.019531 309.882812 762.585938 309.511719 762.132812 C 309.140625 761.679688 308.792969 761.207031 308.46875 760.722656 C 308.144531 760.234375 307.84375 759.730469 307.570312 759.214844 C 307.296875 758.699219 307.046875 758.167969 306.824219 757.625 C 306.605469 757.085938 306.410156 756.535156 306.242188 755.972656 C 306.078125 755.410156 305.9375 754.84375 305.828125 754.269531 C 305.714844 753.695312 305.636719 753.113281 305.582031 752.53125 C 305.527344 751.949219 305.503906 751.363281 305.511719 750.777344 C 305.515625 750.195312 305.550781 749.609375 305.613281 749.027344 C 305.675781 748.445312 305.769531 747.867188 305.886719 747.296875 C 306.007812 746.722656 306.15625 746.15625 306.335938 745.601562 C 306.511719 745.042969 306.714844 744.492188 306.945312 743.957031 C 307.179688 743.417969 307.433594 742.894531 307.71875 742.382812 L 333.332031 694.5 C 339.878906 688.496094 347.171875 685.28125 355.832031 689.902344 C 364.5625 694.558594 366.304688 703.148438 364.050781 712.03125 Z M 317.597656 679.492188 C 317.835938 678.976562 318.042969 678.453125 318.230469 677.914062 C 318.414062 677.378906 318.574219 676.835938 318.707031 676.285156 C 318.839844 675.734375 318.945312 675.175781 319.023438 674.613281 C 319.101562 674.054688 319.152344 673.488281 319.179688 672.921875 C 319.203125 672.355469 319.199219 671.789062 319.171875 671.222656 C 319.140625 670.65625 319.085938 670.09375 319 669.53125 C 318.914062 668.972656 318.804688 668.417969 318.667969 667.867188 C 318.53125 667.316406 318.367188 666.773438 318.175781 666.238281 C 317.984375 665.703125 317.769531 665.179688 317.53125 664.667969 C 317.289062 664.152344 317.027344 663.652344 316.738281 663.164062 C 316.449219 662.675781 316.136719 662.203125 315.804688 661.746094 C 315.46875 661.285156 315.113281 660.84375 314.738281 660.421875 C 314.359375 659.996094 313.964844 659.59375 313.550781 659.207031 C 313.132812 658.820312 312.699219 658.457031 312.25 658.113281 C 311.796875 657.765625 311.332031 657.445312 310.851562 657.144531 C 310.367188 656.847656 309.875 656.570312 309.367188 656.320312 C 308.855469 656.070312 308.339844 655.84375 307.808594 655.640625 C 307.277344 655.4375 306.738281 655.261719 306.191406 655.113281 C 305.644531 654.964844 305.09375 654.839844 304.535156 654.746094 C 303.976562 654.648438 303.414062 654.578125 302.847656 654.535156 C 302.28125 654.492188 301.714844 654.480469 301.148438 654.492188 C 300.582031 654.503906 300.015625 654.542969 299.453125 654.609375 C 298.890625 654.675781 298.332031 654.769531 297.777344 654.890625 C 297.222656 655.011719 296.675781 655.15625 296.136719 655.328125 C 295.59375 655.503906 295.066406 655.703125 294.542969 655.925781 C 294.023438 656.148438 293.515625 656.398438 293.015625 656.671875 C 292.519531 656.945312 292.039062 657.242188 291.570312 657.5625 C 291.101562 657.878906 290.648438 658.222656 290.214844 658.585938 C 289.777344 658.949219 289.359375 659.332031 288.960938 659.734375 C 288.5625 660.136719 288.183594 660.558594 287.828125 661 C 287.46875 661.441406 287.132812 661.894531 286.820312 662.367188 C 286.503906 662.839844 286.214844 663.324219 285.945312 663.828125 L 268.089844 697.210938 C 267.601562 698.125 267.195312 699.070312 266.875 700.054688 C 266.550781 701.035156 266.316406 702.039062 266.171875 703.066406 C 266.027344 704.089844 265.96875 705.117188 266.003906 706.152344 C 266.039062 707.183594 266.164062 708.207031 266.378906 709.21875 C 266.59375 710.230469 266.894531 711.21875 267.28125 712.175781 C 267.667969 713.136719 268.136719 714.054688 268.6875 714.929688 C 269.234375 715.808594 269.855469 716.628906 270.550781 717.398438 C 271.242188 718.164062 271.996094 718.867188 272.8125 719.5 C 273.628906 720.136719 274.496094 720.695312 275.410156 721.179688 C 276.324219 721.660156 277.273438 722.0625 278.261719 722.378906 C 279.246094 722.695312 280.25 722.921875 281.273438 723.0625 C 282.300781 723.199219 283.328125 723.25 284.363281 723.207031 C 285.398438 723.167969 286.417969 723.035156 287.429688 722.816406 C 288.441406 722.59375 289.421875 722.285156 290.378906 721.894531 C 291.335938 721.5 292.25 721.023438 293.125 720.472656 C 294 719.917969 294.816406 719.289062 295.578125 718.59375 Z M 412.167969 787.414062 L 433.515625 746.734375 C 434.230469 745.9375 435.011719 745.210938 435.859375 744.554688 C 436.707031 743.902344 437.605469 743.328125 438.554688 742.835938 C 439.507812 742.34375 440.496094 741.941406 441.519531 741.628906 C 442.542969 741.316406 443.589844 741.097656 444.652344 740.976562 C 445.714844 740.855469 446.78125 740.828125 447.851562 740.902344 C 448.917969 740.972656 449.972656 741.140625 451.011719 741.402344 C 452.050781 741.664062 453.054688 742.019531 454.027344 742.464844 C 455.003906 742.910156 455.925781 743.441406 456.804688 744.054688 C 457.683594 744.671875 458.496094 745.359375 459.25 746.121094 C 460 746.882812 460.679688 747.707031 461.28125 748.59375 C 461.882812 749.480469 462.398438 750.414062 462.832031 751.390625 C 463.265625 752.371094 463.605469 753.382812 463.855469 754.425781 C 464.101562 755.464844 464.253906 756.519531 464.3125 757.589844 C 464.367188 758.660156 464.328125 759.726562 464.191406 760.789062 C 464.054688 761.851562 463.824219 762.890625 463.496094 763.910156 C 463.171875 764.929688 462.753906 765.914062 462.25 766.859375 L 445.128906 798.871094 C 444.636719 799.792969 444.070312 800.660156 443.421875 801.480469 C 442.777344 802.300781 442.0625 803.058594 441.28125 803.75 C 440.503906 804.441406 439.667969 805.0625 438.777344 805.605469 C 437.886719 806.152344 436.957031 806.613281 435.984375 806.996094 C 435.011719 807.375 434.015625 807.667969 432.992188 807.871094 C 431.96875 808.074219 430.933594 808.183594 429.890625 808.203125 C 428.847656 808.222656 427.808594 808.152344 426.777344 807.988281 C 425.75 807.824219 424.738281 807.570312 423.753906 807.226562 C 422.769531 806.886719 421.820312 806.457031 420.910156 805.949219 C 420 805.4375 419.140625 804.851562 418.335938 804.1875 C 417.53125 803.527344 416.789062 802.796875 416.109375 802.003906 C 415.433594 801.207031 414.832031 800.359375 414.304688 799.460938 C 413.777344 798.558594 413.335938 797.621094 412.976562 796.640625 C 412.613281 795.660156 412.34375 794.65625 412.160156 793.628906 C 411.980469 792.601562 411.886719 791.566406 411.890625 790.523438 C 411.890625 789.480469 411.984375 788.441406 412.167969 787.417969 Z M 255.363281 614.207031 L 309.96875 490.660156 L 311.574219 491.398438 C 331.570312 502.488281 349.933594 498.1875 369.882812 493.519531 C 386.765625 489.566406 405.074219 485.273438 425.617188 493.519531 C 410.179688 506.695312 397.953125 520.296875 381.113281 532.945312 C 369.171875 541.835938 356.761719 550.007812 343.875 557.464844 C 343.429688 557.730469 342.996094 558.015625 342.578125 558.324219 C 342.160156 558.632812 341.761719 558.964844 341.378906 559.316406 C 340.996094 559.667969 340.636719 560.039062 340.292969 560.429688 C 339.949219 560.820312 339.628906 561.230469 339.328125 561.652344 C 339.027344 562.078125 338.753906 562.515625 338.5 562.972656 C 338.246094 563.425781 338.019531 563.890625 337.816406 564.367188 C 337.609375 564.847656 337.433594 565.335938 337.28125 565.832031 C 337.128906 566.328125 337.003906 566.832031 336.90625 567.339844 C 336.808594 567.851562 336.734375 568.367188 336.691406 568.882812 C 336.648438 569.402344 336.632812 569.917969 336.640625 570.4375 C 336.652344 570.957031 336.691406 571.476562 336.757812 571.992188 C 336.824219 572.507812 336.917969 573.015625 337.035156 573.523438 C 337.15625 574.027344 337.300781 574.527344 337.476562 575.015625 C 337.648438 575.503906 337.847656 575.984375 338.070312 576.453125 C 338.292969 576.921875 338.542969 577.378906 338.8125 577.820312 C 339.085938 578.265625 339.378906 578.691406 339.695312 579.101562 C 377.769531 628.09375 418.832031 611.472656 457.734375 595.722656 C 480.226562 586.617188 501.824219 577.875 517.921875 587.050781 L 615.175781 642.484375 C 615.660156 642.753906 616.128906 643.050781 616.585938 643.367188 C 617.039062 643.683594 617.480469 644.023438 617.902344 644.382812 C 618.324219 644.742188 618.726562 645.121094 619.113281 645.519531 C 619.5 645.921875 619.867188 646.335938 620.210938 646.773438 C 620.554688 647.207031 620.878906 647.65625 621.179688 648.125 C 621.480469 648.589844 621.761719 649.070312 622.015625 649.5625 C 622.269531 650.054688 622.5 650.558594 622.707031 651.074219 C 622.910156 651.589844 623.09375 652.117188 623.246094 652.648438 C 623.402344 653.183594 623.53125 653.722656 623.632812 654.265625 C 623.734375 654.8125 623.8125 655.363281 623.859375 655.914062 C 623.910156 656.46875 623.933594 657.023438 623.925781 657.578125 C 623.921875 658.132812 623.890625 658.6875 623.832031 659.238281 C 623.773438 659.789062 623.6875 660.339844 623.578125 660.882812 C 623.464844 661.425781 623.328125 661.964844 623.164062 662.492188 C 623 663.023438 622.808594 663.546875 622.59375 664.058594 C 622.378906 664.570312 622.140625 665.070312 621.878906 665.558594 C 621.347656 666.507812 620.730469 667.394531 620.027344 668.222656 C 619.324219 669.054688 618.546875 669.808594 617.699219 670.484375 C 616.847656 671.164062 615.941406 671.753906 614.980469 672.257812 C 614.015625 672.761719 613.011719 673.167969 611.96875 673.480469 C 610.929688 673.789062 609.867188 673.996094 608.785156 674.097656 C 607.703125 674.203125 606.621094 674.203125 605.539062 674.097656 C 604.457031 673.992188 603.394531 673.785156 602.351562 673.472656 C 601.3125 673.164062 600.308594 672.753906 599.347656 672.25 C 577.246094 659.378906 554.53125 647.125 532.292969 634.402344 C 531.648438 634.035156 530.976562 633.730469 530.273438 633.496094 C 529.570312 633.261719 528.851562 633.097656 528.117188 633.003906 C 527.382812 632.910156 526.648438 632.886719 525.90625 632.9375 C 525.167969 632.992188 524.441406 633.113281 523.726562 633.308594 C 523.011719 633.503906 522.324219 633.765625 521.660156 634.09375 C 520.996094 634.425781 520.371094 634.816406 519.789062 635.269531 C 519.203125 635.722656 518.664062 636.230469 518.179688 636.789062 C 517.691406 637.347656 517.265625 637.949219 516.898438 638.589844 C 516.53125 639.234375 516.230469 639.90625 515.992188 640.609375 C 515.757812 641.3125 515.59375 642.03125 515.5 642.765625 C 515.40625 643.5 515.386719 644.238281 515.4375 644.976562 C 515.488281 645.714844 515.609375 646.441406 515.804688 647.15625 C 516 647.871094 516.261719 648.558594 516.59375 649.222656 C 516.921875 649.886719 517.316406 650.511719 517.769531 651.097656 C 518.222656 651.683594 518.726562 652.21875 519.285156 652.703125 C 519.84375 653.191406 520.445312 653.617188 521.089844 653.984375 C 543.351562 666.730469 565.734375 679.269531 588.113281 691.804688 C 588.59375 692.070312 589.058594 692.359375 589.507812 692.667969 C 589.960938 692.980469 590.394531 693.308594 590.8125 693.664062 C 591.230469 694.015625 591.632812 694.386719 592.015625 694.78125 C 592.398438 695.171875 592.757812 695.582031 593.101562 696.007812 C 593.445312 696.4375 593.765625 696.878906 594.0625 697.335938 C 594.363281 697.796875 594.636719 698.265625 594.890625 698.753906 C 595.144531 699.238281 595.375 699.734375 595.578125 700.242188 C 595.785156 700.75 595.960938 701.265625 596.117188 701.789062 C 596.273438 702.316406 596.398438 702.847656 596.503906 703.386719 C 596.605469 703.921875 596.679688 704.464844 596.730469 705.007812 C 596.78125 705.554688 596.804688 706.101562 596.800781 706.648438 C 596.796875 707.195312 596.769531 707.742188 596.710938 708.285156 C 596.65625 708.832031 596.570312 709.371094 596.460938 709.90625 C 596.351562 710.441406 596.21875 710.972656 596.058594 711.496094 C 595.894531 712.019531 595.710938 712.535156 595.5 713.039062 C 595.289062 713.542969 595.054688 714.039062 594.792969 714.519531 C 594.535156 715 594.253906 715.46875 593.949219 715.925781 C 593.644531 716.378906 593.316406 716.816406 592.96875 717.242188 C 592.621094 717.664062 592.253906 718.070312 591.867188 718.457031 C 591.480469 718.84375 591.074219 719.210938 590.652344 719.558594 C 590.230469 719.90625 589.792969 720.230469 589.335938 720.535156 C 588.882812 720.839844 588.414062 721.125 587.933594 721.382812 C 587.449219 721.640625 586.957031 721.878906 586.453125 722.089844 C 585.945312 722.300781 585.433594 722.484375 584.910156 722.644531 C 584.386719 722.808594 583.855469 722.941406 583.320312 723.050781 C 582.785156 723.160156 582.242188 723.246094 581.699219 723.300781 C 581.152344 723.359375 580.609375 723.386719 580.0625 723.390625 C 579.511719 723.394531 578.96875 723.371094 578.421875 723.320312 C 577.878906 723.273438 577.335938 723.195312 576.796875 723.09375 C 576.261719 722.992188 575.730469 722.863281 575.203125 722.707031 C 574.679688 722.554688 574.164062 722.375 573.65625 722.167969 C 573.148438 721.964844 572.648438 721.734375 572.164062 721.484375 C 543.25 704.523438 513.214844 688.3125 483.945312 671.84375 C 483.300781 671.488281 482.628906 671.203125 481.925781 670.980469 C 481.226562 670.761719 480.507812 670.609375 479.777344 670.527344 C 479.046875 670.449219 478.316406 670.4375 477.582031 670.5 C 476.851562 670.5625 476.128906 670.695312 475.421875 670.898438 C 474.71875 671.101562 474.035156 671.371094 473.382812 671.707031 C 472.726562 672.042969 472.113281 672.441406 471.535156 672.898438 C 470.960938 673.351562 470.433594 673.863281 469.957031 674.421875 C 469.480469 674.980469 469.0625 675.582031 468.703125 676.222656 C 468.34375 676.863281 468.046875 677.535156 467.820312 678.234375 C 467.589844 678.933594 467.433594 679.648438 467.34375 680.378906 C 467.253906 681.105469 467.238281 681.839844 467.292969 682.574219 C 467.347656 683.304688 467.472656 684.027344 467.667969 684.734375 C 467.863281 685.445312 468.125 686.128906 468.453125 686.785156 C 468.785156 687.441406 469.175781 688.0625 469.625 688.644531 C 470.074219 689.226562 470.578125 689.757812 471.132812 690.238281 C 471.6875 690.722656 472.28125 691.148438 472.921875 691.515625 C 496.886719 705 520.800781 718.71875 544.765625 732.148438 C 545.25 732.414062 545.722656 732.699219 546.179688 733.007812 C 546.636719 733.316406 547.074219 733.648438 547.5 734 C 547.925781 734.351562 548.332031 734.726562 548.71875 735.117188 C 549.105469 735.507812 549.472656 735.921875 549.820312 736.347656 C 550.167969 736.777344 550.496094 737.222656 550.800781 737.683594 C 551.101562 738.144531 551.382812 738.617188 551.640625 739.105469 C 551.898438 739.59375 552.132812 740.09375 552.339844 740.605469 C 552.546875 741.113281 552.730469 741.632812 552.886719 742.164062 C 553.042969 742.691406 553.175781 743.226562 553.28125 743.769531 C 553.382812 744.3125 553.460938 744.855469 553.511719 745.40625 C 553.5625 745.957031 553.585938 746.507812 553.585938 747.058594 C 553.582031 747.609375 553.550781 748.160156 553.492188 748.707031 C 553.4375 749.257812 553.351562 749.800781 553.242188 750.34375 C 553.132812 750.882812 552.992188 751.417969 552.832031 751.945312 C 552.667969 752.472656 552.480469 752.988281 552.265625 753.496094 C 552.050781 754.007812 551.8125 754.503906 551.550781 754.988281 C 551.285156 755.472656 551 755.945312 550.691406 756.402344 C 550.382812 756.859375 550.050781 757.300781 549.699219 757.722656 C 549.347656 758.148438 548.972656 758.554688 548.582031 758.941406 C 548.1875 759.328125 547.777344 759.699219 547.351562 760.046875 C 546.921875 760.390625 546.476562 760.71875 546.015625 761.023438 C 545.554688 761.324219 545.082031 761.605469 544.59375 761.863281 C 544.105469 762.121094 543.605469 762.355469 543.09375 762.5625 C 542.585938 762.769531 542.0625 762.953125 541.535156 763.109375 C 541.007812 763.265625 540.472656 763.398438 539.929688 763.503906 C 539.386719 763.605469 538.84375 763.683594 538.292969 763.734375 C 537.742188 763.785156 537.191406 763.808594 536.640625 763.808594 C 536.089844 763.804688 535.539062 763.773438 534.988281 763.714844 C 534.441406 763.660156 533.898438 763.574219 533.355469 763.464844 C 532.816406 763.355469 532.28125 763.21875 531.753906 763.054688 C 531.226562 762.890625 530.710938 762.703125 530.203125 762.488281 C 529.691406 762.273438 529.195312 762.035156 528.710938 761.773438 L 477.632812 732.875 C 476.386719 731.375 475.039062 729.96875 473.589844 728.664062 C 472.140625 727.359375 470.601562 726.167969 468.976562 725.085938 C 467.355469 724.003906 465.660156 723.046875 463.898438 722.210938 C 462.132812 721.375 460.320312 720.671875 458.457031 720.101562 C 456.589844 719.53125 454.691406 719.097656 452.765625 718.800781 C 450.835938 718.503906 448.894531 718.351562 446.945312 718.335938 C 444.996094 718.324219 443.054688 718.453125 441.121094 718.722656 C 439.1875 718.988281 437.285156 719.398438 435.414062 719.941406 C 435.023438 718.703125 434.574219 717.484375 434.070312 716.289062 C 433.5625 715.09375 433 713.925781 432.378906 712.785156 C 431.757812 711.644531 431.082031 710.535156 430.355469 709.460938 C 429.628906 708.382812 428.847656 707.347656 428.019531 706.34375 C 427.191406 705.34375 426.316406 704.386719 425.394531 703.472656 C 424.472656 702.558594 423.511719 701.6875 422.503906 700.867188 C 421.5 700.042969 420.457031 699.273438 419.375 698.550781 C 418.292969 697.832031 417.179688 697.164062 416.035156 696.550781 C 414.890625 695.9375 413.71875 695.382812 412.519531 694.882812 C 411.320312 694.386719 410.101562 693.945312 408.859375 693.566406 C 407.617188 693.183594 406.359375 692.863281 405.085938 692.605469 C 403.8125 692.347656 402.53125 692.152344 401.238281 692.015625 C 399.945312 691.882812 398.652344 691.808594 397.351562 691.800781 C 396.054688 691.792969 394.757812 691.847656 393.464844 691.964844 C 392.171875 692.082031 390.886719 692.261719 389.609375 692.503906 C 388.332031 692.746094 387.070312 693.046875 385.824219 693.410156 C 385.46875 692.273438 385.0625 691.152344 384.605469 690.050781 C 384.148438 688.949219 383.644531 687.871094 383.09375 686.8125 C 382.539062 685.757812 381.941406 684.726562 381.296875 683.722656 C 380.652344 682.71875 379.964844 681.746094 379.234375 680.804688 C 378.5 679.863281 377.730469 678.957031 376.917969 678.082031 C 376.105469 677.210938 375.253906 676.375 374.367188 675.578125 C 373.480469 674.78125 372.5625 674.023438 371.605469 673.308594 C 370.652344 672.59375 369.667969 671.921875 368.65625 671.292969 C 367.640625 670.667969 366.601562 670.085938 365.535156 669.550781 C 364.46875 669.015625 363.378906 668.53125 362.269531 668.09375 C 361.160156 667.65625 360.035156 667.269531 358.890625 666.929688 C 357.746094 666.59375 356.589844 666.308594 355.421875 666.074219 C 354.253906 665.839844 353.074219 665.660156 351.890625 665.53125 C 350.703125 665.402344 349.515625 665.328125 348.324219 665.304688 C 347.128906 665.28125 345.9375 665.3125 344.75 665.394531 C 343.558594 665.476562 342.375 665.613281 341.199219 665.804688 C 340.914062 664.027344 340.515625 662.277344 339.996094 660.554688 C 339.480469 658.832031 338.847656 657.152344 338.105469 655.511719 C 337.359375 653.875 336.511719 652.292969 335.554688 650.769531 C 334.597656 649.246094 333.542969 647.792969 332.390625 646.410156 C 331.238281 645.027344 330 643.730469 328.675781 642.511719 C 327.347656 641.296875 325.945312 640.175781 324.46875 639.148438 C 322.992188 638.121094 321.453125 637.195312 319.851562 636.375 C 318.25 635.554688 316.601562 634.84375 314.90625 634.246094 C 313.210938 633.648438 311.480469 633.164062 309.71875 632.796875 C 307.957031 632.429688 306.179688 632.183594 304.386719 632.054688 C 302.589844 631.925781 300.796875 631.921875 299 632.035156 C 297.207031 632.148438 295.425781 632.378906 293.660156 632.730469 C 291.898438 633.085938 290.164062 633.554688 288.460938 634.136719 C 286.761719 634.722656 285.105469 635.421875 283.5 636.226562 C 281.890625 637.035156 280.34375 637.945312 278.859375 638.960938 C 277.375 639.976562 275.964844 641.085938 274.628906 642.292969 C 272.214844 630.667969 268.429688 619.664062 255.363281 614.203125 Z M 687.8125 280.953125 C 693.898438 291.398438 699.269531 302.203125 703.921875 313.359375 C 708.578125 324.519531 712.476562 335.933594 715.617188 347.609375 C 718.761719 359.28125 721.117188 371.113281 722.695312 383.101562 C 724.269531 395.085938 725.046875 407.125 725.027344 419.214844 C 725.027344 419.957031 725.097656 420.691406 725.242188 421.417969 C 725.386719 422.144531 725.601562 422.851562 725.886719 423.535156 C 726.167969 424.222656 726.515625 424.871094 726.929688 425.488281 C 727.339844 426.105469 727.808594 426.675781 728.332031 427.199219 C 728.859375 427.722656 729.429688 428.191406 730.042969 428.605469 C 730.660156 429.015625 731.3125 429.363281 731.996094 429.648438 C 732.683594 429.929688 733.386719 430.144531 734.113281 430.289062 C 734.84375 430.433594 735.578125 430.507812 736.316406 430.507812 C 737.058594 430.507812 737.792969 430.433594 738.519531 430.289062 C 739.25 430.144531 739.953125 429.929688 740.640625 429.648438 C 741.324219 429.363281 741.976562 429.015625 742.589844 428.605469 C 743.207031 428.191406 743.777344 427.722656 744.304688 427.199219 C 744.828125 426.675781 745.296875 426.105469 745.707031 425.488281 C 746.117188 424.871094 746.464844 424.222656 746.75 423.535156 C 747.035156 422.851562 747.25 422.144531 747.394531 421.417969 C 747.539062 420.691406 747.609375 419.957031 747.609375 419.214844 C 747.625 406.136719 746.777344 393.113281 745.070312 380.148438 C 743.359375 367.183594 740.804688 354.386719 737.402344 341.757812 C 734 329.128906 729.78125 316.78125 724.742188 304.710938 C 719.703125 292.640625 713.894531 280.957031 707.3125 269.65625 C 706.941406 269.015625 706.511719 268.417969 706.023438 267.863281 C 705.535156 267.308594 704.996094 266.804688 704.40625 266.355469 C 703.820312 265.90625 703.195312 265.515625 702.53125 265.191406 C 701.867188 264.863281 701.179688 264.605469 700.464844 264.417969 C 699.75 264.226562 699.023438 264.105469 698.285156 264.058594 C 697.546875 264.011719 696.808594 264.035156 696.078125 264.132812 C 695.34375 264.230469 694.625 264.398438 693.925781 264.640625 C 693.226562 264.878906 692.554688 265.183594 691.917969 265.554688 C 691.277344 265.925781 690.679688 266.351562 690.121094 266.84375 C 689.566406 267.332031 689.066406 267.867188 688.617188 268.457031 C 688.164062 269.042969 687.777344 269.667969 687.453125 270.332031 C 687.125 270.996094 686.867188 271.6875 686.675781 272.402344 C 686.484375 273.117188 686.367188 273.84375 686.320312 274.578125 C 686.273438 275.316406 686.296875 276.054688 686.394531 276.789062 C 686.492188 277.519531 686.660156 278.238281 686.898438 278.9375 C 687.136719 279.636719 687.441406 280.308594 687.8125 280.949219 Z M 190.101562 252.3125 C 189.394531 252.503906 188.671875 252.625 187.941406 252.675781 C 187.207031 252.722656 186.476562 252.703125 185.746094 252.613281 C 185.019531 252.519531 184.304688 252.355469 183.609375 252.125 C 182.914062 251.894531 182.246094 251.597656 181.605469 251.238281 C 180.964844 250.875 180.367188 250.453125 179.8125 249.976562 C 179.253906 249.496094 178.75 248.96875 178.296875 248.390625 C 177.839844 247.816406 177.449219 247.199219 177.113281 246.546875 C 176.78125 245.890625 176.511719 245.210938 176.3125 244.503906 C 176.109375 243.796875 175.980469 243.078125 175.921875 242.347656 C 175.859375 241.613281 175.871094 240.882812 175.953125 240.15625 C 176.035156 239.425781 176.1875 238.710938 176.410156 238.011719 C 176.632812 237.308594 176.917969 236.636719 177.269531 235.996094 C 177.625 235.351562 178.035156 234.746094 178.507812 234.183594 C 178.976562 233.621094 179.5 233.105469 180.070312 232.644531 C 180.640625 232.183594 181.25 231.78125 181.902344 231.4375 C 182.550781 231.097656 183.226562 230.820312 183.929688 230.609375 L 231.640625 216.996094 C 234.671875 213.722656 237.773438 210.519531 240.949219 207.386719 C 244.121094 204.253906 247.367188 201.191406 250.679688 198.203125 C 253.992188 195.214844 257.371094 192.304688 260.8125 189.46875 C 264.257812 186.632812 267.761719 183.875 271.332031 181.195312 C 274.898438 178.519531 278.523438 175.921875 282.207031 173.40625 C 285.890625 170.890625 289.632812 168.460938 293.425781 166.113281 C 297.21875 163.765625 301.0625 161.503906 304.957031 159.332031 C 308.855469 157.15625 312.796875 155.070312 316.785156 153.074219 C 320.773438 151.078125 324.804688 149.171875 328.882812 147.355469 C 332.957031 145.539062 337.070312 143.816406 341.222656 142.1875 C 345.375 140.554688 349.5625 139.019531 353.78125 137.578125 C 358.003906 136.136719 362.257812 134.789062 366.539062 133.539062 C 370.820312 132.285156 375.128906 131.132812 379.460938 130.074219 C 383.796875 129.019531 388.152344 128.058594 392.527344 127.199219 C 396.90625 126.335938 401.300781 125.574219 405.710938 124.910156 C 410.121094 124.246094 414.546875 123.683594 418.984375 123.21875 C 423.421875 122.753906 427.863281 122.386719 432.320312 122.121094 C 436.773438 121.859375 441.226562 121.691406 445.6875 121.628906 C 450.148438 121.5625 454.609375 121.601562 459.066406 121.734375 C 463.527344 121.871094 467.980469 122.109375 472.429688 122.445312 C 476.878906 122.78125 481.316406 123.21875 485.746094 123.753906 C 490.171875 124.289062 494.585938 124.925781 498.988281 125.660156 C 503.386719 126.394531 507.769531 127.226562 512.132812 128.160156 C 516.496094 129.089844 520.835938 130.121094 525.152344 131.246094 C 529.46875 132.375 533.757812 133.597656 538.015625 134.917969 C 542.277344 136.234375 546.507812 137.652344 550.707031 139.160156 C 554.902344 140.671875 559.066406 142.273438 563.191406 143.972656 C 567.316406 145.667969 571.402344 147.457031 575.445312 149.339844 C 579.492188 151.21875 583.492188 153.191406 587.449219 155.25 C 591.40625 157.3125 595.3125 159.460938 599.175781 161.695312 C 603.035156 163.933594 606.839844 166.253906 610.597656 168.664062 C 614.351562 171.070312 618.050781 173.5625 621.695312 176.136719 L 616.898438 159.316406 C 616.703125 158.605469 616.578125 157.882812 616.523438 157.148438 C 616.46875 156.414062 616.488281 155.679688 616.578125 154.949219 C 616.667969 154.21875 616.828125 153.503906 617.058594 152.804688 C 617.289062 152.105469 617.582031 151.433594 617.945312 150.792969 C 618.304688 150.148438 618.726562 149.550781 619.203125 148.988281 C 619.683594 148.429688 620.210938 147.921875 620.789062 147.46875 C 621.367188 147.011719 621.984375 146.617188 622.640625 146.28125 C 623.296875 145.945312 623.980469 145.675781 624.6875 145.476562 C 625.394531 145.273438 626.117188 145.144531 626.851562 145.082031 C 627.585938 145.023438 628.316406 145.035156 629.050781 145.117188 C 629.78125 145.199219 630.5 145.351562 631.199219 145.578125 C 631.902344 145.800781 632.574219 146.089844 633.21875 146.445312 C 633.863281 146.800781 634.46875 147.214844 635.035156 147.6875 C 635.597656 148.164062 636.109375 148.6875 636.570312 149.261719 C 637.03125 149.835938 637.433594 150.449219 637.773438 151.101562 C 638.117188 151.753906 638.390625 152.433594 638.597656 153.140625 L 653.089844 203.933594 C 653.210938 204.363281 653.304688 204.792969 653.375 205.230469 C 653.445312 205.667969 653.492188 206.109375 653.507812 206.550781 C 653.527344 206.996094 653.519531 207.4375 653.484375 207.878906 C 653.453125 208.320312 653.394531 208.757812 653.308594 209.195312 C 653.222656 209.628906 653.113281 210.058594 652.976562 210.480469 C 652.839844 210.902344 652.679688 211.3125 652.496094 211.71875 C 652.3125 212.121094 652.101562 212.511719 651.871094 212.890625 C 651.640625 213.269531 651.390625 213.632812 651.117188 213.980469 C 650.84375 214.328125 650.550781 214.660156 650.238281 214.976562 C 649.925781 215.289062 649.597656 215.585938 649.25 215.863281 C 648.902344 216.136719 648.539062 216.390625 648.164062 216.625 C 647.785156 216.859375 647.398438 217.066406 646.996094 217.253906 C 646.59375 217.441406 646.183594 217.605469 645.761719 217.742188 C 645.339844 217.882812 644.914062 217.996094 644.476562 218.085938 C 644.042969 218.171875 643.605469 218.234375 643.164062 218.273438 C 642.722656 218.308594 642.28125 218.320312 641.835938 218.304688 L 589.847656 220.171875 C 589.109375 220.195312 588.375 220.148438 587.644531 220.03125 C 586.917969 219.914062 586.207031 219.726562 585.515625 219.464844 C 584.820312 219.207031 584.160156 218.882812 583.53125 218.496094 C 582.902344 218.105469 582.320312 217.660156 581.777344 217.15625 C 581.238281 216.652344 580.75 216.101562 580.320312 215.5 C 579.886719 214.902344 579.519531 214.265625 579.210938 213.59375 C 578.90625 212.921875 578.667969 212.226562 578.496094 211.507812 C 578.328125 210.789062 578.230469 210.058594 578.203125 209.320312 C 578.175781 208.582031 578.222656 207.847656 578.34375 207.117188 C 578.460938 206.390625 578.648438 205.679688 578.90625 204.984375 C 579.164062 204.292969 579.488281 203.632812 579.878906 203.003906 C 580.265625 202.375 580.714844 201.792969 581.214844 201.25 C 581.71875 200.710938 582.273438 200.222656 582.871094 199.792969 C 583.472656 199.359375 584.105469 198.992188 584.78125 198.683594 C 585.453125 198.375 586.148438 198.136719 586.867188 197.96875 C 587.585938 197.800781 588.316406 197.703125 589.054688 197.675781 L 611.894531 196.851562 C 608.539062 194.410156 605.132812 192.042969 601.671875 189.757812 C 598.210938 187.472656 594.699219 185.261719 591.140625 183.136719 C 587.578125 181.007812 583.972656 178.960938 580.320312 176.996094 C 576.664062 175.03125 572.96875 173.148438 569.230469 171.351562 C 565.492188 169.554688 561.714844 167.84375 557.898438 166.214844 C 554.085938 164.589844 550.234375 163.050781 546.347656 161.597656 C 542.460938 160.144531 538.546875 158.78125 534.597656 157.503906 C 530.652344 156.230469 526.679688 155.042969 522.675781 153.949219 C 518.675781 152.851562 514.652344 151.847656 510.605469 150.933594 C 506.558594 150.019531 502.496094 149.199219 498.410156 148.46875 C 494.328125 147.738281 490.230469 147.101562 486.117188 146.558594 C 482.007812 146.011719 477.882812 145.5625 473.75 145.203125 C 469.617188 144.847656 465.480469 144.582031 461.335938 144.410156 C 457.191406 144.242188 453.042969 144.164062 448.894531 144.179688 C 444.746094 144.199219 440.601562 144.308594 436.460938 144.511719 C 432.316406 144.71875 428.179688 145.015625 424.050781 145.40625 C 419.921875 145.800781 415.800781 146.285156 411.695312 146.863281 C 407.585938 147.441406 403.492188 148.109375 399.417969 148.875 C 395.339844 149.636719 391.28125 150.492188 387.242188 151.4375 C 383.203125 152.386719 379.1875 153.421875 375.195312 154.550781 C 371.207031 155.679688 367.242188 156.898438 363.304688 158.203125 C 359.367188 159.511719 355.464844 160.910156 351.589844 162.394531 C 347.714844 163.878906 343.878906 165.449219 340.074219 167.105469 C 336.273438 168.765625 332.511719 170.507812 328.785156 172.335938 C 325.0625 174.164062 321.382812 176.074219 317.746094 178.070312 C 314.109375 180.0625 310.519531 182.140625 306.976562 184.296875 C 303.433594 186.453125 299.941406 188.691406 296.496094 191.003906 C 293.054688 193.320312 289.667969 195.710938 286.335938 198.179688 C 283 200.648438 279.722656 203.191406 276.503906 205.808594 C 273.285156 208.425781 270.128906 211.113281 267.03125 213.871094 C 263.933594 216.632812 260.902344 219.460938 257.933594 222.355469 C 254.960938 225.253906 252.058594 228.214844 249.226562 231.242188 L 250.953125 279.359375 C 250.984375 280.101562 250.9375 280.835938 250.824219 281.566406 C 250.707031 282.296875 250.519531 283.011719 250.261719 283.707031 C 250.003906 284.402344 249.683594 285.0625 249.292969 285.695312 C 248.90625 286.324219 248.460938 286.914062 247.957031 287.453125 C 247.453125 287.996094 246.898438 288.484375 246.296875 288.921875 C 245.699219 289.355469 245.0625 289.722656 244.386719 290.03125 C 243.714844 290.339844 243.015625 290.578125 242.296875 290.75 C 241.574219 290.921875 240.84375 291.019531 240.105469 291.042969 C 239.363281 291.070312 238.628906 291.023438 237.898438 290.90625 C 237.164062 290.785156 236.453125 290.597656 235.761719 290.335938 C 235.066406 290.078125 234.40625 289.75 233.773438 289.363281 C 233.144531 288.972656 232.558594 288.523438 232.019531 288.015625 C 231.476562 287.511719 230.992188 286.957031 230.558594 286.355469 C 230.128906 285.753906 229.761719 285.113281 229.453125 284.441406 C 229.148438 283.765625 228.914062 283.066406 228.746094 282.34375 C 228.578125 281.625 228.480469 280.894531 228.457031 280.152344 L 227.636719 257.316406 C 223.382812 263.144531 219.363281 269.132812 215.582031 275.28125 C 211.796875 281.425781 208.265625 287.714844 204.980469 294.140625 C 201.695312 300.566406 198.667969 307.109375 195.898438 313.777344 C 193.132812 320.441406 190.632812 327.207031 188.398438 334.070312 C 186.164062 340.929688 184.207031 347.871094 182.523438 354.890625 C 180.839844 361.90625 179.433594 368.980469 178.3125 376.109375 C 177.1875 383.238281 176.34375 390.402344 175.785156 397.597656 C 175.226562 404.792969 174.953125 412 174.964844 419.214844 C 174.964844 419.957031 174.894531 420.691406 174.75 421.417969 C 174.605469 422.144531 174.390625 422.851562 174.105469 423.535156 C 173.824219 424.222656 173.476562 424.871094 173.0625 425.488281 C 172.652344 426.105469 172.183594 426.675781 171.660156 427.199219 C 171.136719 427.722656 170.566406 428.191406 169.949219 428.605469 C 169.332031 429.015625 168.679688 429.363281 167.996094 429.648438 C 167.3125 429.929688 166.605469 430.144531 165.878906 430.289062 C 165.152344 430.433594 164.417969 430.507812 163.675781 430.507812 C 162.933594 430.507812 162.199219 430.433594 161.472656 430.289062 C 160.746094 430.144531 160.039062 429.929688 159.355469 429.648438 C 158.667969 429.363281 158.019531 429.015625 157.402344 428.605469 C 156.785156 428.191406 156.214844 427.722656 155.691406 427.199219 C 155.164062 426.675781 154.699219 426.105469 154.285156 425.488281 C 153.875 424.871094 153.527344 424.222656 153.242188 423.535156 C 152.957031 422.851562 152.746094 422.144531 152.601562 421.417969 C 152.457031 420.691406 152.382812 419.957031 152.382812 419.214844 C 152.371094 411.585938 152.652344 403.964844 153.230469 396.359375 C 153.804688 388.75 154.675781 381.175781 155.835938 373.632812 C 156.996094 366.09375 158.449219 358.609375 160.1875 351.179688 C 161.929688 343.75 163.953125 336.398438 166.261719 329.125 C 168.570312 321.855469 171.152344 314.683594 174.015625 307.609375 C 176.878906 300.535156 180.007812 293.585938 183.40625 286.753906 C 186.808594 279.921875 190.464844 273.234375 194.382812 266.683594 C 198.296875 260.136719 202.460938 253.75 206.871094 247.523438 L 190.101562 252.308594 Z M 449.996094 247.117188 C 448.671875 247.117188 447.351562 247.183594 446.035156 247.3125 C 444.714844 247.441406 443.40625 247.636719 442.109375 247.894531 C 440.8125 248.152344 439.527344 248.472656 438.261719 248.855469 C 436.992188 249.242188 435.75 249.6875 434.523438 250.195312 C 433.300781 250.699219 432.105469 251.265625 430.9375 251.890625 C 429.769531 252.515625 428.636719 253.195312 427.535156 253.929688 C 426.433594 254.664062 425.371094 255.453125 424.347656 256.292969 C 423.324219 257.132812 422.34375 258.019531 421.410156 258.957031 C 420.472656 259.894531 419.585938 260.875 418.746094 261.898438 C 417.90625 262.921875 417.117188 263.984375 416.382812 265.082031 C 415.644531 266.183594 414.964844 267.320312 414.339844 268.488281 C 413.71875 269.652344 413.152344 270.847656 412.644531 272.074219 C 412.136719 273.296875 411.691406 274.542969 411.308594 275.808594 C 410.925781 277.074219 410.601562 278.359375 410.34375 279.65625 C 410.085938 280.957031 409.890625 282.261719 409.761719 283.582031 C 409.632812 284.898438 409.566406 286.21875 409.566406 287.542969 C 409.566406 288.867188 409.632812 290.1875 409.761719 291.507812 C 409.890625 292.824219 410.085938 294.132812 410.34375 295.429688 C 410.601562 296.730469 410.921875 298.011719 411.308594 299.28125 C 411.691406 300.546875 412.136719 301.792969 412.644531 303.015625 C 413.152344 304.238281 413.714844 305.433594 414.339844 306.601562 C 414.964844 307.769531 415.644531 308.902344 416.378906 310.003906 C 417.117188 311.105469 417.902344 312.167969 418.742188 313.191406 C 419.582031 314.214844 420.472656 315.195312 421.40625 316.132812 C 422.34375 317.066406 423.324219 317.957031 424.347656 318.796875 C 425.371094 319.636719 426.433594 320.421875 427.535156 321.160156 C 428.636719 321.894531 429.769531 322.574219 430.9375 323.199219 C 432.105469 323.824219 433.300781 324.386719 434.523438 324.894531 C 435.746094 325.402344 436.992188 325.847656 438.257812 326.230469 C 439.527344 326.617188 440.808594 326.9375 442.109375 327.195312 C 443.40625 327.453125 444.714844 327.648438 446.03125 327.777344 C 447.351562 327.90625 448.671875 327.972656 449.996094 327.972656 C 451.320312 327.972656 452.640625 327.90625 453.957031 327.777344 C 455.277344 327.648438 456.582031 327.453125 457.882812 327.195312 C 459.179688 326.9375 460.464844 326.617188 461.730469 326.230469 C 462.996094 325.847656 464.242188 325.402344 465.464844 324.894531 C 466.691406 324.390625 467.886719 323.824219 469.050781 323.199219 C 470.21875 322.574219 471.355469 321.894531 472.457031 321.160156 C 473.554688 320.425781 474.617188 319.636719 475.640625 318.796875 C 476.664062 317.957031 477.644531 317.066406 478.582031 316.132812 C 479.519531 315.195312 480.40625 314.214844 481.246094 313.191406 C 482.085938 312.167969 482.875 311.105469 483.609375 310.003906 C 484.34375 308.90625 485.023438 307.769531 485.648438 306.601562 C 486.273438 305.433594 486.839844 304.238281 487.34375 303.015625 C 487.851562 301.792969 488.296875 300.546875 488.683594 299.28125 C 489.066406 298.011719 489.386719 296.730469 489.644531 295.433594 C 489.90625 294.132812 490.097656 292.824219 490.226562 291.507812 C 490.359375 290.191406 490.421875 288.867188 490.421875 287.542969 C 490.421875 286.222656 490.359375 284.898438 490.226562 283.582031 C 490.097656 282.265625 489.90625 280.957031 489.644531 279.65625 C 489.386719 278.359375 489.066406 277.078125 488.683594 275.808594 C 488.296875 274.542969 487.851562 273.296875 487.347656 272.074219 C 486.839844 270.851562 486.273438 269.65625 485.648438 268.488281 C 485.027344 267.320312 484.347656 266.183594 483.609375 265.085938 C 482.875 263.984375 482.085938 262.921875 481.246094 261.898438 C 480.40625 260.875 479.519531 259.894531 478.582031 258.957031 C 477.648438 258.023438 476.667969 257.132812 475.644531 256.292969 C 474.621094 255.453125 473.558594 254.664062 472.457031 253.929688 C 471.355469 253.195312 470.222656 252.515625 469.054688 251.890625 C 467.886719 251.265625 466.691406 250.699219 465.46875 250.195312 C 464.242188 249.6875 463 249.242188 461.730469 248.859375 C 460.464844 248.472656 459.183594 248.152344 457.882812 247.894531 C 456.585938 247.636719 455.277344 247.441406 453.960938 247.3125 C 452.640625 247.183594 451.320312 247.117188 449.996094 247.117188 Z M 382.386719 413.441406 L 517.605469 413.441406 C 517.984375 413.441406 518.363281 413.417969 518.738281 413.375 C 519.113281 413.332031 519.488281 413.265625 519.855469 413.179688 C 520.222656 413.09375 520.585938 412.988281 520.945312 412.859375 C 521.300781 412.730469 521.648438 412.582031 521.988281 412.417969 C 522.328125 412.25 522.65625 412.0625 522.972656 411.855469 C 523.289062 411.652344 523.597656 411.425781 523.886719 411.1875 C 524.179688 410.945312 524.457031 410.691406 524.71875 410.417969 C 524.984375 410.144531 525.230469 409.859375 525.460938 409.558594 C 525.6875 409.257812 525.902344 408.941406 526.09375 408.617188 C 526.289062 408.292969 526.464844 407.957031 526.617188 407.613281 C 526.773438 407.265625 526.910156 406.914062 527.023438 406.554688 C 527.136719 406.191406 527.230469 405.824219 527.304688 405.453125 C 527.378906 405.082031 527.429688 404.707031 527.457031 404.332031 C 527.488281 403.953125 527.496094 403.574219 527.480469 403.199219 C 527.46875 402.820312 527.433594 402.441406 527.375 402.070312 C 527.316406 401.695312 527.238281 401.324219 527.140625 400.960938 C 526.566406 398.863281 525.910156 396.792969 525.164062 394.75 C 524.421875 392.707031 523.597656 390.699219 522.691406 388.722656 C 521.785156 386.746094 520.800781 384.8125 519.738281 382.917969 C 518.675781 381.019531 517.535156 379.171875 516.320312 377.371094 C 515.105469 375.566406 513.820312 373.816406 512.460938 372.121094 C 511.105469 370.421875 509.679688 368.78125 508.1875 367.199219 C 506.699219 365.621094 505.144531 364.101562 503.53125 362.648438 C 501.914062 361.191406 500.246094 359.804688 498.515625 358.484375 C 496.789062 357.167969 495.011719 355.921875 493.179688 354.746094 C 491.351562 353.574219 489.476562 352.476562 487.558594 351.457031 C 485.640625 350.4375 483.683594 349.496094 481.6875 348.632812 C 479.691406 347.773438 477.664062 346.992188 475.605469 346.296875 C 473.542969 345.601562 471.460938 344.992188 469.351562 344.464844 C 467.242188 343.9375 465.117188 343.5 462.972656 343.148438 C 460.828125 342.792969 458.671875 342.527344 456.503906 342.351562 C 454.339844 342.175781 452.167969 342.085938 449.996094 342.085938 C 447.820312 342.085938 445.652344 342.175781 443.484375 342.351562 C 441.320312 342.527344 439.164062 342.792969 437.019531 343.148438 C 434.875 343.5 432.746094 343.9375 430.636719 344.464844 C 428.53125 344.992188 426.445312 345.601562 424.386719 346.296875 C 422.328125 346.992188 420.300781 347.773438 418.304688 348.632812 C 416.308594 349.496094 414.351562 350.4375 412.433594 351.457031 C 410.511719 352.476562 408.640625 353.574219 406.808594 354.746094 C 404.980469 355.921875 403.203125 357.167969 401.472656 358.484375 C 399.746094 359.804688 398.074219 361.191406 396.460938 362.648438 C 394.84375 364.101562 393.292969 365.621094 391.800781 367.199219 C 390.308594 368.78125 388.886719 370.421875 387.527344 372.121094 C 386.171875 373.816406 384.886719 375.566406 383.671875 377.371094 C 382.457031 379.171875 381.316406 381.019531 380.253906 382.917969 C 379.1875 384.8125 378.203125 386.746094 377.296875 388.722656 C 376.390625 390.699219 375.566406 392.707031 374.824219 394.75 C 374.082031 396.792969 373.425781 398.863281 372.851562 400.960938 C 372.75 401.324219 372.671875 401.695312 372.617188 402.070312 C 372.558594 402.441406 372.523438 402.820312 372.507812 403.195312 C 372.496094 403.574219 372.503906 403.953125 372.53125 404.332031 C 372.5625 404.707031 372.613281 405.082031 372.6875 405.453125 C 372.757812 405.824219 372.851562 406.191406 372.96875 406.550781 C 373.082031 406.914062 373.21875 407.265625 373.371094 407.613281 C 373.527344 407.957031 373.703125 408.292969 373.894531 408.617188 C 374.089844 408.941406 374.300781 409.253906 374.53125 409.554688 C 374.761719 409.855469 375.007812 410.144531 375.269531 410.414062 C 375.53125 410.6875 375.808594 410.945312 376.101562 411.1875 C 376.394531 411.425781 376.699219 411.648438 377.019531 411.855469 C 377.335938 412.058594 377.664062 412.246094 378.003906 412.414062 C 378.34375 412.582031 378.691406 412.730469 379.046875 412.859375 C 379.402344 412.984375 379.765625 413.09375 380.132812 413.179688 C 380.503906 413.265625 380.875 413.328125 381.25 413.375 C 381.628906 413.417969 382.003906 413.4375 382.382812 413.4375 Z M 318.753906 254.480469 C 317.636719 254.480469 316.523438 254.535156 315.414062 254.644531 C 314.300781 254.753906 313.199219 254.917969 312.105469 255.136719 C 311.007812 255.351562 309.929688 255.625 308.859375 255.949219 C 307.792969 256.273438 306.742188 256.648438 305.710938 257.074219 C 304.679688 257.503906 303.671875 257.980469 302.6875 258.503906 C 301.703125 259.03125 300.746094 259.605469 299.816406 260.226562 C 298.890625 260.84375 297.996094 261.507812 297.132812 262.21875 C 296.269531 262.925781 295.441406 263.675781 294.652344 264.464844 C 293.863281 265.253906 293.113281 266.078125 292.40625 266.941406 C 291.699219 267.804688 291.035156 268.699219 290.414062 269.628906 C 289.792969 270.554688 289.222656 271.511719 288.695312 272.496094 C 288.167969 273.480469 287.691406 274.488281 287.265625 275.519531 C 286.835938 276.550781 286.460938 277.601562 286.136719 278.671875 C 285.8125 279.738281 285.542969 280.820312 285.324219 281.914062 C 285.109375 283.007812 284.945312 284.113281 284.835938 285.222656 C 284.726562 286.335938 284.671875 287.449219 284.671875 288.5625 C 284.671875 289.679688 284.726562 290.792969 284.835938 291.90625 C 284.945312 293.015625 285.109375 294.117188 285.324219 295.214844 C 285.542969 296.308594 285.8125 297.390625 286.136719 298.457031 C 286.460938 299.527344 286.835938 300.574219 287.265625 301.605469 C 287.691406 302.636719 288.167969 303.644531 288.695312 304.628906 C 289.222656 305.613281 289.792969 306.570312 290.414062 307.5 C 291.035156 308.425781 291.699219 309.324219 292.40625 310.1875 C 293.113281 311.050781 293.863281 311.875 294.652344 312.664062 C 295.441406 313.453125 296.269531 314.203125 297.132812 314.910156 C 297.996094 315.617188 298.890625 316.28125 299.816406 316.902344 C 300.746094 317.523438 301.703125 318.097656 302.6875 318.621094 C 303.671875 319.148438 304.679688 319.625 305.710938 320.050781 C 306.742188 320.480469 307.792969 320.855469 308.859375 321.179688 C 309.929688 321.503906 311.007812 321.773438 312.105469 321.992188 C 313.199219 322.210938 314.300781 322.375 315.414062 322.484375 C 316.523438 322.59375 317.636719 322.648438 318.753906 322.648438 C 319.871094 322.648438 320.984375 322.59375 322.09375 322.484375 C 323.207031 322.375 324.308594 322.210938 325.402344 321.992188 C 326.496094 321.773438 327.578125 321.503906 328.648438 321.179688 C 329.714844 320.855469 330.765625 320.480469 331.796875 320.050781 C 332.828125 319.625 333.835938 319.148438 334.820312 318.621094 C 335.804688 318.097656 336.761719 317.523438 337.6875 316.902344 C 338.617188 316.28125 339.511719 315.617188 340.375 314.910156 C 341.238281 314.203125 342.066406 313.453125 342.855469 312.664062 C 343.644531 311.875 344.390625 311.050781 345.101562 310.1875 C 345.808594 309.324219 346.472656 308.425781 347.09375 307.5 C 347.710938 306.570312 348.285156 305.613281 348.8125 304.628906 C 349.339844 303.644531 349.816406 302.636719 350.242188 301.605469 C 350.667969 300.574219 351.046875 299.527344 351.367188 298.457031 C 351.691406 297.390625 351.964844 296.308594 352.183594 295.214844 C 352.398438 294.117188 352.5625 293.015625 352.671875 291.90625 C 352.78125 290.792969 352.835938 289.679688 352.835938 288.5625 C 352.835938 287.449219 352.78125 286.335938 352.671875 285.222656 C 352.5625 284.113281 352.398438 283.007812 352.183594 281.914062 C 351.964844 280.820312 351.695312 279.738281 351.371094 278.667969 C 351.046875 277.601562 350.667969 276.550781 350.242188 275.519531 C 349.816406 274.488281 349.339844 273.480469 348.8125 272.496094 C 348.285156 271.511719 347.714844 270.554688 347.09375 269.628906 C 346.472656 268.699219 345.808594 267.804688 345.101562 266.941406 C 344.390625 266.078125 343.644531 265.253906 342.855469 264.464844 C 342.066406 263.671875 341.238281 262.925781 340.375 262.214844 C 339.511719 261.507812 338.617188 260.84375 337.6875 260.222656 C 336.761719 259.605469 335.804688 259.03125 334.820312 258.503906 C 333.835938 257.980469 332.828125 257.5 331.796875 257.074219 C 330.765625 256.648438 329.714844 256.273438 328.648438 255.949219 C 327.578125 255.625 326.496094 255.351562 325.402344 255.136719 C 324.308594 254.917969 323.207031 254.753906 322.09375 254.644531 C 320.984375 254.535156 319.871094 254.480469 318.753906 254.480469 Z M 581.242188 254.480469 C 580.125 254.480469 579.011719 254.535156 577.898438 254.644531 C 576.789062 254.753906 575.6875 254.917969 574.589844 255.136719 C 573.496094 255.351562 572.414062 255.625 571.347656 255.949219 C 570.277344 256.273438 569.230469 256.648438 568.199219 257.074219 C 567.167969 257.5 566.160156 257.976562 565.175781 258.503906 C 564.1875 259.03125 563.234375 259.605469 562.304688 260.222656 C 561.375 260.84375 560.480469 261.507812 559.617188 262.214844 C 558.753906 262.925781 557.929688 263.671875 557.140625 264.460938 C 556.351562 265.25 555.601562 266.078125 554.894531 266.941406 C 554.183594 267.804688 553.519531 268.699219 552.902344 269.628906 C 552.28125 270.554688 551.707031 271.511719 551.179688 272.496094 C 550.65625 273.480469 550.179688 274.488281 549.75 275.519531 C 549.324219 276.550781 548.949219 277.601562 548.625 278.667969 C 548.300781 279.738281 548.027344 280.820312 547.8125 281.914062 C 547.59375 283.007812 547.429688 284.109375 547.320312 285.222656 C 547.210938 286.332031 547.15625 287.445312 547.15625 288.5625 C 547.15625 289.679688 547.210938 290.792969 547.320312 291.902344 C 547.429688 293.015625 547.59375 294.117188 547.8125 295.210938 C 548.027344 296.308594 548.300781 297.390625 548.625 298.457031 C 548.949219 299.523438 549.324219 300.574219 549.75 301.605469 C 550.179688 302.636719 550.65625 303.644531 551.179688 304.628906 C 551.707031 305.613281 552.28125 306.570312 552.898438 307.5 C 553.519531 308.425781 554.183594 309.324219 554.894531 310.1875 C 555.601562 311.046875 556.347656 311.875 557.140625 312.664062 C 557.929688 313.453125 558.753906 314.203125 559.617188 314.910156 C 560.480469 315.617188 561.375 316.28125 562.304688 316.902344 C 563.230469 317.523438 564.1875 318.097656 565.171875 318.621094 C 566.15625 319.148438 567.164062 319.625 568.195312 320.050781 C 569.226562 320.480469 570.277344 320.855469 571.34375 321.179688 C 572.414062 321.503906 573.496094 321.773438 574.589844 321.992188 C 575.683594 322.210938 576.789062 322.375 577.898438 322.484375 C 579.007812 322.59375 580.125 322.648438 581.238281 322.648438 C 582.355469 322.648438 583.46875 322.59375 584.582031 322.484375 C 585.691406 322.375 586.792969 322.210938 587.890625 321.992188 C 588.984375 321.773438 590.066406 321.503906 591.132812 321.179688 C 592.203125 320.855469 593.25 320.480469 594.28125 320.054688 C 595.3125 319.625 596.320312 319.148438 597.304688 318.621094 C 598.289062 318.097656 599.246094 317.523438 600.175781 316.902344 C 601.101562 316.28125 602 315.617188 602.863281 314.910156 C 603.722656 314.203125 604.550781 313.453125 605.339844 312.664062 C 606.128906 311.875 606.878906 311.050781 607.585938 310.1875 C 608.292969 309.324219 608.957031 308.429688 609.578125 307.5 C 610.199219 306.570312 610.773438 305.613281 611.296875 304.628906 C 611.824219 303.644531 612.300781 302.636719 612.726562 301.605469 C 613.15625 300.574219 613.53125 299.527344 613.855469 298.457031 C 614.179688 297.390625 614.449219 296.308594 614.667969 295.214844 C 614.886719 294.117188 615.050781 293.015625 615.160156 291.90625 C 615.269531 290.792969 615.324219 289.679688 615.324219 288.5625 C 615.324219 287.449219 615.269531 286.335938 615.160156 285.222656 C 615.050781 284.113281 614.886719 283.007812 614.667969 281.914062 C 614.449219 280.820312 614.179688 279.738281 613.855469 278.671875 C 613.53125 277.601562 613.15625 276.550781 612.730469 275.519531 C 612.300781 274.488281 611.824219 273.480469 611.300781 272.496094 C 610.773438 271.511719 610.199219 270.554688 609.578125 269.628906 C 608.960938 268.699219 608.296875 267.804688 607.585938 266.941406 C 606.878906 266.078125 606.128906 265.253906 605.339844 264.464844 C 604.550781 263.675781 603.726562 262.925781 602.863281 262.21875 C 602 261.507812 601.105469 260.84375 600.175781 260.226562 C 599.25 259.605469 598.292969 259.03125 597.308594 258.503906 C 596.324219 257.980469 595.316406 257.503906 594.285156 257.074219 C 593.253906 256.648438 592.203125 256.273438 591.132812 255.949219 C 590.066406 255.625 588.984375 255.351562 587.890625 255.136719 C 586.796875 254.917969 585.691406 254.753906 584.582031 254.644531 C 583.46875 254.535156 582.355469 254.480469 581.242188 254.480469 Z M 263.820312 396.917969 L 350.5625 396.917969 C 352.289062 390.058594 354.703125 383.453125 357.800781 377.101562 C 360.902344 370.746094 364.621094 364.777344 368.964844 359.199219 C 366.984375 356.988281 364.867188 354.917969 362.617188 352.988281 C 360.363281 351.058594 357.996094 349.285156 355.507812 347.667969 C 353.023438 346.050781 350.441406 344.601562 347.765625 343.328125 C 345.085938 342.050781 342.335938 340.953125 339.515625 340.039062 C 336.695312 339.125 333.824219 338.402344 330.90625 337.867188 C 327.988281 337.332031 325.050781 336.992188 322.085938 336.84375 C 319.125 336.695312 316.164062 336.746094 313.210938 336.988281 C 310.253906 337.230469 307.324219 337.667969 304.425781 338.296875 C 301.527344 338.929688 298.683594 339.746094 295.894531 340.75 C 293.105469 341.757812 290.390625 342.941406 287.757812 344.304688 C 285.121094 345.667969 282.589844 347.199219 280.15625 348.894531 C 277.726562 350.59375 275.414062 352.441406 273.226562 354.445312 C 271.039062 356.449219 268.992188 358.585938 267.085938 360.859375 C 265.179688 363.132812 263.433594 365.519531 261.839844 368.023438 C 260.25 370.527344 258.832031 373.125 257.582031 375.8125 C 256.335938 378.503906 255.269531 381.265625 254.386719 384.097656 C 254.273438 384.464844 254.179688 384.839844 254.109375 385.21875 C 254.039062 385.597656 253.988281 385.980469 253.960938 386.367188 C 253.9375 386.75 253.933594 387.136719 253.953125 387.523438 C 253.96875 387.90625 254.011719 388.289062 254.074219 388.671875 C 254.140625 389.050781 254.226562 389.425781 254.332031 389.796875 C 254.441406 390.167969 254.570312 390.53125 254.722656 390.886719 C 254.871094 391.242188 255.042969 391.589844 255.234375 391.921875 C 255.425781 392.257812 255.632812 392.582031 255.863281 392.894531 C 256.089844 393.203125 256.335938 393.5 256.601562 393.78125 C 256.863281 394.0625 257.144531 394.328125 257.4375 394.578125 C 257.734375 394.828125 258.042969 395.058594 258.363281 395.273438 C 258.683594 395.484375 259.019531 395.679688 259.363281 395.855469 C 259.707031 396.027344 260.058594 396.179688 260.421875 396.3125 C 260.785156 396.445312 261.152344 396.558594 261.527344 396.648438 C 261.90625 396.738281 262.285156 396.804688 262.667969 396.847656 C 263.050781 396.894531 263.433594 396.917969 263.820312 396.917969 Z M 263.820312 396.917969 " fill-opacity="1" fill-rule="evenodd"/></g></svg>