<svg xmlns="http://www.w3.org/2000/svg" xmlns:xlink="http://www.w3.org/1999/xlink" width="1200" zoomAndPan="magnify" viewBox="0 0 900 899.99999" height="1200" preserveAspectRatio="xMidYMid meet" version="1.0"><defs><clipPath id="db53f0c0d2"><path d="M 87.734375 124 L 809.984375 124 L 809.984375 807.75 L 87.734375 807.75 Z M 87.734375 124 " clip-rule="nonzero"/></clipPath></defs><g clip-path="url(#db53f0c0d2)"><path fill="#ffffff" d="M 508.121094 553.804688 C 508.328125 521.503906 518.675781 491.605469 536.140625 467.144531 L 548.125 479.128906 C 555.160156 486.167969 565.800781 488.148438 574.898438 484.117188 L 584.757812 479.75 C 589.566406 482.089844 594.507812 484.144531 599.566406 485.890625 C 599.566406 485.890625 603.425781 495.914062 603.425781 495.914062 C 607.003906 505.207031 615.933594 511.339844 625.894531 511.339844 L 660.402344 511.339844 C 670.363281 511.339844 679.292969 505.207031 682.871094 495.914062 L 686.726562 485.890625 C 691.78125 484.148438 696.726562 482.101562 701.53125 479.761719 C 701.53125 479.761719 711.363281 484.117188 711.363281 484.117188 C 720.460938 488.148438 731.101562 486.167969 738.136719 479.128906 L 762.535156 454.734375 C 764.25 453.019531 765.664062 451.089844 766.761719 449.023438 C 793.507812 476.265625 809.996094 513.605469 809.996094 554.796875 C 809.996094 592.019531 796.535156 626.082031 774.269531 652.375 C 767.019531 660.890625 763.050781 670.09375 761.84375 681.199219 C 757.757812 718.308594 767.710938 761.6875 790.320312 807.65625 L 617.835938 807.65625 C 610.929688 768.996094 587.628906 754.207031 547.929688 763.183594 C 521.40625 767.785156 508.460938 764.105469 509.039062 752.078125 C 508.867188 733.4375 505.699219 726.648438 500.867188 723.082031 C 490.226562 714.855469 502.078125 704.328125 514.273438 697.710938 C 504.03125 696.902344 490.855469 688.675781 493.734375 682.058594 C 495.851562 674.75 496.496094 669.496094 495.847656 665.601562 C 496.171875 665.53125 496.496094 665.457031 496.820312 665.386719 C 556.503906 651.792969 594.082031 601.898438 595.023438 544.886719 C 595.1875 535.035156 589.328125 526.074219 580.234375 522.273438 C 571.136719 518.476562 560.648438 520.601562 553.75 527.644531 C 538.570312 543.148438 523.136719 550.953125 508.121094 553.804688 Z M 361.59375 467.144531 C 369.398438 478.082031 375.785156 490.101562 380.476562 502.9375 L 314.042969 510.234375 C 306.691406 511.039062 300.117188 515.179688 296.214844 521.464844 C 292.3125 527.75 291.515625 535.480469 294.054688 542.425781 L 335.261719 655.195312 C 338.46875 663.980469 346.476562 670.109375 355.792969 670.917969 C 365.105469 671.726562 374.050781 667.070312 378.722656 658.96875 L 384.015625 649.804688 C 391.394531 653.214844 398.652344 656.125 405.773438 658.574219 C 401.140625 662.460938 400.203125 668.964844 404 682.058594 C 406.875 688.675781 393.699219 696.902344 383.460938 697.710938 C 395.65625 704.328125 407.507812 714.855469 396.867188 723.082031 C 392.03125 726.648438 388.867188 733.4375 388.695312 752.078125 C 389.269531 764.105469 376.324219 767.785156 349.800781 763.183594 C 310.105469 754.207031 286.804688 768.996094 279.898438 807.65625 L 107.414062 807.65625 C 130.023438 761.6875 139.976562 718.308594 135.890625 681.199219 C 134.683594 670.09375 130.714844 660.890625 123.464844 652.375 C 101.199219 626.082031 87.734375 592.019531 87.734375 554.796875 C 87.734375 513.605469 104.222656 476.265625 130.972656 449.023438 C 132.070312 451.089844 133.484375 453.019531 135.199219 454.734375 L 159.59375 479.128906 C 166.632812 486.167969 177.269531 488.148438 186.371094 484.117188 L 196.230469 479.75 C 201.035156 482.089844 205.980469 484.144531 211.039062 485.890625 C 211.039062 485.890625 214.894531 495.914062 214.894531 495.914062 C 218.472656 505.207031 227.40625 511.339844 237.363281 511.339844 L 271.875 511.339844 C 281.832031 511.339844 290.765625 505.207031 294.34375 495.914062 L 298.199219 485.890625 C 303.253906 484.148438 308.195312 482.101562 313 479.761719 C 313 479.761719 322.835938 484.117188 322.835938 484.117188 C 331.933594 488.148438 342.574219 486.167969 349.609375 479.128906 Z M 280.007812 253.351562 C 291.265625 256.027344 302.003906 260.472656 311.875 266.554688 L 332.585938 257.347656 L 356.980469 281.742188 L 347.808594 302.453125 C 353.890625 312.324219 358.335938 323.0625 361.011719 334.355469 L 382.140625 342.488281 L 382.140625 376.996094 L 361.011719 385.128906 C 358.335938 396.390625 353.851562 407.128906 347.808594 416.996094 L 356.980469 437.710938 L 332.585938 462.105469 L 311.875 452.933594 C 302.039062 459.011719 291.265625 463.460938 280.007812 466.136719 L 271.875 487.265625 L 237.363281 487.265625 L 229.234375 466.136719 C 217.9375 463.460938 207.199219 458.976562 197.328125 452.933594 L 176.621094 462.105469 L 152.222656 437.710938 L 161.433594 416.996094 C 155.351562 407.164062 150.902344 396.390625 148.191406 385.128906 L 127.0625 376.996094 L 127.0625 342.488281 L 148.191406 334.355469 C 150.902344 323.0625 155.351562 312.324219 161.433594 302.453125 L 152.222656 281.742188 L 176.621094 257.347656 L 197.328125 266.554688 C 207.199219 260.472656 217.9375 256.027344 229.199219 253.351562 L 237.363281 232.1875 L 271.875 232.1875 Z M 254.601562 299.535156 C 221.34375 299.535156 194.410156 326.46875 194.410156 359.726562 C 194.410156 392.984375 221.34375 419.953125 254.601562 419.953125 C 287.859375 419.953125 314.828125 392.984375 314.828125 359.726562 C 314.828125 326.46875 287.859375 299.535156 254.601562 299.535156 Z M 668.535156 253.351562 C 679.792969 256.027344 690.53125 260.472656 700.402344 266.554688 L 721.113281 257.347656 L 745.511719 281.742188 L 736.335938 302.453125 C 742.417969 312.324219 746.867188 323.0625 749.542969 334.355469 L 770.671875 342.488281 L 770.671875 376.996094 L 749.542969 385.128906 C 746.867188 396.390625 742.382812 407.128906 736.335938 416.996094 L 745.511719 437.710938 L 721.113281 462.105469 L 700.402344 452.933594 C 690.570312 459.011719 679.792969 463.460938 668.535156 466.136719 L 660.402344 487.265625 L 625.894531 487.265625 L 617.761719 466.136719 C 606.46875 463.460938 595.730469 458.976562 585.859375 452.933594 L 565.148438 462.105469 L 540.75 437.710938 L 549.960938 416.996094 C 543.878906 407.164062 539.429688 396.390625 536.722656 385.128906 L 515.589844 376.996094 L 515.589844 342.488281 L 536.722656 334.355469 C 539.429688 323.0625 543.878906 312.324219 549.960938 302.453125 L 540.75 281.742188 L 565.148438 257.347656 L 585.859375 266.554688 C 595.730469 260.472656 606.46875 256.027344 617.726562 253.351562 L 625.894531 232.1875 L 660.402344 232.1875 Z M 643.132812 299.535156 C 609.875 299.535156 582.941406 326.46875 582.941406 359.726562 C 582.941406 392.984375 609.875 419.953125 643.132812 419.953125 C 676.390625 419.953125 703.355469 392.984375 703.355469 359.726562 C 703.355469 326.46875 676.390625 299.535156 643.132812 299.535156 Z M 472.40625 217 C 435.082031 195.449219 377.949219 167.894531 322.386719 216.667969 C 320.996094 217.886719 319 218.125 317.359375 217.269531 C 315.722656 216.414062 314.777344 214.636719 314.980469 212.800781 C 324.082031 141.722656 404.855469 90.164062 510.441406 151.125 L 520.792969 133.191406 C 521.964844 131.164062 524.199219 130 526.527344 130.203125 C 528.855469 130.402344 530.859375 131.9375 531.660156 134.132812 L 565.148438 225.785156 C 565.941406 227.957031 565.695312 230.371094 564.476562 232.335938 C 563.257812 234.296875 561.203125 235.59375 558.90625 235.84375 L 466.746094 245.964844 C 464.488281 246.210938 462.289062 245.171875 461.046875 243.273438 C 459.808594 241.371094 459.742188 238.9375 460.875 236.972656 Z M 412.707031 551.964844 C 450.03125 573.511719 507.164062 601.066406 562.722656 552.292969 C 564.117188 551.074219 566.113281 550.835938 567.753906 551.691406 C 569.390625 552.550781 570.335938 554.324219 570.128906 556.164062 C 561.03125 627.238281 480.257812 678.800781 374.671875 617.839844 L 364.320312 635.773438 C 363.148438 637.796875 360.914062 638.960938 358.582031 638.761719 C 356.257812 638.558594 354.253906 637.027344 353.453125 634.832031 L 319.960938 543.175781 C 319.167969 541.007812 319.417969 538.589844 320.636719 536.625 C 321.855469 534.664062 323.910156 533.367188 326.207031 533.117188 L 418.367188 522.996094 C 420.625 522.75 422.824219 523.792969 424.066406 525.691406 C 425.304688 527.589844 425.371094 530.027344 424.238281 531.988281 Z M 412.707031 551.964844 " fill-opacity="1" fill-rule="evenodd"/></g></svg>