<svg xmlns="http://www.w3.org/2000/svg" xmlns:xlink="http://www.w3.org/1999/xlink" width="1200" zoomAndPan="magnify" viewBox="0 0 900 899.99999" height="1200" preserveAspectRatio="xMidYMid meet" version="1.0"><defs><clipPath id="5c30e6b9fa"><path d="M 192.878906 90 L 775 90 L 775 810 L 192.878906 810 Z M 192.878906 90 " clip-rule="nonzero"/></clipPath></defs><g clip-path="url(#5c30e6b9fa)"><path fill="#ffffff" d="M 435.75 127.644531 C 430.632812 122.523438 421.71875 126.15625 421.71875 133.421875 C 421.71875 140.6875 430.632812 144.316406 435.75 139.199219 C 438.886719 136.0625 438.886719 130.78125 435.75 127.644531 Z M 429.972656 102.050781 C 457.875 102.050781 471.90625 135.898438 452.097656 155.542969 C 432.449219 175.191406 398.605469 161.15625 398.605469 133.421875 C 398.605469 116.085938 412.636719 102.050781 429.972656 102.050781 Z M 374.664062 168.753906 L 346.265625 168.753906 C 312.421875 168.753906 294.589844 210.027344 319.027344 234.460938 C 326.125 241.394531 335.699219 245.6875 346.265625 245.6875 L 513.511719 245.6875 C 547.359375 245.6875 565.1875 204.414062 540.753906 179.980469 C 533.65625 172.878906 524.078125 168.585938 513.511719 168.585938 L 485.117188 168.585938 C 477.355469 168.585938 471.578125 160.664062 474.382812 153.234375 C 485.28125 123.019531 462.992188 90 429.808594 90 C 400.417969 90 378.296875 116.582031 383.25 145.308594 C 384.074219 150.425781 386.054688 154.058594 386.054688 157.03125 C 386.222656 163.46875 380.9375 168.753906 374.664062 168.753906 Z M 417.425781 394.113281 C 410.984375 394.113281 405.867188 388.996094 405.867188 382.558594 C 405.867188 376.117188 410.984375 371 417.425781 371 L 529.363281 371 C 535.800781 371 540.917969 376.117188 540.917969 382.558594 C 540.917969 388.996094 535.800781 394.113281 529.363281 394.113281 Z M 417.425781 353.167969 C 410.984375 353.167969 405.867188 348.050781 405.867188 341.613281 C 405.867188 335.171875 410.984375 330.054688 417.425781 330.054688 L 495.847656 330.054688 C 502.285156 330.054688 507.402344 335.171875 507.402344 341.613281 C 507.402344 348.050781 502.285156 353.167969 495.847656 353.167969 Z M 417.425781 492.511719 C 410.984375 492.511719 405.867188 487.394531 405.867188 480.957031 C 405.867188 474.515625 410.984375 469.398438 417.425781 469.398438 L 495.847656 469.398438 C 502.285156 469.398438 507.402344 474.515625 507.402344 480.957031 C 507.402344 487.394531 502.285156 492.511719 495.847656 492.511719 Z M 376.316406 621.953125 L 370.042969 633.671875 L 382.589844 633.671875 Z M 346.265625 678.582031 C 343.296875 684.195312 336.359375 686.339844 330.746094 683.367188 C 325.132812 680.398438 322.988281 673.460938 325.960938 667.847656 L 366.242188 592.234375 C 370.535156 584.144531 382.257812 584.144531 386.550781 592.398438 L 426.835938 668.015625 C 429.808594 673.628906 427.660156 680.5625 422.046875 683.535156 C 416.433594 686.503906 409.5 684.359375 406.527344 678.746094 L 394.972656 657.117188 L 357.824219 657.117188 Z M 452.425781 646.882812 C 445.988281 646.882812 440.867188 641.761719 440.867188 635.324219 C 440.867188 628.886719 445.988281 623.765625 452.425781 623.765625 L 476.035156 623.765625 L 476.035156 600.160156 C 476.035156 593.71875 481.152344 588.601562 487.59375 588.601562 C 494.03125 588.601562 499.148438 593.71875 499.148438 600.160156 L 499.148438 623.765625 L 522.757812 623.765625 C 529.199219 623.765625 534.316406 628.886719 534.316406 635.324219 C 534.316406 641.761719 529.199219 646.882812 522.757812 646.882812 L 499.148438 646.882812 L 499.148438 670.492188 C 499.148438 676.929688 494.03125 682.046875 487.59375 682.046875 C 481.152344 682.046875 476.035156 676.929688 476.035156 670.492188 L 476.035156 646.882812 Z M 375.160156 324.605469 L 381.269531 320.148438 C 386.386719 316.351562 393.652344 317.507812 397.449219 322.460938 C 401.246094 327.578125 400.089844 334.84375 395.136719 338.640625 L 377.140625 352.011719 L 377.140625 390.8125 C 377.140625 402.699219 367.234375 412.605469 355.347656 412.605469 L 297.894531 412.605469 C 286.003906 412.605469 276.097656 402.699219 276.097656 390.8125 L 276.097656 333.355469 C 276.097656 321.304688 286.003906 311.5625 297.894531 311.5625 L 355.183594 311.5625 C 363.933594 311.5625 371.691406 316.847656 375.160156 324.605469 Z M 303.339844 365.222656 C 298.882812 360.761719 298.882812 353.335938 303.339844 348.875 C 307.796875 344.417969 315.226562 344.417969 319.6875 348.875 L 329.261719 358.453125 L 353.863281 340.292969 L 353.863281 334.511719 L 299.046875 334.511719 L 299.046875 389.324219 L 353.863281 389.324219 L 353.863281 368.851562 L 335.699219 382.226562 C 331.242188 386.1875 324.308594 386.023438 319.851562 381.730469 Z M 375.324219 464.445312 L 381.269531 460.152344 C 386.386719 456.355469 393.652344 457.511719 397.449219 462.464844 C 401.246094 467.417969 400.089844 474.847656 395.136719 478.644531 L 377.140625 492.019531 L 377.140625 530.320312 C 377.140625 542.207031 367.234375 552.113281 355.347656 552.113281 L 297.894531 552.113281 C 286.003906 552.113281 276.097656 542.207031 276.097656 530.320312 L 276.097656 472.867188 C 276.097656 460.8125 286.003906 451.074219 297.894531 451.074219 L 355.183594 451.074219 C 364.097656 450.90625 372.023438 456.355469 375.324219 464.445312 Z M 303.339844 505.226562 C 298.882812 500.769531 298.882812 493.503906 303.339844 488.882812 C 307.796875 484.421875 315.226562 484.421875 319.6875 488.882812 L 329.261719 498.457031 L 353.863281 480.296875 L 353.863281 474.023438 L 299.046875 474.023438 L 299.046875 528.835938 L 353.863281 528.835938 L 353.863281 509.023438 L 335.699219 522.394531 C 331.242188 526.359375 324.308594 526.195312 319.851562 521.902344 Z M 633.707031 315.527344 L 667.054688 272.105469 L 667.054688 230.832031 C 667.054688 207.550781 648.070312 188.566406 624.789062 188.566406 L 572.289062 188.566406 C 576.414062 201.441406 576.085938 215.476562 571.464844 228.1875 L 599.199219 228.1875 C 618.1875 228.1875 633.707031 243.707031 633.707031 262.695312 Z M 667.054688 413.925781 L 633.707031 457.347656 L 633.707031 735.707031 C 633.707031 754.691406 618.1875 770.210938 599.199219 770.210938 L 260.746094 770.210938 C 241.757812 770.210938 226.238281 754.691406 226.238281 735.707031 L 226.238281 262.695312 C 226.238281 243.707031 241.757812 228.1875 260.746094 228.1875 L 288.480469 228.1875 C 283.859375 215.476562 283.527344 201.441406 287.65625 188.566406 L 235.15625 188.566406 C 212.039062 188.566406 192.890625 207.550781 192.890625 230.832031 L 192.890625 767.734375 C 192.890625 791.011719 211.875 810 235.15625 810 L 624.957031 810 C 648.070312 810 667.222656 791.011719 667.222656 767.734375 L 667.222656 413.925781 Z M 544.386719 434.066406 C 544.882812 431.921875 545.871094 429.609375 547.191406 427.960938 L 610.589844 345.574219 L 610.589844 262.859375 C 610.589844 256.585938 605.472656 251.46875 599.199219 251.46875 L 556.605469 251.46875 C 545.542969 262.199219 530.351562 268.96875 513.679688 268.96875 L 346.265625 268.96875 C 329.59375 268.96875 314.566406 262.363281 303.339844 251.46875 L 260.746094 251.46875 C 254.472656 251.46875 249.351562 256.585938 249.351562 262.859375 L 249.351562 735.703125 C 249.351562 741.980469 254.472656 747.097656 260.746094 747.097656 L 599.199219 747.097656 C 605.472656 747.097656 610.589844 741.980469 610.589844 735.703125 L 610.589844 484.917969 L 536.132812 531.3125 C 534.316406 532.632812 531.839844 533.457031 529.363281 533.457031 L 417.425781 533.457031 C 410.984375 533.457031 405.867188 528.339844 405.867188 521.902344 C 405.867188 515.460938 410.984375 510.34375 417.425781 510.34375 L 520.777344 510.34375 Z M 553.46875 493.171875 L 550.824219 491.191406 L 549.503906 495.648438 Z M 557.925781 468.242188 C 563.703125 471.710938 568.988281 475.839844 573.941406 480.460938 L 588.964844 471.050781 C 582.195312 462.464844 573.277344 455.53125 563.207031 451.238281 Z M 727.976562 230.832031 L 760.007812 255.429688 L 769.914062 242.550781 C 780.644531 228.519531 769.253906 208.046875 751.257812 210.359375 C 746.136719 211.019531 741.183594 213.660156 737.882812 217.953125 Z M 739.039062 268.308594 L 611.417969 434.234375 C 607.453125 439.351562 600.355469 440.175781 595.238281 436.378906 C 590.121094 432.417969 589.292969 425.316406 593.089844 420.199219 L 720.714844 254.273438 L 713.777344 248.992188 L 688.1875 282.339844 C 687.859375 282.835938 687.527344 283.332031 687.03125 283.828125 L 631.722656 355.8125 C 631.394531 356.304688 631.0625 356.800781 630.570312 357.296875 L 573.941406 430.929688 C 586.320312 436.542969 597.382812 444.964844 605.96875 455.53125 L 745.808594 273.589844 Z M 739.039062 268.308594 " fill-opacity="1" fill-rule="nonzero"/></g></svg>