<svg xmlns="http://www.w3.org/2000/svg" xmlns:xlink="http://www.w3.org/1999/xlink" width="1200" zoomAndPan="magnify" viewBox="0 0 900 899.99999" height="1200" preserveAspectRatio="xMidYMid meet" version="1.0"><defs><clipPath id="130219721d"><path d="M 99 91.800781 L 811 91.800781 L 811 804 L 99 804 Z M 99 91.800781 " clip-rule="nonzero"/></clipPath></defs><g clip-path="url(#130219721d)"><path fill="#ffffff" d="M 648.632812 306.148438 C 644.511719 189.652344 550.851562 96.042969 434.355469 91.871094 L 434.355469 155.140625 C 440.359375 156.289062 445.582031 158.390625 450.675781 161.691406 C 474.011719 177.136719 477.992188 210.144531 457.742188 230.410156 C 451.515625 236.636719 443.445312 241.050781 434.355469 242.703125 L 434.355469 306.148438 L 505.148438 306.148438 C 509.644531 306.148438 513.265625 309.769531 513.265625 314.21875 C 513.265625 339.382812 543.847656 352.082031 561.640625 334.257812 C 566.765625 329.164062 569.9375 322.0625 569.9375 314.21875 C 569.9375 309.769531 573.558594 306.148438 578.054688 306.148438 Z M 203.890625 306.148438 L 267.207031 306.148438 C 273.628906 271.167969 317.039062 257.320312 342.445312 282.761719 C 348.722656 289.003906 353.121094 297.058594 354.785156 306.148438 L 418.183594 306.148438 L 418.183594 235.359375 C 418.183594 230.863281 421.808594 227.289062 426.304688 227.289062 C 451.46875 227.289062 464.132812 196.65625 446.339844 178.882812 C 441.214844 173.753906 434.148438 170.585938 426.304688 170.585938 C 421.808594 170.585938 418.183594 166.964844 418.183594 162.515625 L 418.183594 91.871094 C 301.722656 96.042969 208.0625 189.652344 203.890625 306.148438 Z M 191.792969 602.535156 C 187.570312 613.453125 184.773438 626.003906 183.042969 638.570312 C 181.570312 649.113281 165.625 646.867188 167.097656 636.371094 C 168.796875 624.128906 171.367188 612.304688 174.988281 601.582031 C 157.523438 588.417969 151.75 582.871094 138.503906 565.679688 C 123.738281 546.5625 112.320312 524.824219 104.070312 502.003906 C 90.046875 548.355469 111.6875 608.132812 123.1875 640.042969 C 135.332031 673.699219 139.878906 697.214844 137.679688 733.796875 L 223.492188 732.375 C 230.691406 692.441406 256.277344 679.101562 233.941406 634.640625 C 228.167969 623.222656 231.191406 612.046875 237.011719 600.984375 C 248.15625 579.621094 255.078125 564.222656 257.503906 553.160156 C 259.300781 545.089844 258.328125 540.269531 254.527344 537.617188 C 250.632812 534.769531 245.261719 535.691406 238.808594 539.265625 C 219.464844 549.859375 202.597656 578.050781 192.132812 601.890625 C 191.972656 602.117188 191.875 602.308594 191.792969 602.535156 Z M 181.476562 586.25 C 181.570312 586.121094 181.652344 586.023438 181.703125 585.878906 C 188.21875 572.488281 195.09375 561.3125 201.964844 552.191406 C 211.816406 539.074219 221.8125 530.144531 230.980469 525.101562 C 242.898438 518.550781 254.820312 517.855469 263.8125 524.40625 C 273.628906 531.328125 276.703125 541.273438 273.304688 556.636719 C 270.554688 569.058594 263.132812 585.699219 251.261719 608.441406 C 249.386719 612.015625 247.867188 615.539062 247.265625 618.9375 C 274.679688 626.3125 303.421875 627.734375 332.5 624.257812 L 332.5 557.285156 C 296.464844 550.863281 282.070312 506.160156 308.238281 479.992188 C 314.707031 473.523438 323.085938 468.996094 332.5 467.34375 L 332.5 401.375 L 259.152344 401.375 C 254.65625 401.375 251.035156 397.753906 251.035156 393.257812 C 251.035156 367.039062 219.222656 353.828125 200.65625 372.394531 C 195.285156 377.714844 191.988281 385.089844 191.988281 393.257812 C 191.988281 397.753906 188.363281 401.375 183.917969 401.375 L 109.8125 401.375 C 103.910156 472.425781 125.953125 542.519531 181.476562 586.25 Z M 238.597656 750.34375 L 116.703125 750.34375 C 114.730469 750.34375 113.175781 751.894531 113.175781 753.867188 L 113.175781 776.929688 C 113.175781 778.902344 114.824219 780.457031 116.703125 780.457031 L 238.597656 780.457031 C 240.523438 780.457031 242.171875 778.855469 242.171875 776.929688 L 242.171875 753.867188 C 242.171875 751.945312 240.523438 750.34375 238.597656 750.34375 Z M 559.648438 384.910156 C 586.0625 369.789062 614.976562 362.949219 643.3125 363.644531 C 646.386719 350.074219 648.164062 336.410156 648.632812 322.335938 L 585.367188 322.335938 C 578.945312 357.320312 535.535156 371.164062 510.097656 345.722656 C 503.851562 339.496094 499.453125 331.378906 497.804688 322.335938 L 434.355469 322.335938 L 434.355469 393.128906 C 434.355469 397.574219 430.734375 401.199219 426.285156 401.199219 C 401.121094 401.199219 388.425781 431.78125 406.25 449.570312 C 411.34375 454.699219 418.441406 457.917969 426.285156 457.917969 C 430.734375 457.917969 434.355469 461.539062 434.355469 465.988281 L 434.355469 536.632812 C 449.480469 536.082031 464.195312 534.058594 478.734375 530.582031 C 476.632812 471.988281 506.425781 415.6875 559.148438 385.203125 C 559.328125 385.089844 559.519531 384.992188 559.648438 384.910156 Z M 757.785156 685.375 L 722.304688 705.867188 L 772.359375 792.601562 C 782.757812 809.890625 805.691406 804.84375 810.1875 788.15625 C 811.789062 782.1875 810.785156 777.511719 807.890625 772.109375 Z M 667.199219 421.851562 C 610.402344 406.632812 552.128906 440.289062 536.910156 497.089844 C 521.691406 553.886719 555.347656 612.160156 612.148438 627.378906 C 638.460938 634.445312 667.445312 631.453125 692.882812 616.738281 L 692.882812 616.785156 C 718.46875 601.742188 735.289062 578.828125 742.4375 552.140625 C 757.65625 495.390625 723.953125 437.085938 667.199219 421.851562 Z M 578.914062 418.226562 C 637.539062 384.71875 712.324219 405.0625 745.785156 463.335938 C 779.621094 522.253906 759.535156 596.875 700.953125 630.710938 C 671.664062 647.628906 638.234375 651.070312 607.976562 642.953125 C 542.652344 625.484375 503.820312 558.238281 521.335938 492.898438 C 529.453125 462.589844 549.121094 435.402344 578.410156 418.488281 C 578.539062 418.421875 578.71875 418.324219 578.914062 418.226562 Z M 629.242188 591.214844 C 629.242188 580.574219 645.433594 580.574219 645.433594 591.214844 L 645.433594 596.4375 C 645.433594 607.082031 629.242188 607.082031 629.242188 596.4375 Z M 621.222656 499.742188 C 620.996094 510.382812 604.902344 510.058594 605.082031 499.417969 C 606.082031 451.464844 683.066406 450.914062 682.597656 500.417969 C 682.324219 527.378906 670.078125 534.578125 658.386719 541.449219 C 651.011719 545.800781 643.894531 549.972656 644.769531 565.386719 C 644.945312 569.835938 641.566406 573.585938 637.121094 573.828125 C 632.671875 574.054688 628.871094 570.660156 628.644531 566.210938 C 627.316406 541.09375 638.492188 534.449219 650.234375 527.558594 C 658.128906 522.933594 666.328125 518.0625 666.457031 500.273438 C 666.75 472.101562 621.769531 473.070312 621.222656 499.742188 Z M 765.808594 653.742188 L 755.714844 636.273438 C 743.117188 649.339844 731.101562 657.960938 715.460938 666.664062 L 715.414062 666.664062 L 715.1875 666.792969 C 703.445312 673.035156 691.203125 677.742188 678.328125 680.960938 L 688.421875 698.425781 C 690.441406 701.824219 694.890625 703.003906 698.316406 701.078125 L 763.1875 663.621094 C 766.550781 661.664062 767.78125 657.136719 765.808594 653.742188 Z M 664.453125 667.40625 L 664.453125 667.359375 C 680.042969 664.707031 693.613281 659.835938 707.683594 652.542969 L 707.683594 652.496094 L 707.859375 652.398438 L 716.480469 647.402344 C 781.351562 606.917969 804.867188 521.007812 765.128906 452.191406 C 745.140625 417.53125 713.003906 394.292969 677.148438 384.667969 C 599.855469 364 520.445312 409.785156 499.730469 487.125 C 479.058594 564.417969 524.894531 643.828125 602.183594 664.496094 C 622.273438 669.929688 643.539062 671.03125 664.453125 667.40625 Z M 498.808594 228.808594 C 493.484375 219.640625 507.425781 211.570312 512.75 220.738281 L 523.195312 238.804688 L 562.125 199.84375 C 569.644531 192.324219 581.113281 203.789062 573.542969 211.308594 L 527.191406 257.660156 C 523.4375 261.382812 517.148438 260.589844 514.496094 256.011719 Z M 323.554688 235.308594 C 316.035156 242.832031 304.617188 231.414062 312.136719 223.890625 L 329.605469 206.425781 L 312.136719 188.957031 C 304.617188 181.390625 316.035156 169.972656 323.554688 177.492188 L 341.023438 194.957031 L 358.539062 177.492188 C 366.058594 169.972656 377.476562 181.390625 369.957031 188.957031 L 352.488281 206.425781 L 369.957031 223.890625 C 377.476562 231.414062 366.058594 242.832031 358.539062 235.308594 L 341.023438 217.84375 Z M 323.554688 235.308594 " fill-opacity="1" fill-rule="nonzero"/></g></svg>