<svg xmlns="http://www.w3.org/2000/svg" xmlns:xlink="http://www.w3.org/1999/xlink" width="1200" zoomAndPan="magnify" viewBox="0 0 900 899.99999" height="1200" preserveAspectRatio="xMidYMid meet" version="1.0"><defs><clipPath id="3de19e3877"><path d="M 57.382812 51 L 809.632812 51 L 809.632812 817 L 57.382812 817 Z M 57.382812 51 " clip-rule="nonzero"/></clipPath></defs><g clip-path="url(#3de19e3877)"><path fill="#ffffff" d="M 636.078125 186.355469 L 641.378906 182.742188 C 641.722656 182.507812 642.101562 182.425781 642.515625 182.492188 C 652.558594 184.136719 664.175781 182.871094 671.339844 175.707031 C 678.652344 168.394531 681.933594 157.976562 680.136719 147.796875 C 680.136719 147.796875 678.007812 137.644531 686.921875 130.515625 C 699.921875 120.117188 706.984375 107.40625 698.914062 94.515625 C 698.011719 93.078125 696.882812 91.707031 695.742188 90.257812 C 695.222656 89.59375 694.269531 89.460938 693.589844 89.957031 L 608.640625 151.753906 C 608.28125 152.015625 608.070312 152.375 608.007812 152.8125 C 607.949219 153.253906 608.0625 153.652344 608.339844 154 C 616.882812 164.679688 625.425781 175.355469 633.972656 186.039062 C 634.484375 186.679688 635.398438 186.816406 636.078125 186.355469 Z M 216.421875 816.316406 L 395.953125 816.316406 C 396.8125 816.316406 397.519531 815.613281 397.519531 814.75 L 397.519531 666.148438 C 397.519531 665.285156 396.8125 664.582031 395.953125 664.582031 L 216.421875 664.582031 C 215.558594 664.582031 214.855469 665.285156 214.855469 666.148438 L 214.855469 814.75 C 214.855469 815.613281 215.558594 816.316406 216.421875 816.316406 Z M 628.785156 816.316406 L 808.3125 816.316406 C 809.175781 816.316406 809.882812 815.613281 809.882812 814.75 L 809.882812 336.261719 C 809.882812 335.398438 809.175781 334.691406 808.3125 334.691406 L 628.785156 334.691406 C 627.921875 334.691406 627.21875 335.398438 627.21875 336.261719 L 627.21875 814.753906 C 627.21875 815.613281 627.921875 816.316406 628.785156 816.316406 Z M 422.605469 816.316406 L 602.132812 816.316406 C 602.996094 816.316406 603.699219 815.613281 603.699219 814.75 L 603.699219 501.207031 C 603.699219 500.34375 602.996094 499.636719 602.132812 499.636719 L 422.605469 499.636719 C 421.742188 499.636719 421.035156 500.34375 421.035156 501.207031 L 421.035156 814.75 C 421.035156 815.613281 421.742188 816.316406 422.605469 816.316406 Z M 353.949219 92.226562 C 352.273438 98.492188 345.839844 102.214844 339.574219 100.542969 C 333.308594 98.867188 329.585938 92.429688 331.257812 86.164062 L 338.21875 60.203125 C 339.890625 53.9375 346.328125 50.214844 352.59375 51.890625 C 358.859375 53.566406 362.582031 60 360.90625 66.265625 Z M 419.160156 153.582031 C 413.554688 156.828125 406.378906 154.917969 403.132812 149.3125 C 399.886719 143.703125 401.796875 136.527344 407.402344 133.28125 L 430.679688 119.84375 C 436.285156 116.597656 443.464844 118.507812 446.710938 124.113281 C 449.957031 129.71875 448.042969 136.898438 442.4375 140.144531 Z M 203.074219 160.15625 C 209.339844 161.828125 213.0625 168.269531 211.386719 174.53125 C 209.710938 180.796875 203.277344 184.519531 197.011719 182.847656 L 171.050781 175.890625 C 164.785156 174.214844 161.0625 167.78125 162.738281 161.515625 C 164.410156 155.25 170.847656 151.527344 177.113281 153.203125 Z M 264.429688 94.988281 C 267.648438 100.597656 265.71875 107.753906 260.109375 110.972656 C 254.503906 114.195312 247.347656 112.261719 244.128906 106.65625 L 230.6875 83.378906 C 227.464844 77.773438 229.398438 70.617188 235.003906 67.398438 C 240.613281 64.175781 247.769531 66.109375 250.988281 71.714844 Z M 313.367188 140.480469 C 347.527344 140.480469 375.222656 168.171875 375.222656 202.332031 C 375.222656 236.496094 347.527344 264.1875 313.367188 264.1875 C 279.207031 264.1875 251.515625 236.496094 251.515625 202.332031 C 251.515625 168.171875 279.207031 140.480469 313.367188 140.480469 Z M 157.859375 261.472656 L 217.40625 261.472656 C 225.179688 261.472656 231.519531 267.8125 231.519531 275.582031 L 231.519531 283.613281 C 231.519531 284.046875 231.671875 284.417969 231.976562 284.722656 C 232.285156 285.03125 232.65625 285.183594 233.089844 285.183594 L 319.140625 284.945312 C 319.960938 284.941406 320.640625 285.566406 320.707031 286.386719 C 333.738281 440.335938 366.511719 487.433594 297.488281 640.140625 C 297.226562 640.71875 296.6875 641.066406 296.054688 641.066406 L 192.90625 641.066406 C 192.042969 641.066406 191.339844 641.769531 191.339844 642.632812 L 191.339844 687.375 C 191.339844 688.175781 190.746094 688.84375 189.949219 688.933594 C 162.230469 692.089844 136.851562 692.984375 116.660156 693.046875 C 116.121094 693.046875 115.664062 692.804688 115.359375 692.363281 C 115.058594 691.921875 115 691.40625 115.191406 690.910156 L 162.8125 568.566406 C 163.003906 568.070312 162.945312 567.554688 162.644531 567.113281 C 162.34375 566.671875 161.882812 566.429688 161.351562 566.429688 L 100.003906 566.429688 C 76.503906 566.429688 57.320312 547.246094 57.320312 523.746094 L 57.320312 327.875 C 57.320312 304.371094 76.503906 285.1875 100.003906 285.1875 L 142.179688 285.1875 C 143.042969 285.1875 143.746094 284.484375 143.746094 283.621094 L 143.746094 275.585938 C 143.746094 267.8125 150.085938 261.472656 157.859375 261.472656 Z M 227.453125 309.585938 C 220.875 323.078125 207.011719 332.414062 191.039062 332.414062 L 184.226562 332.414062 C 168.25 332.414062 154.386719 323.078125 147.8125 309.585938 C 147.542969 309.035156 147.015625 308.703125 146.402344 308.703125 L 100.003906 308.703125 C 89.488281 308.703125 80.835938 317.351562 80.835938 327.875 L 80.835938 523.746094 C 80.835938 534.265625 89.484375 542.914062 100.003906 542.914062 L 275.261719 542.914062 C 285.78125 542.914062 294.429688 534.265625 294.429688 523.746094 L 294.429688 327.875 C 294.429688 317.355469 285.78125 308.703125 275.261719 308.703125 L 228.863281 308.703125 C 228.246094 308.703125 227.722656 309.035156 227.453125 309.585938 Z M 110.394531 400.535156 L 127.449219 416.589844 C 132.910156 421.730469 141.980469 420.738281 145.996094 413.261719 C 146.003906 413.25 146.011719 413.234375 146.019531 413.21875 L 169.175781 373.113281 C 172.394531 367.507812 170.460938 360.351562 164.855469 357.128906 C 159.253906 353.910156 152.09375 355.839844 148.871094 361.449219 L 133.746094 387.648438 C 133.5 388.074219 133.105469 388.34375 132.617188 388.414062 C 132.128906 388.484375 131.675781 388.34375 131.3125 388.003906 L 126.472656 383.441406 C 121.753906 379.003906 114.328125 379.230469 109.890625 383.949219 C 105.449219 388.667969 105.675781 396.09375 110.394531 400.535156 Z M 201.453125 494.03125 L 242.6875 494.03125 C 249.183594 494.03125 254.445312 488.769531 254.445312 482.273438 C 254.445312 475.78125 249.183594 470.515625 242.6875 470.515625 L 201.453125 470.515625 C 194.957031 470.515625 189.695312 475.78125 189.695312 482.273438 C 189.695312 488.765625 194.957031 494.03125 201.453125 494.03125 Z M 203.09375 399.421875 L 244.332031 399.421875 C 250.824219 399.421875 256.089844 394.160156 256.089844 387.664062 C 256.089844 381.171875 250.824219 375.90625 244.332031 375.90625 L 203.09375 375.90625 C 196.601562 375.90625 191.335938 381.171875 191.335938 387.664062 C 191.335938 394.15625 196.601562 399.421875 203.09375 399.421875 Z M 112.585938 495.140625 L 129.640625 511.199219 C 135.097656 516.335938 144.171875 515.347656 148.1875 507.871094 C 148.195312 507.855469 148.203125 507.84375 148.210938 507.828125 L 171.363281 467.722656 C 174.585938 462.117188 172.65625 454.960938 167.046875 451.738281 C 161.441406 448.515625 154.285156 450.449219 151.0625 456.054688 L 135.9375 482.257812 C 135.6875 482.6875 135.296875 482.953125 134.808594 483.023438 C 134.316406 483.097656 133.863281 482.953125 133.503906 482.613281 L 128.660156 478.054688 C 123.941406 473.613281 116.515625 473.839844 112.078125 478.558594 C 107.640625 483.277344 107.867188 490.703125 112.585938 495.140625 Z M 470.894531 474.699219 C 470.816406 475.507812 470.144531 476.121094 469.332031 476.121094 L 408.523438 476.121094 C 408.066406 476.121094 407.675781 475.949219 407.367188 475.613281 C 407.058594 475.277344 406.921875 474.871094 406.960938 474.417969 C 409.613281 443.574219 414.039062 417.625 360.492188 286.683594 C 360.308594 286.242188 360.328125 285.785156 360.550781 285.363281 C 360.769531 284.9375 361.132812 284.660156 361.597656 284.558594 C 383.738281 279.609375 408.464844 265.269531 440.425781 246.621094 C 467.746094 230.679688 513.484375 204.0625 583.363281 163.605469 C 584.039062 163.210938 584.886719 163.371094 585.371094 163.980469 C 612.300781 197.644531 625.765625 214.472656 625.765625 214.472656 C 529.550781 310.691406 481.441406 358.800781 481.441406 358.800781 C 462.773438 381.828125 459.320312 419.546875 471.078125 471.957031 C 471.117188 472.125 471.125 472.277344 471.109375 472.449219 Z M 470.894531 474.699219 " fill-opacity="1" fill-rule="evenodd"/></g></svg>