<svg xmlns="http://www.w3.org/2000/svg" xmlns:xlink="http://www.w3.org/1999/xlink" width="1200" zoomAndPan="magnify" viewBox="0 0 900 899.99999" height="1200" preserveAspectRatio="xMidYMid meet" version="1.0"><path fill="#ffffff" d="M 507.574219 709.546875 L 369.601562 709.546875 L 369.601562 721.347656 C 369.601562 723.164062 369.601562 725.886719 369.601562 728.609375 C 369.601562 728.609375 369.601562 729.515625 369.601562 729.515625 L 507.574219 729.515625 C 507.574219 723.164062 507.574219 717.714844 507.574219 711.363281 C 507.574219 710.453125 507.574219 709.546875 507.574219 709.546875 Z M 507.574219 709.546875 " fill-opacity="1" fill-rule="nonzero"/><path fill="#ffffff" d="M 372.324219 752.210938 C 377.773438 765.824219 391.386719 775.808594 409.542969 780.347656 C 409.542969 784.886719 411.359375 792.148438 415.894531 798.503906 C 421.34375 803.949219 428.605469 807.582031 437.679688 807.582031 C 446.757812 807.582031 454.929688 804.855469 459.464844 799.410156 C 464.914062 793.964844 466.726562 786.703125 467.636719 782.164062 C 471.265625 781.257812 474.898438 780.347656 478.527344 779.441406 C 489.421875 774.902344 497.589844 766.734375 503.035156 755.839844 C 504.851562 752.210938 505.761719 748.578125 506.667969 744.949219 L 369.601562 744.949219 C 370.511719 745.855469 370.511719 749.488281 372.324219 752.210938 Z M 434.050781 783.074219 C 436.773438 783.074219 438.589844 783.074219 441.3125 783.074219 L 445.851562 783.074219 C 448.574219 783.074219 451.296875 783.074219 454.019531 783.074219 C 453.113281 784.886719 452.203125 786.703125 451.296875 788.519531 C 448.574219 791.242188 444.941406 793.058594 439.496094 793.058594 C 434.050781 793.058594 430.417969 792.148438 428.605469 789.425781 C 426.789062 787.609375 426.789062 785.796875 425.882812 783.074219 C 427.695312 783.074219 430.417969 783.074219 434.050781 783.074219 Z M 434.050781 783.074219 " fill-opacity="1" fill-rule="nonzero"/><path fill="#ffffff" d="M 369.601562 681.40625 L 369.601562 695.023438 L 507.574219 695.023438 L 507.574219 681.40625 Z M 369.601562 681.40625 " fill-opacity="1" fill-rule="nonzero"/><path fill="#ffffff" d="M 209.84375 360.078125 L 129.964844 331.9375 C 122.703125 329.214844 114.535156 333.753906 111.8125 341.015625 C 109.089844 348.277344 113.628906 356.445312 120.890625 359.167969 L 200.769531 387.308594 C 202.582031 388.214844 203.492188 388.214844 205.304688 388.214844 C 211.660156 388.214844 217.105469 384.585938 218.921875 378.230469 C 221.644531 370.0625 218.015625 361.890625 209.84375 360.078125 Z M 209.84375 360.078125 " fill-opacity="1" fill-rule="nonzero"/><path fill="#ffffff" d="M 267.9375 242.980469 C 270.660156 246.613281 274.292969 247.519531 278.832031 247.519531 C 282.460938 247.519531 285.183594 246.613281 287.910156 243.890625 C 294.261719 238.441406 294.261719 229.367188 289.722656 223.917969 L 234.351562 159.472656 C 228.90625 153.117188 219.828125 153.117188 214.382812 157.65625 C 208.03125 163.101562 208.03125 172.179688 212.566406 177.625 Z M 267.9375 242.980469 " fill-opacity="1" fill-rule="nonzero"/><path fill="#ffffff" d="M 434.957031 188.519531 C 443.128906 188.519531 449.480469 182.164062 449.480469 173.996094 L 448.574219 88.671875 C 448.574219 80.5 442.21875 74.148438 434.050781 74.148438 C 425.882812 74.148438 419.527344 80.5 419.527344 88.671875 L 420.433594 173.996094 C 420.433594 182.164062 426.789062 188.519531 434.957031 188.519531 Z M 434.957031 188.519531 " fill-opacity="1" fill-rule="nonzero"/><path fill="#ffffff" d="M 658.257812 156.75 C 651.902344 152.210938 642.824219 153.117188 638.285156 159.472656 L 586.546875 227.550781 C 582.007812 233.90625 582.914062 242.980469 589.269531 247.519531 C 591.992188 249.335938 594.714844 250.242188 598.347656 250.242188 C 602.886719 250.242188 606.515625 248.429688 610.148438 244.796875 L 661.886719 176.71875 C 665.519531 170.363281 664.609375 161.289062 658.257812 156.75 Z M 658.257812 156.75 " fill-opacity="1" fill-rule="nonzero"/><path fill="#ffffff" d="M 772.628906 347.367188 C 770.8125 340.105469 762.644531 334.660156 755.382812 336.476562 L 672.78125 357.355469 C 665.519531 359.167969 660.070312 367.339844 661.886719 374.601562 C 663.703125 380.953125 669.148438 385.492188 675.503906 385.492188 C 676.410156 385.492188 678.226562 385.492188 679.132812 385.492188 L 761.734375 364.617188 C 769.90625 362.800781 774.445312 355.539062 772.628906 347.367188 Z M 772.628906 347.367188 " fill-opacity="1" fill-rule="nonzero"/><path fill="#ffffff" d="M 442.21875 252.058594 C 340.554688 252.058594 257.046875 335.570312 257.046875 437.234375 C 257.046875 489.878906 279.738281 539.804688 318.769531 575.207031 C 318.769531 575.207031 319.679688 576.113281 319.679688 576.113281 C 319.679688 576.113281 333.292969 586.097656 331.480469 603.34375 C 331.480469 606.976562 330.570312 609.699219 329.664062 613.328125 C 326.941406 628.761719 324.21875 648.730469 336.925781 663.253906 L 422.25 663.253906 C 423.15625 662.347656 446.757812 636.023438 434.050781 574.296875 C 433.144531 568.851562 436.773438 563.40625 442.21875 561.589844 C 447.667969 560.683594 454.019531 564.3125 454.929688 569.757812 C 464.914062 616.960938 455.835938 647.824219 446.757812 664.160156 L 540.253906 664.160156 C 553.867188 651.453125 559.316406 632.390625 554.777344 607.882812 C 550.238281 584.28125 567.484375 573.390625 569.300781 571.574219 C 570.207031 570.667969 571.117188 569.757812 572.023438 568.851562 C 607.425781 533.449219 626.484375 487.15625 626.484375 438.140625 C 627.394531 334.660156 543.882812 252.058594 442.21875 252.058594 Z M 435.867188 379.140625 C 434.957031 378.230469 433.144531 378.230469 431.328125 379.140625 C 414.082031 383.675781 404.097656 364.617188 403.1875 363.707031 C 401.371094 360.078125 396.835938 359.167969 393.203125 360.984375 C 389.574219 362.800781 388.664062 367.339844 390.480469 370.96875 C 395.019531 380.046875 407.726562 394.570312 425.882812 394.570312 C 428.605469 394.570312 431.328125 394.570312 434.957031 393.664062 C 434.957031 393.664062 434.957031 393.664062 435.867188 393.664062 L 435.867188 554.328125 C 430.417969 558.867188 413.171875 570.667969 398.648438 564.3125 C 381.402344 556.144531 381.402344 537.082031 381.402344 536.171875 C 381.402344 536.171875 381.402344 535.265625 381.402344 535.265625 L 403.1875 506.21875 C 406.820312 501.679688 414.988281 506.21875 414.988281 506.21875 C 418.621094 508.035156 423.15625 507.125 424.972656 503.496094 C 426.789062 499.863281 425.882812 495.328125 422.25 493.511719 C 417.710938 490.789062 410.449219 488.066406 403.1875 489.878906 C 402.28125 480.804688 398.648438 469.910156 392.296875 465.371094 C 389.574219 462.648438 385.035156 463.554688 382.3125 467.1875 C 379.585938 470.816406 380.496094 474.449219 384.125 477.171875 C 387.757812 479.894531 389.574219 491.695312 390.480469 499.863281 L 368.695312 528.003906 C 368.695312 528.910156 367.789062 528.910156 367.789062 529.820312 C 362.339844 529.820312 353.265625 528.910156 346.910156 518.019531 C 337.832031 500.773438 345.09375 484.433594 346.003906 483.527344 C 347.816406 479.894531 346.003906 476.265625 343.277344 474.449219 C 335.109375 469.910156 326.03125 461.742188 327.847656 439.957031 C 328.753906 424.523438 344.1875 414.539062 349.632812 410.910156 C 357.800781 411.816406 373.234375 416.355469 380.496094 424.523438 C 374.140625 429.0625 370.511719 434.507812 367.789062 439.957031 C 365.972656 443.585938 367.789062 448.125 371.417969 449.03125 C 372.324219 449.941406 373.234375 449.941406 374.140625 449.941406 C 376.863281 449.941406 379.585938 448.125 380.496094 446.308594 C 381.402344 444.496094 389.574219 428.15625 405.910156 434.507812 C 409.542969 436.324219 414.082031 434.507812 414.988281 430.878906 C 416.804688 427.246094 414.988281 422.710938 411.359375 421.800781 C 405.003906 419.078125 399.558594 419.078125 394.109375 419.984375 C 384.125 404.554688 359.617188 400.015625 351.449219 398.199219 C 349.632812 395.476562 345.09375 389.125 350.539062 374.601562 C 357.800781 355.539062 381.402344 353.722656 382.3125 353.722656 C 385.035156 353.722656 387.757812 351.90625 388.664062 349.183594 C 394.109375 335.570312 402.28125 328.308594 410.449219 325.582031 C 420.433594 322.859375 431.328125 328.308594 435.867188 331.9375 Z M 561.128906 449.03125 C 560.222656 452.664062 558.40625 456.292969 555.683594 460.832031 C 553.867188 462.648438 545.699219 467.1875 538.4375 469.910156 C 534.808594 470.816406 532.992188 473.542969 532.992188 476.265625 C 532.992188 479.894531 535.714844 483.527344 537.53125 487.15625 C 539.34375 489.878906 541.160156 492.601562 542.070312 494.417969 C 543.882812 502.589844 542.070312 511.664062 537.53125 518.019531 C 533.898438 523.464844 527.546875 526.1875 521.191406 527.097656 C 519.375 527.097656 518.46875 527.097656 517.558594 527.097656 C 516.652344 518.925781 513.023438 508.035156 503.035156 500.773438 C 505.761719 496.234375 508.484375 491.695312 511.207031 485.339844 C 513.023438 481.710938 511.207031 477.171875 507.574219 476.265625 C 503.945312 474.449219 499.40625 476.265625 498.5 479.894531 C 489.421875 499.863281 482.160156 504.402344 477.621094 506.21875 C 473.988281 507.125 472.175781 506.21875 471.265625 506.21875 C 467.636719 504.402344 464.003906 505.3125 461.28125 508.941406 C 459.464844 512.574219 460.375 517.113281 464.003906 518.925781 C 464.914062 518.925781 468.542969 521.648438 473.988281 521.648438 C 475.804688 521.648438 478.527344 521.648438 481.25 520.742188 C 485.789062 518.925781 489.421875 516.203125 493.960938 512.574219 C 504.851562 519.835938 503.945312 531.636719 503.945312 533.449219 C 503.945312 534.359375 503.945312 535.265625 503.945312 535.265625 C 502.128906 537.988281 501.222656 540.710938 499.40625 543.433594 C 494.867188 551.605469 493.050781 557.050781 483.976562 560.683594 C 470.359375 567.035156 456.742188 557.050781 451.296875 553.421875 L 451.296875 458.109375 C 460.375 470.816406 470.359375 477.171875 482.160156 477.171875 C 483.066406 477.171875 483.066406 477.171875 483.976562 477.171875 C 486.699219 477.171875 488.511719 475.355469 489.421875 473.542969 C 490.328125 471.726562 491.238281 469.003906 489.421875 467.1875 C 489.421875 467.1875 480.34375 446.308594 488.511719 434.507812 C 491.238281 430.878906 490.328125 427.246094 486.699219 424.523438 C 483.066406 421.800781 479.4375 422.710938 476.714844 426.339844 C 468.542969 437.234375 469.453125 450.847656 472.175781 460.832031 C 462.191406 455.386719 456.742188 441.769531 454.019531 436.324219 L 453.113281 434.507812 C 452.203125 431.785156 451.296875 430.878906 450.390625 430.878906 L 450.390625 328.308594 C 463.097656 313.785156 480.34375 321.953125 481.25 322.859375 C 492.144531 330.121094 494.867188 338.292969 492.144531 349.183594 C 491.238281 352.816406 493.050781 356.445312 495.773438 357.355469 C 498.5 359.167969 503.035156 358.261719 504.851562 355.539062 C 506.667969 352.816406 510.296875 351.90625 513.023438 351.90625 C 523.007812 352.816406 533.898438 364.617188 536.621094 374.601562 C 537.53125 378.230469 537.53125 390.9375 536.621094 397.292969 C 528.453125 395.476562 517.558594 395.476562 509.390625 400.925781 C 501.222656 392.753906 491.238281 390.03125 490.328125 389.125 C 486.699219 388.214844 482.160156 390.03125 481.25 393.664062 C 480.34375 397.292969 482.160156 401.832031 485.789062 402.738281 C 485.789062 402.738281 496.683594 406.371094 503.035156 415.449219 C 505.761719 419.078125 506.667969 422.710938 507.574219 426.339844 C 507.574219 429.972656 511.207031 432.695312 514.835938 432.695312 C 514.835938 432.695312 514.835938 432.695312 515.746094 432.695312 C 519.375 432.695312 523.007812 429.0625 522.097656 425.433594 C 522.097656 420.894531 520.285156 416.355469 518.46875 411.816406 C 523.914062 409.09375 532.992188 410 536.621094 411.816406 C 540.253906 414.539062 549.332031 423.617188 550.238281 424.523438 C 559.316406 434.507812 562.945312 441.769531 561.128906 449.03125 Z M 561.128906 449.03125 " fill-opacity="1" fill-rule="nonzero"/></svg>