<svg xmlns="http://www.w3.org/2000/svg" xmlns:xlink="http://www.w3.org/1999/xlink" width="1200" zoomAndPan="magnify" viewBox="0 0 900 899.99999" height="1200" preserveAspectRatio="xMidYMid meet" version="1.0"><defs><clipPath id="a8462dd8aa"><path d="M 183 67.996094 L 716.878906 67.996094 L 716.878906 809.746094 L 183 809.746094 Z M 183 67.996094 " clip-rule="nonzero"/></clipPath></defs><g clip-path="url(#a8462dd8aa)"><path fill="#ffffff" d="M 348.988281 314.964844 C 330.980469 292.175781 303.101562 277.488281 271.984375 277.488281 C 237.585938 277.488281 207.167969 295.445312 189.628906 322.402344 C 188.753906 323.730469 187.199219 324.28125 185.679688 323.792969 C 184.191406 323.308594 183.253906 321.949219 183.320312 320.363281 C 190.378906 186.007812 297.941406 77.132812 431.753906 67.996094 C 368.457031 135.074219 351.609375 248.105469 348.988281 314.964844 Z M 468.285156 68 C 602.101562 77.160156 709.640625 186.023438 716.667969 320.363281 C 716.765625 321.949219 715.828125 323.308594 714.304688 323.792969 C 712.816406 324.3125 711.230469 323.730469 710.390625 322.433594 C 692.851562 295.445312 662.433594 277.488281 628.035156 277.488281 C 596.914062 277.488281 569.074219 292.152344 551.066406 314.914062 C 548.066406 231.617188 525.519531 128.808594 468.285156 68 Z M 526.25 314.023438 C 508.230469 291.773438 480.710938 277.488281 449.992188 277.488281 C 419.335938 277.488281 391.84375 291.746094 373.800781 313.960938 C 376.320312 251.042969 391.175781 146.375 450.015625 84.714844 C 503.339844 140.765625 523.316406 236.351562 526.25 314.023438 Z M 494.285156 402.175781 C 513.917969 406.839844 532.636719 414.597656 549.84375 425.199219 L 585.953125 409.144531 L 628.484375 451.675781 L 612.492188 487.785156 C 623.09375 504.992188 630.851562 523.714844 635.515625 543.40625 L 672.351562 557.582031 L 672.351562 617.746094 L 635.515625 631.925781 C 630.851562 651.554688 623.035156 670.277344 612.492188 687.484375 L 628.484375 723.59375 L 585.953125 766.125 L 549.84375 750.128906 C 532.699219 760.734375 513.917969 768.488281 494.285156 773.15625 L 480.105469 809.992188 L 419.945312 809.992188 L 405.765625 773.15625 C 386.074219 768.488281 367.351562 760.671875 350.144531 750.128906 L 314.035156 766.125 L 271.503906 723.59375 L 287.558594 687.484375 C 276.957031 670.335938 269.203125 651.554688 264.476562 631.925781 L 227.636719 617.746094 L 227.636719 557.582031 L 264.476562 543.40625 C 269.203125 523.714844 276.957031 504.992188 287.558594 487.785156 L 271.503906 451.675781 L 314.035156 409.144531 L 350.144531 425.199219 C 367.351562 414.597656 386.074219 406.839844 405.707031 402.175781 L 419.945312 365.277344 L 480.105469 365.277344 Z M 449.984375 441.207031 C 369.082031 441.207031 303.566406 506.722656 303.566406 587.625 C 303.566406 668.523438 369.082031 734.125 449.984375 734.125 C 530.886719 734.125 596.484375 668.523438 596.484375 587.625 C 596.484375 506.722656 530.886719 441.207031 449.984375 441.207031 Z M 466.1875 490.1875 L 551.65625 638.1875 C 555.042969 644.070312 555.042969 650.988281 551.65625 656.875 C 548.25 662.742188 542.257812 666.21875 535.460938 666.21875 L 364.570312 666.21875 C 357.796875 666.21875 351.785156 662.742188 348.398438 656.875 C 345.011719 650.988281 345.011719 644.070312 348.398438 638.1875 L 433.84375 490.1875 C 437.230469 484.304688 443.242188 480.847656 450.015625 480.847656 C 456.8125 480.847656 462.800781 484.304688 466.1875 490.1875 Z M 450.027344 604.601562 C 456.152344 604.601562 461.183594 599.761719 461.402344 593.632812 L 463.320312 540.363281 C 463.441406 537.160156 462.375 534.363281 460.140625 532.050781 C 457.925781 529.742188 455.15625 528.574219 451.945312 528.574219 L 448.105469 528.574219 C 444.898438 528.574219 442.15625 529.738281 439.917969 532.042969 L 439.90625 532.058594 C 437.699219 534.359375 436.632812 537.144531 436.730469 540.339844 C 436.730469 540.347656 436.730469 540.355469 436.730469 540.363281 L 438.664062 593.636719 C 438.886719 599.761719 443.898438 604.601562 450.027344 604.601562 Z M 450.027344 634.296875 C 457.46875 634.296875 463.535156 628.230469 463.535156 620.789062 C 463.535156 613.34375 457.46875 607.277344 450.027344 607.277344 C 442.582031 607.277344 436.515625 613.34375 436.515625 620.789062 C 436.515625 628.230469 442.582031 634.296875 450.027344 634.296875 Z M 450.027344 634.296875 " fill-opacity="1" fill-rule="evenodd"/></g></svg>