<svg xmlns="http://www.w3.org/2000/svg" xmlns:xlink="http://www.w3.org/1999/xlink" width="1200" zoomAndPan="magnify" viewBox="0 0 900 899.99999" height="1200" preserveAspectRatio="xMidYMid meet" version="1.0"><defs><clipPath id="e26aca8750"><path d="M 96 90 L 806 90 L 806 811.5 L 96 811.5 Z M 96 90 " clip-rule="nonzero"/></clipPath></defs><g clip-path="url(#e26aca8750)"><path fill="#ffffff" d="M 505.289062 810.640625 C 502.933594 811.3125 500.527344 811.613281 498.078125 811.535156 C 480.15625 810.820312 467.566406 788.148438 470.027344 760.90625 C 473.253906 729.691406 476.691406 698.417969 480.335938 667.085938 C 480.980469 661.101562 482.164062 655.226562 483.886719 649.460938 C 485.605469 643.691406 487.835938 638.128906 490.570312 632.769531 C 493.308594 627.410156 496.507812 622.34375 500.171875 617.570312 C 503.835938 612.792969 507.902344 608.390625 512.371094 604.359375 L 518.105469 599.386719 C 533.695312 585.527344 549.378906 570.84375 565.148438 555.34375 C 584.238281 536.644531 604.652344 517.976562 626.398438 499.335938 C 638.898438 488.628906 657.761719 486.386719 668.15625 494.230469 C 678.328125 501.933594 675.683594 516.988281 663.675781 527.875 C 640.914062 548.128906 619.632812 568.457031 599.828125 588.855469 C 606.730469 584.867188 613.761719 580.925781 620.886719 576.9375 C 662.152344 553.773438 699.699219 515.554688 715.785156 474.695312 L 730.300781 437.28125 C 736.257812 421.734375 757.675781 409.1875 778.332031 409.234375 C 798.984375 409.277344 810.007812 421.691406 803.019531 437.191406 C 794.058594 457.292969 785.097656 477.410156 776.136719 497.542969 C 752.882812 549.652344 708.433594 600.59375 661.570312 640.472656 C 651.921875 648.625 642.585938 656.796875 633.566406 664.980469 C 620.191406 677.015625 608.164062 690.269531 597.480469 704.75 C 586.796875 719.226562 577.675781 734.628906 570.125 750.960938 C 556.144531 780.308594 534.28125 802.753906 513.3125 808.488281 Z M 396.59375 810.640625 L 388.617188 808.535156 C 367.695312 802.800781 345.785156 780.351562 331.851562 751.003906 C 324.28125 734.679688 315.148438 719.277344 304.460938 704.800781 C 293.769531 690.324219 281.738281 677.066406 268.363281 665.023438 C 259.402344 656.808594 250.066406 648.640625 240.359375 640.515625 C 193.496094 600.773438 149.046875 549.695312 125.792969 497.722656 C 116.832031 477.621094 107.871094 457.503906 98.910156 437.371094 C 92.054688 421.554688 102.988281 409.324219 123.824219 409.277344 C 144.65625 409.234375 165.894531 421.777344 171.855469 437.328125 L 186.371094 474.738281 C 202.457031 515.601562 240.136719 553.820312 281.265625 576.984375 C 288.390625 580.96875 295.425781 584.914062 302.324219 588.902344 C 282.519531 568.53125 261.238281 548.203125 238.476562 527.921875 C 226.246094 517.035156 223.601562 501.980469 233.773438 494.273438 C 244.078125 486.433594 263.03125 488.671875 275.53125 499.382812 C 297.308594 518.019531 317.722656 536.6875 336.78125 555.386719 C 352.519531 570.710938 368.15625 585.375 383.691406 599.386719 L 389.425781 604.539062 C 393.894531 608.570312 397.960938 612.972656 401.621094 617.746094 C 405.285156 622.523438 408.484375 627.589844 411.222656 632.949219 C 413.960938 638.308594 416.1875 643.871094 417.910156 649.640625 C 419.628906 655.40625 420.8125 661.28125 421.460938 667.265625 C 425.105469 698.566406 428.539062 729.839844 431.765625 761.085938 C 434.230469 788.328125 421.550781 811 403.71875 811.714844 C 401.289062 811.722656 398.914062 811.363281 396.59375 810.640625 Z M 384.765625 281.675781 L 512.234375 281.675781 C 543.597656 281.675781 571.378906 295.117188 585.175781 314.742188 L 450.898438 372.269531 L 316.484375 314.5625 C 328.492188 295.027344 353.714844 281.675781 384.765625 281.675781 Z M 451.257812 265.277344 C 449.824219 265.269531 448.390625 265.230469 446.960938 265.15625 C 445.527344 265.078125 444.101562 264.96875 442.675781 264.824219 C 441.25 264.679688 439.828125 264.5 438.410156 264.28125 C 436.992188 264.066406 435.582031 263.816406 434.175781 263.535156 C 432.773438 263.25 431.375 262.929688 429.988281 262.578125 C 428.597656 262.226562 427.21875 261.839844 425.847656 261.417969 C 424.476562 260.996094 423.121094 260.542969 421.773438 260.054688 C 420.425781 259.566406 419.089844 259.046875 417.765625 258.496094 C 416.445312 257.941406 415.136719 257.359375 413.84375 256.742188 C 412.550781 256.125 411.273438 255.476562 410.011719 254.796875 C 408.75 254.117188 407.503906 253.40625 406.277344 252.664062 C 405.050781 251.925781 403.84375 251.152344 402.652344 250.355469 C 401.464844 249.554688 400.292969 248.726562 399.144531 247.867188 C 397.996094 247.011719 396.871094 246.125 395.765625 245.214844 C 394.660156 244.300781 393.578125 243.363281 392.519531 242.394531 C 391.460938 241.429688 390.425781 240.441406 389.414062 239.421875 C 388.40625 238.40625 387.421875 237.367188 386.460938 236.300781 C 385.5 235.238281 384.570312 234.148438 383.664062 233.039062 C 382.757812 231.929688 381.878906 230.796875 381.027344 229.640625 C 380.179688 228.488281 379.355469 227.316406 378.5625 226.121094 C 377.769531 224.925781 377.007812 223.714844 376.273438 222.484375 C 375.542969 221.253906 374.839844 220.003906 374.167969 218.738281 C 373.492188 217.472656 372.851562 216.191406 372.246094 214.894531 C 371.636719 213.597656 371.058594 212.285156 370.511719 210.960938 C 369.96875 209.632812 369.457031 208.296875 368.976562 206.945312 C 368.496094 205.59375 368.050781 204.234375 367.640625 202.859375 C 367.226562 201.488281 366.847656 200.105469 366.503906 198.714844 C 366.160156 197.324219 365.847656 195.925781 365.574219 194.519531 C 365.296875 193.113281 365.054688 191.699219 364.847656 190.28125 C 364.640625 188.863281 364.46875 187.441406 364.332031 186.015625 C 364.195312 184.585938 364.09375 183.160156 364.027344 181.726562 C 363.960938 180.296875 363.929688 178.863281 363.933594 177.429688 C 363.933594 175.996094 363.972656 174.5625 364.046875 173.132812 C 364.121094 171.703125 364.230469 170.273438 364.375 168.847656 C 364.515625 167.421875 364.695312 166 364.910156 164.582031 C 365.125 163.164062 365.371094 161.753906 365.652344 160.347656 C 365.9375 158.945312 366.253906 157.546875 366.605469 156.15625 C 366.957031 154.769531 367.339844 153.386719 367.761719 152.019531 C 368.179688 150.648438 368.632812 149.289062 369.117188 147.9375 C 369.601562 146.589844 370.121094 145.253906 370.671875 143.933594 C 371.222656 142.609375 371.808594 141.300781 372.421875 140.007812 C 373.039062 138.710938 373.683594 137.433594 374.363281 136.171875 C 375.042969 134.910156 375.75 133.664062 376.488281 132.433594 C 377.226562 131.207031 377.996094 130 378.796875 128.808594 C 379.59375 127.617188 380.421875 126.449219 381.277344 125.300781 C 382.132812 124.148438 383.015625 123.023438 383.929688 121.914062 C 384.839844 120.808594 385.777344 119.726562 386.742188 118.667969 C 387.707031 117.605469 388.695312 116.570312 389.710938 115.558594 C 390.726562 114.546875 391.765625 113.5625 392.828125 112.601562 C 393.894531 111.640625 394.980469 110.707031 396.089844 109.796875 C 397.199219 108.890625 398.328125 108.011719 399.480469 107.160156 C 400.632812 106.308594 401.808594 105.484375 403 104.691406 C 404.191406 103.894531 405.40625 103.132812 406.636719 102.398438 C 407.867188 101.664062 409.113281 100.957031 410.378906 100.285156 C 411.644531 99.609375 412.925781 98.96875 414.21875 98.359375 C 415.515625 97.746094 416.828125 97.167969 418.152344 96.621094 C 419.476562 96.074219 420.816406 95.5625 422.164062 95.082031 C 423.515625 94.601562 424.875 94.152344 426.25 93.738281 C 427.621094 93.324219 429 92.945312 430.390625 92.597656 C 431.78125 92.25 433.179688 91.9375 434.585938 91.660156 C 435.992188 91.382812 437.40625 91.140625 438.824219 90.933594 C 440.242188 90.722656 441.664062 90.550781 443.089844 90.410156 C 444.515625 90.273438 445.945312 90.167969 447.375 90.101562 C 448.808594 90.03125 450.242188 90 451.675781 90 C 453.105469 90.003906 454.539062 90.039062 455.972656 90.109375 C 457.402344 90.183594 458.832031 90.289062 460.257812 90.433594 C 461.683594 90.574219 463.105469 90.75 464.523438 90.964844 C 465.941406 91.175781 467.351562 91.421875 468.757812 91.703125 C 470.160156 91.984375 471.558594 92.296875 472.949219 92.648438 C 474.339844 93 475.71875 93.382812 477.089844 93.800781 C 478.460938 94.214844 479.820312 94.667969 481.171875 95.152344 C 482.519531 95.636719 483.855469 96.152344 485.179688 96.703125 C 486.503906 97.25 487.8125 97.832031 489.109375 98.445312 C 490.402344 99.0625 491.683594 99.707031 492.945312 100.382812 C 494.207031 101.058594 495.453125 101.765625 496.683594 102.503906 C 497.910156 103.242188 499.121094 104.007812 500.3125 104.804688 C 501.503906 105.605469 502.675781 106.429688 503.824219 107.285156 C 504.976562 108.136719 506.105469 109.019531 507.210938 109.929688 C 508.320312 110.839844 509.402344 111.777344 510.464844 112.742188 C 511.527344 113.703125 512.5625 114.691406 513.574219 115.707031 C 514.589844 116.71875 515.578125 117.757812 516.539062 118.820312 C 517.5 119.882812 518.433594 120.96875 519.34375 122.078125 C 520.253906 123.183594 521.132812 124.316406 521.988281 125.464844 C 522.839844 126.617188 523.664062 127.789062 524.460938 128.980469 C 525.253906 130.175781 526.023438 131.382812 526.757812 132.613281 C 527.492188 133.84375 528.199219 135.089844 528.875 136.355469 C 529.550781 137.617188 530.195312 138.898438 530.804688 140.195312 C 531.417969 141.492188 532 142.800781 532.546875 144.125 C 533.09375 145.449219 533.609375 146.785156 534.09375 148.136719 C 534.574219 149.484375 535.023438 150.84375 535.441406 152.21875 C 535.855469 153.589844 536.238281 154.96875 536.585938 156.359375 C 536.933594 157.75 537.246094 159.148438 537.527344 160.554688 C 537.804688 161.960938 538.050781 163.371094 538.261719 164.789062 C 538.472656 166.207031 538.644531 167.628906 538.785156 169.054688 C 538.925781 170.480469 539.03125 171.910156 539.101562 173.339844 C 539.171875 174.773438 539.207031 176.203125 539.207031 177.636719 C 539.203125 179.074219 539.167969 180.511719 539.09375 181.945312 C 539.019531 183.378906 538.910156 184.8125 538.769531 186.242188 C 538.625 187.671875 538.445312 189.097656 538.230469 190.515625 C 538.019531 191.9375 537.769531 193.351562 537.488281 194.761719 C 537.203125 196.171875 536.886719 197.570312 536.535156 198.964844 C 536.183594 200.355469 535.796875 201.742188 535.375 203.113281 C 534.957031 204.488281 534.503906 205.851562 534.015625 207.203125 C 533.53125 208.554688 533.011719 209.894531 532.457031 211.21875 C 531.90625 212.546875 531.320312 213.859375 530.707031 215.15625 C 530.089844 216.453125 529.441406 217.734375 528.761719 219 C 528.082031 220.265625 527.371094 221.515625 526.628906 222.746094 C 525.890625 223.976562 525.117188 225.191406 524.316406 226.382812 C 523.515625 227.574219 522.6875 228.75 521.832031 229.902344 C 520.972656 231.054688 520.085938 232.183594 519.171875 233.292969 C 518.257812 234.402344 517.320312 235.488281 516.351562 236.550781 C 515.386719 237.613281 514.394531 238.652344 513.375 239.667969 C 512.359375 240.679688 511.316406 241.667969 510.25 242.632812 C 509.183594 243.59375 508.09375 244.53125 506.980469 245.441406 C 505.871094 246.351562 504.734375 247.230469 503.582031 248.085938 C 502.425781 248.9375 501.25 249.765625 500.054688 250.558594 C 498.859375 251.355469 497.644531 252.121094 496.410156 252.859375 C 495.175781 253.597656 493.925781 254.300781 492.65625 254.976562 C 491.386719 255.652344 490.105469 256.296875 488.804688 256.90625 C 487.503906 257.519531 486.191406 258.101562 484.863281 258.648438 C 483.535156 259.195312 482.191406 259.710938 480.839844 260.191406 C 479.484375 260.671875 478.121094 261.121094 476.746094 261.535156 C 475.371094 261.949219 473.984375 262.332031 472.589844 262.679688 C 471.195312 263.027344 469.796875 263.339844 468.386719 263.617188 C 466.976562 263.894531 465.558594 264.136719 464.140625 264.347656 C 462.71875 264.554688 461.292969 264.726562 459.863281 264.867188 C 458.429688 265.003906 457 265.109375 455.5625 265.175781 C 454.128906 265.246094 452.691406 265.277344 451.257812 265.277344 Z M 450.898438 549.070312 L 300.710938 472.050781 C 300.15625 471.742188 299.6875 471.335938 299.304688 470.828125 C 298.921875 470.320312 298.660156 469.757812 298.515625 469.136719 L 270.78125 321.683594 C 270.597656 320.734375 270.6875 319.808594 271.050781 318.90625 C 271.167969 318.632812 271.308594 318.375 271.472656 318.128906 C 271.640625 317.882812 271.828125 317.65625 272.039062 317.449219 C 272.25 317.242188 272.480469 317.058594 272.726562 316.894531 C 272.976562 316.730469 273.238281 316.59375 273.511719 316.484375 C 273.789062 316.375 274.070312 316.292969 274.363281 316.238281 C 274.652344 316.183594 274.949219 316.160156 275.242188 316.164062 C 275.539062 316.167969 275.832031 316.199219 276.125 316.261719 C 276.414062 316.324219 276.695312 316.414062 276.964844 316.53125 L 450.898438 391.089844 L 624.875 316.53125 C 625.144531 316.414062 625.425781 316.324219 625.71875 316.261719 C 626.007812 316.199219 626.300781 316.167969 626.597656 316.164062 C 626.894531 316.160156 627.1875 316.183594 627.476562 316.238281 C 627.769531 316.292969 628.050781 316.375 628.328125 316.484375 C 628.601562 316.59375 628.863281 316.730469 629.113281 316.894531 C 629.359375 317.058594 629.589844 317.242188 629.800781 317.449219 C 630.011719 317.65625 630.199219 317.882812 630.367188 318.128906 C 630.535156 318.375 630.675781 318.632812 630.789062 318.90625 C 631.183594 319.804688 631.269531 320.730469 631.058594 321.683594 L 603.234375 469.136719 C 603.089844 469.757812 602.828125 470.320312 602.445312 470.828125 C 602.0625 471.335938 601.59375 471.742188 601.039062 472.050781 Z M 450.898438 549.070312 " fill-opacity="1" fill-rule="nonzero"/></g></svg>