<svg xmlns="http://www.w3.org/2000/svg" xmlns:xlink="http://www.w3.org/1999/xlink" width="1200" zoomAndPan="magnify" viewBox="0 0 900 899.99999" height="1200" preserveAspectRatio="xMidYMid meet" version="1.0"><defs><clipPath id="61d96bf396"><path d="M 213.054688 204 L 684 204 L 684 706.09375 L 213.054688 706.09375 Z M 213.054688 204 " clip-rule="nonzero"/></clipPath></defs><g clip-path="url(#61d96bf396)"><path fill="#000000" d="M 359.042969 419.449219 C 374.003906 419.449219 386.132812 431.570312 386.132812 446.527344 C 386.132812 461.480469 374.003906 473.605469 359.042969 473.605469 C 344.082031 473.605469 331.957031 461.480469 331.957031 446.527344 C 331.957031 431.570312 344.085938 419.449219 359.042969 419.449219 Z M 283.660156 697.183594 L 283.660156 572.460938 C 283.660156 567.554688 279.613281 563.515625 274.710938 563.515625 L 222.019531 563.515625 C 217.109375 563.515625 213.070312 567.558594 213.070312 572.460938 L 213.070312 697.183594 C 213.070312 702.089844 217.113281 706.132812 222.019531 706.132812 L 274.710938 706.132812 C 279.613281 706.132812 283.660156 702.089844 283.660156 697.183594 Z M 461.476562 549.652344 C 429.46875 543.0625 425.328125 542.210938 389.300781 558.527344 C 371.953125 566.386719 353.695312 574.773438 343.980469 576.785156 C 329.789062 579.722656 315.367188 581.144531 300.917969 581.886719 C 300.34375 581.914062 299.890625 582.390625 299.890625 582.964844 L 299.890625 677.460938 C 299.890625 678.125 300.476562 678.628906 301.132812 678.53125 C 355.230469 670.605469 411.339844 680.265625 465.542969 683.207031 C 488.191406 684.4375 556.359375 640.0625 606.351562 607.523438 C 623.671875 596.246094 638.859375 586.359375 649.710938 580.015625 C 667.03125 569.886719 674.589844 560.109375 675.6875 552.445312 C 677.46875 540 659.542969 536.675781 645.949219 543.542969 C 645.9375 543.550781 645.929688 543.554688 645.917969 543.5625 L 536.195312 603.695312 L 536.1875 603.683594 L 533.769531 604.695312 C 525.300781 611.984375 514.089844 616.265625 502.632812 614.089844 L 442.824219 602.8125 L 417.515625 607.414062 C 413.121094 608.203125 408.917969 605.277344 408.128906 600.886719 C 407.339844 596.492188 410.265625 592.292969 414.660156 591.503906 L 441.15625 586.6875 C 442.402344 586.460938 443.191406 586.335938 444.574219 586.597656 L 505.613281 598.183594 C 513.15625 599.613281 521.160156 595.238281 525.898438 589.917969 C 528.277344 587.253906 529.441406 581.996094 529.441406 578.257812 C 529.4375 562.035156 476.15625 552.671875 461.476562 549.652344 Z M 580.808594 371.355469 L 603.902344 371.355469 C 604.414062 371.355469 604.84375 371.695312 604.957031 372.195312 C 611.839844 402.070312 649.375 413.316406 671.488281 391.210938 C 686.945312 375.761719 686.945312 350.722656 671.488281 335.273438 C 649.375 313.164062 611.835938 324.417969 604.957031 354.289062 C 604.84375 354.785156 604.414062 355.128906 603.902344 355.128906 L 580.808594 355.128906 C 580.214844 355.128906 579.726562 354.640625 579.726562 354.046875 L 579.726562 253.152344 C 579.726562 252.558594 580.214844 252.070312 580.808594 252.070312 L 603.902344 252.070312 C 604.414062 252.070312 604.84375 252.414062 604.957031 252.910156 C 611.839844 282.78125 649.375 294.039062 671.488281 271.929688 C 686.945312 256.476562 686.945312 231.441406 671.488281 215.988281 C 649.371094 193.878906 611.835938 205.132812 604.957031 235.003906 C 604.84375 235.503906 604.414062 235.84375 603.902344 235.84375 L 571.609375 235.84375 C 567.128906 235.84375 563.496094 239.476562 563.496094 243.957031 L 563.496094 354.046875 C 563.496094 354.640625 563.007812 355.128906 562.414062 355.128906 L 515.285156 355.128906 C 510.804688 355.128906 507.171875 358.761719 507.171875 363.242188 C 507.171875 367.722656 510.804688 371.355469 515.285156 371.355469 L 562.414062 371.355469 C 563.007812 371.355469 563.496094 371.839844 563.496094 372.4375 L 563.496094 482.523438 C 563.496094 487.003906 567.128906 490.636719 571.609375 490.636719 L 603.902344 490.636719 C 604.414062 490.636719 604.84375 490.980469 604.957031 491.476562 C 611.839844 521.351562 649.375 532.601562 671.488281 510.492188 C 686.945312 495.042969 686.945312 470.007812 671.488281 454.554688 C 649.371094 432.445312 611.835938 443.699219 604.957031 473.570312 C 604.84375 474.066406 604.414062 474.410156 603.902344 474.410156 L 580.808594 474.410156 C 580.214844 474.410156 579.726562 473.925781 579.726562 473.328125 L 579.726562 372.4375 C 579.726562 371.839844 580.210938 371.355469 580.808594 371.355469 Z M 218.390625 262.863281 C 216.835938 376.480469 230.226562 482.535156 356.429688 524.007812 C 358.070312 524.546875 359.785156 524.617188 361.550781 524.042969 C 425.816406 503.1875 460.828125 464.976562 479.605469 417.902344 C 498.035156 371.707031 500.445312 317.414062 499.695312 262.863281 C 499.65625 259.773438 497.835938 256.847656 494.816406 255.542969 C 409.914062 218.871094 308.523438 218.855469 223.582031 255.410156 C 220.527344 256.726562 218.433594 259.335938 218.390625 262.863281 Z M 389.675781 297.09375 L 375.222656 380.925781 C 374.203125 386.84375 367.3125 390.925781 358.851562 390.925781 C 350.667969 390.925781 343.855469 386.667969 342.867188 380.925781 L 328.414062 297.09375 C 327.359375 290.984375 329.804688 285.4375 335.585938 280.828125 C 342.164062 275.582031 349.597656 273.832031 359.046875 273.832031 C 368.496094 273.832031 375.929688 275.582031 382.507812 280.828125 C 388.285156 285.4375 390.730469 290.984375 389.675781 297.09375 Z M 389.675781 297.09375 " fill-opacity="1" fill-rule="evenodd"/></g></svg>