<svg xmlns="http://www.w3.org/2000/svg" xmlns:xlink="http://www.w3.org/1999/xlink" width="1200" zoomAndPan="magnify" viewBox="0 0 900 899.99999" height="1200" preserveAspectRatio="xMidYMid meet" version="1.0"><defs><clipPath id="7cd2be1228"><path d="M 192.265625 189.664062 L 707.515625 189.664062 L 707.515625 710.164062 L 192.265625 710.164062 Z M 192.265625 189.664062 " clip-rule="nonzero"/></clipPath></defs><g clip-path="url(#7cd2be1228)"><path fill="#000000" d="M 344.273438 233.222656 L 344.273438 246.453125 C 368.476562 249.59375 390.671875 259.230469 409.078125 273.578125 L 420.257812 262.285156 C 422.753906 259.765625 426.820312 259.765625 429.316406 262.285156 L 444.707031 277.835938 C 447.203125 280.355469 447.203125 284.464844 444.707031 286.984375 L 433.53125 298.277344 C 451.058594 321.21875 461.484375 349.980469 461.484375 381.199219 C 461.484375 456.230469 401.265625 517.054688 326.984375 517.054688 C 252.699219 517.054688 192.480469 456.230469 192.480469 381.199219 C 192.480469 349.980469 202.90625 321.21875 220.433594 298.277344 L 209.253906 286.984375 C 206.761719 284.464844 206.761719 280.355469 209.253906 277.835938 L 224.648438 262.285156 C 227.140625 259.765625 231.210938 259.765625 233.707031 262.285156 L 244.886719 273.578125 C 263.292969 259.230469 285.488281 249.59375 309.691406 246.457031 L 309.691406 233.222656 Z M 326.984375 274.984375 C 268.90625 274.984375 221.828125 322.539062 221.828125 381.199219 C 221.828125 439.859375 268.90625 487.414062 326.984375 487.414062 C 385.058594 487.414062 432.136719 439.859375 432.136719 381.199219 C 432.136719 322.539062 385.058594 274.984375 326.984375 274.984375 Z M 243.257812 389.78125 C 238.523438 389.78125 234.679688 385.933594 234.679688 381.199219 C 234.679688 376.460938 238.523438 372.617188 243.257812 372.617188 L 252.335938 372.617188 C 257.070312 372.617188 260.914062 376.460938 260.914062 381.199219 C 260.914062 385.933594 257.070312 389.78125 252.335938 389.78125 Z M 261.683594 327.4375 C 258.351562 324.074219 258.378906 318.636719 261.742188 315.304688 C 265.109375 311.972656 270.546875 312 273.878906 315.363281 L 280.296875 321.84375 C 283.628906 325.210938 283.601562 330.648438 280.234375 333.980469 C 276.871094 337.3125 271.433594 337.285156 268.101562 333.921875 Z M 335.5625 465.765625 C 335.5625 470.5 331.71875 474.347656 326.984375 474.347656 C 322.246094 474.347656 318.402344 470.5 318.402344 465.765625 L 318.402344 456.597656 C 318.402344 451.863281 322.246094 448.019531 326.984375 448.019531 C 331.71875 448.019531 335.5625 451.863281 335.5625 456.597656 Z M 410.707031 372.617188 C 415.441406 372.617188 419.285156 376.460938 419.285156 381.199219 C 419.285156 385.933594 415.441406 389.78125 410.707031 389.78125 L 401.632812 389.78125 C 396.894531 389.78125 393.050781 385.933594 393.050781 381.199219 C 393.050781 376.460938 396.894531 372.617188 401.632812 372.617188 Z M 318.402344 296.632812 C 318.402344 291.894531 322.246094 288.050781 326.984375 288.050781 C 331.71875 288.050781 335.5625 291.894531 335.5625 296.632812 L 335.5625 305.800781 C 335.5625 310.535156 331.71875 314.378906 326.984375 314.378906 C 322.246094 314.378906 318.402344 310.535156 318.402344 305.800781 Z M 380.085938 315.363281 C 383.417969 312 388.855469 311.972656 392.21875 315.304688 C 395.585938 318.636719 395.613281 324.074219 392.28125 327.4375 L 385.863281 333.921875 C 382.53125 337.285156 377.09375 337.3125 373.730469 333.980469 C 370.363281 330.648438 370.335938 325.210938 373.667969 321.84375 Z M 392.28125 434.960938 C 395.613281 438.324219 395.585938 443.761719 392.21875 447.09375 C 388.855469 450.425781 383.417969 450.398438 380.085938 447.035156 L 373.667969 440.550781 C 370.335938 437.1875 370.363281 431.75 373.730469 428.417969 C 377.09375 425.085938 382.53125 425.113281 385.863281 428.476562 Z M 273.878906 447.035156 C 270.546875 450.398438 265.109375 450.425781 261.742188 447.09375 C 258.378906 443.761719 258.351562 438.324219 261.683594 434.960938 L 268.101562 428.476562 C 271.433594 425.113281 276.871094 425.085938 280.234375 428.417969 C 283.601562 431.75 283.628906 437.1875 280.296875 440.550781 Z M 341.574219 389.78125 C 338.648438 394.847656 333.210938 398.253906 326.984375 398.253906 C 317.660156 398.253906 310.097656 390.617188 310.097656 381.199219 C 310.097656 374.945312 313.433594 369.476562 318.402344 366.507812 L 318.402344 331.433594 C 318.402344 326.695312 322.246094 322.851562 326.984375 322.851562 C 331.71875 322.851562 335.5625 326.695312 335.5625 331.433594 L 335.5625 366.507812 C 338.046875 367.992188 340.121094 370.101562 341.574219 372.617188 L 376.253906 372.617188 C 380.988281 372.617188 384.832031 376.464844 384.832031 381.199219 C 384.832031 385.933594 380.988281 389.78125 376.253906 389.78125 Z M 302.449219 216.0625 C 298.921875 216.0625 296.042969 212.734375 296.042969 208.660156 L 296.042969 197.175781 C 296.042969 193.097656 298.921875 189.773438 302.449219 189.773438 L 351.515625 189.773438 C 355.042969 189.773438 357.921875 193.097656 357.921875 197.175781 L 357.921875 208.660156 C 357.921875 212.734375 355.042969 216.0625 351.515625 216.0625 Z M 476.324219 354.390625 L 488.089844 323.898438 L 540.339844 323.898438 L 552.65625 355.945312 C 569.703125 360 585.960938 366.734375 600.90625 375.945312 L 632.265625 361.996094 L 669.207031 398.941406 L 655.316406 430.304688 C 664.523438 445.25 671.257812 461.511719 675.308594 478.613281 L 707.300781 490.925781 L 707.300781 543.183594 L 675.308594 555.496094 C 671.257812 572.546875 664.46875 588.808594 655.316406 603.753906 L 669.207031 635.117188 L 632.265625 672.058594 L 600.90625 658.164062 C 586.015625 667.375 569.703125 674.109375 552.65625 678.164062 L 540.339844 710.160156 L 488.089844 710.160156 L 475.777344 678.164062 C 458.675781 674.109375 442.417969 667.324219 427.472656 658.164062 L 396.113281 672.058594 L 359.175781 635.117188 L 373.117188 603.753906 C 363.910156 588.859375 357.175781 572.546875 353.070312 555.496094 L 321.078125 543.183594 L 321.078125 534.105469 C 323.039062 534.179688 325.003906 534.21875 326.984375 534.21875 C 353.414062 534.21875 378.277344 527.390625 399.921875 515.390625 C 399.914062 515.933594 399.910156 516.476562 399.910156 517.023438 C 399.910156 580.171875 451.046875 631.371094 514.1875 631.371094 C 577.324219 631.371094 628.523438 580.167969 628.523438 517.023438 C 628.523438 453.878906 577.328125 402.738281 514.1875 402.738281 C 500.832031 402.738281 488.015625 405.023438 476.105469 409.230469 C 477.773438 400.144531 478.644531 390.773438 478.644531 381.199219 C 478.644531 372.054688 477.847656 363.09375 476.324219 354.390625 Z M 470.722656 430.136719 C 483.796875 423.585938 498.558594 419.902344 514.1875 419.902344 C 567.847656 419.902344 611.363281 463.359375 611.363281 517.023438 C 611.363281 570.691406 567.847656 614.210938 514.1875 614.210938 C 460.523438 614.210938 417.070312 570.691406 417.070312 517.023438 C 417.070312 512.476562 417.382812 508 417.988281 503.617188 C 442.226562 485.25 460.835938 459.71875 470.722656 430.136719 Z M 461.746094 526.039062 L 490.90625 555.203125 C 495.992188 560.324219 504.253906 560.324219 509.339844 555.203125 C 534.371094 530.203125 541.863281 522.371094 566.742188 497.246094 C 571.796875 492.15625 571.796875 483.925781 566.679688 478.839844 C 561.59375 473.785156 553.363281 473.816406 548.308594 478.902344 L 500.125 527.550781 L 480.179688 507.605469 C 475.0625 502.515625 466.832031 502.515625 461.746094 507.605469 C 456.628906 512.691406 456.628906 520.953125 461.746094 526.039062 Z M 253.085938 577.984375 L 308.023438 640.777344 C 308.84375 641.765625 309.03125 643.039062 308.496094 644.210938 C 307.960938 645.363281 306.851562 646.082031 305.578125 646.082031 L 274.257812 646.082031 L 274.257812 703.746094 C 274.257812 707.28125 271.378906 710.160156 267.84375 710.160156 L 233.4375 710.160156 C 229.898438 710.160156 227.023438 707.28125 227.023438 703.746094 L 227.023438 646.082031 L 195.703125 646.082031 C 194.425781 646.082031 193.316406 645.363281 192.785156 644.210938 C 192.25 643.039062 192.433594 641.765625 193.253906 640.777344 L 248.191406 577.984375 C 248.832031 577.242188 249.652344 576.851562 250.640625 576.851562 C 251.605469 576.851562 252.449219 577.242188 253.085938 577.984375 Z M 651.589844 196.421875 L 706.527344 259.214844 C 707.347656 260.203125 707.535156 261.476562 707 262.648438 C 706.464844 263.800781 705.355469 264.519531 704.082031 264.519531 L 672.761719 264.519531 L 672.761719 322.183594 C 672.761719 325.71875 669.882812 328.597656 666.347656 328.597656 L 631.941406 328.597656 C 628.40625 328.597656 625.527344 325.71875 625.527344 322.183594 L 625.527344 264.519531 L 594.207031 264.519531 C 592.929688 264.519531 591.820312 263.800781 591.285156 262.648438 C 590.753906 261.476562 590.9375 260.203125 591.761719 259.214844 L 646.699219 196.421875 C 647.335938 195.679688 648.15625 195.289062 649.144531 195.289062 C 650.109375 195.289062 650.953125 195.679688 651.589844 196.421875 Z M 651.589844 196.421875 " fill-opacity="1" fill-rule="evenodd"/></g></svg>