<svg xmlns="http://www.w3.org/2000/svg" xmlns:xlink="http://www.w3.org/1999/xlink" width="1200" zoomAndPan="magnify" viewBox="0 0 900 899.99999" height="1200" preserveAspectRatio="xMidYMid meet" version="1.0"><path fill="#000000" d="M 263.527344 558.648438 L 337.800781 515.636719 C 355.023438 505.671875 372.367188 497.90625 391.285156 504.050781 L 391.289062 504.054688 C 415.257812 511.824219 454.34375 528.410156 494.269531 535.726562 C 504.210938 539.210938 510.589844 549.144531 507.84375 559.359375 L 507.839844 559.363281 C 505.140625 569.433594 496.570312 574.371094 484.804688 573.050781 C 462.816406 568.511719 442.402344 561.835938 419.753906 555.746094 C 415.039062 554.476562 410.183594 557.277344 408.917969 561.992188 C 407.648438 566.707031 410.449219 571.566406 415.164062 572.832031 C 438.292969 579.050781 459.132812 585.84375 481.605469 590.457031 C 481.605469 590.457031 494.367188 592.539062 494.375 592.542969 C 512.382812 595.410156 528.902344 592.878906 544.667969 583.6875 L 644.335938 525.625 C 664.886719 513.648438 680.003906 510.160156 690.730469 512.40625 C 702.660156 514.90625 707.222656 525.53125 706.425781 535.179688 C 705.910156 541.460938 703.28125 547.566406 698.328125 550.617188 L 517.460938 662.007812 L 517.453125 662.011719 C 502.976562 670.949219 487.105469 672.976562 470.679688 668.59375 L 339.492188 633.425781 C 337.226562 632.816406 334.8125 633.136719 332.78125 634.308594 L 312.847656 645.820312 Z M 232.441406 539.628906 L 314.625 684.890625 C 316.199219 687.695312 315.222656 691.277344 312.429688 692.851562 L 312.421875 692.859375 L 284.488281 708.695312 C 281.683594 710.265625 278.105469 709.285156 276.527344 706.496094 L 276.527344 706.492188 L 194.320312 561.199219 L 194.320312 561.195312 C 192.734375 558.398438 193.710938 554.824219 196.492188 553.253906 L 196.5 553.25 L 224.480469 537.40625 C 227.269531 535.832031 230.835938 536.835938 232.433594 539.617188 Z M 221.03125 555.4375 C 214.6875 556.34375 210.304688 562.234375 211.210938 568.582031 C 212.15625 574.929688 218.046875 579.347656 224.390625 578.402344 C 230.734375 577.496094 235.117188 571.566406 234.210938 565.21875 C 233.265625 558.875 227.375 554.492188 221.03125 555.4375 Z M 600.105469 232.753906 L 578.253906 232.753906 L 578.253906 214.695312 C 578.253906 213.1875 576.953125 211.863281 575.421875 211.863281 L 501.738281 211.863281 C 500.230469 211.863281 498.90625 213.1875 498.90625 214.695312 L 498.90625 232.753906 L 477.054688 232.753906 L 477.054688 214.695312 C 477.054688 201.128906 488.179688 190.003906 501.738281 190.003906 L 575.421875 190.003906 C 589.003906 190.003906 600.105469 201.128906 600.105469 214.695312 Z M 517.382812 376.550781 C 517.382812 364.886719 526.84375 355.363281 538.582031 355.363281 C 550.335938 355.363281 559.78125 364.886719 559.78125 376.550781 C 559.78125 388.261719 550.289062 397.757812 538.582031 397.757812 C 526.871094 397.757812 517.382812 388.261719 517.382812 376.550781 Z M 500.003906 371.628906 C 458.136719 368.949219 420.664062 361.800781 402.238281 350.140625 C 399.691406 348.527344 397.296875 346.832031 395.0625 344.992188 C 386.753906 338.1875 381.003906 329.667969 381.003906 318.5 L 381.003906 262.273438 C 381.003906 255.757812 386.316406 250.445312 392.828125 250.445312 L 447.453125 250.445312 L 447.453125 277.828125 C 447.453125 290.839844 458.117188 301.503906 471.121094 301.503906 L 606.0625 301.503906 C 619.070312 301.503906 629.707031 290.84375 629.707031 277.828125 L 629.707031 250.445312 L 684.351562 250.445312 C 690.84375 250.445312 696.15625 255.757812 696.15625 262.273438 L 696.15625 318.5 C 696.15625 329.667969 690.410156 338.1875 682.121094 344.992188 C 679.886719 346.832031 677.46875 348.527344 674.925781 350.140625 C 656.601562 361.746094 619.097656 368.914062 577.15625 371.613281 C 574.734375 352.523438 558.460938 337.667969 538.582031 337.667969 C 518.722656 337.667969 502.421875 352.53125 500.003906 371.628906 Z M 575.308594 389.371094 C 620.320312 386.53125 661.074219 378.539062 682.121094 366.457031 L 682.121094 448.699219 C 682.121094 461.375 671.742188 471.757812 659.046875 471.757812 L 418.113281 471.757812 C 405.441406 471.757812 395.0625 461.375 395.0625 448.699219 L 395.0625 366.46875 C 416.210938 378.601562 456.929688 386.566406 501.859375 389.386719 C 507.160156 404.5625 521.597656 415.449219 538.582031 415.449219 C 555.570312 415.449219 570.011719 404.554688 575.308594 389.371094 Z M 612.019531 250.445312 L 612.019531 277.828125 C 612.019531 281.113281 609.34375 283.8125 606.0625 283.8125 L 471.121094 283.8125 C 467.835938 283.8125 465.144531 281.117188 465.144531 277.828125 L 465.144531 250.445312 Z M 612.019531 250.445312 " fill-opacity="1" fill-rule="evenodd"/></svg>