<svg xmlns="http://www.w3.org/2000/svg" xmlns:xlink="http://www.w3.org/1999/xlink" width="1200" zoomAndPan="magnify" viewBox="0 0 900 899.99999" height="1200" preserveAspectRatio="xMidYMid meet" version="1.0"><defs><clipPath id="c238346358"><path d="M 175 173.453125 L 725 173.453125 L 725 726.203125 L 175 726.203125 Z M 175 173.453125 " clip-rule="nonzero"/></clipPath></defs><g clip-path="url(#c238346358)"><path fill="#000000" d="M 469.679688 629.199219 L 361.234375 629.199219 L 361.234375 653.300781 L 469.457031 653.300781 L 469.457031 667.402344 L 361.234375 667.402344 L 361.234375 691.492188 L 469.679688 691.492188 Z M 586.46875 320.3125 C 604.484375 349.253906 615.355469 383.070312 616.601562 419.289062 L 603.722656 419.289062 C 599.820312 419.289062 596.671875 422.449219 596.671875 426.339844 C 596.671875 430.226562 599.820312 433.386719 603.722656 433.386719 L 616.625 433.386719 C 614.109375 506.429688 572.683594 571.929688 507.238281 605.511719 C 503.773438 607.285156 502.410156 611.539062 504.183594 615.007812 C 505.957031 618.472656 510.210938 619.835938 513.679688 618.0625 C 548.382812 600.246094 577.667969 573.304688 598.339844 540.15625 C 618.363281 508.050781 629.492188 471.273438 630.714844 433.386719 L 648.777344 433.386719 C 652.679688 433.386719 655.828125 430.226562 655.828125 426.339844 C 655.828125 422.449219 652.679688 419.289062 648.777344 419.289062 L 630.714844 419.289062 C 629.445312 379.816406 617.496094 342.992188 597.65625 311.617188 Z M 439.628906 380.78125 C 432.414062 376.9375 424.1875 374.753906 415.457031 374.753906 C 387.019531 374.753906 363.878906 397.890625 363.878906 426.328125 C 363.878906 454.761719 387.019531 477.898438 415.457031 477.898438 C 443.898438 477.898438 467.035156 454.761719 467.035156 426.328125 C 467.035156 422.144531 466.53125 418.078125 465.589844 414.175781 L 428.441406 443.023438 C 424.730469 445.914062 420.167969 447.476562 415.46875 447.476562 C 408.933594 447.476562 402.777344 444.46875 398.757812 439.300781 C 391.589844 430.074219 393.269531 416.785156 402.496094 409.617188 C 414.871094 400.015625 427.246094 390.40625 439.628906 380.78125 Z M 518.910156 319.21875 C 496.460938 336.65625 474.015625 354.082031 451.570312 371.519531 C 441.207031 364.671875 428.796875 360.664062 415.46875 360.664062 C 379.25 360.664062 349.789062 390.121094 349.789062 426.339844 C 349.789062 462.554688 379.25 492.011719 415.46875 492.011719 C 451.6875 492.011719 481.148438 462.554688 481.148438 426.339844 C 481.148438 418.828125 479.882812 411.625 477.554688 404.90625 L 544.621094 352.8125 C 556.550781 374.128906 563.367188 398.6875 563.367188 424.796875 C 563.367188 424.855469 563.367188 424.90625 563.367188 424.964844 C 564.789062 485.492188 537.523438 517.300781 511.152344 548.0625 C 493.347656 568.828125 476.484375 588.519531 470.832031 615.101562 L 360.09375 615.101562 C 354.453125 588.519531 337.578125 568.824219 319.785156 548.0625 C 293.414062 517.300781 266.148438 485.492188 267.558594 424.964844 C 267.570312 424.90625 267.570312 424.855469 267.570312 424.796875 C 267.570312 343.25 333.910156 276.90625 415.46875 276.90625 C 455.695312 276.917969 492.207031 293.0625 518.910156 319.21875 Z M 571.6875 278.234375 C 567.960938 281.136719 564.222656 284.027344 560.5 286.929688 C 525.371094 250.40625 476.625 227.082031 422.519531 225.214844 L 422.519531 238.09375 C 422.519531 241.992188 419.359375 245.144531 415.46875 245.144531 C 411.578125 245.144531 408.417969 241.980469 408.417969 238.09375 L 408.417969 225.214844 C 303.015625 228.855469 217.957031 313.894531 214.300781 419.289062 L 227.191406 419.289062 C 231.082031 419.289062 234.242188 422.449219 234.242188 426.339844 C 234.242188 430.226562 231.082031 433.386719 227.191406 433.386719 L 214.289062 433.386719 C 216.804688 506.429688 258.230469 571.929688 323.675781 605.511719 C 327.140625 607.285156 328.503906 611.539062 326.730469 615.007812 C 325.484375 617.4375 323.003906 618.835938 320.457031 618.835938 C 319.363281 618.835938 318.269531 618.589844 317.234375 618.050781 C 282.519531 600.234375 253.246094 573.292969 232.5625 540.144531 C 212.550781 508.039062 201.421875 471.261719 200.1875 433.375 L 182.136719 433.375 C 178.234375 433.375 175.085938 430.214844 175.085938 426.328125 C 175.085938 422.4375 178.234375 419.277344 182.136719 419.277344 L 200.199219 419.277344 C 203.851562 306.117188 295.234375 214.746094 408.40625 211.089844 L 408.40625 193.027344 C 408.40625 189.140625 411.566406 185.980469 415.457031 185.980469 C 419.347656 185.980469 422.507812 189.140625 422.507812 193.027344 L 422.507812 211.089844 C 481.136719 212.992188 533.914062 238.421875 571.6875 278.234375 Z M 622.101562 274.777344 L 419.78125 431.894531 C 418.488281 432.894531 416.972656 433.386719 415.457031 433.386719 C 413.355469 433.386719 411.273438 432.449219 409.886719 430.664062 C 407.5 427.59375 408.054688 423.164062 411.132812 420.769531 C 478.578125 368.394531 546.007812 316.011719 613.453125 263.652344 L 625.039062 211.699219 C 625.402344 210.101562 626.308594 208.679688 627.601562 207.671875 L 669.167969 175.378906 C 671.519531 173.558594 674.761719 173.40625 677.265625 174.992188 C 679.78125 176.578125 681.027344 179.574219 680.378906 182.476562 L 670.085938 228.574219 L 717.304688 230.019531 C 720.277344 230.101562 722.875 232.054688 723.789062 234.886719 C 724.707031 237.714844 723.753906 240.808594 721.417969 242.640625 L 679.839844 274.929688 C 678.605469 275.894531 677.078125 276.410156 675.515625 276.410156 C 675.445312 276.410156 675.371094 276.410156 675.300781 276.410156 Z M 459.65625 705.582031 L 371.246094 705.582031 L 384.691406 718.976562 C 389.554688 723.816406 395.042969 726.179688 401.460938 726.179688 L 429.453125 726.179688 C 435.871094 726.179688 441.359375 723.816406 446.222656 718.976562 Z M 459.65625 705.582031 " fill-opacity="1" fill-rule="evenodd"/></g></svg>