<svg xmlns="http://www.w3.org/2000/svg" xmlns:xlink="http://www.w3.org/1999/xlink" width="1200" zoomAndPan="magnify" viewBox="0 0 900 899.99999" height="1200" preserveAspectRatio="xMidYMid meet" version="1.0"><defs><clipPath id="6be1900ddd"><path d="M 185.632812 166.496094 L 714.382812 166.496094 L 714.382812 733.496094 L 185.632812 733.496094 Z M 185.632812 166.496094 " clip-rule="nonzero"/></clipPath></defs><g clip-path="url(#6be1900ddd)"><path fill="#000000" d="M 659.367188 715.160156 L 705.179688 715.160156 C 710.222656 715.160156 714.320312 719.253906 714.320312 724.300781 C 714.320312 729.34375 710.222656 733.441406 705.179688 733.441406 L 194.71875 733.441406 C 189.675781 733.441406 185.578125 729.34375 185.578125 724.300781 C 185.578125 719.253906 189.675781 715.160156 194.71875 715.160156 L 240.53125 715.160156 L 240.53125 538.199219 C 251.457031 544.929688 267.644531 549.726562 285.957031 549.726562 C 304.269531 549.726562 320.453125 544.929688 331.382812 538.199219 L 331.382812 715.160156 L 404.523438 715.160156 L 404.523438 439.652344 C 415.453125 446.386719 431.636719 451.183594 449.949219 451.183594 C 468.261719 451.183594 484.445312 446.386719 495.375 439.652344 L 495.375 715.160156 L 568.519531 715.160156 L 568.519531 322.761719 C 579.445312 329.492188 595.628906 334.289062 613.941406 334.289062 C 632.253906 334.289062 648.441406 329.492188 659.367188 322.761719 Z M 620.640625 199.152344 C 508.398438 294.988281 385.574219 355.527344 269.421875 394.65625 C 264.640625 396.269531 259.453125 393.695312 257.839844 388.914062 C 256.230469 384.132812 258.804688 378.941406 263.585938 377.332031 C 377.289062 339.023438 497.527344 279.890625 607.484375 186.339844 L 589.917969 187.277344 C 584.878906 187.546875 580.570312 183.675781 580.300781 178.636719 C 580.03125 173.597656 583.90625 169.289062 588.941406 169.019531 L 632.90625 166.675781 C 635.652344 166.53125 638.316406 167.625 640.160156 169.65625 C 642.007812 171.691406 642.84375 174.445312 642.433594 177.164062 L 636.09375 219.367188 C 635.34375 224.355469 630.683594 227.796875 625.695312 227.046875 C 620.703125 226.296875 617.261719 221.640625 618.011719 216.648438 Z M 285.957031 486.277344 C 311.027344 486.277344 331.382812 496.398438 331.382812 508.863281 C 331.382812 521.324219 311.027344 531.445312 285.957031 531.445312 C 260.886719 531.445312 240.53125 521.324219 240.53125 508.863281 C 240.53125 496.398438 260.886719 486.277344 285.957031 486.277344 Z M 449.949219 387.734375 C 475.019531 387.734375 495.375 397.855469 495.375 410.316406 C 495.375 422.78125 475.019531 432.898438 449.949219 432.898438 C 424.878906 432.898438 404.523438 422.78125 404.523438 410.316406 C 404.523438 397.855469 424.878906 387.734375 449.949219 387.734375 Z M 613.941406 270.839844 C 639.015625 270.839844 659.367188 280.960938 659.367188 293.421875 C 659.367188 305.886719 639.015625 316.007812 613.941406 316.007812 C 588.871094 316.007812 568.519531 305.886719 568.519531 293.421875 C 568.519531 280.960938 588.871094 270.839844 613.941406 270.839844 Z M 613.941406 270.839844 " fill-opacity="1" fill-rule="evenodd"/></g></svg>