<svg xmlns="http://www.w3.org/2000/svg" xmlns:xlink="http://www.w3.org/1999/xlink" width="1200" zoomAndPan="magnify" viewBox="0 0 900 899.99999" height="1200" preserveAspectRatio="xMidYMid meet" version="1.0"><defs><clipPath id="eac91b3517"><path d="M 149 349 L 413 349 L 413 676.929688 L 149 676.929688 Z M 149 349 " clip-rule="nonzero"/></clipPath><clipPath id="a76926e709"><path d="M 405 223.179688 L 753.066406 223.179688 L 753.066406 676.929688 L 405 676.929688 Z M 405 223.179688 " clip-rule="nonzero"/></clipPath></defs><g clip-path="url(#eac91b3517)"><path fill="#000000" d="M 411.144531 446.496094 C 414.699219 435.511719 408.667969 423.765625 397.746094 420.210938 L 360.539062 408.144531 L 330.125 370.617188 C 319.265625 357.285156 303.136719 349.601562 285.929688 349.601562 L 245.355469 349.601562 C 197.542969 349.601562 161.289062 431.449219 151.320312 456.53125 C 147.066406 467.199219 152.273438 479.324219 163.003906 483.644531 C 165.542969 484.660156 168.148438 485.105469 170.6875 485.105469 C 179.003906 485.105469 186.8125 480.152344 190.050781 471.960938 C 198.625 450.496094 210.242188 429.351562 221.039062 414.050781 L 218.179688 495.515625 L 185.289062 648.546875 C 182.625 661.054688 190.558594 673.371094 203.070312 676.039062 C 204.71875 676.355469 206.308594 676.546875 207.957031 676.546875 C 218.625 676.546875 228.277344 669.117188 230.5625 658.261719 L 263.007812 507.136719 L 272.089844 507.136719 L 272.089844 653.371094 C 272.089844 666.195312 282.4375 676.546875 295.265625 676.546875 C 308.089844 676.546875 318.441406 666.195312 318.441406 653.371094 L 318.441406 497.550781 L 315.644531 419.195312 L 331.902344 439.257812 C 334.441406 442.371094 337.804688 444.71875 341.679688 445.925781 L 384.730469 459.894531 C 395.90625 463.515625 407.652344 457.417969 411.144531 446.496094 Z M 411.144531 446.496094 " fill-opacity="1" fill-rule="nonzero"/></g><path fill="#000000" d="M 314.695312 290.613281 C 314.695312 292.128906 314.621094 293.644531 314.46875 295.15625 C 314.320312 296.667969 314.097656 298.167969 313.804688 299.65625 C 313.507812 301.144531 313.136719 302.613281 312.699219 304.066406 C 312.257812 305.519531 311.746094 306.949219 311.164062 308.351562 C 310.585938 309.753906 309.9375 311.125 309.222656 312.460938 C 308.503906 313.800781 307.726562 315.101562 306.882812 316.363281 C 306.039062 317.625 305.136719 318.84375 304.171875 320.019531 C 303.210938 321.191406 302.191406 322.316406 301.117188 323.386719 C 300.042969 324.460938 298.921875 325.480469 297.746094 326.441406 C 296.574219 327.40625 295.355469 328.308594 294.09375 329.152344 C 292.832031 329.996094 291.53125 330.777344 290.191406 331.492188 C 288.851562 332.207031 287.484375 332.855469 286.082031 333.4375 C 284.679688 334.015625 283.25 334.527344 281.796875 334.96875 C 280.34375 335.410156 278.875 335.777344 277.386719 336.074219 C 275.894531 336.371094 274.394531 336.59375 272.886719 336.742188 C 271.375 336.890625 269.859375 336.964844 268.34375 336.964844 C 266.824219 336.964844 265.308594 336.890625 263.800781 336.742188 C 262.289062 336.59375 260.789062 336.371094 259.300781 336.074219 C 257.8125 335.777344 256.339844 335.410156 254.886719 334.96875 C 253.433594 334.527344 252.007812 334.015625 250.605469 333.4375 C 249.203125 332.855469 247.832031 332.207031 246.492188 331.492188 C 245.152344 330.777344 243.851562 329.996094 242.589844 329.152344 C 241.328125 328.308594 240.109375 327.40625 238.9375 326.441406 C 237.761719 325.480469 236.640625 324.460938 235.566406 323.386719 C 234.492188 322.316406 233.476562 321.191406 232.511719 320.019531 C 231.550781 318.84375 230.644531 317.625 229.800781 316.363281 C 228.957031 315.101562 228.179688 313.800781 227.464844 312.460938 C 226.75 311.125 226.101562 309.753906 225.519531 308.351562 C 224.9375 306.949219 224.425781 305.519531 223.988281 304.066406 C 223.546875 302.613281 223.175781 301.144531 222.882812 299.65625 C 222.585938 298.167969 222.363281 296.667969 222.214844 295.15625 C 222.066406 293.644531 221.992188 292.128906 221.992188 290.613281 C 221.992188 289.09375 222.066406 287.578125 222.214844 286.070312 C 222.363281 284.558594 222.585938 283.058594 222.882812 281.570312 C 223.175781 280.082031 223.546875 278.609375 223.988281 277.15625 C 224.425781 275.703125 224.9375 274.277344 225.519531 272.875 C 226.101562 271.472656 226.75 270.101562 227.464844 268.761719 C 228.179688 267.421875 228.957031 266.121094 229.800781 264.859375 C 230.644531 263.597656 231.550781 262.378906 232.511719 261.207031 C 233.476562 260.03125 234.492188 258.910156 235.566406 257.835938 C 236.640625 256.761719 237.761719 255.742188 238.9375 254.78125 C 240.109375 253.816406 241.328125 252.914062 242.589844 252.070312 C 243.851562 251.226562 245.152344 250.449219 246.492188 249.734375 C 247.832031 249.015625 249.203125 248.367188 250.605469 247.789062 C 252.007812 247.207031 253.433594 246.695312 254.886719 246.253906 C 256.339844 245.816406 257.8125 245.445312 259.300781 245.148438 C 260.789062 244.855469 262.289062 244.632812 263.800781 244.484375 C 265.308594 244.332031 266.824219 244.257812 268.34375 244.257812 C 269.859375 244.257812 271.375 244.332031 272.886719 244.484375 C 274.394531 244.632812 275.894531 244.855469 277.386719 245.148438 C 278.875 245.445312 280.34375 245.816406 281.796875 246.253906 C 283.25 246.695312 284.679688 247.207031 286.082031 247.789062 C 287.484375 248.367188 288.851562 249.015625 290.191406 249.734375 C 291.53125 250.449219 292.832031 251.226562 294.09375 252.070312 C 295.355469 252.914062 296.574219 253.816406 297.746094 254.78125 C 298.921875 255.742188 300.042969 256.761719 301.117188 257.835938 C 302.191406 258.910156 303.210938 260.03125 304.171875 261.207031 C 305.136719 262.378906 306.039062 263.597656 306.882812 264.859375 C 307.726562 266.121094 308.503906 267.421875 309.222656 268.761719 C 309.9375 270.101562 310.585938 271.472656 311.164062 272.875 C 311.746094 274.277344 312.257812 275.703125 312.699219 277.15625 C 313.140625 278.609375 313.507812 280.082031 313.804688 281.570312 C 314.097656 283.058594 314.320312 284.558594 314.46875 286.070312 C 314.621094 287.578125 314.695312 289.09375 314.695312 290.613281 Z M 314.695312 290.613281 " fill-opacity="1" fill-rule="nonzero"/><g clip-path="url(#a76926e709)"><path fill="#000000" d="M 740.113281 223.433594 L 418.761719 223.433594 C 411.652344 223.433594 405.808594 229.210938 405.808594 236.386719 L 405.808594 390.554688 L 407.144531 391 C 434.253906 399.761719 449.050781 428.84375 440.289062 455.957031 C 434.953125 472.46875 421.875 484.847656 405.746094 489.484375 L 405.746094 532.472656 C 405.746094 539.585938 411.523438 545.425781 418.699219 545.425781 L 562.898438 545.425781 L 562.898438 643.65625 L 522.769531 643.65625 C 513.6875 643.65625 506.257812 651.019531 506.257812 660.164062 C 506.257812 669.246094 513.625 676.675781 522.769531 676.675781 L 635.980469 676.675781 C 645.058594 676.675781 652.488281 669.308594 652.488281 660.164062 C 652.488281 651.085938 645.125 643.65625 635.980469 643.65625 L 595.851562 643.65625 L 595.851562 545.425781 L 740.050781 545.425781 C 747.160156 545.425781 753.003906 539.648438 753.003906 532.472656 L 753.003906 236.386719 C 753.066406 229.210938 747.289062 223.433594 740.113281 223.433594 Z M 664.679688 483.453125 L 494.257812 483.453125 C 485.179688 483.453125 477.75 476.085938 477.75 466.945312 C 477.75 457.863281 485.117188 450.433594 494.257812 450.433594 L 664.679688 450.433594 C 673.761719 450.433594 681.1875 457.800781 681.1875 466.945312 C 681.125 476.085938 673.761719 483.453125 664.679688 483.453125 Z M 664.679688 400.96875 L 494.257812 400.96875 C 485.179688 400.96875 477.75 393.605469 477.75 384.460938 C 477.75 375.378906 485.117188 367.953125 494.257812 367.953125 L 664.679688 367.953125 C 673.761719 367.953125 681.1875 375.316406 681.1875 384.460938 C 681.125 393.539062 673.761719 400.96875 664.679688 400.96875 Z M 664.679688 318.425781 L 494.257812 318.425781 C 485.179688 318.425781 477.75 311.058594 477.75 301.914062 C 477.75 292.769531 485.117188 285.40625 494.257812 285.40625 L 664.679688 285.40625 C 673.761719 285.40625 681.1875 292.769531 681.1875 301.914062 C 681.1875 311.058594 673.761719 318.425781 664.679688 318.425781 Z M 664.679688 318.425781 " fill-opacity="1" fill-rule="nonzero"/></g></svg>