<svg xmlns="http://www.w3.org/2000/svg" xmlns:xlink="http://www.w3.org/1999/xlink" width="1200" zoomAndPan="magnify" viewBox="0 0 900 899.99999" height="1200" preserveAspectRatio="xMidYMid meet" version="1.0"><defs><clipPath id="c997f7d372"><path d="M 277 201.507812 L 355 201.507812 L 355 279 L 277 279 Z M 277 201.507812 " clip-rule="nonzero"/></clipPath><clipPath id="f629270ce8"><path d="M 153.734375 278 L 746.234375 278 L 746.234375 698.757812 L 153.734375 698.757812 Z M 153.734375 278 " clip-rule="nonzero"/></clipPath></defs><path fill="#000000" d="M 660.226562 297.140625 C 660.226562 298.394531 660.167969 299.644531 660.042969 300.890625 C 659.921875 302.136719 659.738281 303.375 659.492188 304.601562 C 659.25 305.832031 658.945312 307.046875 658.582031 308.242188 C 658.21875 309.441406 657.796875 310.621094 657.316406 311.777344 C 656.839844 312.933594 656.304688 314.066406 655.714844 315.171875 C 655.125 316.277344 654.480469 317.347656 653.785156 318.390625 C 653.089844 319.433594 652.34375 320.4375 651.550781 321.40625 C 650.757812 322.375 649.917969 323.300781 649.03125 324.1875 C 648.144531 325.074219 647.21875 325.914062 646.25 326.707031 C 645.285156 327.503906 644.28125 328.246094 643.238281 328.941406 C 642.199219 329.640625 641.125 330.28125 640.019531 330.871094 C 638.917969 331.464844 637.785156 332 636.628906 332.476562 C 635.472656 332.957031 634.296875 333.378906 633.097656 333.742188 C 631.898438 334.105469 630.6875 334.410156 629.460938 334.652344 C 628.230469 334.898438 626.996094 335.082031 625.75 335.203125 C 624.503906 335.328125 623.253906 335.390625 622 335.390625 C 620.75 335.390625 619.5 335.328125 618.253906 335.203125 C 617.007812 335.082031 615.773438 334.898438 614.542969 334.652344 C 613.316406 334.410156 612.101562 334.105469 610.90625 333.742188 C 609.707031 333.378906 608.53125 332.957031 607.375 332.476562 C 606.214844 332 605.085938 331.464844 603.980469 330.871094 C 602.878906 330.28125 601.804688 329.640625 600.765625 328.941406 C 599.722656 328.246094 598.71875 327.503906 597.75 326.707031 C 596.785156 325.914062 595.855469 325.074219 594.972656 324.1875 C 594.085938 323.300781 593.246094 322.375 592.453125 321.40625 C 591.660156 320.4375 590.914062 319.433594 590.21875 318.390625 C 589.523438 317.347656 588.878906 316.277344 588.289062 315.171875 C 587.699219 314.066406 587.164062 312.933594 586.6875 311.777344 C 586.207031 310.621094 585.785156 309.441406 585.421875 308.242188 C 585.058594 307.046875 584.753906 305.832031 584.511719 304.601562 C 584.265625 303.375 584.082031 302.136719 583.960938 300.890625 C 583.835938 299.644531 583.777344 298.394531 583.777344 297.140625 C 583.777344 295.886719 583.835938 294.640625 583.960938 293.390625 C 584.082031 292.144531 584.265625 290.90625 584.511719 289.679688 C 584.753906 288.449219 585.058594 287.238281 585.421875 286.039062 C 585.785156 284.839844 586.207031 283.660156 586.6875 282.503906 C 587.164062 281.347656 587.699219 280.214844 588.289062 279.109375 C 588.878906 278.007812 589.523438 276.933594 590.21875 275.890625 C 590.914062 274.851562 591.660156 273.84375 592.453125 272.875 C 593.246094 271.910156 594.085938 270.980469 594.972656 270.09375 C 595.855469 269.210938 596.785156 268.371094 597.75 267.574219 C 598.71875 266.78125 599.722656 266.035156 600.765625 265.339844 C 601.804688 264.644531 602.878906 264 603.980469 263.410156 C 605.085938 262.820312 606.214844 262.285156 607.375 261.804688 C 608.53125 261.324219 609.707031 260.902344 610.90625 260.539062 C 612.101562 260.175781 613.316406 259.871094 614.542969 259.628906 C 615.773438 259.382812 617.007812 259.199219 618.253906 259.078125 C 619.5 258.953125 620.75 258.894531 622 258.894531 C 623.253906 258.894531 624.503906 258.953125 625.75 259.078125 C 626.996094 259.199219 628.230469 259.382812 629.460938 259.628906 C 630.6875 259.871094 631.898438 260.175781 633.097656 260.539062 C 634.296875 260.902344 635.472656 261.324219 636.628906 261.804688 C 637.785156 262.285156 638.917969 262.820312 640.019531 263.410156 C 641.125 264 642.199219 264.644531 643.238281 265.339844 C 644.28125 266.035156 645.285156 266.78125 646.25 267.574219 C 647.21875 268.371094 648.144531 269.210938 649.03125 270.09375 C 649.917969 270.980469 650.757812 271.910156 651.550781 272.875 C 652.34375 273.84375 653.089844 274.851562 653.785156 275.890625 C 654.480469 276.933594 655.125 278.007812 655.714844 279.109375 C 656.304688 280.214844 656.839844 281.347656 657.316406 282.503906 C 657.796875 283.660156 658.21875 284.839844 658.582031 286.039062 C 658.945312 287.238281 659.25 288.449219 659.492188 289.679688 C 659.738281 290.90625 659.921875 292.144531 660.042969 293.390625 C 660.167969 294.640625 660.226562 295.886719 660.226562 297.140625 Z M 660.226562 297.140625 " fill-opacity="1" fill-rule="nonzero"/><g clip-path="url(#c997f7d372)"><path fill="#000000" d="M 354.421875 239.769531 C 354.421875 241.023438 354.359375 242.269531 354.238281 243.519531 C 354.113281 244.765625 353.929688 246.003906 353.6875 247.230469 C 353.441406 248.460938 353.136719 249.671875 352.773438 250.871094 C 352.410156 252.070312 351.992188 253.25 351.511719 254.40625 C 351.03125 255.5625 350.496094 256.695312 349.90625 257.800781 C 349.316406 258.902344 348.675781 259.976562 347.980469 261.019531 C 347.285156 262.058594 346.539062 263.066406 345.746094 264.035156 C 344.949219 265 344.109375 265.929688 343.226562 266.816406 C 342.339844 267.699219 341.414062 268.539062 340.445312 269.335938 C 339.476562 270.128906 338.472656 270.875 337.433594 271.570312 C 336.390625 272.265625 335.320312 272.910156 334.214844 273.5 C 333.109375 274.089844 331.980469 274.625 330.824219 275.105469 C 329.667969 275.585938 328.488281 276.007812 327.292969 276.371094 C 326.09375 276.734375 324.878906 277.039062 323.652344 277.28125 C 322.425781 277.527344 321.1875 277.710938 319.941406 277.832031 C 318.695312 277.957031 317.445312 278.015625 316.195312 278.015625 C 314.945312 278.015625 313.695312 277.957031 312.449219 277.832031 C 311.203125 277.710938 309.964844 277.527344 308.738281 277.28125 C 307.511719 277.039062 306.296875 276.734375 305.097656 276.371094 C 303.902344 276.007812 302.722656 275.585938 301.566406 275.105469 C 300.410156 274.625 299.28125 274.089844 298.175781 273.5 C 297.070312 272.910156 296 272.265625 294.957031 271.570312 C 293.917969 270.875 292.914062 270.128906 291.945312 269.335938 C 290.976562 268.539062 290.050781 267.699219 289.164062 266.816406 C 288.28125 265.929688 287.441406 265 286.644531 264.035156 C 285.851562 263.066406 285.105469 262.058594 284.410156 261.019531 C 283.714844 259.976562 283.074219 258.902344 282.484375 257.800781 C 281.894531 256.695312 281.359375 255.5625 280.878906 254.40625 C 280.398438 253.25 279.980469 252.070312 279.617188 250.871094 C 279.253906 249.671875 278.949219 248.460938 278.703125 247.230469 C 278.460938 246.003906 278.277344 244.765625 278.152344 243.519531 C 278.03125 242.269531 277.96875 241.023438 277.96875 239.769531 C 277.96875 238.515625 278.03125 237.265625 278.152344 236.019531 C 278.277344 234.773438 278.460938 233.535156 278.703125 232.308594 C 278.949219 231.078125 279.253906 229.863281 279.617188 228.667969 C 279.980469 227.46875 280.398438 226.289062 280.878906 225.132812 C 281.359375 223.976562 281.894531 222.84375 282.484375 221.738281 C 283.074219 220.632812 283.714844 219.5625 284.410156 218.519531 C 285.105469 217.476562 285.851562 216.472656 286.644531 215.503906 C 287.441406 214.535156 288.28125 213.609375 289.164062 212.722656 C 290.050781 211.835938 290.976562 210.996094 291.945312 210.203125 C 292.914062 209.410156 293.917969 208.664062 294.957031 207.96875 C 296 207.269531 297.070312 206.628906 298.175781 206.039062 C 299.28125 205.445312 300.410156 204.910156 301.566406 204.433594 C 302.722656 203.953125 303.902344 203.53125 305.097656 203.167969 C 306.296875 202.804688 307.511719 202.5 308.738281 202.257812 C 309.964844 202.011719 311.203125 201.828125 312.449219 201.707031 C 313.695312 201.582031 314.945312 201.519531 316.195312 201.519531 C 317.445312 201.519531 318.695312 201.582031 319.941406 201.707031 C 321.1875 201.828125 322.425781 202.011719 323.652344 202.257812 C 324.878906 202.5 326.09375 202.804688 327.292969 203.167969 C 328.488281 203.53125 329.667969 203.953125 330.824219 204.433594 C 331.980469 204.910156 333.109375 205.445312 334.214844 206.039062 C 335.320312 206.628906 336.390625 207.269531 337.433594 207.96875 C 338.472656 208.664062 339.476562 209.410156 340.445312 210.203125 C 341.414062 210.996094 342.339844 211.835938 343.226562 212.722656 C 344.109375 213.609375 344.949219 214.535156 345.746094 215.503906 C 346.539062 216.472656 347.285156 217.476562 347.980469 218.519531 C 348.675781 219.5625 349.316406 220.632812 349.90625 221.738281 C 350.496094 222.84375 351.03125 223.976562 351.511719 225.132812 C 351.992188 226.289062 352.410156 227.46875 352.773438 228.667969 C 353.136719 229.863281 353.441406 231.078125 353.6875 232.308594 C 353.929688 233.535156 354.113281 234.773438 354.238281 236.019531 C 354.359375 237.265625 354.421875 238.515625 354.421875 239.769531 Z M 354.421875 239.769531 " fill-opacity="1" fill-rule="nonzero"/></g><g clip-path="url(#f629270ce8)"><path fill="#000000" d="M 682.886719 545.484375 L 675.796875 563.242188 C 707.933594 576.101562 727.121094 594.578125 727.121094 612.6875 C 727.121094 645.015625 665.683594 679.621094 574.21875 679.621094 C 564.820312 679.847656 555.433594 679.574219 546.0625 678.800781 C 536.695312 678.027344 527.390625 676.761719 518.152344 675 C 508.917969 673.238281 499.800781 670.992188 490.804688 668.261719 C 481.804688 665.53125 472.976562 662.332031 464.320312 658.660156 C 496.976562 639.738281 516.878906 613.460938 516.878906 584 C 516.855469 578.472656 516.160156 573.03125 514.796875 567.675781 C 513.433594 562.316406 511.4375 557.207031 508.816406 552.339844 C 530.386719 547.847656 552.1875 545.652344 574.21875 545.753906 C 579.378906 545.753906 584.464844 546.058594 589.566406 546.289062 L 595.242188 603.125 L 648.761719 603.125 L 662.140625 469.257812 L 688.898438 455.871094 L 688.898438 373.636719 C 688.898438 372.382812 688.835938 371.136719 688.710938 369.886719 C 688.589844 368.640625 688.40625 367.402344 688.164062 366.175781 C 687.917969 364.945312 687.613281 363.734375 687.25 362.535156 C 686.886719 361.335938 686.464844 360.15625 685.988281 359 C 685.507812 357.84375 684.972656 356.710938 684.382812 355.605469 C 683.792969 354.503906 683.148438 353.429688 682.453125 352.386719 C 681.757812 351.347656 681.015625 350.339844 680.21875 349.371094 C 679.425781 348.40625 678.585938 347.476562 677.699219 346.59375 C 676.816406 345.707031 675.890625 344.867188 674.921875 344.070312 C 673.953125 343.277344 672.949219 342.53125 671.90625 341.835938 C 670.867188 341.140625 669.792969 340.496094 668.691406 339.90625 C 667.585938 339.316406 666.457031 338.78125 665.300781 338.300781 C 664.144531 337.820312 662.964844 337.398438 661.765625 337.035156 C 660.570312 336.671875 659.355469 336.367188 658.128906 336.125 C 656.902344 335.878906 655.664062 335.695312 654.417969 335.574219 C 653.171875 335.449219 651.921875 335.390625 650.671875 335.390625 L 593.332031 335.390625 C 592.082031 335.390625 590.832031 335.449219 589.585938 335.574219 C 588.339844 335.695312 587.101562 335.878906 585.875 336.125 C 584.648438 336.367188 583.433594 336.671875 582.234375 337.035156 C 581.039062 337.398438 579.859375 337.820312 578.703125 338.300781 C 577.546875 338.78125 576.417969 339.316406 575.3125 339.90625 C 574.207031 340.496094 573.136719 341.140625 572.09375 341.835938 C 571.054688 342.53125 570.050781 343.277344 569.082031 344.070312 C 568.113281 344.867188 567.1875 345.707031 566.300781 346.59375 C 565.417969 347.476562 564.578125 348.40625 563.785156 349.371094 C 562.988281 350.339844 562.246094 351.347656 561.546875 352.386719 C 560.851562 353.429688 560.210938 354.503906 559.621094 355.605469 C 559.03125 356.710938 558.496094 357.84375 558.015625 359 C 557.539062 360.15625 557.117188 361.335938 556.753906 362.535156 C 556.390625 363.734375 556.085938 364.945312 555.839844 366.175781 C 555.597656 367.402344 555.414062 368.640625 555.289062 369.886719 C 555.167969 371.136719 555.105469 372.382812 555.105469 373.636719 L 555.105469 455.871094 L 581.863281 469.257812 L 587.644531 527.097656 C 583.175781 526.925781 578.730469 526.628906 574.21875 526.628906 C 548.121094 526.511719 522.382812 529.496094 497.003906 535.578125 C 469.242188 503.917969 414.816406 482.03125 349.605469 479.222656 L 356.332031 411.886719 L 383.089844 398.5 L 383.089844 316.265625 C 383.089844 315.011719 383.027344 313.761719 382.90625 312.515625 C 382.785156 311.269531 382.601562 310.03125 382.355469 308.804688 C 382.113281 307.574219 381.808594 306.359375 381.445312 305.164062 C 381.082031 303.964844 380.660156 302.785156 380.179688 301.628906 C 379.703125 300.472656 379.167969 299.339844 378.578125 298.234375 C 377.988281 297.128906 377.34375 296.058594 376.648438 295.015625 C 375.953125 293.972656 375.207031 292.96875 374.414062 292 C 373.621094 291.03125 372.78125 290.105469 371.894531 289.21875 C 371.007812 288.332031 370.082031 287.492188 369.113281 286.699219 C 368.148438 285.90625 367.144531 285.160156 366.101562 284.464844 C 365.0625 283.765625 363.988281 283.125 362.882812 282.535156 C 361.78125 281.941406 360.648438 281.40625 359.492188 280.929688 C 358.335938 280.449219 357.160156 280.027344 355.960938 279.664062 C 354.761719 279.300781 353.550781 278.996094 352.320312 278.753906 C 351.09375 278.507812 349.855469 278.324219 348.613281 278.203125 C 347.367188 278.078125 346.117188 278.015625 344.863281 278.015625 L 287.527344 278.015625 C 286.273438 278.015625 285.023438 278.078125 283.777344 278.203125 C 282.535156 278.324219 281.296875 278.507812 280.070312 278.753906 C 278.839844 278.996094 277.628906 279.300781 276.429688 279.664062 C 275.230469 280.027344 274.054688 280.449219 272.898438 280.929688 C 271.742188 281.40625 270.609375 281.941406 269.507812 282.535156 C 268.402344 283.125 267.328125 283.765625 266.289062 284.464844 C 265.246094 285.160156 264.242188 285.90625 263.277344 286.699219 C 262.308594 287.492188 261.382812 288.332031 260.496094 289.21875 C 259.609375 290.105469 258.769531 291.03125 257.976562 292 C 257.183594 292.96875 256.4375 293.972656 255.742188 295.015625 C 255.046875 296.058594 254.402344 297.128906 253.8125 298.234375 C 253.222656 299.339844 252.6875 300.472656 252.210938 301.628906 C 251.730469 302.785156 251.308594 303.964844 250.945312 305.164062 C 250.582031 306.359375 250.277344 307.574219 250.035156 308.804688 C 249.789062 310.03125 249.605469 311.269531 249.484375 312.515625 C 249.363281 313.761719 249.300781 315.011719 249.300781 316.265625 L 249.300781 398.5 L 276.058594 411.886719 L 289.4375 545.753906 L 342.953125 545.753906 L 347.730469 498.289062 C 401.917969 500.582031 449.546875 517.640625 475.921875 541.699219 C 431.09375 557.085938 402.203125 582.875 402.203125 612.6875 C 402.304688 614.757812 402.519531 616.816406 402.839844 618.863281 C 403.164062 620.914062 403.597656 622.9375 404.136719 624.9375 C 404.679688 626.9375 405.324219 628.90625 406.078125 630.835938 C 406.828125 632.769531 407.683594 634.65625 408.636719 636.496094 C 409.589844 638.335938 410.640625 640.117188 411.789062 641.84375 C 412.933594 643.570312 414.167969 645.230469 415.492188 646.828125 C 416.816406 648.421875 418.222656 649.9375 419.710938 651.382812 C 421.199219 652.824219 422.761719 654.183594 424.394531 655.457031 C 410.0625 660.386719 395.421875 664.078125 380.46875 666.527344 C 365.515625 668.980469 350.460938 670.15625 335.308594 670.058594 C 247.246094 670.058594 172.847656 630.65625 172.847656 584 C 172.847656 552.445312 207.605469 522.402344 261.398438 507.503906 L 256.316406 489.070312 C 193.042969 506.550781 153.734375 542.941406 153.734375 584 C 153.734375 642.980469 233.492188 689.183594 335.308594 689.183594 C 353.796875 689.417969 372.128906 687.832031 390.304688 684.429688 C 408.476562 681.027344 426.140625 675.875 443.296875 668.96875 C 474.574219 687.269531 521.191406 698.746094 574.21875 698.746094 C 670.671875 698.746094 746.234375 660.945312 746.234375 612.6875 C 746.234375 586.085938 723.148438 561.589844 682.886719 545.484375 Z M 682.886719 545.484375 " fill-opacity="1" fill-rule="nonzero"/></g></svg>