<svg xmlns="http://www.w3.org/2000/svg" xmlns:xlink="http://www.w3.org/1999/xlink" width="1200" zoomAndPan="magnify" viewBox="0 0 900 899.99999" height="1200" preserveAspectRatio="xMidYMid meet" version="1.0"><defs><clipPath id="7fe99e6c87"><path d="M 180.898438 180.898438 L 719.398438 180.898438 L 719.398438 719.398438 L 180.898438 719.398438 Z M 180.898438 180.898438 " clip-rule="nonzero"/></clipPath></defs><g clip-path="url(#7fe99e6c87)"><path fill="#000000" d="M 631.449219 560.664062 L 570.65625 560.664062 C 566.289062 560.664062 562.71875 564.234375 562.71875 568.601562 L 562.71875 629.394531 C 562.71875 633.757812 566.292969 637.328125 570.65625 637.328125 L 631.449219 637.328125 C 635.8125 637.328125 639.382812 633.757812 639.382812 629.394531 L 639.382812 568.601562 C 639.382812 564.234375 635.8125 560.664062 631.449219 560.664062 Z M 624.199219 592.886719 L 605.226562 616.347656 C 601.886719 620.519531 595.660156 620.894531 591.863281 617.097656 L 578.535156 603.769531 C 575.03125 600.265625 575.03125 594.582031 578.535156 591.082031 C 582.039062 587.574219 587.722656 587.574219 591.226562 591.082031 L 597.5 597.355469 L 610.246094 581.601562 C 613.363281 577.746094 619.015625 577.152344 622.867188 580.265625 C 626.722656 583.382812 627.316406 589.035156 624.199219 592.886719 Z M 419.773438 275.058594 L 598.9375 275.058594 C 600.792969 275.058594 602.308594 273.542969 602.308594 271.6875 L 602.308594 215.65625 C 602.308594 213.800781 600.792969 212.285156 598.9375 212.285156 L 551.824219 212.285156 C 550.316406 212.285156 549.042969 211.339844 548.601562 209.902344 C 543.457031 193.113281 527.832031 180.898438 509.355469 180.898438 C 490.878906 180.898438 475.253906 193.113281 470.109375 209.902344 C 469.667969 211.34375 468.394531 212.285156 466.890625 212.285156 L 419.773438 212.285156 C 417.917969 212.285156 416.402344 213.800781 416.402344 215.65625 L 416.402344 271.6875 C 416.402344 273.542969 417.917969 275.058594 419.773438 275.058594 Z M 509.355469 203.691406 C 515.351562 203.691406 520.210938 208.550781 520.210938 214.546875 C 520.210938 220.542969 515.351562 225.402344 509.355469 225.402344 C 503.359375 225.402344 498.5 220.542969 498.5 214.546875 C 498.5 208.550781 503.359375 203.691406 509.355469 203.691406 Z M 639.382812 318.773438 C 639.382812 314.40625 635.8125 310.835938 631.449219 310.835938 L 570.65625 310.835938 C 566.289062 310.835938 562.71875 314.40625 562.71875 318.773438 L 562.71875 379.5625 C 562.71875 383.929688 566.292969 387.5 570.65625 387.5 L 631.449219 387.5 C 635.8125 387.5 639.382812 383.929688 639.382812 379.5625 Z M 624.199219 343.058594 L 605.226562 366.515625 C 601.886719 370.691406 595.660156 371.066406 591.863281 367.269531 L 578.535156 353.941406 C 575.03125 350.4375 575.03125 344.753906 578.535156 341.25 C 582.039062 337.746094 587.722656 337.746094 591.226562 341.25 L 597.5 347.527344 L 610.246094 331.769531 C 613.363281 327.917969 619.015625 327.320312 622.867188 330.4375 C 626.722656 333.554688 627.316406 339.207031 624.199219 343.058594 Z M 639.382812 445.609375 C 639.382812 441.242188 635.8125 437.675781 631.449219 437.675781 L 570.65625 437.675781 C 566.289062 437.675781 562.71875 441.246094 562.71875 445.609375 L 562.71875 506.402344 C 562.71875 510.765625 566.292969 514.339844 570.65625 514.339844 L 631.449219 514.339844 C 635.8125 514.339844 639.382812 510.765625 639.382812 506.402344 Z M 624.199219 469.894531 L 605.222656 493.355469 C 601.882812 497.527344 595.660156 497.902344 591.859375 494.105469 L 578.535156 480.777344 C 575.03125 477.273438 575.03125 471.589844 578.535156 468.085938 C 582.039062 464.582031 587.722656 464.582031 591.226562 468.085938 L 597.5 474.363281 L 610.246094 458.609375 C 613.363281 454.753906 619.011719 454.160156 622.867188 457.277344 C 626.71875 460.390625 627.316406 466.042969 624.199219 469.894531 Z M 523.253906 454.136719 C 523.253906 459.09375 519.234375 463.109375 514.277344 463.109375 L 421.121094 463.109375 C 416.164062 463.109375 412.148438 459.09375 412.148438 454.136719 C 412.148438 449.179688 416.164062 445.160156 421.121094 445.160156 L 514.277344 445.160156 C 519.234375 445.160156 523.253906 449.179688 523.253906 454.136719 Z M 523.253906 620.867188 C 523.253906 625.824219 519.234375 629.839844 514.277344 629.839844 L 379.328125 629.839844 C 374.375 629.839844 370.355469 625.824219 370.355469 620.867188 C 370.355469 615.910156 374.375 611.890625 379.328125 611.890625 L 514.277344 611.890625 C 519.234375 611.890625 523.253906 615.910156 523.253906 620.867188 Z M 407.640625 327.300781 C 407.640625 322.34375 411.660156 318.324219 416.613281 318.324219 L 514.277344 318.324219 C 519.234375 318.324219 523.253906 322.34375 523.253906 327.300781 C 523.253906 332.253906 519.234375 336.273438 514.277344 336.273438 L 416.613281 336.273438 C 411.660156 336.273438 407.640625 332.253906 407.640625 327.300781 Z M 332.894531 341.191406 C 322.425781 336.371094 311.144531 333.019531 299.308594 331.394531 L 299.308594 251.023438 C 299.308594 237.726562 310.15625 226.878906 323.453125 226.878906 L 398.453125 226.878906 L 398.453125 260.46875 L 336.265625 260.46875 C 334.410156 260.46875 332.894531 261.980469 332.894531 263.835938 Z M 523.253906 371.035156 C 523.253906 375.992188 519.234375 380.011719 514.277344 380.011719 L 390.550781 380.011719 C 385.59375 380.011719 381.574219 375.992188 381.574219 371.035156 C 381.574219 366.082031 385.59375 362.0625 390.550781 362.0625 L 514.277344 362.0625 C 519.234375 362.0625 523.253906 366.082031 523.253906 371.035156 Z M 523.253906 577.128906 C 523.253906 582.085938 519.234375 586.101562 514.277344 586.101562 L 423.855469 586.101562 C 418.898438 586.101562 414.882812 582.085938 414.882812 577.128906 C 414.882812 572.171875 418.898438 568.152344 423.855469 568.152344 L 514.277344 568.152344 C 519.234375 568.152344 523.253906 572.171875 523.253906 577.128906 Z M 523.253906 497.875 C 523.253906 502.832031 519.234375 506.851562 514.277344 506.851562 L 412.988281 506.851562 C 408.03125 506.851562 404.011719 502.832031 404.011719 497.875 C 404.011719 492.917969 408.03125 488.898438 412.988281 488.898438 L 514.277344 488.898438 C 519.234375 488.898438 523.253906 492.917969 523.253906 497.875 Z M 384.777344 450.148438 C 384.777344 393.851562 339.136719 348.210938 282.839844 348.210938 C 226.542969 348.210938 180.898438 393.851562 180.898438 450.148438 C 180.898438 506.449219 226.539062 552.089844 282.839844 552.089844 C 339.136719 552.089844 384.777344 506.449219 384.777344 450.148438 Z M 282.839844 472.398438 C 258.941406 472.398438 237.039062 485.75 226.109375 507.140625 C 210.9375 492.1875 202.429688 471.414062 202.429688 450.148438 C 202.429688 405.738281 238.425781 369.738281 282.839844 369.738281 C 327.25 369.738281 363.25 405.738281 363.25 450.148438 C 363.25 471.472656 354.75 492.132812 339.566406 507.140625 C 328.640625 485.75 306.738281 472.398438 282.839844 472.398438 Z M 315.03125 426.75 C 315.03125 444.53125 300.617188 458.941406 282.839844 458.941406 C 265.0625 458.941406 250.648438 444.53125 250.648438 426.75 C 250.648438 408.972656 265.0625 394.558594 282.839844 394.558594 C 300.617188 394.558594 315.03125 408.972656 315.03125 426.75 Z M 719.402344 251.023438 L 719.402344 695.257812 C 719.402344 708.554688 708.554688 719.398438 695.257812 719.398438 L 323.453125 719.398438 C 310.15625 719.398438 299.3125 708.554688 299.3125 695.257812 L 299.3125 568.90625 C 311.144531 567.28125 322.425781 563.929688 332.898438 559.109375 L 332.898438 682.445312 C 332.898438 684.300781 334.410156 685.816406 336.265625 685.816406 L 682.445312 685.816406 C 684.300781 685.816406 685.816406 684.300781 685.816406 682.445312 L 685.816406 263.835938 C 685.816406 261.980469 684.300781 260.464844 682.445312 260.464844 L 620.257812 260.464844 L 620.257812 226.878906 L 695.257812 226.878906 C 708.554688 226.878906 719.402344 237.722656 719.402344 251.023438 Z M 719.402344 251.023438 " fill-opacity="1" fill-rule="nonzero"/></g></svg>